<svg width="184" height="168" viewBox="0 0 184 168" fill="none" xmlns="http://www.w3.org/2000/svg">
<path class="primary" d="M127.151 128.211C126.818 128.395 126.44 128.499 126.038 128.496L44.6066 128.496C33.9181 128.495 25.2517 119.811 25.2968 109.15L25.4763 65.5904C25.5214 54.9299 34.2647 46.25 44.9531 46.2507L137.959 46.248C148.647 46.2487 157.313 54.9331 157.268 65.5936L157.187 86.6152C157.18 87.8663 156.163 88.8945 154.895 88.9001C153.641 88.8983 152.614 87.8877 152.614 86.6233L152.695 65.6018C152.726 57.4434 146.101 50.8214 137.934 50.817L44.9423 50.8124C36.7625 50.8153 30.0956 57.4505 30.0573 65.5956L29.8777 109.155C29.8467 117.314 36.4716 123.936 44.6381 123.94L126.069 123.94C127.323 123.942 128.35 124.952 128.35 126.217C128.343 127.087 127.859 127.821 127.151 128.211Z" fill="#333750"/>
<path class="primary" d="M68.4661 94.7744C67.4111 95.3556 66.2364 95.6564 65.0028 95.6605L46.2707 95.657C42.3169 95.6528 39.128 92.4556 39.1487 88.5121L39.1903 77.9401C39.1976 74.004 42.4298 70.8028 46.3763 70.7938L65.1084 70.7973C67.0239 70.7986 68.811 71.5462 70.1569 72.8833C71.5102 74.2337 72.2397 76.0316 72.2231 77.9289L72.1815 88.5009C72.1722 90.4114 71.4152 92.1969 70.0556 93.5522C69.59 94.034 69.0536 94.4507 68.4661 94.7744ZM45.096 75.6737C44.2948 76.1152 43.7546 76.9671 43.7506 77.9393L43.709 88.5113C43.7084 89.9321 44.857 91.1007 46.2815 91.0954L65.0136 91.0989C65.7088 91.0969 66.3597 90.8249 66.8461 90.3491C67.3385 89.8526 67.6142 89.2157 67.6152 88.5223L67.6568 77.9503C67.6577 77.2569 67.3877 76.6088 66.9127 76.1257C66.4169 75.6367 65.7795 75.3643 65.0842 75.3663L46.3521 75.3628C45.8951 75.3547 45.4699 75.4677 45.096 75.6737Z" fill="#333750"/>
<path class="primary" d="M67.1553 85.2265C66.8215 85.4104 66.4437 85.5146 66.0414 85.5111L61.4471 85.5133C60.1928 85.5115 59.166 84.5009 59.1657 83.2366C59.1654 81.9722 60.1903 80.9572 61.4579 80.9517L66.0522 80.9495C67.3066 80.9513 68.3333 81.9619 68.3336 83.2262C68.3391 84.0893 67.8631 84.8366 67.1553 85.2265Z" fill="#333750"/>
<path class="primary" d="M51.7065 91.8111C51.3726 91.995 50.9949 92.0992 50.5926 92.0957C49.3382 92.0939 48.3115 91.0833 48.3112 89.8189L48.328 85.2366C48.3277 83.9723 49.3526 82.9573 50.6202 82.9517C51.8746 82.9536 52.9013 83.9642 52.9016 85.2285L52.8848 89.8108C52.8903 90.6738 52.4142 91.4211 51.7065 91.8111Z" fill="#333750"/>
<path class="primary" d="M124.194 110.272C123.86 110.456 123.483 110.56 123.08 110.557L29.0113 110.556C27.757 110.554 26.7302 109.544 26.7299 108.28C26.7296 107.015 27.7545 106 29.0221 105.995L123.112 106.001C124.366 106.003 125.393 107.013 125.393 108.278C125.378 109.135 124.902 109.882 124.194 110.272Z" fill="#333750"/>
<path class="primary" d="M131.033 73.2344C130.699 73.4183 130.321 73.5225 129.919 73.519L103.498 73.525C102.244 73.5232 101.217 72.5126 101.216 71.2483C101.216 69.9839 102.241 68.9689 103.509 68.9634L129.93 68.9573C131.184 68.9591 132.211 69.9697 132.211 71.2341C132.216 72.0971 131.74 72.8444 131.033 73.2344Z" fill="#333750"/>
<circle cx="147.112" cy="115.062" r="26" fill="white" stroke="#0CC260" stroke-width="8"/>
<path d="M133.112 109.986L148.377 124.062L180.112 87.0625" stroke="#0CC260" stroke-width="8"/>
</svg>
