<svg width="51" height="20" viewBox="0 0 51 20" fill="none" xmlns="http://www.w3.org/2000/svg">
<path d="M7.45147 4.6736C7.98872 4.49142 8.56311 4.39255 9.16042 4.39255C11.7681 4.39255 13.9433 6.27662 14.4424 8.78057L18.1376 8.01406C17.2892 3.75934 13.5928 0.556641 9.16042 0.556641C8.14597 0.556641 7.16864 0.724385 6.25684 1.03432L7.45147 4.6736Z" fill="#FFEF00"/>
<path d="M3.09141 16.8548L5.58987 13.981C4.47496 12.9767 3.77062 11.5092 3.77062 9.874C3.77062 8.23987 4.47386 6.7735 5.58878 5.76925L3.08923 2.89648C1.19463 4.60393 0 7.09677 0 9.87511C0 12.6534 1.19572 15.1485 3.09141 16.8548Z" fill="#1EA3DB"/>
<path d="M14.4416 10.9785C13.9404 13.4802 11.7662 15.361 9.16077 15.361C8.56236 15.361 7.98689 15.2621 7.45072 15.0788L6.25391 18.7181C7.1679 19.0291 8.14522 19.198 9.16077 19.198C13.5899 19.198 17.2851 15.9997 18.1358 11.7495L14.4416 10.9785Z" fill="#E44700"/>
<path d="M30.4384 13.5488C29.8279 14.1532 29.0002 14.5209 28.0873 14.5075C27.4616 14.4964 26.8807 14.3065 26.3871 13.9887L25.1641 15.9717C26.0016 16.5105 26.9899 16.8293 28.0545 16.846C29.6041 16.8693 31.0171 16.2494 32.0447 15.2274L30.4384 13.5488Z" fill="black"/>
<path d="M28.2234 5.47137C25.1385 5.42361 22.5975 7.92978 22.5505 11.0703C22.532 12.2467 22.8672 13.3476 23.4547 14.2619L33.5796 9.8594C33.0107 7.37878 30.8409 5.51248 28.2234 5.47137ZM24.8677 11.5102C24.8535 11.378 24.8437 11.2436 24.8481 11.1069C24.8776 9.25729 26.3736 7.78092 28.1906 7.81091C29.18 7.82424 30.0579 8.28526 30.652 8.99846L24.8677 11.5102Z" fill="black"/>
<path d="M36.756 2.9082V13.8894L38.6288 14.6792L37.7432 16.8454L35.8912 16.0623C35.4751 15.879 35.1923 15.599 34.9783 15.2824C34.773 14.9592 34.6201 14.517 34.6201 13.9205V2.9082H36.756Z" fill="black"/>
<path d="M43.5078 7.98075C43.8354 7.86855 44.1859 7.80856 44.5506 7.80856C46.1427 7.80856 47.4695 8.95833 47.7742 10.4869L50.0302 10.0192C49.5126 7.42197 47.2555 5.4668 44.5506 5.4668C43.9304 5.4668 43.3352 5.569 42.7783 5.75896L43.5078 7.98075Z" fill="black"/>
<path d="M40.8468 15.417L42.3712 13.6629C41.6898 13.0497 41.2618 12.1543 41.2618 11.1556C41.2618 10.1581 41.6909 9.2638 42.3712 8.65058L40.8457 6.89648C39.6893 7.9385 38.9609 9.46153 38.9609 11.1556C38.9598 12.852 39.6893 14.3739 40.8468 15.417Z" fill="black"/>
<path d="M47.7744 11.8262C47.4686 13.3525 46.1408 14.5012 44.5508 14.5012C44.1861 14.5012 43.8345 14.4401 43.5069 14.329L42.7764 16.5497C43.3344 16.7397 43.9306 16.843 44.5508 16.843C47.2535 16.843 49.5096 14.8911 50.0293 12.2961L47.7744 11.8262Z" fill="black"/>
</svg>
