<?xml version="1.0" encoding="utf-8"?>
<!-- Generator: Adobe Illustrator 25.2.1, SVG Export Plug-In . SVG Version: 6.00 Build 0)  -->
<svg version="1.1" id="Camada_1" xmlns="http://www.w3.org/2000/svg" xmlns:xlink="http://www.w3.org/1999/xlink" x="0px" y="0px"
	 viewBox="0 0 64 64" style="enable-background:new 0 0 64 64;" xml:space="preserve">
<style type="text/css">
	.st0{fill:#EFEFEF;}
	.st1{fill:#A4A3A3;}
</style>
<ellipse class="st0" cx="31.48" cy="32" rx="25.85" ry="26.28"/>
<path class="st1" d="M27.25,29.38h10.46v-6.8H27.25V29.38z M38.42,30.09H26.54v-8.23h11.87V30.09z"/>
<path class="st1" d="M28.24,21.86h2.7v-1.7h-2.7V21.86z M31.65,22.57h-4.12v-3.13h4.12V22.57z"/>
<path class="st1" d="M34.02,21.86h2.7v-1.7h-2.7V21.86z M37.43,22.57h-4.12v-3.13h4.12V22.57z"/>
<path class="st1" d="M41.83,14.8h10.46v-6.8H41.83V14.8z M53,15.51H41.13V7.28H53V15.51z"/>
<path class="st1" d="M42.82,7.28h2.7v-1.7h-2.7V7.28z M46.23,7.99h-4.12V4.86h4.12V7.99z"/>
<path class="st1" d="M48.6,7.28h2.7v-1.7h-2.7V7.28z M52.01,7.99h-4.12V4.86h4.12V7.99z"/>
<path class="st1" d="M11.66,55.94h10.46v-6.8H11.66V55.94z M22.83,56.65H10.96v-8.23h11.87V56.65z"/>
<path class="st1" d="M12.66,48.43h2.7v-1.7h-2.7V48.43z M16.07,49.14h-4.12v-3.13h4.12V49.14z"/>
<path class="st1" d="M18.43,48.43h2.7v-1.7h-2.7V48.43z M21.84,49.14h-4.12v-3.13h4.12V49.14z"/>
<path class="st1" d="M26.1,55.94h10.46v-6.8H26.1V55.94z M37.26,56.65H25.39v-8.23h11.87V56.65z"/>
<path class="st1" d="M41.52,55.94h10.46v-6.8H41.52V55.94z M52.69,56.65H40.82v-8.23h11.87V56.65z"/>
<path class="st1" d="M41.52,48.43h10.46v-6.8H41.52V48.43z M52.69,49.14H40.82v-8.23h11.87V49.14z"/>
<path class="st1" d="M41.52,40.91h10.46v-6.8H41.52V40.91z M52.69,41.62H40.82V33.4h11.87V41.62z"/>
<path class="st1" d="M41.52,33.4h10.46v-6.8H41.52V33.4z M52.69,34.11H40.82v-8.23h11.87V34.11z"/>
<path class="st1" d="M42.51,25.88h2.7v-1.7h-2.7V25.88z M45.93,26.6h-4.12v-3.13h4.12V26.6z"/>
<path class="st1" d="M48.29,25.88h2.7v-1.7h-2.7V25.88z M51.7,26.6h-4.12v-3.13h4.12V26.6z"/>
<path class="st1" d="M26.1,48.43h10.46v-6.8H26.1V48.43z M37.26,49.14H25.39v-8.23h11.87V49.14z"/>
<path class="st1" d="M27.09,40.91h2.7v-1.7h-2.7V40.91z M30.5,41.62h-4.12V38.5h4.12V41.62z"/>
<path class="st1" d="M32.86,40.91h2.7v-1.7h-2.7V40.91z M36.27,41.62h-4.12V38.5h4.12V41.62z"/>
</svg>
