<svg width="68" height="22" viewBox="0 0 68 22" fill="none" xmlns="http://www.w3.org/2000/svg">
<path d="M25.9617 10.2426H30.2321V10.7777H25.9617V15.6775H25.459V8.30075C25.459 6.6234 26.6191 5.37891 28.1438 5.37891H30.8287V5.92601H28.1438C26.8898 5.92601 25.9617 6.93602 25.9617 8.30075V10.2426Z" fill="#F5F5F5"/>
<path d="M32.4915 5.93654H31.9888V5.35938H32.4915V5.93654ZM32.4915 15.658H31.9888V8.01667H32.4915V15.658Z" fill="#F5F5F5"/>
<path d="M34.8947 13.0202C34.8947 14.3248 35.4417 15.2146 36.7786 15.1544V15.6594C35.2649 15.8097 34.381 14.7216 34.381 13.0202V5.37891H34.9003V8.01817H36.7841V8.56527H34.9003V13.0202H34.8947ZM35.1875 8.56527H33.3037V8.01817H35.1875" fill="#F5F5F5"/>
<path d="M41.7779 15.6605H38.082V8.43404C38.082 7.54426 38.3969 6.69657 38.9659 6.08935C39.5515 5.45208 40.3415 5.10938 41.1868 5.10938C42.9878 5.10938 44.2971 6.35387 44.2971 8.15147C44.2971 9.02922 43.9546 9.70857 43.4629 10.1535C44.2695 10.6164 44.7335 11.4581 44.7335 12.6304C44.739 14.4761 43.6065 15.6605 41.7779 15.6605ZM39.883 9.38393H41.3857C41.4962 9.38393 42.4906 9.35387 42.4906 8.24165C42.4906 7.38193 41.8774 7.02721 41.1923 7.02721C40.4299 7.02721 39.883 7.65246 39.883 8.44003V9.38393ZM41.4796 11.2116H39.883V13.8388H41.5072C42.2143 13.8388 42.8828 13.5563 42.8828 12.5463C42.8828 11.6865 42.3801 11.2116 41.4796 11.2116Z" fill="#F5F5F5"/>
<path d="M52.7717 15.66H51.0646V14.8604C50.5343 15.4977 49.7664 15.8223 48.9211 15.8223C47.065 15.8223 45.5513 14.0427 45.5513 11.8423C45.5513 9.62993 47.0373 7.82031 49.1642 7.82031C51.2801 7.82031 52.7661 9.62993 52.7661 11.8423V15.66H52.7717ZM49.1697 9.66602C48.1754 9.66602 47.3688 10.6039 47.3688 11.8604C47.3688 13.0748 48.1754 14.0127 49.1697 14.0127C50.1641 14.0127 50.9707 13.0508 50.9707 11.8604C50.9707 10.646 50.1641 9.66602 49.1697 9.66602Z" fill="#F5F5F5"/>
<path d="M56.8485 7.82422C58.8097 7.82422 59.9698 9.23703 59.9698 11.239V15.6639H58.1689V11.197C58.1689 10.7641 58.0307 9.74205 56.8485 9.74205C56.0586 9.74205 55.484 10.3372 55.484 11.197V15.6639H53.6831V11.239C53.6831 9.29114 54.9371 7.82422 56.8485 7.82422Z" fill="#F5F5F5"/>
<path d="M67.1458 14.1034V15.6605H65.3338V14.428C65.3338 13.5803 64.9084 12.7807 63.8201 12.7807H62.8257V15.6605H61.0137V5.10938H62.8257V10.899H63.8201C64.9084 10.899 65.3338 10.0813 65.3338 9.23965V8.02521H67.1458V9.58232C67.1458 10.5743 66.7205 11.422 65.947 11.8368C66.7205 12.2637 67.1458 13.0934 67.1458 14.1034Z" fill="#F5F5F5"/>
<path d="M16.9955 5.34196H2.58777C1.24534 5.34196 0.145996 4.14559 0.145996 2.68467C0.145996 1.22375 1.24534 0.0273438 2.58777 0.0273438H16.9955C18.3379 0.0273438 19.4372 1.22375 19.4372 2.68467C19.4428 4.13957 18.3434 5.34196 16.9955 5.34196Z" fill="#F5F5F5"/>
<path d="M19.4427 2.69248V18.3718C19.4427 19.8327 18.3434 21.0291 17.0009 21.0291C15.6585 21.0291 14.5591 19.8327 14.5591 18.3718V2.69248C14.5591 1.23156 15.6585 0.0351562 17.0009 0.0351562C18.3434 0.0351562 19.4427 1.23156 19.4427 2.69248Z" fill="#F9F9F9"/>
<path d="M2.60441 8.44531H9.27788C10.6203 8.44531 11.7197 9.64172 11.7197 11.1026C11.7197 12.5636 10.6203 13.7599 9.27788 13.7599H2.60441C1.26198 13.7599 0.162618 12.5636 0.162618 11.1026C0.157094 9.64773 1.26198 8.44531 2.60441 8.44531Z" fill="#F5F5F5"/>
<path d="M5.03494 11.1065V18.369C5.03494 19.83 3.93557 21.0264 2.59314 21.0264C1.25071 21.0264 0.151367 19.83 0.151367 18.369V11.1065C0.151367 9.64562 1.25071 8.44922 2.59314 8.44922C3.93557 8.44922 5.03494 9.64562 5.03494 11.1065Z" fill="#F5F5F5"/>
</svg>
