<svg width="41" height="33" viewBox="0 0 41 33" fill="none" xmlns="http://www.w3.org/2000/svg">
<g clip-path="url(#clip0)">
<path d="M7.02505 29.2804C6.90834 29.1615 6.76731 29.0704 6.60683 29.0036C6.44473 28.9385 6.26804 28.9059 6.07677 28.9059C5.97464 28.9059 5.86928 28.9141 5.76067 28.932C5.65044 28.9499 5.54346 28.9808 5.43809 29.0248C5.33273 29.0687 5.23384 29.1306 5.13821 29.2088C5.04257 29.2869 4.96152 29.3862 4.89019 29.5051C4.77672 29.3179 4.62435 29.1713 4.43145 29.0639C4.23855 28.958 4.01809 28.9043 3.76846 28.9043C3.68417 28.9043 3.59825 28.9124 3.5091 28.9271C3.41994 28.9417 3.33079 28.9694 3.24325 29.0069C3.15572 29.0443 3.07143 29.0948 2.99038 29.1599C2.91095 29.225 2.838 29.3065 2.77154 29.4041V28.9922H2.06641V32.3609H2.77803V30.4934C2.77803 30.3501 2.80072 30.2231 2.84611 30.1124C2.8915 30.0017 2.95147 29.9072 3.02766 29.8324C3.10385 29.7575 3.19138 29.7005 3.2935 29.6614C3.39563 29.6223 3.50424 29.6028 3.61933 29.6028C3.85923 29.6028 4.04403 29.6793 4.17695 29.8307C4.30825 29.9838 4.37471 30.2003 4.37471 30.4852V32.3593H5.08633V30.4918C5.08633 30.3485 5.10903 30.2215 5.15442 30.1108C5.1998 30.0001 5.25978 29.9056 5.33597 29.8307C5.41215 29.7558 5.49969 29.6988 5.60181 29.6598C5.70394 29.6207 5.81254 29.6012 5.92763 29.6012C6.16754 29.6012 6.35234 29.6777 6.48526 29.8291C6.61656 29.9821 6.68302 30.1987 6.68302 30.4836V32.3576H7.39464V30.241C7.39464 30.044 7.36222 29.8633 7.29738 29.6988C7.23254 29.5409 7.14176 29.3993 7.02505 29.2804Z" fill="black"/>
<path d="M10.7757 29.3993C10.659 29.2495 10.5147 29.129 10.3412 29.0394C10.1678 28.9499 9.96192 28.9043 9.72202 28.9043C9.48697 28.9043 9.26651 28.9483 9.06389 29.0362C8.86126 29.1241 8.68295 29.2462 8.5322 29.4041C8.37982 29.5604 8.26149 29.7477 8.17558 29.9642C8.08967 30.1808 8.0459 30.4185 8.0459 30.6757C8.0459 30.933 8.08967 31.1707 8.17558 31.3873C8.26149 31.6038 8.38145 31.791 8.5322 31.9473C8.68457 32.1036 8.86126 32.2274 9.06389 32.3153C9.26651 32.4032 9.48697 32.4472 9.72202 32.4472C9.96192 32.4472 10.1694 32.4032 10.3412 32.3137C10.5147 32.2241 10.659 32.1053 10.7757 31.9555V32.3593H11.5067V28.9906H10.7757V29.3993ZM10.7481 31.104C10.6995 31.2358 10.6298 31.3482 10.5422 31.4442C10.4531 31.5403 10.3477 31.6152 10.2245 31.6706C10.1013 31.7259 9.96354 31.7536 9.81117 31.7536C9.65231 31.7536 9.51128 31.7243 9.38647 31.6673C9.26165 31.6103 9.15629 31.5322 9.07037 31.4345C8.98446 31.3368 8.918 31.2228 8.87099 31.0909C8.82398 30.959 8.80129 30.8207 8.80129 30.6725C8.80129 30.5243 8.82398 30.3859 8.87099 30.254C8.918 30.1222 8.98446 30.0082 9.07037 29.9105C9.15629 29.8128 9.26165 29.7363 9.38647 29.6777C9.51128 29.6207 9.65231 29.5914 9.81117 29.5914C9.96354 29.5914 10.0997 29.6191 10.2245 29.6744C10.3477 29.7298 10.4547 29.8047 10.5422 29.9007C10.6314 29.9968 10.6995 30.1108 10.7481 30.241C10.7967 30.3729 10.8211 30.5146 10.8211 30.6692C10.8211 30.8239 10.7967 30.9737 10.7481 31.104Z" fill="black"/>
<path d="M14.8704 30.6731C14.6645 30.5119 14.3792 30.4061 14.0128 30.3508L13.666 30.2987C13.5881 30.2873 13.5168 30.2742 13.4487 30.258C13.3807 30.2433 13.3223 30.2221 13.2737 30.1961C13.225 30.17 13.1861 30.1375 13.157 30.0984C13.1278 30.0593 13.1132 30.0088 13.1132 29.9502C13.1132 29.8314 13.1683 29.7337 13.2802 29.6604C13.3904 29.5871 13.546 29.5497 13.747 29.5497C13.8524 29.5497 13.9545 29.5595 14.0566 29.5774C14.1587 29.5969 14.2544 29.6197 14.3452 29.6474C14.4359 29.6751 14.5186 29.706 14.5932 29.7402C14.6677 29.7744 14.731 29.807 14.7828 29.8363L15.0973 29.2631C14.9222 29.1508 14.718 29.0629 14.4846 29.001C14.2511 28.9391 14.0031 28.9082 13.7389 28.9082C13.5249 28.9082 13.332 28.9326 13.1618 28.9831C12.9916 29.0336 12.8457 29.1052 12.7258 29.198C12.6058 29.2908 12.5134 29.4032 12.4486 29.5367C12.3837 29.6702 12.3529 29.82 12.3529 29.986C12.3529 30.258 12.4486 30.4778 12.6415 30.6455C12.8344 30.8132 13.1164 30.9222 13.4909 30.9743L13.841 31.0199C14.042 31.0476 14.1895 31.0932 14.2819 31.1551C14.376 31.2169 14.4213 31.2967 14.4213 31.3928C14.4213 31.5198 14.3565 31.6191 14.2284 31.694C14.1004 31.7673 13.9091 31.8047 13.6578 31.8047C13.5201 31.8047 13.3969 31.7949 13.2883 31.777C13.1797 31.7575 13.0808 31.7331 12.99 31.7021C12.9008 31.6712 12.8198 31.6338 12.7485 31.5931C12.6771 31.5523 12.6107 31.5084 12.5507 31.4612L12.2119 32.0131C12.3335 32.1043 12.4599 32.1792 12.5929 32.2346C12.7258 32.2915 12.8571 32.3355 12.9851 32.3664C13.1132 32.3974 13.2348 32.4185 13.3499 32.4299C13.4633 32.4397 13.5638 32.4462 13.6514 32.4462C13.8913 32.4462 14.1069 32.4185 14.2965 32.3648C14.4862 32.3111 14.6467 32.2346 14.7763 32.1385C14.906 32.0408 15.0049 31.9252 15.0746 31.7901C15.1427 31.6549 15.1783 31.5068 15.1783 31.3456C15.1783 31.0574 15.0762 30.8327 14.8704 30.6731Z" fill="black"/>
<path d="M21.7213 29.3944C21.5819 29.2381 21.4149 29.1176 21.2204 29.0329C21.0259 28.9466 20.8119 28.9043 20.5785 28.9043C20.3305 28.9043 20.1051 28.9466 19.9009 29.0329C19.6967 29.1192 19.5216 29.2397 19.3741 29.3944C19.2266 29.5507 19.1131 29.7379 19.0304 29.9545C18.9494 30.1726 18.9072 30.412 18.9072 30.6757C18.9072 30.9428 18.9494 31.1854 19.0337 31.4035C19.118 31.6217 19.2347 31.8073 19.387 31.962C19.5394 32.1167 19.7193 32.2355 19.9301 32.3202C20.1408 32.4049 20.371 32.4472 20.6239 32.4472C20.8784 32.4472 21.1199 32.4114 21.3501 32.3414C21.5803 32.2713 21.7975 32.1476 22.0033 31.9718L21.6386 31.4475C21.4992 31.5598 21.3436 31.6478 21.175 31.7096C21.0064 31.7715 20.8378 31.8024 20.6693 31.8024C20.5509 31.8024 20.4358 31.7862 20.3256 31.7536C20.2154 31.721 20.1165 31.6706 20.0273 31.6005C19.9382 31.5322 19.8636 31.4426 19.8004 31.3352C19.7372 31.2277 19.6934 31.0974 19.6707 30.9444H22.1492C22.1541 30.9021 22.1573 30.8581 22.1606 30.8109C22.1622 30.7637 22.1638 30.7164 22.1638 30.6709C22.1638 30.4087 22.1249 30.1694 22.0471 29.9512C21.9677 29.7363 21.8591 29.5491 21.7213 29.3944ZM19.674 30.3876C19.6934 30.2654 19.7258 30.1531 19.7712 30.0522C19.8182 29.9496 19.8782 29.8617 19.9512 29.7884C20.0241 29.7151 20.1116 29.6581 20.2138 29.6174C20.3159 29.5784 20.431 29.5572 20.5623 29.5572C20.7957 29.5572 20.9854 29.6305 21.1329 29.7754C21.2804 29.9203 21.3728 30.1254 21.4133 30.3876H19.674Z" fill="black"/>
<path d="M31.4407 29.3993C31.324 29.2495 31.1797 29.129 31.0063 29.0394C30.8328 28.9499 30.627 28.9043 30.3871 28.9043C30.152 28.9043 29.9316 28.9483 29.7289 29.0362C29.5263 29.1241 29.348 29.2462 29.1972 29.4041C29.0449 29.5604 28.9265 29.7477 28.8406 29.9642C28.7547 30.1808 28.7109 30.4185 28.7109 30.6757C28.7109 30.933 28.7547 31.1707 28.8406 31.3873C28.9265 31.6038 29.0465 31.791 29.1972 31.9473C29.3496 32.1036 29.5263 32.2274 29.7289 32.3153C29.9316 32.4032 30.152 32.4472 30.3871 32.4472C30.627 32.4472 30.8345 32.4032 31.0063 32.3137C31.1781 32.2241 31.324 32.1053 31.4407 31.9555V32.3593H32.1718V28.9906H31.4407V29.3993ZM31.4115 31.104C31.3629 31.2358 31.2932 31.3482 31.2057 31.4442C31.1165 31.5403 31.0111 31.6152 30.8863 31.6706C30.7631 31.7259 30.6253 31.7536 30.473 31.7536C30.3141 31.7536 30.1731 31.7243 30.0483 31.6673C29.9234 31.6103 29.8181 31.5322 29.7322 31.4345C29.6463 31.3368 29.5798 31.2228 29.5328 31.0909C29.4858 30.959 29.4631 30.8207 29.4631 30.6725C29.4631 30.5243 29.4858 30.3859 29.5328 30.254C29.5798 30.1222 29.6463 30.0082 29.7322 29.9105C29.8181 29.8128 29.9234 29.7363 30.0483 29.6777C30.1731 29.6207 30.3141 29.5914 30.473 29.5914C30.6253 29.5914 30.7631 29.6191 30.8863 29.6744C31.0095 29.7298 31.1165 29.8047 31.2057 29.9007C31.2948 29.9968 31.3629 30.1108 31.4115 30.241C31.4602 30.3729 31.4845 30.5146 31.4845 30.6692C31.4845 30.8239 31.4618 30.9737 31.4115 31.104Z" fill="black"/>
<path d="M18.0076 31.6901C17.8893 31.734 17.7742 31.7568 17.6591 31.7568C17.5845 31.7568 17.5148 31.7454 17.4516 31.721C17.3868 31.6982 17.3317 31.6608 17.283 31.6103C17.2344 31.5598 17.1971 31.4947 17.1696 31.4149C17.142 31.3351 17.1274 31.2391 17.1274 31.1267V29.6614H18.3026V28.9938H17.1274V27.9746H16.3931V28.9938H15.7236V29.6614H16.3915V31.1414C16.3915 31.5891 16.4969 31.9197 16.7076 32.1313C16.9183 32.343 17.215 32.4488 17.5943 32.4488C17.8066 32.4488 17.9979 32.4162 18.1665 32.3511C18.2783 32.3072 18.3821 32.2583 18.4793 32.203L18.2297 31.5875C18.16 31.625 18.0871 31.6592 18.0076 31.6901Z" fill="black"/>
<path d="M24.6128 28.9043C24.4069 28.9043 24.2221 28.9417 24.0568 29.0166C23.8915 29.0915 23.752 29.2723 23.6402 29.4335V28.9922H22.9756V32.3609H23.6467V30.508C23.6467 30.3648 23.6661 30.2378 23.7067 30.1254C23.7456 30.0131 23.8007 29.9186 23.8704 29.8405C23.9401 29.7623 24.0244 29.7054 24.1216 29.6647C24.2189 29.6256 24.3275 29.6044 24.4442 29.6044C24.5334 29.6044 24.629 29.6142 24.7311 29.6353C24.783 29.6467 24.8316 29.6598 24.8786 29.6744L25.0942 28.9711C25.0359 28.9531 24.9759 28.9369 24.9143 28.9255C24.8252 28.9124 24.7246 28.9043 24.6128 28.9043Z" fill="black"/>
<path d="M34.7827 28.9043C34.5769 28.9043 34.3921 28.9417 34.2267 29.0166C34.0614 29.0915 33.922 29.2723 33.8101 29.4335V28.9922H33.1455V32.3609H33.8166V30.508C33.8166 30.3648 33.8361 30.2378 33.8766 30.1254C33.9155 30.0131 33.9706 29.9186 34.0403 29.8405C34.11 29.7623 34.1943 29.7054 34.2916 29.6647C34.3888 29.6256 34.4974 29.6044 34.6141 29.6044C34.7033 29.6044 34.7989 29.6142 34.9011 29.6353C34.9529 29.6467 35.0016 29.6598 35.0486 29.6744L35.2642 28.9711C35.2058 28.9531 35.1458 28.9369 35.0842 28.9255C34.9951 28.9124 34.8946 28.9043 34.7827 28.9043Z" fill="black"/>
<path d="M38.2005 27.6247V29.401C38.0838 29.2512 37.9395 29.1307 37.766 29.0412C37.5926 28.9516 37.3867 28.906 37.1468 28.906C36.9118 28.906 36.6913 28.95 36.4887 29.0379C36.2861 29.1258 36.1078 29.248 35.957 29.4059C35.8046 29.5622 35.6863 29.7494 35.6004 29.966C35.5145 30.1825 35.4707 30.4202 35.4707 30.6775C35.4707 30.9347 35.5145 31.1724 35.6004 31.389C35.6863 31.6055 35.8063 31.7928 35.957 31.9491C36.1094 32.1054 36.2861 32.2291 36.4887 32.317C36.6913 32.405 36.9118 32.4489 37.1468 32.4489C37.3867 32.4489 37.5942 32.405 37.766 32.3154C37.9379 32.2259 38.0838 32.107 38.2005 31.9572V32.361H38.9315V27.623H38.2005V27.6247ZM38.1713 31.1057C38.1227 31.2376 38.053 31.3499 37.9654 31.446C37.8763 31.542 37.7709 31.6169 37.6477 31.6723C37.5245 31.7277 37.3867 31.7553 37.2343 31.7553C37.0755 31.7553 36.9345 31.726 36.8096 31.669C36.6848 31.6121 36.5795 31.5339 36.4936 31.4362C36.4076 31.3385 36.3412 31.2245 36.2942 31.0927C36.2472 30.9608 36.2245 30.8224 36.2245 30.6742C36.2245 30.5261 36.2472 30.3877 36.2942 30.2558C36.3412 30.1239 36.4076 30.0099 36.4936 29.9122C36.5795 29.8146 36.6848 29.738 36.8096 29.6794C36.9345 29.6224 37.0755 29.5931 37.2343 29.5931C37.3867 29.5931 37.5229 29.6208 37.6477 29.6762C37.7709 29.7315 37.8779 29.8064 37.9654 29.9025C38.0546 29.9985 38.1227 30.1125 38.1713 30.2428C38.2199 30.3746 38.2442 30.5163 38.2442 30.671C38.2442 30.8256 38.2199 30.9754 38.1713 31.1057Z" fill="black"/>
<path d="M26.3632 29.8959C26.4572 29.8014 26.5675 29.7265 26.6955 29.6744C26.8236 29.6223 26.963 29.5946 27.1121 29.5946C27.2758 29.5946 27.4298 29.6207 27.5709 29.6744C27.707 29.7249 27.8254 29.7965 27.9259 29.8877L28.2776 29.2999C28.1463 29.1941 27.9972 29.1078 27.8319 29.0394C27.6114 28.9499 27.3715 28.9043 27.1121 28.9043C26.8528 28.9043 26.6129 28.9499 26.3924 29.0394C26.1719 29.129 25.9823 29.2544 25.8218 29.4123C25.6613 29.5702 25.5365 29.7575 25.4457 29.9724C25.355 30.1873 25.3096 30.4217 25.3096 30.6757C25.3096 30.9297 25.355 31.1626 25.4457 31.3791C25.5365 31.594 25.6629 31.7813 25.8218 31.9392C25.9823 32.0971 26.1719 32.2225 26.3924 32.3121C26.6129 32.4016 26.8528 32.4472 27.1121 32.4472C27.3715 32.4472 27.6114 32.4016 27.8319 32.3121C27.9972 32.2437 28.1463 32.1574 28.2776 32.0515L27.9259 31.4638C27.8254 31.555 27.707 31.625 27.5709 31.6771C27.4298 31.7292 27.2775 31.7568 27.1121 31.7568C26.963 31.7568 26.8236 31.7308 26.6955 31.6771C26.5675 31.625 26.4556 31.5501 26.3632 31.4556C26.2692 31.3612 26.1963 31.2472 26.1428 31.1153C26.0893 30.9835 26.0617 30.8369 26.0617 30.6774C26.0617 30.5178 26.0893 30.3729 26.1428 30.2394C26.1963 30.1059 26.2692 29.9919 26.3632 29.8959Z" fill="black"/>
<path d="M40.4735 31.8691C40.5221 31.8691 40.5675 31.8789 40.6113 31.8968C40.6534 31.9147 40.6907 31.9392 40.7231 31.9701C40.7556 32.001 40.7799 32.0368 40.7977 32.0792C40.8155 32.1215 40.8253 32.1655 40.8253 32.2127C40.8253 32.2599 40.8155 32.3039 40.7977 32.3462C40.7799 32.3885 40.7539 32.4243 40.7231 32.4553C40.6907 32.4862 40.6534 32.5106 40.6113 32.5302C40.5691 32.5481 40.5237 32.5579 40.4735 32.5579C40.4232 32.5579 40.3779 32.5481 40.3341 32.5302C40.2903 32.5123 40.253 32.4878 40.2222 32.4553C40.1898 32.4243 40.1655 32.3869 40.1477 32.3462C40.1298 32.3039 40.1201 32.2599 40.1201 32.2127C40.1201 32.1655 40.1298 32.1215 40.1477 32.0792C40.1655 32.0368 40.1898 32.001 40.2222 31.9701C40.2547 31.9392 40.2919 31.9147 40.3341 31.8968C40.3762 31.8789 40.4232 31.8691 40.4735 31.8691ZM40.4735 32.4618C40.5075 32.4618 40.54 32.4553 40.5691 32.4423C40.5983 32.4292 40.6259 32.4113 40.6469 32.3885C40.6696 32.3657 40.6858 32.3397 40.6988 32.3104C40.7118 32.2811 40.7183 32.2485 40.7183 32.2127C40.7183 32.1785 40.7118 32.1459 40.6988 32.1166C40.6858 32.0857 40.668 32.0596 40.6469 32.0385C40.6243 32.0157 40.5983 31.9994 40.5691 31.9864C40.54 31.9733 40.5075 31.9668 40.4735 31.9668C40.4378 31.9668 40.4054 31.9733 40.3762 31.9864C40.3454 31.9994 40.3195 32.0173 40.2968 32.0385C40.2741 32.0613 40.2563 32.0873 40.2449 32.1166C40.232 32.1476 40.2255 32.1785 40.2255 32.2127C40.2255 32.2469 40.232 32.2794 40.2449 32.3104C40.2579 32.3397 40.2757 32.3674 40.2968 32.3885C40.3195 32.4113 40.3454 32.4292 40.3762 32.4423C40.4054 32.4553 40.4378 32.4618 40.4735 32.4618ZM40.4929 32.0596C40.5351 32.0596 40.5659 32.0694 40.587 32.0873C40.608 32.1052 40.6194 32.1313 40.6194 32.1622C40.6194 32.1866 40.6113 32.2062 40.5967 32.2225C40.5805 32.2387 40.5594 32.2485 40.5286 32.2534L40.6226 32.3625H40.5205L40.4362 32.2566H40.4265V32.3625H40.3406V32.058H40.4929V32.0596ZM40.4265 32.1345V32.1899H40.4897C40.5027 32.1899 40.5124 32.1883 40.5205 32.1834C40.527 32.1785 40.5319 32.172 40.5319 32.1622C40.5319 32.1524 40.5286 32.1459 40.5205 32.141C40.514 32.1362 40.5027 32.1345 40.4897 32.1345H40.4265Z" fill="black"/>
<path d="M15.6783 13.2498C15.6783 9.21523 17.5554 5.62187 20.4765 3.29685C18.3222 1.58239 15.6005 0.556641 12.6373 0.556641C5.65892 0.556641 0 6.24057 0 13.2498C0 20.2591 5.65892 25.943 12.6373 25.943C15.5989 25.943 18.3222 24.9173 20.4765 23.2028C17.5554 20.8778 15.6783 17.2861 15.6783 13.2498Z" fill="#E30D17"/>
<path d="M20.4759 23.2048C23.1259 23.2048 25.2741 18.7487 25.2741 13.2518C25.2741 7.75493 23.1259 3.29883 20.4759 3.29883C17.8259 3.29883 15.6777 7.75493 15.6777 13.2518C15.6777 18.7487 17.8259 23.2048 20.4759 23.2048Z" fill="#EB610A"/>
<path d="M40.0974 20.1141V19.7429H39.9482V19.6403H40.3584V19.7429H40.2092V20.1141H40.0974ZM40.8901 20.1141V19.7852L40.7847 20.0685H40.668L40.5626 19.7852V20.1125H40.4524V19.6387H40.6112L40.7279 19.9415L40.8447 19.6387H41.0035V20.1125H40.8901V20.1141Z" fill="#F69F00"/>
<path d="M28.3157 0.556641C25.3542 0.556641 22.6309 1.58239 20.4766 3.29685C23.3992 5.62187 25.2747 9.21523 25.2747 13.2498C25.2747 17.2844 23.3976 20.8778 20.4766 23.2028C22.6309 24.9173 25.3525 25.943 28.3157 25.943C35.2958 25.943 40.9531 20.2591 40.9531 13.2498C40.9531 6.24057 35.2958 0.556641 28.3157 0.556641Z" fill="#F69F00"/>
</g>
<defs>
<clipPath id="clip0">
<rect width="41" height="32" fill="white" transform="translate(0 0.556641)"/>
</clipPath>
</defs>
</svg>
