<svg width="203" height="213" viewBox="0 0 203 213" fill="none" xmlns="http://www.w3.org/2000/svg">
<path d="M117.414 116.687L109.182 108.256C108.881 107.948 108.526 107.892 108.334 107.892C108.143 107.892 107.787 107.948 107.486 108.256L99.2264 116.715C98.2965 117.667 96.8469 119.207 92.0059 119.207L102.153 129.57C103.691 131.144 105.777 132.027 107.951 132.027C110.126 132.027 112.211 131.144 113.749 129.57L123.924 119.179C121.435 119.179 119.356 118.675 117.414 116.687V116.687ZM99.2264 91.34L107.486 99.7982C107.705 100.022 108.033 100.162 108.334 100.162C108.635 100.162 108.963 100.022 109.182 99.7982L117.36 91.424C119.302 89.3515 121.517 88.8753 124.006 88.8753L113.832 78.4846C112.293 76.9111 110.208 76.0273 108.033 76.0273C105.859 76.0273 103.773 76.9111 102.235 78.4846L92.0879 88.8473C96.9016 88.8473 98.3785 90.4718 99.2264 91.34V91.34Z" fill="#323751"/>
<path d="M133.501 98.2174L127.202 92.0816H123.674C122.162 92.0816 120.651 92.6789 119.615 93.7377L111.216 101.883C110.432 102.643 109.396 103.023 108.36 103.023C107.293 103.008 106.272 102.601 105.504 101.883L97.0494 93.6563C95.9855 92.6246 94.5297 92.0273 92.9899 92.0273H88.8744L82.4632 98.2717C80.8903 99.7988 80.0068 101.869 80.0068 104.027C80.0068 106.186 80.8903 108.256 82.4632 109.783L88.8744 116.027H93.0179C94.5297 116.027 95.9855 115.43 97.0774 114.398L105.532 106.199C106.316 105.439 107.352 105.059 108.388 105.059C109.424 105.059 110.46 105.439 111.244 106.199L119.671 114.371C120.735 115.403 122.19 116 123.73 116H127.258L133.557 109.864C135.137 108.31 136.017 106.212 136.007 104.03C135.996 101.847 135.095 99.7577 133.501 98.2174V98.2174Z" fill="#323751"/>
<path fill-rule="evenodd" clip-rule="evenodd" d="M166.007 71.412L167.293 70.0273H200.721L202.007 71.412V96.335L200.721 97.7197H167.293L166.007 96.335V71.412ZM168.578 74.2781V94.9504H199.435V74.2809L184.804 86.3658H183.235L168.578 74.2781ZM196.941 72.7966H171.073L184.007 83.5107L196.941 72.7966Z" fill="#323751"/>
<path d="M90.44 165.782C91.296 165.782 92.1137 166.056 92.7137 166.538C93.3132 167.02 93.6441 167.668 93.6441 168.338V200.199C93.6441 200.869 93.3132 201.517 92.7137 201.998C92.1137 202.481 91.296 202.754 90.44 202.754H70.6151C69.7591 202.754 68.9414 202.481 68.3414 201.998C67.7419 201.517 67.411 200.869 67.411 200.199V168.338C67.411 167.668 67.7419 167.02 68.3414 166.538C68.9414 166.056 69.7591 165.782 70.6151 165.782H90.44ZM70.6151 162.927C68.8422 162.927 67.1386 163.493 65.8797 164.505C64.6202 165.517 63.9068 166.895 63.9068 168.338V200.199C63.9068 201.642 64.6202 203.02 65.8797 204.032C67.1386 205.043 68.8422 205.609 70.6151 205.609H90.44C92.2129 205.609 93.9165 205.043 95.1754 204.032C96.4348 203.02 97.1482 201.642 97.1482 200.199V168.338C97.1482 166.895 96.4348 165.517 95.1754 164.505C93.9165 163.493 92.2129 162.927 90.44 162.927H70.6151Z" fill="#323751" stroke="#323751" stroke-width="0.2"/>
<path d="M80.5268 200.299C81.4234 200.299 82.2866 200.013 82.9258 199.499C83.5656 198.985 83.9309 198.282 83.9309 197.544C83.9309 196.805 83.5656 196.103 82.9258 195.588C82.2866 195.075 81.4234 194.789 80.5268 194.789C79.6302 194.789 78.767 195.075 78.1278 195.588C77.488 196.103 77.1227 196.805 77.1227 197.544C77.1227 198.282 77.488 198.985 78.1278 199.499C78.767 200.013 79.6302 200.299 80.5268 200.299Z" fill="#323751" stroke="#323751" stroke-width="0.2"/>
<path d="M42.8169 71.8789L42.8167 71.88C42.1433 75.0145 40.4485 77.8229 38.0094 79.8454C35.5702 81.8679 32.5312 82.9846 29.3896 83.0121L29.3887 83.0121C28.0852 83.0121 26.7873 82.8237 25.5383 82.4439L23.1774 85.2728L23.1633 85.2898L23.1433 85.2992L22.0047 85.8365L21.9844 85.8461H21.962H19.1328V90.3515V90.3923L19.1043 90.4215L17.6021 91.9566L17.5727 91.9867H17.5306H13.1241V96.4922V96.533L13.0956 96.5621L11.5935 98.0973L11.564 98.1273H11.522H2.509H2.46694L2.43752 98.0973L0.935361 96.5621L0.906836 96.533V96.4922V89.4089V89.3895L0.91414 89.3714L1.35277 88.2876L1.36018 88.2693L1.37399 88.2552L16.2762 73.0256C15.8607 71.637 15.6622 70.19 15.6881 68.7379L42.8169 71.8789ZM42.8169 71.8789C43.2828 69.591 43.186 67.2227 42.5355 64.9843C41.8334 62.5429 40.4933 60.3429 38.6592 58.6211C36.8449 56.9179 34.6151 55.7462 32.2046 55.2289L42.8169 71.8789ZM39.7433 71.0426L39.7339 71.0306L39.6889 71.2392C39.171 73.6412 37.8703 75.7919 36.0006 77.3392C34.1315 78.886 31.8044 79.7383 29.4001 79.7572C28.1087 79.7594 26.8283 79.514 25.6253 79.0336L25.5951 79.0215L25.5635 79.0295L23.8781 79.4594L23.847 79.4673L23.8264 79.4918L21.2245 82.5757H17.5306H17.4886L17.4592 82.6058L15.957 84.141L15.9285 84.1701V84.2109V88.7164H11.522H11.4799L11.4505 88.7464L9.94834 90.2816L9.91981 90.3107V90.3515V94.857H4.11116V90.0853L19.2515 74.6062L19.2723 74.5849L19.2781 74.5557L19.6086 72.8886L19.6143 72.8599L19.6036 72.8326C19.1008 71.5496 18.8627 70.175 18.8924 68.7877C18.953 66.3597 19.8067 64.0225 21.3171 62.1481C22.8274 60.2739 24.9076 58.9702 27.2261 58.4441C28.945 58.0755 30.7268 58.1515 32.4097 58.6654C34.0928 59.1794 35.6238 60.1151 36.8635 61.3878C38.1031 62.6604 39.0122 64.2296 39.5077 65.9529C39.9834 67.6068 40.0637 69.3522 39.7433 71.0426ZM33.6283 69.0859C33.8729 68.7405 34.0467 68.3484 34.1395 67.9329C34.2322 67.5175 34.242 67.0873 34.1683 66.6679C34.0946 66.2485 33.9388 65.8485 33.7103 65.4919C33.4817 65.1353 33.185 64.8292 32.8378 64.5923C32.4906 64.3553 32.1001 64.1922 31.6895 64.113C31.279 64.0337 30.8571 64.0399 30.449 64.1311C30.0409 64.2224 29.6551 64.3968 29.3147 64.6438C28.9743 64.8908 28.6863 65.2054 28.4678 65.5685C28.0476 66.2671 27.9087 67.1045 28.0801 67.9052C28.2515 68.7059 28.72 69.4081 29.3879 69.8639C30.0558 70.3198 30.871 70.4936 31.6621 70.3484C32.4532 70.2032 33.1578 69.7504 33.6283 69.0859Z" fill="#323751" stroke="#323751" stroke-width="0.2"/>
<path d="M83.1838 43.7091H130.056C132.472 43.7091 134.433 41.7328 134.433 39.3057V5.23246C134.433 2.80547 132.472 0.827344 130.056 0.827344H83.1838C80.768 0.827344 78.8068 2.80547 78.8068 5.23246V39.304C78.8068 41.731 80.768 43.7091 83.1838 43.7091ZM80.8776 5.23246C80.8776 3.9506 81.9138 2.90939 83.1838 2.90939H130.056C131.326 2.90939 132.362 3.9506 132.362 5.23246V39.3057C132.362 40.5876 131.326 41.6288 130.056 41.6288H83.1838C81.9138 41.6288 80.8776 40.5876 80.8776 39.3057V5.23246Z" fill="#323751" stroke="#323751" stroke-width="0.4"/>
<path d="M92.269 2.90939H120.973C121.547 2.90939 122.01 2.44206 122.01 1.86837C122.01 1.29493 121.548 0.827344 120.975 0.827344H92.269C91.6961 0.827344 91.2336 1.29493 91.2336 1.86837C91.2336 2.4418 91.6961 2.90939 92.269 2.90939Z" fill="#323751" stroke="#323751" stroke-width="0.4"/>
<path d="M91.5777 25.3783L86.6225 28.4453C85.0758 29.1864 84.0803 30.7778 84.0803 32.4988V35.1432C84.0803 35.7979 84.6083 36.3314 85.2619 36.3314H108.357C109.01 36.3314 109.539 35.7983 109.534 35.1426V35.1432L91.5777 25.3783ZM91.5777 25.3783C89.9807 23.9782 88.9948 21.9717 88.9118 19.8061L88.9118 19.806L88.7135 14.5962L88.7132 14.5886H88.7134C88.7134 10.495 92.035 7.19844 96.1202 7.19844H97.4905C101.573 7.19844 104.899 10.4962 104.899 14.5511V14.5587L104.899 14.5587L104.699 19.806L104.699 19.8061C104.616 21.9751 103.63 23.9836 102.028 25.3823L107.038 28.4696" fill="#323751" stroke="#323751" stroke-width="0.4"/>
<path d="M115.856 14.8834H127.982C128.636 14.8834 129.164 14.3499 129.164 13.6952C129.164 13.0406 128.636 12.507 127.982 12.507H115.856C115.202 12.507 114.674 13.0406 114.674 13.6952C114.674 14.3499 115.202 14.8834 115.856 14.8834Z" fill="#323751" stroke="#323751" stroke-width="0.4"/>
<path d="M115.855 23.6608H127.981C128.635 23.6608 129.163 23.1273 129.163 22.4726C129.163 21.8179 128.635 21.2844 127.981 21.2844H115.855C115.201 21.2844 114.673 21.8179 114.673 22.4726C114.673 23.1273 115.201 23.6608 115.855 23.6608Z" fill="#323751" stroke="#323751" stroke-width="0.4"/>
<path d="M115.855 32.4323H127.981C128.635 32.4323 129.163 31.8987 129.163 31.2441C129.163 30.5894 128.635 30.0559 127.981 30.0559H115.855C115.201 30.0559 114.673 30.5894 114.673 31.2441C114.673 31.8987 115.201 32.4323 115.855 32.4323Z" fill="#323751" stroke="#323751" stroke-width="0.4"/>
<path fill-rule="evenodd" clip-rule="evenodd" d="M145.588 56.0273H141.728V63.7483L134.007 63.7483V67.6087H141.728V75.3297H145.588V67.6087H153.309V63.7483L145.588 63.7483V56.0273Z" fill="#5F82A6"/>
<path fill-rule="evenodd" clip-rule="evenodd" d="M33.5882 14.0273H29.7278V21.7483L22.0068 21.7483V25.6087H29.7278V33.3297H33.5882V25.6087H41.3092V21.7483L33.5882 21.7483V14.0273Z" fill="#5F82A6"/>
<path fill-rule="evenodd" clip-rule="evenodd" d="M52.5882 130.027H48.7278V137.748L41.0068 137.748V141.609H48.7278V149.33H52.5882V141.609H60.3092V137.748L52.5882 137.748V130.027Z" fill="#5F82A6"/>
<path fill-rule="evenodd" clip-rule="evenodd" d="M147.588 193.027H143.728V200.748L136.007 200.748V204.609H143.728V212.33H147.588V204.609H155.309V200.748L147.588 200.748V193.027Z" fill="#5F82A6"/>
</svg>
