<svg width="183" height="138" viewBox="0 0 183 138" fill="none" xmlns="http://www.w3.org/2000/svg">
<path fill-rule="evenodd" clip-rule="evenodd" d="M40.8419 22.7135H90.5045C92.0002 22.7135 93.0898 23.8855 93.0898 25.181V55.496C93.0898 56.7916 92.0002 57.9635 90.5045 57.9635H40.8419C39.3462 57.9635 38.2565 56.7916 38.2565 55.496V25.181C38.2565 23.8855 39.3462 22.7135 40.8419 22.7135ZM90.5045 18.7969H40.8419C37.2509 18.7969 34.3398 21.6552 34.3398 25.181V55.496C34.3398 59.0219 37.2509 61.8802 40.8419 61.8802H90.5045C94.0955 61.8802 97.0065 59.0219 97.0065 55.496V25.181C97.0065 21.6552 94.0955 18.7969 90.5045 18.7969ZM67.5755 30.8629C67.6919 30.9028 67.8073 30.9463 67.9214 30.9936C68.995 31.4383 69.9125 32.1913 70.5581 33.1574C71.2036 34.1236 71.5482 35.2594 71.5482 36.4214H67.6315C67.6315 36.0341 67.5167 35.6555 67.3015 35.3334C67.0863 35.0114 66.7804 34.7604 66.4226 34.6121C66.0648 34.4639 65.671 34.4251 65.2911 34.5007C64.9112 34.5763 64.5623 34.7628 64.2884 35.0366C64.0145 35.3105 63.828 35.6595 63.7525 36.0393C63.6769 36.4192 63.7157 36.813 63.8639 37.1708C64.0121 37.5287 64.2631 37.8345 64.5852 38.0497C64.9072 38.2649 65.2859 38.3797 65.6732 38.3797C66.8351 38.3797 67.971 38.7243 68.9371 39.3698C69.9033 40.0154 70.6563 40.933 71.101 42.0065C71.5456 43.08 71.662 44.2612 71.4353 45.4009C71.2086 46.5405 70.6491 47.5873 69.8274 48.409C69.1902 49.0462 68.4176 49.5257 67.5713 49.8147L67.5922 51.5551L63.6758 51.6023L63.6538 49.7718C63.577 49.7437 63.5007 49.7139 63.4249 49.6825C62.3514 49.2379 61.4338 48.4848 60.7883 47.5187C60.1427 46.5526 59.7982 45.4167 59.7982 44.2547H63.7148C63.7148 44.6421 63.8297 45.0207 64.0449 45.3427C64.2601 45.6648 64.5659 45.9158 64.9238 46.064C65.2816 46.2122 65.6753 46.251 66.0552 46.1754C66.4351 46.0999 66.784 45.9134 67.0579 45.6395C67.3318 45.3656 67.5183 45.0167 67.5939 44.6368C67.6694 44.2569 67.6307 43.8631 67.4824 43.5053C67.3342 43.1475 67.0832 42.8416 66.7612 42.6264C66.4391 42.4113 66.0605 42.2964 65.6732 42.2964C64.5112 42.2964 63.3753 41.9518 62.4092 41.3063C61.4431 40.6607 60.6901 39.7432 60.2454 38.6697C59.8007 37.5961 59.6844 36.4149 59.9111 35.2752C60.1378 34.1356 60.6973 33.0888 61.5189 32.2671C62.1269 31.6592 62.8581 31.1947 63.6591 30.9024L63.6367 29.2014L67.553 29.1498L67.5755 30.8629ZM100.923 42.1788H106.289C106.936 42.1787 107.557 42.4324 108.019 42.8854C108.473 43.3319 108.738 43.9368 108.756 44.5732V74.8798L108.757 74.9159C108.763 75.2437 108.704 75.5695 108.582 75.8741C108.461 76.1787 108.28 76.4561 108.051 76.6901C107.821 76.924 107.547 77.1099 107.244 77.2367C106.942 77.3635 106.617 77.4288 106.289 77.4288H57.5264C56.872 77.4288 56.2444 77.1688 55.7816 76.7061C55.3189 76.2433 55.0589 75.6157 55.0589 74.9613V65.6788H51.1423V74.9613C51.1423 76.6545 51.8149 78.2783 53.0121 79.4756C54.2094 80.6728 55.8332 81.3454 57.5264 81.3454H106.289C107.137 81.3456 107.977 81.1766 108.759 80.8485C109.542 80.5203 110.251 80.0395 110.845 79.4342C111.44 78.8289 111.907 78.1112 112.221 77.323C112.535 76.5348 112.689 75.692 112.673 74.8438V44.5288C112.642 42.856 111.956 41.2622 110.762 40.0903C109.568 38.9183 107.962 38.2618 106.289 38.2621H100.923V42.1788ZM42.1732 40.2205H50.0065V36.3038H42.1732L42.1732 40.2205ZM89.1732 40.2205H81.3398V36.3038H89.1732V40.2205Z" fill="#333750"/>
<path fill-rule="evenodd" clip-rule="evenodd" d="M12.0882 65.0117H8.22777V72.7326L0.506836 72.7326V76.5931H8.22777V84.314H12.0882V76.5931H19.8092V72.7326L12.0882 72.7326V65.0117Z" fill="#5F82A6"/>
<path fill-rule="evenodd" clip-rule="evenodd" d="M175.088 74.0117H171.228V81.7326L163.507 81.7326V85.5931H171.228V93.314H175.088V85.5931H182.809V81.7326L175.088 81.7326V74.0117Z" fill="#5F82A6"/>
<path fill-rule="evenodd" clip-rule="evenodd" d="M124.088 0.0117188H120.228V7.73265L112.507 7.73265V11.5931H120.228V19.314H124.088V11.5931H131.809V7.73265L124.088 7.73265V0.0117188Z" fill="#5F82A6"/>
<path fill-rule="evenodd" clip-rule="evenodd" d="M53.0882 118.012H49.2278V125.733L41.5068 125.733V129.593H49.2278V137.314H53.0882V129.593H60.8092V125.733L53.0882 125.733V118.012Z" fill="#5F82A6"/>
</svg>
