<svg width="252" height="187" viewBox="0 0 252 187" fill="none" xmlns="http://www.w3.org/2000/svg">
<path fill-rule="evenodd" clip-rule="evenodd" d="M135.036 46.2641L138.781 49.9724L141.182 52.3261L141.144 52.3633H91.9731C89.8886 52.4568 87.9241 53.4214 86.5102 55.0458C85.0962 56.6702 84.3482 58.822 84.4299 61.0294V95.6139C84.3482 97.8213 85.0962 99.9731 86.5102 101.597C87.9241 103.222 89.8886 104.187 91.9731 104.28L92.1391 100.575C91.1046 100.529 90.0791 100.049 89.3073 99.1628C88.5294 98.2691 88.0878 97.0438 88.1357 95.7511C88.1374 95.7054 88.1382 95.6596 88.1382 95.6139V61.0294C88.1382 60.9837 88.1374 60.9379 88.1357 60.8922C88.0878 59.5995 88.5294 58.3742 89.3073 57.4805C90.062 56.6135 91.0593 56.1358 92.0704 56.0717H137.361L135.043 58.3445L137.638 60.9927L145.129 53.6502C145.485 53.3015 145.685 52.8243 145.685 52.3261C145.685 51.8279 145.485 51.3507 145.129 51.002L141.387 47.334L137.645 43.6289L135.036 46.2641ZM154.876 61.0294C154.876 60.9837 154.877 60.9379 154.879 60.8922C154.927 59.5995 154.485 58.3742 153.707 57.4805C152.935 56.5939 151.91 56.1143 150.875 56.0679L151.041 52.3633C153.126 52.4568 155.09 53.4214 156.504 55.0458C157.918 56.6703 158.666 58.822 158.584 61.0294L158.584 95.6139C158.666 97.8213 157.918 99.973 156.504 101.597C155.09 103.222 153.126 104.187 151.041 104.28L101.982 104.28L104.307 106.559L108.053 110.268L105.444 112.903L101.701 109.198L97.9594 105.53C97.6036 105.181 97.4031 104.704 97.4031 104.206C97.4031 103.708 97.6036 103.23 97.9594 102.882L105.45 95.5392L108.046 98.1875L105.614 100.572L150.944 100.572C151.955 100.508 152.952 100.03 153.707 99.1628C154.485 98.2691 154.927 97.0438 154.879 95.7511C154.877 95.7054 154.876 95.6596 154.876 95.6139V61.0294ZM123.346 66.7397C123.511 66.7919 123.674 66.8512 123.834 66.9177C124.945 67.378 125.895 68.1575 126.563 69.1576C127.232 70.1577 127.588 71.3335 127.588 72.5364H123.88C123.88 72.067 123.741 71.6081 123.48 71.2178C123.219 70.8275 122.849 70.5233 122.415 70.3437C121.981 70.1641 121.504 70.1171 121.044 70.2087C120.583 70.3002 120.16 70.5263 119.828 70.8582C119.497 71.1901 119.271 71.613 119.179 72.0734C119.087 72.5337 119.134 73.0109 119.314 73.4446C119.494 73.8783 119.798 74.249 120.188 74.5097C120.578 74.7705 121.037 74.9097 121.507 74.9097V74.9099C122.713 74.9026 123.896 75.2523 124.904 75.9153C125.917 76.5812 126.71 77.5331 127.181 78.6502C127.653 79.7672 127.781 80.9992 127.551 82.1896C127.321 83.38 126.743 84.4752 125.889 85.3362C125.177 86.0543 124.301 86.5824 123.341 86.8775L123.361 88.7964L119.653 88.8358L119.632 86.8409C119.491 86.7947 119.352 86.7433 119.215 86.6867C118.093 86.2252 117.135 85.441 116.46 84.4337C115.785 83.4263 115.425 82.2412 115.425 81.0288L119.133 81.0287C119.133 81.5063 119.275 81.9731 119.541 82.37C119.807 82.7668 120.185 83.0757 120.626 83.2575C121.068 83.4393 121.554 83.4858 122.022 83.3911C122.49 83.2964 122.919 83.0647 123.256 82.7255C123.592 82.3863 123.82 81.9549 123.91 81.4859C124.001 81.017 123.95 80.5317 123.765 80.0916C123.579 79.6516 123.267 79.2766 122.868 79.0142C122.468 78.7519 122 78.6141 121.523 78.6182L121.507 76.7644V78.618C120.304 78.618 119.128 78.2614 118.128 77.5931C117.128 76.9248 116.348 75.975 115.888 74.8637C115.428 73.7525 115.307 72.5296 115.542 71.3499C115.777 70.1702 116.356 69.0865 117.206 68.236C117.89 67.5523 118.724 67.0439 119.638 66.7489L119.616 64.8447L123.324 64.8015L123.346 66.7397Z" fill="#333750"/>
<path fill-rule="evenodd" clip-rule="evenodd" d="M47.5068 119.07C40.683 119.07 34.1387 121.78 29.3136 126.606C24.4884 131.431 21.7777 137.975 21.7777 144.799V146.778H17.8193V144.799C17.8193 136.925 20.9471 129.374 26.5146 123.807C32.0821 118.239 39.6332 115.111 47.5068 115.111C55.3804 115.111 62.9316 118.239 68.4991 123.807C74.0666 129.374 77.1943 136.925 77.1943 144.799V146.778H73.236V144.799C73.236 137.975 70.5253 131.431 65.7001 126.606C60.875 121.78 54.3306 119.07 47.5068 119.07Z" fill="#333750"/>
<path fill-rule="evenodd" clip-rule="evenodd" d="M47.5073 80.0794C38.894 80.0794 31.9115 87.0619 31.9115 95.6753C31.9115 104.289 38.894 111.271 47.5073 111.271C56.1206 111.271 63.1031 104.289 63.1031 95.6753C63.1031 87.0619 56.1206 80.0794 47.5073 80.0794ZM27.9531 95.6753C27.9531 84.8758 36.7078 76.1211 47.5073 76.1211C58.3068 76.1211 67.0615 84.8758 67.0615 95.6753C67.0615 106.475 58.3068 115.229 47.5073 115.229C36.7078 115.229 27.9531 106.475 27.9531 95.6753Z" fill="#333750"/>
<path fill-rule="evenodd" clip-rule="evenodd" d="M203.507 118.07C196.683 118.07 190.139 120.78 185.314 125.606C180.488 130.431 177.778 136.975 177.778 143.799V145.778H173.819V143.799C173.819 135.925 176.947 128.374 182.515 122.807C188.082 117.239 195.633 114.111 203.507 114.111C211.38 114.111 218.932 117.239 224.499 122.807C230.067 128.374 233.194 135.925 233.194 143.799V145.778H229.236V143.799C229.236 136.975 226.525 130.431 221.7 125.606C216.875 120.78 210.331 118.07 203.507 118.07Z" fill="#333750"/>
<path fill-rule="evenodd" clip-rule="evenodd" d="M203.507 79.0794C194.894 79.0794 187.911 86.0619 187.911 94.6753C187.911 103.289 194.894 110.271 203.507 110.271C212.121 110.271 219.103 103.289 219.103 94.6753C219.103 86.0619 212.121 79.0794 203.507 79.0794ZM183.953 94.6753C183.953 83.8758 192.708 75.1211 203.507 75.1211C214.307 75.1211 223.061 83.8758 223.061 94.6753C223.061 105.475 214.307 114.229 203.507 114.229C192.708 114.229 183.953 105.475 183.953 94.6753Z" fill="#333750"/>
<path fill-rule="evenodd" clip-rule="evenodd" d="M158.588 127.027H154.728V134.748L147.007 134.748V138.609H154.728V146.33H158.588V138.609H166.309V134.748L158.588 134.748V127.027Z" fill="#5F82A6"/>
<path fill-rule="evenodd" clip-rule="evenodd" d="M61.5882 34.0273H57.7278V41.7483L50.0068 41.7483V45.6087H57.7278V53.3297H61.5882V45.6087H69.3092V41.7483L61.5882 41.7483V34.0273Z" fill="#5F82A6"/>
<path fill-rule="evenodd" clip-rule="evenodd" d="M84.5882 167.027H80.7278V174.748L73.0068 174.748V178.609H80.7278V186.33H84.5882V178.609H92.3092V174.748L84.5882 174.748V167.027Z" fill="#5F82A6"/>
<path d="M130.72 24.7134L125.721 19.595C125.539 19.408 125.323 19.374 125.207 19.374C125.09 19.374 124.874 19.408 124.692 19.595L119.677 24.7304C119.112 25.3085 118.232 26.2438 115.293 26.2438L121.454 32.5354C122.388 33.4908 123.654 34.0273 124.974 34.0273C126.294 34.0273 127.56 33.4908 128.494 32.5354L134.672 26.2268C133.161 26.2268 131.899 25.9207 130.72 24.7134ZM119.677 9.32431L124.692 14.4597C124.825 14.5957 125.024 14.6807 125.207 14.6807C125.389 14.6807 125.588 14.5957 125.721 14.4597L130.686 9.37532C131.865 8.11699 133.21 7.82792 134.722 7.82792L128.544 1.51925C127.61 0.563935 126.344 0.0273438 125.024 0.0273438C123.704 0.0273438 122.438 0.563935 121.503 1.51925L115.343 7.81091C118.265 7.81091 119.162 8.79717 119.677 9.32431Z" fill="#323751"/>
<path d="M140.485 13.5004L136.661 9.77515H134.519C133.601 9.77515 132.683 10.1378 132.054 10.7806L126.955 15.7257C126.479 16.1872 125.85 16.418 125.221 16.418C124.574 16.4092 123.954 16.1616 123.488 15.7257L118.354 10.7312C117.708 10.1048 116.824 9.74219 115.889 9.74219H113.391L109.498 13.5334C108.543 14.4606 108.007 15.7175 108.007 17.0279C108.007 18.3383 108.543 19.5952 109.498 20.5224L113.391 24.3136H115.906C116.824 24.3136 117.708 23.951 118.371 23.3246L123.504 18.3466C123.98 17.885 124.609 17.6543 125.238 17.6543C125.867 17.6543 126.496 17.885 126.972 18.3466L132.088 23.3081C132.734 23.9345 133.618 24.2971 134.553 24.2971H136.695L140.519 20.5719C141.478 19.628 142.013 18.3544 142.007 17.0293C142 15.7043 141.453 14.4356 140.485 13.5004Z" fill="#323751"/>
</svg>
