<svg width="173" height="179" viewBox="0 0 173 179" fill="none" xmlns="http://www.w3.org/2000/svg">
<path d="M132.556 75.0664C132.556 95.7709 115.549 112.566 94.5562 112.566C73.5632 112.566 56.5562 95.7709 56.5562 75.0664C56.5562 54.3619 73.5632 37.5664 94.5562 37.5664C115.549 37.5664 132.556 54.3619 132.556 75.0664Z" fill="#323751" stroke="#323751"/>
<path fill-rule="evenodd" clip-rule="evenodd" d="M94.5562 77.4245C91.0365 77.4245 87.661 78.8227 85.1723 81.3114C82.6835 83.8002 81.2853 87.1757 81.2853 90.6953V91.7161H79.2437V90.6953C79.2437 86.6342 80.8569 82.7394 83.7286 79.8677C86.6002 76.9961 90.495 75.3828 94.5562 75.3828C98.6173 75.3828 102.512 76.9961 105.384 79.8677C108.255 82.7394 109.869 86.6342 109.869 90.6953V91.7161H107.827V90.6953C107.827 87.1757 106.429 83.8002 103.94 81.3114C101.451 78.8227 98.0758 77.4245 94.5562 77.4245Z" fill="white"/>
<path fill-rule="evenodd" clip-rule="evenodd" d="M94.556 57.3151C90.1134 57.3151 86.5119 60.9166 86.5119 65.3593C86.5119 69.8019 90.1134 73.4034 94.556 73.4034C98.9987 73.4034 102.6 69.8019 102.6 65.3593C102.6 60.9166 98.9987 57.3151 94.556 57.3151ZM84.4702 65.3593C84.4702 59.789 88.9858 55.2734 94.556 55.2734C100.126 55.2734 104.642 59.789 104.642 65.3593C104.642 70.9295 100.126 75.4451 94.556 75.4451C88.9858 75.4451 84.4702 70.9295 84.4702 65.3593Z" fill="white"/>
<path d="M36.7864 100.066C36.7864 100.351 36.8424 100.633 36.9512 100.896C37.0601 101.158 37.2196 101.397 37.4206 101.598C37.6217 101.8 37.8604 101.959 38.1232 102.068C38.3859 102.177 38.6675 102.233 38.9518 102.233C39.2362 102.233 39.5178 102.177 39.7805 102.068C40.0432 101.959 40.2819 101.8 40.483 101.598C40.6841 101.397 40.8436 101.158 40.9524 100.896C41.0612 100.633 41.1173 100.351 41.1173 100.066C41.1173 99.4918 40.8891 98.9407 40.483 98.5343C40.0769 98.128 39.5261 97.8997 38.9518 97.8997C38.3775 97.8997 37.8267 98.128 37.4206 98.5343C37.0146 98.9407 36.7864 99.4918 36.7864 100.066ZM36.0646 87.0664C38.3092 87.0666 40.5155 87.6486 42.4684 88.7557C44.4213 89.8628 46.0543 91.4573 47.2081 93.3838C48.3619 95.3102 48.9973 97.5029 49.0523 99.7481C49.1072 101.993 48.5799 104.214 47.5217 106.195C46.4635 108.176 44.9106 109.848 43.0142 111.05C41.1178 112.251 38.9426 112.941 36.7007 113.051C34.4588 113.161 32.2266 112.688 30.2217 111.678C28.2168 110.668 26.5076 109.156 25.2606 107.289L19.3418 107.289L17.0782 109.551C16.7534 109.875 16.3131 110.058 15.854 110.058C15.3949 110.058 14.9546 109.875 14.6298 109.551L11.5231 106.442L8.44247 109.528C8.27008 109.7 8.06328 109.834 7.83557 109.921C7.60787 110.008 7.36439 110.046 7.12105 110.032C6.8777 110.018 6.63997 109.954 6.42339 109.842C6.20681 109.73 6.01626 109.574 5.86418 109.383L0.436178 102.594C0.19018 102.287 0.0561532 101.905 0.0561533 101.511C0.0561533 101.117 0.19018 100.735 0.436178 100.428L5.97966 93.4942C6.14185 93.2915 6.34748 93.1279 6.58136 93.0153C6.81524 92.9028 7.07139 92.8443 7.33089 92.8442L25.2606 92.8442C26.447 91.0657 28.0539 89.6078 29.9386 88.5999C31.8233 87.592 33.9276 87.0652 36.0646 87.0664ZM46.1699 100.066C46.1709 97.8398 45.4373 95.6751 44.083 93.9083C42.7286 92.1415 40.8293 90.8714 38.6797 90.2952C36.5302 89.7189 34.2506 89.8688 32.1949 90.7215C30.1391 91.5741 28.4222 93.0819 27.3105 95.0109C27.1838 95.2304 27.0016 95.4128 26.7821 95.5395C26.5627 95.6663 26.3138 95.7331 26.0604 95.7331L7.88523 95.7331L3.26567 101.511L7.31068 106.569L10.299 103.582C10.6238 103.258 11.0641 103.075 11.5231 103.075C11.9822 103.075 12.4225 103.258 12.7473 103.582L15.854 106.691L17.6354 104.908C17.96 104.583 18.4003 104.4 18.8596 104.4L26.0603 104.4C26.3138 104.4 26.5627 104.466 26.7821 104.593C27.0016 104.72 27.1838 104.902 27.3105 105.122C28.4222 107.051 30.1391 108.559 32.1949 109.411C34.2506 110.264 36.5302 110.414 38.6797 109.838C40.8293 109.261 42.7286 107.991 44.083 106.225C45.4373 104.458 46.1709 102.293 46.1699 100.066Z" fill="#323751"/>
<path d="M91.4547 138.595C91.7609 138.586 92.0621 138.516 92.3413 138.391C92.6206 138.266 92.8722 138.088 93.082 137.867C93.2917 137.646 93.4555 137.386 93.5638 137.102C93.6722 136.818 93.7231 136.515 93.7136 136.212C93.704 135.909 93.6343 135.61 93.5084 135.334C93.3824 135.057 93.2027 134.808 92.9795 134.6C92.7563 134.392 92.4939 134.23 92.2074 134.123C91.921 134.016 91.6159 133.966 91.3098 133.975C90.6915 133.995 90.1061 134.257 89.6825 134.704C89.2589 135.15 89.0317 135.746 89.0509 136.358C89.0701 136.971 89.3342 137.551 89.785 137.97C90.2358 138.39 90.8364 138.615 91.4547 138.595ZM77.4909 139.804C77.416 137.41 77.9684 135.036 79.0943 132.916C80.2202 130.795 81.8812 128.999 83.9154 127.703C85.9497 126.408 88.2877 125.656 90.7017 125.521C93.1157 125.387 95.5233 125.874 97.6899 126.936C99.8565 127.998 101.708 129.599 103.064 131.581C104.421 133.563 105.235 135.861 105.429 138.248C105.622 140.636 105.188 143.033 104.169 145.206C103.149 147.379 101.579 149.253 99.6115 150.647L99.8096 156.96L102.319 159.299C102.679 159.634 102.89 160.098 102.906 160.588C102.921 161.077 102.74 161.553 102.401 161.911L99.1605 165.33L102.583 168.512C102.775 168.69 102.926 168.906 103.027 169.146C103.128 169.386 103.177 169.644 103.171 169.904C103.164 170.164 103.102 170.42 102.989 170.655C102.876 170.89 102.714 171.098 102.514 171.267L95.3911 177.286C95.0685 177.559 94.6619 177.715 94.2381 177.728C93.8144 177.742 93.3988 177.612 93.0598 177.36L85.414 171.68C85.1905 171.514 85.0075 171.3 84.8787 171.054C84.7498 170.809 84.6783 170.537 84.6694 170.261L84.0694 151.134C82.116 149.929 80.4935 148.264 79.346 146.287C78.1984 144.311 77.5612 142.084 77.4909 139.804ZM91.1407 128.585C88.7448 128.659 86.4401 129.515 84.5844 131.019C82.7286 132.524 81.4256 134.593 80.8775 136.905C80.3295 139.218 80.567 141.645 81.5533 143.809C82.5395 145.973 84.2194 147.753 86.3321 148.874C86.5726 149.002 86.7749 149.19 86.9186 149.42C87.0624 149.65 87.1425 149.913 87.151 150.183L87.7593 169.572L94.1307 174.305L99.4382 169.819L96.1241 166.732C95.764 166.396 95.5531 165.933 95.5377 165.443C95.5223 164.953 95.7038 164.478 96.0422 164.12L99.2829 160.701L97.3053 158.861C96.9446 158.526 96.7331 158.062 96.7173 157.572L96.4763 149.891C96.4678 149.621 96.5313 149.353 96.6604 149.114C96.7895 148.876 96.9796 148.676 97.2116 148.533C99.2499 147.282 100.815 145.4 101.663 143.178C102.512 140.956 102.597 138.519 101.905 136.246C101.213 133.972 99.783 131.989 97.8366 130.604C95.8903 129.219 93.5365 128.509 91.1407 128.585Z" fill="#5F82A6"/>
<path d="M48.2103 22.7439C48.0327 22.7439 47.857 22.7786 47.6929 22.8459C47.5289 22.9132 47.3799 23.0119 47.2543 23.1363C47.1288 23.2607 47.0292 23.4083 46.9613 23.5708C46.8933 23.7334 46.8584 23.9075 46.8584 24.0835C46.8584 24.2594 46.8933 24.4336 46.9613 24.5961C47.0292 24.7586 47.1288 24.9063 47.2543 25.0306C47.3799 25.155 47.5289 25.2537 47.6929 25.321C47.857 25.3883 48.0327 25.423 48.2103 25.423C48.5688 25.423 48.9127 25.2819 49.1662 25.0306C49.4198 24.7794 49.5622 24.4387 49.5622 24.0835C49.5622 23.7282 49.4198 23.3875 49.1662 23.1363C48.9127 22.8851 48.5688 22.7439 48.2103 22.7439ZM56.3218 22.2974C56.3217 23.6859 55.9585 25.0507 55.2677 26.2588C54.5769 27.4669 53.582 28.477 52.38 29.1908C51.178 29.9045 49.8098 30.2976 48.4089 30.3316C47.008 30.3656 45.6221 30.0394 44.3862 29.3848C43.1504 28.7302 42.1068 27.7695 41.3571 26.5964C40.6074 25.4233 40.1773 24.0777 40.1085 22.6909C40.0398 21.3041 40.3349 19.9233 40.965 18.683C41.5951 17.4428 42.5387 16.3855 43.7039 15.6141L43.7039 11.9527L42.2925 10.5524C42.09 10.3515 41.9762 10.0791 41.9762 9.79514C41.9762 9.51116 42.09 9.23879 42.2925 9.03786L44.232 7.11608L42.3069 5.21038C42.1994 5.10374 42.1157 4.97581 42.0615 4.83495C42.0072 4.69409 41.9836 4.54348 41.9921 4.39295C42.0006 4.24242 42.041 4.09535 42.1108 3.96138C42.1806 3.8274 42.2781 3.70953 42.397 3.61545L46.6331 0.257691C46.8249 0.105517 47.0633 0.0226079 47.309 0.0226079C47.5547 0.022608 47.7931 0.105517 47.985 0.257691L52.3111 3.68689C52.4376 3.78722 52.5397 3.91442 52.6099 4.0591C52.6801 4.20377 52.7166 4.36223 52.7167 4.52276L52.7167 15.6141C53.8264 16.348 54.736 17.342 55.3649 18.5079C55.9938 19.6738 56.3225 20.9755 56.3218 22.2974ZM48.2103 28.5486C49.5996 28.5492 50.9503 28.0954 52.0527 27.2576C53.1551 26.4198 53.9476 25.2448 54.3072 23.9151C54.6667 22.5854 54.5732 21.1753 54.0412 19.9036C53.5091 18.6319 52.5683 17.5698 51.3648 16.8821C51.2277 16.8038 51.114 16.691 51.0349 16.5553C50.9558 16.4195 50.9141 16.2655 50.9141 16.1088L50.9141 4.86567L47.309 2.00801L44.1527 4.51025L46.0166 6.3588C46.2191 6.55973 46.3329 6.8321 46.3329 7.11608C46.3329 7.40006 46.2191 7.67244 46.0166 7.87337L44.077 9.79514L45.1892 10.8971C45.3921 11.0979 45.5062 11.3703 45.5065 11.6544L45.5065 16.1088C45.5065 16.2655 45.4648 16.4195 45.3857 16.5553C45.3066 16.691 45.1928 16.8038 45.0558 16.8821C43.8523 17.5698 42.9114 18.6319 42.3794 19.9036C41.8474 21.1753 41.7539 22.5854 42.1134 23.9151C42.473 25.2448 43.2654 26.4198 44.3678 27.2576C45.4703 28.0954 46.8209 28.5492 48.2103 28.5486Z" fill="#323751"/>
<path d="M164.108 102.601C164.284 102.601 164.459 102.566 164.621 102.499C164.784 102.432 164.932 102.335 165.057 102.211C165.181 102.088 165.28 101.941 165.348 101.78C165.415 101.618 165.45 101.445 165.45 101.271C165.45 101.096 165.415 100.923 165.348 100.762C165.28 100.601 165.181 100.454 165.057 100.331C164.932 100.207 164.784 100.109 164.621 100.042C164.459 99.9756 164.284 99.9412 164.108 99.9412C163.752 99.9412 163.411 100.081 163.159 100.331C162.907 100.58 162.766 100.918 162.766 101.271C162.766 101.624 162.907 101.962 163.159 102.211C163.411 102.46 163.752 102.601 164.108 102.601ZM156.056 103.044C156.056 101.665 156.417 100.311 157.102 99.1116C157.788 97.9124 158.776 96.9097 159.969 96.2012C161.162 95.4927 162.52 95.1025 163.911 95.0688C165.301 95.035 166.677 95.3588 167.904 96.0086C169.131 96.6584 170.166 97.612 170.911 98.7764C171.655 99.9409 172.082 101.277 172.15 102.653C172.218 104.03 171.925 105.4 171.3 106.632C170.674 107.863 169.738 108.912 168.581 109.678V113.312L169.982 114.702C170.183 114.902 170.296 115.172 170.296 115.454C170.296 115.736 170.183 116.006 169.982 116.206L168.057 118.113L169.968 120.005C170.075 120.111 170.158 120.238 170.211 120.378C170.265 120.517 170.289 120.667 170.28 120.816C170.272 120.966 170.232 121.112 170.162 121.245C170.093 121.378 169.996 121.495 169.878 121.588L165.673 124.921C165.483 125.072 165.246 125.154 165.003 125.154C164.759 125.154 164.522 125.072 164.332 124.921L160.037 121.517C159.912 121.418 159.81 121.291 159.741 121.148C159.671 121.004 159.635 120.847 159.635 120.687V109.678C158.533 108.949 157.63 107.963 157.006 106.805C156.382 105.648 156.055 104.356 156.056 103.044ZM164.108 96.8387C162.729 96.8381 161.388 97.2885 160.294 98.1201C159.199 98.9518 158.413 100.118 158.056 101.438C157.699 102.758 157.792 104.158 158.32 105.42C158.848 106.682 159.782 107.737 160.977 108.419C161.113 108.497 161.226 108.609 161.304 108.744C161.383 108.878 161.424 109.031 161.424 109.187V120.347L165.003 123.184L168.136 120.7L166.285 118.865C166.084 118.665 165.971 118.395 165.971 118.113C165.971 117.831 166.084 117.561 166.285 117.362L168.211 115.454L167.107 114.36C166.905 114.161 166.792 113.89 166.792 113.608V109.187C166.792 109.031 166.833 108.878 166.912 108.744C166.99 108.609 167.103 108.497 167.239 108.419C168.434 107.737 169.368 106.682 169.896 105.42C170.424 104.158 170.517 102.758 170.16 101.438C169.803 100.118 169.016 98.9518 167.922 98.1201C166.828 97.2885 165.487 96.8381 164.108 96.8387Z" fill="#323751"/>
<path d="M139.567 43.5664C139.567 43.4241 139.537 43.2833 139.479 43.1518C139.421 43.0204 139.337 42.901 139.23 42.8004C139.123 42.6998 138.997 42.62 138.857 42.5655C138.718 42.5111 138.569 42.4831 138.418 42.4831C138.267 42.4831 138.117 42.5111 137.978 42.5655C137.839 42.62 137.712 42.6998 137.605 42.8004C137.498 42.901 137.414 43.0204 137.356 43.1518C137.298 43.2833 137.269 43.4241 137.269 43.5664C137.269 43.8537 137.39 44.1293 137.605 44.3324C137.821 44.5356 138.113 44.6497 138.418 44.6497C138.722 44.6497 139.015 44.5356 139.23 44.3324C139.446 44.1293 139.567 43.8537 139.567 43.5664ZM139.95 50.0664C138.759 50.0663 137.588 49.7753 136.552 49.2218C135.515 48.6682 134.649 47.8709 134.037 46.9077C133.425 45.9445 133.087 44.8482 133.058 43.7256C133.029 42.603 133.309 41.4924 133.87 40.5021C134.432 39.5117 135.256 38.6755 136.262 38.0747C137.268 37.474 138.423 37.1293 139.612 37.0742C140.802 37.0192 141.986 37.2556 143.05 37.7605C144.114 38.2654 145.021 39.0216 145.682 39.9553L148.823 39.9553L150.024 38.8243C150.196 38.662 150.43 38.5708 150.674 38.5708C150.917 38.5708 151.151 38.662 151.323 38.8243L152.972 40.3785L154.606 38.8359C154.698 38.7497 154.807 38.6826 154.928 38.6392C155.049 38.5957 155.178 38.5767 155.307 38.5836C155.437 38.5904 155.563 38.6228 155.678 38.6787C155.793 38.7346 155.894 38.8128 155.974 38.9081L158.855 42.3025C158.985 42.4562 159.056 42.6473 159.056 42.8442C159.056 43.0411 158.985 43.2321 158.855 43.3859L155.913 46.8525C155.827 46.9539 155.718 47.0357 155.594 47.0919C155.47 47.1482 155.334 47.1774 155.196 47.1775L145.682 47.1775C145.053 48.0668 144.2 48.7957 143.2 49.2997C142.2 49.8036 141.084 50.067 139.95 50.0664ZM134.588 43.5664C134.587 44.6797 134.976 45.7621 135.695 46.6455C136.414 47.5289 137.421 48.1639 138.562 48.452C139.703 48.7401 140.912 48.6652 142.003 48.2389C143.094 47.8125 144.005 47.0586 144.595 46.0942C144.662 45.9844 144.759 45.8932 144.875 45.8298C144.991 45.7664 145.124 45.7331 145.258 45.7331L154.902 45.7331L157.353 42.8442L155.207 40.315L153.621 41.8085C153.449 41.9708 153.215 42.062 152.972 42.062C152.728 42.062 152.494 41.9708 152.322 41.8085L150.674 40.2543L149.728 41.1455C149.556 41.3081 149.323 41.3995 149.079 41.3997L145.258 41.3997C145.124 41.3997 144.991 41.3664 144.875 41.303C144.759 41.2396 144.662 41.1484 144.595 41.0386C144.005 40.0742 143.094 39.3203 142.003 38.8939C140.912 38.4676 139.703 38.3927 138.562 38.6808C137.421 38.9689 136.414 39.6039 135.695 40.4873C134.976 41.3707 134.587 42.4531 134.588 43.5664Z" fill="#323751"/>
<path fill-rule="evenodd" clip-rule="evenodd" d="M45.0562 138.066H43.0562V142.066L39.0562 142.066V144.066H43.0562V148.066H45.0562V144.066H49.0562V142.066L45.0562 142.066V138.066Z" fill="#5F82A6"/>
<path fill-rule="evenodd" clip-rule="evenodd" d="M152.056 82.0664H150.056V86.0664L146.056 86.0664V88.0664H150.056V92.0664H152.056V88.0664H156.056V86.0664L152.056 86.0664V82.0664Z" fill="#5F82A6"/>
<path fill-rule="evenodd" clip-rule="evenodd" d="M125.056 125.066H123.056V129.066L119.056 129.066V131.066H123.056V135.066H125.056V131.066H129.056V129.066L125.056 129.066V125.066Z" fill="#5F82A6"/>
<path fill-rule="evenodd" clip-rule="evenodd" d="M44.0562 45.0664H42.0562V49.0664L38.0562 49.0664V51.0664H42.0562V55.0664H44.0562V51.0664H48.0562V49.0664L44.0562 49.0664V45.0664Z" fill="#5F82A6"/>
<path fill-rule="evenodd" clip-rule="evenodd" d="M113.056 5.06641H111.056V9.06641L107.056 9.06641V11.0664H111.056V15.0664H113.056V11.0664H117.056V9.06641L113.056 9.06641V5.06641Z" fill="#5F82A6"/>
</svg>
