<svg width="203" height="213" viewBox="0 0 203 213" fill="none" xmlns="http://www.w3.org/2000/svg">
<rect width="203" height="213" fill="#E5E5E5"/>
<rect x="-1845" y="-2046" width="15860" height="29540" fill="#EEEEEE"/>
<g clip-path="url(#clip0_0_1)">
<rect width="320" height="568" transform="translate(-54.9932 -111.973)" fill="#F5F5F5"/>
<rect x="-54.7832" y="-111.953" width="320" height="568" fill="#F9F9F9"/>
<path d="M117.414 116.687L109.182 108.256C108.881 107.948 108.526 107.892 108.334 107.892C108.143 107.892 107.787 107.948 107.486 108.256L99.2264 116.715C98.2965 117.667 96.8469 119.207 92.0059 119.207L102.153 129.57C103.691 131.144 105.777 132.027 107.951 132.027C110.126 132.027 112.211 131.144 113.749 129.57L123.924 119.179C121.435 119.179 119.356 118.675 117.414 116.687V116.687ZM99.2264 91.34L107.486 99.7982C107.705 100.022 108.033 100.162 108.334 100.162C108.635 100.162 108.963 100.022 109.182 99.7982L117.36 91.424C119.302 89.3515 121.517 88.8753 124.006 88.8753L113.832 78.4846C112.293 76.9111 110.208 76.0273 108.033 76.0273C105.859 76.0273 103.773 76.9111 102.235 78.4846L92.0879 88.8473C96.9016 88.8473 98.3785 90.4718 99.2264 91.34V91.34Z" fill="#323751"/>
<path d="M133.501 98.2174L127.202 92.0816H123.674C122.162 92.0816 120.651 92.6789 119.615 93.7377L111.216 101.883C110.432 102.643 109.396 103.023 108.36 103.023C107.293 103.008 106.272 102.601 105.504 101.883L97.0494 93.6563C95.9855 92.6246 94.5297 92.0273 92.9899 92.0273H88.8744L82.4632 98.2717C80.8903 99.7988 80.0068 101.869 80.0068 104.027C80.0068 106.186 80.8903 108.256 82.4632 109.783L88.8744 116.027H93.0179C94.5297 116.027 95.9855 115.43 97.0774 114.398L105.532 106.199C106.316 105.439 107.352 105.059 108.388 105.059C109.424 105.059 110.46 105.439 111.244 106.199L119.671 114.371C120.735 115.403 122.19 116 123.73 116H127.258L133.557 109.864C135.137 108.31 136.017 106.212 136.007 104.03C135.996 101.847 135.095 99.7577 133.501 98.2174V98.2174Z" fill="#323751"/>
<path fill-rule="evenodd" clip-rule="evenodd" d="M166.007 71.412L167.293 70.0273H200.721L202.007 71.412V96.335L200.721 97.7197H167.293L166.007 96.335V71.412ZM168.578 74.2781V94.9504H199.435V74.2809L184.804 86.3658H183.235L168.578 74.2781ZM196.941 72.7966H171.073L184.007 83.5107L196.941 72.7966Z" fill="#323751"/>
<mask id="path-6-outside-1_0_1" maskUnits="userSpaceOnUse" x="63.0068" y="162.027" width="35" height="44" fill="black">
<rect fill="white" x="63.0068" y="162.027" width="35" height="44"/>
<path d="M90.44 165.682C91.3163 165.682 92.1567 165.962 92.7763 166.46C93.396 166.958 93.7441 167.633 93.7441 168.338V200.199C93.7441 200.903 93.396 201.578 92.7763 202.076C92.1567 202.574 91.3163 202.854 90.44 202.854H70.6151C69.7388 202.854 68.8984 202.574 68.2787 202.076C67.6591 201.578 67.311 200.903 67.311 200.199V168.338C67.311 167.633 67.6591 166.958 68.2787 166.46C68.8984 165.962 69.7388 165.682 70.6151 165.682H90.44ZM70.6151 163.027C68.8625 163.027 67.1816 163.587 65.9424 164.583C64.7031 165.579 64.0068 166.929 64.0068 168.338V200.199C64.0068 201.607 64.7031 202.958 65.9424 203.954C67.1816 204.95 68.8625 205.509 70.6151 205.509H90.44C92.1926 205.509 93.8734 204.95 95.1127 203.954C96.352 202.958 97.0482 201.607 97.0482 200.199V168.338C97.0482 166.929 96.352 165.579 95.1127 164.583C93.8734 163.587 92.1926 163.027 90.44 163.027H70.6151Z"/>
</mask>
<path d="M90.44 165.682C91.3163 165.682 92.1567 165.962 92.7763 166.46C93.396 166.958 93.7441 167.633 93.7441 168.338V200.199C93.7441 200.903 93.396 201.578 92.7763 202.076C92.1567 202.574 91.3163 202.854 90.44 202.854H70.6151C69.7388 202.854 68.8984 202.574 68.2787 202.076C67.6591 201.578 67.311 200.903 67.311 200.199V168.338C67.311 167.633 67.6591 166.958 68.2787 166.46C68.8984 165.962 69.7388 165.682 70.6151 165.682H90.44ZM70.6151 163.027C68.8625 163.027 67.1816 163.587 65.9424 164.583C64.7031 165.579 64.0068 166.929 64.0068 168.338V200.199C64.0068 201.607 64.7031 202.958 65.9424 203.954C67.1816 204.95 68.8625 205.509 70.6151 205.509H90.44C92.1926 205.509 93.8734 204.95 95.1127 203.954C96.352 202.958 97.0482 201.607 97.0482 200.199V168.338C97.0482 166.929 96.352 165.579 95.1127 164.583C93.8734 163.587 92.1926 163.027 90.44 163.027H70.6151Z" fill="#323751"/>
<path d="M90.44 165.682C91.3163 165.682 92.1567 165.962 92.7763 166.46C93.396 166.958 93.7441 167.633 93.7441 168.338V200.199C93.7441 200.903 93.396 201.578 92.7763 202.076C92.1567 202.574 91.3163 202.854 90.44 202.854H70.6151C69.7388 202.854 68.8984 202.574 68.2787 202.076C67.6591 201.578 67.311 200.903 67.311 200.199V168.338C67.311 167.633 67.6591 166.958 68.2787 166.46C68.8984 165.962 69.7388 165.682 70.6151 165.682H90.44ZM70.6151 163.027C68.8625 163.027 67.1816 163.587 65.9424 164.583C64.7031 165.579 64.0068 166.929 64.0068 168.338V200.199C64.0068 201.607 64.7031 202.958 65.9424 203.954C67.1816 204.95 68.8625 205.509 70.6151 205.509H90.44C92.1926 205.509 93.8734 204.95 95.1127 203.954C96.352 202.958 97.0482 201.607 97.0482 200.199V168.338C97.0482 166.929 96.352 165.579 95.1127 164.583C93.8734 163.587 92.1926 163.027 90.44 163.027H70.6151Z" stroke="#323751" stroke-width="0.4" mask="url(#path-6-outside-1_0_1)"/>
<mask id="path-7-outside-2_0_1" maskUnits="userSpaceOnUse" x="76.2227" y="193.889" width="8" height="7" fill="black">
<rect fill="white" x="76.2227" y="193.889" width="8" height="7"/>
<path d="M80.5268 200.199C81.4031 200.199 82.2435 199.919 82.8632 199.421C83.4828 198.923 83.8309 198.248 83.8309 197.544C83.8309 196.84 83.4828 196.164 82.8632 195.666C82.2435 195.168 81.4031 194.889 80.5268 194.889C79.6505 194.889 78.8101 195.168 78.1904 195.666C77.5708 196.164 77.2227 196.84 77.2227 197.544C77.2227 198.248 77.5708 198.923 78.1904 199.421C78.8101 199.919 79.6505 200.199 80.5268 200.199Z"/>
</mask>
<path d="M80.5268 200.199C81.4031 200.199 82.2435 199.919 82.8632 199.421C83.4828 198.923 83.8309 198.248 83.8309 197.544C83.8309 196.84 83.4828 196.164 82.8632 195.666C82.2435 195.168 81.4031 194.889 80.5268 194.889C79.6505 194.889 78.8101 195.168 78.1904 195.666C77.5708 196.164 77.2227 196.84 77.2227 197.544C77.2227 198.248 77.5708 198.923 78.1904 199.421C78.8101 199.919 79.6505 200.199 80.5268 200.199Z" fill="#323751"/>
<path d="M80.5268 200.199C81.4031 200.199 82.2435 199.919 82.8632 199.421C83.4828 198.923 83.8309 198.248 83.8309 197.544C83.8309 196.84 83.4828 196.164 82.8632 195.666C82.2435 195.168 81.4031 194.889 80.5268 194.889C79.6505 194.889 78.8101 195.168 78.1904 195.666C77.5708 196.164 77.2227 196.84 77.2227 197.544C77.2227 198.248 77.5708 198.923 78.1904 199.421C78.8101 199.919 79.6505 200.199 80.5268 200.199Z" stroke="#323751" stroke-width="0.4" mask="url(#path-7-outside-2_0_1)"/>
<mask id="path-8-outside-3_0_1" maskUnits="userSpaceOnUse" x="0.00683594" y="54.0273" width="44" height="45" fill="black">
<rect fill="white" x="0.00683594" y="54.0273" width="44" height="45"/>
<path fill-rule="evenodd" clip-rule="evenodd" d="M32.1046 55.3099C34.5274 55.8146 36.7698 56.9845 38.5907 58.694C40.4117 60.4034 41.7423 62.5878 42.4395 65.0122C43.0854 67.2351 43.1816 69.5869 42.7189 71.859C42.0501 74.9718 40.3672 77.7604 37.9456 79.7684C35.5239 81.7764 32.507 82.8848 29.3887 82.9121C28.0728 82.9121 26.7629 82.7187 25.5041 82.3288L23.1006 85.2087L21.962 85.7461H19.0328V90.3515L17.5306 91.8867H13.0241V96.4922L11.522 98.0273H2.509L1.00684 96.4922V89.4089L1.44547 88.3251L16.389 73.0533C15.9649 71.6573 15.762 70.201 15.7881 68.7395C15.8155 66.6948 16.2839 64.6814 17.16 62.8429C18.0361 61.0044 19.2982 59.3861 20.8565 58.1032C22.4147 56.8204 24.2307 55.9046 26.175 55.4213C28.1192 54.9379 30.1439 54.8989 32.1046 55.3069V55.3099ZM36.0643 77.4163C37.9516 75.8544 39.264 73.6839 39.7867 71.2603L39.7987 71.2756C40.1709 69.5034 40.1039 67.6643 39.6038 65.9253C39.1037 64.1863 38.1864 62.6025 36.9351 61.318C35.6838 60.0334 34.1383 59.0888 32.4389 58.5698C30.7396 58.0509 28.9403 57.9741 27.2046 58.3465C24.8635 58.8775 22.7636 60.1936 21.2392 62.0854C19.7148 63.9771 18.8535 66.3357 18.7924 68.7856C18.7624 70.1857 19.0027 71.5734 19.5105 72.8691L19.18 74.5363L4.01116 90.0445V94.957H10.0198V90.3515L11.522 88.8164H16.0285V84.2109L17.5306 82.6757H21.271L23.9028 79.5563L25.5882 79.1264C26.8031 79.6116 28.0963 79.8595 29.4007 79.8572C31.8283 79.8381 34.1777 78.9776 36.0643 77.4163V77.4163ZM33.5467 69.0281C33.7836 68.6936 33.952 68.3137 34.0419 67.9112C34.1318 67.5086 34.1413 67.0916 34.0698 66.6852C33.9984 66.2788 33.8475 65.8913 33.6261 65.5459C33.4047 65.2004 33.1174 64.9042 32.7814 64.6749C32.4454 64.4455 32.0676 64.2878 31.6706 64.2112C31.2736 64.1345 30.8655 64.1405 30.4708 64.2287C30.0761 64.317 29.7028 64.4857 29.3734 64.7247C29.044 64.9638 28.7651 65.2683 28.5535 65.6201C28.1464 66.2967 28.0118 67.1083 28.1779 67.8843C28.344 68.6602 28.7979 69.3402 29.4443 69.7813C30.0906 70.2225 30.8791 70.3905 31.6441 70.25C32.4091 70.1096 33.091 69.6716 33.5467 69.0281V69.0281Z"/>
</mask>
<path fill-rule="evenodd" clip-rule="evenodd" d="M32.1046 55.3099C34.5274 55.8146 36.7698 56.9845 38.5907 58.694C40.4117 60.4034 41.7423 62.5878 42.4395 65.0122C43.0854 67.2351 43.1816 69.5869 42.7189 71.859C42.0501 74.9718 40.3672 77.7604 37.9456 79.7684C35.5239 81.7764 32.507 82.8848 29.3887 82.9121C28.0728 82.9121 26.7629 82.7187 25.5041 82.3288L23.1006 85.2087L21.962 85.7461H19.0328V90.3515L17.5306 91.8867H13.0241V96.4922L11.522 98.0273H2.509L1.00684 96.4922V89.4089L1.44547 88.3251L16.389 73.0533C15.9649 71.6573 15.762 70.201 15.7881 68.7395C15.8155 66.6948 16.2839 64.6814 17.16 62.8429C18.0361 61.0044 19.2982 59.3861 20.8565 58.1032C22.4147 56.8204 24.2307 55.9046 26.175 55.4213C28.1192 54.9379 30.1439 54.8989 32.1046 55.3069V55.3099ZM36.0643 77.4163C37.9516 75.8544 39.264 73.6839 39.7867 71.2603L39.7987 71.2756C40.1709 69.5034 40.1039 67.6643 39.6038 65.9253C39.1037 64.1863 38.1864 62.6025 36.9351 61.318C35.6838 60.0334 34.1383 59.0888 32.4389 58.5698C30.7396 58.0509 28.9403 57.9741 27.2046 58.3465C24.8635 58.8775 22.7636 60.1936 21.2392 62.0854C19.7148 63.9771 18.8535 66.3357 18.7924 68.7856C18.7624 70.1857 19.0027 71.5734 19.5105 72.8691L19.18 74.5363L4.01116 90.0445V94.957H10.0198V90.3515L11.522 88.8164H16.0285V84.2109L17.5306 82.6757H21.271L23.9028 79.5563L25.5882 79.1264C26.8031 79.6116 28.0963 79.8595 29.4007 79.8572C31.8283 79.8381 34.1777 78.9776 36.0643 77.4163V77.4163ZM33.5467 69.0281C33.7836 68.6936 33.952 68.3137 34.0419 67.9112C34.1318 67.5086 34.1413 67.0916 34.0698 66.6852C33.9984 66.2788 33.8475 65.8913 33.6261 65.5459C33.4047 65.2004 33.1174 64.9042 32.7814 64.6749C32.4454 64.4455 32.0676 64.2878 31.6706 64.2112C31.2736 64.1345 30.8655 64.1405 30.4708 64.2287C30.0761 64.317 29.7028 64.4857 29.3734 64.7247C29.044 64.9638 28.7651 65.2683 28.5535 65.6201C28.1464 66.2967 28.0118 67.1083 28.1779 67.8843C28.344 68.6602 28.7979 69.3402 29.4443 69.7813C30.0906 70.2225 30.8791 70.3905 31.6441 70.25C32.4091 70.1096 33.091 69.6716 33.5467 69.0281V69.0281Z" fill="#323751"/>
<path fill-rule="evenodd" clip-rule="evenodd" d="M32.1046 55.3099C34.5274 55.8146 36.7698 56.9845 38.5907 58.694C40.4117 60.4034 41.7423 62.5878 42.4395 65.0122C43.0854 67.2351 43.1816 69.5869 42.7189 71.859C42.0501 74.9718 40.3672 77.7604 37.9456 79.7684C35.5239 81.7764 32.507 82.8848 29.3887 82.9121C28.0728 82.9121 26.7629 82.7187 25.5041 82.3288L23.1006 85.2087L21.962 85.7461H19.0328V90.3515L17.5306 91.8867H13.0241V96.4922L11.522 98.0273H2.509L1.00684 96.4922V89.4089L1.44547 88.3251L16.389 73.0533C15.9649 71.6573 15.762 70.201 15.7881 68.7395C15.8155 66.6948 16.2839 64.6814 17.16 62.8429C18.0361 61.0044 19.2982 59.3861 20.8565 58.1032C22.4147 56.8204 24.2307 55.9046 26.175 55.4213C28.1192 54.9379 30.1439 54.8989 32.1046 55.3069V55.3099ZM36.0643 77.4163C37.9516 75.8544 39.264 73.6839 39.7867 71.2603L39.7987 71.2756C40.1709 69.5034 40.1039 67.6643 39.6038 65.9253C39.1037 64.1863 38.1864 62.6025 36.9351 61.318C35.6838 60.0334 34.1383 59.0888 32.4389 58.5698C30.7396 58.0509 28.9403 57.9741 27.2046 58.3465C24.8635 58.8775 22.7636 60.1936 21.2392 62.0854C19.7148 63.9771 18.8535 66.3357 18.7924 68.7856C18.7624 70.1857 19.0027 71.5734 19.5105 72.8691L19.18 74.5363L4.01116 90.0445V94.957H10.0198V90.3515L11.522 88.8164H16.0285V84.2109L17.5306 82.6757H21.271L23.9028 79.5563L25.5882 79.1264C26.8031 79.6116 28.0963 79.8595 29.4007 79.8572C31.8283 79.8381 34.1777 78.9776 36.0643 77.4163V77.4163ZM33.5467 69.0281C33.7836 68.6936 33.952 68.3137 34.0419 67.9112C34.1318 67.5086 34.1413 67.0916 34.0698 66.6852C33.9984 66.2788 33.8475 65.8913 33.6261 65.5459C33.4047 65.2004 33.1174 64.9042 32.7814 64.6749C32.4454 64.4455 32.0676 64.2878 31.6706 64.2112C31.2736 64.1345 30.8655 64.1405 30.4708 64.2287C30.0761 64.317 29.7028 64.4857 29.3734 64.7247C29.044 64.9638 28.7651 65.2683 28.5535 65.6201C28.1464 66.2967 28.0118 67.1083 28.1779 67.8843C28.344 68.6602 28.7979 69.3402 29.4443 69.7813C30.0906 70.2225 30.8791 70.3905 31.6441 70.25C32.4091 70.1096 33.091 69.6716 33.5467 69.0281V69.0281Z" stroke="#323751" stroke-width="0.4" mask="url(#path-8-outside-3_0_1)"/>
<mask id="path-9-outside-4_0_1" maskUnits="userSpaceOnUse" x="78.0068" y="0.0273438" width="57" height="44" fill="black">
<rect fill="white" x="78.0068" y="0.0273438" width="57" height="44"/>
<path d="M130.056 43.5091H83.1838C80.8798 43.5091 79.0068 41.6219 79.0068 39.304V5.23246C79.0068 2.9146 80.8798 1.02734 83.1838 1.02734H130.056C132.36 1.02734 134.233 2.9146 134.233 5.23246V39.3057C134.233 41.6236 132.36 43.5091 130.056 43.5091ZM83.1838 2.70939C81.8021 2.70939 80.6776 3.84141 80.6776 5.23246V39.3057C80.6776 40.6968 81.8021 41.8288 83.1838 41.8288H130.056C131.438 41.8288 132.562 40.6968 132.562 39.3057V5.23246C132.562 3.84141 131.438 2.70939 130.056 2.70939H83.1838V2.70939Z"/>
</mask>
<path d="M130.056 43.5091H83.1838C80.8798 43.5091 79.0068 41.6219 79.0068 39.304V5.23246C79.0068 2.9146 80.8798 1.02734 83.1838 1.02734H130.056C132.36 1.02734 134.233 2.9146 134.233 5.23246V39.3057C134.233 41.6236 132.36 43.5091 130.056 43.5091ZM83.1838 2.70939C81.8021 2.70939 80.6776 3.84141 80.6776 5.23246V39.3057C80.6776 40.6968 81.8021 41.8288 83.1838 41.8288H130.056C131.438 41.8288 132.562 40.6968 132.562 39.3057V5.23246C132.562 3.84141 131.438 2.70939 130.056 2.70939H83.1838V2.70939Z" fill="#323751"/>
<path d="M130.056 43.5091H83.1838C80.8798 43.5091 79.0068 41.6219 79.0068 39.304V5.23246C79.0068 2.9146 80.8798 1.02734 83.1838 1.02734H130.056C132.36 1.02734 134.233 2.9146 134.233 5.23246V39.3057C134.233 41.6236 132.36 43.5091 130.056 43.5091ZM83.1838 2.70939C81.8021 2.70939 80.6776 3.84141 80.6776 5.23246V39.3057C80.6776 40.6968 81.8021 41.8288 83.1838 41.8288H130.056C131.438 41.8288 132.562 40.6968 132.562 39.3057V5.23246C132.562 3.84141 131.438 2.70939 130.056 2.70939H83.1838V2.70939Z" stroke="#323751" stroke-width="0.8" mask="url(#path-9-outside-4_0_1)"/>
<mask id="path-10-outside-5_0_1" maskUnits="userSpaceOnUse" x="90.4336" y="0.0273438" width="32" height="4" fill="black">
<rect fill="white" x="90.4336" y="0.0273438" width="32" height="4"/>
<path d="M120.973 2.70939H92.269C91.8079 2.70939 91.4336 2.33261 91.4336 1.86837C91.4336 1.40412 91.8079 1.02734 92.269 1.02734H120.975C121.436 1.02734 121.81 1.40412 121.81 1.86837C121.81 2.33261 121.436 2.70939 120.973 2.70939Z"/>
</mask>
<path d="M120.973 2.70939H92.269C91.8079 2.70939 91.4336 2.33261 91.4336 1.86837C91.4336 1.40412 91.8079 1.02734 92.269 1.02734H120.975C121.436 1.02734 121.81 1.40412 121.81 1.86837C121.81 2.33261 121.436 2.70939 120.973 2.70939Z" fill="#323751"/>
<path d="M120.973 2.70939H92.269C91.8079 2.70939 91.4336 2.33261 91.4336 1.86837C91.4336 1.40412 91.8079 1.02734 92.269 1.02734H120.975C121.436 1.02734 121.81 1.40412 121.81 1.86837C121.81 2.33261 121.436 2.70939 120.973 2.70939Z" stroke="#323751" stroke-width="0.8" mask="url(#path-10-outside-5_0_1)"/>
<mask id="path-11-outside-6_0_1" maskUnits="userSpaceOnUse" x="83.2803" y="6.39844" width="27" height="31" fill="black">
<rect fill="white" x="83.2803" y="6.39844" width="27" height="31"/>
<path d="M108.357 36.1314H85.2619C84.72 36.1314 84.2803 35.6887 84.2803 35.1432V32.4988C84.2803 30.8505 85.2363 29.3267 86.7185 28.6211L91.917 25.4035C90.2385 24.0339 89.1961 22.0001 89.1117 19.7984L88.9134 14.5886C88.9134 10.6061 92.1448 7.39844 96.1202 7.39844H97.4905C101.464 7.39844 104.699 10.6081 104.699 14.5511L104.499 19.7984C104.415 22.0041 103.372 24.0398 101.688 25.4075L106.941 28.6448C108.396 29.3603 109.334 30.8683 109.334 32.5008V35.1432C109.338 35.6887 108.899 36.1314 108.357 36.1314ZM86.2435 34.155H107.375V32.5008C107.375 31.6094 106.857 30.7892 106.056 30.4078C106.024 30.3919 105.993 30.3761 105.964 30.3564L99.3379 26.2731C99.0336 26.0854 98.853 25.7474 98.8687 25.3877C98.8863 25.028 99.0925 24.7058 99.4105 24.5457C101.264 23.6149 102.463 21.7669 102.54 19.7213L102.74 14.5115C102.74 11.6951 100.388 9.37287 97.4944 9.37287H96.1241C93.2324 9.37287 90.8805 11.6951 90.8805 14.5491L91.0788 19.7213C91.1553 21.761 92.3489 23.6089 94.1983 24.5418C94.5163 24.7019 94.7244 25.024 94.7381 25.3818C94.7519 25.7415 94.5732 26.0794 94.2709 26.2672L87.655 30.3544C86.7617 30.7872 86.2454 31.6074 86.2454 32.4968V34.155H86.2435Z"/>
</mask>
<path d="M108.357 36.1314H85.2619C84.72 36.1314 84.2803 35.6887 84.2803 35.1432V32.4988C84.2803 30.8505 85.2363 29.3267 86.7185 28.6211L91.917 25.4035C90.2385 24.0339 89.1961 22.0001 89.1117 19.7984L88.9134 14.5886C88.9134 10.6061 92.1448 7.39844 96.1202 7.39844H97.4905C101.464 7.39844 104.699 10.6081 104.699 14.5511L104.499 19.7984C104.415 22.0041 103.372 24.0398 101.688 25.4075L106.941 28.6448C108.396 29.3603 109.334 30.8683 109.334 32.5008V35.1432C109.338 35.6887 108.899 36.1314 108.357 36.1314ZM86.2435 34.155H107.375V32.5008C107.375 31.6094 106.857 30.7892 106.056 30.4078C106.024 30.3919 105.993 30.3761 105.964 30.3564L99.3379 26.2731C99.0336 26.0854 98.853 25.7474 98.8687 25.3877C98.8863 25.028 99.0925 24.7058 99.4105 24.5457C101.264 23.6149 102.463 21.7669 102.54 19.7213L102.74 14.5115C102.74 11.6951 100.388 9.37287 97.4944 9.37287H96.1241C93.2324 9.37287 90.8805 11.6951 90.8805 14.5491L91.0788 19.7213C91.1553 21.761 92.3489 23.6089 94.1983 24.5418C94.5163 24.7019 94.7244 25.024 94.7381 25.3818C94.7519 25.7415 94.5732 26.0794 94.2709 26.2672L87.655 30.3544C86.7617 30.7872 86.2454 31.6074 86.2454 32.4968V34.155H86.2435Z" fill="#323751"/>
<path d="M108.357 36.1314H85.2619C84.72 36.1314 84.2803 35.6887 84.2803 35.1432V32.4988C84.2803 30.8505 85.2363 29.3267 86.7185 28.6211L91.917 25.4035C90.2385 24.0339 89.1961 22.0001 89.1117 19.7984L88.9134 14.5886C88.9134 10.6061 92.1448 7.39844 96.1202 7.39844H97.4905C101.464 7.39844 104.699 10.6081 104.699 14.5511L104.499 19.7984C104.415 22.0041 103.372 24.0398 101.688 25.4075L106.941 28.6448C108.396 29.3603 109.334 30.8683 109.334 32.5008V35.1432C109.338 35.6887 108.899 36.1314 108.357 36.1314ZM86.2435 34.155H107.375V32.5008C107.375 31.6094 106.857 30.7892 106.056 30.4078C106.024 30.3919 105.993 30.3761 105.964 30.3564L99.3379 26.2731C99.0336 26.0854 98.853 25.7474 98.8687 25.3877C98.8863 25.028 99.0925 24.7058 99.4105 24.5457C101.264 23.6149 102.463 21.7669 102.54 19.7213L102.74 14.5115C102.74 11.6951 100.388 9.37287 97.4944 9.37287H96.1241C93.2324 9.37287 90.8805 11.6951 90.8805 14.5491L91.0788 19.7213C91.1553 21.761 92.3489 23.6089 94.1983 24.5418C94.5163 24.7019 94.7244 25.024 94.7381 25.3818C94.7519 25.7415 94.5732 26.0794 94.2709 26.2672L87.655 30.3544C86.7617 30.7872 86.2454 31.6074 86.2454 32.4968V34.155H86.2435Z" stroke="#323751" stroke-width="0.8" mask="url(#path-11-outside-6_0_1)"/>
<mask id="path-12-outside-7_0_1" maskUnits="userSpaceOnUse" x="113.874" y="11.707" width="16" height="4" fill="black">
<rect fill="white" x="113.874" y="11.707" width="16" height="4"/>
<path d="M127.982 14.6834H115.856C115.314 14.6834 114.874 14.2407 114.874 13.6952C114.874 13.1497 115.314 12.707 115.856 12.707H127.982C128.524 12.707 128.964 13.1497 128.964 13.6952C128.964 14.2407 128.524 14.6834 127.982 14.6834Z"/>
</mask>
<path d="M127.982 14.6834H115.856C115.314 14.6834 114.874 14.2407 114.874 13.6952C114.874 13.1497 115.314 12.707 115.856 12.707H127.982C128.524 12.707 128.964 13.1497 128.964 13.6952C128.964 14.2407 128.524 14.6834 127.982 14.6834Z" fill="#323751"/>
<path d="M127.982 14.6834H115.856C115.314 14.6834 114.874 14.2407 114.874 13.6952C114.874 13.1497 115.314 12.707 115.856 12.707H127.982C128.524 12.707 128.964 13.1497 128.964 13.6952C128.964 14.2407 128.524 14.6834 127.982 14.6834Z" stroke="#323751" stroke-width="0.8" mask="url(#path-12-outside-7_0_1)"/>
<mask id="path-13-outside-8_0_1" maskUnits="userSpaceOnUse" x="113.873" y="20.4844" width="16" height="4" fill="black">
<rect fill="white" x="113.873" y="20.4844" width="16" height="4"/>
<path d="M127.981 23.4608H115.855C115.313 23.4608 114.873 23.0181 114.873 22.4726C114.873 21.9271 115.313 21.4844 115.855 21.4844H127.981C128.523 21.4844 128.963 21.9271 128.963 22.4726C128.963 23.0181 128.523 23.4608 127.981 23.4608Z"/>
</mask>
<path d="M127.981 23.4608H115.855C115.313 23.4608 114.873 23.0181 114.873 22.4726C114.873 21.9271 115.313 21.4844 115.855 21.4844H127.981C128.523 21.4844 128.963 21.9271 128.963 22.4726C128.963 23.0181 128.523 23.4608 127.981 23.4608Z" fill="#323751"/>
<path d="M127.981 23.4608H115.855C115.313 23.4608 114.873 23.0181 114.873 22.4726C114.873 21.9271 115.313 21.4844 115.855 21.4844H127.981C128.523 21.4844 128.963 21.9271 128.963 22.4726C128.963 23.0181 128.523 23.4608 127.981 23.4608Z" stroke="#323751" stroke-width="0.8" mask="url(#path-13-outside-8_0_1)"/>
<mask id="path-14-outside-9_0_1" maskUnits="userSpaceOnUse" x="113.873" y="29.2559" width="16" height="4" fill="black">
<rect fill="white" x="113.873" y="29.2559" width="16" height="4"/>
<path d="M127.981 32.2323H115.855C115.313 32.2323 114.873 31.7896 114.873 31.2441C114.873 30.6986 115.313 30.2559 115.855 30.2559H127.981C128.523 30.2559 128.963 30.6986 128.963 31.2441C128.963 31.7896 128.523 32.2323 127.981 32.2323Z"/>
</mask>
<path d="M127.981 32.2323H115.855C115.313 32.2323 114.873 31.7896 114.873 31.2441C114.873 30.6986 115.313 30.2559 115.855 30.2559H127.981C128.523 30.2559 128.963 30.6986 128.963 31.2441C128.963 31.7896 128.523 32.2323 127.981 32.2323Z" fill="#323751"/>
<path d="M127.981 32.2323H115.855C115.313 32.2323 114.873 31.7896 114.873 31.2441C114.873 30.6986 115.313 30.2559 115.855 30.2559H127.981C128.523 30.2559 128.963 30.6986 128.963 31.2441C128.963 31.7896 128.523 32.2323 127.981 32.2323Z" stroke="#323751" stroke-width="0.8" mask="url(#path-14-outside-9_0_1)"/>
<path fill-rule="evenodd" clip-rule="evenodd" d="M145.588 56.0273H141.728V63.7483L134.007 63.7483V67.6087H141.728V75.3297H145.588V67.6087H153.309V63.7483L145.588 63.7483V56.0273Z" fill="#5F82A6"/>
<path fill-rule="evenodd" clip-rule="evenodd" d="M33.5882 14.0273H29.7278V21.7483L22.0068 21.7483V25.6087H29.7278V33.3297H33.5882V25.6087H41.3092V21.7483L33.5882 21.7483V14.0273Z" fill="#5F82A6"/>
<path fill-rule="evenodd" clip-rule="evenodd" d="M52.5882 130.027H48.7278V137.748L41.0068 137.748V141.609H48.7278V149.33H52.5882V141.609H60.3092V137.748L52.5882 137.748V130.027Z" fill="#5F82A6"/>
<path fill-rule="evenodd" clip-rule="evenodd" d="M147.588 193.027H143.728V200.748L136.007 200.748V204.609H143.728V212.33H147.588V204.609H155.309V200.748L147.588 200.748V193.027Z" fill="#5F82A6"/>
<path fill-rule="evenodd" clip-rule="evenodd" d="M158.798 165.688L158.798 165.709C158.79 166.164 158.873 166.615 159.041 167.037C159.209 167.459 159.459 167.844 159.777 168.168C160.095 168.493 160.474 168.751 160.892 168.928C161.31 169.104 161.757 169.197 162.21 169.199H180.606C181.55 169.199 182.458 168.829 183.132 168.168C183.802 167.513 184.19 166.623 184.215 165.687V155L186.757 154.152V165.717C186.723 167.326 186.061 168.858 184.911 169.984C183.761 171.11 182.215 171.741 180.606 171.741H162.204C161.413 171.737 160.631 171.577 159.903 171.269C159.174 170.961 158.514 170.512 157.961 169.946C157.408 169.381 156.972 168.712 156.68 167.977C156.387 167.242 156.243 166.457 156.257 165.666V164.319H158.798V165.688Z" fill="#333750"/>
<path fill-rule="evenodd" clip-rule="evenodd" d="M165.228 122.535C165.234 122.682 165.269 122.826 165.332 122.959C165.395 123.091 165.484 123.21 165.594 123.308C165.703 123.405 165.831 123.48 165.971 123.527C166.11 123.574 166.257 123.592 166.403 123.581C166.435 123.579 166.468 123.577 166.5 123.577H175.142C175.174 123.577 175.206 123.579 175.238 123.581C175.385 123.592 175.532 123.574 175.671 123.527C175.81 123.48 175.938 123.405 176.048 123.308C176.158 123.21 176.247 123.091 176.309 122.959C176.372 122.826 176.408 122.682 176.413 122.535L178.953 122.637C178.934 123.125 178.816 123.604 178.607 124.045C178.398 124.487 178.103 124.882 177.738 125.206C177.373 125.531 176.947 125.779 176.484 125.935C176.038 126.085 175.568 126.148 175.098 126.119H166.543C166.074 126.148 165.603 126.085 165.158 125.935C164.695 125.779 164.269 125.531 163.904 125.206C163.539 124.882 163.243 124.487 163.035 124.045C162.826 123.604 162.708 123.125 162.688 122.637L165.228 122.535Z" fill="#333750"/>
<path fill-rule="evenodd" clip-rule="evenodd" d="M186.756 136.692V127.287C186.73 125.676 186.069 124.14 184.918 123.013C183.766 121.885 182.217 121.257 180.606 121.264H162.178C161.392 121.27 160.614 121.432 159.891 121.74C159.167 122.048 158.511 122.496 157.961 123.058C157.41 123.62 156.977 124.285 156.684 125.015C156.392 125.746 156.246 126.526 156.256 127.313V129.117H158.798V127.313H158.798L158.798 127.28C158.792 126.829 158.876 126.38 159.044 125.961C159.212 125.541 159.461 125.159 159.777 124.836C160.093 124.513 160.47 124.256 160.886 124.079C161.299 123.903 161.742 123.81 162.191 123.805L180.606 123.805L180.616 123.805C181.559 123.801 182.466 124.169 183.139 124.829C183.809 125.484 184.194 126.375 184.215 127.311V136.06L186.756 136.692Z" fill="#333750"/>
<path fill-rule="evenodd" clip-rule="evenodd" d="M179.387 166.987H164.01V164.445H179.387V166.987Z" fill="#333750"/>
<path fill-rule="evenodd" clip-rule="evenodd" d="M189.326 149.747L186.352 152.67L184.571 150.857L189.596 145.918L184.571 140.978L186.352 139.166L192.3 145.011C192.543 145.25 192.68 145.577 192.68 145.918C192.68 146.259 192.543 146.585 192.3 146.824L189.326 149.747Z" fill="#333750"/>
<path fill-rule="evenodd" clip-rule="evenodd" d="M171.761 140.223H169.219V142.765H171.761V140.223ZM174.303 137.682V145.307H166.678V137.682H174.303Z" fill="#333750"/>
<path fill-rule="evenodd" clip-rule="evenodd" d="M161.594 140.223H159.052V142.765H161.594V140.223ZM164.136 137.682V145.307H156.511V137.682H164.136Z" fill="#333750"/>
<path d="M176.844 138.954H179.385V132.6H173.031V135.141H176.844V138.954Z" fill="#333750"/>
<path d="M173.031 158.016V160.557H179.385V154.203H176.844V158.016H173.031Z" fill="#333750"/>
<path d="M153.969 154.203H151.428V160.557H157.782V158.016H153.969V154.203Z" fill="#333750"/>
<path fill-rule="evenodd" clip-rule="evenodd" d="M161.594 150.391H159.052V152.933H161.594V150.391ZM164.136 147.85V155.475H156.511V147.85H164.136Z" fill="#333750"/>
<path fill-rule="evenodd" clip-rule="evenodd" d="M171.66 150.366H169.118V152.908H171.66V150.366ZM174.201 147.824V155.449H166.576V147.824H174.201Z" fill="#333750"/>
<path d="M157.782 135.141V132.6H151.428V138.954H153.969V135.141H157.782Z" fill="#333750"/>
</g>
<defs>
<clipPath id="clip0_0_1">
<rect width="320" height="568" fill="white" transform="translate(-54.9932 -111.973)"/>
</clipPath>
</defs>
</svg>
