<svg width="184" height="116" viewBox="0 0 184 116" fill="none" xmlns="http://www.w3.org/2000/svg">
<path fill-rule="evenodd" clip-rule="evenodd" d="M12.3563 43.2969H8.49583V51.0178L0.774902 51.0178V54.8783H8.49583V62.5992H12.3563V54.8783H20.0772V51.0178L12.3563 51.0178V43.2969Z" fill="#5F82A6"/>
<path fill-rule="evenodd" clip-rule="evenodd" d="M175.356 52.2969H171.496V60.0178L163.775 60.0178V63.8783H171.496V71.5992H175.356V63.8783H183.077V60.0178L175.356 60.0178V52.2969Z" fill="#5F82A6"/>
<path fill-rule="evenodd" clip-rule="evenodd" d="M156.356 12.2969H152.496V20.0178L144.775 20.0178V23.8783H152.496V31.5992H156.356V23.8783H164.077V20.0178L156.356 20.0178V12.2969Z" fill="#5F82A6"/>
<path fill-rule="evenodd" clip-rule="evenodd" d="M53.3563 96.2969H49.4958V104.018L41.7749 104.018V107.878H49.4958V115.599H53.3563V107.878H61.0772V104.018L53.3563 104.018V96.2969Z" fill="#5F82A6"/>
<path fill-rule="evenodd" clip-rule="evenodd" d="M53.0149 47.1769H45.7749C44.714 47.1769 43.6966 46.7554 42.9465 46.0053C42.1963 45.2552 41.7749 44.2377 41.7749 43.1769V20.2969C41.7749 19.236 42.1963 18.2186 42.9465 17.4684C43.6966 16.7183 44.714 16.2969 45.7749 16.2969H101.775C102.836 16.2969 103.853 16.7183 104.603 17.4684C105.353 18.2186 105.775 19.236 105.775 20.2969V43.1769C105.775 44.2377 105.353 45.2552 104.603 46.0053C103.853 46.7554 102.836 47.1769 101.775 47.1769H95.4149V51.1769H101.775C103.897 51.1769 105.931 50.334 107.432 48.8337C108.932 47.3334 109.775 45.2986 109.775 43.1769V20.2969C109.775 18.1751 108.932 16.1403 107.432 14.64C105.931 13.1397 103.897 12.2969 101.775 12.2969H45.7749C43.6532 12.2969 41.6183 13.1397 40.118 14.64C38.6178 16.1403 37.7749 18.1751 37.7749 20.2969V43.1769C37.7749 45.2986 38.6178 47.3334 40.118 48.8337C41.6183 50.334 43.6532 51.1769 45.7749 51.1769H53.0149V64.0567C53.0149 65.839 53.7229 67.5482 54.9831 68.8085C56.2434 70.0687 57.9526 70.7767 59.7349 70.7767H87.7349C88.6241 70.7873 89.5065 70.6213 90.3311 70.2883C91.1557 69.9554 91.9059 69.4621 92.5385 68.837C93.171 68.2119 93.6731 67.4675 94.0158 66.647C94.3585 65.8264 94.535 64.946 94.5349 64.0567V38.1367H90.5349V64.057C90.5349 64.4169 90.4635 64.7733 90.3248 65.1054C90.1861 65.4376 89.9828 65.7389 89.7268 65.9919C89.4708 66.2449 89.1671 66.4445 88.8334 66.5793C88.4996 66.7141 88.1424 66.7813 87.7825 66.777L59.7349 66.7767C59.0135 66.7767 58.3217 66.4902 57.8116 65.98C57.3015 65.4699 57.0149 64.7781 57.0149 64.0567V38.1367H53.0149V47.1769ZM75.7592 39.5641C75.9367 39.6205 76.1122 39.6845 76.2853 39.7562C77.4839 40.2527 78.5085 41.0935 79.2293 42.1723C79.9501 43.2511 80.3349 44.5194 80.3349 45.8168H76.3349C76.3349 45.3105 76.1847 44.8156 75.9034 44.3946C75.6221 43.9736 75.2223 43.6455 74.7545 43.4517C74.2867 43.2579 73.772 43.2073 73.2754 43.306C72.7788 43.4048 72.3227 43.6486 71.9647 44.0066C71.6066 44.3647 71.3628 44.8208 71.264 45.3174C71.1653 45.814 71.216 46.3287 71.4097 46.7965C71.6035 47.2643 71.9316 47.6641 72.3526 47.9454C72.7688 48.2235 73.2572 48.3734 73.7575 48.3768V48.3767C75.0652 48.3653 76.3468 48.7427 77.4397 49.461C78.5326 50.1793 79.3875 51.206 79.8958 52.411C80.4042 53.6159 80.5431 54.9447 80.2949 56.2288C80.0468 57.5128 79.4228 58.6942 78.5021 59.6229C77.7342 60.3975 76.7889 60.9673 75.7526 61.2856L75.7746 63.3552L71.7749 63.3978L71.752 61.2458C71.6006 61.196 71.4507 61.1406 71.3026 61.0796C70.0932 60.5818 69.059 59.736 68.3313 58.6494C67.6035 57.5628 67.2149 56.2845 67.2148 54.9767L71.2148 54.9766C71.2149 55.4918 71.3679 55.9953 71.6546 56.4234C71.9413 56.8514 72.3488 57.1846 72.8252 57.3807C73.3016 57.5768 73.8255 57.627 74.3305 57.5248C74.8354 57.4227 75.2986 57.1728 75.6613 56.8069C76.024 56.441 76.2699 55.9756 76.3676 55.4698C76.4654 54.964 76.4106 54.4405 76.2104 53.9658C76.0101 53.4911 75.6734 53.0867 75.2428 52.8037C74.8123 52.5208 74.3074 52.3721 73.7922 52.3766L73.7748 50.3771V52.3768C72.4774 52.3768 71.2091 51.9921 70.1303 51.2713C69.0515 50.5505 68.2107 49.5259 67.7142 48.3272C67.2177 47.1286 67.0878 45.8096 67.3409 44.537C67.594 43.2645 68.2188 42.0957 69.1362 41.1782C69.8736 40.4408 70.7735 39.8925 71.759 39.5742L71.7351 37.5197L75.7348 37.4731L75.7592 39.5641ZM47.7749 27.9365H99.7749V31.9365H47.7749V27.9365ZM73.7301 80.8694L65.6505 73.4712L62.9492 76.4213L71.0855 83.8713L71.1072 83.8901C71.8484 84.5307 72.7953 84.8831 73.7749 84.8831C74.7545 84.8831 75.7014 84.5307 76.4426 83.8901L76.4643 83.8713L84.6006 76.4213L81.8993 73.4712L73.8197 80.8694C73.8066 80.8783 73.791 80.8831 73.7749 80.8831C73.7589 80.8831 73.7433 80.8783 73.7301 80.8694Z" fill="#333750"/>
</svg>
