<svg width="258" height="279" viewBox="0 0 258 279" fill="none" xmlns="http://www.w3.org/2000/svg">
<g clip-path="url(#clip0_191_2149)">
<path d="M139.168 278.217C204.797 278.217 258 224.944 258 159.229C258 93.5146 204.797 40.2422 139.168 40.2422C73.5395 40.2422 20.3368 93.5146 20.3368 159.229C20.3368 224.944 73.5395 278.217 139.168 278.217Z" fill="#F2F2F2"/>
<path class="primary" d="M69.7762 138.19C70.6239 136.709 71.0619 135.028 71.0451 133.32C71.0451 128.919 68.3233 125.352 64.9657 125.352C61.6082 125.352 58.8863 128.919 58.8863 133.32C58.8696 135.028 59.3076 136.709 60.1552 138.19C59.3232 139.678 58.8863 141.355 58.8863 143.06C58.8863 144.765 59.3232 146.442 60.1552 147.93C59.3232 149.418 58.8863 151.095 58.8863 152.8C58.8863 154.505 59.3232 156.182 60.1552 157.67C59.3232 159.158 58.8863 160.834 58.8863 162.54C58.8863 164.245 59.3232 165.922 60.1552 167.41C59.3076 168.891 58.8696 170.572 58.8863 172.279C58.8863 176.681 61.6082 180.248 64.9657 180.248C68.3233 180.248 71.0451 176.681 71.0451 172.279C71.0619 170.572 70.6239 168.891 69.7762 167.41C70.6082 165.922 71.0451 164.245 71.0451 162.54C71.0451 160.834 70.6082 159.158 69.7762 157.67C70.6082 156.182 71.0451 154.505 71.0451 152.8C71.0451 151.095 70.6082 149.418 69.7762 147.93C70.6082 146.442 71.0451 144.765 71.0451 143.06C71.0451 141.355 70.6082 139.678 69.7762 138.19Z" fill="#3F3D56"/>
<path d="M64.9658 131.547C68.3233 131.547 71.0452 127.979 71.0452 123.578C71.0452 119.177 68.3233 115.609 64.9658 115.609C61.6082 115.609 58.8864 119.177 58.8864 123.578C58.8864 127.979 61.6082 131.547 64.9658 131.547Z" fill="#3F3D56"/>
<path d="M64.9658 121.809C68.3233 121.809 71.0452 118.241 71.0452 113.84C71.0452 109.439 68.3233 105.871 64.9658 105.871C61.6082 105.871 58.8864 109.439 58.8864 113.84C58.8864 118.241 61.6082 121.809 64.9658 121.809Z" fill="#3F3D56"/>
<path d="M87.7239 47.1882C88.5544 46.1294 89.3109 45.0144 89.9879 43.8511L74.0139 41.2242L91.2903 41.3528C92.9476 37.7422 93.8517 33.8309 93.9473 29.8583C94.043 25.8857 93.328 21.9353 91.8464 18.2489L68.668 30.2884L90.0438 14.555C88.0412 11.0898 85.3474 8.07471 82.1303 5.69744C78.9132 3.32016 75.2416 1.63168 71.3444 0.737172C67.4472 -0.157335 63.4077 -0.238704 59.4777 0.498136C55.5477 1.23498 51.8113 2.77424 48.5013 5.02003C45.1913 7.26583 42.3786 10.17 40.2384 13.5518C38.0982 16.9335 36.6764 20.7202 36.0615 24.6762C35.4466 28.6321 35.6519 32.6724 36.6644 36.5455C37.677 40.4185 39.4752 44.0413 41.947 47.1881C40.6524 48.836 39.5389 50.6188 38.6259 52.5057L59.3614 63.2925L37.2516 55.8624C35.6991 60.4576 35.3155 65.3679 36.1353 70.1489C36.9552 74.9299 38.9526 79.4308 41.947 83.2443C38.5684 87.5453 36.4667 92.7115 35.8822 98.1521C35.2976 103.593 36.2538 109.088 38.6414 114.01C41.029 118.933 44.7517 123.083 49.3838 125.986C54.016 128.89 59.3706 130.43 64.8354 130.43C70.3003 130.43 75.6549 128.89 80.287 125.986C84.9192 123.083 88.6418 118.933 91.0295 114.01C93.4171 109.088 94.3733 103.593 93.7887 98.1521C93.2042 92.7115 91.1025 87.5453 87.7239 83.2443C91.761 78.1045 93.9558 71.7552 93.9558 65.2162C93.9558 58.6772 91.761 52.3279 87.7239 47.1881L87.7239 47.1882Z" fill="#6C63FF"/>
<path opacity="0.1" d="M35.7151 65.2148C35.705 71.7555 37.9009 78.108 41.947 83.2429C38.5684 87.5439 36.4667 92.71 35.8821 98.1507C35.2976 103.591 36.2538 109.087 38.6414 114.009C41.029 118.931 44.7517 123.081 49.3838 125.985C54.0159 128.888 59.3705 130.428 64.8354 130.428C70.3003 130.428 75.6549 128.888 80.287 125.985C84.9191 123.081 88.6418 118.931 91.0294 114.009C93.4171 109.087 94.3733 103.591 93.7887 98.1507C93.2042 92.71 91.1024 87.5439 87.7239 83.2429C91.6269 78.2815 35.7151 61.9421 35.7151 65.2148Z" fill="black"/>
<path class="primary" d="M224.787 237.83C217.252 264.718 159.106 289.656 97.2734 272.281C35.4408 254.906 -6.66415 201.798 0.871492 174.91C8.40714 148.023 62.7297 157.537 124.562 174.912C186.395 192.287 232.323 210.943 224.787 237.83Z" fill="#3F3D56"/>
<path opacity="0.1" d="M224.787 237.83C217.252 264.718 159.106 289.656 97.2734 272.281C35.4408 254.906 -6.66415 201.798 0.871492 174.91C8.40714 148.023 62.7297 157.537 124.562 174.912C186.395 192.287 232.323 210.943 224.787 237.83Z" fill="#555555"/>
<path d="M224.787 237.83C232.323 210.942 188.307 175.06 126.474 157.685C64.6413 140.31 8.40716 148.022 0.871509 174.909C-6.66414 201.797 37.3523 237.679 99.1849 255.054C161.018 272.429 217.252 264.717 224.787 237.83Z" fill="#555555"/>
<path opacity="0.1" d="M93.9296 217.926C112.756 217.926 128.018 213.499 128.018 208.037C128.018 202.576 112.756 198.148 93.9296 198.148C75.1031 198.148 59.8412 202.576 59.8412 208.037C59.8412 213.499 75.1031 217.926 93.9296 217.926Z" fill="black"/>
<path d="M135.905 151.128L92.7899 194.299L74.6686 176.154C73.5069 174.99 71.9313 174.337 70.2884 174.337C68.6455 174.337 67.0698 174.99 65.9081 176.154L65.2571 175.179C62.838 177.601 63.489 182.503 65.9081 184.926L89.4204 208.469C90.3065 209.356 91.5082 209.854 92.7613 209.855C94.0144 209.855 95.2164 209.357 96.103 208.47L144.661 159.9C147.081 157.478 147.96 153.038 145.54 150.616C143.122 148.194 138.323 148.706 135.905 151.128Z" fill="#57B894"/>
<path opacity="0.1" d="M135.905 151.128L92.7899 194.299L74.6686 176.154C73.5069 174.99 71.9313 174.337 70.2884 174.337C68.6455 174.337 67.0698 174.99 65.9081 176.154L65.2571 175.179C62.838 177.601 63.489 182.503 65.9081 184.926L89.4204 208.469C90.3065 209.356 91.5082 209.854 92.7613 209.855C94.0144 209.855 95.2164 209.357 96.103 208.47L144.661 159.9C147.081 157.478 147.96 153.038 145.54 150.616C143.122 148.194 138.323 148.706 135.905 151.128Z" fill="black"/>
<path d="M135.905 149.215L92.7899 192.386L74.6685 174.241C73.5068 173.078 71.9312 172.424 70.2883 172.424C68.6454 172.424 67.0698 173.078 65.908 174.241C65.3328 174.817 64.8765 175.501 64.5652 176.253C64.2539 177.006 64.0937 177.812 64.0937 178.627C64.0937 179.441 64.2539 180.248 64.5652 181C64.8765 181.753 65.3328 182.437 65.908 183.013L89.4203 206.556C90.3064 207.443 91.5081 207.942 92.7612 207.942C94.0144 207.942 95.2164 207.444 96.1029 206.557L144.661 157.987C145.236 157.411 145.693 156.727 146.005 155.975C146.316 155.222 146.477 154.416 146.477 153.601C146.477 152.787 146.317 151.98 146.006 151.227C145.695 150.475 145.238 149.791 144.663 149.215C143.502 148.052 141.926 147.398 140.284 147.398C138.641 147.398 137.066 148.052 135.905 149.215Z" fill="#3FC93C"/>
<path d="M156.9 222.703C156.9 222.703 153.044 223.861 151.116 226.178C151.116 226.178 147.646 227.722 145.525 227.336C143.405 226.95 139.549 230.811 142.633 231.969C145.718 233.127 164.611 236.216 164.997 235.251C165.383 234.286 165.383 224.44 165.383 224.44L156.9 222.703Z" fill="#C4C4C4"/>
<path d="M187.187 221.043C187.187 221.043 183.586 222.844 182.082 225.456C182.082 225.456 178.926 227.571 176.77 227.553C174.615 227.536 171.474 231.999 174.711 232.613C177.948 233.226 197.091 233.038 197.306 232.021C197.521 231.004 195.842 221.304 195.842 221.304L187.187 221.043Z" fill="#C4C4C4"/>
<path d="M163.165 90.1784C167.957 90.1784 171.841 86.2892 171.841 81.4915C171.841 76.6939 167.957 72.8047 163.165 72.8047C158.374 72.8047 154.49 76.6939 154.49 81.4915C154.49 86.2892 158.374 90.1784 163.165 90.1784Z" fill="#FFB9B9"/>
<path d="M170.202 82.9414C170.202 82.9414 171.166 89.5048 172.901 90.277C174.108 90.872 175.214 91.6537 176.179 92.5935L171.359 94.91L161.912 94.3308C161.912 94.3308 162.683 90.0839 161.334 87.9605C159.984 85.837 170.202 82.9414 170.202 82.9414Z" fill="#FFB9B9"/>
<path d="M188.132 114.02C188.132 114.02 192.566 125.409 188.132 136.412C183.697 147.416 181.77 149.153 181.77 149.153L180.42 134.675L181.972 133.265C181.972 133.265 182.911 128.873 182.148 126.272C181.384 123.672 182.541 115.564 182.541 115.564L188.132 114.02Z" fill="#FFB9B9"/>
<path class="primary" d="M154.972 138.728C154.972 138.728 149.381 151.469 149.959 157.647C150.538 163.824 154.972 189.884 154.972 189.884C154.972 189.884 154.394 223.474 156.129 223.474C157.864 223.474 166.154 226.562 166.154 224.439C166.154 222.315 167.889 171.352 167.889 171.352C167.889 171.352 177.721 193.745 178.685 195.483C179.649 197.22 185.818 224.439 187.939 224.439C190.06 224.439 196.614 222.508 196.036 221.157C195.458 219.806 188.903 189.691 185.24 181.97C181.577 174.248 182.348 145.099 182.348 145.099L176.179 131.586L154.972 138.728Z" fill="#2F2E41"/>
<path d="M160.563 77.5369C160.563 77.5369 155.165 77.1508 154.779 75.7995C154.394 74.4482 153.622 73.29 154.008 73.29C154.394 73.29 154.586 72.3247 154.586 72.3247C154.586 72.3247 154.972 72.1317 155.165 72.3247C155.357 72.5178 155.55 70.9735 155.55 70.9735C155.55 70.9735 155.743 70.3943 155.936 70.7804C156.129 71.1665 156.129 70.9735 156.321 70.3943C156.514 69.8152 157.478 69.4291 157.478 69.4291C157.478 69.4291 161.141 69.6222 161.72 68.85C162.298 68.0778 168.853 68.657 170.202 69.6222C171.552 70.5874 177.528 74.0621 176.564 76.9577C175.6 79.8534 172.13 86.2237 172.13 87.1889C172.13 88.1541 170.781 87.9611 170.395 86.9959C170.009 86.0307 166.925 84.8724 166.925 84.2933C166.925 83.7142 165.19 78.309 164.226 78.6951C163.262 79.0812 162.105 82.1699 161.72 81.5907C161.334 81.0116 160.563 77.5369 160.563 77.5369Z" fill="#3F3D56"/>
<path class="secondary" d="M187.168 103.98C187.168 103.98 179.263 92.3979 176.95 91.8188C174.636 91.2396 169.431 89.6953 169.431 89.6953C169.431 89.6953 164.226 90.4675 162.684 91.2396C161.141 92.0118 155.358 93.3631 155.165 95.6796C154.972 97.9961 156.707 120.196 155.743 122.319C154.779 124.443 151.502 144.712 153.044 144.326C154.586 143.94 153.43 138.921 160.177 138.728C166.925 138.535 170.588 134.481 173.094 139.307C175.6 144.133 182.734 147.801 182.734 147.801C182.913 146.244 183.17 144.698 183.505 143.168C184.083 140.465 181.962 133.902 181.962 133.902C181.962 133.902 182.155 118.652 182.926 116.914C183.698 115.177 187.168 103.98 187.168 103.98Z" fill="#575A89"/>
<path class="secondary" d="M184.276 103.598L187.168 103.984C187.168 103.984 186.975 107.845 187.746 109.003C188.517 110.161 189.867 116.145 189.096 116.338C188.324 116.531 181.384 117.69 181.384 117.69L180.998 108.81L184.276 103.598Z" fill="#575A89"/>
<path d="M153.044 110.547C153.044 110.547 151.116 123.095 150.152 124.639C149.188 126.183 144.369 147.804 144.369 147.804C144.369 147.804 136.443 158.84 140.299 158.647C144.155 158.454 148.224 148.576 148.224 148.576C148.224 148.576 160.177 126.762 160.177 124.446C160.177 122.129 163.069 110.547 163.069 110.547H153.044Z" fill="#FFB9B9"/>
<path class="secondary" d="M158.635 93.5586L155.165 94.9099C155.165 94.9099 150.731 110.739 151.695 112.091C152.659 113.442 164.226 111.511 164.419 110.932C164.611 110.353 162.298 93.5586 158.635 93.5586Z" fill="#575A89"/>
<path class="primary" d="M3.6293 134.234C3.6293 147.687 12.0576 158.572 22.4733 158.572L3.6293 134.234Z" fill="#3F3D56"/>
<path d="M22.4734 158.572C22.4734 144.969 31.8788 133.961 43.5021 133.961L22.4734 158.572Z" fill="#6C63FF"/>
<path d="M10.4569 135.453C10.4569 148.231 15.8315 158.571 22.4734 158.571L10.4569 135.453Z" fill="#6C63FF"/>
<path class="primary" d="M22.4734 158.573C22.4734 141.19 33.3446 127.125 46.7793 127.125L22.4734 158.573Z" fill="#3F3D56"/>
<path d="M18.5089 158.743C18.5089 158.743 21.1813 158.66 21.9867 158.086C22.7921 157.512 26.0975 156.826 26.2973 157.747C26.4971 158.668 30.3134 162.328 27.2963 162.352C24.2792 162.376 20.2859 161.882 19.482 161.391C18.6782 160.901 18.5089 158.743 18.5089 158.743Z" fill="#A8A8A8"/>
<path opacity="0.2" d="M27.3502 162.03C24.3331 162.055 20.3397 161.56 19.5359 161.07C18.9238 160.696 18.6798 159.356 18.5982 158.738C18.5417 158.741 18.509 158.742 18.509 158.742C18.509 158.742 18.6782 160.9 19.4821 161.39C20.2859 161.88 24.2792 162.375 27.2963 162.351C28.1673 162.344 28.4681 162.034 28.4516 161.574C28.3306 161.852 27.9984 162.025 27.3502 162.03Z" fill="black"/>
</g>
<defs>
<clipPath id="clip0_191_2149">
<rect width="258" height="278.216" fill="white"/>
</clipPath>
</defs>
</svg>
