<svg width="18" height="18" viewBox="0 0 18 18" fill="none" xmlns="http://www.w3.org/2000/svg">
<path class="secondary" d="M13.926 0H4.07401C1.824 0 0 1.83156 0 4.09091V13.9091C0 16.1684 1.824 18 4.07401 18H13.926C16.176 18 18 16.1684 18 13.9091V4.09091C18 1.83156 16.176 0 13.926 0Z" fill="#5F82A6"/>
<path d="M12.7077 8.15278C13.0993 8.6229 13.0993 9.38126 12.7077 9.85138L8.70867 14.6486C8.31706 15.1187 7.68533 15.1187 7.29371 14.6486C6.9021 14.1785 6.9021 13.4202 7.29371 12.95L11.2928 8.14935C11.6844 7.68266 12.3161 7.68266 12.7077 8.15278Z" fill="white"/>
<path d="M12.7095 9.85188C12.3179 10.322 11.6861 10.322 11.2945 9.85188L7.29833 5.05119C6.90672 4.58108 6.90672 3.82271 7.29833 3.3526C7.68995 2.88248 8.32168 2.88248 8.71329 3.3526L12.7095 8.15328C13.1011 8.6234 13.1011 9.38176 12.7095 9.85188Z" fill="white"/>
</svg>
