<svg width="19" height="25" viewBox="0 0 19 25" fill="none" xmlns="http://www.w3.org/2000/svg">
<g clip-path="url(#clip0_37536_10725)">
<path class="secondary" d="M-9.43525e-07 22.1008L-1.04194e-07 2.89916C-3.43582e-08 1.30151 1.30424 -7.73506e-07 2.90524 -7.03524e-07L12.783 -2.71752e-07C14.3865 -2.01661e-07 15.6883 1.30151 15.6883 2.89916L15.6883 8.4785L16.7756 8.4785C18.0025 8.4785 19 9.47641 19 10.7008L19 14.3017C19 15.5261 18.0025 16.5215 16.7756 16.5215L15.6908 16.5215L15.6908 22.1008C15.6908 23.701 14.3865 25 12.7855 25L2.90773 25C1.30424 25 -1.01336e-06 23.6985 -9.43525e-07 22.1008ZM14.9401 2.89916C14.9401 1.71212 13.9726 0.746566 12.783 0.746566L2.90524 0.746565C1.71571 0.746565 0.74813 1.71212 0.74813 2.89916L0.748129 22.0983C0.748129 23.2854 1.71571 24.2509 2.90524 24.2509L12.783 24.2509C13.9726 24.2509 14.9401 23.2854 14.9401 22.0983L14.9401 15.7749L16.7756 15.7749C17.591 15.7749 18.2519 15.113 18.2519 14.3017L18.2519 10.7008C18.2519 9.88702 17.5885 9.22506 16.7756 9.22506L14.9426 9.22506L14.9426 2.89916L14.9401 2.89916Z" fill="#5F82A6"/>
<path class="secondary" d="M3.56415 12.5011C3.56415 9.99516 5.60655 7.95703 8.11777 7.95703C10.629 7.95703 12.6714 9.99516 12.6714 12.5011C12.6714 15.0071 10.629 17.0452 8.11777 17.0452C5.60655 17.0452 3.56415 15.0071 3.56415 12.5011ZM11.9208 12.5011C11.9208 10.4083 10.215 8.7036 8.11528 8.7036C6.01802 8.7036 4.30979 10.4058 4.30979 12.5011C4.30979 14.5965 6.01553 16.2987 8.11528 16.2987C10.215 16.2987 11.9208 14.594 11.9208 12.5011Z" fill="white"/>
</g>
<defs>
<clipPath id="clip0_37536_10725">
<rect width="25" height="19" fill="white" transform="translate(19) rotate(90)"/>
</clipPath>
</defs>
</svg>
