<svg viewBox="0 0 26 19" fill="none" xmlns="http://www.w3.org/2000/svg">
<g clip-path="url(#clip0_1493_5053)">
<path class="secondary" d="M22.2373 19H2.94549C1.34034 19 0.0327148 17.6958 0.0327148 16.0948V6.21696C0.0327148 4.61347 1.34034 3.31172 2.94549 3.31172H8.55102V2.22444C8.55102 0.997506 9.55361 0 10.7837 0H14.4016C15.6317 0 16.6318 0.997506 16.6318 2.22444V3.30923H22.2373C23.845 3.30923 25.1501 4.61347 25.1501 6.21446V16.0923C25.1501 17.6958 23.8425 19 22.2373 19ZM2.94549 4.05985C1.75288 4.05985 0.782786 5.02743 0.782786 6.21696V16.0948C0.782786 17.2843 1.75288 18.2519 2.94549 18.2519H22.2348C23.4274 18.2519 24.3975 17.2843 24.3975 16.0948V6.21696C24.3975 5.02743 23.4274 4.05985 22.2348 4.05985H15.8817V2.22444C15.8817 1.40898 15.2166 0.74813 14.4016 0.74813H10.7837C9.96615 0.74813 9.30109 1.41147 9.30109 2.22444V4.05736H2.94549V4.05985Z" fill="#5F82A6"/>
<path class="secondary" d="M12.5913 15.4354C10.0736 15.4354 8.02588 13.393 8.02588 10.8817C8.02588 8.37052 10.0736 6.32812 12.5913 6.32812C15.109 6.32812 17.1567 8.37052 17.1567 10.8817C17.1567 13.393 15.109 15.4354 12.5913 15.4354ZM12.5913 7.07875C10.4886 7.07875 8.77595 8.78448 8.77595 10.8842C8.77595 12.9815 10.4861 14.6897 12.5913 14.6897C14.6965 14.6897 16.4067 12.984 16.4067 10.8842C16.4067 8.78448 14.694 7.07875 12.5913 7.07875Z" fill="#333750"/>
</g>
<defs>
<clipPath id="clip0_1493_5053">
<rect width="25.1174" height="19" fill="white" transform="translate(0.0327148)"/>
</clipPath>
</defs>
</svg>
