<svg width="49" height="40" viewBox="0 0 49 40" fill="none" xmlns="http://www.w3.org/2000/svg">
<path class="secondary" d="M43.579 40H13.2256C10.2363 40 7.80457 37.481 7.80457 34.3845V26.3363C7.80457 25.9589 8.09866 25.6542 8.46299 25.6542C8.82732 25.6542 9.12142 25.9589 9.12142 26.3363V34.3845C9.12142 36.7307 10.9606 38.6359 13.2256 38.6359H43.579C45.844 38.6359 47.6832 36.7307 47.6832 34.3845V18.5973C47.6832 16.251 45.844 14.3458 43.579 14.3458H40.5897C40.2254 14.3458 39.9313 14.0412 39.9313 13.6638C39.9313 13.2864 40.2254 12.9817 40.5897 12.9817H43.579C46.5682 12.9817 49 15.5008 49 18.5973V34.3845C49 37.481 46.5682 40 43.579 40Z" fill="#5F82A6"/>
<path class="secondary" d="M35.7744 27.0228H5.42103C2.43178 27.0228 0 24.5038 0 21.4073V5.61555C0 2.51904 2.43178 0 5.42103 0H35.7744C38.7637 0 41.1955 2.51904 41.1955 5.61555V21.4027C41.1955 24.5038 38.7637 27.0228 35.7744 27.0228ZM5.42103 1.3641C3.15605 1.3641 1.31685 3.26929 1.31685 5.61555V21.4027C1.31685 23.749 3.15605 25.6542 5.42103 25.6542H35.7744C38.0394 25.6542 39.8786 23.749 39.8786 21.4027V5.61555C39.8786 3.26929 38.0394 1.3641 35.7744 1.3641H5.42103Z" fill="#333750"/>
<path class="secondary" d="M9.37162 15.6234H5.8688C4.46855 15.6234 3.33167 14.4458 3.33167 12.9953V10.7672C3.33167 9.31674 4.46855 8.13907 5.8688 8.13907H9.37162C10.7719 8.13907 11.9087 9.31674 11.9087 10.7672V12.9953C11.9044 14.4458 10.7675 15.6234 9.37162 15.6234ZM5.86441 9.50772C5.19281 9.50772 4.64413 10.0761 4.64413 10.7718V12.9998C4.64413 13.6955 5.19281 14.2639 5.86441 14.2639H9.36723C10.0388 14.2639 10.5875 13.6955 10.5875 12.9998V10.7718C10.5875 10.0761 10.0388 9.50772 9.36723 9.50772H5.86441Z" fill="#333750"/>
<path class="secondary" d="M10.1837 21.0799H5.27622C4.91189 21.0799 4.6178 20.7753 4.6178 20.3979C4.6178 20.0205 4.91189 19.7158 5.27622 19.7158H10.1837C10.548 19.7158 10.8421 20.0205 10.8421 20.3979C10.8421 20.7753 10.548 21.0799 10.1837 21.0799Z" fill="#5F82A6"/>
<path class="secondary" d="M48.0343 29.3783H8.40147C8.03714 29.3783 7.74304 29.0736 7.74304 28.6962C7.74304 28.3188 8.03714 28.0142 8.40147 28.0142H48.0343C48.3986 28.0142 48.6927 28.3188 48.6927 28.6962C48.6927 29.0736 48.3986 29.3783 48.0343 29.3783Z" fill="#5F82A6"/>
<path class="secondary" d="M48.0343 34.5982H8.40147C8.03714 34.5982 7.74304 34.2935 7.74304 33.9161C7.74304 33.5387 8.03714 33.2341 8.40147 33.2341H48.0343C48.3986 33.2341 48.6927 33.5387 48.6927 33.9161C48.6927 34.2935 48.3986 34.5982 48.0343 34.5982Z" fill="#5F82A6"/>
<path class="secondary" d="M10.8552 13.6593H7.35239C6.98807 13.6593 6.69397 13.3546 6.69397 12.9772C6.69397 12.5998 6.98807 12.2952 7.35239 12.2952H10.8552C11.2195 12.2952 11.5136 12.5998 11.5136 12.9772C11.5136 13.3546 11.2195 13.6593 10.8552 13.6593Z" fill="#333750"/>
<path class="secondary" d="M7.80456 11.5676H4.30174C3.93741 11.5676 3.64331 11.2629 3.64331 10.8855C3.64331 10.5081 3.93741 10.2035 4.30174 10.2035H7.80456C8.16889 10.2035 8.46298 10.5081 8.46298 10.8855C8.46298 11.2629 8.1645 11.5676 7.80456 11.5676Z" fill="#333750"/>
<path class="secondary" d="M18.3437 21.0799H13.4319C13.0675 21.0799 12.7734 20.7753 12.7734 20.3979C12.7734 20.0205 13.0675 19.7158 13.4319 19.7158H18.3437C18.708 19.7158 19.0021 20.0205 19.0021 20.3979C19.0021 20.7753 18.708 21.0799 18.3437 21.0799Z" fill="#5F82A6"/>
<path class="secondary" d="M26.7145 21.0799H21.807C21.4427 21.0799 21.1486 20.7753 21.1486 20.3979C21.1486 20.0205 21.4427 19.7158 21.807 19.7158H26.7189C27.0832 19.7158 27.3773 20.0205 27.3773 20.3979C27.3773 20.7753 27.0788 21.0799 26.7145 21.0799Z" fill="#5F82A6"/>
<path class="secondary" d="M33.9616 21.08C31.7668 21.08 29.9759 19.2293 29.9759 16.9558C29.9759 14.6823 31.7624 12.8317 33.9616 12.8317C36.1607 12.8317 37.9428 14.6823 37.9428 16.9558C37.9472 19.2293 36.1607 21.08 33.9616 21.08ZM33.9616 14.1912C32.4911 14.1912 31.2927 15.4326 31.2927 16.9513C31.2927 18.4745 32.4911 19.7113 33.9616 19.7113C35.432 19.7113 36.626 18.47 36.626 16.9513C36.6304 15.4326 35.432 14.1912 33.9616 14.1912Z" fill="#5F82A6"/>
<path class="secondary" d="M33.9616 17.7879C31.7668 17.7879 29.9759 15.9373 29.9759 13.6638C29.9759 11.3903 31.7624 9.53966 33.9616 9.53966C36.1607 9.53966 37.9428 11.3903 37.9428 13.6638C37.9472 15.9373 36.1607 17.7879 33.9616 17.7879ZM33.9616 10.8992C32.4911 10.8992 31.2927 12.1405 31.2927 13.6592C31.2927 15.1825 32.4911 16.4193 33.9616 16.4193C35.432 16.4193 36.626 15.1779 36.626 13.6592C36.6304 12.1405 35.432 10.8992 33.9616 10.8992Z" fill="#333750"/>
</svg>
