<svg width="50" height="50" viewBox="0 0 50 50" fill="none" xmlns="http://www.w3.org/2000/svg">
<path class="secondary" d="M38.6833 0H11.3167C5.06665 0 0 5.08767 0 11.3636V38.6364C0 44.9123 5.06665 50 11.3167 50H38.6833C44.9333 50 50 44.9123 50 38.6364V11.3636C50 5.08767 44.9333 0 38.6833 0Z" fill="#5F82A6"/>
<path d="M19.8041 24.0891C17.8147 24.09 15.8698 23.4983 14.2154 22.3888C12.561 21.2793 11.2716 19.702 10.5103 17.8564C9.74894 16.0108 9.54996 13.9799 9.93852 12.0207C10.3271 10.0615 11.2857 8.26204 12.693 6.85011C14.1004 5.43818 15.8932 4.4772 17.8447 4.08879C19.7961 3.70038 21.8185 3.90199 23.6558 4.66811C25.4931 5.43424 27.0627 6.73043 28.1661 8.39267C29.2696 10.0549 29.8571 12.0085 29.8544 14.0061C29.8485 16.68 28.7874 19.2426 26.9037 21.1325C25.0199 23.0224 22.467 24.0855 19.8041 24.0891ZM19.8041 7.50812C18.5262 7.50723 17.2768 7.88682 16.2137 8.5989C15.1506 9.31098 14.3216 10.3236 13.8315 11.5087C13.3415 12.6938 13.2123 13.9982 13.4604 15.257C13.7086 16.5158 14.3228 17.6724 15.2254 18.5807C16.1281 19.4891 17.2787 20.1082 18.5318 20.36C19.7849 20.6118 21.0841 20.4848 22.2654 19.9952C23.4466 19.5056 24.4567 18.6753 25.1681 17.6092C25.8794 16.5432 26.2601 15.2893 26.2618 14.0061C26.2595 12.2867 25.5785 10.6382 24.3681 9.42195C23.1577 8.20567 21.5165 7.52072 19.8041 7.51714V7.50812Z" fill="white"/>
<path d="M34.0937 38.4065C33.6173 38.4065 33.1604 38.2164 32.8235 37.8782C32.4866 37.5399 32.2974 37.0811 32.2974 36.6027C32.2974 33.2755 30.9811 30.0847 28.6382 27.732C26.2953 25.3793 23.1175 24.0576 19.8041 24.0576C16.4907 24.0576 13.313 25.3793 10.9701 27.732C8.62711 30.0847 7.31086 33.2755 7.31086 36.6027C7.31086 37.0811 7.12161 37.5399 6.78474 37.8782C6.44786 38.2164 5.99097 38.4065 5.51456 38.4065C5.03815 38.4065 4.58126 38.2164 4.24439 37.8782C3.90751 37.5399 3.71826 37.0811 3.71826 36.6027C3.71826 32.3188 5.41302 28.2103 8.4297 25.1811C11.4464 22.1519 15.5379 20.4501 19.8041 20.4501C24.0704 20.4501 28.1619 22.1519 31.1785 25.1811C34.1952 28.2103 35.89 32.3188 35.89 36.6027C35.89 37.0811 35.7007 37.5399 35.3639 37.8782C35.027 38.2164 34.5701 38.4065 34.0937 38.4065Z" fill="white"/>
<path class="primary" d="M36.4558 42.4512C39.7793 42.4512 42.4734 39.7458 42.4734 36.4086C42.4734 33.0714 39.7793 30.366 36.4558 30.366C33.1324 30.366 30.4382 33.0714 30.4382 36.4086C30.4382 39.7458 33.1324 42.4512 36.4558 42.4512Z" fill="#333750"/>
<path d="M36.4739 46.0543C35.7177 46.0533 34.9642 45.964 34.2285 45.7882C32.381 45.348 30.7049 44.3675 29.4123 42.9707C28.1197 41.574 27.2685 39.8238 26.9665 37.9413C26.6644 36.0589 26.9251 34.1287 27.7154 32.395C28.5057 30.6613 29.7902 29.2018 31.4066 28.2011C33.0229 27.2004 34.8985 26.7035 36.796 26.7731C38.6936 26.8427 40.5281 27.4758 42.0673 28.5922C43.6066 29.7087 44.7817 31.2584 45.4439 33.0455C46.1061 34.8325 46.2258 36.7766 45.7877 38.6319C45.2895 40.7406 44.0989 42.6195 42.4077 43.9659C40.7165 45.3124 38.6232 46.048 36.4649 46.0543H36.4739ZM36.4739 30.3752C35.3447 30.3736 34.238 30.6916 33.2805 31.2927C32.323 31.8937 31.5536 32.7536 31.0604 33.7736C30.5673 34.7936 30.3703 35.9325 30.4921 37.0597C30.614 38.1869 31.0496 39.2569 31.7492 40.1469C32.4488 41.0369 33.384 41.711 34.4476 42.0918C35.5112 42.4726 36.6601 42.5448 37.7627 42.3C38.8652 42.0553 39.8768 41.5035 40.6814 40.708C41.486 39.9124 42.0511 38.9053 42.3119 37.8021C42.6773 36.2439 42.4121 34.6037 41.5743 33.2416C40.7366 31.8796 39.3948 30.9071 37.8436 30.5375C37.3891 30.4283 36.9233 30.3738 36.4559 30.3752H36.4739Z" fill="white"/>
<path d="M22.0541 45.283C21.6637 45.2823 21.2842 45.154 20.973 44.9174C20.6618 44.6808 20.4358 44.3488 20.3292 43.9717C20.2227 43.5946 20.2413 43.193 20.3824 42.8275C20.5234 42.462 20.7792 42.1526 21.111 41.9461L28.184 37.5675C28.5895 37.3164 29.0778 37.2373 29.5414 37.3476C30.005 37.458 30.406 37.7488 30.6561 38.156C30.9062 38.5632 30.985 39.0535 30.8751 39.5191C30.7652 39.9846 30.4756 40.3872 30.0701 40.6384L22.9971 45.017C22.7134 45.1917 22.3869 45.2838 22.0541 45.283Z" fill="white"/>
</svg>
