<svg width="37" height="32" viewBox="0 0 37 32" fill="none" xmlns="http://www.w3.org/2000/svg">
<path class="secondary" fill-rule="evenodd" clip-rule="evenodd" d="M21.5068 11.75L19.6659 11.7168L19.6657 11.75L21.5068 11.75ZM15.8818 17.375L9.75803 17.375L8.67011 19.2507L7.59158 17.375L2.98192 17.375C2.92259 17.375 2.86559 17.3516 2.82345 17.3098C2.78229 17.269 2.7585 17.214 2.75692 17.1561L2.75692 2.61875L2.75685 2.60201C2.75658 2.57229 2.7622 2.54282 2.77339 2.51529C2.78458 2.48776 2.80111 2.46272 2.82203 2.44161C2.84295 2.4205 2.86785 2.40375 2.89528 2.39232C2.9227 2.38088 2.95213 2.375 2.98185 2.375L19.4256 2.375C19.4803 2.375 19.5327 2.39673 19.5714 2.43541C19.6101 2.47409 19.6318 2.52655 19.6318 2.58125L19.6318 8L21.5068 8L21.5068 2.58125C21.5068 2.02927 21.2876 1.49989 20.8973 1.10958C20.5069 0.719273 19.9776 0.499998 19.4256 0.499998L2.98192 0.499998C2.70456 0.499987 2.42995 0.55492 2.17393 0.661625C1.91792 0.768332 1.68558 0.924696 1.49033 1.12169C1.29508 1.31868 1.14079 1.5524 1.03636 1.80935C0.931934 2.06631 0.879444 2.3414 0.88192 2.61875L0.88192 17.1687C0.886864 17.7224 1.11029 18.2518 1.50359 18.6416C1.89688 19.0313 2.4282 19.25 2.98192 19.25L6.50684 19.25L8.66308 23L10.8381 19.25L15.8818 19.25L15.8818 17.375Z" fill="#333750"/>
<path class="secondary" fill-rule="evenodd" clip-rule="evenodd" d="M18.2159 27.8333C17.686 27.8333 17.1772 27.624 16.7991 27.2502C16.4211 26.8765 16.2039 26.3683 16.1943 25.8349V22.3657L17.9824 22.3333L18.0152 25.8019C18.0162 25.8548 18.0377 25.9051 18.0752 25.9422C18.1126 25.9792 18.163 25.9999 18.2156 25.9999L27.5729 26L28.6296 27.8341L29.6772 26H34.1545C34.2121 26 34.2675 25.9771 34.3084 25.9363C34.3484 25.8964 34.3715 25.8426 34.3731 25.786V11.5718L34.3731 11.5554C34.3734 11.5263 34.3679 11.4975 34.3571 11.4706C34.3462 11.4437 34.3301 11.4192 34.3098 11.3986C34.2895 11.3779 34.2653 11.3615 34.2387 11.3504C34.212 11.3392 34.1835 11.3334 34.1546 11.3334L18.2159 11.3333C18.1627 11.3333 18.1118 11.3546 18.0742 11.3924C18.0366 11.4302 18.0155 11.4815 18.0155 11.535V22.3657H16.1943V11.535C16.1943 10.9953 16.4073 10.4777 16.7864 10.096C17.1655 9.7144 17.6797 9.5 18.2159 9.5L34.1545 9.5001C34.4239 9.50009 34.6907 9.5538 34.9393 9.65813C35.188 9.76247 35.4137 9.91536 35.6033 10.108C35.793 10.3006 35.9428 10.5291 36.0442 10.7804C36.1457 11.0316 36.1967 11.3006 36.1943 11.5718V25.7984C36.1895 26.3398 35.9724 26.8573 35.5904 27.2384C35.2084 27.6196 34.6924 27.8334 34.1545 27.8333H30.7308L28.6364 31.5L26.5238 27.8333L18.2159 27.8333Z" fill="#333750"/>
</svg>
