<svg width="11" height="15" viewBox="0 0 11 15" fill="none" xmlns="http://www.w3.org/2000/svg">
<path fill-rule="evenodd" clip-rule="evenodd" d="M0.947602 4.18421C0.947602 1.87333 2.82094 0 5.13181 0C7.44269 0 9.31602 1.87334 9.31602 4.18421V6.26485C10.0084 7.1494 10.4211 8.26337 10.4211 9.47373V9.78952C10.4211 12.6672 8.08822 15 5.21053 15C2.33283 15 0 12.6672 0 9.78952V9.47372C0 8.35814 0.35059 7.32444 0.947602 6.47679V4.18421ZM8.05284 5.10599C7.23543 4.57297 6.25915 4.2632 5.21053 4.2632C4.09369 4.2632 3.05892 4.61458 2.21074 5.21282V4.34246C2.21074 2.72921 3.51854 1.4214 5.13179 1.4214C6.74504 1.4214 8.05284 2.7292 8.05284 4.34246V5.10599ZM5.96865 10.0101C6.2754 9.77965 6.47382 9.41277 6.47382 8.99955C6.47382 8.30193 5.90828 7.7364 5.21066 7.7364C4.51304 7.7364 3.9475 8.30193 3.9475 8.99955C3.9475 9.41285 4.146 9.77979 4.45286 10.0102V12.2844H5.96865V10.0101Z" fill="#BDBDBD"/>
</svg>
