<svg width="50" height="50" viewBox="0 0 50 50" fill="none" xmlns="http://www.w3.org/2000/svg">
<path class="secondary" d="M38.7349 0H11.2651C5.04355 0 0 4.98208 0 11.1278V38.8722C0 45.0179 5.04355 50 11.2651 50H38.7349C44.9564 50 50 45.0179 50 38.8722V11.1278C50 4.98208 44.9564 0 38.7349 0Z" fill="#5F82A6"/>
<path d="M35.4358 42.4535C34.5658 42.45 33.7204 42.168 33.0263 41.6498L23.6387 34.7347C23.4423 34.5993 23.2754 34.4262 23.1479 34.2259C23.0205 34.0255 22.9351 33.8019 22.8968 33.5683C22.8586 33.3347 22.8682 33.0958 22.9252 32.866C22.9822 32.6362 23.0853 32.42 23.2286 32.2303C23.3718 32.0406 23.5521 31.8812 23.7589 31.7617C23.9656 31.6422 24.1946 31.5649 24.4321 31.5345C24.6697 31.5041 24.9111 31.5211 25.1418 31.5846C25.3726 31.6481 25.5881 31.7568 25.7755 31.9042L35.1631 38.8193C35.2382 38.8799 35.3321 38.913 35.4291 38.913C35.526 38.913 35.62 38.8799 35.6951 38.8193C35.7787 38.7696 35.8418 38.6921 35.8729 38.6006C35.904 38.5092 35.9012 38.4099 35.8649 38.3203L32.32 27.2897C32.2053 26.9334 32.2079 26.5503 32.3276 26.1956C32.4473 25.8409 32.6779 25.5328 32.9861 25.3158L42.5167 18.6038C42.5991 18.5514 42.6618 18.4736 42.6951 18.3826C42.7284 18.2915 42.7305 18.1921 42.701 18.0998C42.6716 18.0074 42.6122 17.9272 42.532 17.8715C42.4519 17.8157 42.3554 17.7876 42.2574 17.7913L30.5811 17.7295C30.2018 17.728 29.8328 17.6074 29.5274 17.3851C29.2221 17.1629 28.9962 16.8505 28.8824 16.493L25.5297 5.94372C25.5027 5.85041 25.4428 5.76972 25.3608 5.71626C25.2788 5.6628 25.1801 5.64011 25.0826 5.65228C24.9837 5.6426 24.8845 5.66791 24.8026 5.7237C24.7207 5.77949 24.6616 5.86214 24.6356 5.95697L21.1041 16.4666C20.9849 16.8182 20.7567 17.1239 20.4518 17.3402C20.1469 17.5566 19.7808 17.6727 19.4054 17.6721L8.19842 17.6147C8.09947 17.6009 7.99888 17.6241 7.91625 17.6796C7.83362 17.7351 7.77485 17.819 7.7514 17.9149C7.71481 18.0031 7.71041 18.1011 7.73896 18.1922C7.7675 18.2832 7.82721 18.3616 7.90786 18.4139L16.902 25.1259C17.2015 25.3485 17.4225 25.6583 17.534 26.0117C17.6455 26.3651 17.6418 26.7442 17.5234 27.0954L13.907 37.8213C13.8727 37.9109 13.8688 38.0092 13.896 38.1011C13.9232 38.1931 13.9799 38.2739 14.0577 38.3312C14.1354 38.3885 14.2299 38.4193 14.3269 38.419C14.4239 38.4186 14.5181 38.3871 14.5954 38.3291C14.7858 38.1876 15.0029 38.085 15.234 38.0276C15.4651 37.9701 15.7055 37.9588 15.9411 37.9944C16.1766 38.03 16.4026 38.1118 16.6057 38.2349C16.8089 38.358 16.985 38.5199 17.1239 38.7113C17.2627 38.9026 17.3615 39.1194 17.4143 39.3489C17.4671 39.5785 17.4729 39.8161 17.4314 40.0479C17.39 40.2797 17.302 40.501 17.1727 40.6988C17.0434 40.8965 16.8754 41.0667 16.6785 41.1994C15.9872 41.6935 15.1548 41.9578 14.3015 41.9539C13.4482 41.9501 12.6183 41.6783 11.9316 41.1779C11.2449 40.6776 10.737 39.9745 10.4814 39.1703C10.2258 38.3661 10.2357 37.5024 10.5096 36.7041L13.7237 27.1793L5.75766 21.2312C5.08306 20.7295 4.58537 20.0308 4.33509 19.2342C4.0848 18.4376 4.09461 17.5833 4.36312 16.7925C4.63163 16.0017 5.14523 15.3143 5.83117 14.8279C6.5171 14.3414 7.3406 14.0805 8.18501 14.082H8.21183L18.1224 14.1306L21.2516 4.8177C21.5185 4.0181 22.0355 3.32287 22.7281 2.83225C23.4207 2.34163 24.2532 2.08096 25.1055 2.08784C25.9577 2.09472 26.7858 2.36878 27.4702 2.87051C28.1546 3.37225 28.6601 4.07572 28.9137 4.87952L31.8909 14.2057L42.253 14.2587C43.1062 14.2609 43.9366 14.531 44.6242 15.03C45.3118 15.529 45.821 16.231 46.0783 17.0347C46.3355 17.8383 46.3275 18.7019 46.0553 19.5006C45.7831 20.2994 45.2609 20.9921 44.5641 21.4785L36.1242 27.4265L39.2534 37.2605C39.4411 37.8574 39.4847 38.4893 39.3809 39.1058C39.2771 39.7223 39.0286 40.3062 38.6554 40.8109C38.2823 41.3156 37.7947 41.727 37.2318 42.0122C36.6688 42.2974 36.0461 42.4485 35.4134 42.4535H35.4358Z" fill="white"/>
<path d="M24.4391 37.5563C26.4561 37.5563 28.0913 35.9411 28.0913 33.9486C28.0913 31.9561 26.4561 30.3409 24.4391 30.3409C22.422 30.3409 20.7869 31.9561 20.7869 33.9486C20.7869 35.9411 22.422 37.5563 24.4391 37.5563Z" fill="#333750"/>
</svg>
