<svg width="17" height="17" viewBox="0 0 17 17" fill="none" xmlns="http://www.w3.org/2000/svg">
<path fill-rule="evenodd" clip-rule="evenodd" d="M10.5882 10.4691C10.6811 10.3761 10.7913 10.3023 10.9127 10.252C11.0341 10.2017 11.1643 10.1758 11.2957 10.1758C11.4271 10.1758 11.5572 10.2017 11.6786 10.252C11.8 10.3023 11.9103 10.3761 12.0032 10.4691L15.8532 14.3191C16.0408 14.5066 16.1463 14.7609 16.1464 15.0262C16.1465 15.2915 16.0412 15.5459 15.8537 15.7336C15.6662 15.9212 15.4118 16.0267 15.1465 16.0268C14.8813 16.0269 14.6268 15.9216 14.4392 15.7341L10.5892 11.8841C10.4962 11.7912 10.4224 11.6809 10.3721 11.5595C10.3218 11.4381 10.2959 11.308 10.2959 11.1766C10.2959 11.0452 10.3218 10.915 10.3721 10.7936C10.4224 10.6722 10.4962 10.5619 10.5892 10.4691H10.5882Z" fill="#323751"/>
<path class="secondary" fill-rule="evenodd" clip-rule="evenodd" d="M6.646 12.0273C7.36827 12.0273 8.08346 11.8851 8.75076 11.6087C9.41805 11.3323 10.0244 10.9272 10.5351 10.4164C11.0458 9.90571 11.4509 9.29939 11.7273 8.6321C12.0037 7.96481 12.146 7.24961 12.146 6.52734C12.146 5.80507 12.0037 5.08988 11.7273 4.42259C11.4509 3.75529 11.0458 3.14898 10.5351 2.63826C10.0244 2.12753 9.41805 1.72241 8.75076 1.44601C8.08346 1.16961 7.36827 1.02734 6.646 1.02734C5.18731 1.02734 3.78836 1.60681 2.75691 2.63826C1.72546 3.66971 1.146 5.06865 1.146 6.52734C1.146 7.98603 1.72546 9.38498 2.75691 10.4164C3.78836 11.4479 5.18731 12.0273 6.646 12.0273ZM13.146 6.52734C13.146 8.25125 12.4612 9.90455 11.2422 11.1235C10.0232 12.3425 8.3699 13.0273 6.646 13.0273C4.92209 13.0273 3.26879 12.3425 2.0498 11.1235C0.830816 9.90455 0.145996 8.25125 0.145996 6.52734C0.145996 4.80344 0.830816 3.15014 2.0498 1.93115C3.26879 0.712163 4.92209 0.0273438 6.646 0.0273438C8.3699 0.0273438 10.0232 0.712163 11.2422 1.93115C12.4612 3.15014 13.146 4.80344 13.146 6.52734Z" fill="#5F82A6"/>
</svg>
