<svg width="13" height="12" viewBox="0 0 13 12" fill="none" xmlns="http://www.w3.org/2000/svg">
<path d="M2.0221 4.36298V6.59376C2.0221 7.57976 2.8316 8.38395 3.82779 8.38395H8.53449C8.85333 8.38395 9.11271 8.6411 9.11271 8.95721C9.11271 9.27332 8.85333 9.53046 8.53449 9.53046H3.82779C2.19556 9.53046 0.865662 8.21361 0.865662 6.59376V4.36298" fill="white"/>
<path d="M7.80594 8.53622C7.96289 8.53622 8.11983 8.6001 8.23382 8.72458L8.96238 8.63122C9.16228 8.84906 9.16228 9.18318 8.96238 9.40102L6.75854 11.812C6.54377 12.0462 6.17867 12.0642 5.94243 11.8513C5.70618 11.6384 5.68801 11.2764 5.90278 11.0422L7.75638 9.01612L7.37971 9.49602C7.16494 9.2618 7.18312 8.89819 7.41936 8.68691C7.5284 8.58536 7.66717 8.53622 7.80594 8.53622Z" fill="white"/>
<path class="primary" d="M1.56284 4.83134C2.42598 4.83134 3.12568 4.13764 3.12568 3.28191C3.12568 2.42619 2.42598 1.73248 1.56284 1.73248C0.699708 1.73248 0 2.42619 0 3.28191C0 4.13764 0.699708 4.83134 1.56284 4.83134Z" fill="#333750"/>
<path d="M10.9779 7.63691V5.40613C10.9779 4.42013 10.1684 3.61593 9.17218 3.61593H4.46549C4.14664 3.61593 3.88727 3.35879 3.88727 3.04268C3.88727 2.72657 4.14664 2.46942 4.46549 2.46942H9.17218C10.8044 2.46942 12.1343 3.78627 12.1343 5.40613V7.63691" fill="white"/>
<path d="M5.1957 3.46376C5.03876 3.46376 4.88181 3.39989 4.76782 3.27541L4.03927 3.36877C3.83937 3.15093 3.83937 2.8168 4.03927 2.59897L6.24311 0.18802C6.45787 -0.0461956 6.82298 -0.0642122 7.05922 0.148711C7.29546 0.361635 7.31364 0.723604 7.09887 0.95782L5.24692 2.98387L5.62359 2.50397C5.83835 2.73819 5.82018 3.10179 5.58394 3.31308C5.47325 3.41463 5.33282 3.46376 5.1957 3.46376Z" fill="white"/>
<path class="primary" d="M11.4372 10.2675C12.3003 10.2675 13 9.57379 13 8.71807C13 7.86234 12.3003 7.16864 11.4372 7.16864C10.574 7.16864 9.87433 7.86234 9.87433 8.71807C9.87433 9.57379 10.574 10.2675 11.4372 10.2675Z" fill="#333750"/>
</svg>