<svg width="18" height="18" viewBox="0 0 18 18" fill="none" xmlns="http://www.w3.org/2000/svg">
<path class="secondary" d="M13.926 0H4.07401C1.824 0 0 1.83156 0 4.09091V13.9091C0 16.1684 1.824 18 4.07401 18H13.926C16.176 18 18 16.1684 18 13.9091V4.09091C18 1.83156 16.176 0 13.926 0Z" fill="#5F82A6"/>
<path class="primary" d="M8.9784 12.4349C10.9016 12.4349 12.4607 10.8694 12.4607 8.93816C12.4607 7.00696 10.9016 5.44141 8.9784 5.44141C7.05518 5.44141 5.49609 7.00696 5.49609 8.93816C5.49609 10.8694 7.05518 12.4349 8.9784 12.4349Z" fill="#333750"/>
<path d="M9.07801 14.3216C12.0378 14.3216 14.4373 11.9122 14.4373 8.94009C14.4373 5.96797 12.0378 3.55859 9.07801 3.55859C6.11817 3.55859 3.71875 5.96797 3.71875 8.94009C3.71875 11.9122 6.11817 14.3216 9.07801 14.3216Z" stroke="white" stroke-width="1.29334" stroke-linecap="round" stroke-linejoin="round"/>
<path d="M7.18359 7.92969L9.10581 9.85988L15.385 3.55469" stroke="white" stroke-width="1.29334" stroke-linecap="round" stroke-linejoin="round"/>
</svg>
