<svg width="15" height="15" viewBox="0 0 15 15" fill="none" xmlns="http://www.w3.org/2000/svg">
<path class="secondary" d="M10.9773 0.0273438H3.31467C1.56466 0.0273438 0.145996 1.45189 0.145996 3.20916V10.8455C0.145996 12.6028 1.56466 14.0273 3.31467 14.0273H10.9773C12.7273 14.0273 14.146 12.6028 14.146 10.8455V3.20916C14.146 1.45189 12.7273 0.0273438 10.9773 0.0273438Z" fill="#5F82A6"/>
<path d="M5.04346 8.40234H9.4293" stroke="white" stroke-width="1.07744" stroke-linecap="round" stroke-linejoin="round"/>
<path d="M2.90869 11.568V2.57812H11.5647V11.568" stroke="white" stroke-width="1.07744" stroke-linecap="round" stroke-linejoin="round"/>
<path d="M2.90234 11.5695L3.95605 10.5114L5.01982 11.5784L6.13137 10.4609L7.23412 11.5683V11.5695L8.28783 10.5114L9.35034 11.5784L10.4619 10.4609L11.5646 11.5683" stroke="white" stroke-width="1.07744" stroke-linecap="round" stroke-linejoin="round"/>
<path class="primary" d="M7.14587 7.25884C8.07643 7.25884 8.8308 6.50134 8.8308 5.56692C8.8308 4.6325 8.07643 3.875 7.14587 3.875C6.21531 3.875 5.46094 4.6325 5.46094 5.56692C5.46094 6.50134 6.21531 7.25884 7.14587 7.25884Z" fill="#333750"/>
<path d="M6.77637 5.28812L7.4604 5.97498L9.17048 4.25781" stroke="white" stroke-width="1.07744" stroke-linecap="round" stroke-linejoin="round"/>
</svg>
