<svg width="19" height="19" viewBox="0 0 19 19" fill="none" xmlns="http://www.w3.org/2000/svg">
<path class="secondary" d="M14.072 0.0273438H4.22C1.96999 0.0273438 0.145996 1.85891 0.145996 4.11825V13.9364C0.145996 16.1958 1.96999 18.0273 4.22 18.0273H14.072C16.322 18.0273 18.146 16.1958 18.146 13.9364V4.11825C18.146 1.85891 16.322 0.0273438 14.072 0.0273438Z" fill="#5F82A6"/>
<path class="primary" d="M6.54823 3.28308H6.19257C6.02106 3.28308 5.85658 3.21466 5.7353 3.09289C5.61403 2.97111 5.5459 2.80594 5.5459 2.63373C5.5459 2.46151 5.61403 2.29634 5.7353 2.17457C5.85658 2.05279 6.02106 1.98437 6.19257 1.98438H6.54823C6.71974 1.98438 6.88422 2.05279 7.0055 2.17457C7.12677 2.29634 7.1949 2.46151 7.1949 2.63373C7.1949 2.80594 7.12677 2.97111 7.0055 3.09289C6.88422 3.21466 6.71974 3.28308 6.54823 3.28308Z" fill="#333750"/>
<path class="primary" d="M9.28358 4.16979H8.92792C8.75641 4.16979 8.59193 4.10138 8.47065 3.9796C8.34938 3.85783 8.28125 3.69266 8.28125 3.52044C8.28125 3.34823 8.34938 3.18306 8.47065 3.06128C8.59193 2.93951 8.75641 2.87109 8.92792 2.87109H9.28358C9.45509 2.87109 9.61957 2.93951 9.74085 3.06128C9.86212 3.18306 9.93025 3.34823 9.93025 3.52044C9.93025 3.69266 9.86212 3.85783 9.74085 3.9796C9.61957 4.10138 9.45509 4.16979 9.28358 4.16979Z" fill="#333750"/>
<path class="primary" d="M11.9771 3.12683H11.6247C11.4532 3.12683 11.2887 3.05841 11.1674 2.93664C11.0462 2.81486 10.978 2.64969 10.978 2.47748C10.978 2.30526 11.0462 2.14009 11.1674 2.01832C11.2887 1.89654 11.4532 1.82812 11.6247 1.82812H11.9804C12.1519 1.82812 12.3164 1.89654 12.4376 2.01832C12.5589 2.14009 12.627 2.30526 12.627 2.47748C12.627 2.64969 12.5589 2.81486 12.4376 2.93664C12.3164 3.05841 12.1519 3.12683 11.9804 3.12683H11.9771Z" fill="#333750"/>
<path class="primary" d="M9.54823 16.0448H9.19257C9.02106 16.0448 8.85658 15.9764 8.7353 15.8546C8.61403 15.7328 8.5459 15.5677 8.5459 15.3954C8.5459 15.2232 8.61403 15.0581 8.7353 14.9363C8.85658 14.8145 9.02106 14.7461 9.19257 14.7461H9.54823C9.71974 14.7461 9.88422 14.8145 10.0055 14.9363C10.1268 15.0581 10.1949 15.2232 10.1949 15.3954C10.1949 15.5677 10.1268 15.7328 10.0055 15.8546C9.88422 15.9764 9.71974 16.0448 9.54823 16.0448Z" fill="#333750"/>
<path d="M13.4996 5.42578H9.22189H4.9458L7.08304 9.14494L7.96897 10.6839V13.0638H10.4748V10.6839L11.3607 9.14494L13.4996 5.42578Z" stroke="white" stroke-width="1.22655" stroke-linecap="round" stroke-linejoin="round"/>
</svg>
