<svg width="15" height="15" viewBox="0 0 15 15" fill="none" xmlns="http://www.w3.org/2000/svg">
<path class="secondary" d="M10.9773 0.0273438H3.31467C1.56466 0.0273438 0.145996 1.45189 0.145996 3.20916V10.8455C0.145996 12.6028 1.56466 14.0273 3.31467 14.0273H10.9773C12.7273 14.0273 14.146 12.6028 14.146 10.8455V3.20916C14.146 1.45189 12.7273 0.0273438 10.9773 0.0273438Z" fill="#5F82A6"/>
<path class="primary" d="M11.9419 3.42416H2.3516C2.2182 3.42416 2.09027 3.37095 1.99595 3.27624C1.90162 3.18152 1.84863 3.05306 1.84863 2.91911C1.84863 2.78517 1.90162 2.6567 1.99595 2.56199C2.09027 2.46727 2.2182 2.41406 2.3516 2.41406H11.9419C12.0753 2.41406 12.2032 2.46727 12.2975 2.56199C12.3918 2.6567 12.4448 2.78517 12.4448 2.91911C12.4448 3.05306 12.3918 3.18152 12.2975 3.27624C12.2032 3.37095 12.0753 3.42416 11.9419 3.42416Z" fill="#333750"/>
<path d="M11.9419 8.33041H2.3516C2.2182 8.33041 2.09027 8.2772 1.99595 8.18249C1.90162 8.08777 1.84863 7.95931 1.84863 7.82536C1.84863 7.69142 1.90162 7.56295 1.99595 7.46824C2.09027 7.37352 2.2182 7.32031 2.3516 7.32031H11.9419C12.0753 7.32031 12.2032 7.37352 12.2975 7.46824C12.3918 7.56295 12.4448 7.69142 12.4448 7.82536C12.4448 7.95931 12.3918 8.08777 12.2975 8.18249C12.2032 8.2772 12.0753 8.33041 11.9419 8.33041Z" fill="white"/>
<path d="M6.72845 5.87729H2.34134C2.20795 5.87729 2.08002 5.82408 1.98569 5.72936C1.89137 5.63465 1.83838 5.50619 1.83838 5.37224C1.83838 5.23829 1.89137 5.10983 1.98569 5.01511C2.08002 4.9204 2.20795 4.86719 2.34134 4.86719H6.72845C6.86184 4.86719 6.98977 4.9204 7.0841 5.01511C7.17842 5.10983 7.23141 5.23829 7.23141 5.37224C7.23141 5.50619 7.17842 5.63465 7.0841 5.72936C6.98977 5.82408 6.86184 5.87729 6.72845 5.87729Z" fill="white"/>
<path d="M11.8849 10.7796H7.49906C7.36566 10.7796 7.23773 10.7264 7.14341 10.6317C7.04909 10.537 6.99609 10.4085 6.99609 10.2746C6.99609 10.1406 7.04909 10.0122 7.14341 9.91746C7.23773 9.82274 7.36566 9.76953 7.49906 9.76953H11.8849C12.0183 9.76953 12.1462 9.82274 12.2406 9.91746C12.3349 10.0122 12.3879 10.1406 12.3879 10.2746C12.3879 10.4085 12.3349 10.537 12.2406 10.6317C12.1462 10.7264 12.0183 10.7796 11.8849 10.7796Z" fill="white"/>
</svg>
