<svg width="18" height="19" viewBox="0 0 18 19" fill="none" xmlns="http://www.w3.org/2000/svg">
<path class="secondary" fill-rule="evenodd" clip-rule="evenodd" d="M2 0.556641C0.89543 0.556641 0 1.45207 0 2.55664V16.5566C0 17.6612 0.895431 18.5566 2 18.5566H16C17.1046 18.5566 18 17.6612 18 16.5566V2.55664C18 1.45207 17.1046 0.556641 16 0.556641H2Z" fill="#5F81A6"/>
<path d="M15.3739 12.8931H2.62612C2.28019 12.8931 2 12.6117 2 12.2644V4.18536C2 3.83799 2.28019 3.55664 2.62612 3.55664H15.3739C15.7198 3.55664 16 3.83799 16 4.18536V12.2628C16 12.6117 15.7198 12.8931 15.3739 12.8931ZM3.25224 11.6356H14.7478V4.81407H3.25224V11.6356Z" fill="white"/>
<path d="M15.2348 10.0055H3.16323C2.8173 10.0055 2.53711 9.72413 2.53711 9.37676C2.53711 9.0294 2.8173 8.74805 3.16323 8.74805H15.2348C15.5807 8.74805 15.8609 9.0294 15.8609 9.37676C15.8609 9.72413 15.5807 10.0055 15.2348 10.0055Z" fill="white"/>
<path d="M5.89766 7.79259H4.54995C4.20402 7.79259 3.92383 7.51124 3.92383 7.16387C3.92383 6.81651 4.20402 6.53516 4.54995 6.53516H5.89766C6.24359 6.53516 6.52378 6.81651 6.52378 7.16387C6.52378 7.51124 6.24359 7.79259 5.89766 7.79259Z" fill="white"/>
<path class="primary" d="M9 16.5566C10.6569 16.5566 12 15.2135 12 13.5566C12 11.8998 10.6569 10.5566 9 10.5566C7.34315 10.5566 6 11.8998 6 13.5566C6 15.2135 7.34315 16.5566 9 16.5566Z" fill="#333750"/>
<path d="M9.00014 15.8111C8.65421 15.8111 8.37402 15.5298 8.37402 15.1824V11.5799C8.37402 11.2325 8.65421 10.9512 9.00014 10.9512C9.34607 10.9512 9.62626 11.2325 9.62626 11.5799V15.1824C9.62626 15.5298 9.34607 15.8111 9.00014 15.8111Z" fill="white"/>
<path d="M10.7939 14.0094H7.2062C6.86027 14.0094 6.58008 13.728 6.58008 13.3807C6.58008 13.0333 6.86027 12.752 7.2062 12.752H10.7939C11.1398 12.752 11.42 13.0333 11.42 13.3807C11.42 13.728 11.1398 14.0094 10.7939 14.0094Z" fill="white"/>
</svg>
