<svg width="25" height="25" viewBox="0 0 25 25" fill="none" xmlns="http://www.w3.org/2000/svg">
<path fill-rule="evenodd" clip-rule="evenodd" d="M19.9009 4.05267L19.9009 16.7325C19.9009 17.1144 19.6017 17.3926 19.2709 17.3926L11.5309 17.3926C11.2001 17.3926 10.9009 17.1144 10.9009 16.7325L10.9009 4.05267C10.9009 3.67079 11.2001 3.39258 11.5309 3.39258L19.2709 3.39258C19.6017 3.39258 19.9009 3.67079 19.9009 4.05267ZM20.9009 16.7325L20.9009 4.05267C20.9009 3.13583 20.1711 2.39258 19.2709 2.39258L11.5309 2.39258C10.6307 2.39258 9.90088 3.13582 9.90088 4.05267L9.90088 16.7325C9.90088 17.6493 10.6307 18.3926 11.5309 18.3926L19.2709 18.3926C20.1711 18.3926 20.9009 17.6493 20.9009 16.7325ZM14.931 19.3926L14.931 20.7626C14.9311 20.9277 14.8663 21.0863 14.7506 21.2042C14.6366 21.3203 14.4822 21.3877 14.3197 21.3926L6.58183 21.3926L6.57262 21.3927C6.48892 21.3943 6.40575 21.3791 6.32797 21.3481C6.2502 21.3172 6.17937 21.271 6.11963 21.2124C6.0599 21.1537 6.01245 21.0837 5.98007 21.0065C5.94769 20.9293 5.93102 20.8463 5.93103 20.7626L5.93103 8.31256C5.93103 8.14547 5.9974 7.98523 6.11555 7.86708C6.2337 7.74893 6.39394 7.68256 6.56103 7.68256L8.93103 7.68256L8.93103 6.68256L6.56103 6.68256C6.12873 6.68256 5.71413 6.85429 5.40845 7.15997C5.10276 7.46566 4.93103 7.88025 4.93103 8.31256L4.93103 20.7626C4.93099 20.9792 4.97413 21.1936 5.05791 21.3933C5.1417 21.5931 5.26445 21.7741 5.419 21.9259C5.57356 22.0776 5.7568 22.1971 5.95804 22.2772C6.15928 22.3573 6.37446 22.3965 6.59103 22.3926L14.331 22.3926C14.7581 22.3847 15.165 22.2095 15.4643 21.9047C15.7635 21.5998 15.9311 21.1897 15.931 20.7626L15.931 19.3926L14.931 19.3926Z" fill="#333750"/>
</svg>
