<svg width="43" height="44" viewBox="0 0 43 44" fill="none" xmlns="http://www.w3.org/2000/svg">
<path fill-rule="evenodd" clip-rule="evenodd" d="M31.5978 0.931032C34.0206 1.43567 36.263 2.60561 38.0839 4.31507C39.9048 6.02453 41.2354 8.20887 41.9327 10.6333C42.5786 12.8562 42.6747 15.208 42.2121 17.4801C41.5433 20.5929 39.8604 23.3815 37.4387 25.3895C35.0171 27.3975 32.0002 28.5059 28.8819 28.5332C27.566 28.5332 26.2561 28.3398 24.9973 27.9499L22.5938 30.8298L21.4552 31.3671H18.526V35.9726L17.0238 37.5078H12.5173V42.1133L11.0151 43.6484H2.00216L0.5 42.1133V35.03L0.938632 33.9462L15.8821 18.6744C15.4581 17.2784 15.2552 15.8221 15.2813 14.3606C15.3087 12.3159 15.7771 10.3025 16.6532 8.46402C17.5292 6.62552 18.7914 5.00716 20.3496 3.72432C21.9079 2.44148 23.7239 1.52574 25.6681 1.04239C27.6124 0.559031 29.637 0.519961 31.5978 0.927962V0.931032ZM35.5575 23.0374C37.4448 21.4755 38.7572 19.305 39.2798 16.8814L39.2919 16.8967C39.6641 15.1245 39.5971 13.2854 39.097 11.5464C38.5969 9.80737 37.6795 8.22364 36.4283 6.93908C35.177 5.65451 33.6315 4.70984 31.9321 4.1909C30.2328 3.67196 28.4335 3.59519 26.6977 3.96758C24.3567 4.49859 22.2568 5.81474 20.7324 7.70649C19.208 9.59823 18.3467 11.9568 18.2856 14.4067C18.2556 15.8067 18.4959 17.1945 19.0036 18.4902L18.6732 20.1574L3.50433 35.6656V40.5781H9.51298V35.9726L11.0151 34.4375H15.5216V29.832L17.0238 28.2968H20.7642L23.396 25.1774L25.0814 24.7475C26.2963 25.2327 27.5895 25.4806 28.8939 25.4783C31.3215 25.4592 33.6708 24.5987 35.5575 23.0374V23.0374ZM33.0399 14.6492C33.2767 14.3147 33.4452 13.9348 33.535 13.5322C33.6249 13.1297 33.6344 12.7127 33.563 12.3063C33.4915 11.8999 33.3406 11.5124 33.1192 11.1669C32.8979 10.8215 32.6106 10.5253 32.2746 10.296C31.9386 10.0666 31.5608 9.90891 31.1638 9.83225C30.7667 9.75559 30.3587 9.76156 29.964 9.8498C29.5692 9.93805 29.196 10.1068 28.8666 10.3458C28.5371 10.5849 28.2583 10.8894 28.0467 11.2412C27.6396 11.9178 27.505 12.7294 27.6711 13.5053C27.8372 14.2813 28.2911 14.9613 28.9374 15.4024C29.5838 15.8436 30.3722 16.0116 31.1372 15.8711C31.9022 15.7307 32.5842 15.2927 33.0399 14.6492V14.6492Z" fill="white" stroke="#323751" stroke-width="0.2"/>
</svg>
