<svg width="40" height="40" viewBox="0 0 40 40" fill="none" xmlns="http://www.w3.org/2000/svg">
<path class="secondary" fill-rule="evenodd" clip-rule="evenodd" d="M15.9835 10.6334C15.9835 12.7965 14.2299 14.55 12.0668 14.55C9.90372 14.55 8.15017 12.7965 8.15017 10.6334C8.15017 8.47027 9.90372 6.71672 12.0668 6.71672C14.2299 6.71672 15.9835 8.47027 15.9835 10.6334ZM12.0668 16.2167C15.1504 16.2167 17.6502 13.717 17.6502 10.6334C17.6502 7.54979 15.1504 5.05005 12.0668 5.05005C8.98324 5.05005 6.4835 7.54979 6.4835 10.6334C6.4835 13.717 8.98324 16.2167 12.0668 16.2167ZM4.88346 26.2499C4.88346 24.3448 5.64028 22.5177 6.98741 21.1705C8.33455 19.8234 10.1617 19.0666 12.0668 19.0666C13.9719 19.0666 15.799 19.8234 17.1462 21.1705C18.4933 22.5177 19.2501 24.3448 19.2501 26.2499H20.9168C20.9168 23.9027 19.9844 21.6517 18.3247 19.992C16.665 18.3323 14.414 17.3999 12.0668 17.3999C9.71963 17.3999 7.4686 18.3323 5.8089 19.992C4.14921 21.6517 3.2168 23.9027 3.2168 26.2499H4.88346ZM23.6877 8.92741L36.1562 17.2709L35.2293 18.656L22.7608 10.3126L23.6877 8.92741ZM35.8705 22.2371L29.1846 22.2076L29.1846 22.2012L27.518 22.1989L27.518 22.2002L22.9038 22.1798L22.8965 23.8464L27.5156 23.8669L27.5013 34.1667H21.5081L21.5501 30.025L19.8835 30.0081L19.8414 34.1667H17.7335V30H16.0668V34.1667H14.6002C14.3747 34.1667 14.1515 34.1223 13.9432 34.036C13.7349 33.9497 13.5457 33.8233 13.3863 33.6639C13.2269 33.5045 13.1004 33.3152 13.0142 33.1069C12.9279 32.8987 12.8835 32.6754 12.8835 32.45V30H11.2168V32.45C11.2168 32.8943 11.3043 33.3343 11.4744 33.7447C11.6444 34.1552 11.8936 34.5282 12.2078 34.8424C12.522 35.1566 12.8949 35.4058 13.3054 35.5758C13.7159 35.7458 14.1559 35.8333 14.6002 35.8333H32.3668C32.5264 35.8333 32.6847 35.822 32.8409 35.7998H32.9835V35.7764C33.6471 35.6527 34.2634 35.3313 34.7474 34.8473C35.3788 34.2159 35.7335 33.3596 35.7335 32.4667V28.3333H34.0668V32.4667C34.0668 32.9175 33.8877 33.3499 33.5689 33.6687C33.4007 33.8369 33.2009 33.9662 32.9835 34.0509V23.8911L35.8631 23.9038L35.8705 22.2371ZM31.3168 34.1667H29.1679L29.1823 23.8742L31.3168 23.8837V34.1667ZM24.75 13.8763L24.769 13.8841C25.1633 14.0489 25.5001 14.3266 25.737 14.6823C25.9739 15.038 26.1003 15.4558 26.1003 15.8831L24.4337 15.8833C24.4337 15.7846 24.4045 15.6882 24.3498 15.6061C24.2952 15.5241 24.2174 15.46 24.1264 15.422C24.0354 15.3839 23.9352 15.3737 23.8384 15.3925C23.7416 15.4113 23.6525 15.4583 23.5823 15.5276C23.5122 15.5969 23.4641 15.6854 23.4441 15.7819C23.4241 15.8785 23.4331 15.9788 23.47 16.0703C23.5069 16.1618 23.57 16.2403 23.6514 16.296C23.7306 16.3502 23.8237 16.3804 23.9195 16.3831C24.3479 16.3804 24.7677 16.5038 25.1265 16.738C25.4891 16.9746 25.7732 17.3137 25.9426 17.7122C26.1119 18.1106 26.159 18.5505 26.0779 18.9757C25.9967 19.401 25.7909 19.7926 25.4867 20.1006C25.2762 20.3137 25.0252 20.4802 24.75 20.5912V21.0166H23.0833V20.5775C22.6917 20.412 22.3568 20.1357 22.1198 19.7823C21.8787 19.4227 21.75 18.9995 21.7499 18.5666L23.4166 18.5664C23.4166 18.6689 23.4471 18.769 23.5041 18.8541C23.5612 18.9392 23.6423 19.0054 23.737 19.0443C23.8318 19.0833 23.936 19.0931 24.0364 19.0727C24.1368 19.0522 24.2289 19.0023 24.3009 18.9295C24.3728 18.8566 24.4215 18.7639 24.4408 18.6633C24.46 18.5626 24.4488 18.4585 24.4087 18.3642C24.3686 18.27 24.3014 18.1897 24.2156 18.1337C24.1298 18.0777 24.0293 18.0485 23.9269 18.0498L23.9168 17.2335L23.9066 18.0498C23.4793 18.0445 23.0631 17.9129 22.7103 17.6716C22.3576 17.4303 22.0841 17.09 21.9243 16.6937C21.7644 16.2973 21.7254 15.8626 21.812 15.4441C21.8986 15.0256 22.1071 14.6421 22.4112 14.3418C22.6058 14.1495 22.8341 13.9968 23.0833 13.8905V13.4501H24.75V13.8763Z" fill="#5F82A6"/>
</svg>
