<svg width="30" height="32" viewBox="0 0 30 32" fill="none" xmlns="http://www.w3.org/2000/svg">
<path class="secondary" d="M16.5881 12.9633C16.4159 12.8923 16.2391 12.8351 16.0594 12.7919L16.0349 11.2698L14.3769 11.2965L14.401 12.7882C13.7503 12.9416 13.1547 13.2742 12.6823 13.7494C12.1822 14.2525 11.8428 14.8927 11.7071 15.5889C11.5713 16.2851 11.6453 17.0059 11.9197 17.66C12.1941 18.314 12.6566 18.8719 13.2484 19.2628C13.8402 19.6538 14.5348 19.8602 15.2441 19.8559C15.6228 19.8569 15.9928 19.9696 16.3077 20.1801C16.624 20.3914 16.8706 20.6918 17.0162 21.0433C17.1617 21.3948 17.1998 21.7815 17.1256 22.1546C17.0514 22.5277 16.8682 22.8705 16.5992 23.1395C16.3302 23.4085 15.9875 23.5917 15.6144 23.6659C15.2412 23.7401 14.8545 23.702 14.503 23.5564C14.1516 23.4108 13.8512 23.1643 13.6398 22.848C13.4284 22.5317 13.3156 22.1598 13.3156 21.7794H11.6575C11.6575 22.4878 11.8675 23.1802 12.2611 23.7692C12.6546 24.3582 13.214 24.8173 13.8685 25.0884C14.0374 25.1584 14.2108 25.215 14.3869 25.2582L14.4101 26.8324L16.0681 26.808L16.0454 25.2691C16.6984 25.1182 17.2968 24.7869 17.7717 24.312C18.2726 23.8111 18.6137 23.1729 18.7519 22.4781C18.8901 21.7833 18.8192 21.0632 18.5481 20.4087C18.277 19.7543 17.8179 19.1949 17.2289 18.8014C16.64 18.4078 15.9475 18.1977 15.2391 18.1977V19.0292L15.2341 18.1978C14.8532 18.2001 14.4802 18.0892 14.1623 17.8793C13.8445 17.6693 13.5962 17.3697 13.4488 17.0185C13.3014 16.6672 13.2617 16.2801 13.3346 15.9062C13.4075 15.5324 13.5898 15.1886 13.8583 14.9184C14.1268 14.6482 14.4695 14.4639 14.843 14.3887C15.2164 14.3136 15.6037 14.351 15.9559 14.4962C16.308 14.6414 16.6091 14.888 16.821 15.2045C17.0329 15.5211 17.146 15.8934 17.146 16.2743L18.8041 16.2743C18.8041 15.565 18.5935 14.8717 18.199 14.2822C17.8045 13.6928 17.2438 13.2337 16.5881 12.9633Z" fill="#323751"/>
<path class="secondary" fill-rule="evenodd" clip-rule="evenodd" d="M14.0678 0.787288C14.3141 0.600876 14.6145 0.5 14.9235 0.5C15.2324 0.5 15.5328 0.600876 15.7792 0.787288L15.8089 0.809801L20.001 4.56823L18.8028 5.9047L14.9235 2.42669L11.0441 5.9047L9.84591 4.56823L14.038 0.809801L14.0678 0.787288Z" fill="#323751"/>
<path class="secondary" fill-rule="evenodd" clip-rule="evenodd" d="M27.1266 13.3376C26.3147 10.9283 24.7439 8.82618 22.6351 7.32658L23.7272 5.88489C26.147 7.60567 27.9495 10.0179 28.8812 12.7825C29.8129 15.5471 29.8271 18.5251 28.9217 21.2979C28.0163 24.0707 26.2369 26.4989 23.8336 28.2412C21.4302 29.9835 18.5238 30.9524 15.5228 31.0115C12.5218 31.0706 9.57714 30.2171 7.10267 28.5709C4.6282 26.9248 2.74836 24.5687 1.72735 21.8338C0.706352 19.099 0.595529 16.1229 1.41046 13.3238C2.2254 10.5248 3.92511 8.04358 6.27071 6.2289L7.42239 7.62637C5.37829 9.2078 3.89704 11.3701 3.18686 13.8094C2.47667 16.2486 2.57325 18.8422 3.46302 21.2255C4.35278 23.6088 5.99101 25.6621 8.14742 27.0967C10.3038 28.5313 12.87 29.2751 15.4853 29.2236C18.1005 29.172 20.6334 28.3277 22.7278 26.8094C24.8222 25.291 26.3729 23.1749 27.1619 20.7585C27.951 18.3421 27.9386 15.7469 27.1266 13.3376Z" fill="#323751"/>
<path class="secondary" fill-rule="evenodd" clip-rule="evenodd" d="M15.8119 1.30304L15.8299 7.80081L14.0349 7.80577L14.017 1.308L15.8119 1.30304Z" fill="#323751"/>
</svg>
