<svg width="12" height="26" viewBox="0 0 12 26" fill="none" xmlns="http://www.w3.org/2000/svg">
<path class="primary" d="M11.8516 4.66016L1.86426 4.66016L1.86426 3.01269L9.89648 3.0127L9.06934 0.572265L10.4297 0.572265L11.8516 4.46191L11.8516 4.66016ZM3.17676 14.791L1.86426 14.791L1.86426 8.11914L2.99219 8.11914L6.52637 11.3594C6.92741 11.7148 7.27376 11.9951 7.56543 12.2002C7.8571 12.4053 8.11914 12.5488 8.35156 12.6309C8.58854 12.7174 8.81868 12.7607 9.04199 12.7607C9.35644 12.7607 9.63216 12.7015 9.86914 12.583C10.1107 12.4691 10.2998 12.3005 10.4365 12.0771C10.5778 11.8538 10.6484 11.5827 10.6484 11.2637C10.6484 10.8945 10.5687 10.5846 10.4092 10.334C10.2497 10.0833 10.0286 9.89421 9.74609 9.7666C9.4681 9.639 9.14909 9.5752 8.78906 9.5752L8.78906 7.92773C9.36784 7.92773 9.89648 8.0599 10.375 8.32422C10.8581 8.58854 11.2409 8.97135 11.5234 9.47266C11.8105 9.97396 11.9541 10.5778 11.9541 11.2842C11.9541 11.9495 11.8424 12.5146 11.6191 12.9795C11.3958 13.4443 11.0791 13.7975 10.6689 14.0391C10.2588 14.2852 9.77344 14.4082 9.21289 14.4082C8.90299 14.4082 8.59538 14.3581 8.29004 14.2578C7.9847 14.1576 7.67936 14.014 7.37402 13.8271C7.07324 13.6449 6.77018 13.4284 6.46484 13.1777C6.16406 12.9271 5.85872 12.6514 5.54883 12.3506L3.17676 10.1973L3.17676 14.791ZM7.58594 18.0107L7.58594 18.9951C7.58594 19.3779 7.65202 19.6947 7.78418 19.9453C7.91634 20.2005 8.09863 20.3896 8.33105 20.5127C8.56348 20.6357 8.83008 20.6973 9.13086 20.6973C9.44531 20.6973 9.71419 20.6403 9.9375 20.5264C10.1654 20.417 10.3408 20.2484 10.4639 20.0205C10.5869 19.7972 10.6484 19.5124 10.6484 19.166C10.6484 18.8743 10.5892 18.61 10.4707 18.373C10.3568 18.1406 10.1927 17.9561 9.97851 17.8193C9.76888 17.6826 9.51823 17.6143 9.22656 17.6143L9.22656 15.96C9.75521 15.96 10.2246 16.099 10.6348 16.377C11.0449 16.6549 11.3662 17.0332 11.5986 17.5117C11.8356 17.9948 11.9541 18.5371 11.9541 19.1387C11.9541 19.7812 11.847 20.3418 11.6328 20.8203C11.4232 21.3034 11.1087 21.6794 10.6895 21.9482C10.2702 22.2171 9.75065 22.3516 9.13086 22.3516C8.84831 22.3516 8.5612 22.2855 8.26953 22.1533C7.97786 22.0212 7.71126 21.8252 7.46973 21.5654C7.23275 21.3057 7.03906 20.9821 6.88867 20.5947C6.74284 20.2074 6.66992 19.7585 6.66992 19.248L6.66992 18.0107L7.58594 18.0107ZM6.30078 18.0107L7.20312 18.0107L7.20312 19.248C7.20312 19.8314 7.13476 20.3281 6.99805 20.7383C6.86133 21.153 6.6722 21.4902 6.43066 21.75C6.19368 22.0098 5.92253 22.1989 5.61719 22.3174C5.31185 22.4404 4.98828 22.502 4.64648 22.502C4.18164 22.502 3.76693 22.4176 3.40234 22.249C3.04232 22.085 2.73698 21.8503 2.48633 21.5449C2.23568 21.2396 2.04655 20.8818 1.91894 20.4717C1.79134 20.0661 1.72754 19.624 1.72754 19.1455C1.72754 18.7171 1.78678 18.307 1.90527 17.915C2.02376 17.5231 2.19922 17.1722 2.43164 16.8623C2.66862 16.5524 2.96256 16.3063 3.31348 16.124C3.66894 15.9463 4.0791 15.8574 4.54394 15.8574L4.54394 17.5049C4.24772 17.5049 3.98568 17.5732 3.75781 17.71C3.5345 17.8512 3.35905 18.0472 3.23144 18.2979C3.10384 18.5531 3.04004 18.8447 3.04004 19.1729C3.04004 19.5192 3.10156 19.8177 3.22461 20.0684C3.34766 20.319 3.52995 20.5104 3.77148 20.6426C4.01302 20.7793 4.30469 20.8477 4.64648 20.8477C5.03385 20.8477 5.34831 20.7725 5.58984 20.6221C5.83138 20.4717 6.00911 20.2575 6.12305 19.9795C6.24154 19.7015 6.30078 19.3734 6.30078 18.9951L6.30078 18.0107ZM11.8174 25.5781L0.0185535 25.5781L0.0185536 24.4775L11.8174 24.4775L11.8174 25.5781Z" fill="#323751"/>
</svg>
