<svg width="24" height="39" viewBox="0 0 24 39" fill="none" xmlns="http://www.w3.org/2000/svg">
<path d="M11.7717 28.619C17.1183 28.619 21.4526 24.3648 21.4526 19.1171C21.4526 13.8694 17.1183 9.61523 11.7717 9.61523C6.4251 9.61523 2.09082 13.8694 2.09082 19.1171C2.09082 24.3648 6.4251 28.619 11.7717 28.619Z" fill="#F6F6F6"/>
<path class="secondary" d="M15.1512 4.44618H7.41791C5.53233 4.44618 4 2.94218 4 1.09147C4 0.70259 4.31983 0.388672 4.71604 0.388672C5.11225 0.388672 5.43208 0.70259 5.43208 1.09147C5.43208 2.16442 6.32475 3.04057 7.41791 3.04057H15.1512C16.2443 3.04057 17.137 2.16442 17.137 1.09147C17.137 0.70259 17.4568 0.388672 17.853 0.388672C18.2492 0.388672 18.5691 0.70259 18.5691 1.09147C18.5691 2.9375 17.0367 4.44618 15.1512 4.44618Z" fill="#5F82A6"/>
<path class="secondary" d="M18.2734 38.4567H5.26529C2.36294 38.4567 0 36.1374 0 33.2887C0 32.8999 0.319832 32.5859 0.716042 32.5859C1.11225 32.5859 1.43208 32.8999 1.43208 33.2887C1.43208 35.3643 3.15058 37.0511 5.26529 37.0511H18.2782C20.3929 37.0511 22.1114 35.3643 22.1114 33.2887C22.1114 32.8999 22.4312 32.5859 22.8274 32.5859C23.2236 32.5859 23.5435 32.8999 23.5435 33.2887C23.5387 36.1374 21.1757 38.4567 18.2734 38.4567Z" fill="#333750"/>
<path class="secondary" d="M11.7664 36.5695C10.5396 36.5695 9.53711 35.5902 9.53711 34.3814C9.53711 33.1726 10.5348 32.1934 11.7664 32.1934C12.998 32.1934 13.9957 33.1726 13.9957 34.3814C13.9957 35.5902 12.998 36.5695 11.7664 36.5695ZM11.7664 33.599C11.3272 33.599 10.9692 33.9504 10.9692 34.3814C10.9692 34.8125 11.3272 35.1639 11.7664 35.1639C12.2056 35.1639 12.5636 34.8125 12.5636 34.3814C12.5636 33.9504 12.2056 33.599 11.7664 33.599Z" fill="#5F82A6"/>
<path class="secondary" d="M20.0683 32.1321H3.47042C1.5562 32.1321 0 30.6046 0 28.7258V26.1582C0 25.7694 0.319832 25.4554 0.716042 25.4554C1.11225 25.4554 1.43208 25.7694 1.43208 26.1582V28.7258C1.43208 29.8269 2.34384 30.7265 3.47042 30.7265H20.073C21.1948 30.7265 22.1114 29.8316 22.1114 28.7258V3.40624C22.1114 2.30519 21.1996 1.4056 20.073 1.4056H3.47042C2.34862 1.4056 1.43208 2.3005 1.43208 3.40624V11.3432C1.43208 11.7321 1.11225 12.046 0.716042 12.046C0.319832 12.046 0 11.7321 0 11.3432V3.40624C0 1.52742 1.5562 0 3.47042 0H20.073C21.9873 0 23.5435 1.52742 23.5435 3.40624V28.7305C23.5387 30.6046 21.9825 32.1321 20.0683 32.1321Z" fill="#5F82A6"/>
<path class="secondary" d="M11.5 18C9.56987 18 8 16.4301 8 14.5C8 12.5699 9.56987 11 11.5 11C13.4301 11 15 12.5699 15 14.5C15 16.4301 13.4301 18 11.5 18ZM11.5 11.7134C9.96353 11.7134 8.71575 12.9635 8.71575 14.4976C8.71575 16.0341 9.96592 17.2819 11.5 17.2819C13.0365 17.2819 14.2843 16.0317 14.2843 14.4976C14.2843 12.9635 13.0365 11.7134 11.5 11.7134Z" fill="#5F82A6"/>
<path class="secondary" d="M17.6304 25C17.4259 25 17.2608 24.8558 17.2608 24.6772C17.2608 21.9032 14.6761 19.6456 11.5 19.6456C8.32392 19.6456 5.7392 21.9032 5.7392 24.6772C5.7392 24.8558 5.57411 25 5.3696 25C5.16509 25 5 24.8558 5 24.6772C5 21.5481 7.9149 19 11.5 19C15.0851 19 18 21.5459 18 24.6772C18 24.8558 17.8324 25 17.6304 25Z" fill="#5F82A6"/>
</svg>
