<svg width="50" height="40" viewBox="0 0 40 40" fill="none" xmlns="http://www.w3.org/2000/svg">
<path class="secondary" fill-rule="evenodd" clip-rule="evenodd" d="M30.3997 7.38326V9.99993H28.7331V7.39895C28.7198 6.78515 28.4667 6.20073 28.0279 5.77094C27.5862 5.33836 26.9918 5.09727 26.3735 5.09992L26.3664 5.09995L25.6229 5.09995C25.6023 5.15298 25.5798 5.20534 25.5555 5.25691C25.4185 5.54637 25.2247 5.80527 24.9855 6.01816C24.7463 6.23104 24.4667 6.39354 24.1633 6.49596C23.871 6.59462 23.5624 6.63557 23.2547 6.61665H17.6447C17.3371 6.63557 17.0285 6.59462 16.7362 6.49596C16.4328 6.39354 16.1532 6.23104 15.914 6.01816C15.6748 5.80527 15.4809 5.54637 15.344 5.25691C15.3196 5.20533 15.2971 5.15297 15.2765 5.09993L14.3163 5.09993C14.0184 5.09991 13.7234 5.15904 13.4485 5.27391C13.1737 5.38877 12.9243 5.55708 12.715 5.76906C12.5057 5.98105 12.3406 6.23249 12.2292 6.50879C12.1179 6.7851 12.0625 7.08077 12.0663 7.37865L12.0664 7.39993L12.0663 32.6045C12.0625 32.9037 12.118 33.2008 12.2296 33.4785C12.3412 33.7562 12.5067 34.0091 12.7165 34.2225C12.9263 34.4359 13.1764 34.6056 13.4522 34.7219C13.7269 34.8378 14.0219 34.8983 14.3201 34.8999H26.3665C26.9892 34.9 27.5867 34.6547 28.0297 34.2172C28.4706 33.7818 28.723 33.1909 28.7331 32.5716V26.6667H26.4997L24.5664 30L22.6497 26.6667H15.5997C15.1075 26.6667 14.6352 26.4723 14.2856 26.1258C13.936 25.7794 13.7374 25.3088 13.733 24.8167V11.8833C13.7308 11.6368 13.7775 11.3923 13.8703 11.1639C13.9631 10.9355 14.1003 10.7277 14.2738 10.5526C14.4474 10.3775 14.6539 10.2385 14.8815 10.1437C15.109 10.0488 15.3532 9.99999 15.5997 10H33.5497C34.0403 10 34.5109 10.1949 34.8578 10.5419C35.2048 10.8888 35.3997 11.3593 35.3997 11.85V13.5167H33.733V11.85C33.733 11.8014 33.7137 11.7547 33.6793 11.7204C33.6449 11.686 33.5983 11.6667 33.5497 11.6667H15.5996C15.5732 11.6667 15.5471 11.6719 15.5227 11.6821C15.4983 11.6922 15.4762 11.7071 15.4576 11.7259C15.439 11.7446 15.4243 11.7669 15.4143 11.7914C15.4044 11.8158 15.3994 11.842 15.3996 11.8685L15.3997 11.8833V24.8055C15.4011 24.8569 15.4222 24.9058 15.4588 24.9421C15.4963 24.9792 15.547 25 15.5997 25H23.6139L24.5726 26.6673L25.5396 25H33.55C33.598 25 33.6442 24.9811 33.6784 24.9475C33.7127 24.9138 33.7324 24.868 33.7333 24.82L33.7633 23.1536L35.3997 23.1831V24.85C35.391 25.3349 35.1922 25.7969 34.8462 26.1367C34.5002 26.4764 34.0346 26.6667 33.5497 26.6667H30.3997V32.5833C30.3866 33.6443 29.9558 34.6574 29.2009 35.403C28.4459 36.1486 27.4275 36.5667 26.3664 36.5666H14.3164C13.797 36.5644 13.2832 36.4594 12.8047 36.2577C12.3261 36.0559 11.8922 35.7613 11.5281 35.391C11.164 35.0207 10.8768 34.5819 10.6831 34.1C10.4894 33.6181 10.3931 33.1026 10.3997 32.5833V7.39993C10.3931 6.8814 10.4895 6.36671 10.6834 5.88573C10.8773 5.40475 11.1647 4.96706 11.5291 4.59805C11.8934 4.22904 12.3274 3.93606 12.8059 3.73611C13.2844 3.53616 13.7978 3.43322 14.3164 3.43326H26.3664C27.4231 3.42873 28.4391 3.84081 29.194 4.58019C29.949 5.31957 30.3822 6.32668 30.3997 7.38326ZM25.5664 15.2876C25.3929 15.2175 25.2023 15.201 25.0194 15.2406C24.8365 15.2801 24.6696 15.3737 24.5406 15.5092C24.4115 15.6447 24.3261 15.8159 24.2956 16.0006C24.2651 16.1852 24.2907 16.3748 24.3693 16.5446C24.4479 16.7145 24.5757 16.8568 24.7362 16.9531C24.8966 17.0495 25.0824 17.0953 25.2692 17.0847L25.2692 17.0846C25.7897 17.0552 26.3071 17.1828 26.7542 17.4511C27.2012 17.7194 27.5573 18.1159 27.7761 18.5891C27.995 19.0623 28.0665 19.5904 27.9815 20.1047C27.8964 20.6191 27.6586 21.0961 27.2991 21.4736C26.9814 21.8071 26.5817 22.0495 26.1415 22.1773L26.1497 22.8904L24.4831 22.9096L24.4738 22.1037L24.4412 22.0907C23.9579 21.8952 23.5446 21.5589 23.2548 21.1255C22.9651 20.692 22.8123 20.1815 22.8164 19.6601L24.483 19.6732C24.4815 19.8603 24.5364 20.0436 24.6404 20.1992C24.7444 20.3548 24.8928 20.4755 25.0663 20.5457C25.2398 20.6159 25.4304 20.6323 25.6133 20.5928C25.7963 20.5533 25.9631 20.4597 26.0922 20.3242C26.2212 20.1886 26.3066 20.0174 26.3371 19.8328C26.3677 19.6481 26.342 19.4586 26.2634 19.2887C26.1849 19.1188 26.057 18.9765 25.8966 18.8802C25.7361 18.7839 25.5504 18.7381 25.3635 18.7486L25.3635 18.7487C24.843 18.7782 24.3256 18.6505 23.8785 18.3822C23.4315 18.114 23.0754 17.7175 22.8566 17.2443C22.6377 16.7711 22.5662 16.243 22.6513 15.7286C22.7363 15.2142 22.9741 14.7373 23.3337 14.3598C23.6474 14.0303 24.0412 13.7898 24.4751 13.6608L24.4664 12.977L26.133 12.9559L26.1427 13.7235C26.159 13.7297 26.1753 13.7361 26.1915 13.7426C26.6748 13.9381 27.0882 14.2745 27.3779 14.7079C27.6677 15.1413 27.8204 15.6519 27.8163 16.1732L26.1497 16.1602C26.1512 15.973 26.0964 15.7897 25.9923 15.6342C25.8883 15.4786 25.7399 15.3578 25.5664 15.2876ZM15.3997 31.7499H25.3997V33.4165H15.3997V31.7499ZM35.0328 16.1712L33.4328 14.6045L32.2667 15.7953L34.8618 18.3364L33.8652 19.3227L32.2667 20.8878L33.4328 22.0787L35.0328 20.512L36.6359 18.9256C36.7946 18.7685 36.8837 18.5543 36.8831 18.331C36.8825 18.1078 36.7923 17.894 36.6328 17.7378L35.0328 16.1712Z" fill="#5F82A6"/>
</svg>
