<svg width="19" height="18" viewBox="0 0 19 18" fill="none" xmlns="http://www.w3.org/2000/svg">
<path class="secondary" d="M18.25 14.9679L15.7121 17.4853C15.3375 17.8695 14.841 17.9997 14.3574 18.0002C12.2188 17.9362 10.1974 16.8857 8.53766 15.807C5.81332 13.8251 3.31362 11.3675 1.74477 8.39772C1.14305 7.15238 0.437032 5.56341 0.504488 4.17338C0.510503 3.65048 0.651413 3.13728 1.01968 2.80023L3.55748 0.263717C4.08446 -0.184528 4.59409 -0.029548 4.93132 0.492572L6.97299 4.3641C7.18788 4.82276 7.06461 5.31419 6.744 5.64192L5.80902 6.57642C5.7513 6.65549 5.71455 6.74549 5.71362 6.84344C6.07215 8.23127 7.15832 9.51042 8.11784 10.3907C9.07735 11.271 10.1087 12.4637 11.4475 12.746C11.613 12.7922 11.8157 12.8084 11.9341 12.6984L13.0217 11.5922C13.3967 11.308 13.938 11.1691 14.3383 11.4015H14.3574L18.04 13.5756C18.5807 13.9145 18.637 14.5694 18.25 14.9679Z" fill="#5F82A6"/>
</svg>
