<svg width="29" height="46" viewBox="0 0 29 46" fill="none" xmlns="http://www.w3.org/2000/svg">
<path d="M14.4256 34.3345C20.6818 34.3345 25.7534 29.3566 25.7534 23.2161C25.7534 17.0755 20.6818 12.0977 14.4256 12.0977C8.16933 12.0977 3.09766 17.0755 3.09766 23.2161C3.09766 29.3566 8.16933 34.3345 14.4256 34.3345Z" fill="#323751"/>
<path d="M18.3794 6.05054H9.33045C7.12408 6.05054 5.33105 4.29067 5.33105 2.1251C5.33105 1.67006 5.7053 1.30273 6.16892 1.30273C6.63253 1.30273 7.00678 1.67006 7.00678 2.1251C7.00678 3.38059 8.05132 4.4058 9.33045 4.4058H18.3794C19.6585 4.4058 20.703 3.38059 20.703 2.1251C20.703 1.67006 21.0773 1.30273 21.5409 1.30273C22.0045 1.30273 22.3788 1.67006 22.3788 2.1251C22.3788 4.28519 20.5857 6.05054 18.3794 6.05054Z" fill="white"/>
<path d="M22.0326 45.848H6.81147C3.41534 45.848 0.650391 43.1342 0.650391 39.8009C0.650391 39.3458 1.02464 38.9785 1.48825 38.9785C1.95187 38.9785 2.32612 39.3458 2.32612 39.8009C2.32612 42.2296 4.33698 44.2033 6.81147 44.2033H22.0382C24.5127 44.2033 26.5236 42.2296 26.5236 39.8009C26.5236 39.3458 26.8978 38.9785 27.3614 38.9785C27.8251 38.9785 28.1993 39.3458 28.1993 39.8009C28.1937 43.1342 25.4288 45.848 22.0326 45.848Z" fill="white"/>
<path d="M14.4191 43.6382C12.9836 43.6382 11.8105 42.4924 11.8105 41.0779C11.8105 39.6634 12.978 38.5176 14.4191 38.5176C15.8602 38.5176 17.0276 39.6634 17.0276 41.0779C17.0276 42.4924 15.8602 43.6382 14.4191 43.6382ZM14.4191 40.1623C13.9052 40.1623 13.4863 40.5735 13.4863 41.0779C13.4863 41.5823 13.9052 41.9935 14.4191 41.9935C14.933 41.9935 15.3519 41.5823 15.3519 41.0779C15.3519 40.5735 14.933 40.1623 14.4191 40.1623Z" fill="white"/>
<path d="M4.71674 38.4463H24.1384C26.3783 38.4463 28.1992 36.6591 28.1992 34.4606V31.4562C28.1992 31.0012 27.825 30.6338 27.3614 30.6338C26.8977 30.6338 26.5235 31.0012 26.5235 31.4562V34.4606C26.5235 35.749 25.4566 36.8016 24.1384 36.8016H4.71115C3.3985 36.8016 2.32604 35.7545 2.32604 34.4606V4.8334C2.32604 3.54502 3.39291 2.49239 4.71115 2.49239H24.1384C25.451 2.49239 26.5235 3.53954 26.5235 4.8334L26.5235 33.0253C26.5235 33.4803 26.8977 33.8477 27.3614 33.8477C27.825 33.8477 28.1992 33.4803 28.1992 33.0253L28.1992 4.8334C28.1992 2.63494 26.3783 0.847656 24.1384 0.847656H4.71115C2.47127 0.847656 0.650312 2.63494 0.650312 4.8334V34.4661C0.655899 36.6591 2.47685 38.4463 4.71674 38.4463Z" fill="white"/>
<g clip-path="url(#clip0_28060_11754)">
<path d="M6.19336 16.2227V13.5508C6.19336 13.1623 6.50801 12.8477 6.89648 12.8477H9.56836C9.95684 12.8477 10.2715 13.1623 10.2715 13.5508C10.2715 13.9393 9.95684 14.2539 9.56836 14.2539H7.59961V16.2227C7.59961 16.6111 7.28496 16.9258 6.89648 16.9258C6.50801 16.9258 6.19336 16.6111 6.19336 16.2227Z" fill="white"/>
<path d="M23.4902 12.8477H20.8184C20.4299 12.8477 20.1152 13.1623 20.1152 13.5508C20.1152 13.9393 20.4299 14.2539 20.8184 14.2539H22.7871V16.2227C22.7871 16.6111 23.1018 16.9258 23.4902 16.9258C23.8787 16.9258 24.1934 16.6111 24.1934 16.2227V13.5508C24.1934 13.1623 23.8787 12.8477 23.4902 12.8477Z" fill="white"/>
<path d="M9.56836 29.4414H7.59961V27.4727C7.59961 27.0842 7.28496 26.7695 6.89648 26.7695C6.50801 26.7695 6.19336 27.0842 6.19336 27.4727V30.1445C6.19336 30.533 6.50801 30.8477 6.89648 30.8477H9.56836C9.95684 30.8477 10.2715 30.533 10.2715 30.1445C10.2715 29.7561 9.95684 29.4414 9.56836 29.4414Z" fill="white"/>
<path d="M23.4902 26.7695C23.1018 26.7695 22.7871 27.0842 22.7871 27.4727V29.4414H20.8184C20.4299 29.4414 20.1152 29.7561 20.1152 30.1445C20.1152 30.533 20.4299 30.8477 20.8184 30.8477H23.4902C23.8787 30.8477 24.1934 30.533 24.1934 30.1445V27.4727C24.1934 27.0842 23.8787 26.7695 23.4902 26.7695Z" fill="white"/>
<path d="M14.5781 16.3105V20.5293C14.5781 20.9178 14.2635 21.2324 13.875 21.2324H9.65625C9.26777 21.2324 8.95312 20.9178 8.95312 20.5293V16.3105C8.95312 15.9221 9.26777 15.6074 9.65625 15.6074H13.875C14.2635 15.6074 14.5781 15.9221 14.5781 16.3105Z" fill="white"/>
<path d="M13.1719 17.0137H10.3594V19.8262H13.1719V17.0137Z" fill="#5F82A6"/>
<path d="M21.082 15.6074H16.8633C16.4748 15.6074 16.1602 15.9221 16.1602 16.3105V20.5293C16.1602 20.9178 16.4748 21.2324 16.8633 21.2324H21.082C21.4705 21.2324 21.7852 20.9178 21.7852 20.5293V16.3105C21.7852 15.9221 21.4705 15.6074 21.082 15.6074ZM20.3789 19.8262H17.5664V17.0137H20.3789V19.8262Z" fill="white"/>
<path d="M13.875 22.8145H9.65625C9.26777 22.8145 8.95312 23.1291 8.95312 23.5176V27.7363C8.95312 28.1248 9.26777 28.4395 9.65625 28.4395H13.875C14.2635 28.4395 14.5781 28.1248 14.5781 27.7363V23.5176C14.5781 23.1291 14.2635 22.8145 13.875 22.8145ZM13.1719 27.0332H10.3594V24.2207H13.1719V27.0332Z" fill="white"/>
<path d="M20.1768 23.7207H17.7686C17.3801 23.7207 17.0654 24.0354 17.0654 24.4238V26.832C17.0654 27.2205 17.3801 27.5352 17.7686 27.5352H20.1768C20.5652 27.5352 20.8799 27.2205 20.8799 26.832V24.4238C20.8799 24.0354 20.5652 23.7207 20.1768 23.7207ZM19.4736 26.1289H18.4717V25.127H19.4736V26.1289Z" fill="#5F82A6"/>
</g>
<defs>
<clipPath id="clip0_28060_11754">
<rect width="18" height="18" fill="white" transform="translate(6.19336 12.8477)"/>
</clipPath>
</defs>
</svg>
