<svg width="21" height="21" viewBox="0 0 21 21" fill="none" xmlns="http://www.w3.org/2000/svg">
<path d="M10.1943 0.847656C15.7173 0.847656 20.1943 5.32466 20.1943 10.8477C20.1943 16.3707 15.7173 20.8477 10.1943 20.8477C8.59833 20.8499 7.02517 20.4685 5.60734 19.7357L1.78134 20.8027C1.56789 20.8622 1.34243 20.864 1.12807 20.8077C0.91371 20.7515 0.71816 20.6393 0.561454 20.4825C0.404748 20.3258 0.292521 20.1303 0.236271 19.9159C0.180022 19.7016 0.181773 19.4761 0.241344 19.2627L1.30934 15.4397C0.574696 14.0206 0.192267 12.4456 0.194344 10.8477C0.194344 5.32466 4.67134 0.847656 10.1943 0.847656ZM10.1943 2.34766C7.94 2.34766 5.778 3.24319 4.18394 4.83725C2.58988 6.43131 1.69434 8.59332 1.69434 10.8477C1.69434 12.3177 2.06734 13.7307 2.76734 14.9847L2.91734 15.2547L1.80534 19.2387L5.79234 18.1267L6.06234 18.2767C7.19673 18.9074 8.46048 19.2699 9.75669 19.3365C11.0529 19.403 12.3471 19.1719 13.5402 18.6608C14.7332 18.1496 15.7933 17.372 16.6393 16.3877C17.4852 15.4033 18.0945 14.2383 18.4204 12.9819C18.7463 11.7256 18.7802 10.4113 18.5194 9.13984C18.2586 7.86839 17.7101 6.67354 16.916 5.64692C16.1218 4.6203 15.1032 3.78918 13.938 3.21728C12.7729 2.64538 11.4923 2.34791 10.1943 2.34766ZM10.1943 14.3477C10.4596 14.3477 10.7139 14.453 10.9015 14.6405C11.089 14.8281 11.1943 15.0824 11.1943 15.3477C11.1943 15.6129 11.089 15.8672 10.9015 16.0548C10.7139 16.2423 10.4596 16.3477 10.1943 16.3477C9.92913 16.3477 9.67477 16.2423 9.48724 16.0548C9.2997 15.8672 9.19434 15.6129 9.19434 15.3477C9.19434 15.0824 9.2997 14.8281 9.48724 14.6405C9.67477 14.453 9.92913 14.3477 10.1943 14.3477ZM10.1943 5.59766C10.9237 5.59766 11.6232 5.88739 12.1389 6.40311C12.6546 6.91884 12.9443 7.61831 12.9443 8.34766C12.9443 9.35766 12.6473 9.92166 11.8933 10.7067L11.7243 10.8777C11.1023 11.4997 10.9443 11.7637 10.9443 12.3477C10.9443 12.5466 10.8653 12.7373 10.7247 12.878C10.584 13.0186 10.3933 13.0977 10.1943 13.0977C9.99543 13.0977 9.80467 13.0186 9.66401 12.878C9.52336 12.7373 9.44434 12.5466 9.44434 12.3477C9.44434 11.3377 9.74134 10.7737 10.4953 9.98866L10.6643 9.81766C11.2863 9.19566 11.4443 8.93166 11.4443 8.34766C11.4433 8.02793 11.3198 7.72076 11.0992 7.48931C10.8786 7.25786 10.5778 7.11974 10.2584 7.10334C9.93914 7.08695 9.62569 7.19353 9.38256 7.40117C9.13944 7.60881 8.98512 7.90172 8.95134 8.21966L8.94434 8.34766C8.94434 8.54657 8.86533 8.73733 8.72467 8.87799C8.58402 9.01864 8.39326 9.09766 8.19434 9.09766C7.99543 9.09766 7.80467 9.01864 7.66401 8.87799C7.52336 8.73733 7.44434 8.54657 7.44434 8.34766C7.44434 7.61831 7.73408 6.91884 8.2498 6.40311C8.76553 5.88739 9.465 5.59766 10.1943 5.59766Z" fill="#323751"/>
</svg>
