<svg width="15" height="20" viewBox="0 0 15 20" fill="none" xmlns="http://www.w3.org/2000/svg">
<path d="M11.7068 2.03359C12.0578 2.03359 12.3912 2.14582 12.6341 2.34105C12.8765 2.53581 13.0068 2.79469 13.0068 3.05859V16.5586C13.0068 16.8225 12.8765 17.0814 12.6341 17.2761C12.3912 17.4714 12.0578 17.5836 11.7068 17.5836H3.30684C2.95583 17.5836 2.62248 17.4714 2.37953 17.2761C2.13715 17.0814 2.00684 16.8225 2.00684 16.5586V3.05859C2.00684 2.79469 2.13715 2.53581 2.37953 2.34105C2.62248 2.14582 2.95583 2.03359 3.30684 2.03359H11.7068ZM3.30684 0.708594C2.54393 0.708594 1.809 0.951945 1.2643 1.38965C0.719018 1.82782 0.406836 2.4274 0.406836 3.05859V16.5586C0.406836 17.1898 0.719018 17.7894 1.2643 18.2275C1.809 18.6652 2.54393 18.9086 3.30684 18.9086H11.7068C12.4697 18.9086 13.2047 18.6652 13.7494 18.2275C14.2947 17.7894 14.6068 17.1898 14.6068 16.5586V3.05859C14.6068 2.4274 14.2947 1.82782 13.7494 1.38965C13.2047 0.951945 12.4697 0.708594 11.7068 0.708594H3.30684Z" fill="#323751" stroke="#323751" stroke-width="0.2"/>
<path d="M7.50742 16.6586C7.89902 16.6586 8.27786 16.5338 8.56001 16.307C8.84274 16.0798 9.00742 15.7664 9.00742 15.4336C9.00742 15.1008 8.84274 14.7873 8.56001 14.5601C8.27786 14.3334 7.89902 14.2086 7.50742 14.2086C7.11582 14.2086 6.73699 14.3334 6.45483 14.5601C6.17211 14.7873 6.00742 15.1008 6.00742 15.4336C6.00742 15.7664 6.17211 16.0798 6.45483 16.307C6.73699 16.5338 7.11582 16.6586 7.50742 16.6586Z" fill="#323751" stroke="#323751" stroke-width="0.2"/>
</svg>