<svg width="25" height="34" viewBox="0 0 25 34" fill="none" xmlns="http://www.w3.org/2000/svg">
<path d="M11.1943 25.8491C17.2695 25.8491 22.1943 20.7901 22.1943 14.5495C22.1943 8.30897 17.2695 3.25 11.1943 3.25C5.1192 3.25 0.194336 8.30897 0.194336 14.5495C0.194336 20.7901 5.1192 25.8491 11.1943 25.8491Z" fill="#F6F6F6"/>
<path d="M11.1886 9.54058C10.7384 9.54058 10.375 9.16727 10.375 8.70482V6.65998C10.375 6.19753 10.7384 5.82422 11.1886 5.82422C11.6388 5.82422 12.0022 6.19753 12.0022 6.65998V8.70482C12.0022 9.16727 11.6388 9.54058 11.1886 9.54058Z" fill="#5F82A6"/>
<path d="M11.1886 23.7593C10.7384 23.7593 10.375 23.386 10.375 22.9236V20.8787C10.375 20.4163 10.7384 20.043 11.1886 20.043C11.6388 20.043 12.0022 20.4163 12.0022 20.8787V22.9236C12.0022 23.386 11.6388 23.7593 11.1886 23.7593Z" fill="#5F82A6"/>
<path d="M11.1885 15.3835C8.89952 15.3835 7.03906 13.6953 7.03906 11.6281C7.03906 9.55543 8.89952 7.86719 11.1885 7.86719C13.4774 7.86719 15.3379 9.55543 15.3379 11.6281C15.3379 12.0906 14.9745 12.4639 14.5243 12.4639C14.0741 12.4639 13.7107 12.0906 13.7107 11.6281C13.7107 10.4748 12.5825 9.53872 11.1885 9.53872C9.79449 9.53872 8.66628 10.4748 8.66628 11.6281C8.66628 12.7759 9.79449 13.712 11.1885 13.712C11.6387 13.712 12.0021 14.0853 12.0021 14.5477C12.0021 15.0102 11.6387 15.3835 11.1885 15.3835Z" fill="#333750"/>
<path d="M11.1885 21.2272C8.89952 21.2272 7.03906 19.539 7.03906 17.4719C7.03906 17.0094 7.40247 16.6361 7.85267 16.6361C8.30287 16.6361 8.66628 17.0094 8.66628 17.4719C8.66628 18.6197 9.79449 19.5557 11.1885 19.5557C12.5825 19.5557 13.7107 18.6197 13.7107 17.4719C13.7107 16.3185 12.5825 15.3825 11.1885 15.3825C10.7383 15.3825 10.3749 15.0092 10.3749 14.5467C10.3749 14.0842 10.7383 13.7109 11.1885 13.7109C13.4774 13.7109 15.3379 15.3992 15.3379 17.4719C15.3379 19.539 13.4774 21.2272 11.1885 21.2272Z" fill="#333750"/>
<path fill-rule="evenodd" clip-rule="evenodd" d="M3.3291 29.8428L3.3291 30.3231C3.3291 32.0459 4.75609 33.4465 6.51137 33.4465L21.7355 33.4465C23.4907 33.4465 24.9177 32.0459 24.9177 30.3231L24.9177 7.10155C24.9133 5.38302 23.4864 3.98242 21.7311 3.98242L20.5694 3.98242V5.27132L21.7355 5.27132C22.7641 5.27132 23.6046 6.09191 23.6046 7.10584L23.6045 30.3231C23.6045 31.3327 22.7685 32.1576 21.7355 32.1576L6.51137 32.1576C5.48271 32.1576 4.64228 31.337 4.64228 30.3231L4.64228 29.8428H3.3291Z" fill="#323751"/>
<path d="M3.38122 30.3118H18.6009C20.3562 30.3118 21.7832 28.9112 21.7832 27.1883V24.834C21.7832 24.4774 21.4899 24.1895 21.1266 24.1895C20.7633 24.1895 20.47 24.4774 20.47 24.834V27.1883C20.47 28.198 19.634 29.0229 18.6009 29.0229H3.37685C2.34819 29.0229 1.50776 28.2023 1.50776 27.1883V3.97107C1.50776 2.96144 2.34381 2.13655 3.37685 2.13655H18.6009C19.6296 2.13655 20.47 2.95715 20.47 3.97107L20.47 26.0636C20.47 26.4202 20.7633 26.708 21.1266 26.708C21.4899 26.708 21.7832 26.4202 21.7832 26.0636L21.7832 3.97107C21.7832 2.24825 20.3562 0.847656 18.6009 0.847656H3.37685C1.62157 0.847656 0.194582 2.24825 0.194582 3.97107V27.1926C0.198959 28.9112 1.62594 30.3118 3.38122 30.3118Z" fill="#5F82A6"/>
</svg>
