<svg width="101" height="107" viewBox="0 0 101 107" fill="none" xmlns="http://www.w3.org/2000/svg">
<path d="M52.0592 0.146937C48.0162 -0.178255 43.9548 0.484573 40.2254 2.07822C36.496 3.67187 33.2107 6.14848 30.6528 9.29433C28.095 12.4402 26.3415 16.1608 25.5436 20.1351C24.7458 24.1094 24.9276 28.2181 26.0733 32.1065L1.15608 57.0021C0.452665 57.7042 0.0570275 58.6567 0.0561523 59.6503V77.5131C0.0561523 78.507 0.451217 79.4602 1.15443 80.163C1.85765 80.8658 2.81142 81.2606 3.80592 81.2606H21.3048C22.2993 81.2606 23.2531 80.8658 23.9563 80.163C24.6595 79.4602 25.0546 78.507 25.0546 77.5131V68.7691H36.9288C37.9233 68.7691 38.8771 68.3743 39.5803 67.6715C40.2835 66.9687 40.6786 66.0155 40.6786 65.0216V54.4476L45.2721 49.8569C43.9259 48.2092 42.7354 46.4404 41.716 44.573L35.5289 50.7626C34.8255 51.4647 34.4299 52.4172 34.429 53.4108V62.5233H22.561C21.5665 62.5233 20.6127 62.9181 19.9095 63.6209C19.2063 64.3237 18.8112 65.2769 18.8112 66.2708V75.0148H6.31201V60.6933L33.3103 33.7116L32.5729 31.8192C31.6345 29.3969 31.21 26.8062 31.3266 24.2113C31.4431 21.6165 32.098 19.0742 33.2497 16.7457C34.4015 14.4172 36.0249 12.3533 38.0171 10.6851C40.0092 9.01679 42.3266 7.78055 44.8221 7.05475C46.8845 4.41279 49.3218 2.08312 52.0529 0.146937H52.0592ZM71.9329 26.6102C72.5484 26.6102 73.1579 26.4891 73.7266 26.2536C74.2953 26.0182 74.812 25.6732 75.2473 25.2382C75.6825 24.8032 76.0278 24.2868 76.2633 23.7185C76.4989 23.1502 76.6201 22.5411 76.6201 21.9259C76.6201 21.3107 76.4989 20.7016 76.2633 20.1333C76.0278 19.565 75.6825 19.0486 75.2473 18.6136C74.812 18.1786 74.2953 17.8336 73.7266 17.5982C73.1579 17.3627 72.5484 17.2416 71.9329 17.2416C70.6898 17.2416 69.4976 17.7351 68.6186 18.6136C67.7395 19.4921 67.2457 20.6835 67.2457 21.9259C67.2457 23.1683 67.7395 24.3597 68.6186 25.2382C69.4976 26.1167 70.6898 26.6102 71.9329 26.6102ZM43.8097 28.1717C43.81 23.3161 45.0691 18.5434 47.4642 14.3188C49.8593 10.0941 53.3087 6.56168 57.4762 4.06566C61.6437 1.56964 66.3871 0.195209 71.2443 0.0763103C76.1014 -0.0425889 80.9065 1.0981 85.1913 3.38721C89.4761 5.67633 93.0944 9.03577 95.6935 13.1381C98.2927 17.2405 99.7841 21.9459 100.022 26.7956C100.261 31.6454 99.2375 36.4741 97.053 40.8112C94.8684 45.1482 91.5967 48.8457 87.5569 51.5433V64.3471L92.4504 69.2438C93.1526 69.9464 93.547 70.8989 93.547 71.892C93.547 72.885 93.1526 73.8375 92.4504 74.5402L85.7258 81.2606L92.4004 87.9248C92.7733 88.2977 93.0633 88.7451 93.2514 89.2377C93.4395 89.7303 93.5215 90.257 93.492 90.7834C93.4625 91.3098 93.3222 91.8241 93.0803 92.2926C92.8383 92.7611 92.5002 93.1733 92.0879 93.5023L77.4013 105.244C76.7362 105.776 75.9097 106.066 75.0577 106.066C74.2057 106.066 73.3792 105.776 72.7141 105.244L57.715 93.2525C57.2766 92.9016 56.9225 92.4568 56.6792 91.9509C56.4358 91.4449 56.3092 90.8908 56.3089 90.3294V51.5433C52.4614 48.9768 49.3075 45.5008 47.1271 41.4237C44.9466 37.3466 43.8071 32.7946 43.8097 28.1717ZM71.9329 6.3115C67.116 6.30933 62.433 7.89628 58.6108 10.8261C54.7887 13.7558 52.0411 17.8646 50.7945 22.5146C49.548 27.1646 49.8722 32.0958 51.7168 36.5428C53.5614 40.9898 56.8232 44.704 60.9961 47.1088C61.4711 47.3829 61.8656 47.7771 62.1398 48.2518C62.4141 48.7265 62.5585 49.265 62.5585 49.8132V89.1303L75.0577 99.1235L86.0008 90.3732L79.5387 83.9088C78.8365 83.2062 78.442 82.2537 78.442 81.2606C78.442 80.2675 78.8365 79.315 79.5387 78.6124L86.2633 71.892L82.4072 68.0383C81.7038 67.3362 81.3082 66.3837 81.3073 65.3901V49.8132C81.3073 49.265 81.4517 48.7265 81.726 48.2518C82.0002 47.7771 82.3947 47.3829 82.8697 47.1088C87.0426 44.704 90.3044 40.9898 92.149 36.5428C93.9937 32.0958 94.3178 27.1646 93.0713 22.5146C91.8247 17.8646 89.0771 13.7558 85.255 10.8261C81.4328 7.89628 76.7499 6.30933 71.9329 6.3115Z" fill="#323751"/>
</svg>
