<svg width="22" height="22" viewBox="0 0 22 22" fill="none" xmlns="http://www.w3.org/2000/svg">
<path fill-rule="evenodd" clip-rule="evenodd" d="M4.50164 10.4409H2.38997C2.08055 10.4409 1.78381 10.318 1.56502 10.0992C1.34622 9.88041 1.22331 9.58366 1.22331 9.27424V2.60091C1.22331 2.29149 1.34622 1.99475 1.56502 1.77595C1.78381 1.55716 2.08055 1.43424 2.38997 1.43424H18.7233C19.0327 1.43424 19.3295 1.55716 19.5483 1.77595C19.7671 1.99475 19.89 2.29149 19.89 2.60091V9.27424C19.89 9.58366 19.7671 9.88041 19.5483 10.0992C19.3295 10.318 19.0327 10.4409 18.7233 10.4409H16.8683V11.6076H18.7233C19.3421 11.6076 19.9356 11.3617 20.3732 10.9242C20.8108 10.4866 21.0566 9.89308 21.0566 9.27424V2.60091C21.0566 1.98207 20.8108 1.38858 20.3732 0.950996C19.9356 0.513411 19.3421 0.267578 18.7233 0.267578H2.38997C1.77114 0.267578 1.17764 0.513411 0.740058 0.950996C0.302473 1.38858 0.0566406 1.98207 0.0566406 2.60091V9.27424C0.0566406 9.89308 0.302473 10.4866 0.740058 10.9242C1.17764 11.3617 1.77114 11.6076 2.38997 11.6076H4.50164V15.3642C4.50164 15.884 4.70814 16.3826 5.07571 16.7501C5.44328 17.1177 5.94181 17.3242 6.46164 17.3242H14.6283C14.8877 17.3273 15.145 17.2789 15.3855 17.1818C15.626 17.0846 15.8449 16.9408 16.0293 16.7584C16.2138 16.5761 16.3603 16.359 16.4602 16.1197C16.5602 15.8804 16.6117 15.6236 16.6116 15.3642V7.8042H15.445V15.3643C15.445 15.4693 15.4242 15.5732 15.3837 15.6701C15.3432 15.7669 15.284 15.8548 15.2093 15.9286C15.1346 16.0024 15.046 16.0606 14.9487 16.1C14.8513 16.1393 14.7472 16.1589 14.6422 16.1576L6.46164 16.1575C6.25123 16.1575 6.04945 16.0739 5.90067 15.9252C5.75189 15.7764 5.6683 15.5746 5.6683 15.3642V7.8042H4.50164V10.4409ZM11.1354 8.22053C11.1872 8.23696 11.2384 8.25564 11.2888 8.27654C11.6384 8.42136 11.9373 8.6666 12.1475 8.98124C12.3577 9.29589 12.47 9.66581 12.47 10.0442H11.3033C11.3033 9.89656 11.2595 9.7522 11.1775 9.62941C11.0954 9.50662 10.9788 9.41092 10.8424 9.3544C10.7059 9.29789 10.5558 9.2831 10.411 9.31191C10.2661 9.34072 10.1331 9.41184 10.0287 9.51626C9.92423 9.62068 9.85312 9.75373 9.8243 9.89857C9.79549 10.0434 9.81028 10.1935 9.86679 10.33C9.92331 10.4664 10.019 10.583 10.1418 10.6651C10.2632 10.7462 10.4056 10.7899 10.5516 10.7909V10.7909C10.933 10.7875 11.3068 10.8976 11.6255 11.1071C11.9443 11.3166 12.1936 11.6161 12.3419 11.9675C12.4902 12.319 12.5307 12.7065 12.4583 13.081C12.3859 13.4556 12.2039 13.8001 11.9354 14.071C11.7114 14.2969 11.4357 14.4631 11.1335 14.556L11.1399 15.1596L9.9733 15.172L9.96662 14.5443C9.92246 14.5298 9.87874 14.5137 9.83554 14.4959C9.48282 14.3507 9.18118 14.104 8.96891 13.7871C8.75664 13.4701 8.6433 13.0973 8.64329 12.7159L9.80996 12.7158C9.80996 12.8661 9.85461 13.013 9.93823 13.1378C10.0219 13.2627 10.1407 13.3598 10.2796 13.417C10.4186 13.4742 10.5714 13.4889 10.7187 13.4591C10.866 13.4293 11.0011 13.3564 11.1068 13.2497C11.2126 13.143 11.2843 13.0072 11.3128 12.8597C11.3414 12.7121 11.3254 12.5595 11.267 12.421C11.2086 12.2826 11.1104 12.1646 10.9848 12.0821C10.8592 11.9995 10.712 11.9562 10.5617 11.9575L10.5566 11.3743V11.9576C10.1782 11.9576 9.80828 11.8454 9.49363 11.6351C9.17899 11.4249 8.93375 11.126 8.78893 10.7764C8.64412 10.4268 8.60623 10.0421 8.68005 9.67096C8.75388 9.29981 8.93611 8.95889 9.20369 8.6913C9.41877 8.47623 9.68122 8.3163 9.96867 8.22348L9.9617 7.62422L11.1283 7.61066L11.1354 8.22053ZM2.97331 4.82914H18.14V5.99581H2.97331V4.82914ZM10.5436 20.2679L8.18703 18.1101L7.39915 18.9705L9.77222 21.1435L9.77856 21.1489C9.99475 21.3358 10.2709 21.4386 10.5566 21.4386C10.8424 21.4386 11.1185 21.3358 11.3347 21.1489L11.3411 21.1435L13.7141 18.9705L12.9263 18.1101L10.5697 20.2679C10.5659 20.2705 10.5613 20.2719 10.5566 20.2719C10.552 20.2719 10.5474 20.2705 10.5436 20.2679Z" fill="white"/>
</svg>
