<svg width="37" height="45" viewBox="0 0 37 45" fill="none" xmlns="http://www.w3.org/2000/svg">
<rect width="37" height="45" fill="#E5E5E5"/>
<rect x="-544" y="-737" width="2981" height="2117" fill="#C4C4C4"/>
<g clip-path="url(#clip0)">
<rect width="320" height="568" transform="translate(-250 -247)" fill="white"/>
<rect x="-250" y="-36" width="320" height="357" fill="white"/>
<g filter="url(#filter0_dd)">
<path fill-rule="evenodd" clip-rule="evenodd" d="M-250 -24V56H70V-24H-250Z" fill="white"/>
</g>
<g clip-path="url(#clip1)">
<path d="M23.2311 33.4868C29.4873 33.4868 34.559 28.509 34.559 22.3684C34.559 16.2279 29.4873 11.25 23.2311 11.25C16.9749 11.25 11.9032 16.2279 11.9032 22.3684C11.9032 28.509 16.9749 33.4868 23.2311 33.4868Z" fill="#F6F6F6"/>
<path class="secondary" d="M27.1858 5.20484H18.1368C15.9305 5.20484 14.1375 3.44497 14.1375 1.2794C14.1375 0.824356 14.5117 0.457031 14.9753 0.457031C15.4389 0.457031 15.8132 0.824356 15.8132 1.2794C15.8132 2.53488 16.8577 3.5601 18.1368 3.5601H27.1858C28.4649 3.5601 29.5094 2.53488 29.5094 1.2794C29.5094 0.824356 29.8837 0.457031 30.3473 0.457031C30.8109 0.457031 31.1852 0.824356 31.1852 1.2794C31.1852 3.43949 29.3921 5.20484 27.1858 5.20484Z" fill="#5F82A6"/>
<path class="secondary" d="M30.8389 44.9984H15.6177C12.2216 44.9984 9.45667 42.2846 9.45667 38.9513C9.45667 38.4962 9.83091 38.1289 10.2945 38.1289C10.7581 38.1289 11.1324 38.4962 11.1324 38.9513C11.1324 41.38 13.1433 43.3537 15.6177 43.3537H30.8445C33.319 43.3537 35.3298 41.38 35.3298 38.9513C35.3298 38.4962 35.7041 38.1289 36.1677 38.1289C36.6313 38.1289 37.0056 38.4962 37.0056 38.9513C37 42.2846 34.235 44.9984 30.8389 44.9984Z" fill="#333750"/>
<path class="secondary" d="M9.13834 28.2678C8.93725 28.2678 8.73617 28.1965 8.57418 28.054C8.23345 27.7469 8.20552 27.2316 8.51832 26.8917L12.9311 22.1165L8.51832 17.3412C8.20552 17.0068 8.23345 16.486 8.57418 16.179C8.91491 15.8719 9.44556 15.8994 9.75836 16.2338L14.685 21.5627C14.9754 21.8752 14.9754 22.3522 14.685 22.6702L9.75836 27.9991C9.59079 28.1801 9.36736 28.2678 9.13834 28.2678Z" fill="#5F82A6"/>
<path class="secondary" d="M13.4449 22.9377H0.837862C0.374245 22.9377 0 22.5704 0 22.1153C0 21.6603 0.374245 21.293 0.837862 21.293H13.4449C13.9085 21.293 14.2828 21.6603 14.2828 22.1153C14.2828 22.5704 13.9085 22.9377 13.4449 22.9377Z" fill="#5F82A6"/>
<path class="secondary" d="M23.2255 42.7886C21.79 42.7886 20.6169 41.6427 20.6169 40.2283C20.6169 38.8138 21.7844 37.668 23.2255 37.668C24.6666 37.668 25.834 38.8138 25.834 40.2283C25.834 41.6427 24.6666 42.7886 23.2255 42.7886ZM23.2255 39.3127C22.7116 39.3127 22.2927 39.7239 22.2927 40.2283C22.2927 40.7327 22.7116 41.1438 23.2255 41.1438C23.7394 41.1438 24.1583 40.7327 24.1583 40.2283C24.1583 39.7239 23.7394 39.3127 23.2255 39.3127Z" fill="#5F82A6"/>
<path class="secondary" d="M32.9391 37.5987H13.5175C11.2776 37.5987 9.45667 35.8114 9.45667 33.6129V30.6086C9.45667 30.1535 9.83091 29.7862 10.2945 29.7862C10.7581 29.7862 11.1324 30.1535 11.1324 30.6086V33.6129C11.1324 34.9013 12.1993 35.9539 13.5175 35.9539H32.9447C34.2574 35.9539 35.3298 34.9068 35.3298 33.6129V3.98575C35.3298 2.69737 34.263 1.64474 32.9447 1.64474H13.5175C12.2049 1.64474 11.1324 2.69189 11.1324 3.98575V13.273C11.1324 13.7281 10.7581 14.0954 10.2945 14.0954C9.83091 14.0954 9.45667 13.7281 9.45667 13.273V3.98575C9.45667 1.78728 11.2776 0 13.5175 0H32.9447C35.1846 0 37.0056 1.78728 37.0056 3.98575V33.6184C37 35.8114 35.179 37.5987 32.9391 37.5987Z" fill="#5F82A6"/>
</g>
<path class="secondary" d="M15 15.375V12.7031C15 12.3146 15.3146 12 15.7031 12H18.375C18.7635 12 19.0781 12.3146 19.0781 12.7031C19.0781 13.0916 18.7635 13.4062 18.375 13.4062H16.4062V15.375C16.4062 15.7635 16.0916 16.0781 15.7031 16.0781C15.3146 16.0781 15 15.7635 15 15.375Z" fill="#333750"/>
<path class="secondary" d="M32.2969 12H29.625C29.2365 12 28.9219 12.3146 28.9219 12.7031C28.9219 13.0916 29.2365 13.4062 29.625 13.4062H31.5938V15.375C31.5938 15.7635 31.9084 16.0781 32.2969 16.0781C32.6854 16.0781 33 15.7635 33 15.375V12.7031C33 12.3146 32.6854 12 32.2969 12Z" fill="#333750"/>
<path class="secondary" d="M18.375 28.5938H16.4062V26.625C16.4062 26.2365 16.0916 25.9219 15.7031 25.9219C15.3146 25.9219 15 26.2365 15 26.625V29.2969C15 29.6854 15.3146 30 15.7031 30H18.375C18.7635 30 19.0781 29.6854 19.0781 29.2969C19.0781 28.9084 18.7635 28.5938 18.375 28.5938Z" fill="#333750"/>
<path class="secondary" d="M32.2969 25.9219C31.9084 25.9219 31.5938 26.2365 31.5938 26.625V28.5938H29.625C29.2365 28.5938 28.9219 28.9084 28.9219 29.2969C28.9219 29.6854 29.2365 30 29.625 30H32.2969C32.6854 30 33 29.6854 33 29.2969V26.625C33 26.2365 32.6854 25.9219 32.2969 25.9219Z" fill="#333750"/>
<path class="secondary" d="M23.3848 15.4609V19.6797C23.3848 20.0682 23.0701 20.3828 22.6816 20.3828H18.4629C18.0744 20.3828 17.7598 20.0682 17.7598 19.6797V15.4609C17.7598 15.0725 18.0744 14.7578 18.4629 14.7578H22.6816C23.0701 14.7578 23.3848 15.0725 23.3848 15.4609Z" fill="#333750"/>
<path class="secondary" d="M21.9785 16.1641H19.166V18.9766H21.9785V16.1641Z" fill="#5F82A6"/>
<path class="secondary" d="M29.8887 14.7578H25.6699C25.2814 14.7578 24.9668 15.0725 24.9668 15.4609V19.6797C24.9668 20.0682 25.2814 20.3828 25.6699 20.3828H29.8887C30.2771 20.3828 30.5918 20.0682 30.5918 19.6797V15.4609C30.5918 15.0725 30.2771 14.7578 29.8887 14.7578ZM29.1855 18.9766H26.373V16.1641H29.1855V18.9766Z" fill="#333750"/>
<path class="secondary" d="M22.6816 21.9688H18.4629C18.0744 21.9688 17.7598 22.2834 17.7598 22.6719V26.8906C17.7598 27.2791 18.0744 27.5938 18.4629 27.5938H22.6816C23.0701 27.5938 23.3848 27.2791 23.3848 26.8906V22.6719C23.3848 22.2834 23.0701 21.9688 22.6816 21.9688ZM21.9785 26.1875H19.166V23.375H21.9785V26.1875Z" fill="#333750"/>
<path class="secondary" d="M28.9834 22.8711H26.5752C26.1867 22.8711 25.8721 23.1857 25.8721 23.5742V25.9824C25.8721 26.3709 26.1867 26.6855 26.5752 26.6855H28.9834C29.3719 26.6855 29.6865 26.3709 29.6865 25.9824V23.5742C29.6865 23.1857 29.3719 22.8711 28.9834 22.8711ZM28.2803 25.2793H27.2783V24.2773H28.2803V25.2793Z" fill="#5F82A6"/>
</g>
<path d="M-273.768 19.6172C-287.519 22.2363 -299.539 22.805 -311.476 31.2196C-330.962 44.9558 -344.821 67.5842 -355.814 88.1958C-366.209 107.686 -375.964 125.535 -380.055 147.451C-383.338 165.041 -385.529 182.579 -385.649 200.491C-386.14 273.609 -385.11 347.499 -359.44 417.104C-335.195 482.843 -298.113 538.132 -247.145 585.857C-191.427 638.029 -116.213 674.888 -44.7243 700.12C-17.8739 709.596 11.3699 725.504 40.5328 721.667C65.6507 718.362 92.7937 722.022 118.02 723.014C127.709 723.394 146.344 728.441 155.107 722.599" stroke="black" stroke-width="3" stroke-linecap="round" stroke-linejoin="round"/>
<defs>
<filter id="filter0_dd" x="-252" y="-26" width="324" height="86" filterUnits="userSpaceOnUse" color-interpolation-filters="sRGB">
<feFlood flood-opacity="0" result="BackgroundImageFix"/>
<feColorMatrix in="SourceAlpha" type="matrix" values="0 0 0 0 0 0 0 0 0 0 0 0 0 0 0 0 0 0 127 0"/>
<feOffset dy="2"/>
<feGaussianBlur stdDeviation="1"/>
<feColorMatrix type="matrix" values="0 0 0 0 0 0 0 0 0 0 0 0 0 0 0 0 0 0 0.24 0"/>
<feBlend mode="normal" in2="BackgroundImageFix" result="effect1_dropShadow"/>
<feColorMatrix in="SourceAlpha" type="matrix" values="0 0 0 0 0 0 0 0 0 0 0 0 0 0 0 0 0 0 127 0"/>
<feOffset/>
<feGaussianBlur stdDeviation="1"/>
<feColorMatrix type="matrix" values="0 0 0 0 0 0 0 0 0 0 0 0 0 0 0 0 0 0 0.12 0"/>
<feBlend mode="normal" in2="effect1_dropShadow" result="effect2_dropShadow"/>
<feBlend mode="normal" in="SourceGraphic" in2="effect2_dropShadow" result="shape"/>
</filter>
<clipPath id="clip0">
<rect width="320" height="568" fill="white" transform="translate(-250 -247)"/>
</clipPath>
<clipPath id="clip1">
<rect width="37" height="45" fill="white"/>
</clipPath>
</defs>
</svg>
