<svg width="18" height="19" viewBox="0 0 18 19" fill="none" xmlns="http://www.w3.org/2000/svg">
<g clip-path="url(#clip0_32523_10016)">
<path d="M0 3.5918V0.919922C0 0.531445 0.314648 0.216797 0.703125 0.216797H3.375C3.76348 0.216797 4.07812 0.531445 4.07812 0.919922C4.07812 1.3084 3.76348 1.62305 3.375 1.62305H1.40625V3.5918C1.40625 3.98027 1.0916 4.29492 0.703125 4.29492C0.314648 4.29492 0 3.98027 0 3.5918Z" fill="white"/>
<path d="M17.2969 0.216797H14.625C14.2365 0.216797 13.9219 0.531445 13.9219 0.919922C13.9219 1.3084 14.2365 1.62305 14.625 1.62305H16.5938V3.5918C16.5938 3.98027 16.9084 4.29492 17.2969 4.29492C17.6854 4.29492 18 3.98027 18 3.5918V0.919922C18 0.531445 17.6854 0.216797 17.2969 0.216797Z" fill="white"/>
<path d="M3.375 16.8105H1.40625V14.8418C1.40625 14.4533 1.0916 14.1387 0.703125 14.1387C0.314648 14.1387 0 14.4533 0 14.8418V17.5137C0 17.9021 0.314648 18.2168 0.703125 18.2168H3.375C3.76348 18.2168 4.07812 17.9021 4.07812 17.5137C4.07812 17.1252 3.76348 16.8105 3.375 16.8105Z" fill="white"/>
<path d="M17.2969 14.1387C16.9084 14.1387 16.5938 14.4533 16.5938 14.8418V16.8105H14.625C14.2365 16.8105 13.9219 17.1252 13.9219 17.5137C13.9219 17.9021 14.2365 18.2168 14.625 18.2168H17.2969C17.6854 18.2168 18 17.9021 18 17.5137V14.8418C18 14.4533 17.6854 14.1387 17.2969 14.1387Z" fill="white"/>
<path d="M8.38477 3.67969V7.89844C8.38477 8.28691 8.07012 8.60156 7.68164 8.60156H3.46289C3.07441 8.60156 2.75977 8.28691 2.75977 7.89844V3.67969C2.75977 3.29121 3.07441 2.97656 3.46289 2.97656H7.68164C8.07012 2.97656 8.38477 3.29121 8.38477 3.67969Z" fill="white"/>
<path class="secondary" d="M6.97852 4.38281H4.16602V7.19531H6.97852V4.38281Z" fill="#5F82A6"/>
<path d="M14.8887 2.97656H10.6699C10.2814 2.97656 9.9668 3.29121 9.9668 3.67969V7.89844C9.9668 8.28691 10.2814 8.60156 10.6699 8.60156H14.8887C15.2771 8.60156 15.5918 8.28691 15.5918 7.89844V3.67969C15.5918 3.29121 15.2771 2.97656 14.8887 2.97656ZM14.1855 7.19531H11.373V4.38281H14.1855V7.19531Z" fill="white"/>
<path d="M7.68164 10.1836H3.46289C3.07441 10.1836 2.75977 10.4982 2.75977 10.8867V15.1055C2.75977 15.4939 3.07441 15.8086 3.46289 15.8086H7.68164C8.07012 15.8086 8.38477 15.4939 8.38477 15.1055V10.8867C8.38477 10.4982 8.07012 10.1836 7.68164 10.1836ZM6.97852 14.4023H4.16602V11.5898H6.97852V14.4023Z" fill="white"/>
<path class="secondary" d="M13.9834 11.0898H11.5752C11.1867 11.0898 10.8721 11.4045 10.8721 11.793V14.2012C10.8721 14.5896 11.1867 14.9043 11.5752 14.9043H13.9834C14.3719 14.9043 14.6865 14.5896 14.6865 14.2012V11.793C14.6865 11.4045 14.3719 11.0898 13.9834 11.0898ZM13.2803 13.498H12.2783V12.4961H13.2803V13.498Z" fill="#5F82A6"/>
</g>
<defs>
<clipPath id="clip0_32523_10016">
<rect width="18" height="18" fill="white" transform="translate(0 0.216797)"/>
</clipPath>
</defs>
</svg>
