<svg width="24" height="25" viewBox="0 0 24 25" fill="none" xmlns="http://www.w3.org/2000/svg">
<path d="M23.9006 24.3704H0V0.046875H23.9006V24.3704ZM1.0532 23.2987H22.8474V1.11855H1.0532V23.2987Z" fill="#333750"/>
<path d="M10.8831 21.0517H2.90332V12.9355H10.8831V21.0517ZM3.95652 19.98H9.82986V14.0072H3.95652V19.98Z" fill="#333750"/>
<path d="M8.21852 15.6504H5.56445V18.351H8.21852V15.6504Z" fill="#333750"/>
<path d="M18.2881 6.3125H15.8447V8.79879H18.2881V6.3125Z" fill="#333750"/>
<path d="M5.56451 7.74414H3.12109V10.2304H5.56451V7.74414Z" fill="#333750"/>
<path d="M10.1114 7.74414H7.66797V10.2304H10.1114V7.74414Z" fill="#333750"/>
<path d="M16.0479 18.0137H13.6045V20.5H16.0479V18.0137Z" fill="#333750"/>
<path d="M20.9522 13.4727H18.5088V15.959H20.9522V13.4727Z" fill="#333750"/>
<path d="M17.7364 13.4727H15.293V15.959H17.7364V13.4727Z" fill="#333750"/>
<path d="M14.5205 13.4727H13.2988V14.7158H14.5205V13.4727Z" fill="#333750"/>
<path d="M4.34281 4.0293H3.12109V5.27244H4.34281V4.0293Z" fill="#333750"/>
<path d="M7.11331 5.68945H5.8916V6.9326H7.11331V5.68945Z" fill="#333750"/>
<path d="M8.56644 4.0293H7.34473V5.27244H8.56644V4.0293Z" fill="#333750"/>
<path d="M10.1114 5.68945H8.88965V6.9326H10.1114V5.68945Z" fill="#333750"/>
<path d="M20.9522 16.375H19.7305V17.6181H20.9522V16.375Z" fill="#333750"/>
<path d="M21.0534 11.6197H13.0771V3.5H21.0569V11.6197H21.0534ZM14.1303 10.5481H20.0037V4.57168H14.1303V10.5481Z" fill="#333750"/>
</svg>