<svg width="38" height="48" viewBox="0 0 38 48" fill="none" xmlns="http://www.w3.org/2000/svg">
<g clip-path="url(#clip0)">
<path class="secondary" d="M15.9209 3.92249H24.9611C27.0065 3.92249 28.6723 2.6187 28.6723 1.01575C28.6723 0.709192 28.4254 0.461731 28.1195 0.461731C27.8136 0.461731 27.5667 0.709192 27.5667 1.01575C27.5667 1.99082 26.3727 2.81445 24.9611 2.81445H15.9209C14.5094 2.81445 13.3153 1.99082 13.3153 1.01575C13.3153 0.709192 13.0684 0.461731 12.7625 0.461731C12.4566 0.461731 12.2097 0.709192 12.2097 1.01575C12.2097 2.6187 13.8718 3.92249 15.9209 3.92249Z" fill="#5F82A6"/>
<path class="secondary" d="M12.8363 48.0008H28.0459C31.2816 48.0008 33.9167 45.3636 33.9167 42.1208C33.9167 41.8142 33.6698 41.5668 33.3639 41.5668C33.058 41.5668 32.8111 41.8142 32.8111 42.1208C32.8111 44.7542 30.6735 46.8927 28.0459 46.8927H12.8363C10.2086 46.8927 8.07107 44.7505 8.07107 42.1208C8.07107 41.8142 7.82415 41.5668 7.51826 41.5668C7.21237 41.5668 6.96545 41.8142 6.96545 42.1208C6.96545 45.3599 9.60051 48.0008 12.8363 48.0008Z" fill="#333750"/>
<path class="secondary" d="M18.1211 42.8585C18.1211 41.5769 19.1641 40.5316 20.4429 40.5316C21.7217 40.5316 22.7647 41.5769 22.7647 42.8585C22.7647 44.1401 21.7217 45.1854 20.4429 45.1854C19.1604 45.1854 18.1211 44.1401 18.1211 42.8585ZM19.2267 42.8585C19.2267 43.5307 19.7721 44.0773 20.4429 44.0773C21.1136 44.0773 21.6591 43.5307 21.6591 42.8585C21.6591 42.1863 21.1136 41.6397 20.4429 41.6397C19.7721 41.6397 19.2267 42.1863 19.2267 42.8585Z" fill="#5F82A6"/>
<path class="secondary" d="M30.1463 39.4017H10.739C8.66047 39.4017 6.96888 37.7064 6.96888 35.6233V34.7701C6.96888 34.4635 7.2158 34.2161 7.52169 34.2161C7.82757 34.2161 8.07449 34.4635 8.07449 34.7701V35.6233C8.07449 37.0969 9.27224 38.2936 10.739 38.2936H30.1463C31.6167 38.2936 32.8108 37.0933 32.8108 35.6233V3.77839C32.8108 2.3084 31.613 1.10803 30.1463 1.10803H10.739C9.26856 1.10803 8.07449 2.3084 8.07449 3.77839V11.3315C8.07449 11.638 7.82757 11.8855 7.52169 11.8855C7.2158 11.8855 6.96888 11.638 6.96888 11.3315V3.77839C6.96519 1.69529 8.65678 0 10.739 0H30.1463C32.2248 0 33.9164 1.69529 33.9164 3.77839V35.6196C33.9164 37.7064 32.2248 39.4017 30.1463 39.4017Z" fill="#5F82A6"/>
<path class="secondary" d="M15.2502 18.4486C14.9443 18.4486 14.6974 18.2011 14.6974 17.8946V16.7422C14.6974 16.4357 14.9443 16.1882 15.2502 16.1882C15.5561 16.1882 15.803 16.4357 15.803 16.7422V17.8946C15.803 18.2011 15.5561 18.4486 15.2502 18.4486Z" fill="#5F82A6"/>
<path class="secondary" d="M15.2502 26.4445C14.9443 26.4445 14.6974 26.1971 14.6974 25.8905V24.7382C14.6974 24.4316 14.9443 24.1841 15.2502 24.1841C15.5561 24.1841 15.803 24.4316 15.803 24.7382V25.8905C15.803 26.1971 15.5561 26.4445 15.2502 26.4445Z" fill="#5F82A6"/>
<path class="secondary" d="M15.2502 21.7365C13.8866 21.7365 12.7773 20.7504 12.7773 19.5389C12.7773 18.3275 13.8866 17.3413 15.2502 17.3413C16.6138 17.3413 17.7231 18.3275 17.7231 19.5389C17.7231 19.8455 17.4762 20.093 17.1703 20.093C16.8644 20.093 16.6175 19.8455 16.6175 19.5389C16.6175 18.9369 16.002 18.4494 15.2502 18.4494C14.4984 18.4494 13.8829 18.9369 13.8829 19.5389C13.8829 20.141 14.4984 20.6285 15.2502 20.6285C15.5561 20.6285 15.803 20.876 15.803 21.1825C15.803 21.4891 15.5561 21.7365 15.2502 21.7365Z" fill="#333750"/>
<path class="secondary" d="M15.2502 25.0235C13.8866 25.0235 12.7773 24.0374 12.7773 22.8259C12.7773 22.5194 13.0242 22.2719 13.3301 22.2719C13.636 22.2719 13.8829 22.5194 13.8829 22.8259C13.8829 23.428 14.4984 23.9155 15.2502 23.9155C16.002 23.9155 16.6175 23.428 16.6175 22.8259C16.6175 22.2239 16.002 21.7364 15.2502 21.7364C14.9443 21.7364 14.6974 21.4889 14.6974 21.1823C14.6974 20.8758 14.9443 20.6283 15.2502 20.6283C16.6138 20.6283 17.7231 21.6145 17.7231 22.8259C17.7231 24.0374 16.6175 25.0235 15.2502 25.0235Z" fill="#333750"/>
<path class="secondary" d="M25.6282 32.5652H4.55145C2.0417 32.5652 0 30.519 0 28.0038V17.9207C0 15.4054 2.0417 13.3593 4.55145 13.3593H25.6282C28.1379 13.3593 30.1796 15.4054 30.1796 17.9207V28.0038C30.1796 30.519 28.1379 32.5652 25.6282 32.5652ZM4.55145 14.4673C2.65348 14.4673 1.10562 16.0148 1.10562 17.9207V28.0038C1.10562 29.9096 2.65348 31.4571 4.55145 31.4571H25.6282C27.5298 31.4571 29.074 29.9096 29.074 28.0038V17.9207C29.074 16.0148 27.5298 14.4673 25.6282 14.4673H4.55145Z" fill="#5F82A6"/>
<path class="secondary" d="M15.3384 30.0862L0.534221 18.4888C0.294671 18.3004 0.250447 17.9533 0.438401 17.7095C0.626356 17.4657 0.972782 17.4251 1.21602 17.6135L15.3421 28.679L29.2913 17.7538C29.5308 17.5655 29.8773 17.6061 30.0689 17.8498C30.2568 18.0899 30.2126 18.4408 29.9731 18.6292L15.3384 30.0862Z" fill="#5F82A6"/>
</g>
<defs>
<clipPath id="clip0">
<rect width="38" height="48" fill="white"/>
</clipPath>
</defs>
</svg>
