<svg width="50" height="50" viewBox="0 0 50 50" fill="none" xmlns="http://www.w3.org/2000/svg">
<path class="secondary" d="M38.6833 0H11.3167C5.06665 0 0 5.08767 0 11.3636V38.6364C0 44.9123 5.06665 50 11.3167 50H38.6833C44.9333 50 50 44.9123 50 38.6364V11.3636C50 5.08767 44.9333 0 38.6833 0Z" fill="#5F82A6"/>
<path d="M10.8181 12.3962H37.2282" stroke="white" stroke-width="1.26744" stroke-linecap="round" stroke-linejoin="round"/>
<path d="M37.2282 12.3962V38.9926H10.8181V12.3962" stroke="white" stroke-width="1.26744" stroke-linecap="round" stroke-linejoin="round"/>
<path d="M14.1055 11.1066V8.07633" stroke="#333750" stroke-width="1.26744" stroke-linecap="round" stroke-linejoin="round"/>
<path d="M21.1064 11.1066V8.07633" stroke="#333750" stroke-width="1.26744" stroke-linecap="round" stroke-linejoin="round"/>
<path d="M16.49 20.5672H17.478" stroke="#333750" stroke-width="1.26744" stroke-linecap="round" stroke-linejoin="round"/>
<path d="M16.49 26.2852H17.478" stroke="#333750" stroke-width="1.26744" stroke-linecap="round" stroke-linejoin="round"/>
<path d="M16.49 32.0031H17.478" stroke="#333750" stroke-width="1.26744" stroke-linecap="round" stroke-linejoin="round"/>
<path d="M23.3518 20.5672H24.3398" stroke="#333750" stroke-width="1.26744" stroke-linecap="round" stroke-linejoin="round"/>
<path d="M29.9353 20.5672H30.9233" stroke="#333750" stroke-width="1.26744" stroke-linecap="round" stroke-linejoin="round"/>
<path d="M28.1077 11.1066V8.07633" stroke="#333750" stroke-width="1.26744" stroke-linecap="round" stroke-linejoin="round"/>
<path d="M35.1086 11.1066V8.07633" stroke="#333750" stroke-width="1.26744" stroke-linecap="round" stroke-linejoin="round"/>
<path d="M25.1257 26.4835L30.4697 31.8497L45.0916 17.1672" stroke="white" stroke-width="1.26744" stroke-linecap="round" stroke-linejoin="round"/>
</svg>
