<svg width="42" height="42" viewBox="0 0 42 42" fill="none" xmlns="http://www.w3.org/2000/svg">
<path class="secondary" fill-rule="evenodd" clip-rule="evenodd" d="M8.4506 33.355H17.22V35.105H8.47005C8.05053 35.1144 7.63338 35.0398 7.24309 34.8857C6.8528 34.7315 6.49723 34.501 6.19727 34.2076C5.89731 33.9141 5.65901 33.5637 5.49634 33.1769C5.33368 32.7901 5.24995 32.3747 5.25005 31.955V11.4625C5.24773 11.0482 5.32762 10.6376 5.4851 10.2544C5.64258 9.87113 5.87452 9.52296 6.16749 9.22999C6.46046 8.93702 6.80863 8.70508 7.19186 8.5476C7.57508 8.39012 7.98574 8.31023 8.40005 8.31255H33.6001C34.0144 8.31023 34.425 8.39012 34.8082 8.5476C35.1915 8.70508 35.5396 8.93702 35.8326 9.22999C36.1256 9.52296 36.3575 9.87113 36.515 10.2544C36.6725 10.6376 36.7524 11.0482 36.75 11.4625V17.605H35V11.4527C35.0011 11.2699 34.9658 11.0887 34.8963 10.9195C34.8268 10.7504 34.7245 10.5967 34.5952 10.4674C34.4659 10.3381 34.3122 10.2358 34.1431 10.1663C33.9739 10.0968 33.7927 10.0615 33.6099 10.0625L33.6001 10.0626L8.39025 10.0625C8.20739 10.0615 8.02615 10.0968 7.85702 10.1663C7.68789 10.2358 7.53422 10.3381 7.40492 10.4674C7.27563 10.5967 7.17326 10.7504 7.10376 10.9195C7.03426 11.0887 6.999 11.2699 7.00002 11.4527L7.00008 11.4625L7.00005 31.955C7 32.1415 7.03722 32.3266 7.10951 32.4985C7.18181 32.6704 7.28772 32.8262 7.42104 32.9566C7.55435 33.087 7.71238 33.1895 7.88584 33.258C8.0593 33.3265 8.2447 33.3596 8.43116 33.3555L8.4506 33.355Z" fill="#5F82A6"/>
<path class="secondary" fill-rule="evenodd" clip-rule="evenodd" d="M14 15.8008V19.3008H10.5V15.8008H14Z" fill="#323751"/>
<path class="secondary" fill-rule="evenodd" clip-rule="evenodd" d="M14 21V24.5H10.5V21H14Z" fill="#323751"/>
<path class="secondary" fill-rule="evenodd" clip-rule="evenodd" d="M14 26.3008V29.8008H10.5V26.3008H14Z" fill="#323751"/>
<path class="secondary" fill-rule="evenodd" clip-rule="evenodd" d="M22.75 15.8008V19.3008H19.25V15.8008H22.75Z" fill="#323751"/>
<path class="secondary" fill-rule="evenodd" clip-rule="evenodd" d="M10.6748 12.25V5.25H12.4248V12.25H10.6748Z" fill="#5F82A6"/>
<path class="secondary" fill-rule="evenodd" clip-rule="evenodd" d="M16.9751 12.25V5.25H18.7251V12.25H16.9751Z" fill="#5F82A6"/>
<path class="secondary" fill-rule="evenodd" clip-rule="evenodd" d="M23.2749 12.25V5.25H25.0249V12.25H23.2749Z" fill="#5F82A6"/>
<path class="secondary" fill-rule="evenodd" clip-rule="evenodd" d="M29.5752 12.25V5.25H31.3252V12.25H29.5752Z" fill="#5F82A6"/>
<path class="secondary" fill-rule="evenodd" clip-rule="evenodd" d="M20.825 28.7167C20.8139 26.8603 21.4477 25.0575 22.6181 23.6164C23.7884 22.1753 25.4228 21.1851 27.242 20.815C29.0613 20.4449 30.9526 20.7179 32.5929 21.5872C34.2333 22.4565 35.5211 23.8683 36.2362 25.5816C36.9514 27.2948 37.0497 29.2031 36.5142 30.9807C35.9788 32.7584 34.8429 34.295 33.3005 35.3282C31.7581 36.3614 29.9048 36.8271 28.0572 36.6459C26.2095 36.4646 24.4821 35.6475 23.17 34.3342C22.4275 33.5992 21.8379 32.7243 21.4354 31.7601C21.0329 30.7959 20.8255 29.7615 20.825 28.7167ZM19.075 28.7167C19.0888 26.7988 19.6701 24.9279 20.7457 23.34C21.8213 21.752 23.343 20.518 25.1189 19.7936C26.8948 19.0692 28.8454 18.8868 30.7248 19.2695C32.6042 19.6521 34.3283 20.5826 35.6796 21.9437C37.0309 23.3047 37.949 25.0354 38.3181 26.9175C38.6873 28.7996 38.4909 30.7489 37.7537 32.5195C37.0166 34.2902 35.7717 35.8029 34.1761 36.8671C32.5804 37.9313 30.7054 38.4992 28.7875 38.4992C27.5061 38.4993 26.2374 38.2457 25.0544 37.7533C23.8714 37.2608 22.7976 36.5391 21.8948 35.6298C20.992 34.7205 20.2781 33.6415 19.7941 32.455C19.3101 31.2686 19.0657 29.9981 19.075 28.7167Z" fill="#333750"/>
<path class="secondary" d="M37.8877 21.0859L39.1127 22.3284L28.2627 33.1959L23.8877 28.8209L25.1127 27.5959L28.2627 30.7284L37.8877 21.0859Z" fill="#333750"/>
</svg>
