<svg width="24" height="25" viewBox="0 0 24 25" fill="none" xmlns="http://www.w3.org/2000/svg">
<path class="secondary" fill-rule="evenodd" clip-rule="evenodd" d="M13.2652 4.62904C13.1454 4.26146 12.9961 3.94645 12.8103 3.71315C12.6273 3.48336 12.3559 3.27148 11.9998 3.27148C11.6436 3.27148 11.3722 3.48336 11.1893 3.71315C11.0035 3.94645 10.8542 4.26146 10.7344 4.62904L10.7339 4.63051L9.05568 9.83398H3.56978C3.18281 9.83398 2.83675 9.87866 2.55708 9.9834C2.28172 10.0865 1.99644 10.2792 1.88582 10.6173C1.77496 10.9561 1.89207 11.2801 2.05464 11.5255C2.21949 11.7744 2.47374 12.0132 2.78723 12.2395L7.23093 15.4457L5.5244 20.659C5.40445 21.0271 5.33975 21.3702 5.35293 21.669C5.3659 21.9632 5.46121 22.2943 5.7488 22.5041C6.03693 22.7144 6.3816 22.7035 6.66615 22.6248C6.95463 22.5449 7.26142 22.3766 7.57484 22.1476L11.9998 18.9133L16.4249 22.1477C16.7383 22.3767 17.0449 22.5449 17.3334 22.6248C17.618 22.7035 17.9626 22.7144 18.2508 22.5041C18.5384 22.2943 18.6337 21.9632 18.6466 21.669C18.6598 21.3702 18.5951 21.0271 18.4752 20.659L16.769 15.4654L21.2124 12.2594C21.5259 12.0332 21.7801 11.7944 21.9449 11.5455C22.1075 11.3001 22.2246 10.9761 22.1137 10.6373C22.0031 10.2992 21.7179 10.1065 21.4425 10.0034C21.1628 9.89866 20.8168 9.85398 20.4298 9.85398H14.9443L13.2658 4.63101L13.2652 4.62904Z" fill="#232842"/>
</svg>
