<svg width="42" height="42" viewBox="0 0 42 42" fill="none" xmlns="http://www.w3.org/2000/svg">
<path class="secondary" fill-rule="evenodd" clip-rule="evenodd" d="M27.3843 5.30242L29.1518 7.05242L30.285 8.16313L30.267 8.18069H7.06257C6.07889 8.22479 5.15183 8.68001 4.48458 9.44659C3.81732 10.2132 3.46429 11.2286 3.50286 12.2703V28.5911C3.46429 29.6328 3.81732 30.6482 4.48458 31.4148C5.15183 32.1814 6.07889 32.6366 7.06257 32.6807L7.14093 30.9325C6.65274 30.9106 6.16877 30.6842 5.80457 30.2658C5.43747 29.8441 5.22907 29.2658 5.25166 28.6558C5.25246 28.6343 5.25286 28.6127 5.25286 28.5911V12.2703C5.25286 12.2487 5.25246 12.2271 5.25166 12.2056C5.22907 11.5955 5.43747 11.0173 5.80457 10.5956C6.1607 10.1864 6.63136 9.96094 7.10849 9.93069H28.4817L27.3875 11.0033L28.6125 12.253L32.1475 8.788C32.3154 8.62343 32.41 8.39822 32.41 8.16313C32.41 7.92803 32.3154 7.70282 32.1475 7.53825L30.3815 5.80729L28.6156 4.05884L27.3843 5.30242ZM36.7471 12.2703C36.7471 12.2487 36.7475 12.2271 36.7483 12.2056C36.7709 11.5955 36.5625 11.0173 36.1954 10.5956C35.8312 10.1771 35.3473 9.95082 34.8591 9.92894L34.9374 8.1807C35.9211 8.22479 36.8482 8.68001 37.5154 9.44659C38.1827 10.2132 38.5357 11.2286 38.4971 12.2703V28.5911C38.5357 29.6328 38.1827 30.6482 37.5154 31.4148C36.8482 32.1814 35.9211 32.6366 34.9374 32.6807L11.7858 32.6807L12.8832 33.7564L14.6507 35.5064L13.4194 36.75L11.6535 35.0016L9.88756 33.2706C9.71967 33.106 9.62506 32.8808 9.62506 32.6457C9.62506 32.4106 9.71967 32.1854 9.88756 32.0208L13.4226 28.5558L14.6476 29.8056L13.4997 30.9307L34.8915 30.9307C35.3686 30.9004 35.8393 30.675 36.1954 30.2658C36.5625 29.8441 36.7709 29.2658 36.7483 28.6558L36.7476 28.6311C36.7473 28.6178 36.7471 28.6044 36.7471 28.5911V12.2703ZM21.868 14.965C21.9456 14.9897 22.0224 15.0177 22.0981 15.049C22.6225 15.2663 23.0707 15.6341 23.3861 16.1061C23.7014 16.578 23.8698 17.1329 23.8698 17.7006H22.1198C22.1198 17.4791 22.0541 17.2625 21.931 17.0783C21.8079 16.8941 21.633 16.7506 21.4284 16.6658C21.2237 16.5811 20.9985 16.5589 20.7813 16.6021C20.564 16.6453 20.3644 16.752 20.2078 16.9086C20.0512 17.0652 19.9445 17.2648 19.9013 17.4821C19.8581 17.6993 19.8802 17.9245 19.965 18.1292C20.0498 18.3338 20.1933 18.5087 20.3775 18.6318C20.5617 18.7549 20.7782 18.8206 20.9998 18.8206V18.8207C21.5693 18.8172 22.1271 18.9823 22.6031 19.2951C23.0813 19.6093 23.4553 20.0586 23.6777 20.5857C23.9001 21.1129 23.9609 21.6942 23.8523 22.256C23.7437 22.8178 23.4707 23.3346 23.0679 23.741C22.732 24.0798 22.3185 24.329 21.8652 24.4683L21.8749 25.3738L20.125 25.3924L20.115 24.451C20.0487 24.4292 19.983 24.4049 19.9181 24.3782C19.3891 24.1605 18.9366 23.7904 18.6182 23.315C18.2998 22.8396 18.1298 22.2804 18.1298 21.7082L19.8798 21.7082C19.8798 21.9336 19.9467 22.1539 20.0722 22.3411C20.1976 22.5284 20.3758 22.6742 20.5843 22.76C20.7927 22.8458 21.0219 22.8677 21.2428 22.823C21.4638 22.7783 21.6664 22.669 21.8251 22.5089C21.9838 22.3489 22.0913 22.1453 22.1341 21.924C22.1769 21.7026 22.1529 21.4736 22.0653 21.266C21.9777 21.0583 21.8304 20.8813 21.642 20.7575C21.4536 20.6337 21.2328 20.5687 21.0074 20.5707L20.9998 19.6959V20.5706C20.4321 20.5706 19.8772 20.4022 19.4053 20.0869C18.9333 19.7715 18.5655 19.3233 18.3482 18.7989C18.131 18.2744 18.0742 17.6974 18.1849 17.1407C18.2956 16.5839 18.569 16.0725 18.9704 15.6712C19.293 15.3485 19.6867 15.1086 20.1179 14.9694L20.1075 14.0708L21.8574 14.0504L21.868 14.965Z" fill="#5F82A6"/>
</svg>
