<svg width="22" height="32" viewBox="0 0 22 32" fill="none" xmlns="http://www.w3.org/2000/svg">
  <path d="M11 31.9995C17.0751 31.9995 22 26.9405 22 20.6999C22 14.4594 17.0751 9.40039 11 9.40039C4.92487 9.40039 0 14.4594 0 20.6999C0 26.9405 4.92487 31.9995 11 31.9995Z" fill="#F6F6F6"/>
  <path d="M10.9943 15.691C10.5441 15.691 10.1807 15.3177 10.1807 14.8552V12.8104C10.1807 12.3479 10.5441 11.9746 10.9943 11.9746C11.4445 11.9746 11.8079 12.3479 11.8079 12.8104V14.8552C11.8079 15.3177 11.4445 15.691 10.9943 15.691Z" fill="#5F82A6"/>
  <path d="M10.9943 29.9097C10.5441 29.9097 10.1807 29.5364 10.1807 29.074V27.0291C10.1807 26.5667 10.5441 26.1934 10.9943 26.1934C11.4445 26.1934 11.8079 26.5667 11.8079 27.0291V29.074C11.8079 29.5364 11.4445 29.9097 10.9943 29.9097Z" fill="#5F82A6"/>
  <path d="M10.9946 21.5358C8.70567 21.5358 6.84521 19.8476 6.84521 17.7805C6.84521 15.7078 8.70567 14.0195 10.9946 14.0195C13.2836 14.0195 15.144 15.7078 15.144 17.7805C15.144 18.2429 14.7806 18.6162 14.3304 18.6162C13.8802 18.6162 13.5168 18.2429 13.5168 17.7805C13.5168 16.6271 12.3886 15.6911 10.9946 15.6911C9.60064 15.6911 8.47243 16.6271 8.47243 17.7805C8.47243 18.9283 9.60064 19.8643 10.9946 19.8643C11.4448 19.8643 11.8082 20.2376 11.8082 20.7001C11.8082 21.1625 11.4448 21.5358 10.9946 21.5358Z" fill="#333750"/>
  <path d="M10.9946 27.3815C8.70567 27.3815 6.84521 25.6933 6.84521 23.6262C6.84521 23.1637 7.20863 22.7904 7.65882 22.7904C8.10902 22.7904 8.47243 23.1637 8.47243 23.6262C8.47243 24.774 9.60064 25.71 10.9946 25.71C12.3886 25.71 13.5168 24.774 13.5168 23.6262C13.5168 22.4728 12.3886 21.5368 10.9946 21.5368C10.5444 21.5368 10.181 21.1635 10.181 20.701C10.181 20.2385 10.5444 19.8652 10.9946 19.8652C13.2836 19.8652 15.144 21.5535 15.144 23.6262C15.144 25.6933 13.2836 27.3815 10.9946 27.3815Z" fill="#333750"/>
  <path d="M16.896 5.85911C16.896 6.06348 16.8268 6.26784 16.6884 6.43246C16.3903 6.77874 15.8898 6.80713 15.5598 6.48923L10.9228 2.00461L6.28578 6.48923C5.96103 6.80713 5.45527 6.77875 5.15714 6.43246C4.85901 6.08618 4.88563 5.54689 5.21038 5.229L10.3851 0.222115C10.6885 -0.0730749 11.1517 -0.073075 11.4605 0.222115L16.6352 5.229C16.8109 5.3993 16.896 5.62637 16.896 5.85911Z" fill="#5F82A6"/>
</svg>