<svg width="15" height="16" viewBox="0 0 15 16" fill="none" xmlns="http://www.w3.org/2000/svg">
<path class="secondary" d="M0.00301004 15.5L1.01701 11.774C0.348863 10.6286 -0.00216797 9.32599 1.00742e-05 8C1.00742e-05 3.85775 3.35776 0.5 7.50001 0.5C11.6423 0.5 15 3.85775 15 8C15 12.1423 11.6423 15.5 7.50001 15.5C6.17459 15.5021 4.8725 15.1514 3.72751 14.4838L0.00301004 15.5ZM4.79326 4.481C4.69641 4.48701 4.60177 4.51252 4.51501 4.556C4.43365 4.60207 4.35938 4.65967 4.29451 4.727C4.20451 4.81175 4.15351 4.88525 4.09876 4.9565C3.82157 5.31725 3.67247 5.76006 3.67501 6.215C3.67651 6.5825 3.77251 6.94025 3.92251 7.27475C4.22926 7.95125 4.73401 8.6675 5.40076 9.33125C5.56126 9.491 5.71801 9.6515 5.88676 9.80075C6.7143 10.5293 7.70045 11.0548 8.76676 11.3353L9.19351 11.4005C9.33226 11.408 9.47101 11.3975 9.61051 11.3907C9.82894 11.3795 10.0422 11.3203 10.2353 11.2175C10.3335 11.1669 10.4293 11.1119 10.5225 11.0525C10.5225 11.0525 10.5548 11.0315 10.6163 10.985C10.7175 10.91 10.7798 10.8568 10.8638 10.769C10.926 10.7045 10.98 10.6287 11.0213 10.5425C11.0798 10.4202 11.1383 10.187 11.1623 9.99275C11.1803 9.84425 11.175 9.76325 11.1728 9.713C11.1698 9.63275 11.103 9.5495 11.0303 9.51425L10.5938 9.3185C10.5938 9.3185 9.94126 9.03425 9.54301 8.85275C9.50102 8.83445 9.45602 8.82402 9.41026 8.822C9.35894 8.81673 9.3071 8.8225 9.2582 8.83893C9.2093 8.85536 9.16448 8.88206 9.12676 8.91725V8.91575C9.12301 8.91575 9.07276 8.9585 8.53051 9.6155C8.49939 9.65732 8.45652 9.68893 8.40736 9.70629C8.35821 9.72366 8.305 9.72599 8.25451 9.713C8.20564 9.69993 8.15777 9.68339 8.11126 9.6635C8.01826 9.6245 7.98601 9.6095 7.92226 9.58175L7.91851 9.58025C7.48944 9.39292 7.09218 9.13988 6.74101 8.83025C6.64651 8.74775 6.55876 8.65775 6.46876 8.57075C6.17369 8.28818 5.91655 7.96851 5.70376 7.61975L5.65951 7.5485C5.62773 7.50062 5.60203 7.44898 5.58301 7.39475C5.55451 7.2845 5.62876 7.196 5.62876 7.196C5.62876 7.196 5.81101 6.9965 5.89576 6.8885C5.96633 6.79874 6.03217 6.70536 6.09301 6.60875C6.18151 6.46625 6.20926 6.32 6.16276 6.20675C5.95276 5.69375 5.73526 5.183 5.51176 4.676C5.46751 4.5755 5.33626 4.5035 5.21701 4.48925C5.17651 4.48475 5.13601 4.48025 5.09551 4.47725C4.99479 4.47225 4.89386 4.47325 4.79326 4.48025V4.481Z" fill="#5F82A6"/>
</svg>
