<svg width="241" height="203" viewBox="0 0 241 203" fill="none" xmlns="http://www.w3.org/2000/svg">
<g clip-path="url(#clip0)">
<path d="M246.733 200.121H0.391602V200.799H246.733V200.121Z" fill="#2F2E41"/>
<path d="M182.591 63.0628L176.332 56.5009C176.332 56.5009 169.447 46.1893 164.44 49.0016C159.433 51.8138 171.638 58.3757 171.638 58.3757L177.897 68.6873L182.591 63.0628Z" fill="#A0616A"/>
<path class="primary" d="M202.307 190.238C202.307 190.238 207.001 199.3 203.559 199.925C200.116 200.55 183.217 201.487 182.904 200.55C182.591 199.612 180.088 196.488 181.966 195.238C183.843 193.988 191.354 193.051 191.354 193.051L193.857 190.551L202.307 190.238Z" fill="#2F2E41"/>
<path d="M204.811 101.809C204.811 101.809 214.825 114.307 206.689 127.119L204.811 148.679C204.811 148.679 208.253 178.364 203.872 188.363L203.246 191.8H192.293L195.11 165.553C195.11 165.553 194.797 162.428 193.858 161.803C192.919 161.178 177.585 127.431 177.585 127.431C177.585 127.431 180.088 122.744 179.15 121.807C178.211 120.869 180.088 102.121 181.027 101.496C181.966 100.871 204.811 101.809 204.811 101.809Z" fill="#2F2E41"/>
<path d="M186.972 187.426L185.721 194.613L197.925 193.988L196.361 186.176L186.972 187.426Z" fill="#A0616A"/>
<path d="M189.163 59.9358C194.348 59.9358 198.551 55.7389 198.551 50.5617C198.551 45.3845 194.348 41.1875 189.163 41.1875C183.978 41.1875 179.774 45.3845 179.774 50.5617C179.774 55.7389 183.978 59.9358 189.163 59.9358Z" fill="#A0616A"/>
<path d="M197.612 52.125L198.551 63.374L188.537 68.0611C188.537 68.0611 190.258 57.5933 189.007 54.781L197.612 52.125Z" fill="#A0616A"/>
<path class="secondary" d="M187.286 67.4367L188.225 63.6871L201.056 59C201.056 59 202.308 59 201.995 61.1873C201.682 63.3746 201.682 63.0621 201.682 63.0621C201.682 63.0621 206.063 64.937 206.376 68.0617C206.689 71.1864 211.696 72.1238 211.383 76.8109C211.07 81.498 209.505 83.9977 209.505 83.9977C209.505 83.9977 211.07 87.7474 208.566 89.9347C208.566 89.9347 206.063 94.3093 207.315 97.434C208.566 100.559 210.131 105.871 206.689 104.933C203.246 103.996 179.463 102.434 179.463 102.434C179.463 102.434 176.02 89.6222 179.776 84.9351C179.776 84.9351 179.776 82.1229 182.592 76.4984C185.409 70.8739 187.286 67.4367 187.286 67.4367Z" fill="#575A89"/>
<path d="M203.871 102.746C203.871 102.746 199.803 119.932 194.796 121.807C194.796 121.807 193.857 134.306 188.537 133.681C183.217 133.056 188.537 121.807 188.537 121.807L194.483 100.246L203.871 102.746Z" fill="#A0616A"/>
<path class="secondary" d="M187.912 68.3743C187.912 68.3743 183.218 60.875 181.966 62.1249C180.714 63.3748 174.455 67.1244 174.768 69.6242C175.081 72.124 177.898 72.124 177.898 72.124L184.469 77.1235L187.912 68.3743Z" fill="#575A89"/>
<path d="M181.34 124.305L177.585 127L175.081 153.677C175.081 153.677 184.156 189.924 186.66 190.236C189.163 190.549 199.491 190.549 199.178 189.611C198.865 188.674 197.3 184.924 197.3 183.987C197.3 183.049 194.036 175.553 194.036 175.553L189.789 158.052L190.728 144.303L181.34 124.305Z" fill="#2F2E41"/>
<path class="primary" d="M186.034 192.113C186.034 192.113 199.177 188.051 199.803 188.988C200.429 189.926 204.604 199.373 198.761 200.43C192.918 201.487 171.951 203.362 171.951 200.55C171.951 197.737 172.577 195.862 174.455 195.862C176.332 195.862 184.782 191.8 185.408 190.863C186.034 189.926 186.034 192.113 186.034 192.113Z" fill="#2F2E41"/>
<path class="primary" d="M198.066 51.178C198.154 51.0034 198.184 50.8055 198.152 50.6127C198.12 50.4198 198.028 50.242 197.889 50.1046C197.75 49.9673 197.571 49.8775 197.377 49.848C197.184 49.8186 196.986 49.8511 196.812 49.9409L196.795 49.9503C196.523 50.1158 196.305 50.3578 196.169 50.6461C196.033 50.9345 195.986 51.2564 196.032 51.5716C194.903 50.4473 195.735 48.1925 194.516 47.1671C193.951 46.6925 193.035 46.588 192.745 45.9105C192.576 45.5161 192.691 45.0485 192.542 44.6462C192.322 44.0487 191.616 43.7992 190.985 43.7052C189.001 43.4098 186.994 43.9125 185.052 44.4113C184.337 44.5947 183.586 44.7985 183.066 45.3205C182.518 45.8703 182.327 46.6692 181.991 47.3686C181.655 48.068 179.451 48.0048 178.68 47.9058C178.412 47.1461 180.391 47.0888 180.552 46.2996C180.994 44.1426 179.456 41.8489 180.211 39.7801C180.665 38.5335 181.852 37.7083 183.047 37.1287C186.367 35.5351 190.157 35.2122 193.699 36.2211C194.06 36.3006 194.397 36.4632 194.683 36.6961C195.138 37.12 195.222 37.8007 195.525 38.3434C196.215 39.5799 197.852 39.8737 198.956 40.7621C200.627 42.1076 200.816 44.5371 200.87 46.6803C200.897 47.7595 200.916 48.881 200.473 49.866C200.031 50.851 198.982 51.6536 197.92 51.4472C197.971 51.3657 198.019 51.2746 198.066 51.178Z" fill="#2F2E41"/>
<path class="secondary" d="M196.434 71.4186C197.645 70.5792 199.101 70.1643 200.574 70.2391C202.046 70.3138 203.453 70.8739 204.573 71.8316C206.729 73.6617 209.05 76.2837 208.88 78.9977C208.567 83.9973 206.689 104.62 204.186 104.933C201.682 105.245 192.607 102.746 192.607 101.183C192.607 99.6209 194.797 97.746 194.797 97.746L192.137 81.8114C191.802 79.8795 192.013 77.8925 192.748 76.0741C193.482 74.2556 194.71 72.6778 196.293 71.5184C196.34 71.485 196.386 71.4517 196.434 71.4186Z" fill="#575A89"/>
<path d="M161.542 0.0276801H86.2435C82.6099 0.0276787 79.0845 1.26205 76.2466 3.5279C73.4088 5.79374 71.4275 8.95622 70.6283 12.4955L32.5814 181.001C32.1664 182.839 32.1591 184.746 32.56 186.587C32.9609 188.428 33.7602 190.159 34.902 191.659C36.0439 193.159 37.5005 194.391 39.1697 195.27C40.839 196.148 42.6805 196.652 44.5651 196.744L121.973 200.552C126.118 200.756 130.195 199.447 133.445 196.87C136.694 194.293 138.894 190.623 139.632 186.545L161.215 67.4096L162.82 67.8677L166.95 45.2871L165.297 44.8745L171.322 11.6196C171.58 10.1952 171.52 8.73151 171.146 7.33287C170.773 5.93424 170.095 4.63509 169.161 3.52804C168.227 2.42099 167.06 1.5333 165.743 0.928255C164.426 0.323213 162.992 0.015713 161.542 0.0276801Z" fill="#3F3D56"/>
<path d="M96.1567 3.66016H87.3671C84.8428 3.66016 82.3945 4.52215 80.4286 6.10303C78.4626 7.68391 77.0973 9.88859 76.5592 12.3511L40.0394 179.482C39.8291 180.444 39.8293 181.441 40.04 182.403C40.2506 183.365 40.6668 184.27 41.26 185.057C41.8532 185.844 42.6095 186.494 43.4773 186.962C44.345 187.43 45.3038 187.706 46.288 187.77L123.445 192.82C125.622 192.962 127.775 192.299 129.493 190.958C131.212 189.616 132.376 187.69 132.762 185.546L163.925 12.8C164.127 11.6819 164.08 10.5333 163.789 9.43509C163.497 8.33691 162.968 7.31598 162.238 6.44436C161.508 5.57273 160.596 4.87164 159.565 4.39057C158.535 3.90949 157.411 3.66016 156.273 3.66016H147.934C147.127 3.66016 146.343 3.92581 145.702 4.41598C145.062 4.90615 144.601 5.59349 144.391 6.37161C144.206 7.05854 143.799 7.66535 143.234 8.09808C142.668 8.53082 141.975 8.76534 141.263 8.76534H101.678C100.283 8.76534 98.9391 8.23952 97.9154 7.29302C96.8918 6.34652 96.2637 5.04909 96.1567 3.66016L96.1567 3.66016Z" fill="#E8E8E8"/>
<path class="primary" d="M151.416 46.8594H71.5762V47.2521H151.416V46.8594Z" fill="#2F2E41"/>
<path class="primary" d="M149.056 59.6211H68.4297V60.0138H149.056V59.6211Z" fill="#2F2E41"/>
<path class="primary" d="M146.374 46.2332L144.56 43.8182L144.874 43.5829L146.442 45.6699L152.484 40.7344L152.733 41.0384L146.374 46.2332Z" fill="#2F2E41"/>
<path class="primary" d="M139.646 81.007L137.832 78.5919L138.147 78.3563L139.715 80.4436L145.756 75.5078L146.005 75.8122L139.646 81.007Z" fill="#2F2E41"/>
<path class="primary" d="M65.7437 81.0409L65.7354 81.4336L145.778 83.1261L145.787 82.7334L65.7437 81.0409Z" fill="#2F2E41"/>
<path class="primary" d="M63.1868 92.6268L63.1777 93.0195L144.449 94.8936L144.458 94.5009L63.1868 92.6268Z" fill="#2F2E41"/>
<path class="secondary" opacity="0.7" d="M128.672 141.217C128.672 150.57 124.951 159.54 118.328 166.153C111.704 172.766 102.721 176.482 93.3545 176.482C83.9877 176.482 75.0046 172.766 68.3813 166.153C61.758 159.54 58.0371 150.57 58.0371 141.217C58.0371 140.776 58.0446 140.338 58.0631 139.9C58.4087 130.668 62.3689 121.94 69.092 115.593C75.8152 109.246 84.7644 105.787 94.0151 105.959C103.266 106.132 112.079 109.923 118.56 116.516C125.041 123.109 128.672 131.979 128.672 141.217Z" fill="#5F82A6"/>
<path class="primary" opacity="0.5" d="M125.326 154.956C125.326 155.397 125.318 155.835 125.3 156.273C121.874 163.519 116.079 169.384 108.869 172.903C101.66 176.422 93.4647 177.384 85.6341 175.632C77.8034 173.879 70.8038 169.517 65.7877 163.262C60.7716 157.008 58.0381 149.234 58.0371 141.221C58.0371 140.779 58.0446 140.341 58.0631 139.903C61.4891 132.657 67.284 126.792 74.4937 123.274C81.7035 119.755 89.8983 118.793 97.7289 120.545C105.56 122.298 112.559 126.66 117.575 132.915C122.591 139.169 125.325 146.943 125.326 154.956Z" fill="#323751"/>
<path d="M85.0874 156.484L85.8883 157.696L86.9526 156.708L129.914 116.839L130.712 116.098L130.075 115.215L127.738 111.975L126.923 110.844L125.901 111.792L86.9839 147.908L77.6296 133.761L76.8628 132.602L75.804 133.503L72.8512 136.015L72.0201 136.722L72.622 137.632L85.0874 156.484Z" fill="#3FC93C" stroke="#3FC93C" stroke-width="2.46341"/>
</g>
<defs>
<clipPath id="clip0">
<rect width="240.183" height="202" fill="white" transform="translate(0.146484 0.0273438)"/>
</clipPath>
</defs>
</svg>
