<svg width="123" height="103" viewBox="0 0 123 103" fill="none" xmlns="http://www.w3.org/2000/svg">
<g clip-path="url(#clip0_29732_7221)">
<path d="M15.6042 42.1023C15.553 42.1059 15.5015 42.1059 15.4502 42.1023L11.5669 41.5806C11.4186 41.5609 11.2757 41.512 11.1462 41.4366C11.0168 41.3612 10.9034 41.2609 10.8125 41.1413C10.7216 41.0218 10.6551 40.8854 10.6167 40.7399C10.5783 40.5945 10.5688 40.4428 10.5888 40.2937L10.9164 37.8158C10.935 37.6832 10.9123 37.5482 10.8514 37.4292C10.7905 37.3102 10.6945 37.2132 10.5765 37.1514C10.2129 36.967 9.8602 36.7616 9.52013 36.5362C9.40909 36.4656 9.27916 36.431 9.14793 36.4372C9.01671 36.4433 8.89054 36.4899 8.78652 36.5707L6.8131 38.0864C6.69438 38.1781 6.55884 38.2454 6.41425 38.2842C6.26966 38.3231 6.11886 38.3329 5.97051 38.313C5.82215 38.2931 5.67916 38.244 5.54973 38.1683C5.4203 38.0927 5.30698 37.9921 5.21626 37.8724L2.83691 34.7424C2.65348 34.5009 2.57286 34.1959 2.61275 33.8946C2.65264 33.5933 2.80979 33.3203 3.04966 33.1355L5.02064 31.6173C5.12714 31.5366 5.20619 31.4246 5.24691 31.2968C5.28763 31.1691 5.28803 31.0317 5.24805 30.9037C5.12062 30.5147 5.0153 30.1187 4.9326 29.7177C4.90433 29.5869 4.83647 29.4682 4.73837 29.3779C4.64027 29.2875 4.51676 29.23 4.38484 29.2132L1.92478 28.8835C1.77605 28.8643 1.63262 28.8155 1.50287 28.7399C1.37312 28.6642 1.25967 28.5633 1.16916 28.443C0.986014 28.2018 0.905133 27.8975 0.944185 27.5966L1.46261 23.689C1.48218 23.5398 1.53081 23.3959 1.60572 23.2657C1.68062 23.1354 1.78033 23.0213 1.89914 22.9299C2.01794 22.8384 2.1535 22.7715 2.29805 22.7329C2.4426 22.6942 2.59331 22.6847 2.74154 22.7047L5.20404 23.0345C5.33573 23.0531 5.46993 23.0303 5.58818 22.969C5.70642 22.9078 5.80289 22.8111 5.86429 22.6924C6.04741 22.3265 6.25154 21.9715 6.47564 21.6294C6.54583 21.5178 6.58041 21.3873 6.57473 21.2553C6.56905 21.1233 6.52337 20.9963 6.44384 20.8912L4.93505 18.8858C4.84391 18.7663 4.77711 18.6299 4.73847 18.4844C4.69983 18.3389 4.69011 18.1872 4.70988 18.0379C4.72964 17.8886 4.7785 17.7447 4.85365 17.6145C4.9288 17.4843 5.02875 17.3702 5.14779 17.2789L8.25098 14.8749C8.49154 14.6904 8.79475 14.6091 9.09464 14.6485C9.24286 14.6682 9.38574 14.7173 9.51501 14.7929C9.64428 14.8685 9.75739 14.9691 9.84781 15.0889L11.3566 17.0895C11.4369 17.1965 11.5483 17.2758 11.6754 17.3163C11.8024 17.3569 11.9388 17.3567 12.0658 17.3158C12.4537 17.1857 12.8489 17.0789 13.2493 16.996C13.3772 16.9656 13.4927 16.8965 13.5801 16.7979C13.6676 16.6993 13.7229 16.576 13.7384 16.4448L14.0661 13.9669C14.1068 13.6656 14.2646 13.3929 14.5047 13.2084C14.7449 13.0239 15.0479 12.9427 15.3475 12.9826L19.2283 13.5018C19.5277 13.5428 19.7987 13.7015 19.9821 13.9432C20.1654 14.1848 20.2461 14.4898 20.2064 14.7912L19.8788 17.2666C19.8598 17.3992 19.8824 17.5344 19.9433 17.6534C20.0042 17.7725 20.1005 17.8695 20.2187 17.931C20.5818 18.1164 20.9345 18.3217 21.2751 18.5462C21.3856 18.6179 21.5155 18.6533 21.6469 18.6475C21.7783 18.6418 21.9047 18.5952 22.0087 18.5142L24.009 16.996C24.1277 16.9043 24.2633 16.837 24.4079 16.7982C24.5524 16.7593 24.7032 16.7495 24.8516 16.7694C25 16.7893 25.1429 16.8384 25.2724 16.9141C25.4018 16.9897 25.5151 17.0903 25.6058 17.21L27.9852 20.3425C28.1686 20.584 28.2492 20.8889 28.2094 21.1902C28.1695 21.4915 28.0123 21.7645 27.7724 21.9493L25.8015 23.4675C25.6949 23.5476 25.6157 23.6592 25.575 23.7866C25.5342 23.914 25.5339 24.0511 25.574 24.1787C25.7012 24.5676 25.8057 24.9636 25.8871 25.3647C25.9157 25.496 25.9839 25.6151 26.0824 25.7058C26.1809 25.7966 26.3048 25.8545 26.4373 25.8716L28.8998 26.194C29.1987 26.235 29.4693 26.3933 29.6526 26.6345C29.8358 26.8756 29.9169 27.1799 29.8779 27.4809L29.3595 31.3885C29.3188 31.6897 29.161 31.9625 28.9209 32.1469C28.6807 32.3314 28.3777 32.4126 28.0781 32.3727L25.6181 32.043C25.4864 32.0243 25.3522 32.0472 25.2339 32.1084C25.1157 32.1697 25.0192 32.2663 24.9578 32.385C24.7747 32.751 24.5706 33.1059 24.3465 33.448C24.2763 33.5597 24.2417 33.6902 24.2474 33.8222C24.2531 33.9541 24.2987 34.0812 24.3783 34.1863L25.8871 36.1696C25.9782 36.289 26.045 36.4254 26.0836 36.5709C26.1223 36.7164 26.132 36.8681 26.1122 37.0174C26.0925 37.1667 26.0436 37.3106 25.9685 37.4408C25.8933 37.5711 25.7933 37.6851 25.6743 37.7764L22.5638 40.1731C22.3235 40.3574 22.0203 40.4381 21.7208 40.3975C21.4214 40.3569 21.1502 40.1983 20.967 39.9565L19.4582 37.9732C19.3781 37.8659 19.2667 37.7864 19.1396 37.7459C19.0125 37.7053 18.8759 37.7056 18.749 37.7469C18.362 37.8731 17.9686 37.9783 17.5703 38.0618C17.4425 38.0922 17.327 38.1613 17.2395 38.2599C17.152 38.3585 17.0968 38.4818 17.0812 38.613L16.7536 41.0909C16.7143 41.3638 16.5788 41.6133 16.3718 41.794C16.1649 41.9747 15.9002 42.0745 15.6262 42.0752L15.6042 42.1023ZM9.17533 35.9309C9.39349 35.9305 9.60693 35.9947 9.78913 36.1154C10.114 36.3299 10.4503 36.5263 10.7966 36.7035C11.0054 36.8113 11.1759 36.9816 11.2845 37.1909C11.3931 37.4003 11.4345 37.6383 11.4031 37.8724L11.073 40.3478C11.05 40.5204 11.0961 40.6951 11.2011 40.8335C11.3061 40.9719 11.4614 41.0627 11.6329 41.086L15.5162 41.6077C15.6023 41.62 15.6899 41.6149 15.7739 41.5925C15.8579 41.5701 15.9366 41.5309 16.0053 41.4772C16.0728 41.4253 16.1293 41.3601 16.1713 41.2857C16.2134 41.2113 16.24 41.1292 16.2498 41.0442L16.5799 38.5687C16.6094 38.3343 16.7108 38.115 16.8699 37.9413C17.029 37.7675 17.2379 37.648 17.4676 37.5992C17.8478 37.5203 18.2234 37.4201 18.5925 37.299C18.8158 37.2258 19.0563 37.2247 19.2803 37.2957C19.5044 37.3667 19.7008 37.5064 19.8421 37.6952L21.3484 39.6785C21.4548 39.8147 21.6104 39.9032 21.7813 39.9246C21.8671 39.938 21.9549 39.9336 22.039 39.9116C22.1231 39.8896 22.2018 39.8504 22.2703 39.7966L25.3833 37.3999C25.5195 37.2942 25.6085 37.1386 25.6309 36.9671C25.6534 36.7956 25.6074 36.6221 25.5031 36.4845L23.9943 34.4988C23.851 34.3119 23.769 34.0847 23.7598 33.8488C23.7506 33.6129 23.8146 33.3799 23.943 33.1823C24.1568 32.8563 24.3511 32.5177 24.525 32.1685C24.6318 31.9577 24.8014 31.7858 25.0101 31.6768C25.2188 31.5678 25.4562 31.5272 25.689 31.5607L28.149 31.8904C28.3206 31.9135 28.4942 31.8671 28.6317 31.7615C28.7693 31.6558 28.8595 31.4995 28.8826 31.3269L29.3888 27.4243C29.4009 27.3389 29.396 27.252 29.3744 27.1685C29.3528 27.0851 29.315 27.0068 29.2632 26.9381C29.2113 26.8695 29.1465 26.8118 29.0723 26.7686C28.9982 26.7253 28.9163 26.6973 28.8313 26.6861L26.3688 26.3564C26.1363 26.3262 25.9189 26.224 25.7467 26.064C25.5745 25.9039 25.4561 25.694 25.4078 25.4632C25.3288 25.0804 25.2284 24.7025 25.107 24.3312C25.035 24.1064 25.0342 23.8647 25.1047 23.6394C25.1753 23.4141 25.3136 23.2165 25.5007 23.0738L27.4741 21.5556C27.6104 21.4495 27.6995 21.2935 27.7219 21.1215C27.7444 20.9496 27.6984 20.7757 27.5939 20.6378L25.2146 17.5078C25.1627 17.44 25.098 17.3833 25.0241 17.341C24.9502 17.2988 24.8686 17.2718 24.7842 17.2617C24.6983 17.2488 24.6107 17.2535 24.5267 17.2755C24.4427 17.2975 24.3639 17.3363 24.2951 17.3897L22.3241 18.9079C22.1384 19.0521 21.9126 19.1346 21.6782 19.1439C21.4438 19.1531 21.2123 19.0887 21.0159 18.9596C20.6912 18.7455 20.3549 18.55 20.0084 18.3739C19.7996 18.2661 19.6291 18.0958 19.5205 17.8865C19.4119 17.6772 19.3705 17.4391 19.4019 17.2051L19.7296 14.7272C19.7416 14.6418 19.7367 14.5549 19.7152 14.4715C19.6936 14.388 19.6558 14.3097 19.6039 14.241C19.5521 14.1724 19.4872 14.1147 19.4131 14.0715C19.3389 14.0282 19.257 14.0002 19.172 13.989L15.2888 13.4673C15.2029 13.4546 15.1154 13.4594 15.0313 13.4814C14.9473 13.5034 14.8686 13.5421 14.7997 13.5953C14.6645 13.7025 14.5767 13.859 14.5552 14.0308L14.2275 16.5087C14.1976 16.743 14.0962 16.9621 13.9372 17.1358C13.7781 17.3095 13.5694 17.4292 13.3398 17.4783C12.9597 17.5575 12.5841 17.6577 12.2149 17.7785C11.9915 17.8505 11.7514 17.8511 11.5276 17.7802C11.3038 17.7092 11.1074 17.5702 10.9654 17.3823L9.45655 15.399C9.40493 15.3307 9.34043 15.2733 9.26673 15.2302C9.19303 15.187 9.1116 15.1589 9.02709 15.1475C8.94258 15.136 8.85666 15.1415 8.77426 15.1635C8.69185 15.1856 8.61458 15.2238 8.54687 15.2759L5.4339 17.6702C5.36587 17.7223 5.30877 17.7875 5.26589 17.862C5.22301 17.9364 5.1952 18.0187 5.18406 18.104C5.17292 18.1893 5.17867 18.276 5.20099 18.3591C5.2233 18.4422 5.26174 18.52 5.31408 18.588L6.82288 20.5713C6.96576 20.7589 7.04741 20.9864 7.0566 21.2226C7.0658 21.4587 7.00209 21.692 6.87423 21.8902C6.66054 22.2168 6.46541 22.5553 6.28978 22.904C6.18285 23.1142 6.01356 23.2856 5.80542 23.3945C5.59727 23.5034 5.36059 23.5444 5.12823 23.5118L2.66818 23.1821C2.58229 23.1691 2.49468 23.1737 2.41063 23.1957C2.32657 23.2177 2.24781 23.2566 2.1791 23.3101C2.04466 23.4169 1.95693 23.5722 1.93456 23.7431L1.41859 27.6507C1.40581 27.7371 1.41048 27.8252 1.43233 27.9098C1.45418 27.9944 1.49275 28.0736 1.54575 28.1428C1.6519 28.2781 1.80631 28.3664 1.97614 28.3889L4.44597 28.7162C4.67845 28.7463 4.89586 28.8485 5.06805 29.0086C5.24024 29.1686 5.3587 29.3786 5.407 29.6094C5.48511 29.9923 5.58555 30.3703 5.70779 30.7413C5.77978 30.9661 5.78057 31.2079 5.71003 31.4331C5.6395 31.6584 5.50113 31.856 5.31408 31.9987L3.34066 33.5169C3.20435 33.6231 3.11527 33.7791 3.09282 33.951C3.07038 34.123 3.11639 34.2969 3.22084 34.4348L5.60019 37.5648C5.65212 37.6325 5.71692 37.6891 5.79081 37.7313C5.8647 37.7736 5.9462 37.8006 6.03057 37.8108C6.11645 37.8231 6.20391 37.8182 6.28786 37.7962C6.37182 37.7742 6.4506 37.7357 6.51965 37.6829L8.49063 36.1646C8.68784 36.0145 8.92802 35.9325 9.17533 35.9309ZM15.3964 33.8959C15.2301 33.8959 15.0638 33.8959 14.8951 33.8737C13.2532 33.7351 11.7308 32.9541 10.6548 31.6985C9.57879 30.4429 9.03492 28.8129 9.13999 27.1583C9.24505 25.5037 9.99066 23.9565 11.2167 22.849C12.4428 21.7414 14.0516 21.1618 15.6977 21.2345C17.3437 21.3072 18.8958 22.0265 20.0207 23.2379C21.1456 24.4493 21.7536 26.0563 21.7142 27.7138C21.6747 29.3713 20.991 30.9471 19.8098 32.103C18.6286 33.2588 17.044 33.9025 15.3964 33.8959ZM15.3964 21.6712C13.8658 21.6677 12.3949 22.2682 11.2995 23.3438C10.204 24.4194 9.57142 25.8844 9.53745 27.4242C9.50349 28.9639 10.0709 30.4557 11.1178 31.5791C12.1648 32.7026 13.6077 33.3682 15.137 33.433C16.6662 33.4978 18.1596 32.9566 19.2967 31.9257C20.4338 30.8947 21.1238 29.4563 21.2186 27.9191C21.3134 26.3819 20.8054 24.8686 19.8037 23.7041C18.802 22.5397 17.3864 21.8169 15.861 21.6909C15.7143 21.6786 15.5602 21.6712 15.4062 21.6712H15.3964Z" fill="#C9D5E1"/>
<path d="M105.975 26.2277L106.418 20.4993C106.443 20.1522 106.331 19.809 106.105 19.5451C105.88 19.2812 105.559 19.1182 105.215 19.0918L101.6 18.8113C101.333 18.7923 101.078 18.6902 100.871 18.5192C100.664 18.3482 100.514 18.1166 100.444 17.8565C100.295 17.2921 100.115 16.7367 99.9032 16.1931C99.8073 15.9413 99.7913 15.6658 99.8574 15.4045C99.9235 15.1431 100.069 14.9089 100.272 14.7339L103.019 12.3643C103.281 12.1372 103.442 11.8149 103.468 11.4681C103.495 11.1212 103.383 10.778 103.158 10.5139L99.441 6.15353C99.2154 5.89397 98.8974 5.73404 98.5557 5.70827C98.214 5.68249 97.8758 5.79292 97.6143 6.01573L94.8681 8.38783C94.6655 8.56435 94.4135 8.67333 94.1468 8.69978C93.8801 8.72622 93.6118 8.66881 93.3789 8.53547C92.8741 8.23901 92.3523 7.97279 91.8163 7.73821C91.5716 7.62852 91.3668 7.44508 91.2301 7.21324C91.0935 6.98139 91.0317 6.71257 91.0533 6.44389L91.3272 2.81685C91.3406 2.64503 91.3201 2.47226 91.2669 2.30843C91.2137 2.1446 91.1289 1.99295 91.0174 1.86218C90.9058 1.73141 90.7697 1.62409 90.6168 1.54638C90.464 1.46867 90.2974 1.4221 90.1266 1.40935L84.4337 0.976266C84.0888 0.950493 83.7477 1.0635 83.4855 1.29047C83.2232 1.51745 83.0612 1.83985 83.035 2.18692L82.7611 5.81642C82.7422 6.08542 82.6408 6.34189 82.4708 6.55038C82.3009 6.75888 82.0707 6.90911 81.8123 6.98032C81.2514 7.12965 80.6994 7.31122 80.1592 7.52413C79.9094 7.62082 79.6359 7.63701 79.3765 7.57044C79.1172 7.50387 78.8848 7.35785 78.7115 7.15257L76.3542 4.38923C76.1285 4.12566 75.8083 3.96289 75.4635 3.9366C75.1188 3.91031 74.7778 4.02264 74.5153 4.24897L70.182 7.98428C70.0521 8.09652 69.9454 8.23344 69.868 8.3872C69.7906 8.54097 69.7442 8.70857 69.7312 8.88042C69.7183 9.05227 69.7391 9.22501 69.7926 9.38875C69.846 9.5525 69.931 9.70403 70.0427 9.83471L72.4 12.5956C72.5754 12.7995 72.6837 13.053 72.71 13.3214C72.7363 13.5898 72.6792 13.8597 72.5467 14.0941C72.255 14.5983 71.9929 15.1192 71.7618 15.6542C71.6536 15.9027 71.4711 16.1109 71.2396 16.2499C71.0081 16.3889 70.7392 16.4516 70.4706 16.4293L66.8661 16.1537C66.6954 16.1403 66.5237 16.1609 66.3609 16.2144C66.198 16.2679 66.0473 16.3533 65.9174 16.4655C65.7874 16.5778 65.6808 16.7147 65.6035 16.8686C65.5263 17.0224 65.48 17.1901 65.4674 17.3619L65.0321 23.0904C65.0191 23.2623 65.0399 23.4352 65.0933 23.599C65.1468 23.7628 65.2318 23.9145 65.3436 24.0452C65.4553 24.1759 65.5916 24.2832 65.7446 24.3609C65.8976 24.4386 66.0643 24.4851 66.2352 24.4979L69.8421 24.7759C70.1093 24.7944 70.3641 24.896 70.5713 25.0666C70.7785 25.2372 70.9279 25.4684 70.9988 25.7282C71.1472 26.2926 71.3276 26.848 71.5392 27.3916C71.6352 27.6434 71.6511 27.919 71.585 28.1803C71.5189 28.4416 71.3739 28.6759 71.17 28.8508L68.4238 31.2205C68.1617 31.4479 67.9999 31.7707 67.9738 32.1179C67.9477 32.4652 68.0594 32.8088 68.2844 33.0733L72.0039 37.4312C72.1154 37.562 72.2515 37.6694 72.4043 37.7472C72.5571 37.8251 72.7236 37.8718 72.8944 37.8848C73.0652 37.8979 73.2369 37.8769 73.3996 37.8231C73.5623 37.7694 73.7129 37.6838 73.8428 37.5715L76.584 35.1994C76.7866 35.0229 77.0386 34.9139 77.3053 34.8874C77.5721 34.861 77.8403 34.9184 78.0733 35.0517C78.5743 35.3452 79.092 35.609 79.6237 35.8416C79.8688 35.9514 80.0739 36.1353 80.2106 36.3676C80.3473 36.5999 80.4088 36.8693 80.3866 37.1384L80.1127 40.7679C80.0994 40.9397 80.1199 41.1125 80.1731 41.2763C80.2262 41.4401 80.311 41.5918 80.4226 41.7226C80.5341 41.8533 80.6702 41.9607 80.8231 42.0384C80.976 42.1161 81.1426 42.1626 81.3134 42.1754L87.0062 42.6134C87.1771 42.6265 87.3489 42.6055 87.5117 42.5518C87.6745 42.498 87.8252 42.4124 87.9551 42.3C88.0851 42.1875 88.1917 42.0504 88.2689 41.8964C88.3461 41.7425 88.3923 41.5747 88.405 41.4027L88.6813 37.7732C88.6997 37.5044 88.8006 37.248 88.9702 37.0395C89.1397 36.831 89.3695 36.6807 89.6277 36.6093C90.1886 36.46 90.7405 36.2784 91.2808 36.0655C91.531 35.969 91.8048 35.9529 92.0645 36.0195C92.3242 36.086 92.557 36.2319 92.7309 36.4371L95.0858 39.2004C95.3118 39.4642 95.6325 39.627 95.9777 39.6533C96.3228 39.6796 96.6642 39.5672 96.9272 39.3407L101.258 35.6005C101.52 35.3734 101.682 35.0511 101.708 34.7042C101.734 34.3574 101.622 34.0142 101.397 33.75L99.04 30.9867C98.8645 30.7828 98.7562 30.5292 98.7299 30.2609C98.7037 29.9925 98.7607 29.7225 98.8932 29.4881C99.1849 28.984 99.447 28.4631 99.6782 27.9281C99.7874 27.6814 99.97 27.475 100.201 27.3375C100.432 27.1999 100.7 27.138 100.967 27.1603L104.574 27.4359C104.745 27.4497 104.917 27.4293 105.08 27.376C105.243 27.3226 105.394 27.2374 105.524 27.1251C105.654 27.0128 105.761 26.8757 105.839 26.7217C105.916 26.5677 105.962 26.3998 105.975 26.2277ZM85.5097 30.6988C83.72 30.6556 81.9855 30.0675 80.5348 29.012C79.0842 27.9565 77.9856 26.4833 77.3841 24.7867C76.7827 23.0901 76.7065 21.2498 77.1657 19.5087C77.6249 17.7677 78.5979 16.2076 79.9563 15.0344C81.3147 13.8612 82.9946 13.1299 84.7745 12.9372C86.5543 12.7444 88.3505 13.0992 89.9259 13.9547C91.5012 14.8102 92.7818 16.1262 93.5987 17.7291C94.4156 19.3319 94.7303 21.1463 94.5013 22.9329C94.2215 25.1167 93.1477 27.1189 91.4872 28.553C89.8268 29.9871 87.6973 30.7515 85.5097 30.6988Z" fill="#C9D5E1"/>
<path d="M95.3767 92.5475C94.9598 92.5473 94.5544 92.4099 94.2224 92.1562C93.8903 91.9026 93.6499 91.5465 93.5378 91.1424L92.2931 86.664C92.2163 86.3812 92.0541 86.1294 91.829 85.9434C91.6038 85.7574 91.3268 85.6463 91.0362 85.6256C90.2884 85.5762 89.5439 85.4858 88.806 85.3549C88.5186 85.305 88.2228 85.3464 87.9599 85.4734C87.6969 85.6004 87.4798 85.8067 87.3388 86.0636L85.0719 90.1139C84.9494 90.3344 84.7849 90.5285 84.5877 90.685C84.3906 90.8415 84.1647 90.9573 83.9231 91.0259C83.6814 91.0944 83.4287 91.1144 83.1793 91.0846C82.93 91.0547 82.689 90.9757 82.47 90.8521L76.112 87.2546C75.8928 87.1313 75.7 86.9657 75.5445 86.7674C75.3889 86.569 75.2738 86.3417 75.2057 86.0985C75.1375 85.8554 75.1177 85.6011 75.1473 85.3502C75.177 85.0993 75.2555 84.8567 75.3784 84.6364L77.6599 80.5714C77.8047 80.3164 77.8671 80.0224 77.8386 79.7302C77.8102 79.4379 77.6922 79.1618 77.501 78.9399C77.0057 78.3738 76.5428 77.7798 76.1145 77.1609C75.9456 76.9218 75.7072 76.7414 75.4322 76.6445C75.1571 76.5475 74.8589 76.5388 74.5788 76.6195L70.1306 77.872C69.6426 78.0089 69.1205 77.9454 68.679 77.6954C68.2375 77.4453 67.9126 77.0292 67.7757 76.5383L65.8194 69.4737C65.7514 69.2307 65.7317 68.9766 65.7616 68.7259C65.7914 68.4752 65.8702 68.233 65.9933 68.013C66.1165 67.7931 66.2816 67.5997 66.4792 67.4442C66.6768 67.2886 66.903 67.1739 67.1448 67.1065L71.5954 65.854C71.8764 65.7768 72.1267 65.6136 72.3115 65.387C72.4964 65.1604 72.6068 64.8817 72.6274 64.5893C72.6743 63.8366 72.7641 63.0874 72.8963 62.3451C72.9459 62.0559 72.9048 61.7583 72.7786 61.4937C72.6523 61.2291 72.4474 61.0107 72.1921 60.8687L68.167 58.5877C67.7248 58.3382 67.3992 57.9223 67.2616 57.4314C67.124 56.9404 67.1858 56.4146 67.4334 55.9695L71.011 49.5717C71.1332 49.351 71.2976 49.1566 71.4947 49C71.6918 48.8433 71.9177 48.7273 72.1595 48.6587C72.4012 48.5901 72.6541 48.5703 72.9035 48.6003C73.1529 48.6303 73.394 48.7095 73.6128 48.8335L77.6379 51.1146C77.8913 51.2602 78.1835 51.323 78.4739 51.2944C78.7643 51.2657 79.0387 51.147 79.2592 50.9546C79.8212 50.4555 80.4115 49.9896 81.0272 49.5594C81.2648 49.3895 81.4441 49.1496 81.5404 48.8729C81.6368 48.5961 81.6454 48.2961 81.5652 48.0141L80.3205 43.5382C80.1939 43.0515 80.2618 42.5343 80.5095 42.0974C80.7573 41.6604 81.1652 41.3385 81.6459 41.2005L88.6666 39.232C88.9081 39.1635 89.1606 39.1437 89.4098 39.1738C89.6589 39.2038 89.8996 39.2831 90.1182 39.407C90.3368 39.5309 90.5289 39.6971 90.6835 39.8959C90.8381 40.0947 90.9521 40.3223 91.0191 40.5657L92.2638 45.0441C92.3401 45.3267 92.5018 45.5784 92.7265 45.7644C92.9513 45.9505 93.228 46.0616 93.5182 46.0825C94.267 46.1296 95.0124 46.22 95.7509 46.3532C96.0383 46.4027 96.3339 46.3611 96.5967 46.2342C96.8596 46.1072 97.0767 45.9011 97.2181 45.6445L99.485 41.5942C99.6075 41.374 99.7719 41.1802 99.9688 41.0239C100.166 40.8676 100.391 40.7519 100.633 40.6834C100.874 40.6148 101.127 40.5948 101.376 40.6244C101.625 40.654 101.866 40.7327 102.084 40.856L108.442 44.456C108.662 44.579 108.855 44.7445 109.011 44.9428C109.166 45.1411 109.282 45.3684 109.35 45.6117C109.418 45.855 109.438 46.1094 109.408 46.3604C109.378 46.6113 109.299 46.8539 109.176 47.0741L106.907 51.1146C106.762 51.3696 106.7 51.6635 106.728 51.9558C106.756 52.248 106.874 52.5242 107.066 52.746C107.561 53.3122 108.024 53.9062 108.452 54.5251C108.621 54.7639 108.859 54.9442 109.133 55.0412C109.408 55.1381 109.706 55.147 109.985 55.0664L114.436 53.8139C114.924 53.677 115.446 53.7405 115.888 53.9906C116.329 54.2406 116.654 54.6568 116.791 55.1476L118.747 62.2122C118.882 62.7026 118.818 63.2267 118.57 63.6699C118.321 64.113 117.909 64.4392 117.422 64.577L112.971 65.8294C112.69 65.9067 112.44 66.0699 112.255 66.2965C112.07 66.523 111.96 66.8018 111.939 67.0942C111.892 67.8468 111.802 68.5961 111.67 69.3384C111.621 69.6276 111.662 69.925 111.789 70.1895C111.915 70.454 112.12 70.6725 112.375 70.8148L116.4 73.0958C116.619 73.2191 116.811 73.3845 116.966 73.5827C117.122 73.7809 117.237 74.0079 117.305 74.2508C117.373 74.4937 117.393 74.7477 117.363 74.9983C117.334 75.249 117.256 75.4913 117.133 75.7115L113.558 82.1093C113.436 82.3301 113.271 82.5244 113.074 82.681C112.877 82.8377 112.651 82.9537 112.41 83.0223C112.168 83.0909 111.915 83.1107 111.666 83.0807C111.416 83.0507 111.175 82.9715 110.956 82.8475L106.931 80.5664C106.678 80.4208 106.386 80.358 106.095 80.3866C105.805 80.4153 105.53 80.534 105.31 80.7264C104.747 81.2248 104.157 81.6906 103.542 82.1216C103.304 82.2913 103.125 82.5311 103.028 82.808C102.932 83.0848 102.923 83.385 103.004 83.6669L104.249 88.1429C104.385 88.6339 104.322 89.1593 104.073 89.6036C103.825 90.0479 103.411 90.3748 102.923 90.5125L95.9025 92.481C95.7312 92.5282 95.5542 92.5505 95.3767 92.5475ZM88.5663 84.8406C88.6762 84.8408 88.7859 84.8507 88.894 84.8702C89.6132 84.9987 90.339 85.0867 91.068 85.1334C91.4599 85.1607 91.8338 85.3098 92.1378 85.5602C92.4419 85.8106 92.661 86.1499 92.7651 86.5311L94.0073 91.0096C94.1109 91.3729 94.3532 91.6804 94.6812 91.8647C95.0092 92.0491 95.3963 92.0955 95.7582 91.9938L102.779 90.0253C103.141 89.9221 103.447 89.6786 103.631 89.3482C103.814 89.0178 103.859 88.6276 103.757 88.2634L102.515 83.785C102.407 83.4047 102.419 82.9999 102.551 82.6272C102.682 82.2545 102.926 81.9323 103.248 81.7057C103.849 81.2862 104.424 80.8319 104.972 80.345C105.269 80.085 105.638 79.9243 106.03 79.8851C106.421 79.8458 106.815 79.93 107.156 80.126L111.181 82.407C111.51 82.5923 111.898 82.6391 112.261 82.5372C112.624 82.4353 112.932 82.193 113.118 81.8632L116.693 75.4654C116.877 75.135 116.924 74.7447 116.822 74.38C116.721 74.0152 116.48 73.7056 116.153 73.5191L112.128 71.238C111.784 71.0457 111.508 70.7505 111.338 70.3934C111.169 70.0362 111.114 69.6348 111.181 69.2449C111.309 68.5211 111.396 67.7908 111.443 67.0573C111.47 66.6626 111.619 66.2862 111.868 65.9802C112.117 65.6742 112.455 65.4538 112.834 65.3496L117.282 64.0996C117.644 63.9959 117.95 63.7522 118.133 63.422C118.317 63.0917 118.362 62.7019 118.261 62.3377L116.304 55.2731C116.201 54.9094 115.959 54.6015 115.631 54.417C115.303 54.2326 114.915 54.1865 114.553 54.2889L110.103 55.5389C109.724 55.6474 109.322 55.6347 108.951 55.5024C108.58 55.3701 108.26 55.1248 108.034 54.8007C107.617 54.2013 107.166 53.6262 106.684 53.0782C106.426 52.7799 106.266 52.4081 106.227 52.0144C106.188 51.6207 106.272 51.2245 106.467 50.8808L108.733 46.8305C108.917 46.4998 108.964 46.1091 108.863 45.7439C108.761 45.3787 108.521 45.0687 108.193 44.8817L101.835 41.2842C101.673 41.1915 101.494 41.1321 101.308 41.1092C101.123 41.0864 100.935 41.1007 100.755 41.1513C100.576 41.2018 100.408 41.2876 100.261 41.4037C100.114 41.5199 99.9918 41.6641 99.9007 41.828L97.6436 45.8758C97.4525 46.2217 97.1591 46.4993 96.8042 46.6699C96.4493 46.8405 96.0504 46.8958 95.6628 46.8281C94.9436 46.6998 94.2178 46.6119 93.4889 46.5648C93.0966 46.5374 92.7225 46.3879 92.4185 46.1371C92.1144 45.8862 91.8954 45.5464 91.7918 45.1647L90.5495 40.6887C90.4453 40.3257 90.203 40.0187 89.8752 39.8344C89.5473 39.6501 89.1605 39.6034 88.7987 39.7044L81.778 41.673C81.4161 41.7761 81.1098 42.0197 80.9263 42.3501C80.7429 42.6805 80.6974 43.0707 80.7998 43.4348L82.0421 47.9132C82.1501 48.2935 82.1375 48.6983 82.006 49.071C81.8745 49.4438 81.6306 49.7659 81.3085 49.9925C80.7084 50.4126 80.1328 50.8669 79.5845 51.3533C79.288 51.6132 78.9186 51.7739 78.5273 51.8132C78.136 51.8524 77.7423 51.7682 77.4007 51.5723L73.3756 49.2912C73.0469 49.1059 72.6587 49.0591 72.2958 49.161C71.9329 49.2629 71.6248 49.5053 71.4389 49.835L67.8638 56.2328C67.7717 56.3962 67.7126 56.5762 67.6899 56.7627C67.6672 56.9491 67.6814 57.1382 67.7317 57.3191C67.7819 57.5 67.8672 57.6691 67.9826 57.8167C68.098 57.9643 68.2413 58.0875 68.4042 58.1792L72.4268 60.4479C72.7706 60.6403 73.0464 60.9354 73.216 61.2926C73.3856 61.6497 73.4405 62.0511 73.3732 62.4411C73.2457 63.1648 73.1583 63.8951 73.1115 64.6286C73.0836 65.0231 72.9348 65.3992 72.6856 65.7051C72.4364 66.0109 72.0991 66.2315 71.7201 66.3363L67.272 67.5864C67.0917 67.6361 66.9232 67.7216 66.7762 67.8378C66.6292 67.954 66.5068 68.0986 66.4161 68.263C66.3243 68.4263 66.2654 68.6062 66.2427 68.7924C66.2201 68.9786 66.2341 69.1675 66.284 69.3482L68.2403 76.4128C68.3434 76.7766 68.5856 77.0844 68.9137 77.2689C69.2419 77.4534 69.6294 77.4995 69.9912 77.3971L74.4418 76.1471C74.8198 76.0383 75.222 76.051 75.5924 76.1833C75.9628 76.3157 76.283 76.5611 76.5082 76.8853C76.9251 77.4895 77.3766 78.0687 77.8605 78.62C78.1188 78.9183 78.2785 79.2901 78.3175 79.6838C78.3565 80.0775 78.2728 80.4737 78.0781 80.8174L75.8112 84.8677C75.6271 85.1985 75.5806 85.5891 75.6819 85.9543C75.7831 86.3195 76.0239 86.6295 76.3517 86.8166L82.7097 90.4141C82.8725 90.5074 83.0521 90.5674 83.2381 90.5907C83.4241 90.614 83.6128 90.6001 83.7935 90.5498C83.9741 90.4995 84.1431 90.4138 84.2907 90.2976C84.4383 90.1814 84.5617 90.037 84.6537 89.8727L86.9206 85.8224C87.0845 85.5273 87.3231 85.281 87.6121 85.1086C87.9011 84.9361 88.2303 84.8437 88.5663 84.8406ZM92.3298 77.4586C89.9065 77.4536 87.5449 76.6894 85.5729 75.2722C83.6009 73.8549 82.1164 71.8549 81.3256 69.55C80.5802 67.3233 80.5232 64.9215 81.1621 62.6615C81.801 60.4016 83.1058 58.3896 84.9043 56.8911C86.7028 55.3926 88.9106 54.478 91.2363 54.268C93.562 54.0579 95.8963 54.5623 97.9312 55.7146C99.9662 56.8669 101.606 58.6129 102.635 60.7223C103.663 62.8316 104.032 65.2052 103.693 67.5299C103.353 69.8546 102.322 72.0211 100.733 73.7435C99.1453 75.466 97.0755 76.6635 94.7972 77.1781C93.9876 77.3637 93.1601 77.4586 92.3298 77.4611V77.4586ZM92.2344 54.7342C91.4373 54.7331 90.6425 54.8214 89.8648 54.9975C87.0933 55.6143 84.6622 57.2768 83.0719 59.6427C81.4817 62.0087 80.8534 64.898 81.3163 67.7161C81.7792 70.5341 83.2981 73.0664 85.5604 74.7915C87.8226 76.5167 90.6561 77.3035 93.4775 76.99C96.2988 76.6765 98.8934 75.2866 100.727 73.1063C102.561 70.926 103.494 68.1213 103.335 65.2695C103.176 62.4177 101.936 59.7359 99.8709 57.7761C97.8059 55.8163 95.0729 54.7276 92.2344 54.7342Z" fill="#C9D5E1"/>
<path d="M109.719 91.5457C109.884 91.5457 110.018 91.4113 110.018 91.2455C110.018 91.0797 109.884 90.9453 109.719 90.9453C109.554 90.9453 109.421 91.0797 109.421 91.2455C109.421 91.4113 109.554 91.5457 109.719 91.5457Z" fill="#C9D5E1"/>
<path d="M122.929 10.1817C122.933 10.2235 122.928 10.2657 122.915 10.3056C122.902 10.3454 122.88 10.382 122.852 10.4131C122.824 10.4441 122.789 10.4689 122.751 10.4859C122.713 10.5028 122.672 10.5116 122.63 10.5116C122.588 10.5116 122.547 10.5028 122.509 10.4859C122.47 10.4689 122.436 10.4441 122.408 10.4131C122.38 10.382 122.358 10.3454 122.345 10.3056C122.332 10.2657 122.327 10.2235 122.33 10.1817C122.337 10.1064 122.372 10.0364 122.427 9.98547C122.482 9.93451 122.555 9.90625 122.63 9.90625C122.705 9.90625 122.777 9.93451 122.833 9.98547C122.888 10.0364 122.923 10.1064 122.929 10.1817Z" fill="#C9D5E1"/>
<path class="secondary" d="M61.2495 79.1924C80.9945 79.1924 97.001 63.0858 97.001 43.2173C97.001 23.3488 80.9945 7.24219 61.2495 7.24219C41.5045 7.24219 25.498 23.3488 25.498 43.2173C25.498 63.0858 41.5045 79.1924 61.2495 79.1924Z" fill="#575A89"/>
<path class="primary" d="M60.2007 78.3838C79.9456 78.3838 95.9521 62.2772 95.9521 42.4087C95.9521 22.5402 79.9456 6.43359 60.2007 6.43359C40.4557 6.43359 24.4492 22.5402 24.4492 42.4087C24.4492 62.2772 40.4557 78.3838 60.2007 78.3838Z" fill="#3F3D56"/>
<path class="primary" d="M83.6145 65.7618C96.5468 52.7485 96.5468 31.6499 83.6145 18.6367C70.6821 5.62341 49.7146 5.62341 36.7823 18.6367C23.85 31.6499 23.8499 52.7485 36.7823 65.7618C49.7146 78.775 70.6821 78.775 83.6145 65.7618Z" fill="#3F3D56"/>
<path class="secondary" d="M60.2174 75.6528C60.0022 75.6528 59.787 75.6528 59.5718 75.6528C52.9991 75.5277 46.6109 73.4441 41.215 69.6656C35.8191 65.8871 31.6579 60.5833 29.2576 54.425C26.8574 48.2667 26.3258 41.5305 27.7302 35.0682C29.1347 28.6059 32.4119 22.7078 37.1476 18.1198C50.3527 5.32425 71.4319 5.73026 84.143 19.0155C88.6612 23.7414 91.6992 29.6995 92.8792 36.1489C94.0591 42.5984 93.329 49.2546 90.7795 55.2898C88.23 61.325 83.9737 66.4729 78.5399 70.0934C73.106 73.7139 66.7344 75.6472 60.2174 75.6528ZM60.2002 9.02018C52.601 9.0277 45.2377 11.6768 39.3564 16.5193C33.475 21.3617 29.4369 28.1001 27.9253 35.5941C26.4137 43.088 27.5214 50.8774 31.0611 57.644C34.6008 64.4106 40.355 69.7389 47.35 72.7271C54.3449 75.7154 62.1511 76.1801 69.4474 74.0427C76.7438 71.9052 83.0822 67.2969 87.3901 60.9975C91.698 54.6981 93.7108 47.0945 93.0879 39.4734C92.465 31.8524 89.2446 24.6819 83.9718 19.1754C80.8959 15.9557 77.2039 13.396 73.1185 11.6507C69.033 9.90537 64.6386 9.01055 60.2002 9.02018Z" fill="#575A89"/>
<path d="M87.9924 48.7736C91.602 33.3245 82.0819 17.8561 66.7288 14.224C51.3757 10.5919 36.0035 20.1715 32.394 35.6206C28.7845 51.0698 38.3045 66.5381 53.6576 70.1702C69.0107 73.8023 84.3829 64.2227 87.9924 48.7736Z" fill="white"/>
<path class="secondary" d="M45.3987 26.5871H45.3815C45.2697 26.5851 45.1594 26.5608 45.057 26.5156C44.9546 26.4704 44.8621 26.4052 44.7849 26.3238L42.3811 23.8115C42.2369 23.6461 42.1616 23.4313 42.1707 23.2115C42.1797 22.9917 42.2725 22.7839 42.4297 22.6311C42.5869 22.4782 42.7965 22.3921 43.0151 22.3906C43.2337 22.3891 43.4445 22.4723 43.6037 22.623L46.0173 25.1353C46.1325 25.2567 46.2098 25.4095 46.2397 25.5746C46.2696 25.7397 46.2507 25.9101 46.1854 26.0645C46.1201 26.219 46.0112 26.3508 45.8723 26.4437C45.7333 26.5366 45.5704 26.5864 45.4035 26.5871H45.3987ZM42.9948 22.6082C42.8758 22.6081 42.7594 22.6431 42.66 22.7091C42.5607 22.7751 42.4828 22.869 42.4361 22.9792C42.3894 23.0894 42.376 23.211 42.3976 23.3288C42.4191 23.4466 42.4746 23.5554 42.5571 23.6417L44.9609 26.154C45.0733 26.2696 45.2259 26.3367 45.3864 26.3411C45.4664 26.343 45.5459 26.3287 45.6202 26.2992C45.6946 26.2696 45.7623 26.2252 45.8193 26.1688C45.877 26.1135 45.9232 26.0471 45.9551 25.9736C45.987 25.9001 46.004 25.8209 46.0051 25.7407C46.0068 25.6605 45.9928 25.5807 45.9638 25.506C45.9349 25.4313 45.8916 25.363 45.8364 25.3051L43.4326 22.7952C43.376 22.7359 43.308 22.6887 43.2328 22.6566C43.1575 22.6244 43.0766 22.608 42.9948 22.6082Z" fill="#575A89"/>
<path class="secondary" d="M77.7678 60.5456C77.6533 60.5458 77.54 60.5228 77.4346 60.478C77.3291 60.4331 77.2337 60.3674 77.154 60.2848L74.7502 57.7724C74.6061 57.607 74.5307 57.3922 74.5398 57.1724C74.5488 56.9527 74.6416 56.7448 74.7988 56.592C74.956 56.4392 75.1657 56.3531 75.3842 56.3516C75.6028 56.3501 75.8136 56.4333 75.9729 56.5839L78.3743 59.0963C78.4535 59.1763 78.516 59.2716 78.558 59.3764C78.6001 59.4813 78.6207 59.5935 78.6188 59.7065C78.6165 59.819 78.5922 59.9299 78.5473 60.0329C78.5024 60.1359 78.4378 60.2291 78.3571 60.3069C78.1991 60.4607 77.9876 60.5464 77.7678 60.5456ZM75.3615 56.5692C75.2048 56.5689 75.0541 56.6298 74.9409 56.7389C74.8832 56.7943 74.837 56.8606 74.8051 56.9342C74.7732 57.0077 74.7562 57.0869 74.7551 57.1671C74.7534 57.2473 74.7674 57.327 74.7964 57.4018C74.8253 57.4765 74.8686 57.5448 74.9238 57.6026L77.3276 60.1125C77.3828 60.1704 77.4488 60.2168 77.5219 60.2491C77.5949 60.2813 77.6735 60.2987 77.7532 60.3003C77.833 60.3019 77.9122 60.2876 77.9865 60.2584C78.0607 60.2291 78.1285 60.1854 78.186 60.1298C78.2437 60.0744 78.2899 60.0081 78.3218 59.9345C78.3537 59.861 78.3707 59.7818 78.3718 59.7016C78.3743 59.5393 78.3128 59.3827 78.2006 59.2661L75.8017 56.7537C75.7444 56.6948 75.6759 56.6482 75.6002 56.6165C75.5246 56.5848 75.4434 56.5687 75.3615 56.5692Z" fill="#575A89"/>
<path class="secondary" d="M42.2584 59.8032C42.1452 59.8032 42.0331 59.7805 41.9287 59.7364C41.8243 59.6923 41.7298 59.6276 41.6505 59.5463C41.5713 59.465 41.5089 59.3685 41.4672 59.2626C41.4255 59.1567 41.4051 59.0435 41.4074 58.9296C41.4084 58.8172 41.4319 58.7061 41.4764 58.6029C41.521 58.4998 41.5856 58.4067 41.6666 58.3292L44.1633 55.9104C44.2424 55.8299 44.337 55.7666 44.4413 55.7242C44.5456 55.6819 44.6574 55.6615 44.7698 55.6643C44.8816 55.6663 44.9919 55.6907 45.0943 55.7359C45.1967 55.781 45.2892 55.8462 45.3665 55.9276C45.5225 56.0914 45.6077 56.3107 45.6036 56.5375C45.5995 56.7643 45.5063 56.9803 45.3445 57.1383L42.8379 59.5645C42.6818 59.7151 42.4747 59.8004 42.2584 59.8032ZM44.7527 55.9178C44.5959 55.9173 44.4451 55.9782 44.3321 56.0876L41.8378 58.5064C41.7221 58.6189 41.6554 58.7729 41.6522 58.9347C41.649 59.0965 41.7096 59.253 41.8207 59.3701C41.9325 59.4865 42.0855 59.5536 42.2463 59.5568C42.4071 59.56 42.5627 59.4991 42.679 59.3873L45.1733 56.9685C45.2308 56.9129 45.2769 56.8465 45.309 56.773C45.341 56.6995 45.3583 56.6204 45.3599 56.5402C45.3614 56.46 45.3473 56.3802 45.3182 56.3055C45.2891 56.2308 45.2457 56.1626 45.1904 56.1048C45.1354 56.0467 45.0695 56.0002 44.9964 55.9681C44.9233 55.936 44.8446 55.9189 44.7649 55.9178H44.7527Z" fill="#575A89"/>
<path class="secondary" d="M76.0097 27.2314H75.9925C75.8241 27.2278 75.6604 27.1741 75.5222 27.077C75.384 26.98 75.2775 26.8439 75.216 26.686C75.1545 26.5281 75.1409 26.3554 75.1768 26.1897C75.2128 26.024 75.2966 25.8728 75.4179 25.755L77.9146 23.3361C77.9938 23.2558 78.0884 23.1925 78.1926 23.1502C78.2969 23.1079 78.4087 23.0874 78.5211 23.0901C78.6328 23.0924 78.7431 23.1168 78.8454 23.162C78.9478 23.2072 79.0403 23.2722 79.1177 23.3534C79.2737 23.5172 79.359 23.7364 79.3549 23.9633C79.3507 24.1901 79.2576 24.4061 79.0957 24.564L76.599 26.9829C76.4425 27.1403 76.2309 27.2295 76.0097 27.2314ZM78.504 23.346C78.3467 23.3454 78.1955 23.4073 78.0833 23.5182L75.5866 25.9445C75.4713 26.0573 75.405 26.2114 75.4023 26.3733C75.3995 26.5351 75.4605 26.6914 75.5719 26.8082C75.6269 26.8662 75.6929 26.9127 75.766 26.9448C75.839 26.9769 75.9177 26.9941 75.9974 26.9952C76.1583 26.9981 76.3138 26.9371 76.4303 26.8254L78.9246 24.4065C78.9821 24.351 79.0282 24.2846 79.0602 24.2111C79.0922 24.1376 79.1095 24.0585 79.1111 23.9783C79.1127 23.898 79.0986 23.8183 79.0695 23.7436C79.0404 23.6688 78.997 23.6006 78.9417 23.5428C78.8867 23.4847 78.8207 23.4383 78.7477 23.4062C78.6746 23.3741 78.5959 23.3569 78.5162 23.3558L78.504 23.346Z" fill="#575A89"/>
<path class="secondary" d="M37.8056 41.8351H37.7885L36.0254 41.8006C35.8563 41.7982 35.6919 41.7452 35.5529 41.6483C35.4139 41.5514 35.3068 41.4151 35.2451 41.2567C35.1835 41.0983 35.1701 40.925 35.2067 40.7589C35.2433 40.5928 35.3283 40.4415 35.4507 40.3242C35.613 40.1653 35.8308 40.077 36.0572 40.0781L37.8227 40.1101C37.9351 40.1113 38.0462 40.1347 38.1496 40.179C38.253 40.2233 38.3467 40.2877 38.4254 40.3685C38.5041 40.4492 38.5662 40.5448 38.6082 40.6497C38.6502 40.7547 38.6712 40.8669 38.6701 40.98C38.6689 41.0931 38.6457 41.2048 38.6016 41.3089C38.5576 41.413 38.4936 41.5073 38.4133 41.5864C38.3331 41.6656 38.2381 41.7281 38.1338 41.7703C38.0295 41.8126 37.918 41.8337 37.8056 41.8326V41.8351ZM36.0425 40.334C35.8804 40.334 35.7249 40.3989 35.6102 40.5142C35.4956 40.6296 35.4311 40.7861 35.4311 40.9492C35.4311 41.1124 35.4956 41.2688 35.6102 41.3842C35.7249 41.4996 35.8804 41.5644 36.0425 41.5644L37.8056 41.5988C37.8856 41.6011 37.9653 41.5873 38.04 41.5583C38.1146 41.5292 38.1827 41.4854 38.2404 41.4295C38.298 41.3736 38.3439 41.3066 38.3755 41.2326C38.4071 41.1586 38.4237 41.079 38.4243 40.9984C38.4259 40.9183 38.4118 40.8386 38.3828 40.7639C38.3539 40.6893 38.3105 40.6211 38.2554 40.5633C38.2002 40.5055 38.1342 40.4592 38.0612 40.427C37.9883 40.3949 37.9097 40.3775 37.8301 40.3759L36.0645 40.3439L36.0425 40.334Z" fill="#575A89"/>
<path class="secondary" d="M84.7522 42.8196H84.735L82.5538 42.7777C82.442 42.7755 82.3318 42.7511 82.2294 42.706C82.127 42.6609 82.0344 42.5959 81.957 42.5148C81.8796 42.4337 81.8188 42.338 81.7781 42.2332C81.7374 42.1285 81.7176 42.0166 81.7199 41.9042C81.7218 41.7917 81.7457 41.6807 81.7903 41.5776C81.8348 41.4744 81.8991 41.3811 81.9795 41.303C82.0599 41.2248 82.1548 41.1634 82.2588 41.1221C82.3628 41.0809 82.4738 41.0607 82.5856 41.0626L84.7668 41.1045C84.9938 41.1064 85.2108 41.199 85.3699 41.3619C85.529 41.5248 85.6173 41.7447 85.6154 41.9731C85.6134 42.2015 85.5214 42.4198 85.3595 42.5799C85.1976 42.74 84.9792 42.8289 84.7522 42.8269V42.8196ZM82.5709 41.3087C82.4519 41.3092 82.3356 41.3448 82.2365 41.4111C82.1373 41.4774 82.0597 41.5714 82.0131 41.6817C81.9665 41.7919 81.9531 41.9134 81.9744 42.0313C81.9958 42.1491 82.051 42.258 82.1332 42.3446C82.2455 42.4602 82.3981 42.5273 82.5587 42.5317L84.7399 42.5735C84.8989 42.5729 85.0513 42.5097 85.1647 42.3975C85.278 42.2854 85.3432 42.133 85.3464 41.9731C85.3481 41.8929 85.3341 41.8131 85.3051 41.7384C85.2762 41.6637 85.2329 41.5954 85.1777 41.5375C85.1224 41.4792 85.056 41.4325 84.9825 41.4004C84.909 41.3683 84.8299 41.3513 84.7497 41.3505L82.5684 41.3087H82.5709Z" fill="#575A89"/>
<path class="secondary" d="M59.8902 66.8174H59.8731C59.7614 66.8152 59.6511 66.7908 59.5487 66.7457C59.4463 66.7006 59.3538 66.6356 59.2763 66.5545C59.1989 66.4734 59.1381 66.3777 59.0974 66.2729C59.0567 66.1682 59.037 66.0563 59.0392 65.9439L59.071 64.1697C59.0768 63.9428 59.1711 63.7273 59.3336 63.5698C59.496 63.4123 59.7136 63.3255 59.9391 63.3282C60.1649 63.3334 60.3794 63.4281 60.5361 63.5917C60.6927 63.7553 60.7787 63.9746 60.7755 64.2017L60.7412 65.9759C60.7368 66.2002 60.6452 66.4139 60.4862 66.5712C60.3271 66.7284 60.1132 66.8168 59.8902 66.8174ZM59.9245 63.5743C59.7651 63.5742 59.612 63.6371 59.4982 63.7493C59.3843 63.8616 59.3188 64.0143 59.3156 64.1747L59.2838 65.9488C59.2821 66.029 59.2961 66.1087 59.3251 66.1835C59.354 66.2582 59.3973 66.3265 59.4525 66.3844C59.5075 66.4424 59.5735 66.4889 59.6465 66.521C59.7196 66.5531 59.7983 66.5703 59.878 66.5714C60.0381 66.5701 60.1921 66.5097 60.3108 66.4016C60.3689 66.346 60.4152 66.2792 60.4471 66.2052C60.4791 66.1313 60.4959 66.0516 60.4967 65.971L60.5309 64.1968C60.5334 64.0345 60.4719 63.8779 60.3597 63.7613C60.3049 63.7029 60.239 63.6563 60.1659 63.6242C60.0928 63.5921 60.014 63.5751 59.9343 63.5743H59.9245Z" fill="#575A89"/>
<path class="secondary" d="M60.8633 19.9972H60.8462C60.6205 19.992 60.4059 19.8973 60.2493 19.7337C60.0926 19.5701 60.0066 19.3508 60.0099 19.1237L60.0514 16.9287C60.0534 16.8162 60.0776 16.7052 60.1225 16.6022C60.1674 16.4991 60.2322 16.406 60.3131 16.3283C60.3922 16.248 60.4868 16.1847 60.5911 16.1424C60.6954 16.1001 60.8071 16.0796 60.9195 16.0823C61.1453 16.0874 61.3598 16.1821 61.5164 16.3457C61.6731 16.5094 61.7591 16.7286 61.7558 16.9558L61.7143 19.1507C61.7092 19.3749 61.6174 19.5882 61.4585 19.7453C61.2996 19.9025 61.0861 19.9911 60.8633 19.9923V19.9972ZM60.9024 16.3332C60.7453 16.3337 60.5946 16.3954 60.4818 16.5055C60.367 16.6185 60.3003 16.7721 60.296 16.9337L60.2544 19.1286C60.2519 19.2908 60.3134 19.4475 60.4256 19.5641C60.4808 19.6222 60.5468 19.6686 60.62 19.7008C60.6931 19.733 60.7719 19.7503 60.8517 19.7516C60.9315 19.753 61.0108 19.7385 61.085 19.7088C61.1592 19.6792 61.2268 19.635 61.2839 19.5789C61.3414 19.5234 61.3874 19.457 61.4193 19.3835C61.4512 19.31 61.4684 19.2309 61.4697 19.1507L61.5113 16.9558C61.5138 16.7935 61.4523 16.6369 61.3401 16.5203C61.2278 16.4047 61.0752 16.3376 60.9146 16.3332H60.9024Z" fill="#575A89"/>
<path class="secondary" d="M60.1835 41.41C60.2892 41.412 60.3942 41.3929 60.4925 41.3541C60.5909 41.3152 60.6807 41.2572 60.7567 41.1834C60.8328 41.1096 60.8937 41.0214 60.9359 40.9239C60.9781 40.8264 61.0008 40.7215 61.0027 40.6152L61.2473 26.5549C61.2492 26.4486 61.2303 26.3429 61.1917 26.2439C61.153 26.145 61.0954 26.0546 61.022 25.9781C60.9487 25.9015 60.8611 25.8403 60.7642 25.7978C60.6673 25.7553 60.563 25.7325 60.4574 25.7306C60.2438 25.7273 60.0376 25.8094 59.884 25.9588C59.7305 26.1083 59.642 26.3129 59.6382 26.5278L59.3936 40.5881C59.3904 40.8024 59.4717 41.0093 59.6197 41.1634C59.7678 41.3174 59.9705 41.4061 60.1835 41.41Z" fill="#575A89"/>
<path d="M60.6483 41.3167C60.7985 41.1642 60.8828 40.9581 60.8828 40.7434C60.8828 40.5286 60.7985 40.3226 60.6483 40.17L52.3902 31.853C52.2391 31.7019 52.0347 31.6172 51.8217 31.6172C51.6087 31.6172 51.4043 31.7019 51.2531 31.853C51.1782 31.9282 51.1187 32.0175 51.0781 32.1159C51.0375 32.2143 51.0166 32.3198 51.0166 32.4263C51.0166 32.5328 51.0375 32.6383 51.0781 32.7367C51.1187 32.8351 51.1782 32.9244 51.2531 32.9996L59.5087 41.3069C59.5828 41.383 59.6711 41.4436 59.7685 41.4853C59.866 41.527 59.9706 41.5489 60.0765 41.5498C60.1823 41.5507 60.2873 41.5306 60.3855 41.4906C60.4836 41.4506 60.5729 41.3915 60.6483 41.3167Z" fill="#575A89"/>
<path class="primary" d="M62.5079 43.4577C63.6115 42.2747 63.5531 40.4154 62.3774 39.3048C61.2018 38.1942 59.354 38.253 58.2503 39.436C57.1466 40.6191 57.205 42.4784 58.3807 43.589C59.5564 44.6996 61.4042 44.6408 62.5079 43.4577Z" fill="#3F3D56"/>
<path class="primary" d="M59.2226 42.6145C59.451 42.8535 59.7447 43.0189 60.0666 43.0899C60.3884 43.1609 60.724 43.1342 61.0308 43.0132C61.3375 42.8923 61.6018 42.6824 61.79 42.4103C61.9782 42.1381 62.082 41.8159 62.0881 41.4844C62.0943 41.1529 62.0026 40.827 61.8246 40.548C61.6466 40.2689 61.3904 40.0493 61.0883 39.9169C60.7863 39.7844 60.4519 39.7451 60.1277 39.8039C59.8034 39.8627 59.5038 40.017 59.2667 40.2473C58.9493 40.5555 58.7664 40.9779 58.7581 41.4217C58.7499 41.8655 58.9169 42.2945 59.2226 42.6145Z" fill="#3F3D56"/>
<path class="secondary" d="M60.4151 43.2524H60.3809C59.8966 43.2479 59.4339 43.0505 59.0938 42.7035C58.7538 42.3565 58.5642 41.8881 58.5664 41.4008C58.5687 40.9135 58.7627 40.447 59.1059 40.1032C59.4491 39.7594 59.9137 39.5664 60.398 39.5664C60.8823 39.5664 61.3469 39.7594 61.6901 40.1032C62.0333 40.447 62.2273 40.9135 62.2296 41.4008C62.2318 41.8881 62.0422 42.3565 61.7022 42.7035C61.3621 43.0505 60.8994 43.2479 60.4151 43.2524ZM60.4151 39.901C60.1124 39.9011 59.8163 39.9908 59.5639 40.159C59.3114 40.3271 59.1137 40.5663 58.9954 40.8467C58.8771 41.1271 58.8433 41.4364 58.8983 41.7359C58.9534 42.0355 59.0948 42.3121 59.3049 42.5314C59.4811 42.7152 59.6995 42.8523 59.9409 42.9308C60.1823 43.0093 60.4392 43.0267 60.6889 42.9815C60.9386 42.9362 61.1733 42.8297 61.3723 42.6714C61.5713 42.5131 61.7285 42.3079 61.8299 42.0738C61.9313 41.8398 61.9737 41.5843 61.9535 41.3298C61.9333 41.0753 61.8511 40.8298 61.7141 40.6149C61.5771 40.4001 61.3896 40.2225 61.1681 40.098C60.9467 39.9735 60.6981 39.9058 60.4445 39.901H60.4151Z" fill="#575A89"/>
<path class="tertiary" d="M69.6393 97.3186L72.1507 93.4824C72.3027 93.2504 72.3569 92.9671 72.3014 92.6949C72.2459 92.4226 72.0853 92.1837 71.8548 92.0306L69.4388 90.4287C69.2596 90.3112 69.1211 90.1406 69.0423 89.9405C68.9634 89.7405 68.9482 89.5207 68.9986 89.3116C69.1133 88.8596 69.2007 88.4011 69.2602 87.9385C69.2904 87.7249 69.3856 87.526 69.5327 87.3692C69.6799 87.2123 69.8717 87.1051 70.0819 87.0625L72.9161 86.4793C73.1851 86.423 73.4211 86.2622 73.5731 86.0319C73.7251 85.8016 73.7807 85.5203 73.728 85.249L72.8085 80.7509C72.7525 80.4802 72.5927 80.2427 72.3639 80.0898C72.135 79.9369 71.8554 79.8809 71.5858 79.9339L68.7541 80.5196C68.5445 80.5642 68.3262 80.5423 68.1296 80.4568C67.9329 80.3713 67.7674 80.2264 67.6561 80.0422C67.4184 79.6419 67.158 79.2557 66.876 78.8857C66.7472 78.7133 66.6749 78.5048 66.6692 78.2892C66.6635 78.0735 66.7247 77.8615 66.8442 77.6824L68.4337 75.2537C68.5094 75.1387 68.5617 75.0099 68.5878 74.8745C68.6139 74.7391 68.6131 74.5999 68.5856 74.4648C68.5582 74.3297 68.5045 74.2014 68.4276 74.0872C68.3508 73.9731 68.2523 73.8753 68.1378 73.7995L64.3279 71.2723C64.0967 71.1195 63.8146 71.0653 63.5436 71.1215C63.2726 71.1778 63.0349 71.34 62.8827 71.5726L61.2932 74.0012C61.1762 74.182 61.0063 74.3217 60.807 74.401C60.6077 74.4804 60.3888 74.4954 60.1806 74.4442C59.7278 74.3291 59.269 74.2395 58.8063 74.1759C58.5943 74.1455 58.397 74.0496 58.2415 73.9015C58.086 73.7534 57.98 73.5604 57.9381 73.3492L57.3561 70.4849C57.3001 70.2143 57.1404 69.9768 56.9115 69.8238C56.6826 69.6709 56.4031 69.6149 56.1335 69.668L51.6633 70.5932C51.3945 70.6495 51.1586 70.8104 51.007 71.0408C50.8555 71.2712 50.8004 71.5525 50.8539 71.8235L51.4359 74.6755C51.4795 74.8864 51.4574 75.1057 51.3725 75.3034C51.2875 75.5012 51.144 75.6677 50.9615 75.7803C50.5627 76.0183 50.1781 76.2796 49.8097 76.5628C49.639 76.6926 49.4324 76.7657 49.2185 76.7719C49.0046 76.778 48.7942 76.717 48.6164 76.5973L46.2003 74.9954C46.086 74.9197 45.958 74.8675 45.8236 74.8417C45.6892 74.8158 45.5511 74.8169 45.4171 74.8448C45.2832 74.8726 45.156 74.9268 45.0428 75.0041C44.9296 75.0815 44.8327 75.1805 44.7576 75.2956L42.2364 79.1465C42.0844 79.3785 42.0301 79.6618 42.0856 79.9341C42.1411 80.2063 42.3018 80.4452 42.5323 80.5983L44.9483 82.2002C45.1276 82.3182 45.2662 82.4892 45.3451 82.6897C45.4239 82.8902 45.439 83.1103 45.3885 83.3198C45.2747 83.7712 45.1873 84.2288 45.1268 84.6904C45.0966 84.904 45.0014 85.1029 44.8543 85.2598C44.7072 85.4167 44.5153 85.5238 44.3052 85.5664L41.471 86.1521C41.2021 86.2084 40.9663 86.3693 40.8147 86.5997C40.6631 86.8301 40.6081 87.1114 40.6615 87.3824L41.5786 91.8928C41.6346 92.1635 41.7943 92.401 42.0232 92.5539C42.2521 92.7069 42.5316 92.7628 42.8013 92.7098L45.633 92.1241C45.8426 92.0795 46.0608 92.1014 46.2575 92.1869C46.4542 92.2725 46.6196 92.4173 46.731 92.6015C46.9686 93.0018 47.2291 93.388 47.511 93.758C47.6399 93.9304 47.7122 94.1389 47.7179 94.3546C47.7236 94.5702 47.6624 94.7823 47.5428 94.9613L45.9533 97.3924C45.8778 97.5072 45.8254 97.6359 45.7994 97.7711C45.7734 97.9063 45.7741 98.0453 45.8016 98.1802C45.8291 98.3151 45.8828 98.4432 45.9596 98.5571C46.0364 98.6711 46.1349 98.7687 46.2492 98.8442L50.0591 101.371C50.2904 101.524 50.5725 101.578 50.8435 101.522C51.1144 101.466 51.3521 101.304 51.5044 101.071L53.0939 98.6425C53.2108 98.4617 53.3807 98.322 53.5801 98.2427C53.7794 98.1633 53.9983 98.1483 54.2065 98.1996C54.6561 98.3126 55.1117 98.4005 55.571 98.4628C55.783 98.4933 55.9803 98.5892 56.1358 98.7373C56.2913 98.8854 56.3972 99.0784 56.4391 99.2896L57.0211 102.134C57.0771 102.405 57.2369 102.642 57.4658 102.795C57.6946 102.948 57.9742 103.004 58.2438 102.951L62.714 102.026C62.9831 101.97 63.2194 101.809 63.3711 101.579C63.5228 101.348 63.5775 101.067 63.5234 100.796L62.9414 97.9436C62.8974 97.7328 62.9197 97.5135 63.0051 97.3159C63.0906 97.1184 63.2349 96.9525 63.4182 96.8413C63.8153 96.6009 64.199 96.3389 64.5676 96.0563C64.7384 95.9268 64.945 95.854 65.1588 95.8478C65.3726 95.8416 65.583 95.9025 65.7609 96.0218L68.1769 97.6238C68.2923 97.7022 68.4221 97.7567 68.5586 97.7839C68.6952 97.811 68.8358 97.8104 68.9721 97.7819C69.1085 97.7535 69.2377 97.6978 69.3523 97.6182C69.4669 97.5387 69.5645 97.4368 69.6393 97.3186ZM53.6123 92.4539C52.3786 91.725 51.3936 90.637 50.787 89.3333C50.1805 88.0296 49.9809 86.5715 50.2148 85.1514C50.4486 83.7313 51.1048 82.4158 52.0968 81.3786C53.0887 80.3414 54.3699 79.6312 55.7712 79.3417C57.1725 79.0522 58.6281 79.1969 59.946 79.7569C61.2639 80.3169 62.3821 81.2657 63.1531 82.4782C63.9241 83.6907 64.3117 85.11 64.2648 86.5487C64.2178 87.9874 63.7385 89.378 62.89 90.537C61.8527 91.9541 60.3304 92.9342 58.617 93.2882C56.9036 93.6422 55.1206 93.345 53.6123 92.4539Z" fill="#88A1BA"/>
<path class="secondary" d="M59.2391 38.7554L52.392 31.8655C52.3172 31.7904 52.2284 31.7308 52.1307 31.6902C52.033 31.6496 51.9283 31.6288 51.8226 31.6289C51.6091 31.6291 51.4045 31.7147 51.2537 31.8667C51.1029 32.0188 51.0183 32.2249 51.0186 32.4397C51.0188 32.6545 51.1038 32.8605 51.2549 33.0122L57.9846 39.784C58.2973 39.3279 58.7336 38.9718 59.2415 38.7579L59.2391 38.7554Z" fill="#575A89"/>
<path d="M51.2572 56.7027L50.1739 53.4005C50.1415 53.3016 50.0901 53.21 50.0225 53.1311C49.955 53.0522 49.8726 52.9875 49.7802 52.9406C49.6877 52.8938 49.587 52.8657 49.4838 52.8581C49.3806 52.8504 49.2769 52.8633 49.1786 52.8961L47.1025 53.59C46.9488 53.6416 46.7831 53.6441 46.628 53.5969C46.473 53.5497 46.3363 53.4553 46.2368 53.3267C46.0223 53.0478 45.7929 52.7808 45.5497 52.5269C45.437 52.4095 45.3638 52.2595 45.3401 52.098C45.3164 51.9365 45.3435 51.7716 45.4176 51.6263L46.3958 49.6578C46.4892 49.4695 46.5047 49.2515 46.4387 49.0518C46.3726 48.852 46.2306 48.6868 46.0436 48.5923L42.96 47.0347C42.7731 46.9405 42.5568 46.9246 42.3583 46.9905C42.1599 47.0565 41.9955 47.1989 41.9012 47.3866L40.923 49.3551C40.8511 49.5014 40.7357 49.6215 40.5928 49.6986C40.4499 49.7758 40.2867 49.8063 40.1258 49.7858C39.7786 49.7405 39.4292 49.715 39.0792 49.7095C38.9158 49.7073 38.7572 49.6536 38.6256 49.5561C38.494 49.4586 38.3961 49.322 38.3456 49.1657L37.6584 47.0766C37.59 46.8788 37.4469 46.7162 37.2601 46.6241C37.0733 46.532 36.8579 46.5177 36.6607 46.5844L33.3863 47.677C33.1876 47.7433 33.0232 47.8863 32.9292 48.0745C32.8352 48.2628 32.8193 48.4809 32.885 48.6809L33.5746 50.77C33.626 50.9246 33.6284 51.0914 33.5815 51.2475C33.5346 51.4035 33.4408 51.541 33.313 51.6411C33.0353 51.8563 32.7699 52.0871 32.5182 52.3326C32.4008 52.4448 32.2516 52.5177 32.0913 52.541C31.931 52.5644 31.7675 52.5371 31.6232 52.463L29.6669 51.4787C29.4801 51.3844 29.2637 51.3686 29.0652 51.4345C28.8668 51.5005 28.7024 51.6429 28.6081 51.8306L27.0601 54.9335C26.9665 55.1215 26.9507 55.3392 27.0162 55.5389C27.0818 55.7386 27.2233 55.9041 27.4098 55.999L29.3661 56.9832C29.511 57.0555 29.6301 57.1712 29.7067 57.3145C29.7834 57.4578 29.8139 57.6215 29.7941 57.783C29.7492 58.1331 29.7239 58.4856 29.7183 58.8386C29.7168 59.0032 29.6638 59.1631 29.5668 59.2957C29.4697 59.4282 29.3336 59.5266 29.1778 59.5768L27.1017 60.2707C27.0034 60.3033 26.9124 60.355 26.834 60.423C26.7556 60.491 26.6913 60.5738 26.6447 60.6669C26.5982 60.7599 26.5703 60.8612 26.5627 60.9651C26.5551 61.069 26.5679 61.1733 26.6004 61.2722L27.6862 64.5695C27.7545 64.7672 27.8977 64.9298 28.0845 65.022C28.2713 65.1141 28.4867 65.1284 28.6839 65.0616L30.76 64.3702C30.9134 64.3183 31.079 64.3154 31.234 64.3622C31.3891 64.4089 31.5259 64.5028 31.6257 64.631C31.8389 64.911 32.0683 65.178 32.3128 65.4307C32.4244 65.5489 32.4968 65.699 32.52 65.8603C32.5432 66.0216 32.5161 66.1862 32.4424 66.3313L31.4643 68.2999C31.4176 68.3929 31.3895 68.4943 31.3818 68.5983C31.3741 68.7022 31.3869 68.8067 31.4194 68.9056C31.4519 69.0046 31.5034 69.0962 31.5712 69.1751C31.6389 69.254 31.7214 69.3186 31.814 69.3654L34.8976 70.9254C35.0847 71.0195 35.3013 71.035 35.4998 70.9686C35.6983 70.9022 35.8625 70.7592 35.9564 70.5711L36.9346 68.6025C37.0065 68.4567 37.1215 68.3369 37.2638 68.2594C37.4061 68.1818 37.5687 68.1504 37.7293 68.1695C38.0773 68.2155 38.4275 68.2417 38.7784 68.2482C38.9416 68.2499 39.1001 68.303 39.2317 68.4001C39.3634 68.4973 39.4614 68.6334 39.512 68.7896L40.2016 70.8811C40.2695 71.0787 40.4121 71.2412 40.5985 71.3334C40.785 71.4256 41 71.4399 41.1969 71.3733L44.4737 70.2807C44.67 70.2125 44.8315 70.0689 44.9231 69.8813C45.0147 69.6937 45.029 69.4773 44.9628 69.2792L44.2756 67.1901C44.2236 67.0358 44.2207 66.8691 44.2671 66.713C44.3136 66.5569 44.4071 66.4192 44.5348 66.319C44.8125 66.1038 45.0778 65.8729 45.3296 65.6276C45.4465 65.5146 45.5956 65.4411 45.756 65.4173C45.9164 65.3934 46.0802 65.4205 46.2246 65.4947L48.1809 66.479C48.368 66.5731 48.5846 66.5886 48.7831 66.5222C48.9816 66.4557 49.1459 66.3128 49.2397 66.1247L50.7901 63.0217C50.8836 62.8334 50.899 62.6155 50.833 62.4157C50.767 62.216 50.6249 62.0507 50.438 61.9563L48.4817 60.972C48.3366 60.8991 48.2174 60.783 48.1403 60.6394C48.0633 60.4959 48.0322 60.3318 48.0513 60.1698C48.0971 59.8205 48.1232 59.4689 48.1295 59.1166C48.1316 58.9525 48.1845 58.7931 48.281 58.6608C48.3774 58.5284 48.5126 58.4297 48.6675 58.3784L50.7461 57.687C50.9421 57.6225 51.1053 57.4835 51.2008 57.2996C51.2963 57.1157 51.3165 56.9014 51.2572 56.7027ZM40.8814 63.9912C39.8734 64.3869 38.7698 64.4657 37.7164 64.2173C36.6629 63.9689 35.709 63.405 34.9806 62.5999C34.2522 61.7948 33.7835 60.7864 33.6363 59.7077C33.4891 58.6291 33.6704 57.5309 34.1562 56.558C34.642 55.5852 35.4095 54.7834 36.3575 54.2585C37.3054 53.7335 38.3892 53.5101 39.4659 53.6178C40.5426 53.7254 41.5616 54.159 42.3884 54.8613C43.2152 55.5636 43.811 56.5016 44.0971 57.5517C44.4468 58.8352 44.3118 60.2035 43.7179 61.3927C43.1241 62.5819 42.1136 63.5076 40.8814 63.9912Z" fill="#C9D5E1"/>
</g>
<defs>
<clipPath id="clip0_29732_7221">
<rect width="122" height="102" fill="white" transform="translate(0.926758 0.972656)"/>
</clipPath>
</defs>
</svg>
