<svg width="178" height="156" viewBox="0 0 178 156" fill="none" xmlns="http://www.w3.org/2000/svg">
<path d="M176.001 78C176.001 119.963 141.787 154 99.5598 154C57.3322 154 23.1191 119.963 23.1191 78C23.1191 36.037 57.3322 2 99.5598 2C141.787 2 176.001 36.037 176.001 78Z" stroke="white" stroke-width="4"/>
<ellipse cx="99.5596" cy="78" rx="65.3672" ry="65" fill="white"/>
<mask id="path-3-inside-1" fill="white">
<path fill-rule="evenodd" clip-rule="evenodd" d="M127.043 53H73.4121V119H98.5075V119.08H155.579V81.5358C155.579 67.3756 145.265 55.6243 131.74 53.3846V53H127.043Z"/>
</mask>
<path fill-rule="evenodd" clip-rule="evenodd" d="M127.043 53H73.4121V119H98.5075V119.08H155.579V81.5358C155.579 67.3756 145.265 55.6243 131.74 53.3846V53H127.043Z" fill="#DCD8D8"/>
<path class="primary" d="M73.4121 53V52H72.4121V53H73.4121ZM73.4121 119H72.4121V120H73.4121V119ZM98.5075 119H99.5075V118H98.5075V119ZM98.5075 119.08H97.5075V120.08H98.5075V119.08ZM155.579 119.08V120.08H156.579V119.08H155.579ZM131.74 53.3846H130.74V54.2327L131.576 54.3712L131.74 53.3846ZM131.74 53H132.74V52H131.74V53ZM73.4121 54H127.043V52H73.4121V54ZM74.4121 119V53H72.4121V119H74.4121ZM98.5075 118H73.4121V120H98.5075V118ZM97.5075 119V119.08H99.5075V119H97.5075ZM98.5075 120.08H155.579V118.08H98.5075V120.08ZM156.579 119.08V81.5358H154.579V119.08H156.579ZM156.579 81.5358C156.579 66.8784 145.903 54.7163 131.903 52.3981L131.576 54.3712C144.627 56.5322 154.579 67.8728 154.579 81.5358H156.579ZM130.74 53V53.3846H132.74V53H130.74ZM127.043 54H131.74V52H127.043V54Z" fill="#3F3D56" mask="url(#path-3-inside-1)"/>
<mask id="path-5-inside-2" fill="white">
<path fill-rule="evenodd" clip-rule="evenodd" d="M120.703 47C123.189 47 125.203 44.9853 125.203 42.5C125.203 40.0147 123.189 38 120.703 38H116.152H116.127C113.642 38 111.627 40.0147 111.627 42.5C111.627 42.5043 111.627 42.5087 111.627 42.513C111.627 42.5172 111.627 42.5213 111.627 42.5254L111.627 81.4746C111.627 83.9739 113.653 86 116.152 86C118.652 86 120.678 83.9739 120.678 81.4746L120.678 47H120.703Z"/>
</mask>
<path class="primary" fill-rule="evenodd" clip-rule="evenodd" d="M120.703 47C123.189 47 125.203 44.9853 125.203 42.5C125.203 40.0147 123.189 38 120.703 38H116.152H116.127C113.642 38 111.627 40.0147 111.627 42.5C111.627 42.5043 111.627 42.5087 111.627 42.513C111.627 42.5172 111.627 42.5213 111.627 42.5254L111.627 81.4746C111.627 83.9739 113.653 86 116.152 86C118.652 86 120.678 83.9739 120.678 81.4746L120.678 47H120.703Z" fill="#323751"/>
<path d="M111.627 42.5H112.627H111.627ZM111.627 42.513L112.627 42.5157L112.627 42.5102L111.627 42.513ZM111.627 42.5254H112.627H111.627ZM111.627 81.4746H112.627H111.627ZM120.678 81.4746H119.678H120.678ZM120.678 47V46H119.678V47H120.678ZM124.203 42.5C124.203 44.433 122.636 46 120.703 46V48C123.741 48 126.203 45.5376 126.203 42.5H124.203ZM120.703 39C122.636 39 124.203 40.567 124.203 42.5H126.203C126.203 39.4624 123.741 37 120.703 37V39ZM116.152 39H120.703V37H116.152V39ZM116.127 39H116.152V37H116.127V39ZM112.627 42.5C112.627 40.567 114.194 39 116.127 39V37C113.089 37 110.627 39.4624 110.627 42.5H112.627ZM112.627 42.5102C112.627 42.5068 112.627 42.5034 112.627 42.5H110.627C110.627 42.5053 110.627 42.5106 110.627 42.5159L112.627 42.5102ZM112.627 42.5254C112.627 42.5222 112.627 42.5189 112.627 42.5157L110.627 42.5104C110.627 42.5154 110.627 42.5204 110.627 42.5254H112.627ZM112.627 81.4746L112.627 42.5254H110.627L110.627 81.4746H112.627ZM116.152 85C114.205 85 112.627 83.4216 112.627 81.4746H110.627C110.627 84.5262 113.101 87 116.152 87V85ZM119.678 81.4746C119.678 83.4216 118.099 85 116.152 85V87C119.204 87 121.678 84.5262 121.678 81.4746H119.678ZM119.678 47L119.678 81.4746H121.678L121.678 47H119.678ZM120.703 46H120.678V48H120.703V46Z" fill="#3F3D56" mask="url(#path-5-inside-2)"/>
<mask id="path-7-inside-3" fill="white">
<path fill-rule="evenodd" clip-rule="evenodd" d="M73.8805 53C58.1206 53 45.3447 65.776 45.3447 81.5359V119.08H102.416V81.5358C102.416 65.7759 89.6404 53 73.8805 53Z"/>
</mask>
<path fill-rule="evenodd" clip-rule="evenodd" d="M73.8805 53C58.1206 53 45.3447 65.776 45.3447 81.5359V119.08H102.416V81.5358C102.416 65.7759 89.6404 53 73.8805 53Z" fill="#C4C4C4"/>
<path class="primary" d="M45.3447 119.08H44.3447V120.08H45.3447V119.08ZM102.416 119.08V120.08H103.416V119.08H102.416ZM46.3447 81.5359C46.3447 66.3282 58.6729 54 73.8805 54V52C57.5684 52 44.3447 65.2237 44.3447 81.5359H46.3447ZM46.3447 119.08V81.5359H44.3447V119.08H46.3447ZM45.3447 120.08H102.416V118.08H45.3447V120.08ZM101.416 81.5358V119.08H103.416V81.5358H101.416ZM73.8805 54C89.0882 54 101.416 66.3282 101.416 81.5358H103.416C103.416 65.2236 90.1927 52 73.8805 52V54Z" fill="#3F3D56" mask="url(#path-7-inside-3)"/>
<rect class="primary" x="51.7881" y="77.5" width="43.2486" height="6" fill="#3F3D56" stroke="#3F3D56"/>
<rect x="0.576594" y="73.0148" width="65.4429" height="46.4296" transform="rotate(-9.62961 0.576594 73.0148)" fill="white" stroke="#3F3D56"/>
<path class="stroke" d="M1.71992 72.8195L34.6594 87.4441L63.4618 62.4026L1.71992 72.8195Z" fill="#F2F2F2" stroke="#3F3D56"/>
</svg>