<svg width="258" height="280" viewBox="0 0 258 280" fill="none" xmlns="http://www.w3.org/2000/svg">
<g clip-path="url(#clip0)">
<path d="M139.168 279.197C204.797 279.197 258 225.925 258 160.21C258 94.495 204.797 41.2227 139.168 41.2227C73.5395 41.2227 20.3368 94.495 20.3368 160.21C20.3368 225.925 73.5395 279.197 139.168 279.197Z" fill="#F2F2F2"/>
<path d="M69.7762 139.171C70.6239 137.689 71.0619 136.008 71.0451 134.301C71.0451 129.9 68.3233 126.332 64.9657 126.332C61.6082 126.332 58.8863 129.9 58.8863 134.301C58.8696 136.008 59.3076 137.689 60.1552 139.171C59.3232 140.659 58.8863 142.335 58.8863 144.041C58.8863 145.746 59.3232 147.423 60.1552 148.911C59.3232 150.398 58.8863 152.075 58.8863 153.78C58.8863 155.486 59.3232 157.162 60.1552 158.65C59.3232 160.138 58.8863 161.815 58.8863 163.52C58.8863 165.225 59.3232 166.902 60.1552 168.39C59.3076 169.872 58.8696 171.553 58.8863 173.26C58.8863 177.661 61.6082 181.229 64.9657 181.229C68.3233 181.229 71.0451 177.661 71.0451 173.26C71.0619 171.553 70.6239 169.872 69.7762 168.39C70.6082 166.902 71.0451 165.225 71.0451 163.52C71.0451 161.815 70.6082 160.138 69.7762 158.65C70.6082 157.162 71.0451 155.486 71.0451 153.78C71.0451 152.075 70.6082 150.398 69.7762 148.911C70.6082 147.423 71.0451 145.746 71.0451 144.041C71.0451 142.335 70.6082 140.659 69.7762 139.171Z" fill="#3F3D56"/>
<path d="M64.9657 132.528C68.3233 132.528 71.0451 128.96 71.0451 124.559C71.0451 120.158 68.3233 116.59 64.9657 116.59C61.6082 116.59 58.8864 120.158 58.8864 124.559C58.8864 128.96 61.6082 132.528 64.9657 132.528Z" fill="#3F3D56"/>
<path d="M64.9657 122.789C68.3233 122.789 71.0451 119.222 71.0451 114.82C71.0451 110.419 68.3233 106.852 64.9657 106.852C61.6082 106.852 58.8864 110.419 58.8864 114.82C58.8864 119.222 61.6082 122.789 64.9657 122.789Z" fill="#3F3D56"/>
<path d="M87.7239 48.1686C88.5545 47.1098 89.3109 45.9948 89.9879 44.8316L74.0139 42.2046L91.2903 42.3333C92.9476 38.7226 93.8517 34.8113 93.9474 30.8387C94.043 26.8661 93.3281 22.9158 91.8464 19.2294L68.668 31.2689L90.0439 15.5355C88.0412 12.0703 85.3474 9.05518 82.1303 6.67791C78.9132 4.30063 75.2417 2.61215 71.3444 1.71764C67.4472 0.823134 63.4077 0.741765 59.4777 1.4786C55.5477 2.21544 51.8113 3.75471 48.5013 6.0005C45.1913 8.2463 42.3786 11.1505 40.2384 14.5322C38.0982 17.9139 36.6764 21.7007 36.0615 25.6566C35.4467 29.6126 35.6519 33.6529 36.6644 37.5259C37.677 41.399 39.4752 45.0218 41.947 48.1686C40.6524 49.8165 39.5389 51.5993 38.6259 53.4862L59.3614 64.273L37.2516 56.8428C35.6992 61.438 35.3155 66.3483 36.1353 71.1294C36.9552 75.9104 38.9527 80.4113 41.947 84.2248C38.5684 88.5258 36.4667 93.6919 35.8822 99.1326C35.2976 104.573 36.2538 110.069 38.6414 114.991C41.0291 119.913 44.7517 124.063 49.3839 126.967C54.016 129.87 59.3706 131.41 64.8355 131.41C70.3003 131.41 75.6549 129.87 80.2871 126.967C84.9192 124.063 88.6418 119.913 91.0295 114.991C93.4171 110.069 94.3733 104.573 93.7887 99.1326C93.2042 93.6919 91.1025 88.5258 87.7239 84.2248C91.761 79.085 93.9558 72.7357 93.9558 66.1967C93.9558 59.6577 91.761 53.3084 87.7239 48.1686L87.7239 48.1686Z" fill="#6C63FF"/>
<path opacity="0.1" d="M35.7151 66.1953C35.7051 72.736 37.901 79.0884 41.947 84.2234C38.5684 88.5244 36.4667 93.6905 35.8822 99.1312C35.2976 104.572 36.2538 110.067 38.6415 114.99C41.0291 119.912 44.7518 124.062 49.3839 126.965C54.016 129.869 59.3706 131.409 64.8355 131.409C70.3004 131.409 75.655 129.869 80.2871 126.965C84.9192 124.062 88.6419 119.912 91.0295 114.99C93.4171 110.067 94.3733 104.572 93.7888 99.1312C93.2042 93.6905 91.1025 88.5244 87.7239 84.2234C91.6269 79.262 35.7151 62.9226 35.7151 66.1953Z" fill="black"/>
<path d="M224.787 238.811C217.252 265.698 159.106 290.636 97.2734 273.261C35.4408 255.886 -6.66414 202.778 0.871508 175.891C8.40715 149.003 62.7298 158.517 124.562 175.892C186.395 193.267 232.323 211.923 224.787 238.811Z" fill="#3F3D56"/>
<path opacity="0.1" d="M224.787 238.811C217.252 265.698 159.106 290.636 97.2734 273.261C35.4408 255.886 -6.66414 202.778 0.871508 175.891C8.40715 149.003 62.7298 158.517 124.562 175.892C186.395 193.267 232.323 211.923 224.787 238.811Z" fill=colors.neutral.shade40/>
<path d="M224.787 238.81C232.323 211.922 188.307 176.041 126.474 158.666C64.6413 141.291 8.4072 149.002 0.871554 175.89C-6.6641 202.778 37.3523 238.659 99.185 256.034C161.018 273.409 217.252 265.698 224.787 238.81Z" fill="#323751"/>
<path opacity="0.1" d="M93.9296 218.907C112.756 218.907 128.018 214.479 128.018 209.018C128.018 203.556 112.756 199.129 93.9296 199.129C75.1031 199.129 59.8412 203.556 59.8412 209.018C59.8412 214.479 75.1031 218.907 93.9296 218.907Z" fill="black"/>
<path d="M135.905 152.108L92.79 195.279L74.6686 177.134C73.5069 175.971 71.9313 175.317 70.2884 175.317C68.6455 175.317 67.0699 175.971 65.9082 177.134L65.2572 176.159C62.838 178.581 63.489 183.484 65.9081 185.906L89.4204 209.449C90.3065 210.336 91.5082 210.835 92.7613 210.835C94.0145 210.836 95.2165 210.338 96.103 209.451L144.661 160.88C147.082 158.459 147.96 154.019 145.54 151.596C143.122 149.174 138.323 149.686 135.905 152.108Z" fill="#57B894"/>
<path opacity="0.1" d="M135.905 152.108L92.79 195.279L74.6686 177.134C73.5069 175.971 71.9313 175.317 70.2884 175.317C68.6455 175.317 67.0699 175.971 65.9082 177.134L65.2572 176.159C62.838 178.581 63.489 183.484 65.9081 185.906L89.4204 209.449C90.3065 210.336 91.5082 210.835 92.7613 210.835C94.0145 210.836 95.2165 210.338 96.103 209.451L144.661 160.88C147.082 158.459 147.96 154.019 145.54 151.596C143.122 149.174 138.323 149.686 135.905 152.108Z" fill="black"/>
<path d="M135.905 150.195L92.7898 193.367L74.6685 175.221C73.5067 174.058 71.9311 173.405 70.2882 173.405C68.6453 173.405 67.0697 174.058 65.908 175.221C65.3328 175.797 64.8765 176.481 64.5652 177.234C64.2539 177.986 64.0936 178.793 64.0936 179.607C64.0936 180.422 64.2539 181.228 64.5652 181.981C64.8765 182.733 65.3328 183.417 65.908 183.993L89.4203 207.536C90.3064 208.423 91.5081 208.922 92.7612 208.922C94.0143 208.923 95.2163 208.425 96.1029 207.538L144.661 158.967C145.236 158.392 145.693 157.708 146.005 156.955C146.316 156.203 146.477 155.396 146.477 154.582C146.477 153.767 146.317 152.96 146.006 152.208C145.694 151.455 145.238 150.771 144.663 150.195C143.501 149.032 141.926 148.379 140.284 148.379C138.641 148.379 137.066 149.032 135.905 150.195Z" fill="#3FC93C"/>
<path d="M156.9 223.684C156.9 223.684 153.044 224.842 151.116 227.158C151.116 227.158 147.646 228.703 145.525 228.317C143.405 227.931 139.549 231.791 142.634 232.95C145.718 234.108 164.611 237.197 164.997 236.231C165.383 235.266 165.383 225.421 165.383 225.421L156.9 223.684Z" fill="#575A89"/>
<path d="M187.187 222.023C187.187 222.023 183.586 223.824 182.082 226.436C182.082 226.436 178.926 228.551 176.77 228.534C174.615 228.516 171.474 232.98 174.711 233.593C177.948 234.207 197.091 234.019 197.306 233.002C197.521 231.985 195.842 222.284 195.842 222.284L187.187 222.023Z" fill="#575A89"/>
<path d="M163.165 91.1589C167.957 91.1589 171.841 87.2696 171.841 82.472C171.841 77.6744 167.957 73.7852 163.165 73.7852C158.374 73.7852 154.49 77.6744 154.49 82.472C154.49 87.2696 158.374 91.1589 163.165 91.1589Z" fill="#FFB9B9"/>
<path d="M170.202 83.9219C170.202 83.9219 171.166 90.4853 172.901 91.2574C174.109 91.8525 175.215 92.6342 176.179 93.5739L171.359 95.8904L161.912 95.3113C161.912 95.3113 162.684 91.0644 161.334 88.9409C159.984 86.8175 170.202 83.9219 170.202 83.9219Z" fill="#FFB9B9"/>
<path d="M188.132 115C188.132 115 192.566 126.389 188.132 137.393C183.697 148.396 181.77 150.133 181.77 150.133L180.42 135.655L181.972 134.246C181.972 134.246 182.911 129.853 182.148 127.253C181.384 124.652 182.541 116.544 182.541 116.544L188.132 115Z" fill="#FFB9B9"/>
<path d="M154.972 139.709C154.972 139.709 149.381 152.45 149.959 158.627C150.538 164.804 154.972 190.865 154.972 190.865C154.972 190.865 154.394 224.454 156.129 224.454C157.864 224.454 166.154 227.543 166.154 225.419C166.154 223.296 167.889 172.333 167.889 172.333C167.889 172.333 177.721 194.726 178.685 196.463C179.649 198.2 185.818 225.419 187.939 225.419C190.06 225.419 196.614 223.489 196.036 222.138C195.458 220.786 188.903 190.672 185.24 182.95C181.577 175.229 182.348 146.079 182.348 146.079L176.179 132.566L154.972 139.709Z" fill="#2F2E41"/>
<path d="M160.563 78.5173C160.563 78.5173 155.165 78.1313 154.779 76.78C154.393 75.4287 153.622 74.2704 154.008 74.2704C154.393 74.2704 154.586 73.3052 154.586 73.3052C154.586 73.3052 154.972 73.1122 155.165 73.3052C155.357 73.4983 155.55 71.9539 155.55 71.9539C155.55 71.9539 155.743 71.3748 155.936 71.7609C156.129 72.147 156.129 71.9539 156.321 71.3748C156.514 70.7957 157.478 70.4096 157.478 70.4096C157.478 70.4096 161.141 70.6026 161.719 69.8305C162.298 69.0583 168.853 69.6374 170.202 70.6026C171.552 71.5678 177.528 75.0426 176.564 77.9382C175.6 80.8338 172.13 87.2042 172.13 88.1694C172.13 89.1346 170.781 88.9416 170.395 87.9764C170.009 87.0112 166.925 85.8529 166.925 85.2738C166.925 84.6947 165.19 79.2895 164.226 79.6756C163.262 80.0617 162.105 83.1503 161.719 82.5712C161.334 81.9921 160.563 78.5173 160.563 78.5173Z" fill="#3F3D56"/>
<path d="M187.168 104.961C187.168 104.961 179.263 93.3783 176.95 92.7992C174.636 92.2201 169.431 90.6758 169.431 90.6758C169.431 90.6758 164.226 91.4479 162.684 92.2201C161.141 92.9923 155.358 94.3436 155.165 96.6601C154.972 98.9766 156.707 121.176 155.743 123.3C154.779 125.423 151.502 145.693 153.044 145.306C154.586 144.92 153.43 139.901 160.177 139.708C166.925 139.515 170.588 135.461 173.094 140.287C175.6 145.113 182.734 148.781 182.734 148.781C182.913 147.225 183.17 145.679 183.505 144.148C184.083 141.446 181.962 134.882 181.962 134.882C181.962 134.882 182.155 119.632 182.926 117.895C183.698 116.157 187.168 104.961 187.168 104.961Z" fill="#575A89"/>
<path d="M184.276 104.578L187.168 104.964C187.168 104.964 186.975 108.825 187.746 109.983C188.517 111.142 189.867 117.126 189.096 117.319C188.324 117.512 181.384 118.67 181.384 118.67L180.998 109.79L184.276 104.578Z" fill="#575A89"/>
<path d="M153.044 111.527C153.044 111.527 151.116 124.075 150.152 125.619C149.188 127.164 144.369 148.784 144.369 148.784C144.369 148.784 136.443 159.82 140.299 159.627C144.155 159.434 148.224 149.556 148.224 149.556C148.224 149.556 160.177 127.743 160.177 125.426C160.177 123.11 163.069 111.527 163.069 111.527H153.044Z" fill="#FFB9B9"/>
<path d="M158.635 94.5391L155.165 95.8903C155.165 95.8903 150.731 111.72 151.694 113.071C152.658 114.422 164.226 112.492 164.419 111.913C164.611 111.334 162.298 94.5391 158.635 94.5391Z" fill="#575A89"/>
<path d="M3.62927 135.215C3.62927 148.667 12.0575 159.553 22.4732 159.553L3.62927 135.215Z" fill="#3F3D56"/>
<path d="M22.4734 159.553C22.4734 145.949 31.8788 134.941 43.5021 134.941L22.4734 159.553Z" fill="#6C63FF"/>
<path d="M10.4569 136.434C10.4569 149.212 15.8314 159.552 22.4733 159.552L10.4569 136.434Z" fill="#6C63FF"/>
<path d="M22.4734 159.553C22.4734 142.171 33.3446 128.105 46.7794 128.105L22.4734 159.553Z" fill="#3F3D56"/>
<path d="M18.5089 159.723C18.5089 159.723 21.1813 159.641 21.9867 159.067C22.7921 158.492 26.0975 157.807 26.2973 158.728C26.4971 159.649 30.3134 163.308 27.2963 163.333C24.2792 163.357 20.2858 162.862 19.482 162.372C18.6782 161.881 18.5089 159.723 18.5089 159.723Z" fill="#A8A8A8"/>
<path opacity="0.2" d="M27.3502 163.011C24.3331 163.035 20.3398 162.54 19.536 162.05C18.9238 161.677 18.6799 160.337 18.5982 159.719C18.5417 159.721 18.509 159.722 18.509 159.722C18.509 159.722 18.6783 161.88 19.4821 162.371C20.286 162.861 24.2793 163.356 27.2964 163.332C28.1673 163.324 28.4681 163.014 28.4516 162.555C28.3306 162.832 27.9985 163.006 27.3502 163.011Z" fill="black"/>
</g>
<defs>
<clipPath id="clip0">
<rect width="258" height="278.216" fill="white" transform="translate(0 0.980469)"/>
</clipPath>
</defs>
</svg>
