<svg width="68" height="48" viewBox="0 0 68 48" fill="none" xmlns="http://www.w3.org/2000/svg">
<path d="M66.7805 37.6128C67.1353 36.7676 66.1214 36.0476 65.271 36.4232C63.5711 37.1694 61.7344 37.5532 59.8779 37.5502C52.5997 37.5502 46.7006 31.7693 46.7006 24.6372C46.6979 22.2291 47.3821 19.8702 48.6728 17.8372C49.1667 17.0581 48.5736 15.9798 47.6693 16.2094C40.6971 17.9885 35.5493 24.2007 35.5493 31.5902C35.5493 40.3676 42.8102 47.4823 51.7684 47.4823C58.551 47.4823 64.3597 43.4041 66.7805 37.6128Z" fill="#323751" stroke="#323751"/>
<path d="M23.8098 4.6346V2.48242M23.8098 45.5259V43.3737M43.1794 24.0042H45.3316M2.28809 24.0042H4.44026M37.799 10.015L41.0272 6.78677M6.59243 41.2215L9.82069 37.9933M6.59243 6.78677L9.82069 10.015M37.799 37.9933L41.0272 41.2215" stroke="#323751" stroke-width="4" stroke-linecap="round"/>
<path d="M23.8133 32.612C28.5677 32.612 32.422 28.7578 32.422 24.0033C32.422 19.2489 28.5677 15.3947 23.8133 15.3947C19.0588 15.3947 15.2046 19.2489 15.2046 24.0033C15.2046 28.7578 19.0588 32.612 23.8133 32.612Z" stroke="#323751" stroke-width="4" stroke-linecap="round"/>
</svg>
