<svg width="146" height="179" viewBox="0 0 146 179" fill="none" xmlns="http://www.w3.org/2000/svg">
<g clip-path="url(#clip0_32523_10203)">
<path d="M73 146.573C113.317 146.573 146 113.762 146 73.2865C146 32.8115 113.317 0 73 0C32.6832 0 0 32.8115 0 73.2865C0 113.762 32.6832 146.573 73 146.573Z" fill="#F9F9F9"/>
<path d="M104.533 77.5371L112.313 89.9749L107.631 105.115L98.4346 94.6464L104.533 77.5371Z" fill="#C7956D"/>
<path d="M64.3867 82.6822L62.9929 81.9197V80.2539L64.3867 81.0165V82.6822Z" fill="#828282"/>
<path d="M62.8454 82.8972L61.4517 82.142L62.9929 81.9199L64.3867 82.6825L62.8454 82.8972Z" fill="#B4B4B4"/>
<path d="M62.8454 82.8971L61.4517 82.1419V80.4688L62.8454 81.2313V82.8971Z" fill="black"/>
<path d="M62.8454 81.2312L61.4517 80.4686L62.9929 80.2539L64.3867 81.0165L62.8454 81.2312Z" fill="black"/>
<path d="M61.3042 84.7838L59.9104 84.0286V82.3555L61.3042 83.118V84.7838Z" fill="#828282"/>
<path d="M59.7629 85.0065L58.3691 84.244L59.9104 84.0293L61.3042 84.7844L59.7629 85.0065Z" fill="#B4B4B4"/>
<path d="M61.3042 83.1178L59.9104 82.3552L59.9178 80.6895L61.3115 81.452L61.3042 83.1178Z" fill="#828282"/>
<path d="M58.2217 85.2214L56.8279 84.4588L58.3692 84.2441L59.7629 85.0067L58.2217 85.2214Z" fill="#B4B4B4"/>
<path d="M62.8528 77.899L61.459 77.1365V75.4707L62.8601 76.2258L62.8528 77.899Z" fill="#828282"/>
<path d="M59.7702 81.6667L58.3765 80.9042L59.9177 80.6895L61.3115 81.452L59.7702 81.6667Z" fill="black"/>
<path d="M64.4013 74.3463L63.0076 73.5837V71.918L64.4013 72.6805V74.3463Z" fill="#828282"/>
<path d="M61.3115 79.7873L59.9177 79.0247V77.3516L61.3115 78.1141V79.7873Z" fill="#828282"/>
<path d="M61.3115 78.114L59.9177 77.3514L61.459 77.1367L62.8528 77.8993L61.3115 78.114Z" fill="#B4B4B4"/>
<path d="M62.8601 74.5593L61.4663 73.7967L63.0076 73.582L64.4014 74.3446L62.8601 74.5593Z" fill="#B4B4B4"/>
<path d="M59.7702 81.6686L58.3765 80.906V79.2402L59.7702 80.0028V81.6686Z" fill="#828282"/>
<path d="M59.7702 80.0026L58.3765 79.2401L59.9177 79.0254L61.3115 79.7879L59.7702 80.0026Z" fill="#B4B4B4"/>
<path d="M56.6877 85.4362L55.2939 84.6811L56.8278 84.459L58.2216 85.2215L56.6877 85.4362Z" fill="#B4B4B4"/>
<path d="M64.4013 72.6799L63.0076 71.9173V70.2441L64.4013 71.0067V72.6799Z" fill="#828282"/>
<path d="M61.3188 76.448L59.925 75.6854L61.4589 75.4707L62.8601 76.2258L61.3188 76.448Z" fill="black"/>
<path d="M62.8601 74.5611L61.4663 73.7986V72.1328L62.8601 72.8954V74.5611Z" fill="black"/>
<path d="M61.3188 76.4479L59.925 75.6853V74.0195L61.3188 74.7821V76.4479Z" fill="#828282"/>
<path d="M58.229 81.8814L56.8352 81.1263L56.8426 79.4531L58.2364 80.2157L58.229 81.8814Z" fill="black"/>
<path d="M55.1465 85.6569L53.7527 84.8944L55.2939 84.6797L56.6877 85.4348L55.1465 85.6569Z" fill="#B4B4B4"/>
<path d="M62.8601 72.8951L61.4663 72.1326L61.4737 70.4668L62.8675 71.2293L62.8601 72.8951Z" fill="black"/>
<path d="M62.8674 71.2288L61.4736 70.4662L63.0075 70.2441L64.4013 71.0067L62.8674 71.2288Z" fill="black"/>
<path d="M56.6951 82.1042L55.2939 81.3417L56.8352 81.127L58.229 81.8821L56.6951 82.1042Z" fill="black"/>
<path d="M64.4089 69.3404L63.0151 68.5779V66.9121L64.4089 67.6747V69.3404Z" fill="#828282"/>
<path d="M61.3188 74.7818L59.925 74.0193L59.9324 72.3535L61.3262 73.1087L61.3188 74.7818Z" fill="#828282"/>
<path d="M55.1465 85.6584L53.7527 84.8958V83.2227L55.1465 83.9852V85.6584Z" fill="black"/>
<path d="M62.8674 69.5554L61.4736 68.8002L63.0149 68.5781L64.4087 69.3407L62.8674 69.5554Z" fill="#B4B4B4"/>
<path d="M56.695 80.4304L55.3013 79.6752L56.8425 79.4531L58.2363 80.2157L56.695 80.4304Z" fill="#B4B4B4"/>
<path d="M56.6951 82.1041L55.2939 81.3416L55.3013 79.6758L56.6951 80.4309V82.1041Z" fill="#828282"/>
<path d="M62.875 67.8894L61.4812 67.1268L63.0151 66.9121L64.4089 67.6747L62.875 67.8894Z" fill="black"/>
<path d="M59.7849 73.3308L58.3911 72.5682L59.9324 72.3535L61.3262 73.1087L59.7849 73.3308Z" fill="black"/>
<path d="M56.6951 80.4303L55.3013 79.6751V78.002L56.6951 78.7645V80.4303Z" fill="black"/>
<path d="M53.6052 84.1999L52.2188 83.4448L53.7526 83.2227L55.1464 83.9852L53.6052 84.1999Z" fill="#B4B4B4"/>
<path d="M61.3337 69.778L59.9399 69.0155L61.4738 68.8008L62.8676 69.5559L61.3337 69.778Z" fill="#B4B4B4"/>
<path d="M58.2363 76.8775L56.8425 76.1224L56.8499 74.4492L58.2437 75.2118L58.2363 76.8775Z" fill="black"/>
<path d="M55.1538 80.653L53.76 79.8905L55.3013 79.6758L56.695 80.4309L55.1538 80.653Z" fill="black"/>
<path d="M62.875 67.8893L61.4812 67.1267V65.4609L62.875 66.2235V67.8893Z" fill="#828282"/>
<path d="M56.695 78.7662L55.3013 78.0037L55.3086 76.3379L56.7024 77.1004L56.695 78.7662Z" fill="black"/>
<path d="M56.7024 77.1003L55.3086 76.3377L56.8425 76.123L58.2363 76.8782L56.7024 77.1003Z" fill="black"/>
<path d="M61.3337 69.7779L59.9399 69.0154V67.3496L61.3337 68.1122V69.7779Z" fill="black"/>
<path d="M58.2439 73.5456L56.8501 72.7831L58.3914 72.5684L59.7851 73.3309L58.2439 73.5456Z" fill="black"/>
<path d="M58.2439 75.2115L56.8501 74.449V72.7832L58.2439 73.5458V75.2115Z" fill="black"/>
<path d="M55.1538 80.6529L53.76 79.8904V78.2246L55.1538 78.9798V80.6529Z" fill="#828282"/>
<path d="M52.0713 86.0865L50.6702 85.324L50.6775 83.6582L52.0713 84.4208V86.0865Z" fill="#828282"/>
<path d="M52.0713 84.4206L50.6775 83.6581L52.2188 83.4434L53.6052 84.1985L52.0713 84.4206Z" fill="#B4B4B4"/>
<path d="M56.7024 77.1002L55.3086 76.3377V74.6719L56.7024 75.4344V77.1002Z" fill="#828282"/>
<path d="M61.3337 68.1115L59.9399 67.349V65.6758L61.3337 66.4383V68.1115Z" fill="black"/>
<path d="M61.3337 66.4382L59.9399 65.6756L61.4812 65.4609L62.875 66.2235L61.3337 66.4382Z" fill="black"/>
<path d="M50.53 86.3089L49.1362 85.5463L50.6701 85.3242L52.0713 86.0868L50.53 86.3089Z" fill="#B4B4B4"/>
<path d="M55.1611 77.3151L53.7673 76.5526L55.3086 76.3379L56.7024 77.1004L55.1611 77.3151Z" fill="#B4B4B4"/>
<path d="M62.8823 64.5518L61.4885 63.7966V62.1309L62.8823 62.886V64.5518Z" fill="#828282"/>
<path d="M59.7925 69.9928L58.3987 69.2302V67.5645L59.7925 68.327V69.9928Z" fill="#828282"/>
<path d="M64.4236 60.9967L63.0298 60.2415V58.5684L64.4236 59.3309V60.9967Z" fill="#828282"/>
<path d="M53.6198 79.2019L52.2261 78.4393L53.76 78.2246L55.1537 78.9798L53.6198 79.2019Z" fill="black"/>
<path d="M61.3337 66.4381L59.9399 65.6755L59.9473 64.0098L61.3411 64.7723L61.3337 66.4381Z" fill="#828282"/>
<path d="M61.341 64.7722L59.9473 64.0096L61.4885 63.7949L62.8823 64.5501L61.341 64.7722Z" fill="#B4B4B4"/>
<path d="M50.53 86.3088L49.1362 85.5462V83.873L50.53 84.6356V86.3088Z" fill="black"/>
<path d="M58.251 70.2077L56.8572 69.4526L58.3984 69.2305L59.7922 69.993L58.251 70.2077Z" fill="#B4B4B4"/>
<path d="M55.1611 75.6491L53.7673 74.8866L55.3086 74.6719L56.7024 75.4344L55.1611 75.6491Z" fill="black"/>
<path d="M55.1611 77.315L53.7673 76.5525V74.8867L55.1611 75.6493V77.315Z" fill="black"/>
<path d="M62.8823 61.2194L61.4885 60.4569L63.0298 60.2422L64.4236 60.9973L62.8823 61.2194Z" fill="#B4B4B4"/>
<path d="M52.0713 82.7564L50.6775 81.9939L50.6849 80.3281L52.0786 81.0907L52.0713 82.7564Z" fill="black"/>
<path d="M52.0786 81.0901L50.6848 80.3276L52.2187 80.1055L53.6125 80.868L52.0786 81.0901Z" fill="black"/>
<path d="M52.0713 82.7564L50.6775 81.9939L50.6849 80.3281L52.0786 81.0907L52.0713 82.7564Z" fill="#828282"/>
<path d="M52.0786 81.0901L50.6848 80.3276L52.2187 80.1055L53.6125 80.868L52.0786 81.0901Z" fill="#B4B4B4"/>
<path d="M59.7925 66.653L58.3987 65.8979L59.9399 65.6758L61.3337 66.4383L59.7925 66.653Z" fill="#B4B4B4"/>
<path d="M59.7925 68.3268L58.3987 67.5642V65.8984L59.7925 66.6536V68.3268Z" fill="#828282"/>
<path d="M56.7099 73.7604L55.3162 73.0052V71.332L56.7099 72.0946V73.7604Z" fill="#828282"/>
<path d="M64.4236 59.3307L63.0298 58.5681L63.0372 56.9023L64.4309 57.6649L64.4236 59.3307Z" fill="#828282"/>
<path d="M53.6198 79.2018L52.2261 78.4392V76.7734L53.6198 77.5286V79.2018Z" fill="#828282"/>
<path d="M62.8823 62.8848V64.5505L61.3411 64.7726V63.1069L62.8823 62.8848Z" fill="black"/>
<path d="M61.341 64.7721L59.9473 64.0095V62.3438L61.341 63.1063V64.7721Z" fill="black"/>
<path d="M61.341 63.1081L59.9473 62.3456L61.4885 62.1309L62.8823 62.886L61.341 63.1081Z" fill="black"/>
<path d="M58.2509 70.2076L56.8572 69.4525V67.7793L58.2583 68.5418L58.2509 70.2076Z" fill="black"/>
<path d="M55.1687 73.9831L53.7749 73.2206L55.3162 73.0059L56.7099 73.761L55.1687 73.9831Z" fill="#B4B4B4"/>
<path d="M59.7998 64.987L58.406 64.2245L59.9473 64.0098L61.3411 64.7723L59.7998 64.987Z" fill="black"/>
<path d="M48.9887 84.8503L47.595 84.0951L49.1362 83.873L50.53 84.6356L48.9887 84.8503Z" fill="#B4B4B4"/>
<path d="M48.9887 86.524L47.595 85.7615V84.0957L48.9887 84.8509V86.524Z" fill="#828282"/>
<path d="M56.7099 72.0943L55.3162 71.3318V69.666L56.7099 70.4286V72.0943Z" fill="#828282"/>
<path d="M64.4309 57.6666L63.0371 56.9041V55.2383L64.4309 56.0008V57.6666Z" fill="#828282"/>
<path d="M61.3484 61.4343L59.9546 60.6717L61.4885 60.457L62.8823 61.2196L61.3484 61.4343Z" fill="#B4B4B4"/>
<path d="M50.5373 82.9713L49.1436 82.2087V80.543L50.5373 81.3055V82.9713Z" fill="black"/>
<path d="M58.2583 68.5416L56.8572 67.7791L56.8646 66.1133L58.2583 66.8758V68.5416Z" fill="black"/>
<path d="M47.4475 86.739L46.0537 85.9838L47.595 85.7617L48.9888 86.5243L47.4475 86.739Z" fill="#B4B4B4"/>
<path d="M55.1687 73.9826L53.7749 73.2201V71.5469L55.1687 72.3094V73.9826Z" fill="black"/>
<path d="M52.086 77.7507L50.6848 76.9881L52.2261 76.7734L53.6199 77.5286L52.086 77.7507Z" fill="black"/>
<path d="M52.0786 79.4166L50.6848 78.6541V76.9883L52.086 77.7508L52.0786 79.4166Z" fill="black"/>
<path d="M59.7998 64.9869L58.406 64.2244V62.5586L59.7998 63.3211V64.9869Z" fill="#828282"/>
<path d="M48.9961 83.1843L47.6023 82.4217L49.1436 82.207L50.5373 82.9696L48.9961 83.1843Z" fill="black"/>
<path d="M56.7099 70.4283L55.3162 69.6658L55.3235 68L56.7173 68.7626L56.7099 70.4283Z" fill="#828282"/>
<path d="M64.4309 56.0006L63.0371 55.238L63.0445 53.5723L64.4383 54.3348L64.4309 56.0006Z" fill="#828282"/>
<path d="M53.6272 75.8639L52.2334 75.1013V73.4355L53.6272 74.1981V75.8639Z" fill="#828282"/>
<path d="M50.5373 79.6315L49.1436 78.869L50.6848 78.6543L52.0786 79.4168L50.5373 79.6315Z" fill="black"/>
<path d="M58.2585 66.8756L56.8647 66.113V64.4473L58.2585 65.2098V66.8756Z" fill="black"/>
<path d="M47.4475 86.7389L46.0537 85.9837L46.0611 84.3105L47.4549 85.0731L47.4475 86.7389Z" fill="black"/>
<path d="M55.1687 72.3092L53.7749 71.5466V69.8809L55.1687 70.6434V72.3092Z" fill="black"/>
<path d="M52.0859 76.0862L50.6921 75.3237L52.2334 75.1016L53.6272 75.8641L52.0859 76.0862Z" fill="#B4B4B4"/>
<path d="M59.8071 61.6565L58.4133 60.894L59.9546 60.6719L61.3484 61.4344L59.8071 61.6565Z" fill="#B4B4B4"/>
<path d="M48.9961 81.5202L47.6023 80.7577L49.1436 80.543L50.5373 81.3055L48.9961 81.5202Z" fill="#B4B4B4"/>
<path d="M56.7173 68.7639L55.3235 68.0013V66.3281L56.7173 67.0907V68.7639Z" fill="#828282"/>
<path d="M64.4382 54.3346L63.0444 53.572V51.9062L64.4382 52.6614V54.3346Z" fill="#828282"/>
<path d="M50.5373 79.6314L49.1436 78.8689L49.1509 77.2031L50.5447 77.9657L50.5373 79.6314Z" fill="#828282"/>
<path d="M58.2585 65.2096L56.8647 64.447L56.8721 62.7812L58.2659 63.5364L58.2585 65.2096Z" fill="black"/>
<path d="M58.2658 63.5358L56.8721 62.7807L58.406 62.5586L59.7997 63.3211L58.2658 63.5358Z" fill="black"/>
<path d="M47.4548 83.4065L46.061 82.644L47.6023 82.4219L48.9961 83.1844L47.4548 83.4065Z" fill="black"/>
<path d="M47.4548 85.0729L46.061 84.3103V82.6445L47.4548 83.4071V85.0729Z" fill="black"/>
<path d="M53.6272 74.1973V75.863L52.0859 76.0851V74.412L53.6272 74.1973Z" fill="black"/>
<path d="M52.0859 74.4128L50.6921 73.6576L52.2334 73.4355L53.6272 74.1981L52.0859 74.4128Z" fill="black"/>
<path d="M52.0859 76.0846L50.6921 75.322V73.6562L52.0859 74.4114V76.0846Z" fill="black"/>
<path d="M56.7173 67.0904L55.3235 66.3279L55.3309 64.6621L56.7246 65.4247L56.7173 67.0904Z" fill="#828282"/>
<path d="M45.9136 86.9611L44.5198 86.1986V84.5254L45.9136 85.2879V86.9611Z" fill="#828282"/>
<path d="M64.4382 52.6607L63.0444 51.9056V50.2324L64.4456 50.995L64.4382 52.6607Z" fill="#828282"/>
<path d="M53.6347 70.8581L52.241 70.103L53.7749 69.8809L55.1686 70.6434L53.6347 70.8581Z" fill="#B4B4B4"/>
<path d="M58.2658 61.8718L56.8721 61.1092L58.4133 60.8945L59.8071 61.6571L58.2658 61.8718Z" fill="#B4B4B4"/>
<path d="M47.4624 81.7425L46.0686 80.9799L47.6025 80.7578L48.9963 81.5204L47.4624 81.7425Z" fill="#B4B4B4"/>
<path d="M50.5374 82.9705L48.9961 83.1852L47.4548 83.4073L47.4622 81.7415L48.9961 81.5194L50.5374 81.3047V82.9705Z" fill="white"/>
<path d="M47.4548 83.4068L46.061 82.6443L46.0684 80.9785L47.4622 81.7411L47.4548 83.4068Z" fill="#828282"/>
<path d="M44.3723 87.1765L42.9785 86.4139L44.5198 86.1992L45.9136 86.9618L44.3723 87.1765Z" fill="#B4B4B4"/>
<path d="M52.0859 74.4127L50.6921 73.6575L50.6995 71.9844L52.0933 72.7469L52.0859 74.4127Z" fill="#828282"/>
<path d="M49.0034 78.1878L47.6096 77.4252L49.1509 77.2031L50.5447 77.9657L49.0034 78.1878Z" fill="black"/>
<path d="M56.7246 65.4244L55.3308 64.6619V62.9961L56.7246 63.7587V65.4244Z" fill="#828282"/>
<path d="M45.9136 85.2877L44.5198 84.5251L44.5272 82.8594L45.9209 83.6219L45.9136 85.2877Z" fill="#828282"/>
<path d="M45.9209 83.6218L44.5271 82.8592L46.061 82.6445L47.4548 83.4071L45.9209 83.6218Z" fill="#B4B4B4"/>
<path d="M64.4456 50.9947L63.0444 50.2322L63.0518 48.5664L64.4456 49.329V50.9947Z" fill="#828282"/>
<path d="M50.5522 74.6335L49.1584 73.8709L50.6923 73.6562L52.0861 74.4114L50.5522 74.6335Z" fill="#B4B4B4"/>
<path d="M50.5447 76.2994L49.1509 75.5369L49.1583 73.8711L50.552 74.6336L50.5447 76.2994Z" fill="#828282"/>
<path d="M47.4624 81.7404L46.0686 80.9779V79.3047L47.4624 80.0672V81.7404Z" fill="black"/>
<path d="M44.3723 87.1764L42.9785 86.4138V84.748L44.3723 85.5106V87.1764Z" fill="black"/>
<path d="M52.0935 71.0808L50.6997 70.3182L52.241 70.1035L53.6347 70.8587L52.0935 71.0808Z" fill="#B4B4B4"/>
<path d="M52.0935 72.7467L50.6997 71.9841V70.3184L52.0935 71.0809V72.7467Z" fill="#828282"/>
<path d="M49.0034 78.1877L47.6096 77.4251V75.752L49.0034 76.5145V78.1877Z" fill="#828282"/>
<path d="M49.0034 76.5144L47.6096 75.7518L49.1509 75.5371L50.5447 76.2997L49.0034 76.5144Z" fill="#B4B4B4"/>
<path d="M56.7246 62.0847L55.3308 61.3221L56.8721 61.1074L58.2659 61.87L56.7246 62.0847Z" fill="#B4B4B4"/>
<path d="M45.9209 81.9558L44.5271 81.1932L46.0684 80.9785L47.4621 81.7411L45.9209 81.9558Z" fill="black"/>
<path d="M50.5522 74.6349L49.1584 73.8724V72.1992L50.5522 72.9618V74.6349Z" fill="black"/>
<path d="M55.1833 65.6393L53.7896 64.8767V63.2109L55.1833 63.9735V65.6393Z" fill="black"/>
<path d="M55.1833 63.9734L53.7896 63.2108L55.3308 62.9961L56.7246 63.7587L55.1833 63.9734Z" fill="black"/>
<path d="M44.3723 85.5104L42.9785 84.7478V83.082L44.3797 83.8372L44.3723 85.5104Z" fill="black"/>
<path d="M62.9043 49.5437L61.5105 48.7811L63.0518 48.5664L64.4455 49.329L62.9043 49.5437Z" fill="black"/>
<path d="M49.011 74.8484L47.6172 74.0858L49.1585 73.8711L50.5522 74.6336L49.011 74.8484Z" fill="black"/>
<path d="M45.9209 80.2819L44.5271 79.5194L46.0684 79.3047L47.4621 80.0672L45.9209 80.2819Z" fill="#B4B4B4"/>
<path d="M45.9209 81.9553L44.5271 81.1927V79.5195L45.9209 80.2821V81.9553Z" fill="#828282"/>
<path d="M53.6421 65.8542L52.2483 65.0991L53.7896 64.877L55.1833 65.6395L53.6421 65.8542Z" fill="black"/>
<path d="M42.831 87.3912L41.4373 86.6361L41.4446 84.9629L42.8384 85.7254L42.831 87.3912Z" fill="#828282"/>
<path d="M61.3633 51.4323L59.9695 50.6698L61.5108 50.4551L62.9045 51.2102L61.3633 51.4323Z" fill="black"/>
<path d="M61.3633 51.4323L59.9695 50.6698L61.5108 50.4551L62.9045 51.2102L61.3633 51.4323Z" fill="#B4B4B4"/>
<path d="M50.5522 72.9615L49.1584 72.199L49.1658 70.5332L50.5596 71.2958L50.5522 72.9615Z" fill="black"/>
<path d="M55.1907 62.3069L53.7896 61.5444L55.3308 61.3223L56.7246 62.0848L55.1907 62.3069Z" fill="#B4B4B4"/>
<path d="M44.3797 83.8365L42.9785 83.0814L42.9859 81.4082L44.3797 82.1708V83.8365Z" fill="black"/>
<path d="M53.6347 69.1931L52.1008 69.4152V67.742L53.6421 67.5273L53.6347 69.1931Z" fill="black"/>
<path d="M52.1008 67.7409L50.707 66.9784L52.2483 66.7637L53.6421 67.5262L52.1008 67.7409Z" fill="black"/>
<path d="M52.1008 69.4142L50.707 68.6517V66.9785L52.1008 67.7411V69.4142Z" fill="#828282"/>
<path d="M52.1008 67.7409L50.707 66.9784L52.2483 66.7637L53.6421 67.5262L52.1008 67.7409Z" fill="#B4B4B4"/>
<path d="M52.1008 69.4142L50.707 68.6517V66.9785L52.1008 67.7411V69.4142Z" fill="black"/>
<path d="M41.2898 87.612L39.896 86.8495L41.4373 86.6348L42.831 87.3899L41.2898 87.612Z" fill="#B4B4B4"/>
<path d="M59.8218 53.3132L58.428 52.5506L59.9692 52.3359L61.363 53.0985L59.8218 53.3132Z" fill="black"/>
<path d="M59.8218 53.3132L58.428 52.5506L59.9692 52.3359L61.363 53.0985L59.8218 53.3132Z" fill="#B4B4B4"/>
<path d="M53.6421 65.8541L52.2483 65.099L52.2557 63.4258L53.6494 64.1883L53.6421 65.8541Z" fill="#828282"/>
<path d="M42.8384 85.7252L41.4446 84.9626V83.2969L42.8384 84.0594V85.7252Z" fill="#828282"/>
<path d="M61.3703 49.7585L59.9766 48.996L61.5105 48.7812L62.9042 49.5438L61.3703 49.7585Z" fill="black"/>
<path d="M47.4695 76.7369L46.0757 75.9744V74.3086L47.4695 75.0637V76.7369Z" fill="black"/>
<path d="M47.4695 75.0632L46.0757 74.308L47.617 74.0859L49.0107 74.8485L47.4695 75.0632Z" fill="black"/>
<path d="M44.3796 82.1705L42.9858 81.408V79.7422L44.3796 80.5047V82.1705Z" fill="black"/>
<path d="M59.8218 51.6472L58.428 50.8846L59.9692 50.6699L61.363 51.4325L59.8218 51.6472Z" fill="#B4B4B4"/>
<path d="M59.8218 51.6472L58.428 50.8846L59.9692 50.6699L61.363 51.4325L59.8218 51.6472Z" fill="black"/>
<path d="M49.0183 71.5105L47.6245 70.7553L49.1658 70.5332L50.5596 71.2958L49.0183 71.5105Z" fill="#B4B4B4"/>
<path d="M49.011 73.1842L47.6172 72.4216L47.6246 70.7559L49.0183 71.511L49.011 73.1842Z" fill="#828282"/>
<path d="M56.7319 58.7545L55.3381 57.9919L55.3455 56.3262L56.7393 57.0887L56.7319 58.7545Z" fill="black"/>
<path d="M56.7319 58.7545L55.3381 57.9919L55.3455 56.3262L56.7393 57.0887L56.7319 58.7545Z" fill="#828282"/>
<path d="M45.9284 76.9519L44.5347 76.1893L46.0759 75.9746L47.4697 76.7372L45.9284 76.9519Z" fill="black"/>
<path d="M45.9285 78.6178L44.5347 77.8552V76.1895L45.9285 76.952V78.6178Z" fill="black"/>
<path d="M53.6494 62.5222L52.2556 61.7596L53.7895 61.5449L55.1907 62.3075L53.6494 62.5222Z" fill="#B4B4B4"/>
<path d="M42.8384 84.0592L41.4446 83.2966V81.6309L42.8384 82.386V84.0592Z" fill="#828282"/>
<path d="M50.5595 69.6295L49.1658 68.8669V67.2012L50.5595 67.9563V69.6295Z" fill="black"/>
<path d="M39.7558 87.8269L38.3621 87.0643L39.896 86.8496L41.2897 87.6122L39.7558 87.8269Z" fill="#B4B4B4"/>
<path d="M58.2807 53.5354L56.887 52.7729L58.4282 52.5508L59.822 53.3133L58.2807 53.5354Z" fill="black"/>
<path d="M58.2807 53.5354L56.887 52.7729L58.4282 52.5508L59.822 53.3133L58.2807 53.5354Z" fill="#B4B4B4"/>
<path d="M47.477 73.3972L46.0833 72.6346L47.6171 72.4199L49.0109 73.1825L47.477 73.3972Z" fill="#B4B4B4"/>
<path d="M55.1907 60.6354L53.7969 59.8802V58.207L55.1907 58.9696V60.6354Z" fill="#828282"/>
<path d="M55.1907 60.6354L53.7969 59.8802V58.207L55.1907 58.9696V60.6354Z" fill="black"/>
<path d="M44.3796 80.5045L42.9858 79.7419L42.9932 78.0762L44.387 78.8313L44.3796 80.5045Z" fill="black"/>
<path d="M44.3872 78.8327L42.9934 78.0776L44.5347 77.8555L45.9285 78.618L44.3872 78.8327Z" fill="black"/>
<path d="M61.3189 76.4483L62.8601 76.2262L62.8528 77.8994L61.3115 78.1141V79.7873L59.7702 80.002V81.6677L61.3115 81.453L61.3041 83.1188V84.7846L59.7629 85.0067L58.2216 85.2214L56.6877 85.4361L55.1464 85.6582V83.985L53.6052 84.1997L52.0713 84.4218V86.0876L50.53 86.3097V84.6365L48.9887 84.8512V86.5244L47.4475 86.7391L47.4548 85.0733V83.4075L48.9961 83.1854L50.5374 82.9707V81.305L48.9961 81.5197L47.4622 81.7418V80.0686L45.921 80.2833V81.9565L47.4622 81.7418L47.4548 83.4075L45.921 83.6222L45.9136 85.288V86.9612L44.3723 87.1759V85.5101L44.3797 83.8369V82.1712V80.5054L44.3871 78.8322L45.9283 78.6175V76.9518L47.4696 76.7371V75.0639L49.0109 74.8492L50.5521 74.6345L50.5448 76.3003L49.0035 76.515V78.1881L50.5448 77.966L50.5374 79.6318L52.0787 79.4171L52.086 77.7513L53.6199 77.5292V79.2024L55.1538 78.9803V80.6535L56.6951 80.4314V82.1045L58.229 81.8824L58.2363 80.2167L56.6951 80.4314V78.7656L56.7024 77.0998L58.2363 76.8777L58.2437 75.2119V73.5462L59.785 73.3315L61.3263 73.1094L61.3189 74.7826V76.4483Z" fill="black"/>
<path d="M52.1081 64.4104L50.7144 63.6479L52.2556 63.4258L53.6494 64.1883L52.1081 64.4104Z" fill="black"/>
<path d="M52.1081 66.0768L50.7144 65.3142V63.6484L52.1081 64.411V66.0768Z" fill="black"/>
<path d="M59.8293 49.9808L58.4355 49.2182L59.9768 48.9961L61.3706 49.7586L59.8293 49.9808Z" fill="black"/>
<path d="M49.0183 69.8444L47.6245 69.0819L49.1658 68.8672L50.5596 69.6297L49.0183 69.8444Z" fill="black"/>
<path d="M56.7392 57.0881L55.3455 56.3255V54.6523L56.7392 55.4149V57.0881Z" fill="black"/>
<path d="M56.7392 57.0881L55.3455 56.3255V54.6523L56.7392 55.4149V57.0881Z" fill="#828282"/>
<path d="M45.9284 76.9518L44.5347 76.1892L44.542 74.5234L45.9358 75.286L45.9284 76.9518Z" fill="#828282"/>
<path d="M53.6494 62.5221L52.2556 61.7595V60.0938L53.6494 60.8563V62.5221Z" fill="black"/>
<path d="M42.8384 82.3854L41.4446 81.6302L41.452 79.957L42.8457 80.7196L42.8384 82.3854Z" fill="#828282"/>
<path d="M50.5669 66.2897L49.1731 65.5272L50.7144 65.3125L52.1081 66.075L50.5669 66.2897Z" fill="black"/>
<path d="M58.2881 51.8694L56.8943 51.1069L58.4282 50.8848L59.822 51.6473L58.2881 51.8694Z" fill="#B4B4B4"/>
<path d="M58.2881 51.8694L56.8943 51.1069L58.4282 50.8848L59.822 51.6473L58.2881 51.8694Z" fill="black"/>
<path d="M55.1906 58.9693L53.7969 58.2068L53.8043 56.541L55.198 57.3036L55.1906 58.9693Z" fill="black"/>
<path d="M55.1906 58.9693L53.7969 58.2068L53.8043 56.541L55.198 57.3036L55.1906 58.9693Z" fill="#828282"/>
<path d="M44.3872 77.1667L42.9934 76.4041L44.5347 76.1895L45.9285 76.952L44.3872 77.1667Z" fill="#B4B4B4"/>
<path d="M49.0183 69.8443L47.6245 69.0818V67.416L49.0183 68.1786V69.8443Z" fill="#828282"/>
<path d="M49.0183 68.1784L47.6245 67.4159L49.1658 67.2012L50.5596 67.9563L49.0183 68.1784Z" fill="#B4B4B4"/>
<path d="M38.2146 88.0417L36.8208 87.2792L38.3621 87.0645L39.7558 87.827L38.2146 88.0417Z" fill="#B4B4B4"/>
<path d="M61.3631 53.0977L61.3557 54.7634V56.4366V58.1024L59.8145 58.3171L58.2732 58.5318L56.7319 58.7539L56.7393 57.0881V55.4149L56.7467 53.7492L58.2806 53.5345L59.8218 53.3124L61.3631 53.0977Z" fill="black"/>
<path d="M56.7466 53.7487L55.3528 52.9862L56.8867 52.7715L58.2805 53.534L56.7466 53.7487Z" fill="black"/>
<path d="M56.7392 55.4147L55.3455 54.6521L55.3528 52.9863L56.7466 53.7489L56.7392 55.4147Z" fill="black"/>
<path d="M56.7466 53.7487L55.3528 52.9862L56.8867 52.7715L58.2805 53.534L56.7466 53.7487Z" fill="#B4B4B4"/>
<path d="M56.7392 55.4147L55.3455 54.6521L55.3528 52.9863L56.7466 53.7489L56.7392 55.4147Z" fill="#828282"/>
<path d="M62.897 52.8822V54.5479V56.2137L62.8896 57.8869V59.5527L61.3484 59.7674L59.8071 59.982L58.2732 60.2042L56.7319 60.4189L55.1907 60.6336V58.9678L55.198 57.302V55.6288L55.2054 53.9631V52.2973L56.7467 52.0826L58.288 51.8679L59.8219 51.6458L61.3631 51.4311L62.9044 51.209L62.897 52.8822Z" fill="black"/>
<path d="M59.8219 51.6458L61.3631 51.4311L62.9044 51.209L62.897 52.8822V54.5479V56.2137L62.8896 57.8869V59.5527L61.3484 59.7674L59.8071 59.982L58.2732 60.2042L56.7319 60.4189L55.1907 60.6336V58.9678L55.198 57.302V55.6288L55.2054 53.9631V52.2973L56.7467 52.0826L58.288 51.8679L59.8219 51.6458Z" fill="#DFDFDF"/>
<path d="M61.3557 54.7634V56.4366V58.1024L59.8145 58.3171L58.2732 58.5318L56.7319 58.7539L56.7393 57.0881V55.4149L56.7467 53.7492L58.2806 53.5345L59.8218 53.3124L61.3631 53.0977L61.3557 54.7634Z" fill="#DFDFDF"/>
<path d="M45.9358 75.2853L44.542 74.5228V72.8496L45.9358 73.6122V75.2853Z" fill="#828282"/>
<path d="M45.9358 73.612L44.542 72.8495L46.0833 72.6348L47.477 73.3973L45.9358 73.612Z" fill="#B4B4B4"/>
<path d="M53.6494 60.8561L52.2556 60.0935L52.263 58.4277L53.6568 59.1829L53.6494 60.8561Z" fill="black"/>
<path d="M42.8457 80.7193L41.4519 79.9568V78.291L42.8457 79.0536V80.7193Z" fill="#828282"/>
<path d="M50.5669 66.2896L49.1731 65.5271V63.8613L50.5669 64.6239V66.2896Z" fill="#828282"/>
<path d="M58.2881 50.196L56.8943 49.4334L58.4356 49.2188L59.8293 49.9813L58.2881 50.196Z" fill="black"/>
<path d="M55.198 57.3033L53.8042 56.5408V54.875L55.198 55.6301V57.3033Z" fill="black"/>
<path d="M55.198 57.3033L53.8042 56.5408V54.875L55.198 55.6301V57.3033Z" fill="#828282"/>
<path d="M44.3872 77.1666L42.9934 76.4041L43.0008 74.7383L44.3946 75.5008L44.3872 77.1666Z" fill="black"/>
<path d="M52.1081 62.7369L50.7144 61.9744L50.7217 60.3086L52.1155 61.0711L52.1081 62.7369Z" fill="#828282"/>
<path d="M49.0183 68.1783L47.6245 67.4158L47.6319 65.75L49.0257 66.5126L49.0183 68.1783Z" fill="black"/>
<path d="M56.7466 52.0827L55.3528 51.3202L56.8941 51.1055L58.2878 51.868L56.7466 52.0827Z" fill="#B4B4B4"/>
<path d="M56.7466 52.0827L55.3528 51.3202L56.8941 51.1055L58.2878 51.868L56.7466 52.0827Z" fill="black"/>
<path d="M53.6567 59.1826L52.2629 58.4275V56.7617L53.6567 57.5169V59.1826Z" fill="black"/>
<path d="M42.8457 79.0533L41.4519 78.2908L41.4593 76.625L42.8531 77.3876L42.8457 79.0533Z" fill="#828282"/>
<path d="M50.5742 62.9519L49.1804 62.1967L50.7143 61.9746L52.1081 62.7372L50.5742 62.9519Z" fill="#B4B4B4"/>
<path d="M47.4844 70.0666L46.0833 69.304L46.0906 67.6309L47.4844 68.3934V70.0666Z" fill="black"/>
<path d="M47.4844 68.3933L46.0906 67.6307L47.6245 67.416L49.0182 68.1786L47.4844 68.3933Z" fill="black"/>
<path d="M36.6733 88.264L35.2795 87.5014L36.8208 87.2793L38.2146 88.0418L36.6733 88.264Z" fill="#B4B4B4"/>
<path d="M55.198 55.6295L53.8042 54.8743L53.8116 53.2012L55.2054 53.9637L55.198 55.6295Z" fill="black"/>
<path d="M55.198 55.6295L53.8042 54.8743L53.8116 53.2012L55.2054 53.9637L55.198 55.6295Z" fill="#828282"/>
<path d="M44.3945 75.5006L43.0007 74.738V73.0723L44.3945 73.8348V75.5006Z" fill="black"/>
<path d="M49.0256 66.5123L47.6318 65.7498V64.084L49.0256 64.8391V66.5123Z" fill="black"/>
<path d="M49.0256 64.8386L47.6318 64.0834L49.1731 63.8613L50.5669 64.6239L49.0256 64.8386Z" fill="black"/>
<path d="M56.7466 50.4108L55.3528 49.6483L56.8941 49.4336L58.2878 50.1961L56.7466 50.4108Z" fill="black"/>
<path d="M45.9358 71.9459L44.542 71.1834L44.5494 69.5176L45.9431 70.2801L45.9358 71.9459Z" fill="black"/>
<path d="M45.9431 70.2819L44.5493 69.5194L46.0832 69.3047L47.4844 70.0672L45.9431 70.2819Z" fill="black"/>
<path d="M53.6567 57.5182L52.2629 56.763L52.2703 55.0898L53.6641 55.8524L53.6567 57.5182Z" fill="black"/>
<path d="M42.8533 77.3893L41.4595 76.6267V74.9609L42.8533 75.7161V77.3893Z" fill="#828282"/>
<path d="M50.5742 62.9518L49.1804 62.1966V60.5234L50.5742 61.286V62.9518Z" fill="black"/>
<path d="M50.5742 61.2858L49.1804 60.5233L50.7217 60.3086L52.1155 61.0711L50.5742 61.2858Z" fill="black"/>
<path d="M55.2055 52.2976L53.8118 51.535L55.353 51.3203L56.7468 52.0829L55.2055 52.2976Z" fill="black"/>
<path d="M55.2055 53.9635L53.8118 53.2009V51.5352L55.2055 52.2977V53.9635Z" fill="black"/>
<path d="M55.2055 52.2976L53.8118 51.535L55.353 51.3203L56.7468 52.0829L55.2055 52.2976Z" fill="#B4B4B4"/>
<path d="M55.2055 53.9635L53.8118 53.2009V51.5352L55.2055 52.2977V53.9635Z" fill="#828282"/>
<path d="M44.3945 72.1608L43.0007 71.4057L44.542 71.1836L45.9358 71.9461L44.3945 72.1608Z" fill="black"/>
<path d="M52.1155 59.4049L50.7217 58.6423L50.7291 56.9766L52.1228 57.7391L52.1155 59.4049Z" fill="#828282"/>
<path d="M45.9431 70.2814L44.5493 69.5189V67.8457L45.9431 68.6083V70.2814Z" fill="#828282"/>
<path d="M35.1394 88.4792L33.7456 87.7167L35.2795 87.502L36.6733 88.2645L35.1394 88.4792Z" fill="#B4B4B4"/>
<path d="M53.664 55.8522L52.2703 55.0896V53.4238L53.664 54.1864V55.8522Z" fill="black"/>
<path d="M42.8606 74.0495L41.4595 73.287L43.0007 73.0723L44.3945 73.8348L42.8606 74.0495Z" fill="#B4B4B4"/>
<path d="M50.5742 61.2857L49.1804 60.5232V58.8574L50.5816 59.62L50.5742 61.2857Z" fill="#828282"/>
<path d="M50.5816 59.6198L49.1804 58.8573L50.7217 58.6426L52.1155 59.4051L50.5816 59.6198Z" fill="#B4B4B4"/>
<path d="M55.2055 50.6331L53.8118 49.8705L55.353 49.6484L56.7468 50.411L55.2055 50.6331Z" fill="black"/>
<path d="M44.4018 70.4948L43.0081 69.7323L44.5493 69.5176L45.9431 70.2801L44.4018 70.4948Z" fill="#B4B4B4"/>
<path d="M52.123 57.7404L50.7292 56.9779V55.3047L52.123 56.0672V57.7404Z" fill="#828282"/>
<path d="M41.312 75.9382L39.9182 75.1756L41.4595 74.9609L42.8533 75.7161L41.312 75.9382Z" fill="black"/>
<path d="M49.0329 63.1744L47.6392 62.4119V60.7461L49.0329 61.5086V63.1744Z" fill="#828282"/>
<path d="M49.0329 61.5081L47.6392 60.7455L49.1804 60.5234L50.5742 61.286L49.0329 61.5081Z" fill="#B4B4B4"/>
<path d="M53.664 54.1861L52.2703 53.4236V51.7578L53.6714 52.5204L53.664 54.1861Z" fill="black"/>
<path d="M42.8606 72.3835L41.4668 71.6209L43.0007 71.4062L44.3945 72.1614L42.8606 72.3835Z" fill="black"/>
<path d="M50.5816 59.6197L49.1804 58.8572L49.1878 57.1914L50.5816 57.954V59.6197Z" fill="black"/>
<path d="M39.7707 77.8171L38.377 77.0545L39.9182 76.8398L41.312 77.6024L39.7707 77.8171Z" fill="black"/>
<path d="M39.7707 77.8171L38.377 77.0545L39.9182 76.8398L41.312 77.6024L39.7707 77.8171Z" fill="#B4B4B4"/>
<path d="M47.4917 65.0607L46.0979 64.2982V62.625L47.4917 63.3876V65.0607Z" fill="#828282"/>
<path d="M47.4917 63.3894L46.0979 62.6268L47.6392 62.4121L49.0329 63.1747L47.4917 63.3894Z" fill="#B4B4B4"/>
<path d="M44.4018 68.8304L43.0081 68.0678L44.5493 67.8457L45.9431 68.6082L44.4018 68.8304Z" fill="black"/>
<path d="M33.5981 88.6941L32.2043 87.9389L33.7456 87.7168L35.1394 88.4794L33.5981 88.6941Z" fill="#B4B4B4"/>
<path d="M52.123 56.067L50.7292 55.3044V53.6387L52.123 54.4012V56.067Z" fill="#828282"/>
<path d="M41.3193 74.2644L39.9255 73.5018L41.4594 73.2871L42.8606 74.0497L41.3193 74.2644Z" fill="#B4B4B4"/>
<path d="M49.0403 59.8421L47.6465 59.0795L49.1804 58.8574L50.5815 59.62L49.0403 59.8421Z" fill="black"/>
<path d="M49.0329 61.5084L47.6392 60.7459L47.6465 59.0801L49.0403 59.8426L49.0329 61.5084Z" fill="black"/>
<path d="M38.2295 79.7058L36.8357 78.9432L38.377 78.7285L39.7707 79.4837L38.2295 79.7058Z" fill="black"/>
<path d="M38.2295 79.7058L36.8357 78.9432L38.377 78.7285L39.7707 79.4837L38.2295 79.7058Z" fill="#B4B4B4"/>
<path d="M45.9504 66.942L44.5566 66.1794V64.5137L45.9504 65.2762V66.942Z" fill="#828282"/>
<path d="M45.9504 65.2761L44.5566 64.5135L46.0979 64.2988L47.4917 65.0614L45.9504 65.2761Z" fill="#B4B4B4"/>
<path d="M53.6714 52.5197L52.2703 51.7572L52.2776 50.084L53.6714 50.8465V52.5197Z" fill="black"/>
<path d="M53.6716 50.8464L52.2778 50.0838L53.8117 49.8691L55.2055 50.6317L53.6716 50.8464Z" fill="black"/>
<path d="M42.8606 70.7171L41.4668 69.9545L43.0081 69.7324L44.4018 70.495L42.8606 70.7171Z" fill="#B4B4B4"/>
<path d="M50.5818 57.9537L49.188 57.1912V55.5254L50.5818 56.2879V57.9537Z" fill="black"/>
<path d="M39.7781 76.1511L38.3843 75.3885L39.9182 75.1738L41.3119 75.9364L39.7781 76.1511Z" fill="black"/>
<path d="M47.4917 63.3893L46.0979 62.6267L46.1053 60.9609L47.4991 61.7235L47.4917 63.3893Z" fill="black"/>
<path d="M47.499 61.7233L46.1052 60.9608L47.6391 60.7461L49.0329 61.5086L47.499 61.7233Z" fill="black"/>
<path d="M44.4092 67.1643L43.0154 66.4018L44.5566 66.1797L45.9504 66.9422L44.4092 67.1643Z" fill="#B4B4B4"/>
<path d="M52.123 54.401L50.7292 53.6384L50.7366 51.9727L52.1304 52.7352L52.123 54.401Z" fill="#828282"/>
<path d="M41.3193 72.5984L39.9255 71.8358L41.4668 71.6211L42.8606 72.3836L41.3193 72.5984Z" fill="black"/>
<path d="M41.3193 74.2643L39.9255 73.5017V71.8359L41.3193 72.5985V74.2643Z" fill="black"/>
<path d="M38.2295 78.0393L36.8357 77.2768L38.377 77.0547L39.7707 77.8172L38.2295 78.0393Z" fill="black"/>
<path d="M38.2295 78.0393L36.8357 77.2768L38.377 77.0547L39.7707 77.8172L38.2295 78.0393Z" fill="#B4B4B4"/>
<path d="M45.9504 65.276L44.5566 64.5134V62.8477L45.9504 63.6102V65.276Z" fill="black"/>
<path d="M47.4917 63.3887V65.0618L45.9504 65.2765V63.6108L47.4917 63.3887Z" fill="black"/>
<path d="M45.9504 63.6097L44.5566 62.8471L46.0979 62.625L47.4917 63.3876L45.9504 63.6097Z" fill="black"/>
<path d="M35.147 85.1393L33.7532 84.3767V82.7109L35.147 83.4735V85.1393Z" fill="black"/>
<path d="M35.147 85.1393L33.7532 84.3767V82.7109L35.147 83.4735V85.1393Z" fill="#828282"/>
<path d="M42.8679 69.0456L41.4741 68.2831L43.008 68.0684L44.4018 68.8309L42.8679 69.0456Z" fill="black"/>
<path d="M32.0569 88.9148L30.6631 88.1522L32.2043 87.9375L33.5981 88.6927L32.0569 88.9148Z" fill="#B4B4B4"/>
<path d="M36.6882 79.9206L35.2944 79.1581L36.8357 78.9434L38.2295 79.7059L36.6882 79.9206Z" fill="black"/>
<path d="M36.6882 79.9206L35.2944 79.1581L36.8357 78.9434L38.2295 79.7059L36.6882 79.9206Z" fill="#B4B4B4"/>
<path d="M44.4092 65.4909L43.0154 64.7358L44.5566 64.5137L45.9504 65.2762L44.4092 65.4909Z" fill="black"/>
<path d="M33.5981 87.0279L32.2043 86.2654V84.5996L33.6055 85.3622L33.5981 87.0279Z" fill="black"/>
<path d="M33.5981 87.0279L32.2043 86.2654V84.5996L33.6055 85.3622L33.5981 87.0279Z" fill="#828282"/>
<path d="M52.1303 52.7346L50.7366 51.972V50.2988L52.1303 51.0614V52.7346Z" fill="#828282"/>
<path d="M41.3266 70.9323L39.9329 70.1698L41.4668 69.9551L42.8605 70.7176L41.3266 70.9323Z" fill="#B4B4B4"/>
<path d="M49.0403 56.5027L47.6465 55.7401L49.1877 55.5254L50.5815 56.2879L49.0403 56.5027Z" fill="#B4B4B4"/>
<path d="M38.2368 76.3659L36.843 75.6108L38.3843 75.3887L39.7781 76.1512L38.2368 76.3659Z" fill="black"/>
<path d="M45.9504 63.61L44.5566 62.8474L44.564 61.1816L45.9578 61.9368L45.9504 63.61Z" fill="#828282"/>
<path d="M35.147 83.4732L33.7532 82.7107V81.0449L35.147 81.8075V83.4732Z" fill="black"/>
<path d="M35.147 83.4732L33.7532 82.7107V81.0449L35.147 81.8075V83.4732Z" fill="#828282"/>
<path d="M42.8679 67.3796L41.4741 66.617L43.0154 66.4023L44.4092 67.1649L42.8679 67.3796Z" fill="#B4B4B4"/>
<path d="M32.0569 88.9162L30.6631 88.1536L30.6705 86.4805L32.0642 87.243L32.0569 88.9162Z" fill="black"/>
<path d="M39.7781 74.4869L38.3843 73.7244L38.3917 72.0586L39.7854 72.8137L39.7781 74.4869Z" fill="#828282"/>
<path d="M47.499 60.0572L46.1052 59.2947V57.6289L47.499 58.3915V60.0572Z" fill="#828282"/>
<path d="M36.6955 78.2546L35.3018 77.492L36.8357 77.2773L38.2294 78.0399L36.6955 78.2546Z" fill="#B4B4B4"/>
<path d="M36.6955 78.2546L35.3018 77.492L36.8357 77.2773L38.2294 78.0399L36.6955 78.2546Z" fill="black"/>
<path d="M44.4165 63.8249L43.0227 63.0624L44.5566 62.8477L45.9504 63.6102L44.4165 63.8249Z" fill="#B4B4B4"/>
<path d="M33.6055 85.3619L32.2043 84.5994L32.2117 82.9336L33.6055 83.6962V85.3619Z" fill="#828282"/>
<path d="M33.6055 85.3619L32.2043 84.5994L32.2117 82.9336L33.6055 83.6962V85.3619Z" fill="black"/>
<path d="M41.3266 69.2585L39.9329 68.5033L41.4741 68.2812L42.8679 69.0438L41.3266 69.2585Z" fill="black"/>
<path d="M38.2368 74.6999L36.843 73.9374L38.3843 73.7227L39.7781 74.4852L38.2368 74.6999Z" fill="#B4B4B4"/>
<path d="M45.9577 61.9381L44.564 61.1829V59.5098L45.9577 60.2723V61.9381Z" fill="#828282"/>
<path d="M45.9577 60.2722L44.564 59.5096L46.1052 59.2949L47.499 60.0575L45.9577 60.2722Z" fill="#B4B4B4"/>
<path d="M35.147 81.8072L33.7532 81.0447L33.7605 79.3789L35.1543 80.1341L35.147 81.8072Z" fill="black"/>
<path d="M35.1543 80.1355L33.7605 79.3803L35.2944 79.1582L36.6882 79.9208L35.1543 80.1355Z" fill="#B4B4B4"/>
<path d="M35.147 81.8072L33.7532 81.0447L33.7605 79.3789L35.1543 80.1341L35.147 81.8072Z" fill="#828282"/>
<path d="M33.6057 83.6955L32.2119 82.9329V81.2598L33.6057 82.0223V83.6955Z" fill="black"/>
<path d="M33.6057 83.6955L32.2119 82.9329V81.2598L33.6057 82.0223V83.6955Z" fill="#828282"/>
<path d="M35.1543 78.4694L33.7605 77.7069L35.3018 77.4922L36.6955 78.2547L35.1543 78.4694Z" fill="#B4B4B4"/>
<path d="M35.1543 78.4694L33.7605 77.7069L35.3018 77.4922L36.6955 78.2547L35.1543 78.4694Z" fill="black"/>
<path d="M33.6057 82.0221L32.2119 81.2595L32.2193 79.5938L33.6131 80.3563L33.6057 82.0221Z" fill="black"/>
<path d="M33.6057 82.0221L32.2119 81.2595L32.2193 79.5938L33.6131 80.3563L33.6057 82.0221Z" fill="#828282"/>
<path d="M33.613 78.6917L32.2192 77.9291L33.7605 77.707L35.1543 78.4696L33.613 78.6917Z" fill="black"/>
<path d="M33.613 78.6917L32.2192 77.9291L33.7605 77.707L35.1543 78.4696L33.613 78.6917Z" fill="#B4B4B4"/>
<path d="M33.613 80.358L32.2192 79.5955V77.9297L33.613 78.6922V80.358Z" fill="#828282"/>
<path d="M33.613 80.358L32.2192 79.5955V77.9297L33.613 78.6922V80.358Z" fill="black"/>
<path d="M41.3119 75.9369L42.8531 75.7148V77.388L42.8458 79.0538V80.7196L42.8384 82.3853V84.0585V85.7243L42.831 87.39L41.2897 87.6121L39.7558 87.8268L38.2146 88.0415L36.6733 88.2636L35.1394 88.4783L33.5982 88.693L32.0569 88.9151L32.0643 87.242V85.5762V83.9104L32.0716 82.2373V80.5715L32.079 78.9057V77.24L33.6203 77.0178L35.1615 76.8031L36.6954 76.5884L38.2367 76.3663L39.778 76.1516L41.3119 75.9369Z" fill="black"/>
<path d="M41.3119 79.2693L41.3045 80.9351V82.6082L41.2971 84.274V85.9398L39.7558 86.1619L38.2146 86.3766L36.6807 86.5913L35.1394 86.806L33.5981 87.0281L33.6055 85.3623V83.6965V82.0234L33.6129 80.3576V78.6918L35.1542 78.4697L36.6954 78.255L38.2293 78.0403L39.7706 77.8182L41.3119 77.6035V79.2693Z" fill="black"/>
<path d="M38.2293 78.0403L39.7706 77.8182L41.3119 77.6035V79.2693L41.3045 80.9351V82.6082L41.2971 84.274V85.9398L39.7558 86.1619L38.2146 86.3766L36.6807 86.5913L35.1394 86.806L33.5981 87.0281L33.6055 85.3623V83.6965V82.0234L33.6129 80.3576V78.6918L35.1542 78.4697L36.6954 78.255L38.2293 78.0403Z" fill="white"/>
<path d="M39.7634 81.1575V82.8233V84.4891L38.2221 84.7112L36.6809 84.9259L35.147 85.1406V83.4748V81.809L35.1543 80.1359L36.6882 79.9212L38.2295 79.7065L39.7708 79.4844L39.7634 81.1575Z" fill="#DFDFDF"/>
<path d="M42.8679 65.7136L41.4741 64.951L43.0154 64.7363L44.4092 65.4915L42.8679 65.7136Z" fill="black"/>
<path d="M32.0642 87.2428L30.6704 86.4802V84.8145L32.0642 85.577V87.2428Z" fill="black"/>
<path d="M50.5964 51.2835L49.2026 50.5209L50.7365 50.2988L52.1303 51.0614L50.5964 51.2835Z" fill="black"/>
<path d="M39.7854 71.1472L38.3916 70.3846L39.9329 70.1699L41.3266 70.9325L39.7854 71.1472Z" fill="#B4B4B4"/>
<path d="M39.7854 72.8131L38.3916 72.0579V70.3848L39.7854 71.1473V72.8131Z" fill="#828282"/>
<path d="M47.499 58.3908L46.1052 57.6282L46.1126 55.9551L47.5064 56.7176L47.499 58.3908Z" fill="#828282"/>
<path d="M47.5066 56.7175L46.1128 55.9549L47.6467 55.7402L49.0405 56.5028L47.5066 56.7175Z" fill="#B4B4B4"/>
<path d="M36.6955 76.5886L35.3018 75.826L36.843 75.6113L38.2368 76.3665L36.6955 76.5886Z" fill="black"/>
<path d="M44.4165 63.8248L43.0227 63.0623V61.3965L44.4165 62.159V63.8248Z" fill="black"/>
<path d="M41.334 67.5944L39.9402 66.8319L41.4741 66.6172L42.8679 67.3797L41.334 67.5944Z" fill="#B4B4B4"/>
<path d="M41.3266 69.2604L39.9329 68.5052L39.9402 66.832L41.334 67.5946L41.3266 69.2604Z" fill="#828282"/>
<path d="M49.0478 54.8365L47.6541 54.074V52.4082L49.0478 53.1634V54.8365Z" fill="#828282"/>
<path d="M49.0478 53.1647L47.6541 52.4096L49.1953 52.1875L50.5891 52.95L49.0478 53.1647Z" fill="#B4B4B4"/>
<path d="M49.0478 53.1647L47.6541 52.4096L49.1953 52.1875L50.5891 52.95L49.0478 53.1647Z" fill="black"/>
<path d="M49.0478 54.8365L47.6541 54.074V52.4082L49.0478 53.1634V54.8365Z" fill="black"/>
<path d="M38.2368 74.7018L36.843 73.9392L36.8504 72.2734L38.2442 73.036L38.2368 74.7018Z" fill="black"/>
<path d="M45.9577 60.2721L44.564 59.5095L44.5713 57.8438L45.9651 58.6063L45.9577 60.2721Z" fill="black"/>
<path d="M32.0642 85.5768L30.6704 84.8142V83.1484L32.0642 83.911V85.5768Z" fill="black"/>
<path d="M39.7854 71.1471L38.3916 70.3845V68.7188L39.7854 69.4813V71.1471Z" fill="black"/>
<path d="M47.5066 56.7174L46.1128 55.9548V54.2891L47.5066 55.0516V56.7174Z" fill="black"/>
<path d="M44.4165 60.487L43.0227 59.7319L44.564 59.5098L45.9577 60.2723L44.4165 60.487Z" fill="black"/>
<path d="M44.4165 62.1588L43.0227 61.3962V59.7305L44.4165 60.4856V62.1588Z" fill="black"/>
<path d="M41.334 67.5943L39.9402 66.8318V65.166L41.334 65.9286V67.5943Z" fill="black"/>
<path d="M41.334 65.9284L39.9402 65.1659L41.4741 64.9512L42.8679 65.7137L41.334 65.9284Z" fill="black"/>
<path d="M49.0552 51.4987L47.6614 50.7362L49.2026 50.5215L50.5964 51.284L49.0552 51.4987Z" fill="black"/>
<path d="M38.2441 71.3694L36.8503 70.6069L38.3916 70.3848L39.7854 71.1473L38.2441 71.3694Z" fill="black"/>
<path d="M45.9653 56.9397L44.5715 56.1772L46.1128 55.9551L47.5066 56.7176L45.9653 56.9397Z" fill="black"/>
<path d="M35.1616 76.8034L33.7678 76.0409L35.3017 75.8262L36.6955 76.5887L35.1616 76.8034Z" fill="black"/>
<path d="M42.8752 64.0396L41.4814 63.2771V61.6113L42.8752 62.3739V64.0396Z" fill="#828282"/>
<path d="M32.0642 83.9103L30.6704 83.1478L30.6778 81.4746L32.0716 82.2372L32.0642 83.9103Z" fill="black"/>
<path d="M39.7927 67.8093L38.3989 67.0541L39.9402 66.832L41.334 67.5946L39.7927 67.8093Z" fill="black"/>
<path d="M36.7029 73.2507L35.3091 72.4881L36.8503 72.2734L38.2441 73.036L36.7029 73.2507Z" fill="#B4B4B4"/>
<path d="M36.7029 74.9147L35.3091 74.1521V72.4863L36.7029 73.2489V74.9147Z" fill="#828282"/>
<path d="M44.4238 58.821L43.03 58.0584L44.5713 57.8438L45.9651 58.6063L44.4238 58.821Z" fill="#B4B4B4"/>
<path d="M41.334 64.262L39.9402 63.4994L41.4815 63.2773L42.8752 64.0399L41.334 64.262Z" fill="#B4B4B4"/>
<path d="M38.2441 71.3693L36.8503 70.6068L36.8577 68.9336L38.2515 69.6961L38.2441 71.3693Z" fill="#828282"/>
<path d="M38.2514 69.696L36.8577 68.9334L38.3916 68.7188L39.7853 69.4813L38.2514 69.696Z" fill="#B4B4B4"/>
<path d="M38.2514 69.6959L36.8577 68.9334V67.2676L38.2514 68.0301V69.6959Z" fill="black"/>
<path d="M38.2515 69.6971L39.7854 69.4824V71.1482L38.2441 71.3703L38.2515 69.6971Z" fill="#DFDFDF"/>
<path d="M45.9726 55.2663L44.5789 54.5038L46.1128 54.2891L47.5065 55.0516L45.9726 55.2663Z" fill="#B4B4B4"/>
<path d="M35.1616 75.137L33.7678 74.3744L35.3091 74.1523L36.7029 74.9149L35.1616 75.137Z" fill="#B4B4B4"/>
<path d="M42.8752 62.3736L41.4814 61.6111L41.4888 59.9453L42.8826 60.7079L42.8752 62.3736Z" fill="#828282"/>
<path d="M32.0718 82.2369L30.678 81.4744V79.8086L32.0718 80.5711V82.2369Z" fill="black"/>
<path d="M39.7927 67.8072L38.3989 67.0521V65.3789L39.7927 66.1415V67.8072Z" fill="#828282"/>
<path d="M47.5139 53.3869L46.1201 52.6243V50.9512L47.5139 51.7137V53.3869Z" fill="black"/>
<path d="M47.5139 51.7136L46.1201 50.951L47.6614 50.7363L49.0552 51.4989L47.5139 51.7136Z" fill="black"/>
<path d="M44.4238 58.8209L43.03 58.0584V56.3926L44.4238 57.1551V58.8209Z" fill="black"/>
<path d="M44.4238 57.155L43.03 56.3924L44.5713 56.1777L45.9651 56.9403L44.4238 57.155Z" fill="black"/>
<path d="M33.6203 77.0183L32.2266 76.2631L33.7678 76.041L35.1616 76.8036L33.6203 77.0183Z" fill="black"/>
<path d="M45.9726 53.6003L44.5789 52.8377L46.1201 52.623L47.5139 53.3856L45.9726 53.6003Z" fill="black"/>
<path d="M42.8825 60.7076L41.4888 59.9451V58.2793L42.8825 59.0418V60.7076Z" fill="#828282"/>
<path d="M32.0718 80.5709L30.678 79.8083L30.6854 78.1426L32.0791 78.9051L32.0718 80.5709Z" fill="black"/>
<path d="M39.8 64.4773L38.4062 63.7147L39.9401 63.5L41.3339 64.2626L39.8 64.4773Z" fill="#B4B4B4"/>
<path d="M36.7102 69.9108L35.3164 69.1557L36.8577 68.9336L38.2515 69.6961L36.7102 69.9108Z" fill="black"/>
<path d="M44.4314 55.4886L43.0376 54.726L44.5789 54.5039L45.9726 55.2665L44.4314 55.4886Z" fill="#B4B4B4"/>
<path d="M33.6203 75.3522L32.2266 74.5897L33.7678 74.375L35.1616 75.1375L33.6203 75.3522Z" fill="#B4B4B4"/>
<path d="M38.2514 66.3636L36.8577 65.601L38.3989 65.3789L39.7927 66.1415L38.2514 66.3636Z" fill="black"/>
<path d="M42.8825 59.0431L41.4888 58.2806L41.4961 56.6074L42.8899 57.37L42.8825 59.0431Z" fill="#828282"/>
<path d="M32.0791 77.2409L30.6853 76.4784L32.2266 76.2637L33.6203 77.0188L32.0791 77.2409Z" fill="black"/>
<path d="M32.0791 78.9068L30.6853 78.1443V76.4785L32.0791 77.2411V78.9068Z" fill="black"/>
<path d="M36.7102 68.2448L35.3164 67.4823L36.8577 67.2676L38.2515 68.0301L36.7102 68.2448Z" fill="#B4B4B4"/>
<path d="M36.7102 69.9108L35.3164 69.1556V67.4824L36.7102 68.245V69.9108Z" fill="#828282"/>
<path d="M44.4314 53.8151L43.0376 53.06L44.5789 52.8379L45.9726 53.6004L44.4314 53.8151Z" fill="black"/>
<path d="M44.4314 55.4889L43.0376 54.7263V53.0605L44.4314 53.8157V55.4889Z" fill="black"/>
<path d="M33.6203 75.3522L32.2266 74.5896V72.9238L33.6203 73.6864V75.3522Z" fill="black"/>
<path d="M38.259 64.6921L36.8652 63.9295L38.4065 63.7148L39.8003 64.4774L38.259 64.6921Z" fill="#B4B4B4"/>
<path d="M42.8901 57.3697L41.4963 56.6072V54.9414L42.8901 55.704V57.3697Z" fill="#828282"/>
<path d="M36.7175 66.5788L35.3237 65.8163L36.8576 65.6016L38.2514 66.3641L36.7175 66.5788Z" fill="black"/>
<path d="M35.1689 70.1334L33.7751 69.3708L33.7825 67.7051L35.1763 68.4602L35.1689 70.1334Z" fill="black"/>
<path d="M42.8901 55.7037L41.4963 54.9412V53.2754L42.8901 54.0379V55.7037Z" fill="#828282"/>
<path d="M32.0864 73.9011L30.6926 73.1385L32.2265 72.9238L33.6203 73.6864L32.0864 73.9011Z" fill="#B4B4B4"/>
<path d="M36.7175 64.9069L35.3237 64.1518L36.865 63.9297L38.2588 64.6922L36.7175 64.9069Z" fill="#B4B4B4"/>
<path d="M33.6277 70.3483L32.2339 69.5858L33.7752 69.3711L35.1689 70.1336L33.6277 70.3483Z" fill="black"/>
<path d="M35.1762 66.7936L33.7825 66.0311L35.3237 65.8164L36.7175 66.5789L35.1762 66.7936Z" fill="black"/>
<path d="M42.8901 54.0373L41.4963 53.2747L41.5037 51.6016L42.8975 52.3641L42.8901 54.0373Z" fill="#828282"/>
<path d="M32.0864 73.901L30.6926 73.1384V71.4727L32.0864 72.2352V73.901Z" fill="black"/>
<path d="M33.6352 68.6823L32.2415 67.9198L33.7827 67.7051L35.1765 68.4602L33.6352 68.6823Z" fill="#B4B4B4"/>
<path d="M35.1762 65.1276L33.7825 64.3651L35.3237 64.1504L36.7175 64.9055L35.1762 65.1276Z" fill="#B4B4B4"/>
<path d="M32.0937 70.5632L30.7 69.8006L32.2338 69.5859L33.6276 70.3485L32.0937 70.5632Z" fill="black"/>
<path d="M32.0864 72.2365L30.6926 71.474L30.7 69.8008L32.0938 70.5633L32.0864 72.2365Z" fill="black"/>
<path d="M33.6352 67.0159L32.2415 66.2533L33.7827 66.0312L35.1765 66.7938L33.6352 67.0159Z" fill="black"/>
<path d="M41.3562 52.5862L39.9624 51.8237L41.5037 51.6016L42.8974 52.3641L41.3562 52.5862Z" fill="black"/>
<path d="M32.0937 68.8972L30.7 68.1346L32.2412 67.9199L33.635 68.6825L32.0937 68.8972Z" fill="#B4B4B4"/>
<path d="M39.8149 54.4675L38.4211 53.7123L39.9624 53.4902L41.3562 54.2528L39.8149 54.4675Z" fill="black"/>
<path d="M39.8149 54.4675L38.4211 53.7123L39.9624 53.4902L41.3562 54.2528L39.8149 54.4675Z" fill="#B4B4B4"/>
<path d="M33.6423 65.3425L32.2485 64.5799L33.7824 64.3652L35.1762 65.1278L33.6423 65.3425Z" fill="#B4B4B4"/>
<path d="M38.2737 56.3542L36.8799 55.5916L38.4212 55.377L39.8149 56.1395L38.2737 56.3542Z" fill="black"/>
<path d="M38.2737 56.3542L36.8799 55.5916L38.4212 55.377L39.8149 56.1395L38.2737 56.3542Z" fill="#B4B4B4"/>
<path d="M32.0937 68.8971L30.7 68.1345V66.4688L32.0937 67.2313V68.8971Z" fill="black"/>
<path d="M32.0937 67.2312L30.7 66.4686L32.2412 66.2539L33.635 67.0165L32.0937 67.2312Z" fill="black"/>
<path d="M39.8222 52.8015L38.4285 52.0389L39.9624 51.8242L41.3561 52.5868L39.8222 52.8015Z" fill="black"/>
<path d="M38.2737 54.6901L36.8799 53.9276L38.4212 53.7129L39.8149 54.468L38.2737 54.6901Z" fill="black"/>
<path d="M38.2737 54.6901L36.8799 53.9276L38.4212 53.7129L39.8149 54.468L38.2737 54.6901Z" fill="#B4B4B4"/>
<path d="M35.1838 61.7975L33.79 61.0349L33.7974 59.3691L35.1912 60.1243L35.1838 61.7975Z" fill="black"/>
<path d="M35.1838 61.7975L33.79 61.0349L33.7974 59.3691L35.1912 60.1243L35.1838 61.7975Z" fill="#828282"/>
<path d="M32.1013 65.5647L30.7075 64.8022L32.2488 64.5801L33.6426 65.3426L32.1013 65.5647Z" fill="#B4B4B4"/>
<path d="M36.7324 56.5691L35.3386 55.8139L36.8799 55.5918L38.2737 56.3544L36.7324 56.5691Z" fill="black"/>
<path d="M36.7324 56.5691L35.3386 55.8139L36.8799 55.5918L38.2737 56.3544L36.7324 56.5691Z" fill="#B4B4B4"/>
<path d="M33.6423 63.6764L32.2485 62.9138V61.248L33.6423 62.0106V63.6764Z" fill="black"/>
<path d="M33.6423 63.6764L32.2485 62.9138V61.248L33.6423 62.0106V63.6764Z" fill="#828282"/>
<path d="M38.281 53.0163L36.8872 52.2538L38.4285 52.0391L39.8222 52.8016L38.281 53.0163Z" fill="black"/>
<path d="M35.1911 60.1236L33.7974 59.3685V57.6953L35.1911 58.4579V60.1236Z" fill="black"/>
<path d="M35.1911 60.1236L33.7974 59.3685V57.6953L35.1911 58.4579V60.1236Z" fill="#828282"/>
<path d="M32.1013 65.565L30.7075 64.8025V63.1367L32.1013 63.8919V65.565Z" fill="black"/>
<path d="M36.7397 54.905L35.3459 54.1424L36.8798 53.9277L38.2736 54.6903L36.7397 54.905Z" fill="#B4B4B4"/>
<path d="M36.7397 54.905L35.3459 54.1424L36.8798 53.9277L38.2736 54.6903L36.7397 54.905Z" fill="black"/>
<path d="M33.6423 62.0104L32.2485 61.2478L32.2559 59.582L33.6497 60.3446L33.6423 62.0104Z" fill="#828282"/>
<path d="M33.6423 62.0104L32.2485 61.2478L32.2559 59.582L33.6497 60.3446L33.6423 62.0104Z" fill="black"/>
<path d="M35.1911 58.4576L33.7974 57.6951L33.8047 56.0293L35.1985 56.7918L35.1911 58.4576Z" fill="black"/>
<path d="M35.1985 56.7917L33.8047 56.0292L35.3386 55.8145L36.7324 56.5696L35.1985 56.7917Z" fill="black"/>
<path d="M39.8148 56.1406L39.8074 57.8064V59.4722V61.1379L38.2661 61.36L36.7249 61.5747L35.1836 61.7968L35.191 60.1237V58.4579L35.1983 56.7921L36.7322 56.57L38.2735 56.3553L39.8148 56.1406Z" fill="black"/>
<path d="M35.1985 56.7917L33.8047 56.0292L35.3386 55.8145L36.7324 56.5696L35.1985 56.7917Z" fill="#B4B4B4"/>
<path d="M35.1911 58.4576L33.7974 57.6951L33.8047 56.0293L35.1985 56.7918L35.1911 58.4576Z" fill="#828282"/>
<path d="M32.1013 63.8912L30.7075 63.1361L30.7149 61.4629L32.1087 62.2254L32.1013 63.8912Z" fill="black"/>
<path d="M36.7397 53.2386L35.3459 52.476L36.8872 52.2539L38.281 53.0165L36.7397 53.2386Z" fill="black"/>
<path d="M33.6499 60.3459L32.2561 59.5833V57.9102L33.6499 58.6727V60.3459Z" fill="black"/>
<path d="M33.6499 60.3459L32.2561 59.5833V57.9102L33.6499 58.6727V60.3459Z" fill="#828282"/>
<path d="M35.1985 55.1179L33.8047 54.3627L35.346 54.1406L36.7397 54.9032L35.1985 55.1179Z" fill="black"/>
<path d="M35.1985 55.1179L33.8047 54.3627L35.346 54.1406L36.7397 54.9032L35.1985 55.1179Z" fill="#B4B4B4"/>
<path d="M32.1086 62.2252L30.7148 61.4626V59.7969L32.1086 60.5594V62.2252Z" fill="black"/>
<path d="M33.6499 58.6725L32.2561 57.9099L32.2635 56.2441L33.6573 57.0067L33.6499 58.6725Z" fill="#828282"/>
<path d="M33.6499 58.6725L32.2561 57.9099L32.2635 56.2441L33.6573 57.0067L33.6499 58.6725Z" fill="black"/>
<path d="M35.1985 53.4538L33.8047 52.6913L35.346 52.4766L36.7397 53.2391L35.1985 53.4538Z" fill="black"/>
<path d="M32.1086 60.5611L30.7148 59.7986L30.7222 58.1328L32.116 58.8954L32.1086 60.5611Z" fill="black"/>
<path d="M33.6572 57.0064L32.2634 56.2439V54.5781L33.6572 55.3407V57.0064Z" fill="black"/>
<path d="M33.6572 55.3405L32.2634 54.578L33.8047 54.3633L35.1985 55.1184L33.6572 55.3405Z" fill="black"/>
<path d="M33.6572 57.0064L32.2634 56.2439V54.5781L33.6572 55.3407V57.0064Z" fill="#828282"/>
<path d="M33.6572 55.3405L32.2634 54.578L33.8047 54.3633L35.1985 55.1184L33.6572 55.3405Z" fill="#B4B4B4"/>
<path d="M32.1159 58.8951L30.7222 58.1326V56.4668L32.1159 57.222V58.8951Z" fill="black"/>
<path d="M33.6645 53.6686L32.2708 52.9061L33.8046 52.6914L35.1984 53.4539L33.6645 53.6686Z" fill="black"/>
<path d="M32.1159 57.2213L30.7222 56.4661V54.793L32.1159 55.5555V57.2213Z" fill="black"/>
<path d="M32.1233 53.889L30.7295 53.1264L32.2708 52.9043L33.6645 53.6668L32.1233 53.889Z" fill="black"/>
<path d="M32.1159 55.5553L30.7222 54.7927L30.7295 53.127L32.1233 53.8895L32.1159 55.5553Z" fill="black"/>
<path d="M25.9804 48.1226L25.8918 96.4892L70.5296 90.1889L70.6181 41.8223L25.9804 48.1226ZM32.1086 63.9289V53.8898L33.6498 53.6677L35.1911 53.453L36.7323 53.2383L38.2662 53.0162L39.8075 52.8015L41.3488 52.5868L42.8827 52.3647V64.0399L41.3488 64.2621L39.8075 64.4767L38.2662 64.6914L36.7323 64.9136L35.1911 65.1283L33.6498 65.343L32.1086 65.5651V63.8919V63.9289ZM42.8532 77.3883V87.3607L41.3119 87.5828L39.7706 87.7975L38.2294 88.0122L36.6955 88.2343L35.1542 88.449L33.613 88.6637L32.079 88.8858V77.2403L33.6203 77.0182L35.1616 76.8035L36.7029 76.5888L38.2368 76.3667L39.778 76.152L41.3193 75.9373L42.8532 75.7151V77.3883ZM61.2894 79.7796L59.7481 80.0017V81.6675L61.2894 81.4528V84.7843L59.7481 85.0065L58.2142 85.2211L56.673 85.4358L55.1317 85.6579V83.9848L53.5904 84.1995L52.0492 84.4216V86.0873L50.5079 86.3095V84.6363L48.9666 84.851V86.5242L47.4327 86.7389V83.4073L45.8915 83.622V86.961L44.3502 87.1757V78.832L45.8915 78.6173V76.9515L44.3502 77.1662V73.8347L42.8089 74.0494L41.2677 74.2641V72.5983L42.8016 72.3836L44.3428 72.1615L45.8841 71.9468V70.281L44.3428 70.4957L42.8089 70.7178L41.2677 70.9325L39.7264 71.1472V74.4862L38.1851 74.7009V73.0351L36.6512 73.2498V74.9156L35.1099 75.1377L33.5761 75.3524V73.6866L32.0348 73.9013V70.5624L33.6572 70.3329L35.1985 70.1182V68.4672L33.6572 68.6819L32.1233 68.8966V67.2308L33.6646 67.0161L35.2058 66.794L36.7397 66.5793L38.281 66.3646L39.8223 66.1425V67.8157L41.3635 67.5936V65.9278L42.9048 65.7131L44.4461 65.491L45.9873 65.2763V63.6031L44.4461 63.8252V60.4937L45.9873 60.2716V58.6058L44.4461 58.8205V57.1548L45.9873 56.9327L47.5212 56.718V55.0522L45.98 55.2669L44.4387 55.489V53.8158L45.9726 53.6011L47.5138 53.3864V51.7132L49.0477 51.4985L50.589 51.2838L52.1303 51.0617V59.4054L50.589 59.6201V61.2859L52.1229 61.0712V62.7369L50.5816 62.9516V61.2859L49.0404 61.508V63.1737L47.5065 63.3884V65.0616L45.9726 65.2763V66.9421L44.4313 67.1642L42.8974 67.3789L41.3562 67.5936V69.2594L42.8901 69.0447L44.4313 68.83L45.9726 68.6079V70.281L47.5138 70.0663V68.3932L49.0551 68.1785V64.8395L50.5964 64.6248V66.2906L52.1376 66.0759V64.4101L53.6789 64.188V65.8908L55.2128 65.6687V63.9733L56.7541 63.7586V73.7606L55.2128 73.9827V70.6438L53.6716 70.8585L52.0934 71.0732V74.4047L53.6273 74.19V75.8558L52.086 76.0779V74.4047L50.5448 74.6268V76.2926L49.0035 76.5073V78.1731L50.5448 77.9584V79.6242L52.086 79.4095V77.7363L53.6273 77.5142V79.217L55.1685 78.9949V80.668L56.7098 80.4459V77.1144L55.1685 77.3291V75.6633L56.7098 75.4486V77.1144L58.2511 76.8923V73.5608L59.785 73.3461L61.3263 73.1239V76.4629L62.8675 76.2408V77.914L61.3263 78.1287V79.7944L61.2894 79.7796ZM64.394 82.6966L62.8528 82.9113V81.2455L64.3867 81.0308V82.6966H64.394ZM64.3867 72.6946V74.3603L62.8454 74.575V71.2435L64.3867 71.0214V72.6946ZM64.3867 69.3556L62.8528 69.5703L61.3115 69.7924V66.4387L59.7702 66.6534V69.9923L58.2364 70.207V63.5439L59.7776 63.3292V64.995L61.3189 64.7803V63.1071L62.8528 62.885V64.5582L61.3115 64.7729V66.4387L62.8528 66.224V67.8897L64.394 67.675V69.3408L64.3867 69.3556ZM64.394 50.9951V61.0045L62.8601 61.2192L61.3189 61.4339L59.7776 61.656L58.2437 61.8707L56.7025 62.0854L55.1612 62.3075L53.6199 62.5222V50.847L55.1612 50.6323L56.7025 50.4102L58.2437 50.1955L59.7776 49.9808L61.3189 49.7587L62.8601 49.544L64.394 49.3293V50.9951Z" fill="white"/>
<path d="M64.3867 81.0156V82.6814L62.8455 82.8961V81.2303L64.3867 81.0156Z" fill="black"/>
<path d="M64.4014 71.0059V72.679V74.3448L62.8601 74.5595V72.8937L62.8675 71.228L64.4014 71.0059Z" fill="black"/>
<path d="M58.229 81.8826L56.6951 82.1047V80.4315L58.2363 80.2168L58.229 81.8826Z" fill="#DFDFDF"/>
<path d="M62.8748 66.2246V67.8904L64.4087 67.6757V69.3415L62.8674 69.5561L61.3335 69.7783V68.1125V66.4393L62.8748 66.2246Z" fill="black"/>
<path d="M56.7024 75.4336V77.0994L55.1611 77.3141V75.6483L56.7024 75.4336Z" fill="black"/>
<path d="M52.0713 82.7551L52.0787 81.0893L53.6125 80.8672V82.533L52.0713 82.7551Z" fill="#DFDFDF"/>
<path d="M53.6125 82.533L52.0713 82.7551L52.0787 81.0893L53.6125 80.8672V82.533Z" fill="black"/>
<path d="M59.7996 63.3223V64.988L61.3409 64.7733L61.3335 66.4391L59.7922 66.6538V68.327V69.9928L58.251 70.2075L58.2584 68.5417V66.8759V65.2101L58.2657 63.537L59.7996 63.3223Z" fill="black"/>
<path d="M45.9209 80.2831L47.4622 80.0684V81.7415L45.9209 81.9562V80.2831Z" fill="white"/>
<path d="M53.6421 67.5273L53.6347 69.1931L52.1008 69.4152V67.742L53.6421 67.5273Z" fill="#DFDFDF"/>
<path d="M50.5596 69.6302L49.0183 69.8449V68.1791L50.5596 67.957V69.6302Z" fill="white"/>
<path d="M47.4697 75.0633V76.7364L45.9285 76.9511L45.9358 75.2854V73.6122L47.4771 73.3975L49.011 73.1828L49.0184 71.5096L50.5596 71.2949L50.5523 72.9607V74.6339L49.011 74.8486L47.4697 75.0633Z" fill="white"/>
<path d="M52.1155 61.0703L52.1081 62.7361L50.5742 62.9508V61.285L52.1155 61.0703Z" fill="black"/>
<path d="M50.5816 59.6211L50.5742 61.2869L49.033 61.509L49.0403 59.8432L50.5816 59.6211Z" fill="black"/>
<path d="M62.9044 49.5448L64.4457 49.3301V50.9958L64.4383 52.6616V54.3348L64.4309 56.0006V57.6663L64.4235 59.3321V60.9979L62.8823 61.22L61.3484 61.4347L59.8071 61.6568L58.2658 61.8715L56.7246 62.0862L55.1907 62.3083L53.6494 62.523V60.8572L53.6568 59.184V57.5183L53.6642 55.8525V54.1867L53.6715 52.521V50.8478L55.2054 50.6331L56.7467 50.411L58.288 50.1963L59.8292 49.9816L61.3705 49.7595L62.9044 49.5448Z" fill="black"/>
<path d="M49.033 61.5078V63.1736L47.4917 63.3883L47.4991 61.7225L49.033 61.5078Z" fill="black"/>
<path d="M39.7928 66.1426V67.8083L41.334 67.5937L41.3267 69.2594L42.8679 69.0447L44.4018 68.83L45.9431 68.6079V70.2811L44.4018 70.4958L42.8605 70.7179L41.3267 70.9326L39.7854 71.1473V69.4815L38.2515 69.6962V68.0305L36.7102 68.2452V69.9109L38.2515 69.6962L38.2441 71.3694L39.7854 71.1473V72.8131L39.778 74.4862L38.2367 74.7009L38.2441 73.0352L36.7029 73.2499V74.9156L35.1616 75.1377L33.6203 75.3524V73.6867L32.0864 73.9014V72.2356L32.0938 70.5624L33.6277 70.3477L35.169 70.133L35.1763 68.4599L33.6351 68.682L32.0938 68.8967V67.2309L33.6351 67.0162L35.1763 66.7941L36.7176 66.5794L38.2515 66.3647L39.7928 66.1426Z" fill="black"/>
<path d="M55.1834 63.9725L56.7246 63.7578V65.4236L56.7173 67.0894V68.7625L56.7099 70.4283V72.0941V73.7598L55.1686 73.9819V72.3088V70.643L53.6347 70.8577L52.0935 71.0798V72.7456L52.0861 74.4113L50.5522 74.6334V72.9603L50.5596 71.2945L49.0183 71.5092L49.0109 73.1824L47.477 73.3971L45.9358 73.6118V75.2849L45.9284 76.9507L44.3871 77.1654L44.3945 75.4996V73.8339L42.8606 74.0486L41.3193 74.2633V72.5975L42.8606 72.3828L44.3945 72.1607L45.9358 71.946L45.9431 70.2802L47.4844 70.0655V68.3924L49.0183 68.1777V69.8434L50.5596 69.6287V67.9556L49.0183 68.1777L49.0257 66.5119V64.8387L50.5669 64.624V66.2898L52.1082 66.0751V64.4093L53.6495 64.1872L53.6421 65.853L55.1834 65.6383V63.9725Z" fill="black"/>
<path d="M39.7708 79.4844L39.7634 81.1575V82.8233V84.4891L38.2221 84.7112L36.6809 84.9259L35.147 85.1406V83.4748V81.809L35.1543 80.1359L36.6882 79.9212L38.2295 79.7065L39.7708 79.4844Z" fill="black"/>
<path d="M47.4991 61.7232L47.4917 63.3889L45.9504 63.611L45.9578 61.9379V60.2721L47.4991 60.0574V58.3916L47.5065 56.7185L49.0403 56.5038L50.5816 56.2891V57.9548V59.6206L49.0403 59.8427L49.033 61.5085L47.4991 61.7232Z" fill="white"/>
<path d="M50.5891 52.9492V54.615L49.0479 54.8371V53.1639L50.5891 52.9492Z" fill="#DFDFDF"/>
<path d="M50.5891 54.615L49.0479 54.8371V53.1639L50.5891 52.9492V54.615Z" fill="black"/>
<path d="M45.9578 60.2715V61.9373L45.9504 63.6104L44.4165 63.8251V62.1594V60.4862L45.9578 60.2715Z" fill="black"/>
<path d="M45.9504 65.2754V66.9412L44.4091 67.1633L42.8679 67.378L41.334 67.5927V65.9269L42.8679 65.7122L44.4091 65.4901L45.9504 65.2754Z" fill="black"/>
<path d="M47.5064 56.7188L47.499 58.3919V60.0577L45.9577 60.2724L45.9651 58.6066L44.4238 58.8213V57.1555L45.9651 56.9409L47.5064 56.7188Z" fill="black"/>
<path d="M36.7102 68.246L38.2515 68.0312V69.697L36.7102 69.9117V68.246Z" fill="#DFDFDF"/>
<path d="M50.5965 51.2846L52.1304 51.0625V52.7357L52.123 54.4014V56.0672V57.7404L52.1156 59.4062L50.5817 59.6209V57.9551V56.2893L49.0404 56.504L47.5066 56.7187V55.0529L45.9727 55.2676L44.4314 55.4897V53.8166L45.9727 53.6019L47.5139 53.3872V51.714L49.0552 51.4993L50.5965 51.2846Z" fill="black"/>
<path d="M41.3487 55.9177V57.5835V59.2567L41.3413 60.9224V62.5882L39.8 62.8103L38.2588 63.025L36.7249 63.2397L35.1836 63.4618L33.6423 63.6765V62.0107L33.6497 60.345V58.6718L33.6571 57.006V55.3403L35.1984 55.1182L36.7396 54.9035L38.2735 54.6888L39.8148 54.4667L41.356 54.252L41.3487 55.9177Z" fill="black"/>
<path d="M36.7249 63.2397L35.1836 63.4618L33.6423 63.6765V62.0107L33.6497 60.345V58.6718L33.6571 57.006V55.3403L35.1984 55.1182L36.7396 54.9035L38.2735 54.6888L39.8148 54.4667L41.356 54.252L41.3487 55.9177V57.5835V59.2567L41.3413 60.9224V62.5882L39.8 62.8103L38.2588 63.025L36.7249 63.2397Z" fill="#DFDFDF"/>
<path d="M35.191 60.1237V58.4579L35.1983 56.7921L36.7322 56.57L38.2735 56.3553L39.8148 56.1406L39.8074 57.8064V59.4722V61.1379L38.2661 61.36L36.7249 61.5747L35.1836 61.7968L35.191 60.1237Z" fill="#DFDFDF"/>
<path d="M41.3563 52.5873L42.8976 52.3652L42.8902 54.0384V55.7042V57.3699L42.8828 59.0431V60.7089L42.8754 62.3747V64.0404L41.3342 64.2625L39.8003 64.4772L38.259 64.6919L36.7177 64.9066L35.1765 65.1287L33.6426 65.3434L32.1013 65.5655V63.8924L32.1087 62.2266V60.5608L32.1161 58.8951V57.2219V55.5561L32.1234 53.8903L33.6647 53.6682L35.1986 53.4535L36.7399 53.2388L38.2811 53.0167L39.8224 52.802L41.3563 52.5873Z" fill="black"/>
<path d="M99.6513 118.515L97.6528 117.419C98.1487 117.346 98.6309 117.199 99.0835 116.982L101.082 118.071C100.628 118.286 100.147 118.436 99.6513 118.515Z" fill="#14022B"/>
<path d="M101.082 118.072L99.0835 116.984C99.3682 116.852 99.6399 116.693 99.8947 116.51L101.893 117.605C101.637 117.785 101.366 117.941 101.082 118.072Z" fill="#13022A"/>
<path d="M101.893 117.605L99.8948 116.509C100.107 116.368 100.307 116.21 100.492 116.035L102.491 117.131C102.303 117.303 102.103 117.461 101.893 117.605Z" fill="#120228"/>
<path d="M102.49 117.131L100.492 116.035C100.668 115.881 100.833 115.715 100.986 115.539L102.985 116.627C102.831 116.806 102.666 116.974 102.49 117.131Z" fill="#120227"/>
<path d="M102.977 116.626L100.979 115.538C101.132 115.364 101.274 115.181 101.406 114.99L103.405 116.086C103.273 116.274 103.13 116.455 102.977 116.626Z" fill="#110226"/>
<path d="M103.412 116.087L101.414 114.991C101.553 114.791 101.681 114.583 101.797 114.369L103.796 115.465C103.679 115.679 103.551 115.887 103.412 116.087Z" fill="#100224"/>
<path d="M103.796 115.494L101.797 114.399C101.929 114.16 102.045 113.913 102.144 113.658L104.142 114.747C104.045 115.016 103.929 115.278 103.796 115.531" fill="#100223"/>
<path d="M104.142 114.68L102.144 113.592C102.377 112.972 102.495 112.315 102.49 111.652L104.489 112.748C104.493 113.408 104.376 114.063 104.142 114.68Z" fill="#0F0222"/>
<path d="M62.2553 124.164L60.2568 123.076L97.6528 117.42L99.6513 118.516L62.2553 124.164Z" fill="#13022E"/>
<path d="M59.5932 123.711L57.5947 122.623L57.7422 122.697L59.7407 123.785L59.5932 123.711Z" fill="#120228"/>
<path d="M59.7407 123.786L57.7422 122.697C57.9933 122.818 58.255 122.914 58.5239 122.986L60.5224 124.074C60.2518 124.008 59.9896 123.911 59.7407 123.786Z" fill="#13022A"/>
<path d="M60.5224 124.075L58.5239 122.986C59.0904 123.128 59.679 123.159 60.257 123.075L62.2555 124.163C61.6777 124.251 61.0884 124.22 60.5224 124.075Z" fill="#14022B"/>
<path d="M59.5932 123.704L57.5948 122.608C56.9196 122.227 56.3616 121.667 55.9818 120.99C55.6021 120.312 55.4151 119.543 55.4414 118.766L57.4399 119.854C57.4155 120.632 57.6032 121.401 57.9827 122.08C58.3622 122.758 58.9191 123.32 59.5932 123.704Z" fill="#858585"/>
<path d="M58.7303 125.221L56.7245 124.133C55.8258 123.624 55.0832 122.877 54.5775 121.974C54.0717 121.07 53.8221 120.045 53.8558 119.01L55.8542 120.105C55.8219 121.141 56.0729 122.165 56.58 123.067C57.0871 123.969 57.8308 124.714 58.7303 125.221Z" fill="#0F0222"/>
<path d="M104.489 112.747L102.491 111.652L102.218 27.6152L104.216 28.7109L104.489 112.747Z" fill="#0F0221"/>
<path d="M104.216 28.7107L102.24 27.615C102.262 26.8366 102.074 26.0667 101.695 25.3874C101.315 24.708 100.76 24.1448 100.086 23.7578L102.085 24.8535C102.759 25.2393 103.316 25.8023 103.695 26.4819C104.075 27.1615 104.262 27.932 104.238 28.7107" fill="#0F0222"/>
<path d="M99.3491 24.4315L97.3506 23.3358C97.9456 23.2486 98.5518 23.2788 99.1352 23.4246L101.134 24.5203C100.55 24.3745 99.944 24.3443 99.3491 24.4315Z" fill="#A8A8A8"/>
<path d="M101.134 24.4981L99.1353 23.4023C99.4055 23.4732 99.6675 23.5725 99.9169 23.6985L101.923 24.7868C101.67 24.6643 101.406 24.5676 101.134 24.4981Z" fill="#A3A3A3"/>
<path d="M101.923 24.7871L99.917 23.6914L100.064 23.7654L102.063 24.8537L101.923 24.7797" fill="#9E9E9E"/>
<path d="M99.3491 22.7291L97.3506 21.6408C98.1372 21.5221 98.9395 21.5624 99.7104 21.7592L101.709 22.8475C100.937 22.6544 100.136 22.6141 99.3491 22.7291Z" fill="#14022B"/>
<path d="M101.709 22.8481L99.7104 21.7598C100.074 21.8524 100.427 21.9814 100.765 22.1447L102.763 23.2405C102.426 23.0747 102.073 22.9432 101.709 22.8481Z" fill="#13022A"/>
<path d="M102.763 23.2402L100.765 22.1445L100.957 22.2482L102.955 23.3439L102.763 23.2402Z" fill="#120228"/>
<path d="M91.6428 25.5725L89.6443 24.4768L97.3506 23.3145L99.3491 24.4102L91.6428 25.5725Z" fill="#B4B4B4"/>
<path d="M90.0793 28.2368L88.0808 27.1411C88.187 26.8544 88.2419 26.5511 88.2431 26.2453C88.2413 26.0232 88.2788 25.8027 88.3537 25.5938L90.3596 26.6821C90.2793 26.8923 90.2393 27.1158 90.2416 27.341C90.2398 27.6468 90.1849 27.9499 90.0793 28.2368Z" fill="#858585"/>
<path d="M90.3596 26.6533L88.3538 25.565C88.3862 25.484 88.4231 25.4049 88.4644 25.3281L90.4628 26.4164C90.424 26.4934 90.3896 26.5725 90.3596 26.6533Z" fill="#8A8A8A"/>
<path d="M90.4406 26.4453L88.4421 25.357L88.5528 25.1719L90.5512 26.2602L90.4406 26.4453Z" fill="#8F8F8F"/>
<path d="M90.5734 26.2609L88.575 25.1726L88.7003 25.0098L90.6988 26.1055L90.5734 26.2609Z" fill="#949494"/>
<path d="M90.6989 26.1055L88.7004 25.0098L88.8405 24.8691L90.839 25.9648L90.6989 26.1055Z" fill="#999999"/>
<path d="M90.8388 25.9653L88.8403 24.8696L89.01 24.7363L91.0084 25.832C90.9484 25.8718 90.8917 25.9164 90.8388 25.9653Z" fill="#9E9E9E"/>
<path d="M91.0085 25.8305L89.01 24.7348C89.0819 24.6833 89.1584 24.6387 89.2386 24.6016L91.2371 25.6973C91.1569 25.7344 91.0804 25.779 91.0085 25.8305Z" fill="#A3A3A3"/>
<path d="M91.237 25.6981L89.2385 24.6024C89.3672 24.5417 89.5038 24.4993 89.6441 24.4766L91.6426 25.5723C91.5025 25.5961 91.3661 25.6384 91.237 25.6981Z" fill="#A8A8A8"/>
<path d="M88.0146 29.9916L86.0161 28.8737C86.2454 28.8376 86.4686 28.7704 86.6798 28.6738L88.6783 29.7621C88.4689 29.8634 88.2449 29.9308 88.0146 29.962" fill="#A8A8A8"/>
<path d="M88.6782 29.7909L86.6797 28.7026C86.8083 28.6384 86.9315 28.5642 87.0484 28.4805L89.0469 29.5762C88.9299 29.6576 88.8066 29.7293 88.6782 29.7909Z" fill="#A3A3A3"/>
<path d="M89.0471 29.6131L87.0486 28.5174C87.1474 28.4566 87.2389 28.3845 87.3214 28.3027L89.3199 29.3984C89.2337 29.4758 89.1425 29.5475 89.0471 29.6131Z" fill="#9E9E9E"/>
<path d="M89.3198 29.3623L87.3213 28.2666C87.4024 28.1926 87.4762 28.1185 87.5499 28.0371L89.5484 29.1328L89.3198 29.3623Z" fill="#999999"/>
<path d="M89.5486 29.1326L87.55 28.0369C87.6238 27.9554 87.6828 27.874 87.7492 27.7852L89.7477 28.8809C89.6877 28.9697 89.6211 29.0538 89.5486 29.1326Z" fill="#949494"/>
<path d="M89.7475 28.8731L87.749 27.7774L87.926 27.4961L89.9245 28.5844C89.8655 28.688 89.8065 28.7769 89.7475 28.8731Z" fill="#8F8F8F"/>
<path d="M89.9245 28.5917L87.926 27.5034C87.9852 27.3858 88.0369 27.2647 88.0809 27.1406L90.0794 28.2363C90.0354 28.358 89.9836 28.4767 89.9245 28.5917Z" fill="#8A8A8A"/>
<path d="M90.0796 28.2368L88.0811 27.1411C88.1872 26.8544 88.2422 26.5511 88.2433 26.2453C88.2416 26.0232 88.279 25.8027 88.3539 25.5938L90.3598 26.6821C90.2796 26.8923 90.2395 27.1158 90.2418 27.341C90.24 27.6468 90.1851 27.9499 90.0796 28.2368Z" fill="#858585"/>
<path d="M74.2243 32.0804L72.2258 30.9847L86.0161 28.9043L88.0146 29.9926L74.2243 32.0804Z" fill="#B4B4B4"/>
<path d="M73.4795 32.0356L71.481 30.9473C71.7364 31.012 72.0022 31.0246 72.2627 30.9843L74.2685 32.08C74.0052 32.1181 73.7369 32.103 73.4795 32.0356Z" fill="#A8A8A8"/>
<path d="M73.0222 31.8715L71.0237 30.7832H71.0901L73.0885 31.8789L73.0222 31.8419" fill="#9E9E9E"/>
<path d="M73.0883 31.9082L71.0898 30.8125C71.2017 30.872 71.3206 30.9168 71.4438 30.9458L73.4423 32.0341C73.3203 32.0044 73.2017 31.9622 73.0883 31.9082Z" fill="#A3A3A3"/>
<path d="M73.4795 32.0336L71.481 30.9453C71.7364 31.01 72.0022 31.0226 72.2627 30.9823L74.2685 32.078C74.0052 32.1161 73.7369 32.101 73.4795 32.0336Z" fill="#A8A8A8"/>
<path d="M73.0074 31.8343L71.0016 30.7386C70.6936 30.562 70.439 30.3049 70.265 29.9946C70.091 29.6843 70.004 29.3325 70.0134 28.9766L72.0119 30.0649C72.0027 30.4227 72.0905 30.7762 72.2658 31.0878C72.4412 31.3995 72.6975 31.6575 73.0074 31.8343Z" fill="#0F0222"/>
<path d="M72.0043 30.095L70.0058 29.0067C70.0211 28.7636 69.9693 28.5209 69.8561 28.3054C69.7429 28.0899 69.5727 27.9099 69.3643 27.7852L71.3628 28.8809C71.5712 29.0038 71.7415 29.1823 71.8548 29.3967C71.9681 29.6111 72.0199 29.8529 72.0043 30.095Z" fill="#0F0222"/>
<path d="M70.6032 28.7558L68.6047 27.6601C68.7752 27.6263 68.9505 27.6263 69.121 27.6601L71.1194 28.7484C70.949 28.7146 70.7736 28.7146 70.6032 28.7484" fill="#A8A8A8"/>
<path d="M71.1193 28.7778L69.1208 27.6895C69.1996 27.7088 69.2762 27.7361 69.3495 27.7709L71.3479 28.8666C71.2749 28.8294 71.1983 28.7996 71.1193 28.7778Z" fill="#A3A3A3"/>
<path d="M71.3481 28.8731L69.3496 27.7773H69.3939L71.3923 28.8731H71.3481Z" fill="#9E9E9E"/>
<path d="M61.9973 30.0515L59.9988 28.9632L68.5974 27.6602L70.5959 28.7559L61.9973 30.0515Z" fill="#B4B4B4"/>
<path d="M61.9899 28.3777L59.9915 27.282L97.3432 21.6406L99.3491 22.7289L61.9899 28.3777Z" fill="#13022E"/>
<path d="M57.4325 119.855L55.434 118.767L55.1611 34.7305L57.1596 35.8188L57.4325 119.855Z" fill="#828282"/>
<path d="M55.8175 120.107L53.819 119.011L53.5461 34.9746L55.5446 36.0629L55.8175 120.107Z" fill="#0F0221"/>
<path d="M57.1671 35.819L55.1686 34.7307C55.1644 34.0683 55.2819 33.4107 55.5152 32.791L57.5136 33.8793C57.281 34.4992 57.1635 35.1566 57.1671 35.819Z" fill="#858585"/>
<path d="M57.5136 33.8794L55.5151 32.7911C55.614 32.5368 55.7298 32.2895 55.8617 32.0508L57.8602 33.1391C57.7283 33.3778 57.6124 33.6251 57.5136 33.8794Z" fill="#8A8A8A"/>
<path d="M57.8603 33.1008L55.8618 32.0125C55.9755 31.7968 56.1037 31.589 56.2453 31.3906L58.2438 32.4789C58.1022 32.6773 57.974 32.8851 57.8603 33.1008Z" fill="#8F8F8F"/>
<path d="M58.2439 32.4799L56.2454 31.3916C56.3774 31.2009 56.5202 31.018 56.6731 30.8438L58.6716 31.9395C58.5187 32.1112 58.3759 32.2916 58.2439 32.4799Z" fill="#949494"/>
<path d="M58.6713 31.9394L56.6729 30.8437C56.8257 30.6693 56.9882 30.5037 57.1595 30.3477L59.1654 31.436C58.9898 31.5926 58.8247 31.7607 58.6713 31.9394Z" fill="#999999"/>
<path d="M59.1656 31.4356L57.1597 30.3547C57.3486 30.1842 57.5481 30.0259 57.757 29.8809L59.7555 30.9692C59.5493 31.1148 59.3523 31.273 59.1656 31.443" fill="#9E9E9E"/>
<path d="M59.7553 30.9625L57.7568 29.8742C58.0144 29.6951 58.2857 29.5367 58.5681 29.4004L60.5665 30.4961C60.2843 30.6298 60.013 30.7857 59.7553 30.9625Z" fill="#A3A3A3"/>
<path d="M60.5666 30.4954L58.5681 29.3997C59.0223 29.1876 59.5038 29.0406 59.9987 28.9629L61.9972 30.0512C61.502 30.1314 61.0204 30.281 60.5666 30.4954Z" fill="#A8A8A8"/>
<path d="M105.831 28.4672L106.104 112.503C106.082 114.335 105.427 116.103 104.252 117.504C103.076 118.906 101.453 119.854 99.6588 120.188L62.307 125.859C61.4908 125.999 60.6537 125.954 59.8571 125.727C59.0606 125.5 58.3246 125.097 57.7032 124.548C57.0817 123.998 56.5905 123.317 56.2655 122.552C55.9405 121.787 55.79 120.96 55.8249 120.129L55.552 36.0853C55.5743 34.2534 56.229 32.4861 57.4044 31.0846C58.5798 29.6832 60.203 28.7346 61.9973 28.4006L99.349 22.7517C100.164 22.6136 100.999 22.6595 101.794 22.8862C102.589 23.1128 103.323 23.5144 103.944 24.0618C104.565 24.6092 105.056 25.2886 105.383 26.0507C105.709 26.8127 105.862 27.6383 105.831 28.4672ZM99.6514 118.515C100.999 118.267 102.22 117.556 103.102 116.504C103.985 115.452 104.475 114.124 104.489 112.748L104.216 28.7115C104.241 28.094 104.128 27.4789 103.886 26.9105C103.645 26.3421 103.28 25.8348 102.819 25.4252C102.359 25.0157 101.813 24.7141 101.221 24.5424C100.63 24.3706 100.008 24.3331 99.4007 24.4323L91.6427 25.6021C91.252 25.6771 90.8991 25.8854 90.6438 26.1917C90.3885 26.4979 90.2464 26.8833 90.2416 27.2826C90.2517 27.9273 90.0356 28.555 89.6311 29.0558C89.2267 29.5566 88.6596 29.8986 88.0292 30.0219L74.2684 32.1023C73.9887 32.1462 73.7027 32.1274 73.4311 32.0472C73.1594 31.967 72.9088 31.8274 72.6973 31.6384C72.4857 31.4494 72.3186 31.2157 72.2077 30.9542C72.0968 30.6926 72.0451 30.4096 72.0561 30.1256C72.0746 29.9395 72.0508 29.7516 71.9865 29.5761C71.9222 29.4006 71.819 29.242 71.6849 29.1123C71.5507 28.9826 71.389 28.8851 71.2118 28.8273C71.0347 28.7694 70.8468 28.7526 70.6623 28.7781L62.0415 30.0811C60.6948 30.3303 59.4763 31.0419 58.5951 32.0942C57.7138 33.1464 57.2245 34.4737 57.2113 35.8484L57.4841 119.885C57.4552 120.505 57.5645 121.123 57.8041 121.695C58.0437 122.267 58.4075 122.778 58.8689 123.191C59.3304 123.604 59.8779 123.908 60.4714 124.082C61.065 124.255 61.6896 124.293 62.2997 124.193L99.6956 118.545" fill="#1A0339"/>
<path d="M99.349 24.4328C99.9621 24.3258 100.591 24.3583 101.19 24.5278C101.789 24.6974 102.342 24.9997 102.809 25.4125C103.276 25.8252 103.645 26.3379 103.889 26.9128C104.132 27.4877 104.244 28.1101 104.216 28.7341L104.489 112.77C104.475 114.146 103.985 115.474 103.102 116.527C102.22 117.579 100.999 118.29 99.6514 118.538L62.307 124.179C61.6939 124.286 61.0648 124.254 60.4659 124.084C59.867 123.914 59.3137 123.612 58.8466 123.199C58.3796 122.787 58.0107 122.274 57.7672 121.699C57.5238 121.124 57.4119 120.502 57.4398 119.878L57.167 35.8414C57.1803 34.4667 57.6695 33.1395 58.5508 32.0872C59.4321 31.035 60.6505 30.3233 61.9973 30.0742L70.6033 28.7786C70.7788 28.7489 70.9588 28.7587 71.1301 28.8073C71.3014 28.856 71.4598 28.9422 71.5939 29.0598C71.728 29.1774 71.8343 29.3234 71.9053 29.4873C71.9763 29.6512 72.0102 29.8289 72.0044 30.0075C71.9827 30.2983 72.0262 30.5904 72.1319 30.862C72.2376 31.1337 72.4028 31.378 72.6151 31.577C72.8275 31.776 73.0817 31.9245 73.3589 32.0117C73.6361 32.0988 73.9293 32.1223 74.2168 32.0805L87.9997 29.9927C88.617 29.8762 89.175 29.5484 89.5784 29.065C89.9818 28.5817 90.2058 27.9729 90.212 27.3423C90.2004 26.9289 90.3346 26.5246 90.591 26.2009C90.8473 25.8772 91.2094 25.6547 91.6132 25.5729L99.349 24.4328Z" fill="white"/>
<path d="M55.5521 36.0627L53.5684 34.9744C53.5697 34.0923 53.7271 33.2175 54.033 32.3906L56.0315 33.4863C55.7244 34.3101 55.5695 35.1832 55.5742 36.0627" fill="#0F0222"/>
<path d="M56.0092 33.4877L54.0107 32.392C54.1429 32.0366 54.2981 31.6904 54.4753 31.3555L56.4738 32.4512C56.2966 32.7861 56.1414 33.1323 56.0092 33.4877Z" fill="#100223"/>
<path d="M56.4738 32.4503L54.4753 31.3546C54.6292 31.0687 54.7991 30.7919 54.9842 30.5254L56.9827 31.6137C56.7975 31.8827 56.6277 32.162 56.4738 32.4503Z" fill="#100224"/>
<path d="M56.9829 31.6138L54.9844 30.5255C55.1631 30.2688 55.3551 30.0217 55.5596 29.7852L57.5581 30.8809C57.3516 31.1157 57.1595 31.363 56.9829 31.6212" fill="#110226"/>
<path d="M57.558 30.889L55.5596 29.7933C55.7671 29.5603 55.9862 29.3379 56.2159 29.127L58.2144 30.2227C57.9828 30.4317 57.7637 30.6542 57.558 30.889Z" fill="#120227"/>
<path d="M58.2143 30.223L56.2158 29.1273C56.4679 28.901 56.7338 28.6908 57.0122 28.498L59.0107 29.5863C58.7336 29.7835 58.4677 29.996 58.2143 30.223Z" fill="#120228"/>
<path d="M59.0107 29.616L57.0122 28.5277C57.3565 28.2897 57.719 28.0793 58.0963 27.8984L60.0947 28.9941C59.7176 29.1724 59.3552 29.3804 59.0107 29.616Z" fill="#13022A"/>
<path d="M60.0947 28.9638L58.0962 27.8681C58.6996 27.5835 59.3402 27.3866 59.9988 27.2832L61.9973 28.3789C61.3371 28.4754 60.6955 28.6727 60.0947 28.9638Z" fill="#14022B"/>
<path d="M63.9958 58.5106L70.0503 57.4223L91.7903 53.4985L97.8079 52.4102V60.3466V86.3549L63.9958 92.4553V58.5106Z" stroke="black" stroke-width="5" stroke-miterlimit="10"/>
<path fill-rule="evenodd" clip-rule="evenodd" d="M67.4397 70.3337L68.7228 70.1042L70.006 69.8747L71.2892 69.6378L72.5724 69.4083L73.8555 69.1788L75.1387 68.9493L76.4218 68.7124V59.7246L75.1387 59.9541L73.8555 60.191L72.5724 60.4205L71.2892 60.65L70.006 60.8795L68.7228 61.1165L67.4397 61.346V70.3337ZM68.7228 68.853L70.006 68.6235L71.2892 68.394L72.5724 68.1571L73.8555 67.9276L75.1387 67.6981V61.2571L73.8555 61.4866L72.5724 61.7235L71.2892 61.953L70.006 62.1825L68.7228 62.4121V68.853Z" fill="black"/>
<path fill-rule="evenodd" clip-rule="evenodd" d="M82.8304 65.0029L84.1135 64.7734V58.3398L82.8304 58.5693L81.5472 58.7989L80.264 59.0284V60.3166L78.9882 60.5461L77.7051 60.783V62.0712L78.9882 61.8342L80.264 61.6047V62.93L81.5472 62.7005L82.8304 62.4709V65.0029ZM81.5472 61.3752L82.8304 61.1457V59.8575L81.5472 60.087V61.3752Z" fill="black"/>
<path fill-rule="evenodd" clip-rule="evenodd" d="M85.3965 67.1196L86.6796 66.8827L87.9628 66.6532L89.246 66.4237L90.5291 66.1942L91.8123 65.9573L93.0954 65.7278L94.3712 65.4983V56.4883L93.0954 56.7178L91.8123 56.9473L90.5291 57.1768L89.246 57.4137L87.9628 57.6432L86.6796 57.8727L85.3965 58.1022V67.1196ZM86.6796 65.6389L87.9628 65.402L89.246 65.1725L90.5291 64.943L91.8123 64.7135L93.0954 64.4766V58.006L91.8123 58.2355L90.5291 58.465L89.246 58.6945L87.9628 58.9314L86.6796 59.1609V65.6019" fill="black"/>
<path fill-rule="evenodd" clip-rule="evenodd" d="M70.0061 67.3203L71.2893 67.0908L72.5724 66.8539L73.8482 66.6244V65.3362V64.048V62.7598L72.5724 62.9967L71.2893 63.2262L70.0061 63.4557V64.7439V66.0321V67.3203Z" fill="black"/>
<path fill-rule="evenodd" clip-rule="evenodd" d="M87.9556 64.0765L89.2387 63.847L90.5219 63.6175L91.8051 63.388V62.0998V60.8116V59.5234L90.5219 59.7529L89.2387 59.9824L87.9556 60.2194V61.5076V62.7883V64.0765Z" fill="black"/>
<path fill-rule="evenodd" clip-rule="evenodd" d="M78.9807 65.6985L80.2638 65.469V64.1808V62.8926L78.9807 63.1221L77.6975 63.359V64.6398L78.9807 64.4103V65.6985Z" fill="black"/>
<path fill-rule="evenodd" clip-rule="evenodd" d="M77.6975 68.5051L78.9807 68.2756V66.9874V65.6992L77.6975 65.9287V67.2169V68.5051Z" fill="black"/>
<path fill-rule="evenodd" clip-rule="evenodd" d="M81.5471 66.5271L82.8303 66.2902V65.002L81.5471 65.2389" fill="black"/>
<path fill-rule="evenodd" clip-rule="evenodd" d="M80.2639 68.045L81.5471 67.8081V66.5273L80.2639 66.7568" fill="black"/>
<path fill-rule="evenodd" clip-rule="evenodd" d="M82.8303 67.5782L84.1135 67.3487V66.0605L82.8303 66.2901" fill="black"/>
<path fill-rule="evenodd" clip-rule="evenodd" d="M78.9807 69.5626L80.2639 69.3331V68.0449L78.9807 68.2744" fill="black"/>
<path fill-rule="evenodd" clip-rule="evenodd" d="M68.7229 77.8473L70.006 77.6178L71.2892 77.3883V76.1001L72.5723 75.8706V77.1588L73.8481 76.9219V75.6411V74.3529L72.5723 74.5824V73.2942L71.2892 73.5237V72.2355L72.5723 72.006V73.2942L73.8481 73.0647V74.3529L75.1313 74.116L76.4144 73.8865L77.6976 73.6569L78.9808 73.4274V72.1392L77.6976 72.3688L76.4144 72.5983L75.1313 72.8278V71.547L73.8481 71.7765V70.4883L72.5723 70.7178L71.2892 70.9473L70.006 71.1842L68.7229 71.4137L67.4397 71.6432V72.9314L68.7229 72.7019L70.006 72.4724V73.7532L68.7229 73.9901L67.4397 74.2196V75.5078V76.796L68.7229 76.5665V77.8473Z" fill="black"/>
<path fill-rule="evenodd" clip-rule="evenodd" d="M75.1313 71.5466L76.4145 71.3097L77.6977 71.0802L78.9808 70.8507V69.5625L77.6977 69.792L76.4145 70.0215L75.1313 70.2584V71.5466Z" fill="black"/>
<path fill-rule="evenodd" clip-rule="evenodd" d="M77.705 78.8096L78.9881 78.5727V75.9963L80.2639 75.7668L81.5471 75.5373V74.2491L82.8303 74.0196V76.596L84.1134 76.3591V73.7901L85.3966 73.5532L86.6797 73.3237V75.9001L87.9629 75.6706V67.9414L86.6797 68.1709V69.4591L85.3966 69.696V68.4078L84.1134 68.6373V69.9255L82.8303 70.155V68.852L81.5471 69.0815V71.6579L82.8303 71.4284V72.7166L81.5471 72.9461V71.6727L80.2639 71.9022V73.1904L78.9881 73.4273V74.7155L77.705 74.945L76.4218 75.1746L75.1387 75.4041V76.6923L76.4218 76.4627L77.705 76.2332V78.8096ZM84.1134 72.5019L85.3966 72.265V70.9768L84.1134 71.2137V72.5019Z" fill="black"/>
<path fill-rule="evenodd" clip-rule="evenodd" d="M89.2388 72.8647L90.5219 72.6278V71.3396V70.0514L91.8051 69.8219V68.5337L90.5219 68.7706V67.4824L89.2388 67.7119V69.0001V70.2883V71.5765V72.8647Z" fill="black"/>
<path fill-rule="evenodd" clip-rule="evenodd" d="M91.8049 68.5333L93.0881 68.3038V67.0156L91.8049 67.2451" fill="black"/>
<path fill-rule="evenodd" clip-rule="evenodd" d="M91.8049 72.3977L93.0881 72.1682L94.3713 71.9387V70.6505L93.0881 70.88V69.5918L91.8049 69.8213V71.1095V72.3977Z" fill="black"/>
<path fill-rule="evenodd" clip-rule="evenodd" d="M93.0881 76.0266L94.3713 75.7971V74.5089V73.2207L93.0881 73.4576V74.7458V76.0266Z" fill="black"/>
<path fill-rule="evenodd" clip-rule="evenodd" d="M67.4397 88.3825L68.7228 88.1529L70.006 87.916L71.2892 87.6865L72.5724 87.457L73.8555 87.2275L75.1387 86.9906L76.4218 86.7611V77.7363L75.1387 77.9658L73.8555 78.1953L72.5724 78.4323L71.2892 78.6618L70.006 78.8913L68.7228 79.1208L67.4397 79.3577V88.3676V88.3825ZM68.7228 86.887L70.006 86.6575L71.2892 86.4206L72.5724 86.191L73.8555 85.9615L75.1387 85.732V79.291L73.8555 79.5206L72.5724 79.7501L71.2671 79.9574L69.9839 80.1869L68.7007 80.4164V86.8573" fill="black"/>
<path fill-rule="evenodd" clip-rule="evenodd" d="M77.7051 86.531L78.9882 86.3015V83.7251L80.264 83.4956V82.1778L78.9882 82.4073V81.1191L80.264 80.8896V82.1778L81.5472 81.9409L82.8304 81.7114V82.9996L81.5472 83.2291L80.264 83.466V86.035L81.5472 85.8055V84.5469L82.8304 84.3174V85.6056L84.1135 85.3761V84.0879L85.3967 83.8584L86.6798 83.6215V84.9097L87.963 84.6802L89.2462 84.4507L90.5293 84.2138L91.8125 83.9843V81.4375L90.5293 81.6744V80.3862L91.8125 80.1493V78.8685L93.0956 78.6316V77.3434L91.8125 77.5803V75.0039L90.5293 75.2334L89.2462 75.4629V78.0393L87.963 78.2688V80.8452L89.2462 80.6157V81.9039L87.963 82.1334V80.8452L86.6798 81.0747V79.7939L85.3967 80.0234V78.7352L84.1135 78.9647V80.2529L82.8304 80.4824V79.1942L81.5472 79.4312V78.143L82.8304 77.9135V76.6253L81.5472 76.8548L80.264 77.0843V78.3725L78.9882 78.602V79.8902L77.7051 80.1197V86.5607V86.531ZM84.1135 82.8589L85.3967 82.6294V81.3412L84.1135 81.5707V82.8589Z" fill="black"/>
<path fill-rule="evenodd" clip-rule="evenodd" d="M84.1135 77.6486L85.3967 77.4191V76.1309L84.1135 76.3604" fill="black"/>
<path fill-rule="evenodd" clip-rule="evenodd" d="M86.6724 78.4763L87.9555 78.2394V76.9512L86.6724 77.1881" fill="black"/>
<path fill-rule="evenodd" clip-rule="evenodd" d="M70.0061 85.3476L71.2893 85.1107L72.5724 84.8812L73.8482 84.6517V83.3635V82.0753V80.7871L72.5724 81.0166L71.2893 81.2535L70.0061 81.483V82.7712V84.0594V85.3476Z" fill="black"/>
<path fill-rule="evenodd" clip-rule="evenodd" d="M93.0881 82.4669L94.3713 82.2374V80.9492L93.0881 81.1787" fill="black"/>
<path d="M104.386 70.3487L57.2999 78.2334L57.2925 75.5311L104.379 67.6465L104.386 70.3487Z" fill="#C9431A"/>
<path d="M120.138 94.9203L112.262 72.71C112.089 72.1942 111.76 71.7453 111.321 71.4255C110.883 71.1058 110.356 70.9311 109.813 70.9258H106.215V80.5502L108.339 84.5851C108.641 85.1478 110.013 93.8024 109.592 94.2762C107.977 96.1048 107.638 97.741 102.955 108.557C102.446 109.735 101.082 113.629 100.005 114.251C99.1869 114.72 98.2216 114.861 97.3037 114.646C96.3857 114.43 95.5831 113.874 95.0571 113.088L86.4806 100.688C86.094 100.087 85.5777 99.5824 84.9701 99.2099C84.3625 98.8374 83.6792 98.6071 82.9708 98.536C82.2624 98.4649 81.5472 98.5548 80.8781 98.7991C80.2091 99.0434 79.6034 99.4358 79.1061 99.9472C78.2785 100.837 77.7829 101.986 77.7036 103.201C77.6243 104.415 77.9661 105.62 78.671 106.61L87.1885 118.915C88.4714 120.774 89.1865 122.969 89.246 125.23C89.3861 131.116 90.5587 143.642 97.4169 152.741V179.031L117.726 171.02L120.588 98.0815C120.643 97.0085 120.49 95.9348 120.138 94.9203Z" fill="#FFC89D"/>
<path d="M94.9023 170.398V160.33C94.9021 159.857 95.0119 159.39 95.2232 158.967C95.4345 158.544 95.7413 158.177 96.1192 157.894C102.442 153.297 109.675 150.118 117.328 148.573C117.769 148.487 118.222 148.501 118.657 148.613C119.091 148.726 119.496 148.933 119.84 149.222C120.185 149.51 120.461 149.872 120.649 150.281C120.837 150.69 120.932 151.136 120.927 151.586L120.72 170.398H94.9023Z" fill="#563CAE"/>
<rect x="-2.94971" y="168.799" width="137.165" height="10.3648" fill="white"/>
</g>
<defs>
<clipPath id="clip0_32523_10203">
<rect width="146" height="179" fill="white"/>
</clipPath>
</defs>
</svg>
