<svg width="109" height="109" viewBox="0 0 109 109" fill="none" xmlns="http://www.w3.org/2000/svg">
<g filter="url(#filter0_d)">
<circle cx="54.3706" cy="52.8672" r="50" fill="white"/>
</g>
<path d="M82.3705 82.7199V89.488C82.3705 90.25 81.7196 90.8671 80.916 90.8671H27.8251C27.0215 90.8671 26.3706 90.25 26.3706 89.488V82.7199C26.3706 75.619 32.4415 69.8663 39.9324 69.8645C42.5797 69.8628 44.9106 68.5716 46.2524 66.6132C47.6004 64.649 47.4615 62.9409 47.4615 61.5604L47.4888 61.4966C40.9615 58.9348 36.3706 52.8373 36.3706 45.7226V45.183C33.7788 45.183 31.8251 43.241 31.8251 40.9525V33.7879C31.767 31.2933 31.887 22.4961 38.5888 16.371C46.3815 9.24947 58.7306 9.83216 67.676 13.642C67.9669 13.7662 67.9578 14.1609 67.6633 14.2764L65.3306 15.1867C64.9815 15.3229 65.056 15.8107 65.4306 15.8487L66.5633 15.9642C71.9869 16.5141 77.0251 19.3069 80.1487 23.9546C80.2324 24.0804 80.2087 24.2718 80.1015 24.3804C78.1742 26.3129 77.0978 28.8781 77.0978 31.545V40.9525C77.0978 43.2884 75.0996 45.183 72.636 45.183H72.3706V45.7226C72.3706 52.8373 67.7796 58.9348 61.2524 61.4966L61.2797 61.5604C61.2797 62.9011 61.1293 64.6324 62.4888 66.6132C63.8306 68.5716 66.1615 69.8628 68.8087 69.8645C76.2996 69.8663 82.3705 75.619 82.3705 82.7199Z" fill="#BE8F55"/>
<path class="primary" d="M82.3705 82.7199V89.4881C82.3705 90.2497 81.7193 90.8672 80.916 90.8672H27.8251C27.0219 90.8672 26.3706 90.2497 26.3706 89.4881V82.7199C26.3706 75.6191 32.4424 69.8672 39.9315 69.8646C42.5795 69.8638 44.9109 68.571 46.2524 66.6133C50.9349 70.4063 57.8035 70.4085 62.4888 66.6133C63.83 68.571 66.1617 69.8638 68.8096 69.8646C76.2987 69.8672 82.3705 75.6191 82.3705 82.7199Z" fill="#323751"/>
<path d="M80.1481 23.9553C80.2325 24.081 80.2089 24.2713 80.101 24.3796C78.1743 26.3135 77.098 28.8778 77.098 31.5449V40.9524C77.098 43.088 75.4011 45.1829 72.3707 45.1829V34.5342C72.3707 29.9641 68.4634 26.2594 63.6434 26.2594H45.098C40.278 26.2594 36.3707 29.9641 36.3707 34.5342V45.1829C33.7789 45.1829 31.8253 43.2409 31.8253 40.9524V33.7878C31.7671 31.2932 31.8871 22.496 38.5889 16.3709C46.3811 9.2492 58.7314 9.83223 67.6754 13.6425C67.9663 13.7664 67.9587 14.1614 67.6636 14.2765L65.3307 15.1871C64.982 15.3233 65.0554 15.8106 65.4303 15.8487L66.5634 15.9641C71.988 16.5135 77.0249 19.3062 80.1481 23.9553Z" fill="#42434D"/>
<path d="M72.3706 45.7229C72.3706 55.1521 64.3073 62.7898 54.3706 62.7898C45.0084 62.7898 36.3706 55.8887 36.3706 45.1833V34.5346C36.3706 29.9645 40.2779 26.2598 45.0979 26.2598H63.6433C68.4633 26.2598 72.3706 29.9645 72.3706 34.5346V45.7229Z" fill="#B7884E"/>
<path d="M69.098 87.936H64.7343C63.9311 87.936 63.2798 87.3185 63.2798 86.5569C63.2798 85.7952 63.9311 85.1777 64.7343 85.1777H69.098C69.9013 85.1777 70.5525 85.7952 70.5525 86.5569C70.5525 87.3185 69.9014 87.936 69.098 87.936Z" fill="white"/>
<path d="M50.295 56.7425C53.2544 58.4979 50.9208 62.8031 47.6811 61.5701C41.0204 59.0353 36.3706 52.8809 36.3706 45.7217V34.5335C36.3706 32.7951 36.9361 31.1818 37.9019 29.8499C39.0862 28.2168 41.8251 28.9383 41.8251 31.0856V42.2739C41.8251 48.5679 45.3146 53.788 50.295 56.7425Z" fill="#BE8F55"/>
<path d="M61.485 64.3906C57.0055 66.1685 52.0828 66.3064 47.2559 64.3906C47.5024 63.4207 47.4613 62.7925 47.4613 61.5599L47.4886 61.4961C51.8671 63.2193 56.8651 63.2228 61.2522 61.4961L61.2795 61.5599C61.2795 62.793 61.2384 63.421 61.485 64.3906Z" fill="#B7884E"/>
<path d="M47.2582 74.0291C46.5858 74.2296 45.8648 74.3401 45.0917 74.3465C37.5833 74.4092 31.4615 80.0384 31.4615 87.1579V88.4537C31.4615 89.7867 30.3219 90.8672 28.9161 90.8672H27.8251C27.0219 90.8672 26.3706 90.2497 26.3706 89.4881V82.7199C26.3706 75.6189 32.4424 69.8672 39.9315 69.8646C42.5795 69.8638 44.9109 68.571 46.2524 66.6133C46.7931 67.0512 47.372 67.4447 47.9818 67.7893C50.6642 69.3048 50.2367 73.1411 47.2582 74.0291Z" fill="#333333"/>
<path class="secondary" d="M61.483 74.0291C62.1554 74.2296 62.8765 74.3401 63.6496 74.3465C71.1579 74.4092 77.2798 80.0384 77.2798 87.1579V88.4537C77.2798 89.7867 78.4194 90.8672 79.8252 90.8672H80.9161C81.7194 90.8672 82.3707 90.2497 82.3707 89.4881V82.7199C82.3707 75.6189 76.2988 69.8672 68.8098 69.8646C66.1617 69.8638 63.8303 68.571 62.4888 66.6133C61.9481 67.0512 61.3692 67.4447 60.7594 67.7893C58.0772 69.3048 58.5045 73.1411 61.483 74.0291Z" fill="#232842"/>
<path d="M67.6634 14.2764C65.5256 15.1107 65.2209 15.2946 64.4801 15.1856C52.5394 13.4307 42.0631 18.1151 38.5053 29.1126V29.1143C37.1744 30.5658 36.3707 32.4622 36.3707 34.5343V41.003C36.3707 43.7937 31.8253 43.988 31.8253 40.9525V33.7879C31.7671 31.2933 31.8871 22.4961 38.5889 16.371C46.3816 9.24947 58.7307 9.83216 67.6761 13.642C67.967 13.7662 67.9579 14.1609 67.6634 14.2764Z" fill="#4D4E59"/>
<defs>
<filter id="filter0_d" x="0.370605" y="0.867188" width="108" height="108" filterUnits="userSpaceOnUse" color-interpolation-filters="sRGB">
<feFlood flood-opacity="0" result="BackgroundImageFix"/>
<feColorMatrix in="SourceAlpha" type="matrix" values="0 0 0 0 0 0 0 0 0 0 0 0 0 0 0 0 0 0 127 0"/>
<feOffset dy="2"/>
<feGaussianBlur stdDeviation="2"/>
<feColorMatrix type="matrix" values="0 0 0 0 0 0 0 0 0 0 0 0 0 0 0 0 0 0 0.25 0"/>
<feBlend mode="normal" in2="BackgroundImageFix" result="effect1_dropShadow"/>
<feBlend mode="normal" in="SourceGraphic" in2="effect1_dropShadow" result="shape"/>
</filter>
</defs>
</svg>
