<svg width="145" height="42" viewBox="0 0 145 42" fill="none" xmlns="http://www.w3.org/2000/svg">
<path d="M55.587 20.2351H64.7753V21.291H55.587V30.9836H54.4995V16.3895C54.4995 13.0641 56.9897 10.6055 60.2836 10.6055H66.0676V11.6929H60.2836C57.5885 11.6929 55.587 13.6945 55.587 16.3895V20.2351V20.2351Z" fill="white"/>
<path d="M69.6451 11.7091H68.5576V10.5586H69.6451V11.7091ZM69.6451 30.9525H68.5576V15.8226H69.6451V30.9525Z" fill="white"/>
<path d="M74.8144 25.7199C74.8144 28.3047 75.9964 30.0698 78.8648 29.9437V30.9366C75.6024 31.2361 73.6954 29.0927 73.6954 25.7042V10.5742H74.8144V15.8067H78.8648V16.8941H74.8144V25.7199V25.7199ZM75.4606 16.9099H71.4102V15.8224H75.4606" fill="white"/>
<path d="M89.645 30.9527H81.686V16.658C81.686 14.8929 82.3637 13.2223 83.593 12.0245C84.8539 10.7636 86.556 10.0859 88.3842 10.0859C92.2612 10.0859 95.0824 12.5603 95.0824 16.1064C95.0824 17.8401 94.3416 19.1954 93.2857 20.078C95.0193 20.9921 96.0122 22.6627 96.0122 24.9795C96.028 28.6044 93.5851 30.9527 89.645 30.9527ZM85.5631 18.5335H88.794C89.0304 18.5335 91.1738 18.4705 91.1738 16.2798C91.1738 14.5777 89.8499 13.8684 88.3842 13.8684C86.7451 13.8684 85.5631 15.0977 85.5631 16.658V18.5335ZM88.9988 22.1426H85.5631V27.3435H89.0619C90.5906 27.3435 92.0248 26.7919 92.0248 24.7904C92.0248 23.0725 90.9374 22.1426 88.9988 22.1426Z" fill="white"/>
<path d="M113.317 30.9535H109.645V29.3617C108.494 30.6226 106.855 31.2687 105.027 31.2687C101.04 31.2687 97.7773 27.7384 97.7773 23.4043C97.7773 19.0229 100.977 15.4453 105.563 15.4453C110.118 15.4453 113.317 19.0229 113.317 23.4043V30.9535V30.9535ZM105.563 19.086C103.42 19.086 101.686 20.9299 101.686 23.4358C101.686 25.8472 103.42 27.6911 105.563 27.6911C107.706 27.6911 109.44 25.7841 109.44 23.4358C109.44 21.0245 107.706 19.086 105.563 19.086Z" fill="white"/>
<path d="M122.096 15.4453C126.319 15.4453 128.825 18.2349 128.825 22.2065V30.9535H124.948V22.112C124.948 21.2609 124.649 19.2278 122.096 19.2278C120.393 19.2278 119.164 20.4098 119.164 22.112V30.9535H115.287V22.2065C115.287 18.3452 117.982 15.4453 122.096 15.4453Z" fill="white"/>
<path d="M144.271 27.8638V30.9528H140.362V28.5099C140.362 26.8393 139.448 25.2475 137.1 25.2475H134.956V30.9528H131.063V10.0703H134.972V21.5281H137.115C139.464 21.5281 140.378 19.9205 140.378 18.2342V15.8228H144.286V18.9119C144.286 20.8819 143.372 22.5525 141.702 23.3721C143.357 24.2231 144.271 25.8622 144.271 27.8638Z" fill="white"/>
<path d="M36.2804 10.5279H5.26397C2.36406 10.5279 0 8.16388 0 5.26397C0 2.36406 2.36406 0 5.26397 0H36.2804C39.1803 0 41.5443 2.36406 41.5443 5.26397C41.5443 8.16388 39.1803 10.5279 36.2804 10.5279Z" fill="white"/>
<path d="M41.5445 5.2952V36.3116C41.5445 39.2115 39.1805 41.5756 36.2806 41.5756C33.3807 41.5756 31.0166 39.2115 31.0166 36.3116V5.2952C31.0166 2.39529 33.3807 0.03125 36.2806 0.03125C39.1805 0.03125 41.5445 2.39529 41.5445 5.2952Z" fill="white"/>
<path d="M5.27959 16.6758H19.6531C22.553 16.6758 24.917 19.0398 24.917 21.9397C24.917 24.8396 22.553 27.2037 19.6531 27.2037H5.27959C2.37968 27.2037 0.015625 24.8396 0.015625 21.9397C0.015625 19.0398 2.39544 16.6758 5.27959 16.6758Z" fill="white"/>
<path d="M10.5279 21.9397V36.3132C10.5279 39.2131 8.16388 41.5772 5.26397 41.5772C2.36406 41.5772 0 39.2131 0 36.3132V21.9397C0 19.0398 2.36406 16.6758 5.26397 16.6758C8.14811 16.6758 10.5279 19.0556 10.5279 21.9397Z" fill="white"/>
</svg>
