<svg width="24" height="24" viewBox="0 0 24 24" fill="none" xmlns="http://www.w3.org/2000/svg">
<path fill-rule="evenodd" clip-rule="evenodd" d="M6.81 11.72H5C4.73478 11.72 4.48043 11.6146 4.29289 11.4271C4.10536 11.2396 4 10.9852 4 10.72V5C4 4.73478 4.10536 4.48043 4.29289 4.29289C4.48043 4.10536 4.73478 4 5 4H19C19.2652 4 19.5196 4.10536 19.7071 4.29289C19.8946 4.48043 20 4.73478 20 5V10.72C20 10.9852 19.8946 11.2396 19.7071 11.4271C19.5196 11.6146 19.2652 11.72 19 11.72H17.41V12.72H19C19.5304 12.72 20.0391 12.5093 20.4142 12.1342C20.7893 11.7591 21 11.2504 21 10.72V5C21 4.46957 20.7893 3.96086 20.4142 3.58579C20.0391 3.21071 19.5304 3 19 3H5C4.46957 3 3.96086 3.21071 3.58579 3.58579C3.21071 3.96086 3 4.46957 3 5V10.72C3 11.2504 3.21071 11.7591 3.58579 12.1342C3.96086 12.5093 4.46957 12.72 5 12.72H6.81V15.94C6.81 16.3855 6.987 16.8128 7.30206 17.1279C7.61712 17.443 8.04443 17.62 8.49 17.62H15.49C15.7123 17.6226 15.9329 17.5811 16.139 17.4979C16.3452 17.4146 16.5328 17.2913 16.6909 17.135C16.849 16.9788 16.9746 16.7927 17.0602 16.5875C17.1459 16.3824 17.19 16.1623 17.19 15.94V9.45996H16.19V15.94C16.19 16.03 16.1722 16.1191 16.1375 16.2021C16.1028 16.2852 16.052 16.3605 15.988 16.4237C15.924 16.487 15.8481 16.5369 15.7646 16.5706C15.6812 16.6043 15.5919 16.6211 15.5019 16.62L8.49 16.62C8.30965 16.62 8.13669 16.5483 8.00916 16.4208C7.88164 16.2933 7.81 16.1203 7.81 15.94V9.45996H6.81V11.72ZM12.4961 9.81682C12.5404 9.8309 12.5843 9.84691 12.6276 9.86483C12.9273 9.98896 13.1834 10.1992 13.3636 10.4689C13.5438 10.7386 13.64 11.0556 13.64 11.38H12.64C12.64 11.2534 12.6025 11.1297 12.5321 11.0244C12.4618 10.9192 12.3618 10.8371 12.2449 10.7887C12.128 10.7403 11.9993 10.7276 11.8751 10.7523C11.751 10.777 11.6369 10.8379 11.5474 10.9274C11.4579 11.0169 11.397 11.131 11.3723 11.2551C11.3476 11.3793 11.3603 11.508 11.4087 11.6249C11.4571 11.7419 11.5392 11.8418 11.6444 11.9121C11.7485 11.9816 11.8706 12.0191 11.9956 12.02V12.02C12.3226 12.0171 12.643 12.1115 12.9162 12.291C13.1894 12.4706 13.4031 12.7273 13.5302 13.0285C13.6573 13.3298 13.692 13.662 13.63 13.983C13.568 14.304 13.412 14.5993 13.1818 14.8315C12.9898 15.0252 12.7535 15.1676 12.4944 15.2472L12.4999 15.7646L11.5 15.7752L11.4943 15.2372C11.4564 15.2248 11.4189 15.2109 11.3819 15.1957C11.0796 15.0712 10.821 14.8598 10.6391 14.5881C10.4571 14.3165 10.36 13.9969 10.36 13.67L11.36 13.6699C11.36 13.7987 11.3983 13.9246 11.4699 14.0316C11.5416 14.1386 11.6435 14.2219 11.7626 14.271C11.8817 14.32 12.0126 14.3325 12.1389 14.307C12.2651 14.2814 12.3809 14.219 12.4716 14.1275C12.5623 14.036 12.6237 13.9197 12.6482 13.7932C12.6726 13.6668 12.6589 13.5359 12.6089 13.4172C12.5588 13.2986 12.4746 13.1974 12.367 13.1267C12.2593 13.056 12.1331 13.0188 12.0043 13.0199L12 12.5201V13.02C11.6756 13.02 11.3585 12.9238 11.0889 12.7436C10.8192 12.5634 10.609 12.3073 10.4848 12.0076C10.3607 11.7079 10.3282 11.3782 10.3915 11.06C10.4548 10.7419 10.611 10.4497 10.8403 10.2203C11.0247 10.036 11.2496 9.8989 11.496 9.81934L11.4901 9.30569L12.49 9.29407L12.4961 9.81682ZM5.5 6.90991H18.5V7.90991H5.5V6.90991ZM11.9888 20.1431L9.9689 18.2936L9.29358 19.0311L11.3276 20.8936L11.3331 20.8983C11.5184 21.0584 11.7551 21.1466 12 21.1466C12.2449 21.1466 12.4816 21.0584 12.6669 20.8983L12.6724 20.8936L14.7064 19.0311L14.0311 18.2936L12.0112 20.1431C12.0079 20.1453 12.004 20.1466 12 20.1466C11.996 20.1466 11.9921 20.1453 11.9888 20.1431Z" fill="#333750"/>
</svg>
