<svg width="89" height="89" viewBox="0 0 89 89" fill="none" xmlns="http://www.w3.org/2000/svg">
<path fill-rule="evenodd" clip-rule="evenodd" d="M25.5266 43.7409H18.89C17.9175 43.7409 16.9849 43.3546 16.2972 42.667C15.6096 41.9793 15.2233 41.0467 15.2233 40.0742V19.1009C15.2233 18.1285 15.6096 17.1958 16.2972 16.5082C16.9849 15.8206 17.9175 15.4342 18.89 15.4342H70.2233C71.1958 15.4342 72.1284 15.8206 72.816 16.5082C73.5037 17.1958 73.89 18.1285 73.89 19.1009V40.0742C73.89 41.0467 73.5037 41.9793 72.816 42.667C72.1284 43.3546 71.1958 43.7409 70.2233 43.7409H64.3933V47.4076H70.2233C72.1682 47.4076 74.0335 46.635 75.4088 45.2597C76.784 43.8844 77.5566 42.0192 77.5566 40.0742V19.1009C77.5566 17.156 76.784 15.2907 75.4088 13.9155C74.0335 12.5402 72.1682 11.7676 70.2233 11.7676H18.89C16.9451 11.7676 15.0798 12.5402 13.7045 13.9155C12.3293 15.2907 11.5566 17.156 11.5566 19.1009V40.0742C11.5566 42.0192 12.3293 43.8844 13.7045 45.2597C15.0798 46.635 16.9451 47.4076 18.89 47.4076H25.5266V59.2141C25.5266 60.8478 26.1756 62.4147 27.3309 63.5699C28.4861 64.7251 30.0529 65.3741 31.6866 65.3741H57.3533C58.1684 65.3838 58.9773 65.2316 59.7332 64.9264C60.489 64.6212 61.1768 64.169 61.7566 63.596C62.3364 63.023 62.7967 62.3407 63.1108 61.5885C63.425 60.8363 63.5867 60.0293 63.5866 59.2141V35.4541H59.92V59.2144C59.92 59.5443 59.8545 59.871 59.7274 60.1754C59.6002 60.4799 59.4139 60.7561 59.1792 60.988C58.9445 61.2199 58.6662 61.4029 58.3602 61.5265C58.0543 61.65 57.7269 61.7116 57.3969 61.7077L31.6866 61.7074C31.0254 61.7074 30.3912 61.4447 29.9236 60.9772C29.456 60.5096 29.1933 59.8754 29.1933 59.2141V35.4541H25.5266V43.7409ZM46.3755 36.7626C46.5383 36.8142 46.6992 36.8729 46.8578 36.9386C47.9566 37.3937 48.8957 38.1645 49.5565 39.1534C50.2172 40.1423 50.5699 41.3049 50.5699 42.4942H46.9033C46.9033 42.0301 46.7656 41.5764 46.5078 41.1905C46.2499 40.8046 45.8834 40.5038 45.4546 40.3262C45.0258 40.1486 44.554 40.1021 44.0988 40.1926C43.6436 40.2832 43.2254 40.5067 42.8972 40.8349C42.5691 41.1631 42.3456 41.5812 42.255 42.0364C42.1645 42.4916 42.2109 42.9634 42.3886 43.3922C42.5662 43.821 42.8669 44.1875 43.2528 44.4454C43.6343 44.7003 44.0821 44.8377 44.5406 44.8408V44.8408C45.7394 44.8303 46.9142 45.1763 47.9161 45.8347C48.9179 46.4931 49.7015 47.4343 50.1675 48.5388C50.6335 49.6434 50.7608 50.8615 50.5334 52.0385C50.3059 53.2155 49.7339 54.2984 48.8899 55.1498C48.186 55.8599 47.3195 56.3822 46.3695 56.6739L46.3897 58.5711L42.7233 58.6101L42.7023 56.6374C42.5635 56.5918 42.4261 56.541 42.2903 56.4851C41.1818 56.0288 40.2338 55.2534 39.5666 54.2574C38.8995 53.2613 38.5433 52.0896 38.5433 50.8908L42.2099 50.8906C42.2099 51.3629 42.3503 51.8245 42.6131 52.2169C42.8759 52.6092 43.2493 52.9147 43.686 53.0945C44.1228 53.2742 44.603 53.3202 45.0659 53.2265C45.5288 53.1329 45.9534 52.9038 46.2859 52.5684C46.6183 52.233 46.8437 51.8064 46.9333 51.3428C47.0229 50.8791 46.9727 50.3992 46.7892 49.9641C46.6056 49.529 46.2969 49.1582 45.9022 48.8988C45.5076 48.6395 45.0448 48.5032 44.5725 48.5073L44.5566 46.6745V48.5075C43.3673 48.5075 42.2046 48.1549 41.2158 47.4941C40.2269 46.8334 39.4561 45.8942 39.001 44.7954C38.5459 43.6966 38.4268 42.4875 38.6588 41.3211C38.8908 40.1546 39.4635 39.0831 40.3045 38.2421C40.9805 37.5662 41.8053 37.0636 42.7087 36.7718L42.6868 34.8885L46.3532 34.8458L46.3755 36.7626ZM20.7233 26.1039H68.39V29.7706H20.7233V26.1039ZM44.5156 74.6257L37.1093 67.844L34.6331 70.5483L42.0913 77.3775L42.1113 77.3947C42.7907 77.9819 43.6587 78.3049 44.5566 78.3049C45.4546 78.3049 46.3226 77.9819 47.002 77.3947L47.022 77.3775L54.4802 70.5483L52.004 67.844L44.5977 74.6257C44.5857 74.6339 44.5714 74.6383 44.5566 74.6383C44.5419 74.6383 44.5276 74.6339 44.5156 74.6257Z" fill="#323751"/>
</svg>
