<svg width="171" height="70" viewBox="0 0 171 70" fill="none" xmlns="http://www.w3.org/2000/svg">
<path d="M2.15137 27.0273V2.14453H9.5C12.166 2.14453 14.1883 2.6971 15.5669 3.80225C16.9455 4.896 17.6348 6.51383 17.6348 8.65576C17.6348 9.9432 17.2816 11.0654 16.5752 12.0225C15.8802 12.9681 14.9232 13.646 13.7041 14.0562C15.151 14.3752 16.3132 15.0872 17.1904 16.1924C18.0791 17.2975 18.5234 18.5736 18.5234 20.0205C18.5234 22.2194 17.8114 23.9398 16.3872 25.1816C14.9744 26.4121 13.0034 27.0273 10.4741 27.0273H2.15137ZM4.25342 15.0645V25.25H10.5596C12.3597 25.25 13.7839 24.7943 14.832 23.8828C15.8916 22.96 16.4214 21.6839 16.4214 20.0547C16.4214 18.5166 15.9144 17.3032 14.9004 16.4146C13.8978 15.5145 12.5078 15.0645 10.7305 15.0645H4.25342ZM4.25342 13.3042H9.99561C11.7502 13.27 13.106 12.8599 14.063 12.0737C15.0314 11.2762 15.5156 10.1198 15.5156 8.60449C15.5156 7.00944 15.0143 5.83594 14.0117 5.08398C13.0205 4.32064 11.5166 3.93896 9.5 3.93896H4.25342V13.3042ZM30.2983 27.3691C28.7261 27.3691 27.3019 26.9818 26.0259 26.207C24.7612 25.4323 23.7757 24.3556 23.0693 22.9771C22.363 21.5871 22.0098 20.0319 22.0098 18.3115V17.5767C22.0098 15.7993 22.3516 14.1986 23.0352 12.7744C23.7301 11.3503 24.6929 10.2337 25.9233 9.4248C27.1538 8.60449 28.4868 8.19434 29.9224 8.19434C32.1668 8.19434 33.9442 8.96338 35.2544 10.5015C36.576 12.0282 37.2368 14.1188 37.2368 16.7734V17.9185H24.0435V18.3115C24.0435 20.4079 24.6416 22.1567 25.8379 23.5581C27.0456 24.9481 28.5609 25.6431 30.3838 25.6431C31.4775 25.6431 32.4403 25.4437 33.272 25.0449C34.1151 24.6462 34.8784 24.0081 35.562 23.1309L36.8438 24.105C35.3398 26.2811 33.158 27.3691 30.2983 27.3691ZM29.9224 9.9375C28.3843 9.9375 27.0854 10.5015 26.0259 11.6294C24.9777 12.7573 24.3397 14.2726 24.1118 16.1753H35.2031V15.9531C35.1462 14.1758 34.6392 12.7288 33.6821 11.6123C32.7251 10.4958 31.4718 9.9375 29.9224 9.9375ZM43.0815 8.53613L43.1499 11.5439C43.8335 10.4274 44.688 9.59001 45.7134 9.03174C46.7388 8.47347 47.8781 8.19434 49.1313 8.19434C52.048 8.19434 53.8994 9.39062 54.6855 11.7832C55.3464 10.6325 56.2293 9.74951 57.3345 9.13428C58.4396 8.50765 59.6587 8.19434 60.9917 8.19434C64.9565 8.19434 66.9788 10.359 67.0586 14.6885V27.0273H65.0078V14.8423C64.9964 13.1903 64.6375 11.9655 63.9312 11.168C63.2362 10.3704 62.0968 9.97168 60.5132 9.97168C59.0435 9.99447 57.8016 10.473 56.7876 11.4072C55.7736 12.3301 55.2096 13.458 55.0957 14.791V27.0273H53.0449V14.6885C53.0335 13.1048 52.6576 11.9256 51.917 11.1509C51.1878 10.3647 50.0599 9.97168 48.5332 9.97168C47.2458 9.97168 46.1406 10.342 45.2178 11.0825C44.2949 11.8117 43.6113 12.8997 43.167 14.3467V27.0273H41.1162V8.53613H43.0815ZM86.5239 24.2075L92.1465 8.53613H94.2485L87.3442 27.0273H85.6865L78.748 8.53613H80.8501L86.5239 24.2075ZM99.9053 27.0273H97.8545V8.53613H99.9053V27.0273ZM97.4956 3.18701C97.4956 2.79964 97.6209 2.47493 97.8716 2.21289C98.1222 1.93945 98.464 1.80273 98.897 1.80273C99.3299 1.80273 99.6717 1.93945 99.9224 2.21289C100.184 2.47493 100.315 2.79964 100.315 3.18701C100.315 3.57438 100.184 3.89909 99.9224 4.16113C99.6717 4.42318 99.3299 4.5542 98.897 4.5542C98.464 4.5542 98.1222 4.42318 97.8716 4.16113C97.6209 3.89909 97.4956 3.57438 97.4956 3.18701ZM107.425 8.53613L107.493 11.6978C108.188 10.5584 109.054 9.69255 110.091 9.1001C111.128 8.49626 112.273 8.19434 113.526 8.19434C115.508 8.19434 116.984 8.7526 117.952 9.86914C118.921 10.9857 119.41 12.6605 119.422 14.8936V27.0273H117.388V14.8765C117.377 13.2244 117.024 11.994 116.329 11.1851C115.645 10.3761 114.546 9.97168 113.03 9.97168C111.766 9.97168 110.643 10.3704 109.664 11.168C108.695 11.9541 107.977 13.0194 107.51 14.3638V27.0273H105.477V8.53613H107.425ZM123.899 17.6108C123.899 14.7397 124.537 12.4554 125.813 10.7578C127.101 9.04883 128.844 8.19434 131.043 8.19434C133.538 8.19434 135.441 9.17985 136.751 11.1509V0.777344H138.785V27.0273H136.871L136.785 24.5664C135.475 26.4349 133.549 27.3691 131.009 27.3691C128.878 27.3691 127.158 26.5146 125.848 24.8057C124.549 23.0853 123.899 20.7668 123.899 17.8501V17.6108ZM125.967 17.9697C125.967 20.3281 126.44 22.1909 127.386 23.5581C128.331 24.9139 129.664 25.5918 131.385 25.5918C133.903 25.5918 135.691 24.481 136.751 22.2593V13.5776C135.691 11.1737 133.914 9.97168 131.419 9.97168C129.699 9.97168 128.36 10.6496 127.403 12.0054C126.446 13.3498 125.967 15.3379 125.967 17.9697ZM143.04 17.5083C143.04 15.731 143.382 14.1302 144.065 12.7061C144.76 11.2819 145.735 10.1768 146.988 9.39062C148.252 8.5931 149.682 8.19434 151.277 8.19434C153.738 8.19434 155.732 9.06022 157.259 10.792C158.785 12.5124 159.549 14.7967 159.549 17.645V18.0723C159.549 19.861 159.201 21.4731 158.506 22.9087C157.823 24.3328 156.854 25.4323 155.601 26.207C154.348 26.9818 152.918 27.3691 151.312 27.3691C148.862 27.3691 146.868 26.509 145.33 24.7886C143.803 23.0568 143.04 20.7668 143.04 17.9185V17.5083ZM145.091 18.0723C145.091 20.2826 145.66 22.0998 146.8 23.5239C147.951 24.9367 149.454 25.6431 151.312 25.6431C153.157 25.6431 154.65 24.9367 155.789 23.5239C156.94 22.0998 157.515 20.2256 157.515 17.9014V17.5083C157.515 16.0955 157.253 14.8024 156.729 13.6289C156.205 12.4554 155.47 11.5496 154.524 10.9116C153.579 10.2622 152.496 9.9375 151.277 9.9375C149.454 9.9375 147.968 10.6553 146.817 12.0908C145.666 13.515 145.091 15.3835 145.091 17.6963V18.0723ZM13.3452 62.0273C13.1401 61.4463 13.0091 60.5861 12.9521 59.4468C12.2344 60.381 11.3172 61.1045 10.2007 61.6172C9.09554 62.1185 7.92204 62.3691 6.68018 62.3691C4.90283 62.3691 3.46159 61.8735 2.35645 60.8823C1.2627 59.8911 0.71582 58.6379 0.71582 57.1226C0.71582 55.3224 1.46208 53.8983 2.95459 52.8501C4.4585 51.8019 6.54915 51.2778 9.22656 51.2778H12.9351V49.1758C12.9351 47.8542 12.5249 46.8174 11.7046 46.0654C10.8957 45.3021 9.71077 44.9204 8.1499 44.9204C6.72575 44.9204 5.54655 45.285 4.6123 46.0142C3.67806 46.7433 3.21094 47.6206 3.21094 48.646L1.16016 48.6289C1.16016 47.1592 1.84375 45.8888 3.21094 44.8179C4.57812 43.7355 6.25863 43.1943 8.25244 43.1943C10.3146 43.1943 11.9382 43.7127 13.123 44.7495C14.3193 45.7749 14.9346 47.2104 14.9688 49.0562V57.8062C14.9688 59.5949 15.1567 60.9336 15.5327 61.8223V62.0273H13.3452ZM6.91943 60.5576C8.28662 60.5576 9.5057 60.2272 10.5767 59.5664C11.659 58.9056 12.4451 58.0226 12.9351 56.9175V52.8501H9.27783C7.23844 52.8729 5.64339 53.2489 4.49268 53.978C3.34196 54.6958 2.7666 55.687 2.7666 56.9517C2.7666 57.9884 3.14827 58.8486 3.91162 59.5322C4.68636 60.2158 5.68896 60.5576 6.91943 60.5576ZM19.3096 52.5083C19.3096 50.731 19.6514 49.1302 20.335 47.7061C21.0299 46.2819 22.0041 45.1768 23.2573 44.3906C24.522 43.5931 25.9518 43.1943 27.5469 43.1943C30.0078 43.1943 32.0016 44.0602 33.5283 45.792C35.055 47.5124 35.8184 49.7967 35.8184 52.645V53.0723C35.8184 54.861 35.4709 56.4731 34.7759 57.9087C34.0923 59.3328 33.1239 60.4323 31.8706 61.207C30.6174 61.9818 29.1875 62.3691 27.5811 62.3691C25.1315 62.3691 23.1377 61.509 21.5996 59.7886C20.0729 58.0568 19.3096 55.7668 19.3096 52.9185V52.5083ZM21.3604 53.0723C21.3604 55.2826 21.93 57.0998 23.0693 58.5239C24.2201 59.9367 25.724 60.6431 27.5811 60.6431C29.4268 60.6431 30.9193 59.9367 32.0586 58.5239C33.2093 57.0998 33.7847 55.2256 33.7847 52.9014V52.5083C33.7847 51.0955 33.5226 49.8024 32.9985 48.6289C32.4744 47.4554 31.7396 46.5496 30.7939 45.9116C29.8483 45.2622 28.766 44.9375 27.5469 44.9375C25.724 44.9375 24.2371 45.6553 23.0864 47.0908C21.9357 48.515 21.3604 50.3835 21.3604 52.6963V53.0723ZM53.25 53.2603V62.0273H48.123V37.1445H57.8301C59.6986 37.1445 61.3392 37.4863 62.752 38.1699C64.1761 38.8535 65.2699 39.8276 66.0332 41.0923C66.7965 42.3455 67.1782 43.7754 67.1782 45.3818C67.1782 47.82 66.3408 49.7454 64.666 51.1582C63.0026 52.5596 60.6955 53.2603 57.7446 53.2603H53.25ZM53.25 49.1074H57.8301C59.1859 49.1074 60.217 48.7884 60.9233 48.1504C61.6411 47.5124 62 46.6009 62 45.416C62 44.1969 61.6411 43.2114 60.9233 42.4595C60.2056 41.7075 59.2144 41.3201 57.9497 41.2974H53.25V49.1074ZM75.6035 62.0273H70.6475V43.5361H75.6035V62.0273ZM70.3569 38.751C70.3569 38.0104 70.6019 37.4009 71.0918 36.9224C71.5931 36.4438 72.271 36.2046 73.1255 36.2046C73.9686 36.2046 74.6408 36.4438 75.1421 36.9224C75.6434 37.4009 75.894 38.0104 75.894 38.751C75.894 39.5029 75.6377 40.1182 75.125 40.5967C74.6237 41.0752 73.9572 41.3145 73.1255 41.3145C72.2938 41.3145 71.6216 41.0752 71.1089 40.5967C70.6076 40.1182 70.3569 39.5029 70.3569 38.751ZM86.729 49.0562L89.8394 43.5361H95.1201L89.8564 52.5938L95.3423 62.0273H90.0444L86.7461 56.2168L83.4648 62.0273H78.1499L83.6357 52.5938L78.3892 43.5361H83.687L86.729 49.0562Z" fill="#333750"/>
</svg>
