<svg width="153" height="148" viewBox="0 0 153 148" fill="none" xmlns="http://www.w3.org/2000/svg">
<path class="secondary" d="M66.6121 25.8383C66.6046 25.8251 66.5981 25.8112 66.5923 25.7972L66.6014 25.7881C66.6063 25.8045 66.6098 25.8213 66.6121 25.8383Z" fill="#5F82A6"/>
<path class="secondary" d="M66.6482 26.0225C66.6341 25.9724 66.6239 25.9211 66.6178 25.8693C66.6426 25.9164 66.6533 25.9695 66.6482 26.0225Z" fill="#5F82A6"/>
<path class="secondary" d="M73.4863 78.78C73.4483 78.8674 73.4163 78.9532 73.3783 79.0435C70.5683 85.9307 68.6077 94.1707 68.1526 104.032C60.3515 84.7969 47.4099 75.4858 35.8824 71.0149C36.0895 64.5875 36.9769 53.4102 40.6012 46.543C40.6012 46.543 46.7386 47.9878 54.4637 54.0798C60.5585 58.8862 67.6503 66.5946 73.4863 78.78Z" fill="#5F82A6"/>
<path class="secondary" d="M74.6372 78.6758L74.3739 78.616C74.412 78.5241 74.4454 78.4368 74.482 78.3479C74.5337 78.4552 74.587 78.5762 74.6372 78.6758Z" fill="#5F82A6"/>
<path class="secondary" d="M74.6372 78.6758L74.3739 78.616C74.412 78.5241 74.4454 78.4368 74.482 78.3479C74.5337 78.4552 74.587 78.5762 74.6372 78.6758Z" fill="#5F82A6"/>
<path d="M69.5929 122.827C69.5183 122.827 69.4407 122.827 69.3676 122.827C40.2605 122.827 16.1492 100.624 11.8293 71.617C11.5385 69.141 11.4944 67.6625 11.4944 67.6625C11.4944 67.6625 21.9975 66.59 34.1749 71.4148C44.9747 75.6942 57.0943 84.6038 64.3992 103.008V103.022C64.4434 103.132 64.4875 103.241 64.5271 103.356C66.7099 108.926 68.4482 115.359 69.5838 122.786C69.5883 122.799 69.5929 122.813 69.5929 122.827Z" fill="#5F82A6" class="secondary"/>
<path d="M137.349 68.5512C134.568 101.406 108.09 127.203 75.8044 127.335C75.8227 125.842 76.287 108.978 86.4003 93.6881C90.9207 86.7886 96.9936 81.059 104.126 76.9644C104.329 76.8464 104.525 76.7346 104.735 76.6227C104.983 76.4802 105.237 76.3439 105.496 76.2075C105.561 76.1692 105.632 76.134 105.703 76.0956C105.951 75.9639 106.199 75.8321 106.453 75.7049C106.584 75.6375 106.715 75.5686 106.852 75.5058C107.123 75.3648 107.4 75.2269 107.677 75.0951C107.954 74.9634 108.198 74.8469 108.461 74.7259L108.554 74.6815C108.752 74.588 108.948 74.5007 109.149 74.4133C109.399 74.2953 109.647 74.1881 109.9 74.0808C110.636 73.7591 111.396 73.4526 112.171 73.1615L112.439 73.0589C112.766 72.9317 113.095 72.8107 113.428 72.6927C120.126 70.3025 128.033 68.7841 137.349 68.5512Z" class="secondary" fill="#5F82A6"/>
<path d="M93.408 53.309C86.8124 58.3377 79.3827 66.2636 74.4812 78.3479C68.6498 65.9219 61.5777 58.0588 55.4951 53.1574C59.0875 46.4158 67.2296 32.7135 74.6365 26.3044C74.6365 26.3044 85.8504 37.4541 93.408 53.309Z" class="secondary" fill="#5F82A6"/>
<path d="M112.763 71.4102C112.437 71.5251 112.115 71.6446 111.792 71.7687L111.53 71.8699C110.769 72.1564 110.026 72.4582 109.303 72.7738C109.055 72.8796 108.811 72.9838 108.568 73.0987C108.37 73.186 108.177 73.2718 107.983 73.3622L107.891 73.4051C107.633 73.5246 107.376 73.6441 107.129 73.7698C106.883 73.8954 106.586 74.0318 106.318 74.1712C106.186 74.2325 106.056 74.2999 105.928 74.3673C105.679 74.4914 105.435 74.6201 105.192 74.7504C105.123 74.7887 105.053 74.8208 104.989 74.8591C104.741 74.994 104.493 75.1273 104.248 75.2667C104.046 75.377 103.852 75.4858 103.654 75.6007C96.655 79.6169 90.6948 85.2372 86.2573 92.0057C76.3388 107.003 75.8822 123.547 75.8639 125.01L75.8411 124.967C74.6538 117.202 72.8378 110.476 70.5545 104.654L70.7342 104.061L70.4221 104.305C70.4221 104.305 70.4221 104.305 70.4221 104.295C70.8681 94.4312 72.7861 86.1835 75.5382 79.2994L75.7954 79.3561L75.6432 79.0359C80.4518 67.1814 87.7399 59.4071 94.2138 54.4751C101.838 48.6681 108.338 46.7881 108.338 46.7881C111.806 51.1027 112.597 64.3009 112.763 71.4102Z" class="secondary" fill="#5F82A6"/>
<path d="M68.854 105.749V105.734C68.854 105.734 68.854 105.743 68.854 105.749Z" stroke="#CCDDE2" stroke-width="0.604305" stroke-miterlimit="10"/>
<path d="M74.4802 78.4981C74.4407 78.5915 74.4056 78.6835 74.3661 78.7815C71.3993 86.2065 69.3307 95.1008 68.8482 105.739C60.6132 84.9884 46.9486 74.9419 34.7727 70.1201C34.9904 63.1855 35.928 51.1288 39.7578 43.7192C39.7578 43.7192 46.2378 45.2774 54.3951 51.8504C60.8309 57.0353 68.3185 65.352 74.4802 78.4981Z" stroke="#CCDDE2" stroke-width="0.604305" stroke-miterlimit="10"/>
<path d="M74.6445 78.8443L74.366 78.7815C74.4055 78.6834 74.4406 78.5915 74.4801 78.498C74.5349 78.6114 74.5867 78.7294 74.6445 78.8443Z" stroke="#CCDDE2" stroke-width="0.604305" stroke-miterlimit="10"/>
<path d="M68.854 105.749V105.734C68.854 105.734 68.854 105.743 68.854 105.749Z" stroke="#CCDDE2" stroke-width="0.604305" stroke-miterlimit="10"/>
<path d="M74.6445 78.8443L74.366 78.7815C74.4055 78.6834 74.4406 78.5915 74.4801 78.498C74.5349 78.6114 74.5867 78.7294 74.6445 78.8443Z" stroke="#CCDDE2" stroke-width="0.604305" stroke-miterlimit="10"/>
<path opacity="0.9" d="M24.2802 103.572C23.7428 102.912 23.2146 102.236 22.7062 101.55C15.8624 92.3849 11.3541 81.6715 9.57591 70.3469C9.13296 67.5721 9.20145 65.8897 9.20145 65.8897C9.20145 65.8897 21.0364 64.6824 34.7741 70.1201C46.9515 74.9434 60.6115 84.9822 68.848 105.739V105.755C68.8982 105.88 68.95 106.004 68.9911 106.132C71.457 112.414 73.4145 119.665 74.6962 128.043C74.6962 128.058 74.6962 128.073 74.6962 128.09C74.6095 128.09 74.5272 128.09 74.4405 128.09C57.4575 128.066 41.9694 121.247 30.2912 110.108C29.0735 108.949 27.8877 107.737 26.7552 106.482" stroke="#CCDDE2" stroke-width="0.604305" stroke-miterlimit="10"/>
<path d="M68.854 105.749V105.734C68.854 105.734 68.854 105.743 68.854 105.749Z" stroke="#CCDDE2" stroke-width="0.604305" stroke-miterlimit="10"/>
<path opacity="0.9" d="M139.83 65.8944C136.887 100.652 108.879 127.938 74.7231 128.078C74.7429 126.5 75.2346 108.659 85.9309 92.4838C90.7147 85.1856 97.1399 79.1249 104.686 74.7933C104.9 74.6692 105.109 74.5512 105.327 74.4332C105.59 74.28 105.858 74.139 106.126 73.9935C106.194 73.9521 106.269 73.9169 106.343 73.8755C106.607 73.7361 106.87 73.5966 107.138 73.4633C107.276 73.3898 107.415 73.3101 107.56 73.2504C107.847 73.0971 108.14 72.9577 108.433 72.8183C108.727 72.6789 108.983 72.5548 109.261 72.426L109.36 72.3786C109.569 72.2805 109.777 72.1886 109.99 72.0951C110.254 71.971 110.516 71.8576 110.784 71.7442C111.563 71.4041 112.367 71.0793 113.186 70.7698L113.469 70.661C113.816 70.5277 114.163 70.3974 114.516 70.2749C121.611 67.7407 129.977 66.1411 139.83 65.8944Z" stroke="#CCDDE2" stroke-width="0.604305" stroke-miterlimit="10"/>
<path d="M94.5016 52.0113C87.5255 57.3295 79.6649 65.7136 74.4804 78.4981C68.3186 65.352 60.831 57.0353 54.3953 51.8504C58.2007 44.7151 66.8101 30.2237 74.6402 23.4438C74.6448 23.4438 86.498 35.2386 94.5016 52.0113Z" stroke="#CCDDE2" stroke-width="0.604305" stroke-miterlimit="10"/>
<path d="M28.8092 89.981C28.8107 89.9709 28.8107 89.9606 28.8092 89.9505C28.8092 89.9399 28.8092 89.9292 28.8092 89.9094C28.8068 89.8922 28.8068 89.8749 28.8092 89.8577C28.8135 89.8942 28.8206 89.9303 28.8305 89.9657C28.8282 89.9697 28.8252 89.9731 28.8215 89.9756C28.8177 89.9782 28.8136 89.98 28.8092 89.981Z" fill="white"/>
<path d="M28.865 99.8873C28.6301 100.65 28.3302 101.391 27.9684 102.101C27.8649 102.302 27.7629 102.498 27.6503 102.694C27.2658 103.421 26.7939 104.097 26.2453 104.708C26.1479 104.675 26.0505 104.634 25.9637 104.599C25.9439 104.599 25.9272 104.583 25.9119 104.577C24.1386 103.799 22.8067 102.339 22.4109 100.698C22.0578 99.253 22.3759 97.6901 21.694 96.3342C20.8538 94.6641 18.5888 93.6191 18.3056 91.7315C18.0499 89.9664 19.6284 88.3469 19.3712 86.6186C19.0789 84.662 16.6906 83.5022 16.2492 81.5931C15.9676 80.4072 16.2187 79.0389 16.1167 77.8163C15.9989 76.4496 15.7688 75.0951 15.4287 73.7667C15.5931 73.756 15.7575 73.7514 15.9219 73.7453C19.2707 73.6886 22.5845 75.5839 23.6713 78.2545C24.5481 80.4118 24.1021 82.9031 25.265 84.9256C25.3355 85.0563 25.4144 85.1821 25.501 85.3025C25.6536 85.5158 25.8177 85.7203 25.9926 85.9154L26.3625 86.303C26.4234 86.3643 26.4904 86.421 26.5513 86.4884C26.6122 86.5558 26.6791 86.6125 26.7415 86.6799C27.32 87.2361 27.9106 87.7984 28.2942 88.4649C28.3296 88.5227 28.3607 88.5832 28.387 88.6457C28.4229 88.7062 28.4535 88.7698 28.4783 88.8357C28.5115 88.9029 28.5409 88.972 28.5666 89.0425C28.5971 89.1191 28.6229 89.1957 28.6473 89.28C28.6838 89.4041 28.7204 89.5221 28.7447 89.6462C28.7447 89.6768 28.7447 89.7029 28.7554 89.7289C28.766 89.755 28.7554 89.7489 28.7554 89.7596C28.7577 89.7697 28.7577 89.7801 28.7554 89.7902C28.7577 89.8078 28.7612 89.8253 28.766 89.8423V89.853C28.7666 89.8722 28.7697 89.8913 28.7752 89.9097C28.7752 89.9296 28.7752 89.9404 28.7752 89.9511C28.7768 89.9612 28.7768 89.9716 28.7752 89.9817V89.9925L28.3809 95.7504C28.6336 97.1432 29.2653 98.5313 28.865 99.8873Z" fill="white"/>
<path d="M31.8426 85.9107C32.0999 84.662 32.1196 83.352 32.7042 82.16C33.791 79.9628 36.9663 78.3678 40.2953 78.2652H40.3561C40.6606 78.2652 40.965 78.2652 41.2694 78.2805C40.925 79.4227 40.6901 80.5956 40.5677 81.7831C40.4551 82.8403 40.7199 84.0231 40.4292 85.0389C39.9619 86.6891 37.4762 87.6911 37.1748 89.3781C36.9069 90.8735 38.5524 92.2723 38.2814 93.7938C37.9892 95.424 35.6313 96.3265 34.7606 97.7775C34.0574 98.9496 34.3862 100.295 34.0224 101.539C33.5962 102.958 32.1957 104.222 30.3524 104.887C30.2337 104.928 30.1271 104.969 30.0084 105.006C29.946 105.022 29.8744 105.048 29.8135 105.063C29.7922 105.048 29.7724 105.026 29.7466 105.006C29.1514 104.496 28.4847 103.635 27.9321 102.708L27.9732 102.12C28.3349 101.409 28.6349 100.668 28.8698 99.9057C29.2701 98.5497 28.6384 97.1615 28.4131 95.7688L28.8074 90.0108L28.9307 89.9082C28.9757 89.8748 29.0184 89.8385 29.0585 89.7994C29.6674 89.3045 30.325 88.8295 30.7953 88.2672C31.3799 87.5762 31.6523 86.8178 31.8259 86.0226" fill="white"/>
<path d="M31.8273 85.9929C31.8273 85.9671 31.8379 85.9427 31.8425 85.9107L31.8273 85.9929Z" fill="white"/>
<path d="M31.8426 85.9062C31.8426 85.9383 31.8319 85.9629 31.8274 85.9889C31.6538 86.7841 31.3814 87.5425 30.7969 88.2335C30.3265 88.7958 29.6705 89.2708 29.0601 89.7657C29.02 89.8048 28.9773 89.8411 28.9322 89.8745L28.8089 89.9818C28.811 89.9752 28.811 89.9683 28.8089 89.9618C28.8042 89.9441 28.7987 89.9267 28.7922 89.9097C28.7897 89.8924 28.7897 89.8748 28.7922 89.8576V89.8469C28.7873 89.8298 28.7838 89.8124 28.7815 89.7948C28.7838 89.7847 28.7838 89.7743 28.7815 89.7642C28.7838 89.7593 28.785 89.7541 28.785 89.7489C28.785 89.7435 28.7838 89.7383 28.7815 89.7335C28.7777 89.7057 28.7721 89.6779 28.7648 89.6508C28.7404 89.5267 28.7039 89.4087 28.6673 89.2846C28.643 89.2065 28.6171 89.1237 28.5867 89.0471C28.5609 88.9766 28.5314 88.9075 28.4984 88.8403C28.4768 88.773 28.446 88.709 28.407 88.6503C28.3807 88.5878 28.3497 88.5273 28.3142 88.4695C27.9306 87.803 27.34 87.2437 26.7616 86.6845C26.6992 86.6171 26.6337 86.5497 26.5713 86.493C26.5089 86.4363 26.4434 86.3689 26.3825 86.3076L26.0127 85.9199C25.8378 85.7249 25.6737 85.5202 25.521 85.3071C25.521 85.3071 25.862 79.3423 28.8911 77.5374C31.7513 75.8183 31.8426 84.8995 31.8426 85.9062Z" fill="white"/>
<path d="M31.8273 85.9929C31.8273 85.9671 31.8379 85.9427 31.8425 85.9107L31.8273 85.9929Z" fill="white"/>
<path d="M28.8042 89.9612V89.9855C28.8057 89.9755 28.8057 89.9651 28.8042 89.9551C28.8042 89.9444 28.8042 89.9338 28.8042 89.914C28.8018 89.8968 28.8018 89.8794 28.8042 89.8622C28.8018 89.8953 28.8018 89.9283 28.8042 89.9612Z" fill="white"/>
<path d="M39.056 80.1743C33.596 86.0885 31.0296 98.5604 30.0295 104.996C29.9473 105.539 29.8773 106.036 29.8103 106.483" fill="white"/>
<path d="M39.5599 110.107L37.0483 125.024C36.9888 125.432 36.7882 125.805 36.4819 126.078C36.1755 126.351 35.7831 126.506 35.3739 126.517H22.2436C21.8311 126.506 21.4358 126.347 21.1287 126.07C20.8219 125.792 20.6234 125.413 20.5692 125.001L18.2524 110.107H39.5599Z" fill="white"/>
<path d="M41.9455 108.443C41.9225 108.885 41.7349 109.301 41.42 109.61C41.1051 109.918 40.686 110.096 40.2467 110.107H17.6013C17.1662 110.096 16.751 109.922 16.437 109.619C16.1228 109.316 15.9328 108.906 15.904 108.469C15.8081 107.406 16.5951 106.477 17.6013 106.477H40.2467C41.2422 106.485 42.0261 107.381 41.9455 108.443Z" fill="white"/>
<path d="M28.8191 89.9918C28.8187 89.9586 28.813 89.9258 28.8024 89.8944L28.8191 89.9918Z" fill="white"/>
<path d="M17.5977 75.9577C22.8385 82.8096 25.3044 97.255 26.2741 104.712C26.3563 105.359 26.4263 105.952 26.4887 106.482" fill="white"/>
<path d="M29.2805 83.2386C28.6244 85.2718 28.5925 87.3249 28.6716 88.6258C28.6926 89.0456 28.7368 89.464 28.804 89.8791" fill="white"/>
<path d="M28.8092 89.981C28.8107 89.9709 28.8107 89.9606 28.8092 89.9505C28.8092 89.9399 28.8092 89.9292 28.8092 89.9094C28.8068 89.8922 28.8068 89.8749 28.8092 89.8577C28.8135 89.8942 28.8206 89.9303 28.8305 89.9657C28.8282 89.9697 28.8252 89.9731 28.8215 89.9756C28.8177 89.9782 28.8136 89.98 28.8092 89.981Z" stroke="#CCDDE2" stroke-width="0.604305" stroke-miterlimit="10"/>
<path d="M28.865 99.8873C28.6301 100.65 28.3302 101.391 27.9684 102.101C27.8649 102.302 27.7629 102.498 27.6503 102.694C27.2658 103.421 26.7939 104.097 26.2453 104.708C26.1479 104.675 26.0505 104.634 25.9637 104.599C25.9439 104.599 25.9272 104.583 25.9119 104.577C24.1386 103.799 22.8067 102.339 22.4109 100.698C22.0578 99.253 22.3759 97.6901 21.694 96.3342C20.8538 94.6641 18.5888 93.6191 18.3056 91.7315C18.0499 89.9664 19.6284 88.3469 19.3712 86.6186C19.0789 84.662 16.6906 83.5022 16.2492 81.5931C15.9676 80.4072 16.2187 79.0389 16.1167 77.8163C15.9989 76.4496 15.7688 75.0951 15.4287 73.7667C15.5931 73.756 15.7575 73.7514 15.9219 73.7453C19.2707 73.6886 22.5845 75.5839 23.6713 78.2545C24.5481 80.4118 24.1021 82.9031 25.265 84.9256C25.3355 85.0563 25.4144 85.1821 25.501 85.3025C25.6536 85.5158 25.8177 85.7203 25.9926 85.9154L26.3625 86.303C26.4234 86.3643 26.4904 86.421 26.5513 86.4884C26.6122 86.5558 26.6791 86.6125 26.7415 86.6799C27.32 87.2361 27.9106 87.7984 28.2942 88.4649C28.3296 88.5227 28.3607 88.5832 28.387 88.6457C28.4229 88.7062 28.4535 88.7698 28.4783 88.8357C28.5115 88.9029 28.5409 88.972 28.5666 89.0425C28.5971 89.1191 28.6229 89.1957 28.6473 89.28C28.6838 89.4041 28.7204 89.5221 28.7447 89.6462C28.7447 89.6768 28.7447 89.7029 28.7554 89.7289C28.766 89.755 28.7554 89.7489 28.7554 89.7596C28.7577 89.7697 28.7577 89.7801 28.7554 89.7902C28.7577 89.8078 28.7612 89.8253 28.766 89.8423V89.853C28.7666 89.8722 28.7697 89.8913 28.7752 89.9097C28.7752 89.9296 28.7752 89.9404 28.7752 89.9511C28.7768 89.9612 28.7768 89.9716 28.7752 89.9817V89.9925L28.3809 95.7504C28.6336 97.1432 29.2653 98.5313 28.865 99.8873Z" stroke="#CCDDE2" stroke-width="0.604305" stroke-miterlimit="10"/>
<path d="M31.8426 85.9107C32.0999 84.662 32.1196 83.352 32.7042 82.16C33.791 79.9628 36.9663 78.3678 40.2953 78.2652H40.3561C40.6606 78.2652 40.965 78.2652 41.2694 78.2805C40.925 79.4227 40.6901 80.5956 40.5677 81.7831C40.4551 82.8403 40.7199 84.0231 40.4292 85.0389C39.9619 86.6891 37.4762 87.6911 37.1748 89.3781C36.9069 90.8735 38.5524 92.2723 38.2814 93.7938C37.9892 95.424 35.6313 96.3265 34.7606 97.7775C34.0574 98.9496 34.3862 100.295 34.0224 101.539C33.5962 102.958 32.1957 104.222 30.3524 104.887C30.2337 104.928 30.1271 104.969 30.0084 105.006C29.946 105.022 29.8744 105.048 29.8135 105.063C29.7922 105.048 29.7724 105.026 29.7466 105.006C29.1514 104.496 28.4847 103.635 27.9321 102.708L27.9732 102.12C28.3349 101.409 28.6349 100.668 28.8698 99.9057C29.2701 98.5497 28.6384 97.1615 28.4131 95.7688L28.8074 90.0108L28.9307 89.9082C28.9757 89.8748 29.0184 89.8385 29.0585 89.7994C29.6674 89.3045 30.325 88.8295 30.7953 88.2672C31.3799 87.5762 31.6523 86.8178 31.8259 86.0226" stroke="#CCDDE2" stroke-width="0.604305" stroke-miterlimit="10"/>
<path d="M31.8273 85.9929C31.8273 85.9671 31.8379 85.9427 31.8425 85.9107" stroke="#CCDDE2" stroke-width="0.604305" stroke-miterlimit="10"/>
<path d="M31.8426 85.9062C31.8426 85.9383 31.8319 85.9629 31.8274 85.9889C31.6538 86.7841 31.3814 87.5425 30.7969 88.2335C30.3265 88.7959 29.6705 89.2708 29.0601 89.7657C29.02 89.8048 28.9773 89.8411 28.9322 89.8745L28.8089 89.9818C28.811 89.9752 28.811 89.9683 28.8089 89.9618C28.8042 89.9441 28.7987 89.9267 28.7922 89.9097C28.7897 89.8924 28.7897 89.8748 28.7922 89.8576V89.8469C28.7873 89.8298 28.7838 89.8124 28.7815 89.7948C28.7838 89.7847 28.7838 89.7743 28.7815 89.7642C28.7838 89.7593 28.785 89.7541 28.785 89.7489C28.785 89.7435 28.7838 89.7383 28.7815 89.7335C28.7777 89.7057 28.7721 89.6779 28.7648 89.6508C28.7404 89.5267 28.7039 89.4087 28.6673 89.2846C28.643 89.2065 28.6171 89.1237 28.5867 89.0471C28.5609 88.9766 28.5314 88.9075 28.4984 88.8403C28.4768 88.773 28.446 88.709 28.407 88.6503C28.3807 88.5878 28.3497 88.5273 28.3142 88.4695C27.9306 87.803 27.34 87.2437 26.7616 86.6845C26.6992 86.6171 26.6337 86.5497 26.5713 86.493C26.5089 86.4363 26.4434 86.3689 26.3825 86.3076L26.0127 85.9199C25.8378 85.7249 25.6737 85.5202 25.521 85.3071C25.521 85.3071 25.862 79.3423 28.8911 77.5374C31.7513 75.8183 31.8426 84.8995 31.8426 85.9062Z" stroke="#CCDDE2" stroke-width="0.604305" stroke-miterlimit="10"/>
<path d="M31.8273 85.9929C31.8273 85.9671 31.8379 85.9427 31.8425 85.9107" stroke="#CCDDE2" stroke-width="0.604305" stroke-miterlimit="10"/>
<path d="M28.8042 89.9612V89.9855C28.8057 89.9755 28.8057 89.9651 28.8042 89.9551C28.8042 89.9444 28.8042 89.9338 28.8042 89.914C28.8018 89.8968 28.8018 89.8794 28.8042 89.8622C28.8018 89.8953 28.8018 89.9283 28.8042 89.9612Z" stroke="#CCDDE2" stroke-width="0.604305" stroke-miterlimit="10"/>
<path d="M39.056 80.1743C33.596 86.0885 31.0296 98.5604 30.0295 104.996C29.9473 105.539 29.8773 106.036 29.8103 106.483" stroke="#CCDDE2" stroke-width="0.604305" stroke-miterlimit="10"/>
<path d="M39.5599 110.107L37.0483 125.024C36.9888 125.432 36.7882 125.805 36.4819 126.078C36.1755 126.351 35.7831 126.506 35.3739 126.517H22.2436C21.8311 126.506 21.4358 126.347 21.1287 126.07C20.8219 125.792 20.6234 125.413 20.5692 125.001L18.2524 110.107H39.5599Z" stroke="#CCDDE2" stroke-width="0.604305" stroke-miterlimit="10"/>
<path d="M41.9455 108.443C41.9225 108.885 41.7349 109.301 41.42 109.61C41.1051 109.918 40.686 110.096 40.2467 110.107H17.6013C17.1662 110.096 16.751 109.922 16.437 109.619C16.1228 109.316 15.9328 108.906 15.904 108.469C15.8081 107.406 16.5951 106.477 17.6013 106.477H40.2467C41.2422 106.485 42.0261 107.381 41.9455 108.443Z" stroke="#CCDDE2" stroke-width="0.604305" stroke-miterlimit="10"/>
<path d="M28.8191 89.9918C28.8187 89.9586 28.813 89.9258 28.8024 89.8944L28.8191 89.9918Z" stroke="#CCDDE2" stroke-width="0.604305" stroke-miterlimit="10"/>
<path d="M17.5977 75.9577C22.8385 82.8096 25.3044 97.255 26.2741 104.712C26.3563 105.359 26.4263 105.952 26.4887 106.482" stroke="#CCDDE2" stroke-width="0.604305" stroke-miterlimit="10"/>
<path d="M29.2805 83.2386C28.6244 85.2718 28.5925 87.3249 28.6716 88.6258C28.6926 89.0456 28.7368 89.464 28.804 89.8791" stroke="#CCDDE2" stroke-width="0.604305" stroke-miterlimit="10"/>
<path d="M114.516 70.2749C114.163 70.3975 113.816 70.5277 113.469 70.661L113.186 70.7698C112.367 71.0762 111.563 71.4041 110.784 71.7443C110.516 71.8576 110.254 71.971 109.991 72.0951C109.778 72.1886 109.569 72.2805 109.361 72.3786L109.262 72.4261C108.983 72.5548 108.706 72.6835 108.434 72.8183C108.161 72.9531 107.848 73.1018 107.56 73.2504C107.408 73.3178 107.277 73.3898 107.138 73.4634C106.87 73.5967 106.607 73.7361 106.344 73.8755C106.269 73.9169 106.192 73.9521 106.126 73.9935C105.858 74.139 105.59 74.2831 105.327 74.4332C105.109 74.5512 104.901 74.6692 104.686 74.7933C97.1403 79.1249 90.7151 85.1856 85.9313 92.4838C75.235 108.659 74.7433 126.498 74.7235 128.078L74.6976 128.032C73.4175 119.659 71.4585 112.404 68.9971 106.122L69.1904 105.483L68.854 105.746C68.854 105.746 68.854 105.746 68.854 105.736C69.3365 95.0977 71.4052 86.2034 74.3719 78.7785L74.6505 78.8413C74.5957 78.7264 74.5409 78.6084 74.4861 78.495C79.6706 65.7105 87.5311 57.3265 94.5073 52.0083C102.727 45.7447 109.74 43.7161 109.74 43.7161C113.484 48.3739 114.337 62.6079 114.516 70.2749Z" stroke="#CCDDE2" stroke-width="0.604305" stroke-miterlimit="10"/>
<path d="M115.014 125.308C113.922 125.087 112.853 124.823 111.806 124.517C107.51 123.253 102.52 121.096 100.809 116.56C100.381 115.389 100.246 114.129 100.416 112.892C100.587 111.655 101.057 110.48 101.785 109.47C102.557 108.392 103.642 107.582 104.89 107.151C107.607 106.267 110.614 107.645 112.629 109.683C114.645 111.72 115.941 114.343 117.52 116.74C116.092 113.522 114.643 110.211 114.447 106.693C114.294 103.951 115.034 100.977 116.913 98.9159C118.642 97.0191 122.685 95.5344 125.065 96.9241C126.636 97.8434 127.263 99.7984 127.533 101.606C128.273 106.554 127.323 111.581 126.377 116.493C127.012 113.867 127.694 111.216 128.988 108.847C130.282 106.479 132.265 104.386 134.806 103.508C136.585 102.895 138.698 102.961 140.188 104.121C141.578 105.193 142.199 107.021 142.391 108.777C142.71 111.722 142.022 114.708 140.838 117.418C136.419 127.535 124.164 127.146 115.014 125.308Z" fill="white"/>
<path d="M124.985 120.299C124.985 120.299 131.796 122.203 134.201 112.673L124.985 120.299Z" fill="white"/>
<path d="M121.954 104.032C120.061 108.353 121.954 121.316 121.954 121.316V104.032Z" fill="white"/>
<path d="M115.641 120.005C115.357 119.956 112.624 119.571 110.295 118.494C108.491 117.661 106.928 116.41 106.928 114.581" fill="white"/>
<path d="M110.842 114.582C110.842 114.582 108.18 117.707 110.295 118.496L110.842 114.582Z" fill="white"/>
<path d="M109.075 121.338C109.454 120.808 111.425 121.871 112.713 119.369L109.075 121.338Z" fill="white"/>
<path d="M121.112 109.751C120.439 109.243 118.676 109.751 118.418 105.684L121.112 109.751Z" fill="white"/>
<path d="M121.406 113.564C121.406 113.564 124.353 112.491 124.353 110.17L121.406 113.564Z" fill="white"/>
<path d="M127.74 120.354C127.74 120.354 129.277 116.36 129.909 114.581L127.74 120.354Z" fill="white"/>
<path d="M132.513 116.537C132.513 116.537 134.202 117.884 136.221 115.724L132.513 116.537Z" fill="white"/>
<path d="M132.513 114.582C132.513 114.582 131.424 114.106 131.929 111.365L132.513 114.582Z" fill="white"/>
<path d="M115.014 125.308C113.912 125.154 112.851 124.825 111.806 124.517C107.51 123.253 102.52 121.096 100.809 116.56C100.381 115.389 100.246 114.129 100.416 112.892C100.587 111.655 101.057 110.48 101.785 109.47C102.557 108.392 103.642 107.582 104.89 107.151C107.607 106.267 110.614 107.645 112.629 109.683C114.645 111.72 115.941 114.343 117.52 116.74C116.092 113.522 114.643 110.211 114.447 106.693C114.294 103.951 115.034 100.977 116.913 98.9159C118.642 97.0191 122.685 95.5344 125.065 96.9241C126.636 97.8434 127.263 99.7984 127.533 101.606C128.273 106.554 127.323 111.581 126.377 116.493C127.012 113.867 127.694 111.216 128.988 108.847C130.282 106.479 132.265 104.386 134.806 103.508C136.585 102.895 138.698 102.961 140.188 104.121C141.578 105.193 142.199 107.021 142.391 108.777C142.71 111.722 142.063 114.728 140.838 117.418C136.348 127.269 123.998 126.524 115.014 125.308Z" stroke="#CCDDE2" stroke-width="0.604305" stroke-miterlimit="10"/>
<path d="M124.985 120.299C124.985 120.299 131.796 122.203 134.201 112.673" stroke="#CCDDE2" stroke-width="0.604305" stroke-miterlimit="10"/>
<path d="M121.954 104.032C120.061 108.353 121.954 121.316 121.954 121.316" stroke="#CCDDE2" stroke-width="0.604305" stroke-miterlimit="10"/>
<path d="M115.641 120.005C115.357 119.956 112.624 119.571 110.295 118.494C108.491 117.661 106.928 116.41 106.928 114.581" stroke="#CCDDE2" stroke-width="0.604305" stroke-miterlimit="10"/>
<path d="M110.842 114.582C110.842 114.582 108.18 117.707 110.295 118.496" stroke="#CCDDE2" stroke-width="0.604305" stroke-miterlimit="10"/>
<path d="M109.075 121.338C109.454 120.808 111.425 121.871 112.713 119.369" stroke="#CCDDE2" stroke-width="0.604305" stroke-miterlimit="10"/>
<path d="M121.112 109.751C120.439 109.243 118.676 109.751 118.418 105.684" stroke="#CCDDE2" stroke-width="0.604305" stroke-miterlimit="10"/>
<path d="M121.406 113.564C121.406 113.564 124.353 112.491 124.353 110.17" stroke="#CCDDE2" stroke-width="0.604305" stroke-miterlimit="10"/>
<path d="M127.74 120.354C127.74 120.354 129.277 116.36 129.909 114.581" stroke="#CCDDE2" stroke-width="0.604305" stroke-miterlimit="10"/>
<path d="M132.513 116.537C132.513 116.537 134.202 117.884 136.221 115.724" stroke="#CCDDE2" stroke-width="0.604305" stroke-miterlimit="10"/>
<path d="M132.513 114.582C132.513 114.582 131.424 114.106 131.929 111.365" stroke="#CCDDE2" stroke-width="0.604305" stroke-miterlimit="10"/>
<path d="M132.978 90.7463C134.339 91.9267 135.554 93.2678 136.596 94.7407C138.512 97.3775 139.596 100.534 139.707 103.799" stroke="#CCDDE2" stroke-width="0.604305" stroke-miterlimit="10"/>
<path d="M85.5054 36.7294C88.2453 35.0685 91.1026 33.593 94.1408 32.5511C101.717 29.9464 110.163 30.524 116.165 36.2406C121.368 41.1911 123.828 48.5455 124.33 55.5935C124.33 55.6962 124.347 55.805 124.351 55.9138C124.581 59.545 124.393 63.5547 124.367 67.5675" stroke="#CCDDE2" stroke-width="0.604305" stroke-miterlimit="10"/>
<path d="M25.7827 67.3454C26.4692 62.9342 25.6305 58.7851 25.1739 54.2452C23.9987 42.4168 27.7357 28.2641 41.2724 26.4944C48.6276 25.5292 54.5976 28.2948 59.5705 33.5992C60.6878 34.7897 61.8051 36.1885 62.9878 37.5399" stroke="#CCDDE2" stroke-width="0.604305" stroke-miterlimit="10"/>
<path d="M20.504 106.41C20.504 106.41 10.2522 101.865 11.2781 93.3265C11.5643 90.9164 12.6922 88.7606 14.117 86.7795" stroke="#CCDDE2" stroke-width="0.604305" stroke-miterlimit="10"/>
<path d="M113.098 112.103C112.708 111.82 112.302 111.552 111.88 111.297C107.67 108.789 101.933 107.816 97.1225 107.525C96.8287 107.504 96.5395 107.488 96.2533 107.476C95.8741 107.459 95.5032 107.36 95.1665 107.184C94.8174 107.006 94.5141 106.75 94.2806 106.434C94.0445 105.501 93.761 104.58 93.4312 103.676L92.7553 100.612C92.5031 99.7257 92.3054 98.8246 92.1632 97.9139C91.463 93.3066 90.9455 87.5808 90.7628 85.4373C90.7847 85.4468 90.8077 85.4534 90.8313 85.4572L92.9213 86.1314C92.9287 86.1308 92.9365 86.1308 92.9441 86.1314L93.6854 86.3505C96.5593 87.1718 99.5747 87.7877 102.569 87.8536C105.391 87.9133 108.487 87.4475 110.898 85.8755C111.101 85.7468 111.298 85.6089 111.489 85.4618C113.349 84.0522 114.641 81.8888 115.373 79.6932C116.721 75.6322 117.011 71.2913 116.218 67.0849C115.993 65.9267 115.677 64.7883 115.273 63.6804C114.207 60.731 112.668 57.9669 111.347 55.1002C111.043 54.4322 110.607 53.732 110.554 52.9904C110.49 52.1063 110.941 51.256 111.082 50.3964C111.247 49.3636 111.324 48.3183 111.311 47.2723C111.309 46.0316 111.073 44.8024 110.615 43.6502C110.221 42.6819 109.521 41.0578 108.277 41.1175C107.878 39.8336 107.211 38.3474 106.038 38.1804C105.733 38.1333 105.422 38.2093 105.173 38.3918C105.087 38.2675 104.994 38.1483 104.895 38.0348C104.405 37.4802 103.478 36.9807 102.733 37.2687C101.257 37.8571 101.933 39.9025 102.665 41.4546C102.288 41.373 101.901 41.3472 101.517 41.378C100.657 41.4546 99.6615 41.804 99.3281 42.6375C99.147 43.0971 99.2109 43.926 99.6736 44.1865C100.261 44.5098 100.983 44.2953 101.57 44.5987C102.226 44.9388 102.484 45.8504 102.388 46.5399C102.369 46.8102 102.262 47.0667 102.083 47.2692C101.045 48.3142 100.333 45.4306 99.9385 44.9557C99.4027 44.3075 98.6172 44.4255 98.0586 44.9725C96.955 46.045 97.4345 48.2054 97.8973 49.5016C98.3996 50.9204 99.0526 52.4128 100.095 53.5175C101.829 55.3484 102.019 58.2672 102.477 60.6283C102.666 61.6043 102.847 62.5895 102.994 63.5731C103.283 65.4822 103.45 67.4036 103.298 69.3311C103.259 69.8601 103.113 70.3756 102.867 70.8449C102.621 71.314 102.281 71.7271 101.87 72.058C101.458 72.389 100.982 72.6306 100.473 72.7677C99.9639 72.9049 99.4321 72.9346 98.911 72.8551C97.6705 72.6651 96.2183 72.4383 94.6718 72.1947C94.6718 72.1947 94.6839 72.1825 94.6916 72.1794C92.5833 71.4577 90.7187 71.3689 88.8631 71.2708C83.6284 70.4557 78.9279 69.6896 78.9279 69.6896C78.8209 69.6697 78.7241 69.613 78.654 69.529C78.584 69.4452 78.5452 69.3395 78.5443 69.2299L78.4804 63.3801C78.8381 63.8214 79.6144 63.8826 80.0893 63.6268C80.2781 63.5299 80.4333 63.3778 80.5345 63.1906C80.6359 63.0032 80.6785 62.7894 80.6571 62.5772C80.9649 62.5746 81.2675 62.4963 81.5384 62.3489C81.6186 62.3037 81.6955 62.2526 81.7683 62.1957C81.9185 62.0601 82.0397 61.8951 82.1241 61.7106C82.2088 61.5262 82.2549 61.3262 82.2599 61.1232C82.2663 61.011 82.2607 60.8986 82.2432 60.7876C82.2432 60.7463 82.231 60.7064 82.2234 60.662C82.2066 60.5762 82.1869 60.4919 82.1625 60.4015C82.1503 60.3494 82.1351 60.2974 82.1184 60.2483C82.0788 60.0951 82.0346 59.9419 82.0012 59.7887C82.0188 59.791 82.0366 59.791 82.0544 59.7887C82.2045 59.7801 82.3538 59.7586 82.5004 59.7243C82.6397 59.6909 82.7758 59.6446 82.9068 59.5864C82.9802 59.5536 83.0519 59.5169 83.1215 59.4761C83.1334 59.472 83.1443 59.4651 83.1535 59.4562C83.2711 59.3836 83.3827 59.301 83.4868 59.2095C83.522 59.1804 83.5556 59.1491 83.5873 59.116C83.6466 59.0598 83.7031 59.0005 83.7562 58.9383C83.8241 58.8582 83.8876 58.7742 83.9465 58.687C83.9751 58.65 84.0005 58.6106 84.0226 58.5691C84.2337 58.228 84.3881 57.8543 84.4793 57.4628C84.4869 57.4261 84.496 57.3893 84.5036 57.354C84.8081 55.8954 84.3514 54.2299 83.0789 53.686C82.8247 53.5772 81.9235 53.4715 81.9235 53.0869C81.9238 53.0595 81.9279 53.0321 81.9357 53.0057C81.9342 53.0002 81.9342 52.9944 81.9357 52.9889C81.9596 52.9317 81.9943 52.8798 82.0377 52.8356C82.0575 52.8111 82.0849 52.7866 82.1092 52.7621C82.1625 52.7146 82.2219 52.6702 82.2782 52.6242C82.3359 52.5857 82.3913 52.5439 82.4441 52.4986C82.4663 52.4799 82.4878 52.4598 82.508 52.4388C82.5476 52.3944 82.5887 52.3499 82.6253 52.3055C82.6615 52.2617 82.695 52.2156 82.7257 52.1676C82.7577 52.1186 82.7896 52.0696 82.8186 52.0144C82.8502 51.9661 82.8773 51.9148 82.8992 51.8612C82.9451 51.7703 82.9828 51.6755 83.0119 51.5777C83.0632 51.4172 83.0953 51.2511 83.1078 51.0828C83.1078 51.0231 83.1078 50.9618 83.1078 50.9005C83.1078 49.5553 82.0179 48.1625 80.6403 48.0154C80.4175 47.9909 80.1922 48.0176 79.9812 48.0936C79.8774 48.1297 79.7757 48.1717 79.6768 48.2192L79.5246 48.2912C79.4211 48.3402 79.316 48.3923 79.208 48.4444C79.1168 48.4881 79.018 48.5131 78.9172 48.518C78.8941 48.5172 78.8711 48.5141 78.8487 48.5088L78.8046 48.4965C78.7725 48.4895 78.7434 48.4729 78.7209 48.449C78.6941 48.4294 78.6717 48.4044 78.6554 48.3755C78.6416 48.3474 78.6318 48.3174 78.6265 48.2866C78.6254 48.2848 78.6248 48.2826 78.6248 48.2805C78.6248 48.2783 78.6254 48.2762 78.6265 48.2744C78.6187 48.2387 78.6152 48.2022 78.6158 48.1656C78.6155 48.0899 78.6263 48.0145 78.6478 47.9419C78.6907 47.7836 78.7122 47.6203 78.7117 47.4562C78.7114 47.3967 78.7073 47.3374 78.6996 47.2784C78.6918 47.1966 78.6796 47.1153 78.663 47.0348C78.5139 46.4422 78.1599 45.9223 77.6645 45.5685C76.2686 44.5757 73.652 44.5711 72.9305 46.4112C72.9153 46.4388 72.9077 46.4679 72.8955 46.4955C72.8026 46.3867 72.7098 46.2733 72.6169 46.1599C72.5527 46.1183 72.4854 46.0815 72.416 46.0496C71.4494 45.6252 70.0658 45.8075 69.361 46.638C68.7765 47.3275 68.5847 48.3923 69.1037 49.1737C68.8126 48.7953 68.4179 48.5109 67.9682 48.3556C68.0218 48.5071 68.0933 48.6517 68.1813 48.7861C68.1401 48.7297 68.0958 48.6755 68.0489 48.6237C68.0123 48.5823 67.9758 48.5455 67.9393 48.5103C67.9027 48.4751 67.851 48.4245 67.8068 48.3877C67.7627 48.351 67.714 48.3111 67.6668 48.2744C66.7611 47.6063 65.4277 47.5374 64.5829 48.3724C63.9223 49.0251 63.7853 49.9276 64.0197 50.8024C64.2541 51.6773 64.8158 52.2856 65.2374 53.0394C63.8081 53.401 62.6649 54.996 63.1155 56.4914C63.2096 56.8008 63.3744 57.0836 63.5967 57.3173C63.819 57.5508 64.0926 57.7288 64.3956 57.8367C64.504 57.8641 64.6145 57.8831 64.726 57.8934C64.7631 57.8972 64.7992 57.9087 64.8318 57.9272C64.8643 57.9458 64.8928 57.9707 64.9153 58.0008C64.938 58.0308 64.9541 58.0653 64.963 58.1019C64.9716 58.1385 64.9729 58.1765 64.9665 58.2136C64.9436 58.3141 64.9319 58.4169 64.9315 58.52C64.9324 58.7669 64.9963 59.0094 65.1175 59.2241C65.2385 59.4387 65.4123 59.6184 65.6225 59.7458C65.6536 59.7632 65.681 59.7871 65.7027 59.8156C65.7244 59.8441 65.74 59.8769 65.7489 59.9117C65.7575 59.9466 65.7591 59.9829 65.7533 60.0183C65.7475 60.0539 65.7346 60.0877 65.7154 60.1181C65.5036 60.421 65.3793 60.7769 65.356 61.1466C65.3326 61.5162 65.4111 61.885 65.583 62.2126C66.0533 63.161 67.2056 63.9838 68.2924 63.659C68.6421 63.5523 68.9447 63.3277 69.1494 63.0231C69.1712 63.0001 69.1902 62.9744 69.2057 62.9465C69.2097 62.9373 69.2153 62.929 69.2225 62.922C69.379 62.6868 69.4828 62.4202 69.5269 62.1406C69.7947 62.5679 70.0944 62.9741 70.4235 63.3556L70.6214 63.5777L70.0201 67.3101L69.9318 67.9828C69.8991 68.2155 69.7842 68.4286 69.608 68.5828C69.4318 68.737 69.2062 68.8221 68.9728 68.8224C68.8404 68.8224 68.7034 68.8224 68.571 68.8224C68.3016 68.8224 68.0352 68.8301 67.7703 68.8377C66.9651 68.8576 66.1629 68.8944 65.3622 68.9434C64.7534 68.9833 64.1582 69.0277 63.56 69.0813C63.2555 69.1058 62.9633 69.1334 62.6619 69.1656C62.3605 69.1978 62.0622 69.2269 61.7638 69.2591C61.1808 69.3249 60.5933 69.3924 60.0087 69.4705C59.304 69.564 58.6038 69.6605 57.899 69.7616C56.7969 69.924 55.6979 70.1018 54.5943 70.2933C53.5197 70.4802 52.4496 70.6748 51.3749 70.8724C49.8649 71.1528 48.3397 71.3873 46.8084 71.6385C46.4062 71.704 45.995 71.6822 45.6018 71.5748C45.2088 71.4674 44.843 71.2768 44.5289 71.0157C44.2148 70.7548 43.9597 70.4292 43.7805 70.061C43.6013 69.6928 43.5024 69.2905 43.4901 68.8806C43.3181 63.8244 46.163 54.6022 46.163 54.6022C46.2285 53.8852 47.0763 53.3765 47.5725 52.9689C48.9927 51.8397 49.8315 49.8173 50.3216 48.115C50.6686 46.9 50.9974 45.1656 49.9761 44.1696C49.4159 43.6227 48.6305 43.5047 48.0962 44.1528C47.7019 44.6308 46.9895 47.5113 45.9499 46.4664C45.771 46.2638 45.664 46.0073 45.6455 45.7371C45.5557 45.0491 45.7977 44.1375 46.4614 43.7958C47.0489 43.4894 47.7704 43.7069 48.358 43.3836C48.8146 43.1232 48.8847 42.2897 48.7035 41.8346C48.3702 41.0011 47.3762 40.6518 46.5146 40.5752C46.1303 40.5444 45.7436 40.5701 45.3669 40.6518C46.0991 39.0997 46.7764 37.0542 45.2984 36.4674C44.5541 36.1717 43.624 36.6696 43.1369 37.2243C43.0378 37.338 42.9454 37.457 42.8599 37.5813C42.6098 37.3994 42.2988 37.3234 41.9938 37.3698C40.8141 37.5369 40.155 39.0231 39.7562 40.3086C38.5247 40.2473 37.8276 41.8407 37.4287 42.8075C36.9767 43.9211 36.7366 45.1103 36.7209 46.3132C36.6829 47.5927 36.7725 48.873 36.9888 50.1344C37.0893 50.6783 37.2704 51.1962 37.3998 51.7279C37.5414 52.307 37.3876 52.8816 37.1791 53.4255C36.3617 55.5078 35.2094 57.4567 34.3448 59.5236C33.4073 61.7111 32.6557 63.9744 32.0981 66.2897C31.0234 70.8602 30.8027 75.7065 32.0585 80.2647C34.4331 88.8786 46.4644 86.0502 53.3568 83.6355C56.2383 82.6273 58.2278 81.6866 58.2278 81.6866C58.2278 81.6866 58.243 82.3546 58.243 83.4853V83.6385C58.2354 85.1707 58.103 97.3944 56.0572 106.37L55.9887 106.488C56.0054 106.476 56.0374 106.476 56.0572 106.584C55.9447 106.83 55.7647 107.037 55.5386 107.182C55.3125 107.327 55.0496 107.404 54.7816 107.403C49.8832 107.383 29.2562 108.083 33.1666 121.499C33.8988 124.019 35.8107 125.636 38.4943 126.592C40.6253 127.358 43.245 127.69 46.1463 127.715H46.166C40.4944 128.796 39.1747 137.289 45.5024 138.573C47.9379 139.067 49.8665 137.479 52.0554 136.802C53.3063 136.43 54.6088 136.263 55.9126 136.309C56.7633 136.329 57.6116 136.409 58.4515 136.548C67.647 138.063 76.9784 138.574 86.283 138.071C92.5742 137.723 98.9871 136.928 104.957 134.809C109.457 133.209 114.395 130.41 116.611 126.075C117.396 124.55 117.802 122.855 117.793 121.137C117.788 117.054 115.912 114.149 113.098 112.103Z" fill="white"/>
<path d="M18.1778 126.362L17.948 126.143" stroke="#CCDDE2" stroke-width="0.604305" stroke-miterlimit="10"/>
<path d="M93.4357 103.453L92.7583 100.381C92.5066 99.4943 92.3093 98.5932 92.1677 97.6825C91.4675 93.0752 90.95 87.351 90.7658 85.2075L92.9486 85.9077L92.1875 84.2024C92.1875 84.2024 89.6805 75.7095 94.6961 71.9695C91.0687 70.7269 88.1629 71.3658 84.7684 70.5798C83.4609 70.2733 82.0802 70.0052 80.555 69.7539L79.4514 69.5593C79.4073 72.5777 77.3204 73.2626 75.6034 73.5905C71.3763 74.4056 68.4491 71.3014 68.5709 68.5987C63.878 68.6523 59.24 69.2759 54.5958 70.0696C55.1955 71.8408 56.4589 77.1482 52.9047 83.424L53.3613 83.4087C56.2428 82.399 58.2323 81.4598 58.2323 81.4598C58.2323 81.4598 58.249 82.1278 58.249 83.2585V83.4118C58.2414 84.9347 58.109 97.1676 56.0632 106.142C55.911 106.434 56.0297 106.074 56.0632 106.399C55.939 106.648 55.8537 106.916 55.8105 107.191L55.9094 106.794C55.3584 107.59 56.7375 108.553 58.73 109.039C63.9389 110.32 92.6518 112.563 94.2729 107.191C94.3682 106.871 94.3714 106.53 94.282 106.208C94.0464 105.275 93.7639 104.356 93.4357 103.453Z" class="primary" fill="#353642"/>
<path d="M55.9114 136.077C54.609 136.033 53.3083 136.2 52.0588 136.572C49.8684 137.248 47.9367 138.837 45.5043 138.342C39.1766 137.058 40.4978 128.565 46.1695 127.483C46.7129 127.471 47.2563 127.468 47.7951 127.468H47.8317C50.4437 127.468 52.9888 127.537 55.0772 126.811C54.8809 126.993 49.7922 131.536 55.9114 136.077Z" class="secondary" fill="#5F82A6"/>
<path d="M79.4471 69.5532V69.5609C79.4029 72.5793 77.316 73.2642 75.599 73.592C71.3719 74.4072 68.4448 71.303 68.5665 68.6002" stroke="black" stroke-width="0.604305" stroke-miterlimit="10"/>
<path d="M46.1741 127.483C40.5025 128.565 39.1812 137.058 45.5089 138.342C47.9444 138.837 49.873 137.248 52.0634 136.572C53.3139 136.2 54.6158 136.033 55.9191 136.077C56.768 136.101 57.6143 136.183 58.452 136.324C67.6472 137.843 76.9786 138.356 86.2835 137.856C92.5746 137.507 98.9861 136.713 104.956 134.594C109.457 132.993 114.394 130.194 116.61 125.861C117.396 124.335 117.802 122.64 117.793 120.921C117.793 116.833 115.913 113.928 113.104 111.881C112.713 111.598 112.307 111.331 111.887 111.075C107.676 108.567 101.941 107.594 97.1305 107.303C96.8367 107.283 96.546 107.266 96.2614 107.254C95.8822 107.238 95.5112 107.139 95.1745 106.963C94.825 106.786 94.5215 106.53 94.2886 106.214C94.062 105.914 93.9024 105.569 93.8213 105.201L93.4392 103.454L92.7619 100.382L92.1682 97.6824C91.468 93.0752 90.9505 87.351 90.7663 85.2075" stroke="black" stroke-width="0.604305" stroke-miterlimit="10"/>
<path d="M99.1199 123.363C97.243 127.683 92.6019 126.204 87.5026 123.095C84.338 121.166 81.6377 120.892 80.0439 120.95C82.2907 120.748 84.2543 120.051 84.8068 117.494C85.2528 115.416 84.0899 113.51 82.0776 112.897C86.9151 112.682 91.8789 113.05 95.8152 116.115C95.8183 116.115 101 119.04 99.1199 123.363Z" class="secondary" fill="#5F82A6"/>
<path d="M82.0451 59.5465C82.0279 59.5488 82.0105 59.5488 81.9933 59.5465C82.0405 59.7856 82.1303 60.0414 82.1897 60.2958C82.2373 60.4881 82.2579 60.686 82.2506 60.8841C82.1866 61.8111 81.5336 62.3136 80.6477 62.3382C80.6702 62.5508 80.6281 62.7655 80.527 62.9536C80.4259 63.1418 80.2707 63.2947 80.0814 63.3923C79.6065 63.6436 78.8287 63.5869 78.471 63.1441C78.0478 62.6308 78.2579 61.9934 78.5151 61.4311C78.608 61.2335 78.7008 61.0465 78.7769 60.8765C78.8698 60.665 78.9505 60.4551 79.022 60.2406C79.2755 59.4468 79.4718 58.6358 79.6096 57.8136C79.7781 56.9832 79.8895 56.142 79.9429 55.2963C79.8866 55.091 79.9231 54.7937 79.8425 54.5792C79.7251 54.2481 79.5134 53.9593 79.2336 53.7488C78.6552 53.3198 77.8849 53.3473 77.27 52.9674C76.7133 52.6183 76.274 52.1084 76.0096 51.5041C75.9579 51.3785 75.9092 51.2161 75.8361 51.0751C75.8035 50.9985 75.754 50.9305 75.6915 50.8759C75.4144 50.6415 75.2531 51.0552 75.0826 51.2161C74.9079 51.3785 74.7007 51.5017 74.4751 51.5772C74.2494 51.6528 74.0102 51.679 73.7735 51.6543C73.5947 51.6305 73.4205 51.5789 73.2575 51.5011C73.1379 51.4355 73.026 51.3564 72.9242 51.2651C72.8033 51.1467 72.6627 51.0508 72.5086 50.9817C72.2194 50.8729 72.2042 51.354 72.1631 51.521C72.1357 51.6653 72.076 51.8015 71.9888 51.9194C71.9016 52.0372 71.7889 52.1335 71.6592 52.2013C71.5029 52.2786 71.3312 52.32 71.1569 52.3223C70.9539 52.3306 70.751 52.303 70.5572 52.2411C70.3701 52.1852 70.1922 52.1021 70.029 51.9944C69.9998 51.9745 69.9655 51.9633 69.9303 51.9621C69.895 51.9609 69.86 51.9696 69.8294 51.9872C69.7988 52.005 69.7739 52.031 69.7571 52.0623C69.7405 52.0936 69.7329 52.129 69.7352 52.1645C69.7915 53.7488 68.3196 54.3004 67.7153 54.4628C67.5122 57.0774 68.1471 59.6889 69.5267 61.9137C69.4758 62.2357 69.3454 62.5396 69.1476 62.7978C68.1537 63.0491 67.0059 62.7764 66.5752 61.9137C66.1185 60.9944 66.1809 59.7212 66.8903 59.0654C66.3986 58.9888 66.2616 58.258 66.5432 57.829C66.5675 57.7876 66.5782 57.7631 66.563 57.7232C66.5021 57.5562 65.7791 57.4168 65.5812 57.3555C65.2988 57.2541 65.044 57.0877 64.8368 56.8695C64.6295 56.6513 64.4759 56.3876 64.3878 56.0991C63.9692 54.7094 65.0317 53.2263 66.359 52.8908C65.9648 52.189 65.4457 51.6221 65.225 50.8116C65.0043 50.0011 65.1291 49.1584 65.7441 48.5455C65.9943 48.306 66.3 48.1332 66.6333 48.0428C66.9665 47.9524 67.3171 47.9472 67.6529 48.0276C67.8488 48.1709 68.0221 48.3428 68.1674 48.5378C68.078 48.4048 68.0065 48.2605 67.9543 48.1088C68.4048 48.2627 68.7998 48.5473 69.0898 48.927C68.5707 48.1456 68.7641 47.0792 69.347 46.3897C70.0518 45.5593 71.437 45.377 72.4021 45.8029C72.4719 45.8345 72.5395 45.8709 72.6045 45.9117C72.6958 46.0266 72.7887 46.14 72.8815 46.2488C72.8919 46.2193 72.9041 46.1907 72.9181 46.163C73.1141 46.3657 73.2995 46.5783 73.4737 46.8003C74.1008 45.0046 76.5926 45 77.9093 45.9362C78.2195 46.1588 78.4734 46.4518 78.6506 46.7912C78.7174 47.0895 78.7116 47.3996 78.6339 47.6951C78.5532 47.9786 78.6171 48.1931 78.7983 48.2544C78.9345 48.2878 79.0782 48.2691 79.2016 48.2023C79.6842 47.9832 80.083 47.7151 80.6431 47.7763C82.4697 47.9709 83.8016 50.3611 82.7194 51.9209C82.6553 52.0177 82.5824 52.1086 82.5017 52.1921C82.3495 52.3453 82.007 52.5246 81.9309 52.7437C81.9288 52.749 81.9288 52.755 81.9309 52.7605C81.7939 53.2202 82.8046 53.3228 83.074 53.4408C85.4608 54.4536 84.957 59.3933 82.0451 59.5465Z" class="secondary" fill="#5F82A6"/>
<path d="M40.5512 47.0884C39.9834 45.8719 40.3989 44.1666 41.0459 42.878C41.5406 41.8775 41.1463 40.2733 39.8829 40.0941C38.5708 39.9163 37.8371 41.5818 37.4276 42.5869C36.9748 43.7008 36.7341 44.8905 36.7183 46.0941C36.6847 47.3739 36.778 48.654 36.9969 49.9153C37.0973 50.4577 37.2785 50.9771 37.4063 51.5072C37.5479 52.0864 37.3942 52.6625 37.1856 53.2049C36.3682 55.2871 35.2174 57.2361 34.3513 59.303C33.4152 61.4908 32.6641 63.7541 32.1061 66.0691C31.0315 70.6395 30.8092 75.4858 32.065 80.0441C34.4396 88.658 46.4724 85.8296 53.3633 83.4148C56.2448 82.4051 58.2343 81.4659 58.2343 81.4659C58.2343 81.4659 58.251 82.1339 58.251 83.2647C58.251 83.3168 58.251 83.3704 58.251 83.4179C58.2602 87.9639 58.079 99.3863 56.1337 106.172C56.0495 106.465 55.8726 106.722 55.63 106.904C55.3874 107.086 55.0924 107.184 54.7896 107.182C49.8912 107.162 29.2657 107.862 33.1747 121.27C34.4959 125.799 39.612 127.428 46.1482 127.485H46.1771C46.7084 127.485 47.2518 127.485 47.8028 127.47H47.8393C50.2674 127.385 52.6888 127.164 55.0925 126.809C63.6076 125.602 72.6676 123.025 78.5204 121.168C78.8578 121.078 79.2028 121.02 79.5509 120.995C79.6955 120.978 79.8553 120.965 80.0349 120.958H80.0502C81.6408 120.893 84.3412 121.168 87.5088 123.103C92.6081 126.212 97.2508 127.69 99.1261 123.371C101.001 119.052 95.8184 116.115 95.8184 116.115C91.882 113.05 86.9182 112.687 82.0807 112.897C80.5875 112.963 79.1018 113.089 77.6664 113.203C71.9217 113.664 66.176 114.124 60.4293 114.582L52.9006 115.195" stroke="black" stroke-width="0.604305" stroke-miterlimit="10"/>
<path d="M42.5982 46.2764C42.5982 46.2764 41.7778 44.6078 42.7931 41.9985C43.2117 40.926 43.6942 39.6283 43.4963 38.4531C43.4344 38.0181 43.2047 37.6251 42.857 37.3591C42.6071 37.1771 42.2958 37.1016 41.9909 37.1492C40.8127 37.3147 40.1521 38.8024 39.7533 40.0864" stroke="black" stroke-width="0.604305" stroke-miterlimit="10"/>
<path d="M44.3121 45.308C44.3121 45.308 43.5327 43.9796 44.5952 41.9372C44.7733 41.5971 45.0747 41.0532 45.3563 40.4342C46.09 38.8821 46.7658 36.8366 45.2878 36.2483C44.5434 35.9526 43.6134 36.4505 43.1263 37.0067C43.0273 37.1198 42.9348 37.2385 42.8492 37.3622" stroke="black" stroke-width="0.604305" stroke-miterlimit="10"/>
<path d="M45.3612 40.425C45.738 40.3426 46.1247 40.3168 46.5089 40.3484C47.3705 40.425 48.3645 40.7728 48.6993 41.6078C48.8805 42.0675 48.815 42.8964 48.3523 43.1553C47.7647 43.4802 47.0447 43.2656 46.4572 43.569C45.8011 43.9092 45.5439 44.8208 45.6398 45.5103C45.6583 45.7806 45.7654 46.0371 45.9442 46.2396C46.9823 47.2845 47.6947 44.401 48.089 43.926C48.6248 43.2779 49.4087 43.3943 49.9688 43.9413C50.9917 44.9373 50.6614 46.6701 50.3129 47.8867C49.8242 49.5889 48.9855 51.6114 47.5729 52.7391C47.0676 53.1405 46.2273 53.6584 46.1634 54.3755C46.1634 54.3755 43.3185 63.5915 43.4889 68.6523C43.5013 69.062 43.6002 69.4642 43.7794 69.8324C43.9584 70.2004 44.2133 70.5258 44.5272 70.7868C44.8412 71.0479 45.2069 71.2385 45.5997 71.346C45.9926 71.4534 46.4038 71.4753 46.8058 71.4102C48.3279 71.1605 49.8592 70.9261 51.3723 70.6441C52.447 70.4465 53.517 70.2519 54.5917 70.065C59.3698 69.2468 64.1403 68.6109 68.9702 68.5895C69.2035 68.5899 69.4293 68.5054 69.6055 68.3512C69.7818 68.1972 69.8967 67.9841 69.9292 67.7514L70.0205 67.0849L70.6218 63.3448" stroke="black" stroke-width="0.604305" stroke-miterlimit="10"/>
<path d="M107.48 47.8989C108.047 46.6824 107.632 44.9771 106.985 43.6885C106.486 42.688 106.884 41.0838 108.148 40.9046C108.192 40.9046 108.236 40.8969 108.277 40.8969C109.521 40.8356 110.221 42.4612 110.615 43.4296C111.074 44.5816 111.31 45.8107 111.312 47.0516C111.324 48.0978 111.247 49.1429 111.083 50.1758C110.943 51.0338 110.49 51.8857 110.556 52.7682C110.608 53.5098 111.043 54.2115 111.349 54.8795C112.669 57.7401 114.214 60.5026 115.273 63.4597C115.677 64.5672 115.993 65.705 116.218 66.8627C117.014 71.0679 116.726 75.4083 115.381 79.4695C114.648 81.6666 113.357 83.83 111.497 85.2396C111.304 85.3858 111.107 85.5237 110.905 85.6533C108.493 87.2253 105.397 87.6911 102.577 87.6298C99.581 87.5655 96.5671 86.9496 93.6917 86.1268C93.1894 85.9818 92.6891 85.8286 92.1909 85.6671C91.6672 85.5001 91.1482 85.33 90.6291 85.1523C90.0857 84.9623 89.5423 84.7708 89.0034 84.5685" stroke="black" stroke-width="0.604305" stroke-miterlimit="10"/>
<path d="M108.277 40.8967C107.878 39.6128 107.211 38.1252 106.039 37.9597C105.734 37.9119 105.423 37.9874 105.173 38.1696C104.825 38.4354 104.596 38.8284 104.534 39.2636C104.336 40.4388 104.818 41.735 105.237 42.809C106.252 45.4137 105.43 47.0884 105.43 47.0884" stroke="black" stroke-width="0.604305" stroke-miterlimit="10"/>
<path d="M105.173 38.1696C105.088 38.044 104.992 37.9276 104.896 37.8126C104.404 37.258 103.479 36.76 102.733 37.0557C101.257 37.6426 101.932 39.6896 102.666 41.2416C102.955 41.8545 103.257 42.4046 103.427 42.7447C104.493 44.7902 103.709 46.1155 103.709 46.1155" stroke="black" stroke-width="0.604305" stroke-miterlimit="10"/>
<path d="M102.666 41.2416C102.289 41.1595 101.903 41.1332 101.519 41.1635C100.657 41.2416 99.6631 41.5894 99.3282 42.4245C99.1471 42.8841 99.2125 43.713 99.6753 43.972C100.263 44.2968 100.983 44.0808 101.57 44.3857C102.226 44.7258 102.484 45.6375 102.388 46.3269C102.369 46.5972 102.262 46.8537 102.083 47.0563C101.045 48.1012 100.333 45.2176 99.9386 44.7427C99.4028 44.093 98.6189 44.211 98.0587 44.758C96.9551 45.8305 97.4346 47.9909 97.8974 49.2886C98.4012 50.7059 99.0527 52.1998 100.095 53.3029C101.831 55.1416 102.019 58.0527 102.479 60.4138C102.668 61.3913 102.849 62.375 102.994 63.3602C103.283 65.2677 103.45 67.1906 103.298 69.1181C103.259 69.6473 103.112 70.1626 102.866 70.6319C102.62 71.1012 102.281 71.5143 101.869 71.8451C101.457 72.176 100.981 72.4176 100.472 72.5548C99.9626 72.6919 99.4306 72.7216 98.9096 72.6421C92.1024 71.5926 78.928 69.4613 78.928 69.4613C78.8201 69.4426 78.7223 69.3862 78.6516 69.3022C78.5809 69.2181 78.5418 69.1118 78.5413 69.0016L78.4774 63.1503" stroke="black" stroke-width="0.604305" stroke-miterlimit="10"/>
<path d="M67.7099 54.4582C67.4314 57.472 68.471 60.8795 70.4194 63.1257C74.0544 67.3101 77.117 63.1257 77.117 63.1257" stroke="black" stroke-width="0.604305" stroke-miterlimit="10"/>
<path d="M79.983 55.3928C79.8764 55.1936 79.9388 54.8336 79.8475 54.5808C79.7295 54.2495 79.518 53.9604 79.2386 53.7488C78.6572 53.3213 77.8885 53.3474 77.275 52.9704C76.7179 52.6196 76.2778 52.1089 76.0116 51.5042C75.9264 51.3111 75.8594 51.0169 75.6965 50.8775C75.418 50.6431 75.2566 51.0552 75.0877 51.2176C74.8465 51.4438 74.5436 51.5918 74.2179 51.6427C73.8923 51.6934 73.5589 51.6447 73.261 51.5026C72.987 51.3663 72.7968 51.092 72.5106 50.9832C72.2244 50.8744 72.2062 51.354 72.1636 51.5225C72.1363 51.6667 72.0772 51.8029 71.9905 51.9209C71.9037 52.0389 71.7918 52.1357 71.6628 52.2044C71.1589 52.4541 70.4709 52.2902 70.0325 51.9945C70.0031 51.9739 69.9686 51.9624 69.933 51.9609C69.8973 51.9595 69.862 51.9682 69.831 51.9863C69.8001 52.0043 69.775 52.0306 69.7584 52.0625C69.7418 52.0943 69.7345 52.1302 69.7372 52.1661C69.8057 54.1579 67.4615 54.5149 67.4615 54.5149" stroke="black" stroke-width="0.604305" stroke-miterlimit="10"/>
<path d="M71.0169 58.8418C72.1889 58.8418 73.1389 57.8855 73.1389 56.7059C73.1389 55.5263 72.1889 54.5701 71.0169 54.5701C69.8452 54.5701 68.895 55.5263 68.895 56.7059C68.895 57.8855 69.8452 58.8418 71.0169 58.8418Z" stroke="black" stroke-width="0.604305" stroke-miterlimit="10"/>
<path d="M76.5163 58.6518C77.6882 58.6518 78.6382 57.6955 78.6382 56.5159C78.6382 55.3363 77.6882 54.3801 76.5163 54.3801C75.3444 54.3801 74.3944 55.3363 74.3944 56.5159C74.3944 57.6955 75.3444 58.6518 76.5163 58.6518Z" stroke="black" stroke-width="0.604305" stroke-miterlimit="10"/>
<path d="M70.1295 56.9204C70.1295 56.9204 70.985 57.9087 71.8648 56.9204" stroke="black" stroke-width="0.604305" stroke-miterlimit="10"/>
<path d="M75.6521 56.9204C75.6521 56.9204 76.5076 57.9087 77.3889 56.9204" stroke="black" stroke-width="0.604305" stroke-miterlimit="10"/>
<path d="M74.0218 61.6319C74.4346 61.6319 74.7692 61.2951 74.7692 60.8796C74.7692 60.464 74.4346 60.1273 74.0218 60.1273C73.609 60.1273 73.2744 60.464 73.2744 60.8796C73.2744 61.2951 73.609 61.6319 74.0218 61.6319Z" stroke="black" stroke-width="0.604305" stroke-miterlimit="10"/>
<path d="M73.1388 56.7059C73.1388 56.7059 73.6198 55.9169 74.3946 56.5159" stroke="black" stroke-width="0.604305" stroke-miterlimit="10"/>
<path d="M72.1635 53.5358C72.1635 53.5358 69.9609 51.8412 68.1145 53.4393" stroke="black" stroke-width="0.604305" stroke-miterlimit="10"/>
<path d="M78.6082 52.6472C78.6082 52.6472 75.9916 51.7279 74.7281 53.8193" stroke="black" stroke-width="0.604305" stroke-miterlimit="10"/>
<path d="M69.4567 61.8402C69.4517 62.1954 69.3357 62.5398 69.1253 62.8249C68.9149 63.1102 68.6209 63.3215 68.2846 63.4291C67.1978 63.7524 66.047 62.9311 65.5751 61.9827C65.4031 61.655 65.3246 61.2857 65.3483 60.9157C65.3719 60.5458 65.4969 60.1896 65.7091 59.8867C65.7281 59.8564 65.7408 59.8225 65.7462 59.7871C65.7517 59.7517 65.75 59.7155 65.7412 59.6809C65.7324 59.6461 65.7165 59.6137 65.6949 59.5853C65.6732 59.557 65.6459 59.5334 65.6147 59.5159C65.4034 59.388 65.2287 59.2072 65.1077 58.991C64.9865 58.7748 64.9232 58.5307 64.9236 58.2825C64.9243 58.1795 64.9354 58.0767 64.9571 57.9761C64.9641 57.9388 64.9632 57.9005 64.9547 57.8638C64.9462 57.8268 64.93 57.7922 64.9074 57.7619C64.8847 57.7315 64.8561 57.7064 64.8233 57.6879C64.7905 57.6693 64.7541 57.658 64.7166 57.6543C64.6058 57.6442 64.4959 57.6258 64.3878 57.5991C64.0851 57.491 63.8115 57.3131 63.5892 57.0794C63.3669 56.8459 63.2021 56.5631 63.1077 56.2539C62.651 54.7585 63.8003 53.162 65.2296 52.8019C64.8034 52.0481 64.2387 51.4398 64.0119 50.5649C63.7851 49.69 63.916 48.7861 64.5751 48.1334C65.6025 47.1206 67.3454 47.4362 68.1735 48.547C67.6149 47.7043 67.8234 46.5552 68.4521 45.8167C69.2131 44.925 70.6973 44.7304 71.7369 45.1839C72.2316 45.403 72.5498 45.8565 72.8877 46.2564C73.5635 44.332 76.2365 44.3198 77.6582 45.3279C78.398 45.8596 78.8759 46.8233 78.64 47.7028C78.5152 48.1487 78.745 48.4153 79.2078 48.21C79.6705 48.0047 80.0891 47.7227 80.6493 47.784C82.5885 47.9909 83.9661 50.6645 82.5078 52.1998C82.3556 52.3622 82.0131 52.5322 81.937 52.7513C81.7711 53.211 82.8016 53.3305 83.0756 53.4485C85.4837 54.4658 84.9555 59.4577 82.0101 59.5588C82.0984 59.9832 82.2993 60.4536 82.2673 60.8918C82.2034 61.8188 81.5504 62.3213 80.6645 62.3504C80.6863 62.5625 80.6438 62.7762 80.5427 62.9635C80.4416 63.1507 80.2868 63.303 80.0982 63.4C79.6233 63.6543 78.8455 63.5946 78.4878 63.1518C77.9154 62.4562 78.503 61.5445 78.7922 60.8795C79.2184 59.9066 79.4285 58.8571 79.6218 57.8152C79.7988 56.952 79.9127 56.0768 79.9628 55.1967V55.1599" stroke="black" stroke-width="0.604305" stroke-miterlimit="10"/>
<path d="M7.61096 126.362H38.5462" stroke="black" stroke-width="0.604305" stroke-miterlimit="10"/>
<path d="M116.389 126.362H144.607" stroke="black" stroke-width="0.604305" stroke-miterlimit="10"/>
</svg>
