<svg width="279" height="24" viewBox="0 0 279 24" fill="none" xmlns="http://www.w3.org/2000/svg">
<path d="M4 12H20" stroke="#145281" stroke-width="1.5" stroke-linecap="round" stroke-linejoin="round"/>
<path d="M10 6L4 12L10 18" stroke="#145281" stroke-width="1.5" stroke-linecap="round" stroke-linejoin="round"/>
<path d="M40.352 7.624L37.28 16H35.24L32.168 7.624H33.968L36.272 14.284L38.564 7.624H40.352ZM44.3113 16.108C43.6713 16.108 43.0953 15.968 42.5833 15.688C42.0713 15.4 41.6673 14.996 41.3713 14.476C41.0833 13.956 40.9393 13.356 40.9393 12.676C40.9393 11.996 41.0873 11.396 41.3833 10.876C41.6873 10.356 42.0993 9.956 42.6193 9.676C43.1393 9.388 43.7193 9.244 44.3593 9.244C44.9993 9.244 45.5793 9.388 46.0993 9.676C46.6193 9.956 47.0273 10.356 47.3233 10.876C47.6273 11.396 47.7793 11.996 47.7793 12.676C47.7793 13.356 47.6233 13.956 47.3112 14.476C47.0073 14.996 46.5913 15.4 46.0633 15.688C45.5433 15.968 44.9593 16.108 44.3113 16.108ZM44.3113 14.644C44.6153 14.644 44.8993 14.572 45.1633 14.428C45.4353 14.276 45.6513 14.052 45.8113 13.756C45.9713 13.46 46.0513 13.1 46.0513 12.676C46.0513 12.044 45.8833 11.56 45.5473 11.224C45.2193 10.88 44.8153 10.708 44.3353 10.708C43.8553 10.708 43.4513 10.88 43.1233 11.224C42.8033 11.56 42.6433 12.044 42.6433 12.676C42.6433 13.308 42.7993 13.796 43.1113 14.14C43.4313 14.476 43.8313 14.644 44.3113 14.644ZM50.6916 7.12V16H49.0116V7.12H50.6916ZM54.3074 10.732V13.948C54.3074 14.172 54.3594 14.336 54.4634 14.44C54.5754 14.536 54.7594 14.584 55.0154 14.584H55.7954V16H54.7394C53.3234 16 52.6154 15.312 52.6154 13.936V10.732H51.8234V9.352H52.6154V7.708H54.3074V9.352H55.7954V10.732H54.3074ZM56.5718 12.652C56.5718 11.98 56.7038 11.384 56.9678 10.864C57.2398 10.344 57.6038 9.944 58.0598 9.664C58.5238 9.384 59.0398 9.244 59.6078 9.244C60.1038 9.244 60.5358 9.344 60.9038 9.544C61.2798 9.744 61.5798 9.996 61.8038 10.3V9.352H63.4958V16H61.8038V15.028C61.5878 15.34 61.2878 15.6 60.9038 15.808C60.5278 16.008 60.0918 16.108 59.5958 16.108C59.0358 16.108 58.5238 15.964 58.0598 15.676C57.6038 15.388 57.2398 14.984 56.9678 14.464C56.7038 13.936 56.5718 13.332 56.5718 12.652ZM61.8038 12.676C61.8038 12.268 61.7238 11.92 61.5638 11.632C61.4038 11.336 61.1878 11.112 60.9158 10.96C60.6438 10.8 60.3518 10.72 60.0398 10.72C59.7278 10.72 59.4398 10.796 59.1758 10.948C58.9118 11.1 58.6958 11.324 58.5278 11.62C58.3678 11.908 58.2878 12.252 58.2878 12.652C58.2878 13.052 58.3678 13.404 58.5278 13.708C58.6958 14.004 58.9118 14.232 59.1758 14.392C59.4478 14.552 59.7358 14.632 60.0398 14.632C60.3518 14.632 60.6438 14.556 60.9158 14.404C61.1878 14.244 61.4038 14.02 61.5638 13.732C61.7238 13.436 61.8038 13.084 61.8038 12.676ZM66.8166 10.384C67.0326 10.032 67.3126 9.756 67.6566 9.556C68.0086 9.356 68.4086 9.256 68.8566 9.256V11.02H68.4126C67.8846 11.02 67.4846 11.144 67.2126 11.392C66.9486 11.64 66.8166 12.072 66.8166 12.688V16H65.1366V9.352H66.8166V10.384Z" fill="#145281"/>
</svg>
