<svg width="18" height="19" viewBox="0 0 18 19" fill="none" xmlns="http://www.w3.org/2000/svg">
<path fill-rule="evenodd" clip-rule="evenodd" d="M3.81 8.72H2C1.73478 8.72 1.48043 8.61464 1.29289 8.42711C1.10536 8.23957 1 7.98522 1 7.72V2C1 1.73478 1.10536 1.48043 1.29289 1.29289C1.48043 1.10536 1.73478 1 2 1H16C16.2652 1 16.5196 1.10536 16.7071 1.29289C16.8946 1.48043 17 1.73478 17 2V7.72C17 7.98522 16.8946 8.23957 16.7071 8.42711C16.5196 8.61464 16.2652 8.72 16 8.72H14.41V9.72H16C16.5304 9.72 17.0391 9.50929 17.4142 9.13421C17.7893 8.75914 18 8.25043 18 7.72V2C18 1.46957 17.7893 0.960859 17.4142 0.585787C17.0391 0.210714 16.5304 0 16 0H2C1.46957 0 0.960859 0.210714 0.585786 0.585787C0.210714 0.960859 0 1.46957 0 2V7.72C0 8.25043 0.210714 8.75914 0.585786 9.13421C0.960859 9.50929 1.46957 9.72 2 9.72H3.81V12.94C3.81 13.3855 3.987 13.8128 4.30206 14.1279C4.61712 14.443 5.04443 14.62 5.49 14.62H12.49C12.7123 14.6226 12.9329 14.5811 13.139 14.4979C13.3452 14.4146 13.5328 14.2913 13.6909 14.135C13.849 13.9788 13.9746 13.7927 14.0602 13.5875C14.1459 13.3824 14.19 13.1623 14.19 12.94V6.45996H13.19V12.94C13.19 13.03 13.1722 13.1191 13.1375 13.2021C13.1028 13.2852 13.052 13.3605 12.988 13.4237C12.924 13.487 12.8481 13.5369 12.7646 13.5706C12.6812 13.6043 12.5919 13.6211 12.5019 13.62L5.49 13.62C5.30965 13.62 5.13669 13.5483 5.00916 13.4208C4.88164 13.2933 4.81 13.1203 4.81 12.94V6.45996H3.81V8.72ZM9.49606 6.81682C9.54045 6.8309 9.58433 6.84691 9.62759 6.86483C9.92726 6.98896 10.1834 7.19916 10.3636 7.46886C10.5438 7.73855 10.64 8.05563 10.64 8.37999H9.63999C9.63999 8.25341 9.60245 8.12967 9.53213 8.02443C9.4618 7.91918 9.36185 7.83715 9.2449 7.78871C9.12796 7.74027 8.99928 7.72759 8.87513 7.75229C8.75098 7.77698 8.63694 7.83794 8.54744 7.92744C8.45793 8.01695 8.39698 8.13099 8.37228 8.25513C8.34759 8.37928 8.36026 8.50796 8.4087 8.62491C8.45714 8.74185 8.53917 8.84181 8.64442 8.91213C8.74846 8.98165 8.87057 9.01913 8.99564 9.01998V9.01996C9.32257 9.01712 9.64298 9.11147 9.9162 9.29103C10.1894 9.4706 10.4031 9.72729 10.5302 10.0285C10.6573 10.3298 10.692 10.662 10.63 10.983C10.568 11.304 10.412 11.5993 10.1818 11.8315C9.98983 12.0252 9.7535 12.1676 9.49443 12.2472L9.49993 12.7646L8.49999 12.7752L8.49427 12.2372C8.45642 12.2248 8.41894 12.2109 8.38192 12.1957C8.07958 12.0712 7.82104 11.8598 7.63909 11.5881C7.45714 11.3165 7.36 10.9969 7.35999 10.67L8.35999 10.6699C8.35999 10.7987 8.39826 10.9246 8.46994 11.0316C8.54161 11.1386 8.64346 11.2219 8.76256 11.271C8.88167 11.32 9.01265 11.3325 9.13889 11.307C9.26513 11.2814 9.38093 11.219 9.47161 11.1275C9.56228 11.036 9.62374 10.9197 9.64818 10.7932C9.67262 10.6668 9.65893 10.5359 9.60887 10.4172C9.55881 10.2986 9.47461 10.1974 9.36698 10.1267C9.25935 10.056 9.13313 10.0188 9.00433 10.0199L8.99999 9.52005V10.02C8.67563 10.02 8.35855 9.92381 8.08885 9.7436C7.81915 9.5634 7.60895 9.30726 7.48482 9.00759C7.3607 8.70792 7.32822 8.37817 7.3915 8.06004C7.45478 7.74191 7.61097 7.44969 7.84033 7.22034C8.02468 7.03599 8.24964 6.8989 8.49602 6.81934L8.49005 6.30569L9.48998 6.29407L9.49606 6.81682ZM2.5 3.90991H15.5V4.90991H2.5V3.90991ZM8.9888 17.1431L6.9689 15.2936L6.29358 16.0311L8.32764 17.8936L8.33308 17.8983C8.51838 18.0584 8.75511 18.1466 9 18.1466C9.2449 18.1466 9.48162 18.0584 9.66693 17.8983L9.67236 17.8936L11.7064 16.0311L11.0311 15.2936L9.01121 17.1431C9.00792 17.1453 9.00402 17.1466 9 17.1466C8.99599 17.1466 8.99209 17.1453 8.9888 17.1431Z" fill="#333750"/>
</svg>
