<svg width="12" height="6" viewBox="0 0 12 6" fill="none" xmlns="http://www.w3.org/2000/svg">
<path d="M6.62972 5.10327C6.22676 5.43894 5.57673 5.43894 5.17377 5.10327L1.06183 1.67551C0.658884 1.33984 0.658884 0.798361 1.06183 0.462695C1.46477 0.127021 2.11483 0.127021 2.51777 0.462695L6.63266 3.89044C7.03268 4.22612 7.03268 4.7676 6.62972 5.10327Z" fill="white"/>
<path d="M5.17304 5.10417C4.77008 4.76849 4.77008 4.22702 5.17304 3.89134L9.28791 0.466038C9.69087 0.130372 10.3409 0.130372 10.7438 0.466038C11.1468 0.801712 11.1468 1.34319 10.7438 1.67886L6.62897 5.10417C6.22602 5.43984 5.57599 5.43984 5.17304 5.10417Z" fill="white"/>
</svg>
