<svg width="20" height="26" viewBox="0 0 20 26" fill="none" xmlns="http://www.w3.org/2000/svg">
<g clip-path="url(#clip0_909_62)">
<path class="secondary" d="M0.916991 22.679L0.916992 3.47729C0.916992 1.87964 2.22123 0.578124 3.82223 0.578124L13.7 0.578125C15.3035 0.578125 16.6053 1.87964 16.6053 3.47729L16.6053 9.05662L17.6926 9.05662C18.9195 9.05662 19.917 10.0545 19.917 11.2789L19.917 14.8798C19.917 16.1042 18.9195 17.0996 17.6926 17.0996L16.6078 17.0996L16.6078 22.679C16.6078 24.2791 15.3035 25.5781 13.7025 25.5781L3.82472 25.5781C2.22123 25.5781 0.916991 24.2766 0.916991 22.679ZM15.8571 3.47729C15.8571 2.29025 14.8896 1.32469 13.7 1.32469L3.82223 1.32469C2.6327 1.32469 1.66512 2.29025 1.66512 3.47729L1.66512 22.6765C1.66512 23.8635 2.6327 24.8291 3.82223 24.8291L13.7 24.8291C14.8896 24.8291 15.8571 23.8635 15.8571 22.6765L15.8571 16.3531L17.6926 16.3531C18.508 16.3531 19.1689 15.6911 19.1689 14.8798L19.1689 11.2789C19.1689 10.4651 18.5055 9.80319 17.6926 9.80319L15.8596 9.80319L15.8596 3.47729L15.8571 3.47729Z" fill="#5F82A6"/>
<path class="secondary" d="M4.48115 13.0793C4.48115 10.5733 6.52354 8.53516 9.03476 8.53516C11.546 8.53516 13.5884 10.5733 13.5884 13.0793C13.5884 15.5852 11.546 17.6234 9.03476 17.6234C6.52354 17.6234 4.48115 15.5852 4.48115 13.0793ZM12.8378 13.0793C12.8378 10.9864 11.132 9.28172 9.03227 9.28172C6.93501 9.28172 5.22678 10.9839 5.22678 13.0793C5.22678 15.1746 6.93252 16.8768 9.03227 16.8768C11.132 16.8768 12.8378 15.1721 12.8378 13.0793Z" fill="white"/>
</g>
<defs>
<clipPath id="clip0_909_62">
<rect width="25" height="19" fill="white" transform="translate(19.917 0.578125) rotate(90)"/>
</clipPath>
</defs>
</svg>
