<svg width="52" height="50" viewBox="0 0 52 50" fill="none" xmlns="http://www.w3.org/2000/svg">
<g clip-path="url(#clip0)">
<path class="secondary" d="M18.5686 26.1173H6.3627C5.94424 26.1173 5.60645 25.7801 5.60645 25.3624C5.60645 24.9446 5.94424 24.6074 6.3627 24.6074H18.5686C18.9871 24.6074 19.3249 24.9446 19.3249 25.3624C19.3249 25.7801 18.9871 26.1173 18.5686 26.1173Z" fill="#5F82A6"/>
<path class="secondary" d="M25.3395 42.6555C25.148 42.6555 24.9513 42.58 24.8051 42.4341C24.5077 42.1371 24.5077 41.659 24.8051 41.3671L39.0076 27.1895C39.305 26.8926 39.784 26.8926 40.0764 27.1895C40.3688 27.4864 40.3739 27.9646 40.0764 28.2565L25.874 42.4341C25.7278 42.58 25.5311 42.6555 25.3395 42.6555Z" fill="#5F82A6"/>
<path class="secondary" d="M39.542 42.6556C39.3504 42.6556 39.1538 42.5801 39.0076 42.4341L24.8051 28.2565C24.5077 27.9596 24.5077 27.4815 24.8051 27.1896C25.1026 26.8977 25.5815 26.8926 25.874 27.1896L40.0764 41.3672C40.3739 41.6641 40.3739 42.1422 40.0764 42.4341C39.9302 42.5801 39.7386 42.6556 39.542 42.6556Z" fill="#5F82A6"/>
<path class="secondary" d="M9.90215 17.4044H5.33438C4.91592 17.4044 4.57812 17.0672 4.57812 16.6495C4.57812 16.2317 4.91592 15.8945 5.33438 15.8945H9.90215C10.3206 15.8945 10.6584 16.2317 10.6584 16.6495C10.6584 17.0672 10.3206 17.4044 9.90215 17.4044Z" fill="#5F82A6"/>
<path class="secondary" d="M10.0326 19.651C9.61416 19.651 9.27637 19.3138 9.27637 18.8961V12.001C9.27637 11.5833 9.61416 11.2461 10.0326 11.2461C10.4511 11.2461 10.7889 11.5833 10.7889 12.001V18.8961C10.7889 19.3138 10.4511 19.651 10.0326 19.651Z" fill="#5F82A6"/>
<path class="secondary" d="M14.2375 15.045H7.67325C7.25479 15.045 6.91699 14.7078 6.91699 14.2901C6.91699 13.8724 7.25479 13.5352 7.67325 13.5352H14.2375C14.656 13.5352 14.9938 13.8724 14.9938 14.2901C14.9938 14.7078 14.656 15.045 14.2375 15.045Z" fill="#5F82A6"/>
<path class="secondary" d="M45.5517 33.9981C45.1332 33.9981 44.7954 33.6609 44.7954 33.2432C44.7954 32.8254 45.1332 32.4882 45.5517 32.4882C48.2742 32.4882 50.4875 30.2788 50.4875 27.5611V6.99173C50.4875 4.27398 48.2742 2.06455 45.5517 2.06455H6.44832C3.72581 2.06455 1.51251 4.27398 1.51251 6.99173V27.5611C1.51251 30.2788 3.72581 32.4882 6.44832 32.4882H18.3013C18.7198 32.4882 19.0576 32.8254 19.0576 33.2432C19.0576 33.6609 18.7198 33.9981 18.3013 33.9981H6.44832C2.89393 33.9981 0 31.1092 0 27.5611V6.99173C0 3.44355 2.89393 0.554688 6.44832 0.554688H45.5517C49.1061 0.554688 52 3.44355 52 6.99173V27.5611C52 31.1092 49.1111 33.9981 45.5517 33.9981Z" fill="#5F82A6"/>
<path class="secondary" d="M40.0409 49.5558H23.9932C20.4389 49.5558 17.5449 46.6669 17.5449 43.1188V27.0991C17.5449 23.551 20.4389 20.6621 23.9932 20.6621H40.046C43.6004 20.6621 46.4943 23.551 46.4943 27.0991V43.1238C46.4893 46.672 43.5953 49.5558 40.0409 49.5558ZM23.9932 22.172C21.2707 22.172 19.0574 24.3814 19.0574 27.0991V43.1238C19.0574 45.8416 21.2707 48.051 23.9932 48.051H40.046C42.7685 48.051 44.9818 45.8416 44.9818 43.1238V27.0991C44.9818 24.3814 42.7685 22.172 40.046 22.172H23.9932Z" fill="#333750"/>
<path class="secondary" d="M12.781 20.0264H7.28551C5.79317 20.0264 4.57812 18.8135 4.57812 17.3238V13.4585C4.57812 11.9688 5.79317 10.7559 7.28551 10.7559H12.781C14.2733 10.7559 15.4883 11.9688 15.4883 13.4585V17.3238C15.4883 18.8135 14.2733 20.0264 12.781 20.0264ZM7.28551 12.2657C6.62505 12.2657 6.09063 12.7992 6.09063 13.4585V17.3238C6.09063 17.9831 6.62505 18.5165 7.28551 18.5165H12.781C13.4414 18.5165 13.9758 17.9831 13.9758 17.3238V13.4585C13.9758 12.7992 13.4414 12.2657 12.781 12.2657H7.28551Z" fill="#5F82A6"/>
</g>
<defs>
<clipPath id="clip0">
<rect width="52" height="49" fill="white" transform="translate(0 0.554688)"/>
</clipPath>
</defs>
</svg>