<svg width="35" height="30" viewBox="0 0 35 30" fill="none" xmlns="http://www.w3.org/2000/svg">
<path d="M0 3.78015C0 2.34113 1.07136 1.17053 2.38838 1.17053H8.44804C9.76507 1.17053 10.8364 2.34113 10.8364 3.78015C10.8364 5.21916 9.76507 6.38976 8.44804 6.38976H2.38838C1.07136 6.38976 0 5.21916 0 3.78015Z" fill="white"/>
<path d="M16.7256 3.78015C16.7256 2.34113 17.7969 1.17053 19.114 1.17053H32.6117C33.9287 1.17053 35.0001 2.34113 35.0001 3.78015C35.0001 5.21916 33.9287 6.38976 32.6117 6.38976H19.114C17.7969 6.38976 16.7256 5.21916 16.7256 3.78015Z" fill="white"/>
<path class="secondary" d="M10.8365 7.56043C12.7472 7.56043 14.2962 5.86797 14.2962 3.78021C14.2962 1.69246 12.7472 0 10.8365 0C8.92569 0 7.37671 1.69246 7.37671 3.78021C7.37671 5.86797 8.92569 7.56043 10.8365 7.56043Z" fill="#333750"/>
<path d="M35 14.2185C35 15.6575 33.9286 16.8281 32.6116 16.8281H26.5451C25.2281 16.8281 24.1567 15.6575 24.1567 14.2185C24.1567 12.7795 25.2281 11.6089 26.5451 11.6089H32.6048C33.9286 11.6089 35 12.7795 35 14.2185Z" fill="white"/>
<path d="M18.2745 14.2185C18.2745 15.6575 17.2032 16.8281 15.8861 16.8281H2.38838C1.07136 16.8281 0 15.6575 0 14.2185C0 12.7795 1.07136 11.6089 2.38838 11.6089H15.8861C17.2032 11.6089 18.2745 12.7795 18.2745 14.2185Z" fill="white"/>
<path class="secondary" d="M24.1568 17.9988C26.0675 17.9988 27.6165 16.3063 27.6165 14.2186C27.6165 12.1308 26.0675 10.4384 24.1568 10.4384C22.246 10.4384 20.697 12.1308 20.697 14.2186C20.697 16.3063 22.246 17.9988 24.1568 17.9988Z" fill="#333750"/>
<path d="M0 25.8354C0 24.3964 1.07136 23.2258 2.38838 23.2258H8.44804C9.76507 23.2258 10.8364 24.3964 10.8364 25.8354C10.8364 27.2745 9.76507 28.4451 8.44804 28.4451H2.38838C1.07136 28.4451 0 27.2745 0 25.8354Z" fill="white"/>
<path d="M16.7256 25.8354C16.7256 24.3964 17.7969 23.2258 19.114 23.2258H32.6117C33.9287 23.2258 35.0001 24.3964 35.0001 25.8354C35.0001 27.2745 33.9287 28.4451 32.6117 28.4451H19.114C17.7969 28.4451 16.7256 27.2745 16.7256 25.8354Z" fill="white"/>
<path class="secondary" d="M10.8365 29.6153C12.7472 29.6153 14.2962 27.9228 14.2962 25.8351C14.2962 23.7473 12.7472 22.0548 10.8365 22.0548C8.92569 22.0548 7.37671 23.7473 7.37671 25.8351C7.37671 27.9228 8.92569 29.6153 10.8365 29.6153Z" fill="#333750"/>
</svg>
