<svg width="18" height="18" viewBox="0 0 18 18" fill="none" xmlns="http://www.w3.org/2000/svg">
<path class="secondary" d="M13.926 0H4.07401C1.824 0 0 1.83156 0 4.09091V13.9091C0 16.1684 1.824 18 4.07401 18H13.926C16.176 18 18 16.1684 18 13.9091V4.09091C18 1.83156 16.176 0 13.926 0Z" fill="#5F82A6"/>
<path d="M7.12951 8.67207C6.41332 8.67239 5.71313 8.45937 5.11756 8.05995C4.52198 7.66054 4.05778 7.0927 3.78371 6.42828C3.50963 5.76386 3.438 5.03274 3.57788 4.32743C3.71776 3.62212 4.06286 2.97433 4.56951 2.46603C5.07616 1.95774 5.72158 1.61178 6.4241 1.47196C7.12662 1.33213 7.85466 1.40471 8.51609 1.68051C9.17752 1.95632 9.7426 2.42295 10.1398 3.02135C10.5371 3.61976 10.7486 4.32304 10.7476 5.0422C10.7455 6.0048 10.3635 6.92732 9.68534 7.60768C9.00718 8.28804 8.08814 8.67078 7.12951 8.67207ZM7.12951 2.70291C6.66946 2.70259 6.21965 2.83925 5.83693 3.09559C5.45422 3.35194 5.15579 3.71648 4.97937 4.14312C4.80295 4.56975 4.75646 5.03934 4.84578 5.4925C4.9351 5.94567 5.15621 6.36207 5.48118 6.68906C5.80614 7.01605 6.22036 7.23895 6.67146 7.32959C7.12257 7.42022 7.59031 7.37452 8.01555 7.19826C8.44079 7.02199 8.80444 6.72308 9.06053 6.33932C9.31662 5.95555 9.45364 5.50415 9.45428 5.0422C9.45342 4.42319 9.20827 3.82975 8.77252 3.39189C8.33678 2.95403 7.74596 2.70745 7.12951 2.70616V2.70291Z" fill="white"/>
<path d="M12.2738 13.8263C12.1023 13.8263 11.9378 13.7579 11.8165 13.6362C11.6952 13.5144 11.6271 13.3492 11.6271 13.177C11.6271 11.9792 11.1532 10.8305 10.3098 9.98354C9.46632 9.13658 8.32235 8.66076 7.12952 8.66076C5.93669 8.66076 4.79271 9.13658 3.94925 9.98354C3.10579 10.8305 2.63194 11.9792 2.63194 13.177C2.63194 13.3492 2.56381 13.5144 2.44254 13.6362C2.32126 13.7579 2.15678 13.8263 1.98528 13.8263C1.81377 13.8263 1.64929 13.7579 1.52801 13.6362C1.40674 13.5144 1.33861 13.3492 1.33861 13.177C1.33861 11.6348 1.94872 10.1557 3.03473 9.06521C4.12073 7.9747 5.59367 7.36206 7.12952 7.36206C8.66536 7.36206 10.1383 7.9747 11.2243 9.06521C12.3103 10.1557 12.9204 11.6348 12.9204 13.177C12.9204 13.3492 12.8523 13.5144 12.731 13.6362C12.6098 13.7579 12.4453 13.8263 12.2738 13.8263Z" fill="white"/>
<path d="M13.1241 15.2824C14.3206 15.2824 15.2905 14.3085 15.2905 13.1071C15.2905 11.9057 14.3206 10.9318 13.1241 10.9318C11.9277 10.9318 10.9578 11.9057 10.9578 13.1071C10.9578 14.3085 11.9277 15.2824 13.1241 15.2824Z" fill="#333750"/>
<path d="M13.1306 16.5795C12.8584 16.5792 12.5871 16.547 12.3223 16.4838C11.6571 16.3253 11.0538 15.9723 10.5884 15.4695C10.1231 14.9666 9.81666 14.3365 9.70792 13.6589C9.59918 12.9812 9.693 12.2863 9.97752 11.6622C10.262 11.038 10.7245 10.5126 11.3064 10.1524C11.8882 9.79214 12.5634 9.61324 13.2466 9.6383C13.9297 9.66337 14.5901 9.89127 15.1442 10.2932C15.6984 10.6951 16.1214 11.253 16.3598 11.8964C16.5982 12.5397 16.6413 13.2395 16.4836 13.9075C16.3042 14.6666 15.8756 15.343 15.2668 15.8277C14.6579 16.3124 13.9043 16.5773 13.1274 16.5795H13.1306ZM13.1306 10.9351C12.7241 10.9345 12.3256 11.049 11.981 11.2654C11.6363 11.4817 11.3593 11.7913 11.1817 12.1585C11.0042 12.5257 10.9333 12.9357 10.9771 13.3415C11.021 13.7473 11.1779 14.1325 11.4297 14.4529C11.6816 14.7733 12.0182 15.0159 12.4011 15.153C12.784 15.2901 13.1976 15.3161 13.5946 15.228C13.9915 15.1399 14.3556 14.9412 14.6453 14.6549C14.9349 14.3685 15.1384 14.0059 15.2323 13.6088C15.3638 13.0478 15.2683 12.4573 14.9667 11.967C14.6651 11.4766 14.1821 11.1265 13.6237 10.9935C13.4601 10.9542 13.2924 10.9345 13.1241 10.9351H13.1306Z" fill="white"/>
<path d="M7.93947 16.3019C7.79894 16.3016 7.66232 16.2554 7.55028 16.1702C7.43824 16.0851 7.35688 15.9656 7.31852 15.8298C7.28015 15.6941 7.28687 15.5495 7.33765 15.4179C7.38844 15.2863 7.48052 15.1749 7.59997 15.1006L10.1462 13.5243C10.2922 13.4339 10.468 13.4054 10.6349 13.4451C10.8018 13.4849 10.9462 13.5895 11.0362 13.7361C11.1262 13.8827 11.1546 14.0593 11.115 14.2268C11.0755 14.3944 10.9712 14.5394 10.8252 14.6298L8.27897 16.2061C8.17683 16.269 8.05929 16.3022 7.93947 16.3019Z" fill="white"/>
</svg>
