<svg width="25" height="33" viewBox="0 0 25 33" fill="none" xmlns="http://www.w3.org/2000/svg">
  <path d="M11 25.0014C17.0751 25.0014 22 19.9424 22 13.7019C22 7.46132 17.0751 2.40234 11 2.40234C4.92487 2.40234 0 7.46132 0 13.7019C0 19.9424 4.92487 25.0014 11 25.0014Z" fill="#F6F6F6"/>
  <path d="M10.9943 8.69293C10.5441 8.69293 10.1807 8.31962 10.1807 7.85716V5.81233C10.1807 5.34987 10.5441 4.97656 10.9943 4.97656C11.4445 4.97656 11.8079 5.34987 11.8079 5.81233V7.85716C11.8079 8.31962 11.4445 8.69293 10.9943 8.69293Z" fill="#5F82A6"/>
  <path d="M10.9943 22.9117C10.5441 22.9117 10.1807 22.5384 10.1807 22.0759V20.0311C10.1807 19.5686 10.5441 19.1953 10.9943 19.1953C11.4445 19.1953 11.8079 19.5686 11.8079 20.0311V22.0759C11.8079 22.5384 11.4445 22.9117 10.9943 22.9117Z" fill="#5F82A6"/>
  <path d="M10.9946 14.5358C8.70567 14.5358 6.84521 12.8476 6.84521 10.7805C6.84521 8.70778 8.70567 7.01953 10.9946 7.01953C13.2836 7.01953 15.144 8.70778 15.144 10.7805C15.144 11.2429 14.7806 11.6162 14.3304 11.6162C13.8802 11.6162 13.5168 11.2429 13.5168 10.7805C13.5168 9.62712 12.3886 8.69106 10.9946 8.69106C9.60064 8.69106 8.47243 9.62712 8.47243 10.7805C8.47243 11.9283 9.60064 12.8643 10.9946 12.8643C11.4448 12.8643 11.8082 13.2376 11.8082 13.7001C11.8082 14.1625 11.4448 14.5358 10.9946 14.5358Z" fill="#333750"/>
  <path d="M10.9946 20.3796C8.70567 20.3796 6.84521 18.6913 6.84521 16.6242C6.84521 16.1618 7.20863 15.7885 7.65882 15.7885C8.10902 15.7885 8.47243 16.1618 8.47243 16.6242C8.47243 17.772 9.60064 18.7081 10.9946 18.7081C12.3886 18.7081 13.5168 17.772 13.5168 16.6242C13.5168 15.4709 12.3886 14.5348 10.9946 14.5348C10.5444 14.5348 10.181 14.1615 10.181 13.699C10.181 13.2366 10.5444 12.8633 10.9946 12.8633C13.2836 12.8633 15.144 14.5515 15.144 16.6242C15.144 18.6913 13.2836 20.3796 10.9946 20.3796Z" fill="#333750"/>
  <path fill-rule="evenodd" clip-rule="evenodd" d="M3.13477 28.9952L3.13477 29.4754C3.13477 31.1983 4.56175 32.5989 6.31703 32.5989L21.5411 32.5989C23.2964 32.5989 24.7234 31.1983 24.7234 29.4755L24.7234 6.25389C24.719 4.53537 23.292 3.13477 21.5368 3.13477L20.3751 3.13477V4.42366L21.5411 4.42366C22.5698 4.42366 23.4102 5.24426 23.4102 6.25819L23.4102 29.4755C23.4102 30.4851 22.5742 31.31 21.5411 31.31L6.31703 31.31C5.28837 31.31 4.44794 30.4894 4.44794 29.4754L4.44794 28.9952H3.13477Z" fill="#323751"/>
  <path d="M3.1864 29.4641H18.4061C20.1614 29.4641 21.5884 28.0635 21.5884 26.3407V23.9863C21.5884 23.6297 21.2951 23.3419 20.9318 23.3419C20.5685 23.3419 20.2752 23.6297 20.2752 23.9863V26.3407C20.2752 27.3503 19.4391 28.1752 18.4061 28.1752H3.18202C2.15337 28.1752 1.31293 27.3546 1.31293 26.3407V3.12342C1.31293 2.11379 2.14899 1.28889 3.18202 1.28889H18.4061C19.4348 1.28889 20.2752 2.10949 20.2752 3.12342L20.2752 25.2159C20.2752 25.5725 20.5685 25.8604 20.9318 25.8604C21.2951 25.8604 21.5884 25.5725 21.5884 25.2159L21.5884 3.12342C21.5884 1.4006 20.1614 0 18.4061 0H3.18202C1.42674 0 -0.000242233 1.4006 -0.000242233 3.12342V26.345C0.00413513 28.0635 1.43112 29.4641 3.1864 29.4641Z" fill="#5F82A6"/>
</svg>