<svg width="50" height="50" viewBox="0 0 50 50" fill="none" xmlns="http://www.w3.org/2000/svg">
<path class="secondary" d="M38.6833 0H11.3167C5.06665 0 0 5.08767 0 11.3636V38.6364C0 44.9123 5.06665 50 11.3167 50H38.6833C44.9333 50 50 44.9123 50 38.6364V11.3636C50 5.08767 44.9333 0 38.6833 0Z" fill="#5F82A6"/>
<path class="primary" d="M42.1278 12.1304H7.87687C7.40046 12.1304 6.94356 11.9404 6.60669 11.6021C6.26982 11.2638 6.08057 10.805 6.08057 10.3266C6.08057 9.84826 6.26982 9.38946 6.60669 9.0512C6.94356 8.71293 7.40046 8.52289 7.87687 8.52289H42.1278C42.6042 8.52289 43.0611 8.71293 43.398 9.0512C43.7349 9.38946 43.9241 9.84826 43.9241 10.3266C43.9241 10.805 43.7349 11.2638 43.398 11.6021C43.0611 11.9404 42.6042 12.1304 42.1278 12.1304Z" fill="#333750"/>
<path d="M42.1278 29.6492H7.87687C7.40046 29.6492 6.94356 29.4592 6.60669 29.1209C6.26982 28.7826 6.08057 28.3239 6.08057 27.8455C6.08057 27.3671 6.26982 26.9083 6.60669 26.57C6.94356 26.2318 7.40046 26.0417 7.87687 26.0417H42.1278C42.6042 26.0417 43.0611 26.2318 43.398 26.57C43.7349 26.9083 43.9241 27.3671 43.9241 27.8455C43.9241 28.3239 43.7349 28.7826 43.398 29.1209C43.0611 29.4592 42.6042 29.6492 42.1278 29.6492Z" fill="white"/>
<path d="M23.5092 20.8876H7.84098C7.36457 20.8876 6.90767 20.6976 6.5708 20.3593C6.23393 20.021 6.04468 19.5622 6.04468 19.0838C6.04468 18.6055 6.23393 18.1467 6.5708 17.8084C6.90767 17.4701 7.36457 17.2801 7.84098 17.2801H23.5092C23.9856 17.2801 24.4425 17.4701 24.7794 17.8084C25.1162 18.1467 25.3055 18.6055 25.3055 19.0838C25.3055 19.5622 25.1162 20.021 24.7794 20.3593C24.4425 20.6976 23.9856 20.8876 23.5092 20.8876Z" fill="white"/>
<path d="M41.9259 38.4064H26.2621C25.7857 38.4064 25.3288 38.2164 24.9919 37.8781C24.6551 37.5398 24.4658 37.0811 24.4658 36.6027C24.4658 36.1243 24.6551 35.6655 24.9919 35.3272C25.3288 34.989 25.7857 34.7989 26.2621 34.7989H41.9259C42.4023 34.7989 42.8592 34.989 43.196 35.3272C43.5329 35.6655 43.7222 36.1243 43.7222 36.6027C43.7222 37.0811 43.5329 37.5398 43.196 37.8781C42.8592 38.2164 42.4023 38.4064 41.9259 38.4064Z" fill="white"/>
</svg>
