<svg width="9" height="8" viewBox="0 0 9 8" fill="none" xmlns="http://www.w3.org/2000/svg">
<path fill-rule="evenodd" clip-rule="evenodd" d="M6.91081 4.37127C6.73254 6.19053 5.25758 7.60992 3.46444 7.60992C1.55108 7.60992 0 5.99382 0 4.00027C0 2.00672 1.55108 0.390625 3.46444 0.390625C4.6038 0.390625 5.61469 0.963669 6.24611 1.84823L4.10757 3.9098L3.48598 3.26215C3.0543 2.81238 2.35295 2.81087 1.91948 3.25879C1.48601 3.7067 1.48456 4.43442 1.91624 4.8842L3.3227 6.34961C3.53056 6.56618 3.813 6.68792 4.10757 6.68792C4.40214 6.68792 4.68458 6.56618 4.89244 6.34961L6.91081 4.37127ZM6.91081 4.37127C6.92277 4.2493 6.92889 4.12553 6.92889 4.00027C6.92889 3.19382 6.67506 2.44914 6.24611 1.84823L7.10733 1.01801C7.53901 0.568232 8.24036 0.566726 8.67383 1.01464C9.1073 1.46256 9.10875 2.19028 8.67707 2.64005L6.91081 4.37127Z" fill="#0CC260"/>
</svg>
