<svg width="18" height="18" viewBox="0 0 18 18" fill="none" xmlns="http://www.w3.org/2000/svg">
<path class="secondary" d="M13.9446 0H4.05543C1.81568 0 0 1.79355 0 4.00601V13.994C0 16.2065 1.81568 18 4.05543 18H13.9446C16.1843 18 18 16.2065 18 13.994V4.00601C18 1.79355 16.1843 0 13.9446 0Z" fill="#5F82A6"/>
<path d="M12.7569 15.2833C12.4437 15.282 12.1393 15.1805 11.8895 14.9939L8.50996 12.5045C8.43924 12.4557 8.37915 12.3935 8.33327 12.3213C8.28739 12.2492 8.25665 12.1687 8.24287 12.0846C8.2291 12.0005 8.23257 11.9145 8.25309 11.8318C8.2736 11.749 8.31074 11.6712 8.36229 11.6029C8.41385 11.5346 8.47877 11.4773 8.5532 11.4342C8.62763 11.3912 8.71006 11.3634 8.79559 11.3524C8.88111 11.3415 8.96799 11.3476 9.05107 11.3705C9.13415 11.3933 9.21173 11.4325 9.27921 11.4855L12.6587 13.975C12.6858 13.9968 12.7196 14.0087 12.7545 14.0087C12.7894 14.0087 12.8232 13.9968 12.8502 13.975C12.8804 13.9571 12.9031 13.9292 12.9143 13.8962C12.9255 13.8633 12.9244 13.8276 12.9114 13.7953L11.6352 9.82429C11.5939 9.69602 11.5949 9.55811 11.638 9.43042C11.681 9.30272 11.764 9.19183 11.875 9.1137L15.306 6.69738C15.3357 6.6785 15.3583 6.65052 15.3703 6.61774C15.3822 6.58495 15.383 6.54918 15.3724 6.51594C15.3618 6.48269 15.3404 6.45381 15.3115 6.43374C15.2827 6.41367 15.248 6.40353 15.2127 6.40488L11.0092 6.38262C10.8727 6.38209 10.7398 6.33868 10.6299 6.25867C10.52 6.17865 10.4386 6.06618 10.3977 5.93751L9.19069 2.13975C9.18098 2.10616 9.15941 2.07711 9.12989 2.05787C9.10037 2.03862 9.06485 2.03045 9.02976 2.03483C8.99414 2.03135 8.95842 2.04046 8.92895 2.06054C8.89948 2.08063 8.87818 2.11038 8.86883 2.14452L7.59749 5.92797C7.55458 6.05457 7.47242 6.16461 7.36266 6.2425C7.2529 6.3204 7.1211 6.36219 6.98596 6.36196L2.95145 6.34129C2.91582 6.33635 2.87961 6.34468 2.84986 6.36466C2.82012 6.38464 2.79896 6.41485 2.79052 6.44939C2.77734 6.48113 2.77576 6.51642 2.78604 6.54919C2.79631 6.58196 2.81781 6.61019 2.84684 6.62902L6.08475 9.04534C6.19254 9.12547 6.27212 9.23701 6.31226 9.36423C6.3524 9.49145 6.35106 9.62791 6.30844 9.75434L5.00652 13.6157C4.99418 13.648 4.9928 13.6833 5.00258 13.7164C5.01237 13.7495 5.03279 13.7786 5.06077 13.7992C5.08875 13.8199 5.12277 13.831 5.15769 13.8308C5.19261 13.8307 5.22654 13.8194 5.25435 13.7985C5.3229 13.7475 5.40106 13.7106 5.48426 13.6899C5.56745 13.6692 5.65399 13.6652 5.7388 13.678C5.8236 13.6908 5.90495 13.7202 5.97808 13.7646C6.0512 13.8089 6.11462 13.8672 6.16461 13.9361C6.2146 14.0049 6.25014 14.083 6.26916 14.1656C6.28817 14.2483 6.29027 14.3338 6.27533 14.4173C6.2604 14.5007 6.22873 14.5804 6.18218 14.6516C6.13563 14.7227 6.07515 14.784 6.00428 14.8318C5.75542 15.0097 5.45574 15.1048 5.14856 15.1034C4.84137 15.102 4.54258 15.0042 4.29538 14.8241C4.04817 14.6439 3.86535 14.3908 3.77333 14.1013C3.68131 13.8118 3.68485 13.5009 3.78345 13.2135L4.94054 9.78455L2.07277 7.64324C1.82992 7.46263 1.65075 7.21111 1.56064 6.92432C1.47054 6.63753 1.47407 6.33001 1.57074 6.04531C1.6674 5.76061 1.85229 5.51318 2.09923 5.33805C2.34617 5.16292 2.64263 5.06898 2.94662 5.06954H2.95627L6.52409 5.08703L7.6506 1.73438C7.74666 1.44653 7.93278 1.19625 8.18213 1.01962C8.43147 0.842998 8.73116 0.749159 9.03798 0.751635C9.3448 0.75411 9.6429 0.852773 9.88929 1.0334C10.1357 1.21402 10.3176 1.46727 10.4089 1.75664L11.4807 5.11405L15.2111 5.13313C15.5182 5.13394 15.8172 5.23118 16.0647 5.41082C16.3123 5.59046 16.4956 5.84319 16.5882 6.13249C16.6808 6.42179 16.6779 6.73268 16.5799 7.02024C16.4819 7.30781 16.2939 7.55716 16.0431 7.73226L13.0047 9.87357L14.1312 13.4138C14.1988 13.6287 14.2145 13.8562 14.1771 14.0781C14.1398 14.3 14.0503 14.5102 13.916 14.6919C13.7816 14.8736 13.6061 15.0217 13.4034 15.1244C13.2008 15.2271 12.9766 15.2815 12.7489 15.2833H12.7569Z" fill="white"/>
<path class="primary" d="M8.79803 13.5203C9.52417 13.5203 10.1128 12.9388 10.1128 12.2215C10.1128 11.5042 9.52417 10.9227 8.79803 10.9227C8.07188 10.9227 7.48323 11.5042 7.48323 12.2215C7.48323 12.9388 8.07188 13.5203 8.79803 13.5203Z" fill="#333750"/>
</svg>
