<svg width="50" height="50" viewBox="0 0 50 50" fill="none" xmlns="http://www.w3.org/2000/svg">
<path class="secondary" d="M38.6833 0H11.3167C5.06665 0 0 5.08767 0 11.3636V38.6364C0 44.9123 5.06665 50 11.3167 50H38.6833C44.9333 50 50 44.9123 50 38.6364V11.3636C50 5.08767 44.9333 0 38.6833 0Z" fill="#5F82A6"/>
<path class="primary" d="M17.7843 9.045H16.7963C16.3199 9.045 15.863 8.85497 15.5261 8.5167C15.1893 8.17843 15 7.71964 15 7.24125C15 6.76287 15.1893 6.30408 15.5261 5.96581C15.863 5.62754 16.3199 5.4375 16.7963 5.4375H17.7843C18.2607 5.4375 18.7176 5.62754 19.0544 5.96581C19.3913 6.30408 19.5806 6.76287 19.5806 7.24125C19.5806 7.71964 19.3913 8.17843 19.0544 8.5167C18.7176 8.85497 18.2607 9.045 17.7843 9.045Z" fill="#333750"/>
<path class="primary" d="M25.3826 11.5071H24.3947C23.9183 11.5071 23.4614 11.3171 23.1245 10.9788C22.7876 10.6406 22.5984 10.1818 22.5984 9.70338C22.5984 9.22499 22.7876 8.7662 23.1245 8.42793C23.4614 8.08966 23.9183 7.89963 24.3947 7.89963H25.3826C25.8591 7.89963 26.316 8.08966 26.6528 8.42793C26.9897 8.7662 27.1789 9.22499 27.1789 9.70338C27.1789 10.1818 26.9897 10.6406 26.6528 10.9788C26.316 11.3171 25.8591 11.5071 25.3826 11.5071Z" fill="#333750"/>
<path class="primary" d="M32.8641 8.60759H31.8852C31.4088 8.60759 30.9519 8.41756 30.615 8.07929C30.2781 7.74102 30.0889 7.28223 30.0889 6.80384C30.0889 6.32546 30.2781 5.86667 30.615 5.5284C30.9519 5.19013 31.4088 5.00009 31.8852 5.00009H32.8731C33.3495 5.00009 33.8064 5.19013 34.1433 5.5284C34.4802 5.86667 34.6694 6.32546 34.6694 6.80384C34.6694 7.28223 34.4802 7.74102 34.1433 8.07929C33.8064 8.41756 33.3495 8.60759 32.8731 8.60759H32.8641Z" fill="#333750"/>
<path class="primary" d="M26.1175 44.4895H25.1296C24.6531 44.4895 24.1962 44.2995 23.8594 43.9612C23.5225 43.6229 23.3333 43.1642 23.3333 42.6858C23.3333 42.2074 23.5225 41.7486 23.8594 41.4103C24.1962 41.0721 24.6531 40.882 25.1296 40.882H26.1175C26.5939 40.882 27.0508 41.0721 27.3877 41.4103C27.7246 41.7486 27.9138 42.2074 27.9138 42.6858C27.9138 43.1642 27.7246 43.6229 27.3877 43.9612C27.0508 44.2995 26.5939 44.4895 26.1175 44.4895Z" fill="#333750"/>
<path d="M37.0938 15H25.2113H13.3333L19.27 25.331L21.731 29.6059V36.2167H28.6916V29.6059L31.1525 25.331L37.0938 15Z" stroke="white" stroke-width="1.22655" stroke-linecap="round" stroke-linejoin="round"/>
</svg>
