<svg width="12" height="11" viewBox="0 0 12 11" fill="none" xmlns="http://www.w3.org/2000/svg">
<circle cx="6.12789" cy="5.55464" r="4.80855" stroke="#333750"/>
<path d="M6.30963 6.94441H5.58731C5.5899 6.69587 5.61191 6.49264 5.65333 6.33471C5.69734 6.1742 5.76854 6.02792 5.86692 5.89589C5.9653 5.76385 6.09604 5.61369 6.25914 5.44541C6.37823 5.32373 6.48697 5.20982 6.58535 5.10367C6.68632 4.99493 6.76787 4.87843 6.83 4.75416C6.89214 4.6273 6.92321 4.47585 6.92321 4.2998C6.92321 4.12117 6.89085 3.96712 6.82612 3.83768C6.76399 3.70823 6.67078 3.60855 6.54652 3.53865C6.42483 3.46875 6.27338 3.4338 6.09216 3.4338C5.942 3.4338 5.7996 3.46098 5.66498 3.51535C5.53035 3.56972 5.42162 3.65386 5.33877 3.76777C5.25593 3.8791 5.21321 4.02537 5.21062 4.2066H4.49219C4.49737 3.91405 4.56986 3.66292 4.70966 3.45322C4.85205 3.24351 5.04363 3.083 5.2844 2.97167C5.52518 2.86035 5.79443 2.80469 6.09216 2.80469C6.42095 2.80469 6.70056 2.86423 6.93097 2.98332C7.16398 3.10242 7.34132 3.27329 7.463 3.49594C7.58468 3.716 7.64552 3.97748 7.64552 4.28039C7.64552 4.51339 7.59763 4.72827 7.50184 4.92503C7.40863 5.1192 7.28825 5.30172 7.14068 5.4726C6.99311 5.64347 6.83648 5.80657 6.67078 5.96191C6.52839 6.09394 6.4326 6.24281 6.38341 6.4085C6.33422 6.57419 6.30963 6.75283 6.30963 6.94441ZM5.55624 8.17545C5.55624 8.05895 5.59249 7.96057 5.66498 7.88031C5.73747 7.80006 5.84232 7.75993 5.97954 7.75993C6.11934 7.75993 6.22549 7.80006 6.29798 7.88031C6.37047 7.96057 6.40671 8.05895 6.40671 8.17545C6.40671 8.28678 6.37047 8.38257 6.29798 8.46283C6.22549 8.54308 6.11934 8.58321 5.97954 8.58321C5.84232 8.58321 5.73747 8.54308 5.66498 8.46283C5.59249 8.38257 5.55624 8.28678 5.55624 8.17545Z" fill="#333750"/>
</svg>
