<svg width="17" height="17" viewBox="0 0 17 17" fill="none" xmlns="http://www.w3.org/2000/svg">
<path class="primary" fill-rule="evenodd" clip-rule="evenodd" d="M10.8128 11.3089C10.9057 11.2159 11.016 11.1422 11.1374 11.0919C11.2588 11.0415 11.3889 11.0156 11.5203 11.0156C11.6517 11.0156 11.7818 11.0415 11.9032 11.0919C12.0246 11.1422 12.1349 11.2159 12.2278 11.3089L16.0778 15.1589C16.2654 15.3464 16.3709 15.6008 16.371 15.8661C16.3711 16.1313 16.2658 16.3858 16.0783 16.5734C15.8908 16.7611 15.6364 16.8665 15.3711 16.8666C15.1059 16.8667 14.8514 16.7614 14.6638 16.5739L10.8138 12.7239C10.7208 12.631 10.6471 12.5208 10.5967 12.3994C10.5464 12.278 10.5205 12.1478 10.5205 12.0164C10.5205 11.885 10.5464 11.7549 10.5967 11.6335C10.6471 11.5121 10.7208 11.4018 10.8138 11.3089H10.8128Z" fill="#323751"/>
<path class="secondary" fill-rule="evenodd" clip-rule="evenodd" d="M6.87061 12.8672C7.59288 12.8672 8.30807 12.7249 8.97536 12.4485C9.64266 12.1721 10.249 11.767 10.7597 11.2563C11.2704 10.7456 11.6755 10.1392 11.9519 9.47195C12.2283 8.80466 12.3706 8.08946 12.3706 7.36719C12.3706 6.64492 12.2283 5.92972 11.9519 5.26243C11.6755 4.59514 11.2704 3.98882 10.7597 3.4781C10.249 2.96738 9.64266 2.56225 8.97536 2.28585C8.30807 2.00945 7.59288 1.86719 6.87061 1.86719C5.41191 1.86719 4.01297 2.44665 2.98152 3.4781C1.95007 4.50955 1.37061 5.9085 1.37061 7.36719C1.37061 8.82588 1.95007 10.2248 2.98152 11.2563C4.01297 12.2877 5.41191 12.8672 6.87061 12.8672ZM13.3706 7.36719C13.3706 9.09109 12.6858 10.7444 11.4668 11.9634C10.2478 13.1824 8.59451 13.8672 6.87061 13.8672C5.1467 13.8672 3.4934 13.1824 2.27441 11.9634C1.05542 10.7444 0.370605 9.09109 0.370605 7.36719C0.370605 5.64328 1.05542 3.98998 2.27441 2.77099C3.4934 1.55201 5.1467 0.867188 6.87061 0.867188C8.59451 0.867188 10.2478 1.55201 11.4668 2.77099C12.6858 3.98998 13.3706 5.64328 13.3706 7.36719Z" fill="#5F82A6"/>
</svg>
