<svg width="16" height="18" viewBox="0 0 16 18" fill="none" xmlns="http://www.w3.org/2000/svg">
<path class="secondary" d="M3.65479 8.02734H5.32145V9.69401H3.65479V8.02734ZM3.65479 11.3607H5.32145V13.0273H3.65479V11.3607ZM6.98812 8.02734H8.65479V9.69401H6.98812V8.02734ZM6.98812 11.3607H8.65479V13.0273H6.98812V11.3607ZM10.3215 8.02734H11.9881V9.69401H10.3215V8.02734ZM10.3215 11.3607H11.9881V13.0273H10.3215V11.3607Z" fill="#5F82A6"/>
<path class="primary" d="M1.98796 17.194H13.6546C14.5738 17.194 15.3213 16.4465 15.3213 15.5273V3.86068C15.3213 2.94151 14.5738 2.19401 13.6546 2.19401H11.988V0.527344H10.3213V2.19401H5.32129V0.527344H3.65462V2.19401H1.98796C1.06879 2.19401 0.321289 2.94151 0.321289 3.86068V15.5273C0.321289 16.4465 1.06879 17.194 1.98796 17.194ZM13.6546 5.52734L13.6555 15.5273H1.98796V5.52734H13.6546Z" fill="#323751"/>
</svg>
