<svg width="12" height="12" viewBox="0 0 12 12" fill="none" xmlns="http://www.w3.org/2000/svg">
<path d="M1.86655 4.36328V6.59406C1.86655 7.58006 2.61379 8.38426 3.53335 8.38426H7.87799C8.17231 8.38426 8.41173 8.6414 8.41173 8.95751C8.41173 9.27362 8.17231 9.53077 7.87799 9.53077H3.53335C2.02667 9.53077 0.799072 8.21392 0.799072 6.59406V4.36328" fill="white"/>
<path d="M7.20553 8.53516C7.3504 8.53516 7.49528 8.59903 7.6005 8.72351L8.27301 8.63015C8.45753 8.84799 8.45753 9.18212 8.27301 9.39995L6.2387 11.8109C6.04045 12.0451 5.70343 12.0631 5.48536 11.8502C5.26729 11.6373 5.25052 11.2753 5.44876 11.0411L7.15978 9.01505L6.81209 9.49495C6.61384 9.26073 6.63062 8.89713 6.84869 8.68584C6.94934 8.58429 7.07743 8.53516 7.20553 8.53516Z" fill="white"/>
<path class="primary" d="M1.44262 4.83323C2.23936 4.83323 2.88525 4.13953 2.88525 3.2838C2.88525 2.42808 2.23936 1.73438 1.44262 1.73438C0.645884 1.73438 0 2.42808 0 3.2838C0 4.13953 0.645884 4.83323 1.44262 4.83323Z" fill="#333750"/>
<path d="M10.1336 7.63624V5.40545C10.1336 4.41946 9.38632 3.61526 8.46676 3.61526H4.12212C3.8278 3.61526 3.58838 3.35811 3.58838 3.04201C3.58838 2.7259 3.8278 2.46875 4.12212 2.46875H8.46676C9.97343 2.46875 11.201 3.7856 11.201 5.40545V7.63624" fill="white"/>
<path d="M4.79596 3.46376C4.65109 3.46376 4.50621 3.39989 4.40099 3.27541L3.72848 3.36877C3.54396 3.15093 3.54396 2.8168 3.72848 2.59897L5.76279 0.18802C5.96104 -0.0461956 6.29806 -0.0642122 6.51613 0.148711C6.7342 0.361635 6.75097 0.723604 6.55273 0.95782L4.84323 2.98387L5.19093 2.50397C5.38917 2.73819 5.3724 3.10179 5.15433 3.31308C5.05215 3.41463 4.92253 3.46376 4.79596 3.46376Z" fill="white"/>
<path class="primary" d="M10.5574 10.2668C11.3541 10.2668 12 9.57312 12 8.7174C12 7.86167 11.3541 7.16797 10.5574 7.16797C9.76063 7.16797 9.11475 7.86167 9.11475 8.7174C9.11475 9.57312 9.76063 10.2668 10.5574 10.2668Z" fill="#333750"/>
</svg>
