<svg width="16" height="16" viewBox="0 0 16 16" fill="none" xmlns="http://www.w3.org/2000/svg">
<circle cx="8" cy="8" r="8" fill="#FF2727"/>
<path d="M8.61525 8.81827H7.44338L7.27736 3.89151H8.78127L8.61525 8.81827ZM8.02932 9.58975C8.26695 9.58975 8.45738 9.65974 8.60061 9.79971C8.74709 9.93969 8.82033 10.1187 8.82033 10.3368C8.82033 10.5517 8.74709 10.7291 8.60061 10.869C8.45738 11.009 8.26695 11.079 8.02932 11.079C7.79494 11.079 7.60451 11.009 7.45803 10.869C7.3148 10.7291 7.24318 10.5517 7.24318 10.3368C7.24318 10.122 7.3148 9.94457 7.45803 9.8046C7.60451 9.66137 7.79494 9.58975 8.02932 9.58975Z" fill="#555555"/>
<path d="M8.61525 8.81827H7.44338L7.27736 3.89151H8.78127L8.61525 8.81827ZM8.02932 9.58975C8.26695 9.58975 8.45738 9.65974 8.60061 9.79971C8.74709 9.93969 8.82033 10.1187 8.82033 10.3368C8.82033 10.5517 8.74709 10.7291 8.60061 10.869C8.45738 11.009 8.26695 11.079 8.02932 11.079C7.79494 11.079 7.60451 11.009 7.45803 10.869C7.3148 10.7291 7.24318 10.5517 7.24318 10.3368C7.24318 10.122 7.3148 9.94457 7.45803 9.8046C7.60451 9.66137 7.79494 9.58975 8.02932 9.58975Z" fill="white"/>
</svg>
