<svg width="58" height="58" viewBox="0 0 58 58" fill="none" xmlns="http://www.w3.org/2000/svg">
<g filter="url(#filter0_d)">
<circle cx="29" cy="27" r="25" fill="white"/>
</g>
<path d="M43.528 41.9259V45.3103C43.528 45.6914 43.1903 46 42.7733 46H15.2268C14.8098 46 14.4721 45.6914 14.4721 45.3103V41.9259C14.4721 39.3233 16.1654 37.081 18.6003 36.0698C17.6068 35.3475 16.0926 34.3766 14.9909 32.2879C13.4565 29.3829 13.7192 25.9559 15.6739 23.2733C16.7362 21.8164 17.3022 20.106 17.3022 18.356V14.6207C17.3022 9.85948 21.5257 6 26.736 6H31.2642C36.4744 6 40.6979 9.85948 40.6979 14.6207C40.6979 18.5765 40.5922 19.3511 41.1139 20.9241C41.8502 23.1484 42.8228 23.4235 43.5724 25.6871C44.7507 29.2452 43.4473 33.1256 40.2357 35.4621L39.3998 36.0698C41.8347 37.081 43.528 39.3233 43.528 41.9259Z" fill="#FFDFBA"/>
<path class="primary" d="M43.5279 41.9258V45.3102C43.5279 45.6911 43.19 45.9999 42.7732 45.9999H15.2267C14.8099 45.9999 14.472 45.6911 14.472 45.3102V41.9258C14.472 38.3773 17.6199 35.4973 21.5067 35.4973C22.085 35.4973 22.6341 35.3827 23.1275 35.1775L23.151 35.224L28.538 39.0351C28.81 39.2275 29.19 39.2275 29.462 39.0351L34.8489 35.224L34.8725 35.1775C35.3659 35.3827 35.9149 35.4973 36.4932 35.4973C40.3649 35.4973 43.5279 38.3636 43.5279 41.9258Z" fill="#323751"/>
<path d="M37.6251 18.6084C38.0257 18.6292 38.3394 18.9301 38.3394 19.2968V23.4249C38.3394 26.9827 35.9574 30.0318 32.5707 31.3128C26.4466 33.6359 19.6606 29.5091 19.6606 23.4249V19.3568C19.6606 18.9526 20.0394 18.6332 20.48 18.6697C25.007 19.0447 29.4649 18.0001 33.2083 15.6956C33.634 15.4335 34.2203 15.6277 34.3547 16.0804C34.8203 17.6489 36.0904 18.5285 37.6251 18.6084Z" fill="#FFEBD2"/>
<path d="M40.2354 35.4621L39.3995 36.0698C38.5137 35.7026 37.5298 35.4974 36.493 35.4974C34.3394 35.4974 32.5846 33.9082 32.5846 31.9336V31.3448L32.5705 31.3129C35.9572 30.0319 38.3392 26.9828 38.3392 23.425V19.2969C38.3392 18.9302 38.0255 18.6293 37.6249 18.6084C36.0996 18.5291 34.8231 17.6591 34.3545 16.0806C34.22 15.6278 33.6338 15.4337 33.2081 15.6958C29.4671 17.9987 25.0095 19.0451 20.4798 18.6698C20.0392 18.6334 19.6604 18.9528 19.6604 19.357V23.4251C19.6604 26.9828 22.0424 30.032 25.4291 31.313L25.415 31.3449V31.9337C25.415 33.9079 23.6606 35.4975 21.5065 35.4975C20.4698 35.4975 19.4858 35.7027 18.6 36.0699L17.7642 35.4622C13.7066 32.5077 12.8032 27.2126 15.6737 23.2734C16.7359 21.8165 17.3019 20.1061 17.3019 18.3561V14.6207C17.3019 9.85966 21.5256 6 26.7357 6H31.2639C36.474 6 40.6976 9.85966 40.6976 14.6207V18.356C40.6976 20.104 41.2637 21.8164 42.3259 23.2733C45.2069 27.2269 44.2776 32.5214 40.2354 35.4621Z" fill="#42434D"/>
<path d="M32.6915 32.7602C30.3673 33.6493 27.8131 33.7182 25.3086 32.7602C25.4365 32.2752 25.4152 31.9611 25.4152 31.3447L25.4293 31.3128C27.7012 32.1745 30.2944 32.1763 32.5707 31.3128L32.5849 31.3447C32.5849 31.9613 32.5635 32.2754 32.6915 32.7602Z" fill="#FFD6A6"/>
<path d="M35.5257 6.92776C36.4891 7.37431 36.0704 8.71802 34.9949 8.625C34.6984 8.59931 34.3979 8.58621 34.094 8.58621H29.5658C24.3557 8.58621 20.1321 12.4459 20.1321 17.2069V18.2559C20.1321 18.8752 19.6604 18.8552 19.6604 19.3569C19.6604 23.9105 19.6806 23.6222 19.6075 23.8187C18.8674 25.8082 17.9786 26.0961 17.2576 28.2733C16.8649 29.4591 16.7488 30.6803 16.8849 31.8654C16.9959 32.8327 15.5221 33.2953 14.9907 32.2879C13.4672 29.4037 13.7058 25.9739 15.6737 23.2733C16.7359 21.8164 17.3019 20.106 17.3019 18.356V14.6207C17.3019 9.85966 21.5256 6 26.7357 6H31.2639C32.7975 6 34.2456 6.3344 35.5257 6.92776Z" fill="#4D4E59"/>
<path d="M27.2096 29.1422C28.6189 30.0043 27.5447 31.9982 25.9445 31.4851C22.427 30.3571 19.6606 27.3572 19.6606 23.425V19.3569C19.6606 18.9526 20.0398 18.6336 20.4804 18.6698C20.8419 18.6998 21.2389 18.7234 21.6672 18.7354C22.4426 18.757 23.0567 19.342 23.0567 20.0509V22.0457C23.0567 25.048 24.7318 27.6266 27.2096 29.1422Z" fill="#FFF3E4"/>
<path d="M24.7069 36.3248C25.1547 36.6415 24.9181 37.3057 24.3519 37.3077C20.3583 37.3213 17.3021 40.2515 17.3021 43.7361V45.9999H15.2267C14.8099 45.9999 14.472 45.6911 14.472 45.3102V41.9258C14.472 38.3772 17.62 35.4973 21.5067 35.4973C22.085 35.4973 22.6341 35.3827 23.1275 35.1775L23.151 35.224L24.7069 36.3248Z" fill="#333333"/>
<path class="secondary" d="M33.2929 36.3248C32.8452 36.6415 33.0818 37.3057 33.648 37.3077C37.6416 37.3213 40.6978 40.2515 40.6978 43.7361V45.9999H42.7732C43.19 45.9999 43.5279 45.6911 43.5279 45.3102V41.9258C43.5279 38.3772 40.3799 35.4973 36.4931 35.4973C35.9149 35.4973 35.3658 35.3827 34.8724 35.1775L34.8488 35.224L33.2929 36.3248Z" fill="#232842"/>
<defs>
<filter id="filter0_d" x="0" y="0" width="58" height="58" filterUnits="userSpaceOnUse" color-interpolation-filters="sRGB">
<feFlood flood-opacity="0" result="BackgroundImageFix"/>
<feColorMatrix in="SourceAlpha" type="matrix" values="0 0 0 0 0 0 0 0 0 0 0 0 0 0 0 0 0 0 127 0"/>
<feOffset dy="2"/>
<feGaussianBlur stdDeviation="2"/>
<feColorMatrix type="matrix" values="0 0 0 0 0 0 0 0 0 0 0 0 0 0 0 0 0 0 0.25 0"/>
<feBlend mode="normal" in2="BackgroundImageFix" result="effect1_dropShadow"/>
<feBlend mode="normal" in="SourceGraphic" in2="effect1_dropShadow" result="shape"/>
</filter>
</defs>
</svg>
