<svg width="10" height="10" viewBox="0 0 10 10" fill="none" xmlns="http://www.w3.org/2000/svg">
<path fill-rule="evenodd" clip-rule="evenodd" d="M9.40384 5.19054C9.46296 5.24214 9.50986 5.30344 9.54186 5.37093C9.57386 5.43842 9.59033 5.51076 9.59033 5.58383C9.59033 5.6569 9.57386 5.72925 9.54186 5.79673C9.50986 5.86422 9.46296 5.92552 9.40384 5.97712L5.59515 9.31008C5.53618 9.36181 5.46613 9.40285 5.38901 9.43086C5.31189 9.45886 5.22922 9.47328 5.14572 9.47328C5.06223 9.47328 4.97955 9.45886 4.90243 9.43086C4.82531 9.40285 4.75526 9.36181 4.6963 9.31008L0.887602 5.97712C0.768406 5.87281 0.701444 5.73134 0.701444 5.58383C0.701444 5.43632 0.768406 5.29485 0.887602 5.19054C1.0068 5.08623 1.16846 5.02763 1.33703 5.02763C1.5056 5.02763 1.66726 5.08623 1.78645 5.19054L5.14572 8.13132L8.50499 5.19054C8.56396 5.13881 8.634 5.09777 8.71112 5.06976C8.78824 5.04176 8.87092 5.02734 8.95442 5.02734C9.03791 5.02734 9.12059 5.04176 9.19771 5.06976C9.27483 5.09777 9.34488 5.13881 9.40384 5.19054Z" fill="#3FC93C"/>
<path fill-rule="evenodd" clip-rule="evenodd" d="M5.14549 0.582031C5.31385 0.582031 5.4753 0.640556 5.59435 0.744732C5.71339 0.848907 5.78027 0.990199 5.78027 1.13752L5.78027 8.35894C5.78027 8.50627 5.71339 8.64756 5.59435 8.75173C5.4753 8.85591 5.31385 8.91443 5.14549 8.91443C4.97714 8.91443 4.81568 8.85591 4.69663 8.75173C4.57759 8.64756 4.51071 8.50627 4.51071 8.35894L4.51071 1.13752C4.51071 0.990199 4.57759 0.848907 4.69663 0.744732C4.81568 0.640556 4.97714 0.582031 5.14549 0.582031Z" fill="#3FC93C"/>
</svg>
