<svg width="35" height="25" viewBox="0 0 35 25" fill="none" xmlns="http://www.w3.org/2000/svg">
<path d="M34.2507 19.438C34.432 19.006 33.9138 18.638 33.4791 18.83C32.6103 19.2114 31.6716 19.4075 30.7227 19.406C27.0027 19.406 23.9876 16.4513 23.9876 12.806C23.9863 11.5752 24.3359 10.3696 24.9956 9.33047C25.2481 8.93225 24.945 8.38114 24.4827 8.49847C20.9192 9.4078 18.2881 12.5829 18.2881 16.3598C18.2881 20.846 21.9992 24.4824 26.5778 24.4824C30.0445 24.4824 33.0134 22.398 34.2507 19.438Z" fill="#F9F9F9" stroke="#F9F9F9"/>
<path d="M12.2881 2.58242V1.48242M12.2881 23.4824V22.3824M22.1881 12.4824H23.2881M1.28809 12.4824H2.38809M19.4381 5.33242L21.0881 3.68242M3.48809 21.2824L5.13809 19.6324M3.48809 3.68242L5.13809 5.33242M19.4381 19.6324L21.0881 21.2824" stroke="#F9F9F9" stroke-width="1.5" stroke-linecap="round"/>
<path d="M12.2896 16.882C14.7197 16.882 16.6896 14.9121 16.6896 12.482C16.6896 10.052 14.7197 8.08203 12.2896 8.08203C9.8596 8.08203 7.88965 10.052 7.88965 12.482C7.88965 14.9121 9.8596 16.882 12.2896 16.882Z" stroke="#F9F9F9" stroke-width="1.5" stroke-linecap="round"/>
</svg>
