<svg width="64" height="76" viewBox="0 0 64 76" fill="none" xmlns="http://www.w3.org/2000/svg">
<path class="secondary" d="M19.7954 60.9735H10.5631C9.71428 60.9735 9.02539 60.2383 9.02539 59.3324C9.02539 58.4266 9.71428 57.6914 10.5631 57.6914H19.7954C20.6442 57.6914 21.3331 58.4266 21.3331 59.3324C21.3331 60.2383 20.6442 60.9735 19.7954 60.9735Z" fill="#5F82A6"/>
<path class="secondary" d="M54.9873 66.7176H10.6467C9.75175 66.7176 9.02539 65.9824 9.02539 65.0766C9.02539 64.1707 9.75175 63.4355 10.6467 63.4355H54.9938C55.8888 63.4355 56.6151 64.1707 56.6151 65.0766C56.6151 65.9824 55.8888 66.7176 54.9873 66.7176Z" fill="#5F82A6"/>
<path class="secondary" d="M62.3735 75.7432H1.62651C0.728677 75.7432 0 75.004 0 74.0932V41.2907C0 40.3798 0.728677 39.6406 1.62651 39.6406H12.908C13.8058 39.6406 14.5345 40.3798 14.5345 41.2907C14.5345 42.2015 13.8058 42.9407 12.908 42.9407H3.25302V72.4431H60.747V42.9407H50.9814C50.0836 42.9407 49.3549 42.2015 49.3549 41.2907C49.3549 40.3798 50.0836 39.6406 50.9814 39.6406H62.3735C63.2713 39.6406 64 40.3798 64 41.2907V74.0932C64 75.004 63.2713 75.7432 62.3735 75.7432Z" fill="#333750"/>
<path class="secondary" d="M32.0998 58.5123C31.6156 58.5123 31.1572 58.291 30.8473 57.9134L21.46 46.3142L11.9823 34.728C11.9178 34.6499 11.8597 34.5588 11.808 34.4677C9.98736 31.096 9.02539 27.2751 9.02539 23.4152C9.02539 10.6444 19.3359 0.255859 32.003 0.255859C44.67 0.255859 54.9741 10.6444 54.9741 23.4152C54.9741 27.2751 54.0121 31.096 52.1979 34.4677C52.1528 34.5523 52.0947 34.6369 52.0365 34.715L42.7525 46.3077L33.3523 57.9134C33.0489 58.291 32.5905 58.5123 32.0998 58.5123ZM14.5713 32.7753L23.9586 44.2508L32.1063 54.3074L40.2475 44.2573L49.4282 32.7818C50.9454 29.9178 51.746 26.6828 51.746 23.4152C51.746 12.4409 42.8881 3.51041 32.003 3.51041C21.1114 3.51041 12.2535 12.4409 12.2535 23.4152C12.2535 26.6828 13.0541 29.9178 14.5713 32.7753Z" fill="#5F82A6"/>
<path class="secondary" d="M31.9999 35.5371C25.6679 35.5371 20.5127 30.1978 20.5127 23.6396C20.5127 17.0748 25.6679 11.7422 31.9999 11.7422C38.3383 11.7422 43.4871 17.0815 43.4871 23.6396C43.4934 30.1978 38.3383 35.5371 31.9999 35.5371ZM31.9999 15.0478C27.4267 15.0478 23.7107 18.9032 23.7107 23.633C23.7107 28.3695 27.4331 32.2182 31.9999 32.2182C36.573 32.2182 40.2891 28.3628 40.2891 23.633C40.2955 18.9032 36.573 15.0478 31.9999 15.0478Z" fill="#333750"/>
</svg>
