<svg width="38" height="35" viewBox="0 0 38 35" fill="none" xmlns="http://www.w3.org/2000/svg">
<mask id="path-1-inside-1_19208_6302" fill="white">
<path d="M27.8644 25.5269C26.6235 25.5269 25.4553 25.0574 24.5741 24.2114L19.8245 19.6205C19.4931 19.2984 18.911 19.2984 18.5755 19.6205L13.8097 24.2269C12.9325 25.0768 11.7643 25.5425 10.5193 25.5425H9.58154L15.5964 31.3558C17.476 33.172 20.5198 33.172 22.3994 31.3558L28.4304 25.5231H27.8644V25.5269Z"/>
</mask>
<path class="secondary" d="M27.8644 25.5269C26.6235 25.5269 25.4553 25.0574 24.5741 24.2114L19.8245 19.6205C19.4931 19.2984 18.911 19.2984 18.5755 19.6205L13.8097 24.2269C12.9325 25.0768 11.7643 25.5425 10.5193 25.5425H9.58154L15.5964 31.3558C17.476 33.172 20.5198 33.172 22.3994 31.3558L28.4304 25.5231H27.8644V25.5269Z" stroke="#5F82A6" stroke-width="2.6" mask="url(#path-1-inside-1_19208_6302)"/>
<mask id="path-2-inside-2_19208_6302" fill="white">
<path class="secondary" d="M10.5172 9.2887C11.7582 9.2887 12.9264 9.75827 13.8076 10.6043L18.5734 15.2146C18.917 15.5483 19.4788 15.5483 19.8224 15.2146L24.572 10.6237C25.4492 9.77379 26.6174 9.3081 27.8624 9.3081H28.4364L22.4013 3.47151C20.5217 1.65533 17.4779 1.65533 15.5983 3.47151L9.5835 9.28482H10.5172V9.2887Z"/>
</mask>
<path class="secondary" d="M10.5172 9.2887C11.7582 9.2887 12.9264 9.75827 13.8076 10.6043L18.5734 15.2146C18.917 15.5483 19.4788 15.5483 19.8224 15.2146L24.572 10.6237C25.4492 9.77379 26.6174 9.3081 27.8624 9.3081H28.4364L22.4013 3.47151C20.5217 1.65533 17.4779 1.65533 15.5983 3.47151L9.5835 9.28482H10.5172V9.2887Z" stroke="#5F82A6" stroke-width="2.6" mask="url(#path-2-inside-2_19208_6302)"/>
<mask id="path-3-inside-3_19208_6302" fill="white">
<path class="secondary" d="M33.4239 14.1291L29.7778 10.6054C29.6969 10.6364 29.612 10.6558 29.5191 10.6558H27.8618C27.0048 10.6558 26.164 10.9934 25.5618 11.5755L20.8122 16.1664C20.3675 16.5972 19.7854 16.8106 19.1993 16.8106C18.6172 16.8106 18.0311 16.5972 17.5865 16.1664L12.8207 11.5561C12.2144 10.9702 11.3776 10.6364 10.5207 10.6364H8.48343C8.39854 10.6364 8.31366 10.617 8.23686 10.5898L4.57867 14.1291C2.69904 15.9452 2.69904 18.8907 4.57867 20.7069L8.23686 24.2461C8.31366 24.2189 8.3945 24.1995 8.48343 24.1995H10.5207C11.3776 24.1995 12.2184 23.8619 12.8207 23.2798L17.5865 18.6734C18.4475 17.8429 19.9512 17.839 20.8122 18.6734L25.5618 23.2643C26.1681 23.8502 27.0048 24.1879 27.8618 24.1879H29.5191C29.612 24.1879 29.6969 24.2073 29.7778 24.2383L33.4239 20.7146C35.3035 18.8868 35.3035 15.9452 33.4239 14.1291Z"/>
</mask>
<path d="M33.4239 14.1291L29.7778 10.6054C29.6969 10.6364 29.612 10.6558 29.5191 10.6558H27.8618C27.0048 10.6558 26.164 10.9934 25.5618 11.5755L20.8122 16.1664C20.3675 16.5972 19.7854 16.8106 19.1993 16.8106C18.6172 16.8106 18.0311 16.5972 17.5865 16.1664L12.8207 11.5561C12.2144 10.9702 11.3776 10.6364 10.5207 10.6364H8.48343C8.39854 10.6364 8.31366 10.617 8.23686 10.5898L4.57867 14.1291C2.69904 15.9452 2.69904 18.8907 4.57867 20.7069L8.23686 24.2461C8.31366 24.2189 8.3945 24.1995 8.48343 24.1995H10.5207C11.3776 24.1995 12.2184 23.8619 12.8207 23.2798L17.5865 18.6734C18.4475 17.8429 19.9512 17.839 20.8122 18.6734L25.5618 23.2643C26.1681 23.8502 27.0048 24.1879 27.8618 24.1879H29.5191C29.612 24.1879 29.6969 24.2073 29.7778 24.2383L33.4239 20.7146C35.3035 18.8868 35.3035 15.9452 33.4239 14.1291Z" stroke="#323751" stroke-width="2.4" mask="url(#path-3-inside-3_19208_6302)"/>
</svg> 
