<svg width="18" height="18" viewBox="0 0 18 18" fill="none" xmlns="http://www.w3.org/2000/svg">
  <path fill-rule="evenodd" clip-rule="evenodd" d="M13.3276 0.118295C14.366 0.329539 15.327 0.81928 16.1074 1.53487C16.8878 2.25046 17.458 3.16483 17.7569 4.17969C18.0337 5.11021 18.0749 6.09472 17.8766 7.0458C17.59 8.34884 16.8687 9.51617 15.8309 10.3567C14.793 11.1973 13.5001 11.6612 12.1637 11.6727C11.5997 11.6727 11.0383 11.5917 10.4988 11.4285L9.46878 12.6341L8.98079 12.859H7.72541V14.7869L7.08162 15.4295H5.15027V17.3574L4.50649 18H0.643784L0 17.3574V14.3923L0.187985 13.9386L6.59235 7.54576C6.41059 6.9614 6.32366 6.35177 6.33484 5.73999C6.34657 4.88405 6.54732 4.04125 6.92278 3.27164C7.29824 2.50203 7.83916 1.82458 8.50698 1.28758C9.17481 0.750576 9.95308 0.367244 10.7863 0.164909C11.6196 -0.0374261 12.4873 -0.0537809 13.3276 0.11701V0.118295ZM15.0246 9.37211C15.8335 8.71831 16.3959 7.80974 16.6199 6.79518L16.6251 6.8016C16.7846 6.05976 16.7559 5.28988 16.5416 4.56193C16.3272 3.83397 15.9341 3.17101 15.3978 2.63329C14.8616 2.09557 14.1992 1.70012 13.4709 1.48289C12.7426 1.26566 11.9715 1.23353 11.2276 1.38941C10.2243 1.61169 9.32434 2.16264 8.67102 2.95453C8.0177 3.74643 7.64857 4.73374 7.6224 5.75926C7.60953 6.34534 7.71253 6.92627 7.93013 7.46865L7.7885 8.16654L1.28757 14.6583V16.7147H3.8627V14.7869L4.50649 14.1442H6.43784V12.2164L7.08162 11.5737H8.68465L9.81256 10.2679L10.5349 10.088C11.0556 10.2911 11.6098 10.3949 12.1688 10.3939C13.2092 10.3859 14.2161 10.0257 15.0246 9.37211ZM13.9457 5.8608C14.0472 5.72077 14.1194 5.56174 14.1579 5.39322C14.1964 5.2247 14.2005 5.05016 14.1699 4.88003C14.1392 4.70991 14.0745 4.54769 13.9797 4.4031C13.8848 4.2585 13.7617 4.13449 13.6177 4.03849C13.4737 3.94249 13.3118 3.87648 13.1416 3.84439C12.9715 3.8123 12.7966 3.8148 12.6274 3.85174C12.4582 3.88867 12.2983 3.95929 12.1571 4.05937C12.0159 4.15945 11.8964 4.28692 11.8057 4.43417C11.6313 4.71742 11.5736 5.05714 11.6447 5.38196C11.7159 5.70678 11.9105 5.99143 12.1875 6.17609C12.4645 6.36076 12.8024 6.43109 13.1302 6.37229C13.4581 6.3135 13.7504 6.13016 13.9457 5.8608Z" fill="#323751"/>
</svg>