<svg width="22" height="32" viewBox="0 0 22 32" fill="none" xmlns="http://www.w3.org/2000/svg">
  <path d="M11 31.9996C17.0751 31.9996 22 26.9406 22 20.7C22 14.4594 17.0751 9.40039 11 9.40039C4.92487 9.40039 0 14.4594 0 20.7C0 26.9406 4.92487 31.9996 11 31.9996Z" fill="#F6F6F6"/>
  <path d="M10.9943 15.691C10.5441 15.691 10.1807 15.3177 10.1807 14.8552V12.8104C10.1807 12.3479 10.5441 11.9746 10.9943 11.9746C11.4445 11.9746 11.8079 12.3479 11.8079 12.8104V14.8552C11.8079 15.3177 11.4445 15.691 10.9943 15.691Z" fill="#5F82A6"/>
  <path d="M10.9943 29.9098C10.5441 29.9098 10.1807 29.5364 10.1807 29.074V27.0291C10.1807 26.5667 10.5441 26.1934 10.9943 26.1934C11.4445 26.1934 11.8079 26.5667 11.8079 27.0291V29.074C11.8079 29.5364 11.4445 29.9098 10.9943 29.9098Z" fill="#5F82A6"/>
  <path d="M10.9946 21.5359C8.70567 21.5359 6.84521 19.8476 6.84521 17.7805C6.84521 15.7078 8.70567 14.0195 10.9946 14.0195C13.2836 14.0195 15.144 15.7078 15.144 17.7805C15.144 18.243 14.7806 18.6163 14.3304 18.6163C13.8802 18.6163 13.5168 18.243 13.5168 17.7805C13.5168 16.6271 12.3886 15.6911 10.9946 15.6911C9.60064 15.6911 8.47243 16.6271 8.47243 17.7805C8.47243 18.9283 9.60064 19.8644 10.9946 19.8644C11.4448 19.8644 11.8082 20.2377 11.8082 20.7001C11.8082 21.1626 11.4448 21.5359 10.9946 21.5359Z" fill="#333750"/>
  <path d="M10.9946 27.3816C8.70567 27.3816 6.84521 25.6933 6.84521 23.6262C6.84521 23.1637 7.20863 22.7904 7.65882 22.7904C8.10902 22.7904 8.47243 23.1637 8.47243 23.6262C8.47243 24.774 9.60064 25.7101 10.9946 25.7101C12.3886 25.7101 13.5168 24.774 13.5168 23.6262C13.5168 22.4728 12.3886 21.5368 10.9946 21.5368C10.5444 21.5368 10.181 21.1635 10.181 20.701C10.181 20.2385 10.5444 19.8652 10.9946 19.8652C13.2836 19.8652 15.144 21.5535 15.144 23.6262C15.144 25.6933 13.2836 27.3816 10.9946 27.3816Z" fill="#333750"/>
  <path d="M4.94869 0.851829C4.94869 0.647465 5.0179 0.443101 5.15632 0.278474C5.45445 -0.0678091 5.95488 -0.0961932 6.28496 0.221707L10.922 4.70636L15.559 0.221707C15.8837 -0.0961925 16.3895 -0.0678084 16.6876 0.278475C16.9857 0.624759 16.9591 1.16405 16.6343 1.48195L11.4597 6.48887C11.1562 6.78407 10.693 6.78407 10.3843 6.48887L5.20956 1.48195C5.03387 1.31165 4.94869 1.08458 4.94869 0.851829Z" fill="#5F82A6"/>
</svg>