<svg width="19" height="19" viewBox="0 0 19 19" fill="none" xmlns="http://www.w3.org/2000/svg">
<path class="secondary" d="M14.0725 0.0273438H4.22049C1.97048 0.0273438 0.146484 1.85891 0.146484 4.11825V13.9364C0.146484 16.1958 1.97048 18.0273 4.22049 18.0273H14.0725C16.3225 18.0273 18.1465 16.1958 18.1465 13.9364V4.11825C18.1465 1.85891 16.3225 0.0273438 14.0725 0.0273438Z" fill="#5F82A6"/>
<path d="M4.04102 4.48828H13.5486" stroke="white" stroke-width="1.26744" stroke-linecap="round" stroke-linejoin="round"/>
<path d="M13.5486 4.48828V14.063H4.04102V4.48828" stroke="white" stroke-width="1.26744" stroke-linecap="round" stroke-linejoin="round"/>
<path class="stroke secondary" d="M5.22461 4.0245V2.93359" stroke="#333750" stroke-width="1.26744" stroke-linecap="round" stroke-linejoin="round"/>
<path class="stroke secondary" d="M7.74512 4.0245V2.93359" stroke="#333750" stroke-width="1.26744" stroke-linecap="round" stroke-linejoin="round"/>
<path class="stroke secondary" d="M6.08301 7.42969H6.43867" stroke="#333750" stroke-width="1.26744" stroke-linecap="round" stroke-linejoin="round"/>
<path class="stroke secondary" d="M6.08301 9.48828H6.43867" stroke="#333750" stroke-width="1.26744" stroke-linecap="round" stroke-linejoin="round"/>
<path class="stroke secondary" d="M6.08301 11.5469H6.43867" stroke="#333750" stroke-width="1.26744" stroke-linecap="round" stroke-linejoin="round"/>
<path class="stroke secondary" d="M8.55273 7.42969H8.9084" stroke="#333750" stroke-width="1.26744" stroke-linecap="round" stroke-linejoin="round"/>
<path class="stroke secondary" d="M10.9229 7.42969H11.2785" stroke="#333750" stroke-width="1.26744" stroke-linecap="round" stroke-linejoin="round"/>
<path class="stroke secondary" d="M10.2656 4.0245V2.93359" stroke="#333750" stroke-width="1.26744" stroke-linecap="round" stroke-linejoin="round"/>
<path class="stroke secondary" d="M12.7852 4.0245V2.93359" stroke="#333750" stroke-width="1.26744" stroke-linecap="round" stroke-linejoin="round"/>
<path d="M9.19141 9.56093L11.1152 11.4927L16.3791 6.20703" stroke="white" stroke-width="1.26744" stroke-linecap="round" stroke-linejoin="round"/>
</svg>
