<svg width="18" height="18" viewBox="0 0 18 18" fill="none" xmlns="http://www.w3.org/2000/svg">
<path class="secondary" d="M13.926 0H4.07401C1.824 0 0 1.83156 0 4.09091V13.9091C0 16.1684 1.824 18 4.07401 18H13.926C16.176 18 18 16.1684 18 13.9091V4.09091C18 1.83156 16.176 0 13.926 0Z" fill="#5F82A6"/>
<path d="M2 5.27644C2 4.79053 2.42854 4.39526 2.95535 4.39526H5.37922C5.90603 4.39526 6.33457 4.79053 6.33457 5.27644C6.33457 5.76234 5.90603 6.15761 5.37922 6.15761H2.95535C2.42854 6.15761 2 5.76234 2 5.27644Z" fill="white"/>
<path d="M8.69019 5.27644C8.69019 4.79053 9.11873 4.39526 9.64554 4.39526H15.0446C15.5714 4.39526 16 4.79053 16 5.27644C16 5.76234 15.5714 6.15761 15.0446 6.15761H9.64554C9.11873 6.15761 8.69019 5.76234 8.69019 5.27644Z" fill="white"/>
<path class="primary" d="M6.33456 6.55289C7.09887 6.55289 7.71846 5.9814 7.71846 5.27644C7.71846 4.57148 7.09887 4 6.33456 4C5.57026 4 4.95067 4.57148 4.95067 5.27644C4.95067 5.9814 5.57026 6.55289 6.33456 6.55289Z" fill="#333750"/>
<path d="M16 8.8011C16 9.287 15.5714 9.68227 15.0446 9.68227H12.618C12.0912 9.68227 11.6627 9.287 11.6627 8.8011C11.6627 8.31519 12.0912 7.91992 12.618 7.91992H15.0419C15.5714 7.91992 16 8.31519 16 8.8011Z" fill="white"/>
<path d="M9.30981 8.8011C9.30981 9.287 8.88127 9.68227 8.35446 9.68227H2.95535C2.42854 9.68227 2 9.287 2 8.8011C2 8.31519 2.42854 7.91992 2.95535 7.91992H8.35446C8.88127 7.91992 9.30981 8.31519 9.30981 8.8011Z" fill="white"/>
<path class="primary" d="M11.6627 10.0775C12.427 10.0775 13.0466 9.50606 13.0466 8.8011C13.0466 8.09614 12.427 7.52466 11.6627 7.52466C10.8984 7.52466 10.2788 8.09614 10.2788 8.8011C10.2788 9.50606 10.8984 10.0775 11.6627 10.0775Z" fill="#333750"/>
<path d="M2 12.7237C2 12.2378 2.42854 11.8425 2.95535 11.8425H5.37922C5.90603 11.8425 6.33457 12.2378 6.33457 12.7237C6.33457 13.2096 5.90603 13.6049 5.37922 13.6049H2.95535C2.42854 13.6049 2 13.2096 2 12.7237Z" fill="white"/>
<path d="M8.69019 12.7237C8.69019 12.2378 9.11873 11.8425 9.64554 11.8425H15.0446C15.5714 11.8425 16 12.2378 16 12.7237C16 13.2096 15.5714 13.6049 15.0446 13.6049H9.64554C9.11873 13.6049 8.69019 13.2096 8.69019 12.7237Z" fill="white"/>
<path class="primary" d="M6.33456 14C7.09887 14 7.71846 13.4285 7.71846 12.7236C7.71846 12.0186 7.09887 11.4471 6.33456 11.4471C5.57026 11.4471 4.95067 12.0186 4.95067 12.7236C4.95067 13.4285 5.57026 14 6.33456 14Z" fill="#333750"/>
</svg>
