<svg width="25" height="20" viewBox="0 0 25 20" fill="none" xmlns="http://www.w3.org/2000/svg">
<path d="M2.27667 19.0086H22.137C23.2249 19.0086 24.1068 18.1189 24.1068 17.0276V2.59035C24.1068 1.49911 23.225 0.608594 22.137 0.608594H2.27667C1.18866 0.608594 0.306836 1.49911 0.306836 2.59035V17.0268C0.306836 18.1181 1.18866 19.0086 2.27667 19.0086ZM1.41477 2.59035C1.41477 2.11013 1.80293 1.7213 2.27667 1.7213H22.137C22.6107 1.7213 22.9989 2.11013 22.9989 2.59035V17.0276C22.9989 17.5078 22.6107 17.8966 22.137 17.8966H2.27667C1.80293 17.8966 1.41477 17.5078 1.41477 17.0276V2.59035Z" fill="#323751" stroke="#323751" stroke-width="0.4"/>
<path d="M6.12545 1.7213H18.2877C18.5953 1.7213 18.8424 1.4711 18.8424 1.16494C18.8424 0.85905 18.5955 0.608594 18.2884 0.608594H6.12545C5.81834 0.608594 5.57148 0.85905 5.57148 1.16494C5.57148 1.47084 5.81834 1.7213 6.12545 1.7213Z" fill="#323751" stroke="#323751" stroke-width="0.4"/>
<path d="M5.64415 11.1082L3.67915 12.3244C2.98667 12.6589 2.54219 13.372 2.54219 14.1431V15.2636C2.54219 15.6039 2.81679 15.8823 3.1581 15.8823H12.9436C13.2844 15.8823 13.56 15.6042 13.5579 15.2629V15.2636L5.64415 11.1082ZM5.64415 11.1082C5.01148 10.5012 4.62385 9.66671 4.58944 8.76948L4.58944 8.76942L4.50543 6.56197L4.50514 6.55436H4.50528C4.50528 4.75577 5.96473 3.30781 7.7589 3.30781H8.33951C10.1321 3.30781 11.594 4.75585 11.594 6.53845V6.54609L11.5938 6.54608L11.509 8.76944L11.509 8.76946C11.4746 9.66789 11.0872 10.5032 10.4527 11.1098L12.4409 12.335" fill="#323751" stroke="#323751" stroke-width="0.4"/>
<path d="M16.12 6.79524H21.2582C21.5995 6.79524 21.8741 6.51684 21.8741 6.17652C21.8741 5.83621 21.5995 5.55781 21.2582 5.55781H16.12C15.7787 5.55781 15.5041 5.83621 15.5041 6.17652C15.5041 6.51684 15.7787 6.79524 16.12 6.79524Z" fill="#323751" stroke="#323751" stroke-width="0.4"/>
<path d="M16.12 10.514H21.2582C21.5995 10.514 21.8741 10.2356 21.8741 9.89527C21.8741 9.55496 21.5995 9.27656 21.2582 9.27656H16.12C15.7787 9.27656 15.5041 9.55496 15.5041 9.89527C15.5041 10.2356 15.7787 10.514 16.12 10.514Z" fill="#323751" stroke="#323751" stroke-width="0.4"/>
<path d="M16.12 14.2308H21.2582C21.5995 14.2308 21.8741 13.9524 21.8741 13.6121C21.8741 13.2718 21.5995 12.9934 21.2582 12.9934H16.12C15.7787 12.9934 15.5041 13.2718 15.5041 13.6121C15.5041 13.9524 15.7787 14.2308 16.12 14.2308Z" fill="#323751" stroke="#323751" stroke-width="0.4"/>
</svg>
