<svg width="21" height="21" viewBox="0 0 21 21" fill="none" xmlns="http://www.w3.org/2000/svg">
<circle cx="10.2881" cy="10.4824" r="9.5" fill="#F9F9F9" stroke="#5F82A6"/>
<path d="M8.88184 9.33751H9.96582C10.5127 9.33262 10.9448 9.19102 11.2622 8.9127C11.5845 8.63438 11.7456 8.23155 11.7456 7.7042C11.7456 7.19639 11.6113 6.80333 11.3428 6.52501C11.0791 6.2418 10.6738 6.1002 10.127 6.1002C9.64844 6.1002 9.25537 6.23936 8.94775 6.51768C8.64014 6.79112 8.48633 7.15001 8.48633 7.59434H6.70654C6.70654 7.04747 6.85059 6.54942 7.13867 6.1002C7.43164 5.65098 7.83691 5.30186 8.35449 5.05284C8.87695 4.79893 9.46045 4.67198 10.105 4.67198C11.1694 4.67198 12.0044 4.94053 12.6099 5.47764C13.2202 6.00987 13.5254 6.75206 13.5254 7.7042C13.5254 8.18272 13.3716 8.63438 13.064 9.05919C12.7612 9.47911 12.3682 9.79649 11.8848 10.0113C12.4707 10.2115 12.915 10.5265 13.2178 10.9562C13.5254 11.3858 13.6792 11.8985 13.6792 12.4942C13.6792 13.4513 13.3496 14.213 12.6904 14.7794C12.0361 15.3458 11.1743 15.629 10.105 15.629C9.07959 15.629 8.23975 15.3556 7.58545 14.8087C6.93115 14.2618 6.604 13.5343 6.604 12.6261H8.38379C8.38379 13.0948 8.54004 13.4757 8.85254 13.7687C9.16992 14.0616 9.59473 14.2081 10.127 14.2081C10.6787 14.2081 11.1133 14.0616 11.4307 13.7687C11.748 13.4757 11.9067 13.0509 11.9067 12.4942C11.9067 11.9327 11.7407 11.5006 11.4087 11.1979C11.0767 10.8951 10.5835 10.7438 9.9292 10.7438H8.88184V9.33751Z" fill="#5F82A6"/>
</svg>
