<svg width="42" height="42" viewBox="0 0 42 42" fill="none" xmlns="http://www.w3.org/2000/svg">
<path class="secondary" fill-rule="evenodd" clip-rule="evenodd" d="M27.2721 5.25002L27.2649 5.25005L26.4226 5.25005C26.3944 5.32971 26.3621 5.40804 26.3258 5.48472C26.1821 5.78866 25.9785 6.0605 25.7274 6.28403C25.4762 6.50756 25.1826 6.67818 24.864 6.78572C24.5571 6.88932 24.2332 6.93232 23.9101 6.91245H18.0721C17.749 6.93232 17.425 6.88932 17.1181 6.78572C16.7996 6.67818 16.506 6.50756 16.2548 6.28403C16.0037 6.0605 15.8001 5.78865 15.6564 5.48472C15.6201 5.40803 15.5878 5.3297 15.5596 5.25004L14.6124 5.25004C14.2961 5.2499 13.9823 5.31326 13.691 5.43636C13.3996 5.55946 13.136 5.7398 12.9157 5.96669C12.6954 6.19357 12.5228 6.46239 12.4083 6.75719C12.2938 7.052 12.2397 7.36679 12.2491 7.68291L12.2499 7.70897V34.1998C12.2459 34.514 12.304 34.8259 12.4212 35.1175C12.5384 35.4091 12.7122 35.6746 12.9325 35.8987C13.1528 36.1228 13.4153 36.301 13.7049 36.4231C13.9934 36.5448 14.3031 36.6083 14.6162 36.61H27.2649C27.9186 36.6101 28.5462 36.3525 29.0114 35.8931C29.4743 35.4359 29.7393 34.8156 29.7499 34.1653V28H31.4999V34.1775C31.4861 35.2916 31.0338 36.3554 30.2411 37.1383C29.4483 37.9212 28.379 38.3601 27.2649 38.36H14.6124C14.067 38.3578 13.5276 38.2475 13.0251 38.0357C12.5226 37.8238 12.067 37.5145 11.6846 37.1257C11.3023 36.7368 11.0008 36.2761 10.7974 35.7701C10.5941 35.2641 10.4929 34.7228 10.4999 34.1775V7.73504C10.4835 7.18475 10.5777 6.63678 10.777 6.12361C10.9764 5.61043 11.2767 5.14249 11.6602 4.74754C12.0437 4.35259 12.5027 4.03867 13.0098 3.82437C13.5169 3.61008 14.0618 3.49979 14.6124 3.50004H27.2649C27.8202 3.49773 28.3705 3.60512 28.8842 3.81604C29.3979 4.02696 29.8649 4.33725 30.2584 4.72911C30.6519 5.12097 30.9641 5.58668 31.1772 6.09952C31.3902 6.61235 31.4999 7.16221 31.4999 7.71754V12.25H29.7499V7.71752C29.7499 7.39262 29.6857 7.07092 29.5611 6.77088C29.4364 6.47084 29.2538 6.19837 29.0235 5.96911C28.7933 5.73984 28.5201 5.5583 28.2196 5.4349C27.919 5.3115 27.597 5.24867 27.2721 5.25002ZM21.8838 14.1005C22.0957 14.1493 22.304 14.2158 22.5067 14.2997C23.2262 14.5977 23.8411 15.1024 24.2738 15.7499C24.7064 16.3975 24.9374 17.1587 24.9374 17.9375H23.1874C23.1874 17.5049 23.0591 17.0819 22.8187 16.7222C22.5783 16.3625 22.2367 16.0821 21.837 15.9165C21.4373 15.7509 20.9974 15.7076 20.5731 15.792C20.1488 15.8764 19.759 16.0848 19.4531 16.3907C19.1471 16.6966 18.9388 17.0864 18.8544 17.5107C18.77 17.9351 18.8133 18.3749 18.9789 18.7746C19.1444 19.1743 19.4248 19.516 19.7846 19.7563C20.1443 19.9967 20.5672 20.125 20.9999 20.125V20.125C21.7778 20.1216 22.5394 20.3487 23.1885 20.7777C23.839 21.2076 24.3472 21.821 24.6487 22.5401C24.9501 23.2592 25.0313 24.0516 24.8819 24.8168C24.7326 25.5821 24.3593 26.2858 23.8096 26.8387C23.2776 27.3738 22.6035 27.7443 21.8678 27.9071L21.8923 29.6679L20.1425 29.6922L20.1175 27.8958C19.913 27.8478 19.7117 27.7833 19.5158 27.7024C18.795 27.4051 18.1787 26.9004 17.7451 26.2524C17.3114 25.6044 17.0799 24.8423 17.0799 24.0626L18.8299 24.0625C18.8299 24.4957 18.9585 24.9191 19.1994 25.2791C19.4403 25.6391 19.7827 25.9195 20.1832 26.0847C20.5836 26.2499 21.0241 26.2925 21.4488 26.207C21.8734 26.1216 22.2632 25.912 22.5686 25.6049C22.874 25.2977 23.0814 24.9067 23.1644 24.4816C23.2473 24.0564 23.2022 23.6162 23.0348 23.2167C22.8673 22.8172 22.5849 22.4765 22.2236 22.2376C21.8622 21.9987 21.4381 21.8726 21.0049 21.875L20.9999 20.9975V21.875C20.2211 21.875 19.4598 21.6441 18.8123 21.2114C18.1648 20.7788 17.6601 20.1638 17.3621 19.4443C17.0641 18.7248 16.9861 17.9331 17.138 17.1693C17.29 16.4055 17.665 15.7039 18.2156 15.1533C18.7426 14.6263 19.4079 14.2601 20.1336 14.0965L20.1075 12.3859L21.8572 12.3592L21.8838 14.1005ZM29.7499 24.5V21H26.2499V19.25H29.7499V15.75H31.4999V19.25H34.9999V21H31.4999V24.5H29.7499ZM15.8199 35.0526H26.2324V33.3026H15.8199V35.0526Z" fill="#5F82A6"/>
</svg>
