<svg width="17" height="17" viewBox="0 0 17 17" fill="none" xmlns="http://www.w3.org/2000/svg">
<path class="secondary" d="M8.6 0C6.45175 0 4.39148 0.85339 2.87243 2.37243C1.35339 3.89148 0.5 5.95175 0.5 8.1C0.5 10.2483 1.35339 12.3085 2.87243 13.8276C4.39148 15.3466 6.45175 16.2 8.6 16.2C10.7483 16.2 12.8085 15.3466 14.3276 13.8276C15.8466 12.3085 16.7 10.2483 16.7 8.1C16.7 5.95175 15.8466 3.89148 14.3276 2.37243C12.8085 0.85339 10.7483 0 8.6 0V0ZM11.714 10.755C11.714 12.078 10.994 13.725 8.06 14.985C8.33 11.232 5.792 11.664 5.18 10.485C5.23574 9.99724 5.41334 9.53137 5.69646 9.13029C5.97957 8.72922 6.35907 8.40586 6.8 8.19C5.40335 7.95044 4.10083 7.32723 3.038 6.39C3.083 6.813 3.2891 7.2036 3.614 7.479C2.91012 7.21368 2.30194 6.74344 1.868 6.129C2.2971 4.71276 3.15529 3.46466 4.32408 2.55704C5.49287 1.64941 6.91461 1.12702 8.393 1.062C7.637 2.304 7.043 4.779 8.393 6.075C7.007 6.3 6.134 4.5 5.369 5.211C4.352 6.165 5.666 7.47 8.447 7.983C11.408 8.514 11.741 9.405 11.714 10.755ZM12.92 7.155C12.632 6.156 13.478 5.148 14.441 4.329C15.0424 5.1959 15.4252 6.19537 15.5569 7.24221C15.6885 8.28905 15.5651 9.35219 15.197 10.341C14.504 8.64 13.244 8.253 12.92 7.128V7.155Z" fill="#5F82A6"/>
</svg>
