<svg width="15" height="18" viewBox="0 0 15 18" fill="none" xmlns="http://www.w3.org/2000/svg">
<path class="secondary" d="M7.50001 0.25C5.6773 0.25215 3.92987 0.977169 2.64102 2.26602C1.35218 3.55486 0.627158 5.3023 0.625007 7.125C0.622824 8.61452 1.10937 10.0636 2.01001 11.25C2.01001 11.25 2.19751 11.4969 2.22813 11.5325L7.50001 17.75L12.7744 11.5294C12.8019 11.4963 12.99 11.25 12.99 11.25L12.9906 11.2481C13.8908 10.0623 14.3771 8.61383 14.375 7.125C14.3729 5.3023 13.6478 3.55486 12.359 2.26602C11.0701 0.977169 9.32271 0.25215 7.50001 0.25ZM7.50001 9.625C7.00555 9.625 6.52221 9.47838 6.11108 9.20367C5.69996 8.92897 5.37953 8.53852 5.19031 8.08171C5.00109 7.62489 4.95158 7.12223 5.04804 6.63727C5.14451 6.15232 5.38261 5.70686 5.73224 5.35723C6.08187 5.0076 6.52733 4.7695 7.01228 4.67304C7.49723 4.57657 7.9999 4.62608 8.45672 4.8153C8.91353 5.00452 9.30398 5.32495 9.57868 5.73607C9.85338 6.1472 10 6.63055 10 7.125C9.99918 7.78779 9.73552 8.42319 9.26686 8.89185C8.7982 9.36052 8.1628 9.62417 7.50001 9.625Z" fill="#5F82A6"/>
</svg>
