<svg width="12" height="6" viewBox="0 0 13 7" fill="none" xmlns="http://www.w3.org/2000/svg">
<g clip-path="url(#clip0)">
<path d="M5.76533 1.04619C6.23545 0.654573 6.99381 0.654573 7.46393 1.04619L12.2612 5.04524C12.7313 5.43685 12.7313 6.06858 12.2612 6.46019C11.7911 6.85181 11.0327 6.85181 10.5626 6.46019L5.7619 2.46115C5.29521 2.06953 5.29521 1.4378 5.76533 1.04619Z" fill="white"/>
<path d="M7.46479 1.04514C7.93491 1.43676 7.93491 2.06848 7.46479 2.4601L2.66411 6.45629C2.19399 6.8479 1.43563 6.8479 0.96551 6.45629C0.495393 6.06467 0.495393 5.43294 0.96551 5.04133L5.7662 1.04514C6.23631 0.653525 6.99468 0.653525 7.46479 1.04514Z" fill="white"/>
</g>
<defs>
<clipPath id="clip0">
<rect width="12" height="6" fill="white" transform="translate(12.6152 6.75) rotate(-180)"/>
</clipPath>
</defs>
</svg>
