<svg width="42" height="42" viewBox="0 0 42 42" fill="none" xmlns="http://www.w3.org/2000/svg">
<path class="secondary"  fill-rule="evenodd" clip-rule="evenodd" d="M32.6374 6.82422H9.34486C7.97244 6.82422 6.85986 7.93679 6.85986 9.30922V22.0142C6.85986 23.3866 7.97244 24.4992 9.34486 24.4992H32.6374C34.0098 24.4992 35.1224 23.3866 35.1224 22.0142V9.30922C35.1224 7.93679 34.0098 6.82422 32.6374 6.82422ZM9.34486 5.07422H32.6374C34.9763 5.07422 36.8724 6.97029 36.8724 9.30922V22.0142C36.8724 24.3531 34.9763 26.2492 32.6374 26.2492H9.34486C7.00594 26.2492 5.10986 24.3531 5.10986 22.0142V9.30922C5.10986 6.97029 7.00594 5.07422 9.34486 5.07422Z" fill="#323751"/>
<path class="secondary" fill-rule="evenodd" clip-rule="evenodd" d="M10.5 12.25V15.75H15.47V12.25H10.5ZM9.94 10.5H16.03C16.6872 10.5 17.22 11.0871 17.22 11.8113V16.1887C17.22 16.9129 16.6872 17.5 16.03 17.5H9.94C9.28278 17.5 8.75 16.9129 8.75 16.1887V11.8113C8.75 11.0871 9.28278 10.5 9.94 10.5Z" fill="#323751"/>
<path class="secondary" fill-rule="evenodd" clip-rule="evenodd" d="M31.5 22.0859H10.5V20.3359H31.5V22.0859Z" fill="#323751"/>
<path class="secondary" fill-rule="evenodd" clip-rule="evenodd" d="M31.4825 15.75H26.25V14H31.4825V15.75Z" fill="#323751"/>
<path class="secondary" fill-rule="evenodd" clip-rule="evenodd" d="M9.625 13.125H12.4075V14.875H9.625V13.125Z" fill="#323751"/>
<path class="secondary" fill-rule="evenodd" clip-rule="evenodd" d="M7 28C7 28.4641 7.18437 28.9092 7.51256 29.2374C7.84075 29.5656 8.28587 29.75 8.75 29.75H33.25C33.7141 29.75 34.1592 29.5656 34.4874 29.2374C34.8156 28.9092 35 28.4641 35 28H36.75C36.75 28.9283 36.3812 29.8185 35.7249 30.4749C35.0685 31.1313 34.1783 31.5 33.25 31.5H8.75C7.82174 31.5 6.9315 31.1313 6.27513 30.4749C5.61875 29.8185 5.25 28.9283 5.25 28H7Z" fill="#323751" />
<path class="secondary" fill-rule="evenodd" clip-rule="evenodd" d="M7 33.25C7 33.7141 7.18437 34.1592 7.51256 34.4874C7.84075 34.8156 8.28587 35 8.75 35H33.25C33.7141 35 34.1592 34.8156 34.4874 34.4874C34.8156 34.1592 35 33.7141 35 33.25H36.75C36.75 34.1783 36.3812 35.0685 35.7249 35.7249C35.0685 36.3813 34.1783 36.75 33.25 36.75H8.75C7.82174 36.75 6.9315 36.3813 6.27513 35.7249C5.61875 35.0685 5.25 34.1783 5.25 33.25H7Z" fill="#323751" />
</svg>
