<svg width="20" height="20" viewBox="0 0 20 20" fill="none" xmlns="http://www.w3.org/2000/svg">
<g filter="url(#filter0_d)">
<path d="M18 8C18 12.4183 14.4183 16 10 16C5.58172 16 2 12.4183 2 8C2 3.58172 5.58172 0 10 0C14.4183 0 18 3.58172 18 8Z" fill="white"/>
<path class="secondary" d="M17.5 8C17.5 12.1421 14.1421 15.5 10 15.5C5.85786 15.5 2.5 12.1421 2.5 8C2.5 3.85786 5.85786 0.5 10 0.5C14.1421 0.5 17.5 3.85786 17.5 8Z" stroke="#5F81A6"/>
</g>
<path class="secondary" d="M10 6.80762L11.1997 4.60156H12.7158L10.8525 7.77441L12.7642 11H11.2305L10 8.75879L8.76953 11H7.23584L9.14746 7.77441L7.28418 4.60156H8.80029L10 6.80762Z" fill="#5F82A6"/>
<defs>
<filter id="filter0_d" x="0" y="0" width="20" height="20" filterUnits="userSpaceOnUse" color-interpolation-filters="sRGB">
<feFlood flood-opacity="0" result="BackgroundImageFix"/>
<feColorMatrix in="SourceAlpha" type="matrix" values="0 0 0 0 0 0 0 0 0 0 0 0 0 0 0 0 0 0 127 0" result="hardAlpha"/>
<feOffset dy="2"/>
<feGaussianBlur stdDeviation="1"/>
<feColorMatrix type="matrix" values="0 0 0 0 0 0 0 0 0 0 0 0 0 0 0 0 0 0 0.25 0"/>
<feBlend mode="normal" in2="BackgroundImageFix" result="effect1_dropShadow"/>
<feBlend mode="normal" in="SourceGraphic" in2="effect1_dropShadow" result="shape"/>
</filter>
</defs>
</svg>
