<svg width="50" height="50" viewBox="0 0 50 50" fill="none" xmlns="http://www.w3.org/2000/svg">
<path class="secondary" d="M38.6833 0H11.3167C5.06665 0 0 5.08767 0 11.3636V38.6364C0 44.9123 5.06665 50 11.3167 50H38.6833C44.9333 50 50 44.9123 50 38.6364V11.3636C50 5.08767 44.9333 0 38.6833 0Z" fill="#5F82A6"/>
<path d="M24.9416 34.5418C30.2839 34.5418 34.6147 30.193 34.6147 24.8286C34.6147 19.4641 30.2839 15.1154 24.9416 15.1154C19.5993 15.1154 15.2686 19.4641 15.2686 24.8286C15.2686 30.193 19.5993 34.5418 24.9416 34.5418Z" fill="#333750"/>
<path d="M25.2154 39.7771C33.4372 39.7771 40.1023 33.0844 40.1023 24.8285C40.1023 16.5726 33.4372 9.87991 25.2154 9.87991C16.9937 9.87991 10.3286 16.5726 10.3286 24.8285C10.3286 33.0844 16.9937 39.7771 25.2154 39.7771Z" stroke="white" stroke-width="1.29334" stroke-linecap="round" stroke-linejoin="round"/>
<path d="M19.9524 22.0283L25.2919 27.39L42.734 9.87552" stroke="white" stroke-width="1.29334" stroke-linecap="round" stroke-linejoin="round"/>
</svg>
