<svg width="42" height="42" viewBox="0 0 42 42" fill="none" xmlns="http://www.w3.org/2000/svg">
<path class="secondary" fill-rule="evenodd" clip-rule="evenodd" d="M11.9175 20.51H8.75C8.28587 20.51 7.84075 20.3256 7.51256 19.9974C7.18438 19.6693 7 19.2241 7 18.76V8.75C7 8.28587 7.18437 7.84075 7.51256 7.51256C7.84075 7.18437 8.28587 7 8.75 7H33.25C33.7141 7 34.1592 7.18437 34.4874 7.51256C34.8156 7.84075 35 8.28587 35 8.75V18.76C35 19.2241 34.8156 19.6693 34.4874 19.9974C34.1593 20.3256 33.7141 20.51 33.25 20.51H30.4675V22.26H33.25C34.1783 22.26 35.0685 21.8913 35.7249 21.2349C36.3813 20.5785 36.75 19.6883 36.75 18.76V8.75C36.75 7.82174 36.3813 6.9315 35.7249 6.27513C35.0685 5.61875 34.1783 5.25 33.25 5.25H8.75C7.82174 5.25 6.9315 5.61875 6.27513 6.27513C5.61875 6.9315 5.25 7.82174 5.25 8.75V18.76C5.25 19.6883 5.61875 20.5785 6.27513 21.2349C6.9315 21.8913 7.82174 22.26 8.75 22.26H11.9175V27.8949C11.9175 28.6747 12.2272 29.4225 12.7786 29.9738C13.33 30.5252 14.0778 30.8349 14.8575 30.8349H27.1075C27.4965 30.8396 27.8826 30.7669 28.2433 30.6213C28.6041 30.4756 28.9323 30.2598 29.2091 29.9863C29.4858 29.7128 29.7055 29.3872 29.8554 29.0282C30.0053 28.6692 30.0825 28.284 30.0825 27.8949V16.5549H28.3325V27.8951C28.3325 28.0525 28.3013 28.2084 28.2406 28.3537C28.1799 28.4991 28.091 28.6309 27.979 28.7416C27.867 28.8522 27.7341 28.9396 27.5881 28.9986C27.4421 29.0575 27.2858 29.0869 27.1283 29.0851L14.8575 29.0849C14.5419 29.0849 14.2392 28.9596 14.016 28.7364C13.7929 28.5132 13.6675 28.2105 13.6675 27.8949V16.5549H11.9175V20.51ZM21.8681 17.1794C21.9458 17.2041 22.0226 17.2321 22.0983 17.2634C22.6227 17.4807 23.0709 17.8485 23.3863 18.3205C23.7017 18.7925 23.87 19.3473 23.87 19.915H22.12C22.12 19.6935 22.0543 19.4769 21.9312 19.2927C21.8082 19.1086 21.6332 18.965 21.4286 18.8802C21.2239 18.7955 20.9987 18.7733 20.7815 18.8165C20.5642 18.8597 20.3647 18.9664 20.208 19.123C20.0514 19.2797 19.9447 19.4792 19.9015 19.6965C19.8583 19.9137 19.8805 20.1389 19.9652 20.3436C20.05 20.5482 20.1936 20.7232 20.3777 20.8462C20.5598 20.9679 20.7735 21.0335 20.9924 21.035V21.0349C21.5645 21.03 22.1252 21.1951 22.6034 21.5093C23.0815 21.8236 23.4555 22.2728 23.6779 22.7999C23.9003 23.3271 23.9611 23.9084 23.8525 24.4702C23.744 25.032 23.471 25.5488 23.0681 25.9552C22.7322 26.294 22.3186 26.5433 21.8653 26.6826L21.8749 27.588L20.125 27.6066L20.115 26.6652C20.0487 26.6434 19.9831 26.6191 19.9184 26.5924C19.3893 26.3747 18.9368 26.0046 18.6184 25.5292C18.3 25.0538 18.13 24.4946 18.13 23.9224L19.88 23.9224C19.88 24.1478 19.947 24.3681 20.0724 24.5553C20.1978 24.7426 20.3761 24.8884 20.5845 24.9742C20.7929 25.06 21.0221 25.0819 21.2431 25.0372C21.464 24.9925 21.6666 24.8832 21.8253 24.7231C21.984 24.5631 22.0915 24.3595 22.1343 24.1382C22.1771 23.9169 22.1531 23.6878 22.0655 23.4802C21.9779 23.2725 21.8306 23.0955 21.6422 22.9717C21.4539 22.8479 21.233 22.7829 21.0076 22.7849L21 21.9101V22.785C20.4323 22.785 19.8775 22.6167 19.4055 22.3013C18.9335 21.9859 18.5657 21.5377 18.3484 21.0133C18.1312 20.4889 18.0744 19.9118 18.1851 19.3551C18.2959 18.7983 18.5692 18.287 18.9706 17.8856C19.2932 17.563 19.6869 17.3231 20.118 17.1838L20.1076 16.285L21.8575 16.2646L21.8681 17.1794ZM9.625 12.0923H32.375V13.8423H9.625V12.0923ZM20.9804 35.2505L17.4456 32.0138L16.2638 33.3044L19.8234 36.5638L19.8329 36.5721C20.1572 36.8523 20.5714 37.0065 21 37.0065C21.4286 37.0065 21.8428 36.8523 22.1671 36.5721L22.1766 36.5638L25.7362 33.3044L24.5544 32.0138L21.0196 35.2505C21.0139 35.2544 21.007 35.2565 21 35.2565C20.993 35.2565 20.9862 35.2544 20.9804 35.2505Z" fill="#333750"/>
</svg>
