<svg width="27" height="32" viewBox="0 0 27 32" fill="none" xmlns="http://www.w3.org/2000/svg">
<g clip-path="url(#clip0)">
<path class="secondary" d="M19.2483 17.521H5.59166C5.25482 17.521 4.98145 17.2424 4.98145 16.8992C4.98145 16.5559 5.25482 16.2773 5.59166 16.2773H19.2507C19.5875 16.2773 19.8609 16.5559 19.8609 16.8992C19.8609 17.2424 19.5851 17.521 19.2483 17.521Z" fill="#5F82A6"/>
<path class="secondary" d="M19.2483 22.0718H5.59166C5.25482 22.0718 4.98145 21.7932 4.98145 21.45C4.98145 21.1067 5.25482 20.8281 5.59166 20.8281H19.2507C19.5875 20.8281 19.8609 21.1067 19.8609 21.45C19.8609 21.7932 19.5851 22.0718 19.2483 22.0718Z" fill="#5F82A6"/>
<path class="secondary" d="M23.547 28.8485H0.756698C0.41986 28.8485 0.146484 28.5699 0.146484 28.2267V5.00465C0.146484 4.6614 0.41986 4.38281 0.756698 4.38281H23.547C23.8838 4.38281 24.1572 4.6614 24.1572 5.00465V28.2292C24.1572 28.5699 23.8838 28.8485 23.547 28.8485ZM1.36691 27.6048H22.9368V5.62649H1.36691V27.6048Z" fill="#5F82A6"/>
<path class="secondary" d="M25.5359 31.0268H5.59166C5.25482 31.0268 4.98145 30.7482 4.98145 30.4049C4.98145 30.0617 5.25482 29.7831 5.59166 29.7831H24.9257V7.18043C24.9257 6.83718 25.1991 6.55859 25.5359 6.55859C25.8727 6.55859 26.1461 6.83718 26.1461 7.18043V30.4049C26.1461 30.7482 25.8727 31.0268 25.5359 31.0268Z" fill="#5F82A6"/>
<path class="secondary" d="M7.38361 14.857H6.22664C4.87929 14.857 3.78091 13.7402 3.78091 12.3647C3.78091 12.0214 4.05428 11.7428 4.39112 11.7428C4.72796 11.7428 5.00133 12.0214 5.00133 12.3647C5.00133 13.0537 5.55053 13.6133 6.22664 13.6133H7.38361C8.05973 13.6133 8.60892 13.0537 8.60892 12.3647V3.39772C8.60892 2.22617 7.67407 1.27103 6.52199 1.27103H5.56029C4.41065 1.27103 3.47336 2.22617 3.47336 3.39772V13.3546C3.47336 13.6979 3.19998 13.9765 2.86314 13.9765C2.52631 13.9765 2.25293 13.6979 2.25293 13.3546V3.39772C2.25293 1.53966 3.73697 0.0273438 5.56029 0.0273438H6.52199C8.34531 0.0273438 9.82935 1.53966 9.82935 3.39772V12.3672C9.82935 13.7402 8.7334 14.857 7.38361 14.857Z" fill="#5F82A6"/>
<path class="secondary" d="M4.39342 12.9895C4.05658 12.9895 3.7832 12.7109 3.7832 12.3677V4.95533C3.7832 3.64946 4.82545 2.58984 6.10446 2.58984C7.38347 2.58984 8.42571 3.65195 8.42571 4.95533C8.42571 5.29858 8.15234 5.57717 7.8155 5.57717C7.47866 5.57717 7.20529 5.29858 7.20529 4.95533C7.20529 4.33597 6.71223 3.83353 6.10446 3.83353C5.49669 3.83353 5.00363 4.33597 5.00363 4.95533V12.3677C5.00363 12.7109 4.73026 12.9895 4.39342 12.9895Z" fill="#5F82A6"/>
</g>
<defs>
<clipPath id="clip0">
<rect width="26" height="31" fill="white" transform="translate(0.146484 0.0273438)"/>
</clipPath>
</defs>
</svg>
