<svg width="20" height="20" viewBox="0 0 20 20" fill="none" xmlns="http://www.w3.org/2000/svg">
<g filter="url(#filter0_d)">
<circle cx="10" cy="8" r="8" fill="#F9F9F9"/>
</g>
<path fill-rule="evenodd" clip-rule="evenodd" d="M14.2578 8.1632C14.317 8.2148 14.3639 8.2761 14.3959 8.34358C14.4279 8.41107 14.4443 8.48342 14.4443 8.55649C14.4443 8.62955 14.4279 8.7019 14.3959 8.76939C14.3639 8.83688 14.317 8.89818 14.2578 8.94978L10.4492 12.2827C10.3902 12.3345 10.3201 12.3755 10.243 12.4035C10.1659 12.4315 10.0832 12.4459 9.99973 12.4459C9.91623 12.4459 9.83355 12.4315 9.75643 12.4035C9.67931 12.3755 9.60926 12.3345 9.5503 12.2827L5.74161 8.94978C5.62241 8.84547 5.55545 8.704 5.55545 8.55649C5.55545 8.40897 5.62241 8.2675 5.74161 8.1632C5.8608 8.05889 6.02246 8.00029 6.19103 8.00029C6.3596 8.00029 6.52126 8.05889 6.64046 8.1632L9.99973 11.104L13.359 8.1632C13.418 8.11147 13.488 8.07042 13.5651 8.04242C13.6422 8.01441 13.7249 8 13.8084 8C13.8919 8 13.9746 8.01441 14.0517 8.04242C14.1288 8.07042 14.1989 8.11147 14.2578 8.1632Z" fill="#3FC93C"/>
<path fill-rule="evenodd" clip-rule="evenodd" d="M9.99949 3.55469C10.1678 3.55469 10.3293 3.61321 10.4484 3.71739C10.5674 3.82156 10.6343 3.96285 10.6343 4.11018L10.6343 11.3316C10.6343 11.4789 10.5674 11.6202 10.4484 11.7244C10.3293 11.8286 10.1678 11.8871 9.99949 11.8871C9.83114 11.8871 9.66968 11.8286 9.55064 11.7244C9.43159 11.6202 9.36471 11.4789 9.36471 11.3316L9.36471 4.11018C9.36471 3.96285 9.43159 3.82156 9.55064 3.71739C9.66968 3.61321 9.83114 3.55469 9.99949 3.55469Z" fill="#3FC93C"/>
<defs>
<filter id="filter0_d" x="0" y="0" width="20" height="20" filterUnits="userSpaceOnUse" color-interpolation-filters="sRGB">
<feFlood flood-opacity="0" result="BackgroundImageFix"/>
<feColorMatrix in="SourceAlpha" type="matrix" values="0 0 0 0 0 0 0 0 0 0 0 0 0 0 0 0 0 0 127 0"/>
<feOffset dy="2"/>
<feGaussianBlur stdDeviation="1"/>
<feColorMatrix type="matrix" values="0 0 0 0 0 0 0 0 0 0 0 0 0 0 0 0 0 0 0.15 0"/>
<feBlend mode="normal" in2="BackgroundImageFix" result="effect1_dropShadow"/>
<feBlend mode="normal" in="SourceGraphic" in2="effect1_dropShadow" result="shape"/>
</filter>
</defs>
</svg>
