<svg width="20" height="20" viewBox="0 0 20 20" fill="none" xmlns="http://www.w3.org/2000/svg">
<g filter="url(#filter0_d)">
<circle cx="10" cy="8" r="8" fill="#F9F9F9"/>
</g>
<path fill-rule="evenodd" clip-rule="evenodd" d="M5.74215 7.8368C5.68304 7.7852 5.63614 7.7239 5.60414 7.65642C5.57214 7.58893 5.55566 7.51658 5.55566 7.44351C5.55566 7.37045 5.57214 7.2981 5.60414 7.23061C5.63614 7.16312 5.68304 7.10182 5.74215 7.05022L9.55085 3.71726C9.60982 3.66553 9.67986 3.62449 9.75698 3.59649C9.8341 3.56848 9.91678 3.55407 10.0003 3.55407C10.0838 3.55407 10.1664 3.56848 10.2436 3.59649C10.3207 3.62449 10.3907 3.66553 10.4497 3.71726L14.2584 7.05022C14.3776 7.15453 14.4446 7.296 14.4446 7.44351C14.4446 7.59103 14.3776 7.7325 14.2584 7.8368C14.1392 7.94111 13.9775 7.99971 13.809 7.99971C13.6404 7.99971 13.4787 7.94111 13.3595 7.8368L10.0003 4.89602L6.64101 7.8368C6.58204 7.88853 6.51199 7.92958 6.43487 7.95758C6.35775 7.98559 6.27508 8 6.19158 8C6.10809 8 6.02541 7.98559 5.94829 7.95758C5.87117 7.92958 5.80112 7.88853 5.74215 7.8368Z" fill="#FF2727"/>
<path fill-rule="evenodd" clip-rule="evenodd" d="M10.0005 12.4453C9.83215 12.4453 9.67069 12.3868 9.55165 12.2826C9.4326 12.1784 9.36572 12.0371 9.36572 11.8898V4.6684C9.36572 4.52108 9.4326 4.37978 9.55165 4.27561C9.67069 4.17143 9.83215 4.11291 10.0005 4.11291C10.1689 4.11291 10.3303 4.17143 10.4494 4.27561C10.5684 4.37978 10.6353 4.52108 10.6353 4.6684V11.8898C10.6353 12.0371 10.5684 12.1784 10.4494 12.2826C10.3303 12.3868 10.1689 12.4453 10.0005 12.4453Z" fill="#FF2727"/>
<defs>
<filter id="filter0_d" x="0" y="0" width="20" height="20" filterUnits="userSpaceOnUse" color-interpolation-filters="sRGB">
<feFlood flood-opacity="0" result="BackgroundImageFix"/>
<feColorMatrix in="SourceAlpha" type="matrix" values="0 0 0 0 0 0 0 0 0 0 0 0 0 0 0 0 0 0 127 0"/>
<feOffset dy="2"/>
<feGaussianBlur stdDeviation="1"/>
<feColorMatrix type="matrix" values="0 0 0 0 0 0 0 0 0 0 0 0 0 0 0 0 0 0 0.15 0"/>
<feBlend mode="normal" in2="BackgroundImageFix" result="effect1_dropShadow"/>
<feBlend mode="normal" in="SourceGraphic" in2="effect1_dropShadow" result="shape"/>
</filter>
</defs>
</svg>
