<svg width="10" height="10" viewBox="0 0 10 10" fill="none" xmlns="http://www.w3.org/2000/svg">
<path fill-rule="evenodd" clip-rule="evenodd" d="M0.888151 4.86415C0.829036 4.81255 0.782134 4.75125 0.750133 4.68376C0.718132 4.61627 0.70166 4.54392 0.70166 4.47086C0.70166 4.39779 0.718132 4.32544 0.750133 4.25796C0.782134 4.19047 0.829036 4.12917 0.888151 4.07757L4.69685 0.744607C4.75581 0.692876 4.82586 0.651834 4.90298 0.623829C4.9801 0.595825 5.06278 0.58141 5.14627 0.58141C5.22977 0.58141 5.31244 0.595825 5.38956 0.623829C5.46668 0.651834 5.53673 0.692876 5.5957 0.744607L9.40439 4.07757C9.52359 4.18187 9.59055 4.32335 9.59055 4.47086C9.59055 4.61837 9.52359 4.75984 9.40439 4.86415C9.2852 4.96845 9.12353 5.02705 8.95497 5.02705C8.7864 5.02705 8.62473 4.96845 8.50554 4.86415L5.14627 1.92336L1.787 4.86415C1.72804 4.91588 1.65799 4.95692 1.58087 4.98492C1.50375 5.01293 1.42107 5.02734 1.33758 5.02734C1.25408 5.02734 1.17141 5.01293 1.09429 4.98492C1.01717 4.95692 0.947117 4.91588 0.888151 4.86415Z" fill="#FF2727"/>
<path fill-rule="evenodd" clip-rule="evenodd" d="M5.1465 9.47266C4.97815 9.47266 4.81669 9.41413 4.69764 9.30996C4.5786 9.20578 4.51172 9.06449 4.51172 8.91716L4.51172 1.69575C4.51172 1.54842 4.5786 1.40713 4.69764 1.30295C4.81669 1.19878 4.97815 1.14025 5.1465 1.14025C5.31486 1.14025 5.47632 1.19878 5.59536 1.30295C5.71441 1.40713 5.78128 1.54842 5.78128 1.69575V8.91716C5.78128 9.06449 5.71441 9.20578 5.59536 9.30996C5.47632 9.41413 5.31486 9.47266 5.1465 9.47266Z" fill="#FF2727"/>
</svg>
