<svg width="21" height="20" viewBox="0 0 21 20" fill="none" xmlns="http://www.w3.org/2000/svg">
<path fill-rule="evenodd" clip-rule="evenodd" d="M10.131 2.14986C10.1309 2.1501 10.1311 2.14962 10.131 2.14986L8.22969 8.04492H2.01559C1.69256 8.04492 1.47862 8.084 1.35361 8.13082C1.33714 8.13698 1.32335 8.1428 1.31187 8.14811C1.31777 8.15857 1.32509 8.1706 1.33416 8.1843C1.40712 8.29446 1.55666 8.45072 1.81814 8.63945C1.81816 8.63946 1.81812 8.63943 1.81814 8.63945L6.85444 12.2732L4.92097 18.1799C4.92092 18.18 4.92102 18.1797 4.92097 18.1799C4.82104 18.4866 4.79187 18.7025 4.79776 18.8359C4.79856 18.8541 4.79991 18.8695 4.8015 18.8824C4.81381 18.88 4.82829 18.8766 4.84516 18.872C4.97322 18.8365 5.16901 18.7423 5.43053 18.5513C5.43058 18.5512 5.43049 18.5513 5.43053 18.5513L10.4456 14.8856L15.4605 18.5512C15.4605 18.5512 15.4605 18.5511 15.4605 18.5512C15.722 18.7422 15.9179 18.8365 16.046 18.872C16.0629 18.8766 16.0774 18.88 16.0897 18.8824C16.0913 18.8695 16.0926 18.8541 16.0934 18.8359C16.0993 18.7025 16.0703 18.4871 15.9704 18.1805C15.9703 18.1803 15.9705 18.1807 15.9704 18.1805L14.0364 12.2935L19.073 8.65949C19.073 8.65948 19.073 8.6595 19.073 8.65949C19.3344 8.47076 19.484 8.31445 19.557 8.2043C19.5661 8.1906 19.5734 8.17856 19.5793 8.16811C19.5678 8.1628 19.554 8.15698 19.5376 8.15082C19.4126 8.104 19.1986 8.06492 18.8756 8.06492H12.6611L10.7602 2.14986C10.7601 2.14958 10.7603 2.15014 10.7602 2.14986C10.6601 1.84294 10.5567 1.65111 10.4738 1.54701C10.4633 1.53382 10.4539 1.5229 10.4456 1.51388C10.4373 1.5229 10.4279 1.53382 10.4174 1.54701C10.3344 1.65112 10.2311 1.84287 10.131 2.14986ZM11.2561 0.924084C11.4419 1.15739 11.5912 1.4724 11.711 1.83998L11.7116 1.84194L13.3901 7.06492H18.8756C19.2626 7.06492 19.6086 7.1096 19.8883 7.21434C20.1637 7.31747 20.4489 7.5101 20.5595 7.84819C20.6704 8.18703 20.5533 8.51102 20.3907 8.75648C20.2259 9.00538 19.9717 9.2441 19.6582 9.47035L15.2148 12.6764L16.921 17.87C17.0409 18.238 17.1056 18.5812 17.0924 18.8799C17.0795 19.1742 16.9842 19.5052 16.6966 19.7151C16.4084 19.9253 16.0638 19.9145 15.7792 19.8357C15.4907 19.7558 15.1841 19.5876 14.8707 19.3587L10.4456 16.1242L6.02064 19.3586C5.70722 19.5875 5.40043 19.7558 5.11195 19.8357C4.8274 19.9145 4.48273 19.9253 4.1946 19.7151C3.90701 19.5052 3.81171 19.1742 3.79873 18.8799C3.78555 18.5812 3.85025 18.238 3.9702 17.87L5.67673 12.6566L1.23303 9.4504C0.919544 9.22414 0.665292 8.98538 0.500444 8.73648C0.33787 8.49102 0.220761 8.16703 0.331625 7.82819C0.442244 7.4901 0.727516 7.29747 1.00288 7.19434C1.28255 7.0896 1.62861 7.04492 2.01559 7.04492H7.50148L9.17972 1.84145L9.1802 1.83998C9.3 1.4724 9.44929 1.15739 9.63507 0.924084C9.81805 0.694297 10.0894 0.482422 10.4456 0.482422C10.8017 0.482422 11.0731 0.694297 11.2561 0.924084Z" fill="white"/>
</svg>
