<svg width="49" height="44" viewBox="0 0 49 44" fill="none" xmlns="http://www.w3.org/2000/svg">
<g clip-path="url(#clip0_19208:6264)">
<path class="secondary" d="M23.5398 44C35.4162 44 45.0439 34.1503 45.0439 22C45.0439 9.84974 35.4162 0 23.5398 0C11.6634 0 2.03564 9.84974 2.03564 22C2.03564 34.1503 11.6634 44 23.5398 44Z" fill="#F6F6F6"/>
<path class="secondary" d="M23.7717 32.617C29.1183 32.617 33.4526 28.3629 33.4526 23.1151C33.4526 17.8674 29.1183 13.6133 23.7717 13.6133C18.4251 13.6133 14.0908 17.8674 14.0908 23.1151C14.0908 28.3629 18.4251 32.617 23.7717 32.617Z" fill="#F6F6F6"/>
<path class="secondary" d="M27.1512 8.44813H19.4179C17.5323 8.44813 16 6.94413 16 5.09343C16 4.70454 16.3198 4.39062 16.716 4.39062C17.1123 4.39062 17.4321 4.70454 17.4321 5.09343C17.4321 6.16637 18.3248 7.04253 19.4179 7.04253H27.1512C28.2443 7.04253 29.137 6.16637 29.137 5.09343C29.137 4.70454 29.4568 4.39062 29.853 4.39062C30.2492 4.39062 30.5691 4.70454 30.5691 5.09343C30.5691 6.93945 29.0367 8.44813 27.1512 8.44813Z" fill="#5F82A6"/>
<path class="secondary" d="M30.2734 42.4567H17.2653C14.3629 42.4567 12 40.1374 12 37.2887C12 36.8999 12.3198 36.5859 12.716 36.5859C13.1123 36.5859 13.4321 36.8999 13.4321 37.2887C13.4321 39.3643 15.1506 41.0511 17.2653 41.0511H30.2782C32.3929 41.0511 34.1114 39.3643 34.1114 37.2887C34.1114 36.8999 34.4312 36.5859 34.8274 36.5859C35.2236 36.5859 35.5435 36.8999 35.5435 37.2887C35.5387 40.1374 33.1757 42.4567 30.2734 42.4567Z" fill="#333750"/>
<path class="secondary" d="M23.7669 40.5675C22.5401 40.5675 21.5376 39.5883 21.5376 38.3795C21.5376 37.1706 22.5353 36.1914 23.7669 36.1914C24.9985 36.1914 25.9962 37.1706 25.9962 38.3795C25.9962 39.5883 24.9985 40.5675 23.7669 40.5675ZM23.7669 37.597C23.3277 37.597 22.9697 37.9484 22.9697 38.3795C22.9697 38.8105 23.3277 39.1619 23.7669 39.1619C24.206 39.1619 24.5641 38.8105 24.5641 38.3795C24.5641 37.9484 24.206 37.597 23.7669 37.597Z" fill="#5F82A6"/>
<path class="secondary" d="M32.0683 36.1321H15.4704C13.5562 36.1321 12 34.6046 12 32.7258V30.1582C12 29.7694 12.3198 29.4554 12.716 29.4554C13.1123 29.4554 13.4321 29.7694 13.4321 30.1582V32.7258C13.4321 33.8269 14.3438 34.7265 15.4704 34.7265H32.073C33.1948 34.7265 34.1114 33.8316 34.1114 32.7258V7.40624C34.1114 6.30519 33.1996 5.4056 32.073 5.4056H15.4704C14.3486 5.4056 13.4321 6.3005 13.4321 7.40624V15.3432C13.4321 15.7321 13.1123 16.046 12.716 16.046C12.3198 16.046 12 15.7321 12 15.3432V7.40624C12 5.52742 13.5562 4 15.4704 4H32.073C33.9873 4 35.5435 5.52742 35.5435 7.40624V32.7305C35.5387 34.6046 33.9825 36.1321 32.0683 36.1321Z" fill="#5F82A6"/>
<path class="secondary" d="M24.3543 22.6128C21.9751 22.6128 20.0391 20.8812 20.0391 18.7576C20.0391 16.6339 21.9751 14.9023 24.3543 14.9023C26.7334 14.9023 28.6694 16.6339 28.6694 18.7576C28.6694 19.0965 28.402 19.3701 28.0707 19.3701C27.7393 19.3701 27.4719 19.0965 27.4719 18.7576C27.4719 17.3078 26.0747 16.1275 24.3543 16.1275C22.6338 16.1275 21.2366 17.3078 21.2366 18.7576C21.2366 20.2073 22.6338 21.3876 24.3543 21.3876C24.6856 21.3876 24.953 21.6612 24.953 22.0002C24.953 22.3391 24.6856 22.6128 24.3543 22.6128Z" fill="#333750"/>
<path class="secondary" d="M24.3543 29.101C21.9751 29.101 20.0391 27.3695 20.0391 25.2458C20.0391 24.9069 20.3065 24.6332 20.6378 24.6332C20.9692 24.6332 21.2366 24.9069 21.2366 25.2458C21.2366 26.6956 22.6338 27.8759 24.3543 27.8759C26.0747 27.8759 27.4719 26.6956 27.4719 25.2458C27.4719 23.796 26.0747 22.6158 24.3543 22.6158C24.0229 22.6158 23.7555 22.3422 23.7555 22.0032C23.7555 21.6642 24.0229 21.3906 24.3543 21.3906C26.7334 21.3906 28.6694 23.1222 28.6694 25.2458C28.6694 27.3695 26.7334 29.101 24.3543 29.101Z" fill="#333750"/>
<path class="secondary" d="M24.3542 16.1286C24.0228 16.1286 23.7554 15.855 23.7554 15.5161V13.2454C23.7554 12.9064 24.0228 12.6328 24.3542 12.6328C24.6855 12.6328 24.9529 12.9064 24.9529 13.2454V15.5161C24.9529 15.855 24.6855 16.1286 24.3542 16.1286Z" fill="#5F82A6"/>
<path class="secondary" d="M24.3542 31.9099C24.0228 31.9099 23.7554 31.6363 23.7554 31.2973V29.0266C23.7554 28.6877 24.0228 28.4141 24.3542 28.4141C24.6855 28.4141 24.9529 28.6877 24.9529 29.0266V31.2973C24.9529 31.6363 24.6855 31.9099 24.3542 31.9099Z" fill="#5F82A6"/>
</g>
<defs>
<clipPath id="clip0_19208:6264">
<rect width="49" height="44" fill="white"/>
</clipPath>
</defs>
</svg>
