<svg width="56" height="52" viewBox="0 0 56 52" fill="none" xmlns="http://www.w3.org/2000/svg">
<g clip-path="url(#clip0)">
<path class="secondary" d="M50.6855 44.2353H11.8621C11.4639 44.2353 11.1426 43.9097 11.1426 43.5063C11.1426 43.103 11.4639 42.7773 11.8621 42.7773H50.6855C51.0837 42.7773 51.405 43.103 51.405 43.5063C51.405 43.9097 51.0837 44.2353 50.6855 44.2353Z" fill="#5F82A6"/>
<path class="secondary" d="M9.42065 20.7197H5.07495C4.67684 20.7197 4.35547 20.3941 4.35547 19.9907C4.35547 19.5873 4.67684 19.2617 5.07495 19.2617H9.42065C9.81877 19.2617 10.1401 19.5873 10.1401 19.9907C10.1401 20.3941 9.81877 20.7197 9.42065 20.7197Z" fill="#5F82A6"/>
<path class="secondary" d="M9.54566 21.3246C9.14754 21.3246 8.82617 20.999 8.82617 20.5956V15.5024C8.82617 15.0991 9.14754 14.7734 9.54566 14.7734C9.94377 14.7734 10.2651 15.0991 10.2651 15.5024V20.5956C10.2651 20.999 9.94377 21.3246 9.54566 21.3246Z" fill="#5F82A6"/>
<path class="secondary" d="M13.5457 18.4443H7.30054C6.90243 18.4443 6.58105 18.1187 6.58105 17.7153C6.58105 17.3119 6.90243 16.9863 7.30054 16.9863H13.5457C13.9438 16.9863 14.2652 17.3119 14.2652 17.7153C14.2652 18.1187 13.9438 18.4443 13.5457 18.4443Z" fill="#5F82A6"/>
<path class="secondary" d="M15.6658 34.958H11.3201C10.922 34.958 10.6006 34.6324 10.6006 34.229C10.6006 33.8256 10.922 33.5 11.3201 33.5H15.6658C16.0639 33.5 16.3853 33.8256 16.3853 34.229C16.3853 34.6324 16.0639 34.958 15.6658 34.958Z" fill="#5F82A6"/>
<path class="secondary" d="M15.7908 37.1258C15.3927 37.1258 15.0713 36.8002 15.0713 36.3968V29.7388C15.0713 29.3354 15.3927 29.0098 15.7908 29.0098C16.1889 29.0098 16.5103 29.3354 16.5103 29.7388V36.3968C16.5103 36.8002 16.1889 37.1258 15.7908 37.1258Z" fill="#5F82A6"/>
<path class="secondary" d="M19.7956 32.6845H13.5457C13.1475 32.6845 12.8262 32.3589 12.8262 31.9556C12.8262 31.5522 13.1475 31.2266 13.5457 31.2266H19.7908C20.1889 31.2266 20.5103 31.5522 20.5103 31.9556C20.5103 32.3589 20.1889 32.6845 19.7956 32.6845Z" fill="#5F82A6"/>
<path class="secondary" d="M6.13482 36.7473C2.75323 36.7473 0 33.9577 0 30.5315V10.669C0 7.24272 2.75323 4.45312 6.13482 4.45312H31.2641C31.6622 4.45312 31.9836 4.77874 31.9836 5.18211C31.9836 5.58549 31.6622 5.9111 31.2641 5.9111H6.13482C3.54467 5.9111 1.43897 8.04461 1.43897 10.669V30.5315C1.43897 33.1558 3.54467 35.2893 6.13482 35.2893C6.53293 35.2893 6.8543 35.6149 6.8543 36.0183C6.8543 36.4217 6.53293 36.7473 6.13482 36.7473Z" fill="#5F82A6"/>
<path class="secondary" d="M49.8654 51.5559H12.6631C9.28155 51.5559 6.52832 48.7663 6.52832 45.34V25.4776C6.52832 22.0513 9.28155 19.2617 12.6631 19.2617C12.6823 19.2617 12.7015 19.2617 12.7207 19.2617H49.8702C53.2517 19.2617 56.005 22.0513 56.005 25.4776V45.34C56.0002 48.7663 53.2517 51.5559 49.8654 51.5559ZM12.6919 20.7197C12.6823 20.7197 12.6727 20.7197 12.6631 20.7197C10.073 20.7197 7.96729 22.8532 7.96729 25.4776V45.34C7.96729 47.9644 10.073 50.0979 12.6631 50.0979H49.8654C52.4555 50.0979 54.5612 47.9644 54.5612 45.34V25.4776C54.5612 22.8532 52.4555 20.7197 49.8654 20.7197H12.7207C12.7111 20.7197 12.7015 20.7197 12.6919 20.7197Z" fill="#5F82A6"/>
<path class="secondary" d="M6.93123 23.2567C5.51144 23.2567 4.35547 22.0854 4.35547 20.6469V16.9145C4.35547 15.4759 5.51144 14.3047 6.93123 14.3047H12.1595C13.5793 14.3047 14.7353 15.4759 14.7353 16.9145V19.8936C14.7353 20.297 14.4139 20.6226 14.0158 20.6226C13.6177 20.6226 13.2963 20.297 13.2963 19.8936V16.9145C13.2963 16.2778 12.7878 15.7627 12.1595 15.7627H6.93123C6.30288 15.7627 5.79444 16.2778 5.79444 16.9145V20.6469C5.79444 21.2835 6.30288 21.7987 6.93123 21.7987C7.32934 21.7987 7.65071 22.1243 7.65071 22.5277C7.65071 22.931 7.32934 23.2567 6.93123 23.2567Z" fill="#5F82A6"/>
<path class="secondary" d="M18.4046 37.491H13.1763C11.7566 37.491 10.6006 36.3198 10.6006 34.8813V31.1488C10.6006 29.7103 11.7566 28.5391 13.1763 28.5391H18.3998C19.8196 28.5391 20.9756 29.7103 20.9756 31.1488V34.8813C20.9804 36.3246 19.8244 37.491 18.4046 37.491ZM13.1763 30.0019C12.548 30.0019 12.0396 30.517 12.0396 31.1537V34.8861C12.0396 35.5228 12.548 36.0379 13.1763 36.0379H18.3998C19.0282 36.0379 19.5366 35.5228 19.5366 34.8861V31.1537C19.5366 30.517 19.0282 30.0019 18.3998 30.0019H13.1763Z" fill="#5F82A6"/>
<path class="secondary" d="M34.9285 16.2768C34.5304 16.2768 34.209 15.9512 34.209 15.5478C34.209 9.71103 38.8952 4.96289 44.6559 4.96289C45.054 4.96289 45.3754 5.28851 45.3754 5.69188C45.3754 6.09525 45.054 6.42087 44.6559 6.42087C39.6867 6.42087 35.648 10.5178 35.648 15.5478C35.648 15.9512 35.3266 16.2768 34.9285 16.2768Z" fill="#333750"/>
<path class="secondary" d="M44.656 26.1323C44.2579 26.1323 43.9365 25.8066 43.9365 25.4033C43.9365 24.9999 44.2579 24.6743 44.656 24.6743C49.6253 24.6743 53.664 20.5774 53.664 15.5473C53.664 15.144 53.9853 14.8184 54.3835 14.8184C54.7816 14.8184 55.1029 15.144 55.1029 15.5473C55.1077 21.3841 50.4215 26.1323 44.656 26.1323Z" fill="#333750"/>
<path class="secondary" d="M41.5768 10.8275C41.3945 10.8275 41.2122 10.7546 41.0683 10.6136C40.7853 10.3318 40.7853 9.87007 41.0635 9.58334L44.8816 5.69054L41.0635 1.79775C40.7853 1.51101 40.7853 1.04932 41.0683 0.767444C41.3513 0.485568 41.807 0.485568 42.0852 0.772303L46.9105 5.69054L42.0852 10.6136C41.9461 10.7546 41.759 10.8275 41.5768 10.8275Z" fill="#333750"/>
<path class="secondary" d="M47.5633 30.4534C47.3762 30.4534 47.1939 30.3805 47.0548 30.2396L42.2295 25.3165L47.0548 20.3934C47.333 20.1067 47.7887 20.1067 48.0717 20.3885C48.3547 20.6704 48.3547 21.1321 48.0765 21.4188L44.2584 25.3116L48.0765 29.2044C48.3547 29.4912 48.3547 29.9529 48.0717 30.2347C47.9278 30.3854 47.7456 30.4534 47.5633 30.4534Z" fill="#333750"/>
</g>
<defs>
<clipPath id="clip0">
<rect width="56" height="51" fill="white" transform="translate(0 0.554688)"/>
</clipPath>
</defs>
</svg>