<svg width="25" height="25" viewBox="0 0 25 25" fill="none" xmlns="http://www.w3.org/2000/svg">
<path fill-rule="evenodd" clip-rule="evenodd" d="M10.9312 7.39258H7.93115V10.3925H10.9312V7.39258ZM11.9312 6.39258V11.3925H6.93115V6.39258H11.9312Z" fill="#333750"/>
<path fill-rule="evenodd" clip-rule="evenodd" d="M10.9312 13.3926H7.93115V16.3926H10.9312V13.3926ZM11.9312 12.3926V17.3926H6.93115V12.3926H11.9312Z" fill="#333750"/>
<path fill-rule="evenodd" clip-rule="evenodd" d="M17.9312 7.39258H14.9312V10.3926H17.9312V7.39258ZM18.9312 6.39258V11.3926H13.9312V6.39258H18.9312Z" fill="#333750"/>
<path fill-rule="evenodd" clip-rule="evenodd" d="M17.9312 13.3926H14.9312V16.3926H17.9312V13.3926ZM18.9312 12.3926V17.3926H13.9312V12.3926H18.9312Z" fill="#333750"/>
<path fill-rule="evenodd" clip-rule="evenodd" d="M15.9312 14.3926H16.9312V15.3926H15.9312V14.3926Z" fill="#333750"/>
<path fill-rule="evenodd" clip-rule="evenodd" d="M8.93115 8.39258H9.93115V9.39258H8.93115V8.39258Z" fill="#333750"/>
<path fill-rule="evenodd" clip-rule="evenodd" d="M3.93115 3.39258H6.93115V4.39258H4.93115V6.39258H3.93115V3.39258Z" fill="#333750"/>
<path fill-rule="evenodd" clip-rule="evenodd" d="M21.9312 20.3926L18.9312 20.3926L18.9312 19.3926L20.9312 19.3926L20.9312 17.3926L21.9312 17.3926L21.9312 20.3926Z" fill="#333750"/>
<path fill-rule="evenodd" clip-rule="evenodd" d="M21.9312 3.39258L21.9312 6.39258L20.9312 6.39258L20.9312 4.39258L18.9312 4.39258L18.9312 3.39258L21.9312 3.39258Z" fill="#333750"/>
<path fill-rule="evenodd" clip-rule="evenodd" d="M3.93115 20.3926L3.93115 17.3926L4.93115 17.3926L4.93115 19.3926L6.93115 19.3926L6.93115 20.3926L3.93115 20.3926Z" fill="#333750"/>
</svg>
