<svg width="28" height="18" viewBox="0 0 28 18" fill="none" xmlns="http://www.w3.org/2000/svg">
<path d="M13.998 18C7.66777 18 2.62929 14.2941 0.441027 10.6235C-0.147009 9.63882 -0.147009 8.36471 0.441027 7.37647C2.62929 3.70588 7.66777 0 13.998 0C20.3475 0 25.3892 3.72 27.571 7.40824C28.143 8.37529 28.143 9.62471 27.571 10.5918C25.3892 14.28 20.3475 18 13.998 18ZM13.998 1.05882C8.02766 1.05882 3.29445 4.52471 1.24757 7.95529C0.871611 8.59059 0.871611 9.40941 1.24757 10.0412C3.29445 13.4753 8.02766 16.9412 13.998 16.9412C19.9555 16.9412 24.7915 13.3518 26.7645 10.0129C27.1276 9.39529 27.1276 8.60118 26.7645 7.98353C24.7883 4.64824 19.9523 1.05882 13.998 1.05882Z" fill="#323751"/>
<path d="M14 15C10.6914 15 8 12.3086 8 9C8 5.69143 10.6914 3 14 3C17.3086 3 20 5.69143 20 9C20 12.3086 17.3086 15 14 15ZM14 4.02857C11.2571 4.02857 9.02857 6.25714 9.02857 9C9.02857 11.7429 11.2571 13.9714 14 13.9714C16.7429 13.9714 18.9714 11.7429 18.9714 9C18.9714 6.25714 16.7394 4.02857 14 4.02857Z" fill="#323751"/>
</svg>
