<svg width="29" height="29" viewBox="0 0 29 29" fill="none" xmlns="http://www.w3.org/2000/svg">
<path fill-rule="evenodd" clip-rule="evenodd" d="M8.23308 14.1558H6.12142C5.812 14.1558 5.51525 14.0328 5.29646 13.814C5.07767 13.5953 4.95475 13.2985 4.95475 12.9891V6.31576C4.95475 6.00634 5.07767 5.70959 5.29646 5.4908C5.51525 5.272 5.812 5.14909 6.12142 5.14909H22.4548C22.7642 5.14909 23.0609 5.272 23.2797 5.4908C23.4985 5.70959 23.6214 6.00634 23.6214 6.31576V12.9891C23.6214 13.2985 23.4985 13.5953 23.2797 13.814C23.0609 14.0328 22.7642 14.1558 22.4548 14.1558H20.5998V15.3224H22.4548C23.0736 15.3224 23.6671 15.0766 24.1047 14.639C24.5423 14.2014 24.7881 13.6079 24.7881 12.9891V6.31576C24.7881 5.69692 24.5423 5.10342 24.1047 4.66584C23.6671 4.22825 23.0736 3.98242 22.4548 3.98242H6.12142C5.50258 3.98242 4.90909 4.22825 4.4715 4.66584C4.03392 5.10342 3.78809 5.69692 3.78809 6.31576V12.9891C3.78809 13.6079 4.03392 14.2014 4.4715 14.639C4.90909 15.0766 5.50258 15.3224 6.12142 15.3224H8.23308V19.079C8.23308 19.5989 8.43958 20.0974 8.80715 20.465C9.17473 20.8325 9.67326 21.039 10.1931 21.039H18.3597C18.6191 21.0421 18.8765 20.9937 19.117 20.8966C19.3575 20.7995 19.5763 20.6556 19.7608 20.4733C19.9453 20.291 20.0917 20.0739 20.1917 19.8345C20.2916 19.5952 20.3431 19.3384 20.3431 19.079V11.519H19.1764V19.0791C19.1764 19.1841 19.1556 19.288 19.1151 19.3849C19.0747 19.4818 19.0154 19.5697 18.9407 19.6435C18.8661 19.7173 18.7775 19.7755 18.6801 19.8148C18.5828 19.8541 18.4786 19.8737 18.3736 19.8725L10.1931 19.8724C9.98268 19.8724 9.78089 19.7888 9.63211 19.64C9.48333 19.4912 9.39975 19.2894 9.39975 19.079V11.519H8.23308V14.1558ZM14.8668 11.9354C14.9186 11.9518 14.9698 11.9705 15.0203 11.9914C15.3699 12.1362 15.6687 12.3814 15.8789 12.6961C16.0892 13.0107 16.2014 13.3807 16.2014 13.7591H15.0347C15.0347 13.6114 14.9909 13.467 14.9089 13.3443C14.8269 13.2215 14.7102 13.1258 14.5738 13.0692C14.4374 13.0127 14.2872 12.9979 14.1424 13.0268C13.9976 13.0556 13.8645 13.1267 13.7601 13.2311C13.6557 13.3355 13.5846 13.4686 13.5557 13.6134C13.5269 13.7582 13.5417 13.9084 13.5982 14.0448C13.6548 14.1813 13.7505 14.2979 13.8732 14.3799C13.9946 14.461 14.1371 14.5047 14.283 14.5057V14.5057C14.6644 14.5024 15.0382 14.6125 15.357 14.822C15.6758 15.0315 15.9251 15.3309 16.0734 15.6824C16.2216 16.0338 16.2621 16.4214 16.1898 16.7959C16.1174 17.1704 15.9354 17.515 15.6668 17.7859C15.4429 18.0118 15.1672 18.178 14.8649 18.2708L14.8713 18.8744L13.7047 18.8868L13.6981 18.2592C13.6539 18.2447 13.6102 18.2285 13.567 18.2107C13.2143 18.0655 12.9126 17.8188 12.7004 17.5019C12.4881 17.185 12.3747 16.8121 12.3747 16.4307L13.5414 16.4307C13.5414 16.5809 13.5861 16.7278 13.6697 16.8526C13.7533 16.9775 13.8721 17.0747 14.0111 17.1319C14.15 17.1891 14.3028 17.2037 14.4501 17.1739C14.5974 17.1441 14.7325 17.0712 14.8383 16.9645C14.9441 16.8578 15.0158 16.7221 15.0443 16.5745C15.0728 16.427 15.0568 16.2743 14.9984 16.1359C14.94 15.9974 14.8418 15.8794 14.7162 15.7969C14.5907 15.7144 14.4434 15.671 14.2931 15.6723L14.2881 15.0892V15.6724C13.9096 15.6724 13.5397 15.5602 13.2251 15.35C12.9104 15.1397 12.6652 14.8409 12.5204 14.4913C12.3756 14.1417 12.3377 13.757 12.4115 13.3858C12.4853 13.0147 12.6676 12.6737 12.9351 12.4061C13.1502 12.1911 13.4127 12.0311 13.7001 11.9383L13.6931 11.3391L14.8597 11.3255L14.8668 11.9354ZM6.70475 8.54399H21.8714V9.71065H6.70475V8.54399ZM14.275 23.9827L11.9185 21.8249L11.1306 22.6854L13.5037 24.8583L13.51 24.8638C13.7262 25.0506 14.0024 25.1534 14.2881 25.1534C14.5738 25.1534 14.85 25.0506 15.0662 24.8638L15.0725 24.8583L17.4456 22.6854L16.6577 21.8249L14.3012 23.9827C14.2973 23.9853 14.2928 23.9867 14.2881 23.9867C14.2834 23.9867 14.2789 23.9853 14.275 23.9827Z" fill="white"/>
</svg>
