<svg width="30" height="26" viewBox="0 0 30 26" fill="none" xmlns="http://www.w3.org/2000/svg">
<g clip-path="url(#clip0)">
<path class="secondary" d="M13.5679 18.8671H0.755882C0.419494 18.8671 0.146484 18.5922 0.146484 18.2535V3.39484C0.146484 3.05614 0.419494 2.78125 0.755882 2.78125H23.5157C23.852 2.78125 24.1251 3.05614 24.1251 3.39484V9.20183C24.1251 9.54053 23.852 9.81542 23.5157 9.81542C23.1793 9.81542 22.9063 9.54053 22.9063 9.20183V4.00842H1.36528V17.6374H13.5679C13.9042 17.6374 14.1772 17.9123 14.1772 18.251C14.1772 18.5897 13.9042 18.8671 13.5679 18.8671Z" fill="#5F82A6"/>
<path class="secondary" d="M7.85875 4.01075C7.77587 4.01075 7.69056 3.99357 7.61012 3.95676C7.30298 3.81931 7.16404 3.45607 7.30298 3.14682L8.52421 0.390587C8.62172 0.169696 8.8411 0.0273438 9.07999 0.0273438H15.6761C15.9418 0.0273438 16.1758 0.199148 16.2562 0.454401L17.0533 2.96029C17.1557 3.28427 16.9802 3.62787 16.6585 3.73096C16.3391 3.83404 15.9954 3.65733 15.893 3.33335L15.2349 1.25452H9.47731L8.41696 3.64751C8.31458 3.87576 8.09276 4.01075 7.85875 4.01075Z" fill="#5F82A6"/>
<path class="secondary" d="M12.1663 15.8131C9.84086 15.8131 7.75916 14.149 7.30576 11.7658C7.05713 10.4577 7.3277 9.13233 8.07117 8.03033C8.81463 6.92832 9.93836 6.18466 11.2352 5.93431C12.5344 5.68397 13.8507 5.9564 14.9452 6.70498C16.0396 7.45356 16.7782 8.58501 17.0269 9.89072C17.0902 10.2245 16.8733 10.546 16.5442 10.6098C16.2127 10.6737 15.8934 10.4552 15.83 10.1239C15.6423 9.13724 15.0841 8.28558 14.2602 7.72108C13.4363 7.15903 12.4418 6.95287 11.4643 7.1394C10.4844 7.32838 9.63854 7.89043 9.07789 8.72C8.51725 9.54957 8.31249 10.5509 8.50018 11.5351C8.88776 13.5698 10.8476 14.9074 12.8683 14.5196C13.1999 14.4558 13.5192 14.6743 13.5826 15.0056C13.6459 15.3369 13.429 15.6609 13.0999 15.7247C12.7855 15.7836 12.4735 15.8131 12.1663 15.8131Z" fill="#5F82A6"/>
<path class="secondary" d="M4.45662 8.42461C3.45233 8.42461 2.63574 7.6024 2.63574 6.59121C2.63574 5.58002 3.45233 4.75781 4.45662 4.75781C5.46091 4.75781 6.2775 5.58002 6.2775 6.59121C6.2775 7.6024 5.46091 8.42461 4.45662 8.42461ZM4.45662 5.98744C4.12511 5.98744 3.85454 6.25987 3.85454 6.59367C3.85454 6.92746 4.12511 7.19989 4.45662 7.19989C4.78813 7.19989 5.05871 6.92746 5.05871 6.59367C5.05871 6.25987 4.79057 5.98744 4.45662 5.98744Z" fill="#5F82A6"/>
<path class="secondary" d="M20.9833 25.0266C16.4835 25.0266 12.8223 21.3402 12.8223 16.8095C12.8223 12.2787 16.4835 8.58984 20.9833 8.58984C25.4831 8.58984 29.1444 12.2763 29.1444 16.8095C29.1468 21.3402 25.4855 25.0266 20.9833 25.0266ZM20.9833 9.81702C17.1563 9.81702 14.0411 12.9537 14.0411 16.8095C14.0411 20.6652 17.1563 23.7994 20.9833 23.7994C24.8103 23.7994 27.9256 20.6628 27.9256 16.8095C27.928 12.9537 24.8128 9.81702 20.9833 9.81702Z" fill="#5F82A6"/>
<path class="secondary" d="M20.1469 20.9056C19.8764 20.9056 19.6034 20.8344 19.3572 20.6896C18.8623 20.4025 18.5674 19.8871 18.5674 19.3103V14.5439C18.5674 13.9696 18.8623 13.4542 19.3572 13.1646C19.852 12.8774 20.4443 12.8774 20.9367 13.1646L25.0367 15.5478C25.5316 15.8349 25.8265 16.3503 25.8265 16.9247C25.8265 17.499 25.5316 18.0144 25.0367 18.304L20.9367 20.6872C20.6905 20.8344 20.4175 20.9056 20.1469 20.9056ZM20.1494 14.1782C20.0665 14.1782 20.0007 14.2101 19.9666 14.2273C19.9129 14.2592 19.7862 14.3525 19.7862 14.5439V19.3127C19.7862 19.5017 19.9129 19.5974 19.9666 19.6293C20.0202 19.6613 20.164 19.7251 20.3273 19.6293L24.4273 17.2462C24.5907 17.1505 24.6077 16.9934 24.6077 16.9296C24.6077 16.8657 24.5907 16.7087 24.4273 16.613L20.3273 14.2298C20.2639 14.1905 20.203 14.1782 20.1494 14.1782Z" fill="#5F82A6"/>
</g>
<defs>
<clipPath id="clip0">
<rect width="29" height="25" fill="white" transform="translate(0.146484 0.0273438)"/>
</clipPath>
</defs>
</svg>
