<svg width="30" height="32" viewBox="0 0 30 32" fill="none" xmlns="http://www.w3.org/2000/svg">
<path class="secondary" fill-rule="evenodd" clip-rule="evenodd" d="M13.3305 18.5511C13.5028 18.6221 13.6796 18.6793 13.8592 18.7225L13.8838 20.2446L15.5417 20.2179L15.5176 18.7262C16.1683 18.5728 16.764 18.2402 17.2364 17.7649C17.7364 17.2619 18.0758 16.6217 18.2116 15.9255C18.3473 15.2293 18.2733 14.5085 17.9989 13.8544C17.7245 13.2004 17.2621 12.6425 16.6702 12.2515C16.0784 11.8606 15.3838 11.6542 14.6746 11.6584C14.2959 11.6575 13.9258 11.5447 13.6109 11.3343C13.2946 11.123 13.0481 10.8226 12.9025 10.4711C12.7569 10.1196 12.7188 9.73287 12.793 9.35976C12.8672 8.98664 13.0504 8.64391 13.3194 8.37491C13.5884 8.10591 13.9312 7.92271 14.3043 7.8485C14.6774 7.77428 15.0641 7.81237 15.4156 7.95795C15.7671 8.10354 16.0675 8.35007 16.2788 8.66639C16.4902 8.9827 16.603 9.35458 16.603 9.73501H18.2612C18.2612 9.02663 18.0511 8.33416 17.6576 7.74516C17.264 7.15617 16.7046 6.6971 16.0502 6.42601C15.8812 6.35602 15.7079 6.29938 15.5317 6.25623L15.5085 4.68201L13.8506 4.7064L13.8732 6.24533C13.2202 6.3962 12.6219 6.72749 12.1469 7.20241C11.646 7.70331 11.3049 8.3415 11.1667 9.03627C11.0285 9.73103 11.0995 10.4512 11.3705 11.1056C11.6416 11.7601 12.1007 12.3195 12.6897 12.713C13.2787 13.1066 13.9712 13.3166 14.6795 13.3166V12.4852L14.6845 13.3166C15.0655 13.3143 15.4385 13.4251 15.7563 13.6351C16.0741 13.845 16.3225 14.1446 16.4698 14.4959C16.6172 14.8472 16.6569 15.2343 16.584 15.6081C16.5111 15.982 16.3289 16.3258 16.0603 16.596C15.7918 16.8662 15.4491 17.0505 15.0757 17.1257C14.7022 17.2008 14.3149 17.1634 13.9628 17.0182C13.6106 16.8729 13.3095 16.6264 13.0977 16.3099C12.8858 15.9933 12.7727 15.621 12.7727 15.24L11.1145 15.2401C11.1145 15.9494 11.3251 16.6427 11.7196 17.2321C12.1142 17.8216 12.6748 18.2806 13.3305 18.5511Z" fill="#323751"/>
<path class="secondary" d="M15.8509 30.7271C15.6046 30.9135 15.3041 31.0144 14.9952 31.0144C14.6863 31.0144 14.3858 30.9135 14.1395 30.7271L14.1097 30.7046L9.91764 26.9461L11.1159 25.6097L14.1014 28.2864L14.0888 23.7136L15.8837 23.7086L15.8963 28.2798L18.8745 25.6097L20.0727 26.9462L15.8806 30.7046L15.8509 30.7271Z" fill="#323751"/>
<path class="secondary" d="M2.79199 18.1768C3.60396 20.586 5.17472 22.6882 7.2835 24.1878L6.19142 25.6295C3.77161 23.9087 1.96917 21.4965 1.03745 18.7319C0.10572 15.9673 0.0915569 12.9893 0.996942 10.2165C1.90233 7.44366 3.68174 5.01545 6.08508 3.27314C8.48842 1.53083 11.3948 0.562014 14.3958 0.502878C17.3968 0.443739 20.3415 1.29724 22.816 2.94343C25.2904 4.58962 27.1703 6.94572 28.1913 9.68057C29.2123 12.4154 29.3231 15.3915 28.5082 18.1905C27.6932 20.9896 25.9935 23.4708 23.6479 25.2855L22.4962 23.888C24.5404 22.3066 26.0216 20.1443 26.7318 17.705C27.442 15.2658 27.3454 12.6722 26.4556 10.2889C25.5659 7.90555 23.9276 5.85228 21.7712 4.41769C19.6148 2.98309 17.0486 2.23929 14.4334 2.29083C11.8181 2.34237 9.28526 3.18665 7.19083 4.70502C5.09641 6.22338 3.54571 8.33948 2.7567 10.7559C1.96768 13.1723 1.98003 15.7675 2.79199 18.1768Z" fill="#323751"/>
</svg>
