<svg width="43" height="42" viewBox="0 0 43 42" fill="none" xmlns="http://www.w3.org/2000/svg">
<path class="secondary" fill-rule="evenodd" clip-rule="evenodd" d="M30.0752 6.125H34.105C35.1694 6.13086 36.1886 6.55631 36.9412 7.30897C37.6939 8.06163 38.1193 9.08077 38.1252 10.1452L38.1252 10.15L38.1252 14.175H36.3752V10.1526C36.3713 9.54978 36.1301 8.97272 35.7038 8.54641C35.2775 8.1201 34.7004 7.8789 34.0976 7.875H30.0752V6.125Z" fill="#5F82A6"/>
<path class="secondary" fill-rule="evenodd" clip-rule="evenodd" d="M6.62501 27.825V31.8474C6.62892 32.4502 6.87011 33.0273 7.29642 33.4536C7.72273 33.8799 8.29979 34.1211 8.90261 34.125H12.925V35.875H8.89519C7.83079 35.8691 6.81165 35.4437 6.05899 34.691C5.30633 33.9384 4.88089 32.9192 4.87503 31.8548L4.875 31.85L4.87501 27.825H6.62501Z" fill="#5F82A6"/>
<path class="secondary" fill-rule="evenodd" clip-rule="evenodd" d="M8.9 6.125H12.925V7.875H8.9026C8.29978 7.8789 7.72272 8.1201 7.29641 8.54641C6.8701 8.97272 6.6289 9.54978 6.625 10.1526V14.175H4.875V10.1452C4.88086 9.08077 5.30631 8.06163 6.05897 7.30897C6.81163 6.55631 7.83077 6.13088 8.89518 6.12501L8.9 6.125Z" fill="#5F82A6"/>
<path class="secondary" fill-rule="evenodd" clip-rule="evenodd" d="M38.1252 27.825V31.8548C38.1193 32.9192 37.6939 33.9384 36.9412 34.691C36.1886 35.4437 35.1694 35.8691 34.105 35.875L34.1002 35.875L30.0752 35.875V34.125H34.0976C34.7004 34.1211 35.2775 33.8799 35.7038 33.4536C36.1301 33.0273 36.3713 32.4502 36.3752 31.8474V27.825H38.1252Z" fill="#5F82A6"/>
<path class="secondary" fill-rule="evenodd" clip-rule="evenodd" d="M22.375 25.375V29.925H20.625V25.375H22.375Z" fill="#5F82A6"/>
<path class="secondary" fill-rule="evenodd" clip-rule="evenodd" d="M22.375 11.375V21.875H20.625V11.375H22.375Z" fill="#5F82A6"/>
<path class="secondary" fill-rule="evenodd" clip-rule="evenodd" d="M4.99903 21.8735L38.004 21.929L38.0011 23.679L4.99609 23.6235L4.99903 21.8735Z" fill="#5F82A6"/>
<path class="secondary" fill-rule="evenodd" clip-rule="evenodd" d="M31.8252 25.375V29.925H30.0752V25.375H31.8252Z" fill="#5F82A6"/>
<path class="secondary" fill-rule="evenodd" clip-rule="evenodd" d="M31.8252 11.375V21.875H30.0752V11.375H31.8252Z" fill="#5F82A6"/>
<path class="secondary" fill-rule="evenodd" clip-rule="evenodd" d="M27.1001 25.375V29.925H25.3501V25.375H27.1001Z" fill="#5F82A6"/>
<path class="secondary" fill-rule="evenodd" clip-rule="evenodd" d="M27.1001 11.375V21.875H25.3501V11.375H27.1001Z" fill="#5F82A6"/>
<path class="secondary" fill-rule="evenodd" clip-rule="evenodd" d="M12.9248 25.375V29.925H11.1748V25.375H12.9248Z" fill="#5F82A6"/>
<path class="secondary" fill-rule="evenodd" clip-rule="evenodd" d="M12.9248 11.375V21.875H11.1748V11.375H12.9248Z" fill="#5F82A6"/>
<path class="secondary" fill-rule="evenodd" clip-rule="evenodd" d="M17.6499 25.375V29.925H15.8999V25.375H17.6499Z" fill="#5F82A6"/>
<path class="secondary" fill-rule="evenodd" clip-rule="evenodd" d="M17.6499 11.375V21.875H15.8999V11.375H17.6499Z" fill="#5F82A6"/>
</svg>
