<svg width="52" height="52" viewBox="0 0 52 52" fill="none" xmlns="http://www.w3.org/2000/svg">
<path class="secondary" d="M42.0601 27.564L40.2226 25.7481L50.286 11.9211C50.7682 11.3258 51.0208 10.5807 50.9986 9.8185C50.9765 9.05633 50.681 8.32672 50.165 7.75985L44.1569 1.82827C43.5793 1.31326 42.834 1.01976 42.0563 1.00096C41.2785 0.982165 40.5197 1.23931 39.9173 1.72581L26.0923 11.7617L24.2547 9.95146C23.9335 9.63219 23.5516 9.37882 23.131 9.20592C22.7103 9.03303 22.2592 8.94402 21.8037 8.94402C21.3481 8.94402 20.897 9.03303 20.4764 9.20592C20.0557 9.37882 19.6738 9.63219 19.3526 9.95146V9.95146C19.0304 10.2688 18.7747 10.6458 18.6003 11.061C18.4259 11.4761 18.3361 11.9212 18.3361 12.3708C18.3361 12.8203 18.4259 13.2654 18.6003 13.6806C18.7747 14.0957 19.0304 14.4728 19.3526 14.7901L37.2099 32.4368C37.5311 32.7561 37.913 33.0094 38.3336 33.1823C38.7543 33.3552 39.2053 33.4442 39.6609 33.4442C40.1165 33.4442 40.5676 33.3552 40.9882 33.1823C41.4089 33.0094 41.7908 32.7561 42.112 32.4368C42.436 32.1155 42.6921 31.7336 42.8652 31.3135C43.0383 30.8933 43.125 30.4433 43.1201 29.9897C43.1153 29.536 43.0191 29.0879 42.8371 28.6714C42.6551 28.255 42.391 27.8785 42.0601 27.564Z" stroke="#333750" stroke-linecap="round" stroke-linejoin="round"/>
<path class="secondary" d="M24.9633 20.363L1 51L31.749 27.0688" stroke="#333750" stroke-linecap="round" stroke-linejoin="round"/>
<path class="secondary" d="M26.1326 11.8016L40.5393 26.0386" stroke="#333750" stroke-linecap="round" stroke-linejoin="round"/>
</svg>
