<svg width="38" height="46" viewBox="0 0 38 46" fill="none" xmlns="http://www.w3.org/2000/svg">
<path d="M23.4256 33.8697C29.6818 33.8697 34.7534 28.8918 34.7534 22.7512C34.7534 16.6107 29.6818 11.6328 23.4256 11.6328C17.1693 11.6328 12.0977 16.6107 12.0977 22.7512C12.0977 28.8918 17.1693 33.8697 23.4256 33.8697Z" fill="#F6F6F6"/>
<path d="M23.4199 17.8228C22.9563 17.8228 22.582 17.4555 22.582 17.0004V14.9884C22.582 14.5333 22.9563 14.166 23.4199 14.166C23.8835 14.166 24.2578 14.5333 24.2578 14.9884V17.0004C24.2578 17.4555 23.8835 17.8228 23.4199 17.8228Z" fill="#5F82A6"/>
<path d="M23.4199 31.813C22.9563 31.813 22.582 31.4457 22.582 30.9907V28.9786C22.582 28.5236 22.9563 28.1562 23.4199 28.1562C23.8835 28.1562 24.2578 28.5236 24.2578 28.9786V30.9907C24.2578 31.4457 23.8835 31.813 23.4199 31.813Z" fill="#5F82A6"/>
<path d="M23.4196 23.5736C21.0624 23.5736 19.1465 21.9124 19.1465 19.8784C19.1465 17.8389 21.0624 16.1777 23.4196 16.1777C25.7768 16.1777 27.6927 17.8389 27.6927 19.8784C27.6927 20.3334 27.3184 20.7008 26.8548 20.7008C26.3912 20.7008 26.017 20.3334 26.017 19.8784C26.017 18.7435 24.8551 17.8225 23.4196 17.8225C21.984 17.8225 20.8222 18.7435 20.8222 19.8784C20.8222 21.0078 21.984 21.9288 23.4196 21.9288C23.8832 21.9288 24.2574 22.2962 24.2574 22.7512C24.2574 23.2062 23.8832 23.5736 23.4196 23.5736Z" fill="#333750"/>
<path d="M23.4196 29.3255C21.0624 29.3255 19.1465 27.6643 19.1465 25.6303C19.1465 25.1753 19.5207 24.808 19.9843 24.808C20.448 24.808 20.8222 25.1753 20.8222 25.6303C20.8222 26.7597 21.984 27.6808 23.4196 27.6808C24.8551 27.6808 26.017 26.7597 26.017 25.6303C26.017 24.4955 24.8551 23.5744 23.4196 23.5744C22.956 23.5744 22.5817 23.2071 22.5817 22.7521C22.5817 22.297 22.956 21.9297 23.4196 21.9297C25.7768 21.9297 27.6927 23.5909 27.6927 25.6303C27.6927 27.6643 25.7768 29.3255 23.4196 29.3255Z" fill="#333750"/>
</svg>
