<svg width="23" height="33" viewBox="0 0 23 33" fill="none" xmlns="http://www.w3.org/2000/svg">
<path d="M11.1943 32.8473C17.2695 32.8473 22.1943 27.7883 22.1943 21.5477C22.1943 15.3071 17.2695 10.248 11.1943 10.248C5.1192 10.248 0.194336 15.3071 0.194336 21.5477C0.194336 27.7883 5.1192 32.8473 11.1943 32.8473Z" fill="#F6F6F6"/>
<path d="M11.1886 16.5387C10.7384 16.5387 10.375 16.1653 10.375 15.7029V13.658C10.375 13.1956 10.7384 12.8223 11.1886 12.8223C11.6388 12.8223 12.0022 13.1956 12.0022 13.658V15.7029C12.0022 16.1653 11.6388 16.5387 11.1886 16.5387Z" fill="#5F82A6"/>
<path d="M11.1886 30.7574C10.7384 30.7574 10.375 30.3841 10.375 29.9216V27.8768C10.375 27.4143 10.7384 27.041 11.1886 27.041C11.6388 27.041 12.0022 27.4143 12.0022 27.8768V29.9216C12.0022 30.3841 11.6388 30.7574 11.1886 30.7574Z" fill="#5F82A6"/>
<path d="M11.1885 22.3836C8.89952 22.3836 7.03906 20.6953 7.03906 18.6282C7.03906 16.5554 8.89952 14.8672 11.1885 14.8672C13.4774 14.8672 15.3379 16.5554 15.3379 18.6282C15.3379 19.0906 14.9745 19.4639 14.5243 19.4639C14.0741 19.4639 13.7107 19.0906 13.7107 18.6282C13.7107 17.4748 12.5825 16.5387 11.1885 16.5387C9.79449 16.5387 8.66628 17.4748 8.66628 18.6282C8.66628 19.7759 9.79449 20.712 11.1885 20.712C11.6387 20.712 12.0021 21.0853 12.0021 21.5478C12.0021 22.0102 11.6387 22.3836 11.1885 22.3836Z" fill="#333750"/>
<path d="M11.1885 28.2273C8.89952 28.2273 7.03906 26.539 7.03906 24.4719C7.03906 24.0094 7.40247 23.6361 7.85267 23.6361C8.30287 23.6361 8.66628 24.0094 8.66628 24.4719C8.66628 25.6197 9.79449 26.5558 11.1885 26.5558C12.5825 26.5558 13.7107 25.6197 13.7107 24.4719C13.7107 23.3185 12.5825 22.3825 11.1885 22.3825C10.7383 22.3825 10.3749 22.0092 10.3749 21.5467C10.3749 21.0842 10.7383 20.7109 11.1885 20.7109C13.4774 20.7109 15.3379 22.3992 15.3379 24.4719C15.3379 26.539 13.4774 28.2273 11.1885 28.2273Z" fill="#333750"/>
<path d="M5.14303 1.69949C5.14303 1.49512 5.21224 1.29076 5.35066 1.12613C5.64879 0.779847 6.14922 0.751463 6.47929 1.06936L11.1163 5.55402L15.7533 1.06936C16.078 0.751464 16.5838 0.779848 16.8819 1.12613C17.1801 1.47242 17.1534 2.01171 16.8287 2.32961L11.654 7.33653C11.3505 7.63172 10.8874 7.63172 10.5786 7.33653L5.40389 2.32961C5.22821 2.1593 5.14303 1.93223 5.14303 1.69949Z" fill="#5F82A6"/>
</svg>
