<svg width="34" height="34" viewBox="0 0 34 34" fill="none" xmlns="http://www.w3.org/2000/svg">
<path d="M22.7196 24.7134L17.7213 19.595C17.5386 19.408 17.3228 19.374 17.2065 19.374C17.0903 19.374 16.8744 19.408 16.6917 19.595L11.6769 24.7304C11.1123 25.3085 10.2322 26.2438 7.29297 26.2438L13.4537 32.5354C14.3877 33.4908 15.6539 34.0273 16.974 34.0273C18.2942 34.0273 19.5604 33.4908 20.4944 32.5354L26.6717 26.2268C25.1606 26.2268 23.8986 25.9207 22.7196 24.7134ZM11.6769 9.32431L16.6917 14.4597C16.8246 14.5957 17.0239 14.6807 17.2065 14.6807C17.3892 14.6807 17.5885 14.5957 17.7213 14.4597L22.6864 9.37532C23.8654 8.11699 25.2104 7.82792 26.7215 7.82792L20.5443 1.51925C19.6102 0.563935 18.344 0.0273438 17.0239 0.0273438C15.7037 0.0273438 14.4375 0.563935 13.5035 1.51925L7.34279 7.81091C10.2654 7.81091 11.1621 8.79717 11.6769 9.32431Z" fill="#323751"/>
<path d="M32.4855 13.5004L28.6609 9.77515H26.5192C25.6013 9.77515 24.6834 10.1378 24.0545 10.7806L18.9551 15.7257C18.4791 16.1872 17.8502 16.418 17.2213 16.418C16.5737 16.4092 15.9538 16.1616 15.4875 15.7257L10.3541 10.7312C9.70819 10.1048 8.8243 9.74219 7.88941 9.74219H5.39071L1.49817 13.5334C0.543221 14.4606 0.00683594 15.7175 0.00683594 17.0279C0.00683594 18.3383 0.543221 19.5952 1.49817 20.5224L5.39071 24.3136H7.90641C8.8243 24.3136 9.70819 23.951 10.3711 23.3246L15.5045 18.3466C15.9804 17.885 16.6094 17.6543 17.2383 17.6543C17.8672 17.6543 18.4961 17.885 18.9721 18.3466L24.0885 23.3081C24.7344 23.9345 25.6183 24.2971 26.5532 24.2971H28.6949L32.5195 20.5719C33.4784 19.628 34.0131 18.3544 34.0068 17.0293C34.0004 15.7043 33.4535 14.4356 32.4855 13.5004Z" fill="#323751"/>
</svg>
