<svg width="19" height="20" viewBox="0 0 19 20" fill="none" xmlns="http://www.w3.org/2000/svg">
<path d="M6.74168 6.54695C6.7307 7.14914 6.81315 7.74927 6.98599 8.32606L0.624174 14.6764L0.610067 14.6905L0.602437 14.7089L0.414452 15.1626L0.406836 15.181V15.2009V18.166V18.2074L0.436189 18.2367L1.07997 18.8794L1.10925 18.9086H1.15062H5.01332H5.05469L5.08397 18.8794L5.72776 18.2367L5.75711 18.2074V18.166V16.3381H7.58846H7.62983L7.65911 16.3089L8.30289 15.6662L8.33224 15.6369V15.5955V13.7676H9.48762H9.50956L9.52948 13.7584L10.0175 13.5335L10.0374 13.5243L10.0516 13.5076L11.0395 12.3514C11.5693 12.5051 12.1188 12.5813 12.6705 12.5813L12.6713 12.5813C14.0304 12.5696 15.3452 12.0978 16.4007 11.243C17.4561 10.3882 18.1896 9.20108 18.4811 7.87588L18.4813 7.8748C18.683 6.90755 18.6411 5.9063 18.3596 4.95993C18.0556 3.92765 17.4756 2.9976 16.6818 2.26976C15.9081 1.56032 14.9599 1.06913 13.9345 0.84576V0.843884L13.8544 0.827607C12.9997 0.653892 12.1171 0.670527 11.2696 0.876326C10.4221 1.08213 9.63044 1.47203 8.95116 2.01824C8.27187 2.56446 7.72166 3.25355 7.33974 4.03639C6.95786 4.81915 6.75366 5.67637 6.74168 6.54695ZM6.74168 6.54695C6.74169 6.54689 6.74169 6.54682 6.74169 6.54675L6.84167 6.54858L6.74168 6.54721C6.74168 6.54712 6.74168 6.54704 6.74168 6.54695ZM17.0742 7.37827L17.0742 7.37821L17.0291 7.58221C16.81 8.57461 16.2598 9.46337 15.4686 10.1029C14.6777 10.7422 13.6928 11.0947 12.675 11.1025C12.1286 11.1034 11.587 11.0019 11.0781 10.8034L11.0484 10.7919L11.0175 10.7996L10.2952 10.9795L10.2644 10.9872L10.2437 11.0112L9.14572 12.2823H7.58846H7.54709L7.51781 12.3116L6.87403 12.9542L6.84468 12.9835V13.025V14.8528H5.01332H4.97196L4.94268 14.8821L4.29889 15.5247L4.26954 15.554V15.5955V17.4233H1.8944V15.5084L8.366 9.0459L8.38734 9.02458L8.39334 8.99502L8.53497 8.29713L8.54092 8.26779L8.52978 8.24001C8.31734 7.71049 8.21664 7.14304 8.22921 6.57018C8.25486 5.5671 8.61593 4.60137 9.255 3.82676C9.89399 3.05224 10.7742 2.51331 11.7555 2.29576C12.4829 2.14342 13.237 2.17489 13.9492 2.38731C14.6615 2.59979 15.3094 2.98657 15.8339 3.5125C16.3584 4.03842 16.7429 4.68682 16.9525 5.39877C17.1419 6.04195 17.1831 6.7186 17.0742 7.37827ZM14.5334 6.72809C14.6429 6.57717 14.7207 6.40575 14.7622 6.2241C14.8037 6.04245 14.8081 5.8543 14.7751 5.67091C14.7421 5.48753 14.6724 5.31268 14.5701 5.15683C14.4679 5.00098 14.3352 4.86734 14.18 4.76388C14.0248 4.66043 13.8503 4.58929 13.667 4.55471C13.4836 4.52013 13.2952 4.52283 13.1129 4.56263C12.9306 4.60243 12.7583 4.67853 12.6061 4.78638C12.454 4.89423 12.3251 5.03161 12.2274 5.19032C12.0394 5.49563 11.9772 5.86182 12.0539 6.21196C12.1306 6.5621 12.3403 6.86888 12.6388 7.06789C12.9373 7.2669 13.3015 7.34267 13.6547 7.27932C14.008 7.21597 14.323 7.01841 14.5334 6.72809Z" fill="#323751" stroke="#323751" stroke-width="0.2"/>
</svg>
