<svg width="29" height="45" viewBox="0 0 29 45" fill="none" xmlns="http://www.w3.org/2000/svg">
  <path d="M14.2312 33.4868C20.4874 33.4868 25.5591 28.509 25.5591 22.3684C25.5591 16.2279 20.4874 11.25 14.2312 11.25C7.97499 11.25 2.90332 16.2279 2.90332 22.3684C2.90332 28.509 7.97499 33.4868 14.2312 33.4868Z" fill="#323751"/>
  <path d="M18.1855 5.20289H9.1366C6.93023 5.20289 5.13721 3.44302 5.13721 1.27745C5.13721 0.822403 5.51145 0.455078 5.97507 0.455078C6.43869 0.455078 6.81293 0.822403 6.81293 1.27745C6.81293 2.53293 7.85747 3.55815 9.1366 3.55815H18.1855C19.4647 3.55815 20.5092 2.53293 20.5092 1.27745C20.5092 0.822403 20.8834 0.455078 21.347 0.455078C21.8107 0.455078 22.1849 0.822403 22.1849 1.27745C22.1849 3.43753 20.3919 5.20289 18.1855 5.20289Z" fill="white"/>
  <path d="M21.8388 45.0004H6.61762C3.22149 45.0004 0.456543 42.2866 0.456543 38.9532C0.456543 38.4982 0.830788 38.1309 1.29441 38.1309C1.75802 38.1309 2.13227 38.4982 2.13227 38.9532C2.13227 41.382 4.14314 43.3556 6.61762 43.3556H21.8444C24.3189 43.3556 26.3297 41.382 26.3297 38.9532C26.3297 38.4982 26.704 38.1309 27.1676 38.1309C27.6312 38.1309 28.0055 38.4982 28.0055 38.9532C27.9999 42.2866 25.2349 45.0004 21.8388 45.0004Z" fill="white"/>
  <path d="M14.2252 42.7905C12.7897 42.7905 11.6167 41.6447 11.6167 40.2302C11.6167 38.8158 12.7841 37.6699 14.2252 37.6699C15.6664 37.6699 16.8338 38.8158 16.8338 40.2302C16.8338 41.6447 15.6664 42.7905 14.2252 42.7905ZM14.2252 39.3147C13.7114 39.3147 13.2924 39.7258 13.2924 40.2302C13.2924 40.7346 13.7114 41.1458 14.2252 41.1458C14.7391 41.1458 15.1581 40.7346 15.1581 40.2302C15.1581 39.7258 14.7391 39.3147 14.2252 39.3147Z" fill="white"/>
  <path d="M4.52289 37.5987H23.9445C26.1844 37.5987 28.0054 35.8114 28.0054 33.6129V30.6086C28.0054 30.1535 27.6311 29.7862 27.1675 29.7862C26.7039 29.7862 26.3296 30.1535 26.3296 30.6086V33.6129C26.3296 34.9013 25.2628 35.9539 23.9445 35.9539H4.5173C3.20465 35.9539 2.13219 34.9068 2.13219 33.6129V3.98575C2.13219 2.69737 3.19907 1.64474 4.5173 1.64474H23.9445C25.2572 1.64474 26.3296 2.69189 26.3296 3.98575L26.3296 32.1776C26.3296 32.6327 26.7039 33 27.1675 33C27.6311 33 28.0054 32.6327 28.0054 32.1776L28.0054 3.98575C28.0054 1.78728 26.1844 0 23.9445 0H4.5173C2.27742 0 0.456465 1.78728 0.456465 3.98575V33.6184C0.462051 35.8114 2.283 37.5987 4.52289 37.5987Z" fill="white"/>
  <path d="M6 15.375V12.7031C6 12.3146 6.31465 12 6.70312 12H9.375C9.76348 12 10.0781 12.3146 10.0781 12.7031C10.0781 13.0916 9.76348 13.4062 9.375 13.4062H7.40625V15.375C7.40625 15.7635 7.0916 16.0781 6.70312 16.0781C6.31465 16.0781 6 15.7635 6 15.375Z" fill="white"/>
  <path d="M23.2969 12H20.625C20.2365 12 19.9219 12.3146 19.9219 12.7031C19.9219 13.0916 20.2365 13.4062 20.625 13.4062H22.5938V15.375C22.5938 15.7635 22.9084 16.0781 23.2969 16.0781C23.6854 16.0781 24 15.7635 24 15.375V12.7031C24 12.3146 23.6854 12 23.2969 12Z" fill="white"/>
  <path d="M9.375 28.5938H7.40625V26.625C7.40625 26.2365 7.0916 25.9219 6.70312 25.9219C6.31465 25.9219 6 26.2365 6 26.625V29.2969C6 29.6854 6.31465 30 6.70312 30H9.375C9.76348 30 10.0781 29.6854 10.0781 29.2969C10.0781 28.9084 9.76348 28.5938 9.375 28.5938Z" fill="white"/>
  <path d="M23.2969 25.9219C22.9084 25.9219 22.5938 26.2365 22.5938 26.625V28.5938H20.625C20.2365 28.5938 19.9219 28.9084 19.9219 29.2969C19.9219 29.6854 20.2365 30 20.625 30H23.2969C23.6854 30 24 29.6854 24 29.2969V26.625C24 26.2365 23.6854 25.9219 23.2969 25.9219Z" fill="white"/>
  <path d="M14.3848 15.4629V19.6816C14.3848 20.0701 14.0701 20.3848 13.6816 20.3848H9.46289C9.07441 20.3848 8.75977 20.0701 8.75977 19.6816V15.4629C8.75977 15.0744 9.07441 14.7598 9.46289 14.7598H13.6816C14.0701 14.7598 14.3848 15.0744 14.3848 15.4629Z" fill="white"/>
  <path d="M12.9785 16.166H10.166V18.9785H12.9785V16.166Z" fill="#5F82A6"/>
  <path d="M20.8887 14.7598H16.6699C16.2814 14.7598 15.9668 15.0744 15.9668 15.4629V19.6816C15.9668 20.0701 16.2814 20.3848 16.6699 20.3848H20.8887C21.2771 20.3848 21.5918 20.0701 21.5918 19.6816V15.4629C21.5918 15.0744 21.2771 14.7598 20.8887 14.7598ZM20.1855 18.9785H17.373V16.166H20.1855V18.9785Z" fill="white"/>
  <path d="M13.6816 21.9668H9.46289C9.07441 21.9668 8.75977 22.2814 8.75977 22.6699V26.8887C8.75977 27.2771 9.07441 27.5918 9.46289 27.5918H13.6816C14.0701 27.5918 14.3848 27.2771 14.3848 26.8887V22.6699C14.3848 22.2814 14.0701 21.9668 13.6816 21.9668ZM12.9785 26.1855H10.166V23.373H12.9785V26.1855Z" fill="white"/>
  <path d="M19.9834 22.873H17.5752C17.1867 22.873 16.8721 23.1877 16.8721 23.5762V25.9844C16.8721 26.3729 17.1867 26.6875 17.5752 26.6875H19.9834C20.3719 26.6875 20.6865 26.3729 20.6865 25.9844V23.5762C20.6865 23.1877 20.3719 22.873 19.9834 22.873ZM19.2803 25.2812H18.2783V24.2793H19.2803V25.2812Z" fill="#5F82A6"/>
</svg>