<svg width="21" height="21" viewBox="0 0 21 21" fill="none" xmlns="http://www.w3.org/2000/svg">
<path fill-rule="evenodd" clip-rule="evenodd" d="M10.3995 2.43502C10.3994 2.43526 10.3996 2.43478 10.3995 2.43502L8.49824 8.33008H2.28414C1.96111 8.33008 1.74717 8.36915 1.62216 8.41597C1.60569 8.42214 1.59191 8.42796 1.58043 8.43327C1.58633 8.44372 1.59365 8.45576 1.60272 8.46945C1.67568 8.57961 1.82522 8.73587 2.0867 8.9246C2.08672 8.92462 2.08668 8.92459 2.0867 8.9246L7.12299 12.5584L5.18953 18.465C5.18948 18.4652 5.18958 18.4649 5.18953 18.465C5.08959 18.7718 5.06043 18.9876 5.06631 19.121C5.06712 19.1393 5.06847 19.1547 5.07005 19.1676C5.08237 19.1651 5.09685 19.1618 5.11372 19.1571C5.24177 19.1217 5.43757 19.0274 5.69909 18.8364C5.69913 18.8364 5.69905 18.8364 5.69909 18.8364L10.7141 15.1708L15.7291 18.8363C15.7291 18.8364 15.729 18.8363 15.7291 18.8363C15.9906 19.0273 16.1865 19.1217 16.3146 19.1571C16.3314 19.1618 16.3459 19.1651 16.3582 19.1676C16.3598 19.1547 16.3612 19.1393 16.362 19.121C16.3679 18.9877 16.3388 18.7723 16.239 18.4656C16.2389 18.4654 16.239 18.4658 16.239 18.4656L14.305 12.5786L19.3415 8.94464C19.3415 8.94463 19.3415 8.94466 19.3415 8.94464C19.603 8.75592 19.7526 8.59961 19.8256 8.48945C19.8346 8.47576 19.842 8.46372 19.8478 8.45327C19.8364 8.44795 19.8226 8.44214 19.8061 8.43597C19.6811 8.38915 19.4672 8.35008 19.1441 8.35008H12.9296L11.0288 2.43502C11.0287 2.43474 11.0288 2.4353 11.0288 2.43502C10.9286 2.12809 10.8253 1.93627 10.7424 1.83217C10.7319 1.81898 10.7225 1.80805 10.7141 1.79903C10.7058 1.80805 10.6964 1.81898 10.6859 1.83217C10.603 1.93628 10.4996 2.12802 10.3995 2.43502ZM11.5247 1.20924C11.7104 1.44254 11.8597 1.75755 11.9795 2.12514L11.9802 2.1271L13.6586 7.35008H19.1441C19.5311 7.35008 19.8772 7.39475 20.1568 7.4995C20.4322 7.60262 20.7175 7.79525 20.8281 8.13334C20.939 8.47218 20.8219 8.79618 20.6593 9.04164C20.4944 9.29054 20.2402 9.52926 19.9268 9.75551L15.4833 12.9615L17.1895 18.1551C17.3095 18.5232 17.3742 18.8663 17.361 19.1651C17.348 19.4593 17.2527 19.7904 16.9651 20.0002C16.677 20.2105 16.3323 20.1996 16.0478 20.1209C15.7593 20.041 15.4526 19.8728 15.1392 19.6438L10.7141 16.4094L6.28919 19.6437C5.97578 19.8727 5.66898 20.041 5.3805 20.1209C5.09596 20.1996 4.75128 20.2105 4.46316 20.0002C4.17557 19.7904 4.08026 19.4593 4.06728 19.1651C4.05411 18.8663 4.1188 18.5232 4.23875 18.1551L5.94529 12.9418L1.50158 9.73555C1.1881 9.5093 0.933847 9.27054 0.768998 9.02164C0.606425 8.77618 0.489316 8.45218 0.60018 8.11334C0.710799 7.77525 0.996071 7.58262 1.27143 7.4795C1.55111 7.37475 1.89717 7.33008 2.28414 7.33008H7.77004L9.44828 2.1266L9.44875 2.12514C9.56856 1.75755 9.71784 1.44254 9.90362 1.20924C10.0866 0.979454 10.358 0.767578 10.7141 0.767578C11.0703 0.767578 11.3417 0.979454 11.5247 1.20924Z" fill="white"/>
</svg>
