<svg width="23" height="17" viewBox="0 0 23 17" fill="none" xmlns="http://www.w3.org/2000/svg">
<path fill-rule="evenodd" clip-rule="evenodd" d="M11.9699 7.13449C12.1045 6.97153 12.1718 6.76922 12.1718 6.56692C12.1718 6.33652 12.089 6.11175 11.9182 5.94316L6.88712 0.986774C6.58692 0.694561 6.13661 0.694561 5.84158 0.986774L0.810548 5.94316C0.494815 6.25785 0.468935 6.7917 0.758788 7.13449C1.04864 7.47728 1.54036 7.50538 1.85609 7.19069L5.58594 3.51782V15.9244C5.58594 16.3908 5.93273 16.7673 6.36233 16.7673C6.79194 16.7673 7.13873 16.3908 7.13873 15.9244V3.51384L10.8726 7.19069C11.1935 7.50538 11.6801 7.47728 11.9699 7.13449Z" fill="white"/>
<path fill-rule="evenodd" clip-rule="evenodd" d="M11.1434 10.4004C11.0088 10.5634 10.9415 10.7657 10.9415 10.968C10.9415 11.1984 11.0243 11.4232 11.1951 11.5918L16.2262 16.5481C16.5264 16.8404 16.9767 16.8404 17.2717 16.5481L22.3027 11.5918C22.6185 11.2771 22.6443 10.7432 22.3545 10.4004C22.0646 10.0576 21.5729 10.0295 21.2572 10.3442L17.5273 14.0171V1.6105C17.5273 1.14408 17.1806 0.767578 16.7509 0.767578C16.3213 0.767578 15.9746 1.14408 15.9746 1.6105V14.0211L12.2407 10.3442C11.9198 10.0295 11.4332 10.0576 11.1434 10.4004Z" fill="white"/>
</svg>
