<svg width="38" height="45" viewBox="0 0 38 45" fill="none" xmlns="http://www.w3.org/2000/svg">
<rect width="38" height="45" fill="#E5E5E5"/>
<rect x="-555" y="-813" width="2981" height="2117" fill="#C4C4C4"/>
<g clip-path="url(#clip0)">
<rect class="secondary" width="320" height="568" transform="translate(-261 -323)" fill="white"/>
<rect class="secondary" x="-261" y="-112" width="320" height="357" fill="white"/>
<g filter="url(#filter0_dd)">
<path fill-rule="evenodd" clip-rule="evenodd" d="M-261 -19V61H59V-19H-261Z" fill="white"/>
</g>
<g clip-path="url(#clip1)">
<path d="M14.141 33.4868C7.71565 33.4868 2.50691 28.509 2.50691 22.3684C2.50691 16.2279 7.71565 11.25 14.141 11.25C20.5663 11.25 25.775 16.2279 25.775 22.3684C25.775 28.509 20.5663 33.4868 14.141 33.4868Z" fill="#F6F6F6"/>
<path class="secondary" d="M10.0794 5.20484H19.3729C21.6389 5.20484 23.4803 3.44497 23.4803 1.2794C23.4803 0.824356 23.096 0.457031 22.6198 0.457031C22.1437 0.457031 21.7593 0.824356 21.7593 1.2794C21.7593 2.53488 20.6866 3.5601 19.3729 3.5601H10.0794C8.76567 3.5601 7.69291 2.53488 7.69291 1.2794C7.69291 0.824356 7.30855 0.457031 6.8324 0.457031C6.35625 0.457031 5.97189 0.824356 5.97189 1.2794C5.97189 3.43949 7.81338 5.20484 10.0794 5.20484Z" fill="#5F82A6"/>
<path class="secondary" d="M6.3277 44.9984H21.9602C25.4482 44.9984 28.2878 42.2846 28.2878 38.9513C28.2878 38.4962 27.9035 38.1289 27.4273 38.1289C26.9512 38.1289 26.5668 38.4962 26.5668 38.9513C26.5668 41.38 24.5016 43.3537 21.9602 43.3537H6.32196C3.7806 43.3537 1.71538 41.38 1.71538 38.9513C1.71538 38.4962 1.33102 38.1289 0.854874 38.1289C0.378725 38.1289 -0.00563431 38.4962 -0.00563431 38.9513C0.000102997 42.2846 2.83978 44.9984 6.3277 44.9984Z" fill="#333750"/>
<path class="secondary" d="M28.6146 28.2678C28.8212 28.2678 29.0277 28.1965 29.194 28.054C29.544 27.7469 29.5727 27.2316 29.2514 26.8917L24.7194 22.1165L29.2514 17.3412C29.5727 17.0068 29.544 16.486 29.194 16.179C28.8441 15.8719 28.2991 15.8994 27.9779 16.2338L22.9181 21.5627C22.6198 21.8752 22.6198 22.3522 22.9181 22.6702L27.9779 27.9991C28.15 28.1801 28.3794 28.2678 28.6146 28.2678Z" fill="#5F82A6"/>
<path class="secondary" d="M24.1917 22.9377H37.1395C37.6156 22.9377 38 22.5704 38 22.1153C38 21.6603 37.6156 21.293 37.1395 21.293H24.1917C23.7156 21.293 23.3312 21.6603 23.3312 22.1153C23.3312 22.5704 23.7156 22.9377 24.1917 22.9377Z" fill="#5F82A6"/>
<path class="secondary" d="M14.1468 42.7886C15.6211 42.7886 16.8258 41.6427 16.8258 40.2283C16.8258 38.8138 15.6268 37.668 14.1468 37.668C12.6667 37.668 11.4677 38.8138 11.4677 40.2283C11.4677 41.6427 12.6667 42.7886 14.1468 42.7886ZM14.1468 39.3127C14.6745 39.3127 15.1048 39.7239 15.1048 40.2283C15.1048 40.7327 14.6745 41.1438 14.1468 41.1438C13.619 41.1438 13.1887 40.7327 13.1887 40.2283C13.1887 39.7239 13.619 39.3127 14.1468 39.3127Z" fill="#5F82A6"/>
<path class="secondary" d="M4.17069 37.5987H24.1172C26.4177 37.5987 28.2878 35.8114 28.2878 33.6129V30.6086C28.2878 30.1535 27.9035 29.7862 27.4273 29.7862C26.9512 29.7862 26.5668 30.1535 26.5668 30.6086V33.6129C26.5668 34.9013 25.4711 35.9539 24.1172 35.9539H4.16496C2.81683 35.9539 1.71538 34.9068 1.71538 33.6129V3.98575C1.71538 2.69737 2.81109 1.64474 4.16496 1.64474H24.1172C25.4654 1.64474 26.5668 2.69189 26.5668 3.98575V13.273C26.5668 13.7281 26.9512 14.0954 27.4273 14.0954C27.9035 14.0954 28.2878 13.7281 28.2878 13.273V3.98575C28.2878 1.78728 26.4177 0 24.1172 0H4.16496C1.86453 0 -0.00563431 1.78728 -0.00563431 3.98575V33.6184C0.000102997 35.8114 1.87027 37.5987 4.17069 37.5987Z" fill="#5F82A6"/>
</g>
<path class="secondary" d="M4 14.375V11.7031C4 11.3146 4.31465 11 4.70312 11H7.375C7.76348 11 8.07812 11.3146 8.07812 11.7031C8.07812 12.0916 7.76348 12.4062 7.375 12.4062H5.40625V14.375C5.40625 14.7635 5.0916 15.0781 4.70312 15.0781C4.31465 15.0781 4 14.7635 4 14.375Z" fill="#333750"/>
<path class="secondary" d="M21.2969 11H18.625C18.2365 11 17.9219 11.3146 17.9219 11.7031C17.9219 12.0916 18.2365 12.4062 18.625 12.4062H20.5938V14.375C20.5938 14.7635 20.9084 15.0781 21.2969 15.0781C21.6854 15.0781 22 14.7635 22 14.375V11.7031C22 11.3146 21.6854 11 21.2969 11Z" fill="#333750"/>
<path class="secondary" d="M7.375 27.5938H5.40625V25.625C5.40625 25.2365 5.0916 24.9219 4.70312 24.9219C4.31465 24.9219 4 25.2365 4 25.625V28.2969C4 28.6854 4.31465 29 4.70312 29H7.375C7.76348 29 8.07812 28.6854 8.07812 28.2969C8.07812 27.9084 7.76348 27.5938 7.375 27.5938Z" fill="#333750"/>
<path class="secondary" d="M21.2969 24.9219C20.9084 24.9219 20.5938 25.2365 20.5938 25.625V27.5938H18.625C18.2365 27.5938 17.9219 27.9084 17.9219 28.2969C17.9219 28.6854 18.2365 29 18.625 29H21.2969C21.6854 29 22 28.6854 22 28.2969V25.625C22 25.2365 21.6854 24.9219 21.2969 24.9219Z" fill="#333750"/>
<path class="secondary" d="M12.3848 14.4609V18.6797C12.3848 19.0682 12.0701 19.3828 11.6816 19.3828H7.46289C7.07441 19.3828 6.75977 19.0682 6.75977 18.6797V14.4609C6.75977 14.0725 7.07441 13.7578 7.46289 13.7578H11.6816C12.0701 13.7578 12.3848 14.0725 12.3848 14.4609Z" fill="#333750"/>
<path class="secondary" d="M10.9785 15.1641H8.16602V17.9766H10.9785V15.1641Z" fill="#5F82A6"/>
<path class="secondary" d="M18.8887 13.7578H14.6699C14.2814 13.7578 13.9668 14.0725 13.9668 14.4609V18.6797C13.9668 19.0682 14.2814 19.3828 14.6699 19.3828H18.8887C19.2771 19.3828 19.5918 19.0682 19.5918 18.6797V14.4609C19.5918 14.0725 19.2771 13.7578 18.8887 13.7578ZM18.1855 17.9766H15.373V15.1641H18.1855V17.9766Z" fill="#333750"/>
<path class="secondary" d="M11.6816 20.9688H7.46289C7.07441 20.9688 6.75977 21.2834 6.75977 21.6719V25.8906C6.75977 26.2791 7.07441 26.5938 7.46289 26.5938H11.6816C12.0701 26.5938 12.3848 26.2791 12.3848 25.8906V21.6719C12.3848 21.2834 12.0701 20.9688 11.6816 20.9688ZM10.9785 25.1875H8.16602V22.375H10.9785V25.1875Z" fill="#333750"/>
<path class="secondary" d="M17.9834 21.8711H15.5752C15.1867 21.8711 14.8721 22.1857 14.8721 22.5742V24.9824C14.8721 25.3709 15.1867 25.6855 15.5752 25.6855H17.9834C18.3719 25.6855 18.6865 25.3709 18.6865 24.9824V22.5742C18.6865 22.1857 18.3719 21.8711 17.9834 21.8711ZM17.2803 24.2793H16.2783V23.2773H17.2803V24.2793Z" fill="#5F82A6"/>
</g>
<path class="secondary" d="M-284.768 -56.3828C-298.519 -53.7637 -310.539 -53.195 -322.476 -44.7804C-341.962 -31.0442 -355.821 -8.41576 -366.814 12.1958C-377.209 31.6861 -386.964 49.5352 -391.055 71.451C-394.338 89.0411 -396.529 106.579 -396.649 124.491C-397.14 197.609 -396.11 271.499 -370.44 341.104C-346.195 406.843 -309.113 462.132 -258.145 509.857C-202.427 562.029 -127.213 598.888 -55.7243 624.12C-28.8739 633.596 0.369873 649.504 29.5328 645.667C54.6507 642.362 81.7937 646.022 107.02 647.014C116.709 647.394 135.344 652.441 144.107 646.599" stroke="black" stroke-width="3" stroke-linecap="round" stroke-linejoin="round"/>
<defs>
<filter id="filter0_dd" x="-263" y="-21" width="324" height="86" filterUnits="userSpaceOnUse" color-interpolation-filters="sRGB">
<feFlood flood-opacity="0" result="BackgroundImageFix"/>
<feColorMatrix in="SourceAlpha" type="matrix" values="0 0 0 0 0 0 0 0 0 0 0 0 0 0 0 0 0 0 127 0"/>
<feOffset dy="2"/>
<feGaussianBlur stdDeviation="1"/>
<feColorMatrix type="matrix" values="0 0 0 0 0 0 0 0 0 0 0 0 0 0 0 0 0 0 0.24 0"/>
<feBlend mode="normal" in2="BackgroundImageFix" result="effect1_dropShadow"/>
<feColorMatrix in="SourceAlpha" type="matrix" values="0 0 0 0 0 0 0 0 0 0 0 0 0 0 0 0 0 0 127 0"/>
<feOffset/>
<feGaussianBlur stdDeviation="1"/>
<feColorMatrix type="matrix" values="0 0 0 0 0 0 0 0 0 0 0 0 0 0 0 0 0 0 0.12 0"/>
<feBlend mode="normal" in2="effect1_dropShadow" result="effect2_dropShadow"/>
<feBlend mode="normal" in="SourceGraphic" in2="effect2_dropShadow" result="shape"/>
</filter>
<clipPath id="clip0">
<rect width="320" height="568" fill="white" transform="translate(-261 -323)"/>
</clipPath>
<clipPath id="clip1">
<rect class="secondary" width="38" height="45" fill="white" transform="matrix(-1 0 0 1 38 0)"/>
</clipPath>
</defs>
</svg>
