<svg width="42" height="42" viewBox="0 0 42 42" fill="none" xmlns="http://www.w3.org/2000/svg">
<path class="secondary" fill-rule="evenodd" clip-rule="evenodd" d="M22.6802 16.625H20.9302V18.375H22.6802V16.625ZM24.4302 14.875V20.125H19.1802V14.875H24.4302Z" fill="#5F82A6"/>
<path class="secondary" fill-rule="evenodd" clip-rule="evenodd" d="M12.3901 13.7375V7.71754C12.3901 7.39264 12.4543 7.07092 12.5789 6.77088C12.7036 6.47084 12.8863 6.19837 13.1165 5.96911C13.3467 5.73984 13.6199 5.5583 13.9205 5.4349C14.221 5.3115 14.543 5.24869 14.8679 5.25004H16.1378C16.1662 5.32971 16.1987 5.40803 16.2352 5.48469C16.3798 5.78843 16.5846 6.05965 16.8372 6.2819C17.0897 6.50415 17.3848 6.6728 17.7044 6.77764C18.0106 6.87804 18.3332 6.91791 18.6544 6.89516H24.4658C24.7869 6.91791 25.1096 6.87804 25.4157 6.77764C25.7354 6.6728 26.0305 6.50415 26.283 6.2819C26.5356 6.05965 26.7404 5.78843 26.885 5.48469C26.9215 5.40803 26.954 5.32971 26.9823 5.25004H27.5235C27.8367 5.25175 28.1465 5.31526 28.4351 5.43695C28.7247 5.55903 28.9872 5.73726 29.2075 5.96135C29.4279 6.18543 29.6016 6.45093 29.7188 6.74253C29.836 7.03413 29.8941 7.34604 29.8901 7.66027V8.92504H31.6401V7.68254C31.6471 7.13724 31.5459 6.59598 31.3426 6.08997C31.1393 5.58397 30.8377 5.12325 30.4554 4.7344C30.073 4.34555 29.6175 4.03627 29.115 3.82441C28.6125 3.61255 28.073 3.5023 27.5276 3.50004H14.8751C14.3198 3.49773 13.7695 3.60512 13.2558 3.81604C12.7421 4.02696 12.2751 4.33725 11.8816 4.72911C11.4881 5.12097 11.1759 5.58668 10.9628 6.09952C10.7498 6.61235 10.6401 7.16221 10.6401 7.71754V14.175L12.3901 13.7375ZM29.8901 34.1775V33.25H31.6401V34.1775C31.6471 34.722 31.5458 35.2624 31.3423 35.7674C31.1387 36.2724 30.8369 36.732 30.4543 37.1195C30.0718 37.5069 29.616 37.8146 29.1136 38.0245C28.6112 38.2345 28.0721 38.3425 27.5276 38.3425H14.8751C13.7626 38.3472 12.6933 37.9121 11.9 37.132C11.1068 36.3519 10.654 35.29 10.6401 34.1775V26.25L12.3901 26.8333V34.1652C12.4007 34.8126 12.6653 35.4301 13.1271 35.8843C13.5912 36.3407 14.2168 36.5953 14.8677 36.5925L14.8751 36.5925L27.5276 36.5925C27.8404 36.5925 28.1503 36.5304 28.4389 36.4098C28.7275 36.2892 28.9893 36.1125 29.2091 35.8899C29.4289 35.6673 29.6022 35.4033 29.7192 35.1132C29.8361 34.8231 29.8943 34.5126 29.8903 34.1998L29.8901 34.1775ZM26.2676 33.3026H15.6801V35.0526H26.2676V33.3026ZM11.8485 17.1442L8.38838 20.5451L11.8485 23.9461L10.6218 25.1942L8.57427 23.1817L6.52677 21.1692C6.35941 21.0047 6.26514 20.7798 6.26514 20.5451C6.26514 20.3105 6.35941 20.0856 6.52677 19.9211L10.6218 15.8961L11.8485 17.1442ZM15.6801 15.75H17.4301V13.125H20.0551V11.375H15.6801V15.75ZM30.5551 13.125V11.375H34.9301V15.75H33.1801V13.125H30.5551ZM34.9301 26.25H33.1801V28.875H30.5551V30.625H34.9301V26.25ZM20.0551 28.875V30.625H15.6801V26.25H17.4301V28.875H20.0551ZM21.0176 23.59H22.7676V25.34H21.0176V23.59ZM24.5176 27.09V21.84H19.2676V27.09H24.5176ZM29.6801 16.625H27.9301V18.375H29.6801V16.625ZM31.4301 14.875V20.125H26.1801V14.875H31.4301ZM27.9301 23.625H29.6801V25.375H27.9301V23.625ZM31.4301 27.125V21.875H26.1801V27.125H31.4301Z" fill="#5F82A6"/>
</svg>
