<svg width="17" height="16" viewBox="0 0 17 16" fill="none" xmlns="http://www.w3.org/2000/svg">
<circle cx="8.84961" cy="8" r="8" fill="#FF2727"/>
<path d="M9.46468 8.81738H8.29281L8.12679 3.89062H9.6307L9.46468 8.81738ZM8.87874 9.58887C9.11637 9.58887 9.3068 9.65885 9.45003 9.79883C9.59652 9.9388 9.66976 10.1178 9.66976 10.3359C9.66976 10.5508 9.59652 10.7282 9.45003 10.8682C9.3068 11.0081 9.11637 11.0781 8.87874 11.0781C8.64437 11.0781 8.45394 11.0081 8.30745 10.8682C8.16423 10.7282 8.09261 10.5508 8.09261 10.3359C8.09261 10.1211 8.16423 9.94368 8.30745 9.80371C8.45394 9.66048 8.64437 9.58887 8.87874 9.58887Z" fill="#555555"/>
<path d="M9.46468 8.81738H8.29281L8.12679 3.89062H9.6307L9.46468 8.81738ZM8.87874 9.58887C9.11637 9.58887 9.3068 9.65885 9.45003 9.79883C9.59652 9.9388 9.66976 10.1178 9.66976 10.3359C9.66976 10.5508 9.59652 10.7282 9.45003 10.8682C9.3068 11.0081 9.11637 11.0781 8.87874 11.0781C8.64437 11.0781 8.45394 11.0081 8.30745 10.8682C8.16423 10.7282 8.09261 10.5508 8.09261 10.3359C8.09261 10.1211 8.16423 9.94368 8.30745 9.80371C8.45394 9.66048 8.64437 9.58887 8.87874 9.58887Z" fill="white"/>
</svg>
