<svg width="53" height="38" viewBox="0 0 53 38" fill="none" xmlns="http://www.w3.org/2000/svg">
<g clip-path="url(#clip0)">
<path d="M33.3078 37.9998C40.6327 37.9998 46.5707 32.201 46.5707 25.0479C46.5707 17.8948 40.6327 12.096 33.3078 12.096C25.9828 12.096 20.0448 17.8948 20.0448 25.0479C20.0448 32.201 25.9828 37.9998 33.3078 37.9998Z" fill="#F6F6F6"/>
<path class="secondary" d="M33.3078 21.6252C32.8774 21.6252 32.53 21.286 32.53 20.8657V19.286C32.53 18.8657 32.8774 18.5265 33.3078 18.5265C33.7381 18.5265 34.0855 18.8657 34.0855 19.286V20.8657C34.0855 21.286 33.7381 21.6252 33.3078 21.6252Z" fill="#5F82A6"/>
<path class="secondary" d="M33.3078 32.5872C32.8774 32.5872 32.53 32.2479 32.53 31.8277V30.2479C32.53 29.8277 32.8774 29.4884 33.3078 29.4884C33.7381 29.4884 34.0855 29.8277 34.0855 30.2479V31.8277C34.0855 32.2479 33.7381 32.5872 33.3078 32.5872Z" fill="#5F82A6"/>
<path class="secondary" d="M33.3078 26.1312C31.3894 26.1312 29.8287 24.7793 29.8287 23.1185C29.8287 21.4578 31.3894 20.1059 33.3078 20.1059C35.2262 20.1059 36.7869 21.4578 36.7869 23.1185C36.7869 23.5388 36.4395 23.878 36.0091 23.878C35.5788 23.878 35.2314 23.5388 35.2314 23.1185C35.2314 22.2932 34.3655 21.6248 33.3078 21.6248C32.2501 21.6248 31.3842 22.2932 31.3842 23.1185C31.3842 23.9438 32.2501 24.6122 33.3078 24.6122C33.7381 24.6122 34.0855 24.9514 34.0855 25.3717C34.0855 25.7919 33.7381 26.1312 33.3078 26.1312Z" fill="#333750"/>
<path class="secondary" d="M33.3078 30.6373C31.3894 30.6373 29.8287 29.2854 29.8287 27.6247C29.8287 27.2044 30.1761 26.8652 30.6065 26.8652C31.0368 26.8652 31.3842 27.2044 31.3842 27.6247C31.3842 28.45 32.2501 29.1184 33.3078 29.1184C34.3655 29.1184 35.2314 28.45 35.2314 27.6247C35.2314 26.7994 34.3655 26.131 33.3078 26.131C32.8775 26.131 32.5301 25.7918 32.5301 25.3715C32.5301 24.9513 32.8775 24.612 33.3078 24.612C35.2262 24.612 36.7869 25.9639 36.7869 27.6247C36.7869 29.2854 35.2262 30.6373 33.3078 30.6373Z" fill="#333750"/>
<path class="secondary" d="M43.0709 34.6885C42.6406 34.6885 42.2932 34.3493 42.2932 33.9291V16.167C42.2932 15.7468 42.6406 15.4075 43.0709 15.4075C43.5013 15.4075 43.8487 15.7468 43.8487 16.167V33.9291C43.8487 34.3493 43.5013 34.6885 43.0709 34.6885Z" fill="#5F82A6"/>
<path class="secondary" d="M48.9558 34.6885C48.5255 34.6885 48.1781 34.3493 48.1781 33.9291V16.167C48.1781 15.7468 48.5255 15.4075 48.9558 15.4075C49.3862 15.4075 49.7336 15.7468 49.7336 16.167V33.9291C49.7336 34.3493 49.3862 34.6885 48.9558 34.6885Z" fill="#5F82A6"/>
<path class="secondary" d="M52.2224 35.5946H22.8136C22.3833 35.5946 22.0359 35.2554 22.0359 34.8351C22.0359 34.4149 22.3833 34.0756 22.8136 34.0756H52.2224C52.6527 34.0756 53.0001 34.4149 53.0001 34.8351C53.0001 35.2554 52.6527 35.5946 52.2224 35.5946Z" fill="#5F82A6"/>
<path class="secondary" d="M52.2223 16.0251H25.6031C25.1727 16.0251 24.8253 15.6859 24.8253 15.2656C24.8253 14.8454 25.1727 14.5061 25.6031 14.5061H52.2275C52.6578 14.5061 53.0052 14.8454 53.0052 15.2656C53.0052 15.6859 52.6527 16.0251 52.2223 16.0251Z" fill="#5F82A6"/>
<path class="secondary" d="M51.8697 12.3188C51.7349 12.3188 51.5949 12.2834 51.4705 12.2125L33.7433 1.87328C32.9397 1.40239 31.7834 1.39733 30.9694 1.85303L25.9349 5.66568C25.5978 5.92391 25.1053 5.86315 24.846 5.52898C24.5816 5.19986 24.6438 4.71885 24.986 4.46568L30.1346 0.572013C31.4309 -0.187481 33.2456 -0.187481 34.5418 0.572013L52.2689 10.9113C52.6371 11.1239 52.7563 11.5948 52.5386 11.9543C52.3934 12.1872 52.1341 12.3188 51.8697 12.3188Z" fill="#333750"/>
<path class="secondary" d="M13.6778 16.6733C9.48319 16.6733 6.07153 13.3417 6.07153 9.2455C6.07153 5.14929 9.48319 1.81765 13.6778 1.81765C17.8724 1.81765 21.284 5.14929 21.284 9.2455C21.284 13.3417 17.8724 16.6733 13.6778 16.6733ZM13.6778 3.33157C10.3387 3.33157 7.627 5.98474 7.627 9.24043C7.627 12.5012 10.3439 15.1493 13.6778 15.1493C17.0168 15.1493 19.7285 12.4961 19.7285 9.24043C19.7285 5.98474 17.0168 3.33157 13.6778 3.33157Z" fill="#5F82A6"/>
<path class="secondary" d="M26.5778 31.5089C26.1474 31.5089 25.8 31.1696 25.8 30.7494C25.8 24.2228 20.3611 18.9114 13.6778 18.9114C6.99442 18.9114 1.55547 24.2228 1.55547 30.7494C1.55547 31.1696 1.20808 31.5089 0.777734 31.5089C0.347388 31.5089 0 31.1696 0 30.7494C0 23.3874 6.13373 17.3924 13.6778 17.3924C21.2218 17.3924 27.3555 23.3823 27.3555 30.7494C27.3555 31.1696 27.0029 31.5089 26.5778 31.5089Z" fill="#5F82A6"/>
</g>
<defs>
<clipPath id="clip0">
<rect width="53" height="38" fill="white"/>
</clipPath>
</defs>
</svg>
