<svg width="21" height="21" viewBox="0 0 21 21" fill="none" xmlns="http://www.w3.org/2000/svg">
<circle cx="10.2881" cy="10.4824" r="9.5" fill="#F9F9F9" stroke="#5F82A6"/>
<path d="M13.9941 15.4825H6.82373V14.2594L10.376 10.3849C10.8887 9.81358 11.2524 9.33751 11.4673 8.95665C11.687 8.5709 11.7969 8.18516 11.7969 7.79942C11.7969 7.29161 11.6528 6.88145 11.3647 6.56895C11.0815 6.25645 10.6982 6.1002 10.2148 6.1002C9.63867 6.1002 9.19189 6.27598 8.87451 6.62754C8.55713 6.97911 8.39844 7.46006 8.39844 8.07042H6.61865C6.61865 7.421 6.76514 6.83751 7.05811 6.31993C7.35596 5.79747 7.77832 5.39219 8.3252 5.10411C8.87695 4.81602 9.51172 4.67198 10.2295 4.67198C11.2646 4.67198 12.0801 4.93321 12.6758 5.45567C13.2764 5.97325 13.5767 6.69102 13.5767 7.60899C13.5767 8.14122 13.4253 8.7003 13.1226 9.28624C12.8247 9.86729 12.334 10.5289 11.6504 11.2711L9.04297 14.0616H13.9941V15.4825Z" fill="#5F82A6"/>
</svg>
