<svg width="22" height="13" viewBox="0 0 22 13" fill="none" xmlns="http://www.w3.org/2000/svg">
<path class="primary" d="M10.9984 13C6.02467 13 2.06587 10.3235 0.346521 7.67255C-0.115507 6.96137 -0.115507 6.04118 0.346521 5.32745C2.06587 2.67647 6.02467 0 10.9984 0C15.9873 0 19.9486 2.68667 21.6629 5.35039C22.1124 6.04882 22.1124 6.95118 21.6629 7.64961C19.9486 10.3133 15.9873 13 10.9984 13ZM10.9984 0.764706C6.30744 0.764706 2.5885 3.26784 0.980232 5.74549C0.684837 6.20431 0.684837 6.79569 0.980232 7.25196C2.5885 9.73216 6.30744 12.2353 10.9984 12.2353C15.6793 12.2353 19.479 9.64294 21.0292 7.23157C21.3145 6.78549 21.3145 6.21196 21.0292 5.76588C19.4765 3.35706 15.6768 0.764706 10.9984 0.764706Z" fill="#656982"/>
<path class="primary" d="M11 11C8.79429 11 7 8.98143 7 6.5C7 4.01857 8.79429 2 11 2C13.2057 2 15 4.01857 15 6.5C15 8.98143 13.2057 11 11 11ZM11 2.77143C9.17143 2.77143 7.68571 4.44286 7.68571 6.5C7.68571 8.55714 9.17143 10.2286 11 10.2286C12.8286 10.2286 14.3143 8.55714 14.3143 6.5C14.3143 4.44286 12.8263 2.77143 11 2.77143Z" fill="#656982"/>
</svg>
