<svg width="21" height="21" viewBox="0 0 21 21" fill="none" xmlns="http://www.w3.org/2000/svg">
<path fill-rule="evenodd" clip-rule="evenodd" d="M10.0153 2.37838C10.0152 2.37862 10.0153 2.37814 10.0153 2.37838L8.11396 8.27344H1.89986C1.57684 8.27344 1.36289 8.31251 1.23788 8.35933C1.22142 8.3655 1.20763 8.37132 1.19615 8.37663C1.20205 8.38708 1.20937 8.39912 1.21844 8.41281C1.2914 8.52297 1.44094 8.67923 1.70242 8.86796C1.70244 8.86798 1.7024 8.86795 1.70242 8.86796L6.73872 12.5017L4.80525 18.4084C4.8052 18.4085 4.8053 18.4082 4.80525 18.4084C4.70532 18.7151 4.67615 18.931 4.68203 19.0644C4.68284 19.0826 4.68419 19.098 4.68578 19.1109C4.69809 19.1085 4.71257 19.1051 4.72944 19.1005C4.8575 19.065 5.05329 18.9708 5.31481 18.7798C5.31486 18.7797 5.31477 18.7798 5.31481 18.7798L10.3299 15.1141L15.3448 18.7797C15.3448 18.7797 15.3447 18.7796 15.3448 18.7797C15.6063 18.9707 15.8022 19.065 15.9303 19.1005C15.9472 19.1051 15.9616 19.1085 15.974 19.1109C15.9755 19.098 15.9769 19.0826 15.9777 19.0644C15.9836 18.931 15.9546 18.7156 15.8547 18.409C15.8546 18.4088 15.8547 18.4092 15.8547 18.409L13.9207 12.522L18.9572 8.888C18.9573 8.88799 18.9572 8.88802 18.9572 8.888C19.2187 8.69928 19.3683 8.54297 19.4413 8.43281C19.4504 8.41912 19.4577 8.40708 19.4636 8.39663C19.4521 8.39131 19.4383 8.3855 19.4218 8.37933C19.2968 8.33251 19.0829 8.29344 18.7599 8.29344H12.5454L10.6445 2.37838C10.6444 2.3781 10.6446 2.37866 10.6445 2.37838C10.5444 2.07145 10.441 1.87963 10.3581 1.77553C10.3476 1.76234 10.3382 1.75141 10.3299 1.74239C10.3215 1.75141 10.3121 1.76234 10.3016 1.77553C10.2187 1.87964 10.1154 2.07138 10.0153 2.37838ZM11.1404 1.1526C11.3262 1.3859 11.4754 1.70091 11.5953 2.0685L11.5959 2.07046L13.2744 7.29344H18.7599C19.1468 7.29344 19.4929 7.33811 19.7726 7.44285C20.0479 7.54598 20.3332 7.73861 20.4438 8.0767C20.5547 8.41554 20.4376 8.73954 20.275 8.985C20.1102 9.2339 19.856 9.47262 19.5425 9.69887L15.099 12.9049L16.8053 18.0985C16.9252 18.4665 16.9899 18.8097 16.9767 19.1084C16.9637 19.4027 16.8684 19.7337 16.5808 19.9436C16.2927 20.1538 15.948 20.143 15.6635 20.0642C15.375 19.9844 15.0684 19.8161 14.7549 19.5872L10.3299 16.3528L5.90491 19.5871C5.5915 19.816 5.28471 19.9844 4.99622 20.0642C4.71168 20.143 4.36701 20.1538 4.07888 19.9436C3.79129 19.7337 3.69598 19.4027 3.683 19.1084C3.66983 18.8097 3.73453 18.4665 3.85448 18.0985L5.56101 12.8851L1.1173 9.67891C0.803822 9.45266 0.549569 9.2139 0.384721 8.965C0.222147 8.71954 0.105039 8.39554 0.215902 8.0567C0.326522 7.71861 0.611793 7.52598 0.887155 7.42286C1.16683 7.31811 1.51289 7.27344 1.89986 7.27344H7.38576L9.064 2.06996L9.06448 2.0685C9.18428 1.70091 9.33357 1.3859 9.51935 1.1526C9.70232 0.922813 9.97372 0.710938 10.3299 0.710938C10.686 0.710938 10.9574 0.922813 11.1404 1.1526Z" fill="#C4C4C4"/>
</svg>
