<svg width="40" height="34" viewBox="0 0 40 34" fill="none" xmlns="http://www.w3.org/2000/svg">
<path d="M6.22184 12.3052V18.5968C6.22184 21.3777 8.71263 23.6458 11.7778 23.6458H26.26C27.241 23.6458 28.0391 24.371 28.0391 25.2626C28.0391 26.1541 27.241 26.8794 26.26 26.8794H11.7778C6.75558 26.8794 2.66357 23.1654 2.66357 18.5968V12.3052" fill="white"/>
<path d="M24.0184 24.0752C24.5013 24.0752 24.9842 24.2554 25.3349 24.6065L27.5766 24.3432C28.1917 24.9575 28.1917 25.8999 27.5766 26.5143L20.7956 33.314C20.1348 33.9746 19.0114 34.0254 18.2845 33.4248C17.5576 32.8243 17.5016 31.8034 18.1625 31.1429L23.8659 25.4287L22.7069 26.7822C22.0461 26.1216 22.102 25.0961 22.8289 24.5002C23.1644 24.2138 23.5914 24.0752 24.0184 24.0752Z" fill="white"/>
<path class="primary" d="M4.80874 13.6262C7.46454 13.6262 9.61749 11.6697 9.61749 9.25625C9.61749 6.84281 7.46454 4.88632 4.80874 4.88632C2.15295 4.88632 0 6.84281 0 9.25625C0 11.6697 2.15295 13.6262 4.80874 13.6262Z" fill="#333750"/>
<path d="M33.7782 21.5389V15.2473C33.7782 12.4664 31.2874 10.1983 28.2222 10.1983H13.7401C12.759 10.1983 11.9609 9.47307 11.9609 8.58153C11.9609 7.68999 12.759 6.96475 13.7401 6.96475H28.2222C33.2445 6.96475 37.3365 10.6787 37.3365 15.2473V21.5389" fill="white"/>
<path d="M15.9869 9.76903C15.5039 9.76903 15.021 9.58888 14.6703 9.2378L12.4286 9.50111C11.8135 8.88673 11.8135 7.94438 12.4286 7.33L19.2096 0.530283C19.8705 -0.130288 20.9938 -0.181101 21.7208 0.419418C22.4477 1.01994 22.5036 2.04082 21.8428 2.70139L16.1444 8.41556L17.3034 7.06208C17.9642 7.72265 17.9083 8.74815 17.1814 9.34405C16.8408 9.63045 16.4088 9.76903 15.9869 9.76903Z" fill="white"/>
<path class="primary" d="M35.1913 28.9581C37.8471 28.9581 40.0001 27.0016 40.0001 24.5882C40.0001 22.1747 37.8471 20.2182 35.1913 20.2182C32.5355 20.2182 30.3826 22.1747 30.3826 24.5882C30.3826 27.0016 32.5355 28.9581 35.1913 28.9581Z" fill="#333750"/>
</svg>
