<svg width="23" height="17" viewBox="0 0 23 17" fill="none" xmlns="http://www.w3.org/2000/svg">
<path d="M11.7777 6.9139L11.7785 6.91301C11.9286 6.73117 12.0032 6.50605 12.0032 6.28177C12.0032 6.02735 11.9116 5.77604 11.7199 5.58683L11.7198 5.58677L6.68875 0.630379L6.68832 0.62996C6.34966 0.300317 5.83708 0.299422 5.50274 0.630485C5.50271 0.630513 5.50269 0.63054 5.50266 0.630569L0.471813 5.58677L0.471812 5.58677L0.4714 5.58718C0.119103 5.93831 0.090124 6.53103 0.413873 6.9139C0.740069 7.29967 1.29932 7.33374 1.65791 6.97658C1.65798 6.97651 1.65806 6.97643 1.65813 6.97636L6.0958 2.60648L10.5339 6.97678L10.534 6.97693C10.8974 7.33321 11.4512 7.3001 11.7777 6.9139Z" fill="white" stroke="black" stroke-width="0.2"/>
<path d="M6.97017 15.6393L6.97017 2.95607C6.97017 2.44232 6.58619 2.01315 6.09378 2.01315C5.60136 2.01315 5.21738 2.44232 5.21738 2.95607L5.21738 15.6393C5.21738 16.153 5.60136 16.5822 6.09378 16.5822C6.58619 16.5822 6.97017 16.153 6.97017 15.6393Z" fill="white" stroke="black" stroke-width="0.2"/>
<path d="M10.7984 10.0507L10.7977 10.0516C10.6475 10.2334 10.5729 10.4586 10.5729 10.6828C10.5729 10.9372 10.6646 11.1886 10.8563 11.3778L10.8564 11.3778L15.8874 16.3342L15.8879 16.3346C16.2265 16.6643 16.7391 16.6652 17.0734 16.3341C17.0735 16.3341 17.0735 16.3341 17.0735 16.334L22.1044 11.3778L22.1044 11.3778L22.1048 11.3774C22.4571 11.0263 22.486 10.4336 22.1623 10.0507C21.8361 9.66493 21.2769 9.63086 20.9183 9.98802C20.9182 9.98809 20.9181 9.98817 20.918 9.98824L16.4804 14.3581L12.0423 9.98782L12.0421 9.98767C11.6788 9.63139 11.125 9.6645 10.7984 10.0507Z" fill="white" stroke="black" stroke-width="0.2"/>
<path d="M15.606 1.32535L15.606 14.0085C15.606 14.5223 15.99 14.9515 16.4824 14.9515C16.9748 14.9515 17.3588 14.5223 17.3588 14.0085L17.3588 1.32535C17.3588 0.811599 16.9748 0.382422 16.4824 0.382422C15.99 0.382422 15.606 0.811599 15.606 1.32535Z" fill="white" stroke="black" stroke-width="0.2"/>
</svg>
